<?xml version="1.0" encoding="utf-8"?>
<svg xmlns="http://www.w3.org/2000/svg" xmlns:xlink="http://www.w3.org/1999/xlink" width="600" height="400" viewBox="0 0 2400 1600">
<defs>
  <clipPath id="clip570">
    <rect x="0" y="0" width="2400" height="1600"/>
  </clipPath>
</defs>
<path clip-path="url(#clip570)" d="M0 1600 L2400 1600 L2400 0 L0 0  Z" fill="#ffffff" fill-rule="evenodd" fill-opacity="1"/>
<defs>
  <clipPath id="clip571">
    <rect x="480" y="0" width="1681" height="1600"/>
  </clipPath>
</defs>
<path clip-path="url(#clip570)" d="M219.033 1423.18 L2352.76 1423.18 L2352.76 47.2441 L219.033 47.2441  Z" fill="#ffffff" fill-rule="evenodd" fill-opacity="1"/>
<defs>
  <clipPath id="clip572">
    <rect x="219" y="47" width="2135" height="1377"/>
  </clipPath>
</defs>
<polyline clip-path="url(#clip572)" style="stroke:#000000; stroke-linecap:round; stroke-linejoin:round; stroke-width:2; stroke-opacity:0.1; fill:none" points="597.255,1423.18 597.255,47.2441 "/>
<polyline clip-path="url(#clip572)" style="stroke:#000000; stroke-linecap:round; stroke-linejoin:round; stroke-width:2; stroke-opacity:0.1; fill:none" points="1021.03,1423.18 1021.03,47.2441 "/>
<polyline clip-path="url(#clip572)" style="stroke:#000000; stroke-linecap:round; stroke-linejoin:round; stroke-width:2; stroke-opacity:0.1; fill:none" points="1444.81,1423.18 1444.81,47.2441 "/>
<polyline clip-path="url(#clip572)" style="stroke:#000000; stroke-linecap:round; stroke-linejoin:round; stroke-width:2; stroke-opacity:0.1; fill:none" points="1868.59,1423.18 1868.59,47.2441 "/>
<polyline clip-path="url(#clip572)" style="stroke:#000000; stroke-linecap:round; stroke-linejoin:round; stroke-width:2; stroke-opacity:0.1; fill:none" points="2292.37,1423.18 2292.37,47.2441 "/>
<polyline clip-path="url(#clip570)" style="stroke:#000000; stroke-linecap:round; stroke-linejoin:round; stroke-width:4; stroke-opacity:1; fill:none" points="219.033,1423.18 2352.76,1423.18 "/>
<polyline clip-path="url(#clip570)" style="stroke:#000000; stroke-linecap:round; stroke-linejoin:round; stroke-width:4; stroke-opacity:1; fill:none" points="597.255,1423.18 597.255,1404.28 "/>
<polyline clip-path="url(#clip570)" style="stroke:#000000; stroke-linecap:round; stroke-linejoin:round; stroke-width:4; stroke-opacity:1; fill:none" points="1021.03,1423.18 1021.03,1404.28 "/>
<polyline clip-path="url(#clip570)" style="stroke:#000000; stroke-linecap:round; stroke-linejoin:round; stroke-width:4; stroke-opacity:1; fill:none" points="1444.81,1423.18 1444.81,1404.28 "/>
<polyline clip-path="url(#clip570)" style="stroke:#000000; stroke-linecap:round; stroke-linejoin:round; stroke-width:4; stroke-opacity:1; fill:none" points="1868.59,1423.18 1868.59,1404.28 "/>
<polyline clip-path="url(#clip570)" style="stroke:#000000; stroke-linecap:round; stroke-linejoin:round; stroke-width:4; stroke-opacity:1; fill:none" points="2292.37,1423.18 2292.37,1404.28 "/>
<path clip-path="url(#clip570)" d="M556.862 1481.64 L564.5 1481.64 L564.5 1455.28 L556.19 1456.95 L556.19 1452.69 L564.454 1451.02 L569.13 1451.02 L569.13 1481.64 L576.769 1481.64 L576.769 1485.58 L556.862 1485.58 L556.862 1481.64 Z" fill="#000000" fill-rule="nonzero" fill-opacity="1" /><path clip-path="url(#clip570)" d="M596.213 1454.1 Q592.602 1454.1 590.773 1457.66 Q588.968 1461.2 588.968 1468.33 Q588.968 1475.44 590.773 1479.01 Q592.602 1482.55 596.213 1482.55 Q599.848 1482.55 601.653 1479.01 Q603.482 1475.44 603.482 1468.33 Q603.482 1461.2 601.653 1457.66 Q599.848 1454.1 596.213 1454.1 M596.213 1450.39 Q602.023 1450.39 605.079 1455 Q608.158 1459.58 608.158 1468.33 Q608.158 1477.06 605.079 1481.67 Q602.023 1486.25 596.213 1486.25 Q590.403 1486.25 587.324 1481.67 Q584.269 1477.06 584.269 1468.33 Q584.269 1459.58 587.324 1455 Q590.403 1450.39 596.213 1450.39 Z" fill="#000000" fill-rule="nonzero" fill-opacity="1" /><path clip-path="url(#clip570)" d="M626.375 1454.1 Q622.764 1454.1 620.935 1457.66 Q619.13 1461.2 619.13 1468.33 Q619.13 1475.44 620.935 1479.01 Q622.764 1482.55 626.375 1482.55 Q630.009 1482.55 631.815 1479.01 Q633.644 1475.44 633.644 1468.33 Q633.644 1461.2 631.815 1457.66 Q630.009 1454.1 626.375 1454.1 M626.375 1450.39 Q632.185 1450.39 635.241 1455 Q638.32 1459.58 638.32 1468.33 Q638.32 1477.06 635.241 1481.67 Q632.185 1486.25 626.375 1486.25 Q620.565 1486.25 617.486 1481.67 Q614.431 1477.06 614.431 1468.33 Q614.431 1459.58 617.486 1455 Q620.565 1450.39 626.375 1450.39 Z" fill="#000000" fill-rule="nonzero" fill-opacity="1" /><path clip-path="url(#clip570)" d="M984.725 1481.64 L1001.04 1481.64 L1001.04 1485.58 L979.1 1485.58 L979.1 1481.64 Q981.762 1478.89 986.346 1474.26 Q990.952 1469.61 992.133 1468.27 Q994.378 1465.74 995.258 1464.01 Q996.161 1462.25 996.161 1460.56 Q996.161 1457.8 994.216 1456.07 Q992.295 1454.33 989.193 1454.33 Q986.994 1454.33 984.54 1455.09 Q982.11 1455.86 979.332 1457.41 L979.332 1452.69 Q982.156 1451.55 984.61 1450.97 Q987.063 1450.39 989.1 1450.39 Q994.471 1450.39 997.665 1453.08 Q1000.86 1455.77 1000.86 1460.26 Q1000.86 1462.39 1000.05 1464.31 Q999.262 1466.2 997.156 1468.8 Q996.577 1469.47 993.475 1472.69 Q990.374 1475.88 984.725 1481.64 Z" fill="#000000" fill-rule="nonzero" fill-opacity="1" /><path clip-path="url(#clip570)" d="M1020.86 1454.1 Q1017.25 1454.1 1015.42 1457.66 Q1013.61 1461.2 1013.61 1468.33 Q1013.61 1475.44 1015.42 1479.01 Q1017.25 1482.55 1020.86 1482.55 Q1024.49 1482.55 1026.3 1479.01 Q1028.13 1475.44 1028.13 1468.33 Q1028.13 1461.2 1026.3 1457.66 Q1024.49 1454.1 1020.86 1454.1 M1020.86 1450.39 Q1026.67 1450.39 1029.73 1455 Q1032.8 1459.58 1032.8 1468.33 Q1032.8 1477.06 1029.73 1481.67 Q1026.67 1486.25 1020.86 1486.25 Q1015.05 1486.25 1011.97 1481.67 Q1008.92 1477.06 1008.92 1468.33 Q1008.92 1459.58 1011.97 1455 Q1015.05 1450.39 1020.86 1450.39 Z" fill="#000000" fill-rule="nonzero" fill-opacity="1" /><path clip-path="url(#clip570)" d="M1051.02 1454.1 Q1047.41 1454.1 1045.58 1457.66 Q1043.78 1461.2 1043.78 1468.33 Q1043.78 1475.44 1045.58 1479.01 Q1047.41 1482.55 1051.02 1482.55 Q1054.66 1482.55 1056.46 1479.01 Q1058.29 1475.44 1058.29 1468.33 Q1058.29 1461.2 1056.46 1457.66 Q1054.66 1454.1 1051.02 1454.1 M1051.02 1450.39 Q1056.83 1450.39 1059.89 1455 Q1062.97 1459.58 1062.97 1468.33 Q1062.97 1477.06 1059.89 1481.67 Q1056.83 1486.25 1051.02 1486.25 Q1045.21 1486.25 1042.13 1481.67 Q1039.08 1477.06 1039.08 1468.33 Q1039.08 1459.58 1042.13 1455 Q1045.21 1450.39 1051.02 1450.39 Z" fill="#000000" fill-rule="nonzero" fill-opacity="1" /><path clip-path="url(#clip570)" d="M1418.57 1466.95 Q1421.93 1467.66 1423.8 1469.93 Q1425.7 1472.2 1425.7 1475.53 Q1425.7 1480.65 1422.18 1483.45 Q1418.67 1486.25 1412.18 1486.25 Q1410.01 1486.25 1407.69 1485.81 Q1405.4 1485.39 1402.95 1484.54 L1402.95 1480.02 Q1404.89 1481.16 1407.21 1481.74 Q1409.52 1482.32 1412.05 1482.32 Q1416.44 1482.32 1418.73 1480.58 Q1421.05 1478.84 1421.05 1475.53 Q1421.05 1472.48 1418.9 1470.77 Q1416.77 1469.03 1412.95 1469.03 L1408.92 1469.03 L1408.92 1465.19 L1413.13 1465.19 Q1416.58 1465.19 1418.41 1463.82 Q1420.24 1462.43 1420.24 1459.84 Q1420.24 1457.18 1418.34 1455.77 Q1416.47 1454.33 1412.95 1454.33 Q1411.03 1454.33 1408.83 1454.75 Q1406.63 1455.16 1403.99 1456.04 L1403.99 1451.88 Q1406.65 1451.14 1408.97 1450.77 Q1411.3 1450.39 1413.36 1450.39 Q1418.69 1450.39 1421.79 1452.83 Q1424.89 1455.23 1424.89 1459.35 Q1424.89 1462.22 1423.25 1464.21 Q1421.61 1466.18 1418.57 1466.95 Z" fill="#000000" fill-rule="nonzero" fill-opacity="1" /><path clip-path="url(#clip570)" d="M1444.57 1454.1 Q1440.96 1454.1 1439.13 1457.66 Q1437.32 1461.2 1437.32 1468.33 Q1437.32 1475.44 1439.13 1479.01 Q1440.96 1482.55 1444.57 1482.55 Q1448.2 1482.55 1450.01 1479.01 Q1451.84 1475.44 1451.84 1468.33 Q1451.84 1461.2 1450.01 1457.66 Q1448.2 1454.1 1444.57 1454.1 M1444.57 1450.39 Q1450.38 1450.39 1453.43 1455 Q1456.51 1459.58 1456.51 1468.33 Q1456.51 1477.06 1453.43 1481.67 Q1450.38 1486.25 1444.57 1486.25 Q1438.76 1486.25 1435.68 1481.67 Q1432.62 1477.06 1432.62 1468.33 Q1432.62 1459.58 1435.68 1455 Q1438.76 1450.39 1444.57 1450.39 Z" fill="#000000" fill-rule="nonzero" fill-opacity="1" /><path clip-path="url(#clip570)" d="M1474.73 1454.1 Q1471.12 1454.1 1469.29 1457.66 Q1467.48 1461.2 1467.48 1468.33 Q1467.48 1475.44 1469.29 1479.01 Q1471.12 1482.55 1474.73 1482.55 Q1478.36 1482.55 1480.17 1479.01 Q1482 1475.44 1482 1468.33 Q1482 1461.2 1480.17 1457.66 Q1478.36 1454.1 1474.73 1454.1 M1474.73 1450.39 Q1480.54 1450.39 1483.6 1455 Q1486.67 1459.58 1486.67 1468.33 Q1486.67 1477.06 1483.6 1481.67 Q1480.54 1486.25 1474.73 1486.25 Q1468.92 1486.25 1465.84 1481.67 Q1462.79 1477.06 1462.79 1468.33 Q1462.79 1459.58 1465.84 1455 Q1468.92 1450.39 1474.73 1450.39 Z" fill="#000000" fill-rule="nonzero" fill-opacity="1" /><path clip-path="url(#clip570)" d="M1841.68 1455.09 L1829.87 1473.54 L1841.68 1473.54 L1841.68 1455.09 M1840.45 1451.02 L1846.33 1451.02 L1846.33 1473.54 L1851.26 1473.54 L1851.26 1477.43 L1846.33 1477.43 L1846.33 1485.58 L1841.68 1485.58 L1841.68 1477.43 L1826.08 1477.43 L1826.08 1472.92 L1840.45 1451.02 Z" fill="#000000" fill-rule="nonzero" fill-opacity="1" /><path clip-path="url(#clip570)" d="M1868.99 1454.1 Q1865.38 1454.1 1863.55 1457.66 Q1861.75 1461.2 1861.75 1468.33 Q1861.75 1475.44 1863.55 1479.01 Q1865.38 1482.55 1868.99 1482.55 Q1872.63 1482.55 1874.43 1479.01 Q1876.26 1475.44 1876.26 1468.33 Q1876.26 1461.2 1874.43 1457.66 Q1872.63 1454.1 1868.99 1454.1 M1868.99 1450.39 Q1874.8 1450.39 1877.86 1455 Q1880.94 1459.58 1880.94 1468.33 Q1880.94 1477.06 1877.86 1481.67 Q1874.8 1486.25 1868.99 1486.25 Q1863.18 1486.25 1860.11 1481.67 Q1857.05 1477.06 1857.05 1468.33 Q1857.05 1459.58 1860.11 1455 Q1863.18 1450.39 1868.99 1450.39 Z" fill="#000000" fill-rule="nonzero" fill-opacity="1" /><path clip-path="url(#clip570)" d="M1899.16 1454.1 Q1895.55 1454.1 1893.72 1457.66 Q1891.91 1461.2 1891.91 1468.33 Q1891.91 1475.44 1893.72 1479.01 Q1895.55 1482.55 1899.16 1482.55 Q1902.79 1482.55 1904.6 1479.01 Q1906.42 1475.44 1906.42 1468.33 Q1906.42 1461.2 1904.6 1457.66 Q1902.79 1454.1 1899.16 1454.1 M1899.16 1450.39 Q1904.97 1450.39 1908.02 1455 Q1911.1 1459.58 1911.1 1468.33 Q1911.1 1477.06 1908.02 1481.67 Q1904.97 1486.25 1899.16 1486.25 Q1893.35 1486.25 1890.27 1481.67 Q1887.21 1477.06 1887.21 1468.33 Q1887.21 1459.58 1890.27 1455 Q1893.35 1450.39 1899.16 1450.39 Z" fill="#000000" fill-rule="nonzero" fill-opacity="1" /><path clip-path="url(#clip570)" d="M2251.99 1451.02 L2270.34 1451.02 L2270.34 1454.96 L2256.27 1454.96 L2256.27 1463.43 Q2257.29 1463.08 2258.31 1462.92 Q2259.32 1462.73 2260.34 1462.73 Q2266.13 1462.73 2269.51 1465.9 Q2272.89 1469.08 2272.89 1474.49 Q2272.89 1480.07 2269.42 1483.17 Q2265.94 1486.25 2259.62 1486.25 Q2257.45 1486.25 2255.18 1485.88 Q2252.93 1485.51 2250.53 1484.77 L2250.53 1480.07 Q2252.61 1481.2 2254.83 1481.76 Q2257.06 1482.32 2259.53 1482.32 Q2263.54 1482.32 2265.87 1480.21 Q2268.21 1478.1 2268.21 1474.49 Q2268.21 1470.88 2265.87 1468.77 Q2263.54 1466.67 2259.53 1466.67 Q2257.66 1466.67 2255.78 1467.08 Q2253.93 1467.5 2251.99 1468.38 L2251.99 1451.02 Z" fill="#000000" fill-rule="nonzero" fill-opacity="1" /><path clip-path="url(#clip570)" d="M2292.1 1454.1 Q2288.49 1454.1 2286.66 1457.66 Q2284.86 1461.2 2284.86 1468.33 Q2284.86 1475.44 2286.66 1479.01 Q2288.49 1482.55 2292.1 1482.55 Q2295.74 1482.55 2297.54 1479.01 Q2299.37 1475.44 2299.37 1468.33 Q2299.37 1461.2 2297.54 1457.66 Q2295.74 1454.1 2292.1 1454.1 M2292.1 1450.39 Q2297.91 1450.39 2300.97 1455 Q2304.05 1459.58 2304.05 1468.33 Q2304.05 1477.06 2300.97 1481.67 Q2297.91 1486.25 2292.1 1486.25 Q2286.29 1486.25 2283.21 1481.67 Q2280.16 1477.06 2280.16 1468.33 Q2280.16 1459.58 2283.21 1455 Q2286.29 1450.39 2292.1 1450.39 Z" fill="#000000" fill-rule="nonzero" fill-opacity="1" /><path clip-path="url(#clip570)" d="M2322.26 1454.1 Q2318.65 1454.1 2316.82 1457.66 Q2315.02 1461.2 2315.02 1468.33 Q2315.02 1475.44 2316.82 1479.01 Q2318.65 1482.55 2322.26 1482.55 Q2325.9 1482.55 2327.7 1479.01 Q2329.53 1475.44 2329.53 1468.33 Q2329.53 1461.2 2327.7 1457.66 Q2325.9 1454.1 2322.26 1454.1 M2322.26 1450.39 Q2328.07 1450.39 2331.13 1455 Q2334.21 1459.58 2334.21 1468.33 Q2334.21 1477.06 2331.13 1481.67 Q2328.07 1486.25 2322.26 1486.25 Q2316.45 1486.25 2313.37 1481.67 Q2310.32 1477.06 2310.32 1468.33 Q2310.32 1459.58 2313.37 1455 Q2316.45 1450.39 2322.26 1450.39 Z" fill="#000000" fill-rule="nonzero" fill-opacity="1" /><path clip-path="url(#clip570)" d="M1271.11 1520.52 L1277.54 1520.52 L1277.54 1562.63 L1300.68 1562.63 L1300.68 1568.04 L1271.11 1568.04 L1271.11 1520.52 Z" fill="#000000" fill-rule="nonzero" fill-opacity="1" /><polyline clip-path="url(#clip572)" style="stroke:#000000; stroke-linecap:round; stroke-linejoin:round; stroke-width:2; stroke-opacity:0.1; fill:none" points="219.033,1098.58 2352.76,1098.58 "/>
<polyline clip-path="url(#clip572)" style="stroke:#000000; stroke-linecap:round; stroke-linejoin:round; stroke-width:2; stroke-opacity:0.1; fill:none" points="219.033,767.662 2352.76,767.662 "/>
<polyline clip-path="url(#clip572)" style="stroke:#000000; stroke-linecap:round; stroke-linejoin:round; stroke-width:2; stroke-opacity:0.1; fill:none" points="219.033,436.743 2352.76,436.743 "/>
<polyline clip-path="url(#clip572)" style="stroke:#000000; stroke-linecap:round; stroke-linejoin:round; stroke-width:2; stroke-opacity:0.1; fill:none" points="219.033,105.824 2352.76,105.824 "/>
<polyline clip-path="url(#clip570)" style="stroke:#000000; stroke-linecap:round; stroke-linejoin:round; stroke-width:4; stroke-opacity:1; fill:none" points="219.033,1423.18 219.033,47.2441 "/>
<polyline clip-path="url(#clip570)" style="stroke:#000000; stroke-linecap:round; stroke-linejoin:round; stroke-width:4; stroke-opacity:1; fill:none" points="219.033,1098.58 237.931,1098.58 "/>
<polyline clip-path="url(#clip570)" style="stroke:#000000; stroke-linecap:round; stroke-linejoin:round; stroke-width:4; stroke-opacity:1; fill:none" points="219.033,767.662 237.931,767.662 "/>
<polyline clip-path="url(#clip570)" style="stroke:#000000; stroke-linecap:round; stroke-linejoin:round; stroke-width:4; stroke-opacity:1; fill:none" points="219.033,436.743 237.931,436.743 "/>
<polyline clip-path="url(#clip570)" style="stroke:#000000; stroke-linecap:round; stroke-linejoin:round; stroke-width:4; stroke-opacity:1; fill:none" points="219.033,105.824 237.931,105.824 "/>
<path clip-path="url(#clip570)" d="M126.853 1084.38 Q123.242 1084.38 121.413 1087.94 Q119.607 1091.49 119.607 1098.62 Q119.607 1105.72 121.413 1109.29 Q123.242 1112.83 126.853 1112.83 Q130.487 1112.83 132.292 1109.29 Q134.121 1105.72 134.121 1098.62 Q134.121 1091.49 132.292 1087.94 Q130.487 1084.38 126.853 1084.38 M126.853 1080.68 Q132.663 1080.68 135.718 1085.28 Q138.797 1089.87 138.797 1098.62 Q138.797 1107.34 135.718 1111.95 Q132.663 1116.53 126.853 1116.53 Q121.043 1116.53 117.964 1111.95 Q114.908 1107.34 114.908 1098.62 Q114.908 1089.87 117.964 1085.28 Q121.043 1080.68 126.853 1080.68 Z" fill="#000000" fill-rule="nonzero" fill-opacity="1" /><path clip-path="url(#clip570)" d="M147.015 1109.98 L151.899 1109.98 L151.899 1115.86 L147.015 1115.86 L147.015 1109.98 Z" fill="#000000" fill-rule="nonzero" fill-opacity="1" /><path clip-path="url(#clip570)" d="M162.13 1081.3 L180.487 1081.3 L180.487 1085.24 L166.413 1085.24 L166.413 1093.71 Q167.431 1093.36 168.45 1093.2 Q169.468 1093.01 170.487 1093.01 Q176.274 1093.01 179.653 1096.19 Q183.033 1099.36 183.033 1104.77 Q183.033 1110.35 179.561 1113.45 Q176.089 1116.53 169.769 1116.53 Q167.593 1116.53 165.325 1116.16 Q163.079 1115.79 160.672 1115.05 L160.672 1110.35 Q162.755 1111.49 164.977 1112.04 Q167.2 1112.6 169.677 1112.6 Q173.681 1112.6 176.019 1110.49 Q178.357 1108.38 178.357 1104.77 Q178.357 1101.16 176.019 1099.06 Q173.681 1096.95 169.677 1096.95 Q167.802 1096.95 165.927 1097.37 Q164.075 1097.78 162.13 1098.66 L162.13 1081.3 Z" fill="#000000" fill-rule="nonzero" fill-opacity="1" /><path clip-path="url(#clip570)" d="M116.668 781.007 L124.306 781.007 L124.306 754.641 L115.996 756.308 L115.996 752.049 L124.26 750.382 L128.936 750.382 L128.936 781.007 L136.575 781.007 L136.575 784.942 L116.668 784.942 L116.668 781.007 Z" fill="#000000" fill-rule="nonzero" fill-opacity="1" /><path clip-path="url(#clip570)" d="M146.019 779.062 L150.903 779.062 L150.903 784.942 L146.019 784.942 L146.019 779.062 Z" fill="#000000" fill-rule="nonzero" fill-opacity="1" /><path clip-path="url(#clip570)" d="M171.089 753.461 Q167.477 753.461 165.649 757.025 Q163.843 760.567 163.843 767.697 Q163.843 774.803 165.649 778.368 Q167.477 781.91 171.089 781.91 Q174.723 781.91 176.528 778.368 Q178.357 774.803 178.357 767.697 Q178.357 760.567 176.528 757.025 Q174.723 753.461 171.089 753.461 M171.089 749.757 Q176.899 749.757 179.954 754.363 Q183.033 758.947 183.033 767.697 Q183.033 776.423 179.954 781.03 Q176.899 785.613 171.089 785.613 Q165.278 785.613 162.2 781.03 Q159.144 776.423 159.144 767.697 Q159.144 758.947 162.2 754.363 Q165.278 749.757 171.089 749.757 Z" fill="#000000" fill-rule="nonzero" fill-opacity="1" /><path clip-path="url(#clip570)" d="M117.663 450.088 L125.302 450.088 L125.302 423.722 L116.992 425.389 L116.992 421.13 L125.255 419.463 L129.931 419.463 L129.931 450.088 L137.57 450.088 L137.57 454.023 L117.663 454.023 L117.663 450.088 Z" fill="#000000" fill-rule="nonzero" fill-opacity="1" /><path clip-path="url(#clip570)" d="M147.015 448.143 L151.899 448.143 L151.899 454.023 L147.015 454.023 L147.015 448.143 Z" fill="#000000" fill-rule="nonzero" fill-opacity="1" /><path clip-path="url(#clip570)" d="M162.13 419.463 L180.487 419.463 L180.487 423.398 L166.413 423.398 L166.413 431.87 Q167.431 431.523 168.45 431.361 Q169.468 431.176 170.487 431.176 Q176.274 431.176 179.653 434.347 Q183.033 437.519 183.033 442.935 Q183.033 448.514 179.561 451.616 Q176.089 454.694 169.769 454.694 Q167.593 454.694 165.325 454.324 Q163.079 453.954 160.672 453.213 L160.672 448.514 Q162.755 449.648 164.977 450.204 Q167.2 450.759 169.677 450.759 Q173.681 450.759 176.019 448.653 Q178.357 446.546 178.357 442.935 Q178.357 439.324 176.019 437.218 Q173.681 435.111 169.677 435.111 Q167.802 435.111 165.927 435.528 Q164.075 435.944 162.13 436.824 L162.13 419.463 Z" fill="#000000" fill-rule="nonzero" fill-opacity="1" /><path clip-path="url(#clip570)" d="M119.885 119.169 L136.204 119.169 L136.204 123.104 L114.26 123.104 L114.26 119.169 Q116.922 116.414 121.505 111.785 Q126.112 107.132 127.292 105.789 Q129.538 103.266 130.417 101.53 Q131.32 99.771 131.32 98.0812 Q131.32 95.3265 129.376 93.5904 Q127.455 91.8543 124.353 91.8543 Q122.154 91.8543 119.7 92.6182 Q117.269 93.3821 114.492 94.933 L114.492 90.2108 Q117.316 89.0766 119.769 88.4979 Q122.223 87.9192 124.26 87.9192 Q129.63 87.9192 132.825 90.6043 Q136.019 93.2895 136.019 97.7802 Q136.019 99.9099 135.209 101.831 Q134.422 103.729 132.316 106.322 Q131.737 106.993 128.635 110.211 Q125.533 113.405 119.885 119.169 Z" fill="#000000" fill-rule="nonzero" fill-opacity="1" /><path clip-path="url(#clip570)" d="M146.019 117.225 L150.903 117.225 L150.903 123.104 L146.019 123.104 L146.019 117.225 Z" fill="#000000" fill-rule="nonzero" fill-opacity="1" /><path clip-path="url(#clip570)" d="M171.089 91.6229 Q167.477 91.6229 165.649 95.1877 Q163.843 98.7293 163.843 105.859 Q163.843 112.965 165.649 116.53 Q167.477 120.072 171.089 120.072 Q174.723 120.072 176.528 116.53 Q178.357 112.965 178.357 105.859 Q178.357 98.7293 176.528 95.1877 Q174.723 91.6229 171.089 91.6229 M171.089 87.9192 Q176.899 87.9192 179.954 92.5256 Q183.033 97.1089 183.033 105.859 Q183.033 114.586 179.954 119.192 Q176.899 123.775 171.089 123.775 Q165.278 123.775 162.2 119.192 Q159.144 114.586 159.144 105.859 Q159.144 97.1089 162.2 92.5256 Q165.278 87.9192 171.089 87.9192 Z" fill="#000000" fill-rule="nonzero" fill-opacity="1" /><path clip-path="url(#clip570)" d="M20.1444 1040 L26.9239 1040 Q23.9002 1043.25 22.4043 1046.94 Q20.9083 1050.6 20.9083 1054.74 Q20.9083 1062.89 25.9054 1067.22 Q30.8707 1071.54 40.2919 1071.54 Q49.6813 1071.54 54.6784 1067.22 Q59.6436 1062.89 59.6436 1054.74 Q59.6436 1050.6 58.1477 1046.94 Q56.6518 1043.25 53.6281 1040 L60.3439 1040 Q62.6355 1043.38 63.7814 1047.16 Q64.9272 1050.92 64.9272 1055.12 Q64.9272 1065.91 58.3387 1072.12 Q51.7183 1078.32 40.2919 1078.32 Q28.8336 1078.32 22.2451 1072.12 Q15.6248 1065.91 15.6248 1055.12 Q15.6248 1050.86 16.7706 1047.1 Q17.8846 1043.31 20.1444 1040 Z" fill="#000000" fill-rule="nonzero" fill-opacity="1" /><path clip-path="url(#clip570)" d="M32.4621 1016.51 Q32.4621 1021.22 36.1542 1023.96 Q39.8145 1026.7 46.212 1026.7 Q52.6095 1026.7 56.3017 1023.99 Q59.9619 1021.25 59.9619 1016.51 Q59.9619 1011.83 56.2698 1009.1 Q52.5777 1006.36 46.212 1006.36 Q39.8781 1006.36 36.186 1009.1 Q32.4621 1011.83 32.4621 1016.51 M27.4968 1016.51 Q27.4968 1008.87 32.4621 1004.51 Q37.4273 1000.15 46.212 1000.15 Q54.9649 1000.15 59.9619 1004.51 Q64.9272 1008.87 64.9272 1016.51 Q64.9272 1024.18 59.9619 1028.54 Q54.9649 1032.87 46.212 1032.87 Q37.4273 1032.87 32.4621 1028.54 Q27.4968 1024.18 27.4968 1016.51 Z" fill="#000000" fill-rule="nonzero" fill-opacity="1" /><path clip-path="url(#clip570)" d="M35.1993 962.69 Q31.2526 960.494 29.3747 957.439 Q27.4968 954.383 27.4968 950.246 Q27.4968 944.676 31.4117 941.652 Q35.2948 938.628 42.4881 938.628 L64.0042 938.628 L64.0042 944.516 L42.679 944.516 Q37.5546 944.516 35.072 946.331 Q32.5894 948.145 32.5894 951.869 Q32.5894 956.42 35.6131 959.062 Q38.6368 961.704 43.8567 961.704 L64.0042 961.704 L64.0042 967.592 L42.679 967.592 Q37.5228 967.592 35.072 969.406 Q32.5894 971.221 32.5894 975.008 Q32.5894 979.496 35.6449 982.138 Q38.6686 984.779 43.8567 984.779 L64.0042 984.779 L64.0042 990.668 L28.3562 990.668 L28.3562 984.779 L33.8944 984.779 Q30.616 982.774 29.0564 979.973 Q27.4968 977.172 27.4968 973.321 Q27.4968 969.438 29.4702 966.733 Q31.4436 963.995 35.1993 962.69 Z" fill="#000000" fill-rule="nonzero" fill-opacity="1" /><path clip-path="url(#clip570)" d="M58.657 921.282 L77.5631 921.282 L77.5631 927.17 L28.3562 927.17 L28.3562 921.282 L33.7671 921.282 Q30.5842 919.436 29.0564 916.635 Q27.4968 913.802 27.4968 909.887 Q27.4968 903.394 32.6531 899.352 Q37.8093 895.278 46.212 895.278 Q54.6147 895.278 59.771 899.352 Q64.9272 903.394 64.9272 909.887 Q64.9272 913.802 63.3994 916.635 Q61.8398 919.436 58.657 921.282 M46.212 901.357 Q39.7508 901.357 36.0905 904.031 Q32.3984 906.672 32.3984 911.319 Q32.3984 915.966 36.0905 918.64 Q39.7508 921.282 46.212 921.282 Q52.6732 921.282 56.3653 918.64 Q60.0256 915.966 60.0256 911.319 Q60.0256 906.672 56.3653 904.031 Q52.6732 901.357 46.212 901.357 Z" fill="#000000" fill-rule="nonzero" fill-opacity="1" /><path clip-path="url(#clip570)" d="M49.9359 886.175 L28.3562 886.175 L28.3562 880.318 L49.7131 880.318 Q54.7739 880.318 57.3202 878.345 Q59.8346 876.372 59.8346 872.425 Q59.8346 867.682 56.8109 864.945 Q53.7872 862.176 48.5673 862.176 L28.3562 862.176 L28.3562 856.32 L64.0042 856.32 L64.0042 862.176 L58.5296 862.176 Q61.7762 864.308 63.3676 867.141 Q64.9272 869.942 64.9272 873.666 Q64.9272 879.809 61.1078 882.992 Q57.2883 886.175 49.9359 886.175 M27.4968 871.438 L27.4968 871.438 Z" fill="#000000" fill-rule="nonzero" fill-opacity="1" /><path clip-path="url(#clip570)" d="M18.2347 838.464 L28.3562 838.464 L28.3562 826.401 L32.9077 826.401 L32.9077 838.464 L52.2594 838.464 Q56.6199 838.464 57.8613 837.286 Q59.1026 836.077 59.1026 832.416 L59.1026 826.401 L64.0042 826.401 L64.0042 832.416 Q64.0042 839.196 61.4897 841.774 Q58.9434 844.352 52.2594 844.352 L32.9077 844.352 L32.9077 848.649 L28.3562 848.649 L28.3562 844.352 L18.2347 844.352 L18.2347 838.464 Z" fill="#000000" fill-rule="nonzero" fill-opacity="1" /><path clip-path="url(#clip570)" d="M46.0847 802.497 Q46.0847 809.595 47.7079 812.333 Q49.3312 815.07 53.2461 815.07 Q56.3653 815.07 58.2114 813.033 Q60.0256 810.964 60.0256 807.431 Q60.0256 802.561 56.5881 799.633 Q53.1188 796.673 47.3897 796.673 L46.0847 796.673 L46.0847 802.497 M43.6657 790.816 L64.0042 790.816 L64.0042 796.673 L58.5933 796.673 Q61.8398 798.678 63.3994 801.67 Q64.9272 804.662 64.9272 808.991 Q64.9272 814.465 61.8716 817.712 Q58.7843 820.926 53.6281 820.926 Q47.6125 820.926 44.5569 816.916 Q41.5014 812.874 41.5014 804.885 L41.5014 796.673 L40.9285 796.673 Q36.8862 796.673 34.6901 799.346 Q32.4621 801.988 32.4621 806.794 Q32.4621 809.85 33.1941 812.746 Q33.9262 815.643 35.3903 818.316 L29.9795 818.316 Q28.7381 815.102 28.1334 812.078 Q27.4968 809.054 27.4968 806.19 Q27.4968 798.455 31.5072 794.636 Q35.5176 790.816 43.6657 790.816 Z" fill="#000000" fill-rule="nonzero" fill-opacity="1" /><path clip-path="url(#clip570)" d="M18.2347 772.961 L28.3562 772.961 L28.3562 760.898 L32.9077 760.898 L32.9077 772.961 L52.2594 772.961 Q56.6199 772.961 57.8613 771.783 Q59.1026 770.573 59.1026 766.913 L59.1026 760.898 L64.0042 760.898 L64.0042 766.913 Q64.0042 773.693 61.4897 776.271 Q58.9434 778.849 52.2594 778.849 L32.9077 778.849 L32.9077 783.146 L28.3562 783.146 L28.3562 778.849 L18.2347 778.849 L18.2347 772.961 Z" fill="#000000" fill-rule="nonzero" fill-opacity="1" /><path clip-path="url(#clip570)" d="M28.3562 753.195 L28.3562 747.339 L64.0042 747.339 L64.0042 753.195 L28.3562 753.195 M14.479 753.195 L14.479 747.339 L21.895 747.339 L21.895 753.195 L14.479 753.195 Z" fill="#000000" fill-rule="nonzero" fill-opacity="1" /><path clip-path="url(#clip570)" d="M32.4621 721.271 Q32.4621 725.982 36.1542 728.719 Q39.8145 731.456 46.212 731.456 Q52.6095 731.456 56.3017 728.751 Q59.9619 726.014 59.9619 721.271 Q59.9619 716.592 56.2698 713.855 Q52.5777 711.118 46.212 711.118 Q39.8781 711.118 36.186 713.855 Q32.4621 716.592 32.4621 721.271 M27.4968 721.271 Q27.4968 713.632 32.4621 709.272 Q37.4273 704.911 46.212 704.911 Q54.9649 704.911 59.9619 709.272 Q64.9272 713.632 64.9272 721.271 Q64.9272 728.942 59.9619 733.302 Q54.9649 737.631 46.212 737.631 Q37.4273 737.631 32.4621 733.302 Q27.4968 728.942 27.4968 721.271 Z" fill="#000000" fill-rule="nonzero" fill-opacity="1" /><path clip-path="url(#clip570)" d="M42.4881 665.571 L64.0042 665.571 L64.0042 671.428 L42.679 671.428 Q37.6183 671.428 35.1038 673.401 Q32.5894 675.374 32.5894 679.321 Q32.5894 684.064 35.6131 686.801 Q38.6368 689.538 43.8567 689.538 L64.0042 689.538 L64.0042 695.426 L28.3562 695.426 L28.3562 689.538 L33.8944 689.538 Q30.6797 687.437 29.0883 684.605 Q27.4968 681.74 27.4968 678.016 Q27.4968 671.873 31.3163 668.722 Q35.1038 665.571 42.4881 665.571 Z" fill="#000000" fill-rule="nonzero" fill-opacity="1" /><path clip-path="url(#clip570)" d="M18.2347 627.377 L28.3562 627.377 L28.3562 615.314 L32.9077 615.314 L32.9077 627.377 L52.2594 627.377 Q56.6199 627.377 57.8613 626.199 Q59.1026 624.99 59.1026 621.329 L59.1026 615.314 L64.0042 615.314 L64.0042 621.329 Q64.0042 628.109 61.4897 630.687 Q58.9434 633.265 52.2594 633.265 L32.9077 633.265 L32.9077 637.562 L28.3562 637.562 L28.3562 633.265 L18.2347 633.265 L18.2347 627.377 Z" fill="#000000" fill-rule="nonzero" fill-opacity="1" /><path clip-path="url(#clip570)" d="M28.3562 607.611 L28.3562 601.755 L64.0042 601.755 L64.0042 607.611 L28.3562 607.611 M14.479 607.611 L14.479 601.755 L21.895 601.755 L21.895 607.611 L14.479 607.611 Z" fill="#000000" fill-rule="nonzero" fill-opacity="1" /><path clip-path="url(#clip570)" d="M35.1993 561.746 Q31.2526 559.55 29.3747 556.495 Q27.4968 553.439 27.4968 549.302 Q27.4968 543.732 31.4117 540.708 Q35.2948 537.684 42.4881 537.684 L64.0042 537.684 L64.0042 543.572 L42.679 543.572 Q37.5546 543.572 35.072 545.387 Q32.5894 547.201 32.5894 550.925 Q32.5894 555.476 35.6131 558.118 Q38.6368 560.76 43.8567 560.76 L64.0042 560.76 L64.0042 566.648 L42.679 566.648 Q37.5228 566.648 35.072 568.462 Q32.5894 570.277 32.5894 574.064 Q32.5894 578.552 35.6449 581.194 Q38.6686 583.835 43.8567 583.835 L64.0042 583.835 L64.0042 589.724 L28.3562 589.724 L28.3562 583.835 L33.8944 583.835 Q30.616 581.83 29.0564 579.029 Q27.4968 576.228 27.4968 572.377 Q27.4968 568.494 29.4702 565.789 Q31.4436 563.051 35.1993 561.746 Z" fill="#000000" fill-rule="nonzero" fill-opacity="1" /><path clip-path="url(#clip570)" d="M44.7161 495.511 L47.5806 495.511 L47.5806 522.438 Q53.6281 522.056 56.8109 518.81 Q59.9619 515.531 59.9619 509.707 Q59.9619 506.333 59.1344 503.182 Q58.3069 499.999 56.6518 496.88 L62.1899 496.88 Q63.5267 500.031 64.227 503.341 Q64.9272 506.651 64.9272 510.057 Q64.9272 518.587 59.9619 523.584 Q54.9967 528.549 46.5303 528.549 Q37.7774 528.549 32.6531 523.839 Q27.4968 519.096 27.4968 511.075 Q27.4968 503.882 32.1438 499.713 Q36.7589 495.511 44.7161 495.511 M42.9973 501.368 Q38.1912 501.431 35.3266 504.073 Q32.4621 506.683 32.4621 511.012 Q32.4621 515.913 35.2312 518.873 Q38.0002 521.802 43.0292 522.247 L42.9973 501.368 Z" fill="#000000" fill-rule="nonzero" fill-opacity="1" /><path clip-path="url(#clip570)" d="M14.479 465.72 L14.479 452.224 L19.0304 452.224 L19.0304 459.863 L68.0464 459.863 L68.0464 452.224 L72.5979 452.224 L72.5979 465.72 L14.479 465.72 Z" fill="#000000" fill-rule="nonzero" fill-opacity="1" /><path clip-path="url(#clip570)" d="M29.4065 417.022 L34.9447 417.022 Q33.6716 419.505 33.035 422.178 Q32.3984 424.852 32.3984 427.717 Q32.3984 432.077 33.7352 434.273 Q35.072 436.438 37.7456 436.438 Q39.7826 436.438 40.9603 434.878 Q42.1061 433.318 43.1565 428.608 L43.6021 426.603 Q44.9389 420.364 47.3897 417.754 Q49.8086 415.112 54.1691 415.112 Q59.1344 415.112 62.0308 419.059 Q64.9272 422.974 64.9272 429.849 Q64.9272 432.714 64.3543 435.833 Q63.8132 438.92 62.6992 442.358 L56.6518 442.358 Q58.3387 439.111 59.198 435.96 Q60.0256 432.809 60.0256 429.722 Q60.0256 425.584 58.6251 423.356 Q57.1929 421.128 54.6147 421.128 Q52.2276 421.128 50.9545 422.751 Q49.6813 424.343 48.5037 429.785 L48.0262 431.822 Q46.8804 437.265 44.5251 439.684 Q42.138 442.103 38.0002 442.103 Q32.9713 442.103 30.2341 438.538 Q27.4968 434.973 27.4968 428.417 Q27.4968 425.17 27.9743 422.306 Q28.4517 419.441 29.4065 417.022 Z" fill="#000000" fill-rule="nonzero" fill-opacity="1" /><path clip-path="url(#clip570)" d="M14.479 392.1 L72.5979 392.1 L72.5979 405.596 L68.0464 405.596 L68.0464 397.989 L19.0304 397.989 L19.0304 405.596 L14.479 405.596 L14.479 392.1 Z" fill="#000000" fill-rule="nonzero" fill-opacity="1" /><circle clip-path="url(#clip572)" cx="279.421" cy="1384.24" r="14.4" fill="#009af9" fill-rule="evenodd" fill-opacity="1" stroke="#000000" stroke-opacity="1" stroke-width="3.2"/>
<circle clip-path="url(#clip572)" cx="300.61" cy="1344.04" r="14.4" fill="#009af9" fill-rule="evenodd" fill-opacity="1" stroke="#000000" stroke-opacity="1" stroke-width="3.2"/>
<circle clip-path="url(#clip572)" cx="321.799" cy="1341.92" r="14.4" fill="#009af9" fill-rule="evenodd" fill-opacity="1" stroke="#000000" stroke-opacity="1" stroke-width="3.2"/>
<circle clip-path="url(#clip572)" cx="342.988" cy="1337.19" r="14.4" fill="#009af9" fill-rule="evenodd" fill-opacity="1" stroke="#000000" stroke-opacity="1" stroke-width="3.2"/>
<circle clip-path="url(#clip572)" cx="364.177" cy="1327.85" r="14.4" fill="#009af9" fill-rule="evenodd" fill-opacity="1" stroke="#000000" stroke-opacity="1" stroke-width="3.2"/>
<circle clip-path="url(#clip572)" cx="385.366" cy="1311.12" r="14.4" fill="#009af9" fill-rule="evenodd" fill-opacity="1" stroke="#000000" stroke-opacity="1" stroke-width="3.2"/>
<circle clip-path="url(#clip572)" cx="406.555" cy="1309.44" r="14.4" fill="#009af9" fill-rule="evenodd" fill-opacity="1" stroke="#000000" stroke-opacity="1" stroke-width="3.2"/>
<circle clip-path="url(#clip572)" cx="427.744" cy="1282.45" r="14.4" fill="#009af9" fill-rule="evenodd" fill-opacity="1" stroke="#000000" stroke-opacity="1" stroke-width="3.2"/>
<circle clip-path="url(#clip572)" cx="448.933" cy="1271.13" r="14.4" fill="#009af9" fill-rule="evenodd" fill-opacity="1" stroke="#000000" stroke-opacity="1" stroke-width="3.2"/>
<circle clip-path="url(#clip572)" cx="470.121" cy="1256.68" r="14.4" fill="#009af9" fill-rule="evenodd" fill-opacity="1" stroke="#000000" stroke-opacity="1" stroke-width="3.2"/>
<circle clip-path="url(#clip572)" cx="491.31" cy="1259.19" r="14.4" fill="#009af9" fill-rule="evenodd" fill-opacity="1" stroke="#000000" stroke-opacity="1" stroke-width="3.2"/>
<circle clip-path="url(#clip572)" cx="512.499" cy="1232.84" r="14.4" fill="#009af9" fill-rule="evenodd" fill-opacity="1" stroke="#000000" stroke-opacity="1" stroke-width="3.2"/>
<circle clip-path="url(#clip572)" cx="533.688" cy="1231.34" r="14.4" fill="#009af9" fill-rule="evenodd" fill-opacity="1" stroke="#000000" stroke-opacity="1" stroke-width="3.2"/>
<circle clip-path="url(#clip572)" cx="554.877" cy="1215.9" r="14.4" fill="#009af9" fill-rule="evenodd" fill-opacity="1" stroke="#000000" stroke-opacity="1" stroke-width="3.2"/>
<circle clip-path="url(#clip572)" cx="576.066" cy="1210.88" r="14.4" fill="#009af9" fill-rule="evenodd" fill-opacity="1" stroke="#000000" stroke-opacity="1" stroke-width="3.2"/>
<circle clip-path="url(#clip572)" cx="597.255" cy="1199.99" r="14.4" fill="#009af9" fill-rule="evenodd" fill-opacity="1" stroke="#000000" stroke-opacity="1" stroke-width="3.2"/>
<circle clip-path="url(#clip572)" cx="618.444" cy="1183.3" r="14.4" fill="#009af9" fill-rule="evenodd" fill-opacity="1" stroke="#000000" stroke-opacity="1" stroke-width="3.2"/>
<circle clip-path="url(#clip572)" cx="639.633" cy="1175.46" r="14.4" fill="#009af9" fill-rule="evenodd" fill-opacity="1" stroke="#000000" stroke-opacity="1" stroke-width="3.2"/>
<circle clip-path="url(#clip572)" cx="660.822" cy="1164.71" r="14.4" fill="#009af9" fill-rule="evenodd" fill-opacity="1" stroke="#000000" stroke-opacity="1" stroke-width="3.2"/>
<circle clip-path="url(#clip572)" cx="682.011" cy="1158.94" r="14.4" fill="#009af9" fill-rule="evenodd" fill-opacity="1" stroke="#000000" stroke-opacity="1" stroke-width="3.2"/>
<circle clip-path="url(#clip572)" cx="703.199" cy="1142.45" r="14.4" fill="#009af9" fill-rule="evenodd" fill-opacity="1" stroke="#000000" stroke-opacity="1" stroke-width="3.2"/>
<circle clip-path="url(#clip572)" cx="724.388" cy="1133.5" r="14.4" fill="#009af9" fill-rule="evenodd" fill-opacity="1" stroke="#000000" stroke-opacity="1" stroke-width="3.2"/>
<circle clip-path="url(#clip572)" cx="745.577" cy="1123.31" r="14.4" fill="#009af9" fill-rule="evenodd" fill-opacity="1" stroke="#000000" stroke-opacity="1" stroke-width="3.2"/>
<circle clip-path="url(#clip572)" cx="766.766" cy="1096.02" r="14.4" fill="#009af9" fill-rule="evenodd" fill-opacity="1" stroke="#000000" stroke-opacity="1" stroke-width="3.2"/>
<circle clip-path="url(#clip572)" cx="787.955" cy="1079.68" r="14.4" fill="#009af9" fill-rule="evenodd" fill-opacity="1" stroke="#000000" stroke-opacity="1" stroke-width="3.2"/>
<circle clip-path="url(#clip572)" cx="809.144" cy="1057.49" r="14.4" fill="#009af9" fill-rule="evenodd" fill-opacity="1" stroke="#000000" stroke-opacity="1" stroke-width="3.2"/>
<circle clip-path="url(#clip572)" cx="830.333" cy="1052.75" r="14.4" fill="#009af9" fill-rule="evenodd" fill-opacity="1" stroke="#000000" stroke-opacity="1" stroke-width="3.2"/>
<circle clip-path="url(#clip572)" cx="851.522" cy="1050.9" r="14.4" fill="#009af9" fill-rule="evenodd" fill-opacity="1" stroke="#000000" stroke-opacity="1" stroke-width="3.2"/>
<circle clip-path="url(#clip572)" cx="872.711" cy="1039.73" r="14.4" fill="#009af9" fill-rule="evenodd" fill-opacity="1" stroke="#000000" stroke-opacity="1" stroke-width="3.2"/>
<circle clip-path="url(#clip572)" cx="893.9" cy="1032.56" r="14.4" fill="#009af9" fill-rule="evenodd" fill-opacity="1" stroke="#000000" stroke-opacity="1" stroke-width="3.2"/>
<circle clip-path="url(#clip572)" cx="915.089" cy="1023" r="14.4" fill="#009af9" fill-rule="evenodd" fill-opacity="1" stroke="#000000" stroke-opacity="1" stroke-width="3.2"/>
<circle clip-path="url(#clip572)" cx="936.277" cy="1007.69" r="14.4" fill="#009af9" fill-rule="evenodd" fill-opacity="1" stroke="#000000" stroke-opacity="1" stroke-width="3.2"/>
<circle clip-path="url(#clip572)" cx="957.466" cy="993.492" r="14.4" fill="#009af9" fill-rule="evenodd" fill-opacity="1" stroke="#000000" stroke-opacity="1" stroke-width="3.2"/>
<circle clip-path="url(#clip572)" cx="978.655" cy="983.637" r="14.4" fill="#009af9" fill-rule="evenodd" fill-opacity="1" stroke="#000000" stroke-opacity="1" stroke-width="3.2"/>
<circle clip-path="url(#clip572)" cx="999.844" cy="973.063" r="14.4" fill="#009af9" fill-rule="evenodd" fill-opacity="1" stroke="#000000" stroke-opacity="1" stroke-width="3.2"/>
<circle clip-path="url(#clip572)" cx="1021.03" cy="951.386" r="14.4" fill="#009af9" fill-rule="evenodd" fill-opacity="1" stroke="#000000" stroke-opacity="1" stroke-width="3.2"/>
<circle clip-path="url(#clip572)" cx="1042.22" cy="928.139" r="14.4" fill="#009af9" fill-rule="evenodd" fill-opacity="1" stroke="#000000" stroke-opacity="1" stroke-width="3.2"/>
<circle clip-path="url(#clip572)" cx="1063.41" cy="930.347" r="14.4" fill="#009af9" fill-rule="evenodd" fill-opacity="1" stroke="#000000" stroke-opacity="1" stroke-width="3.2"/>
<circle clip-path="url(#clip572)" cx="1084.6" cy="919.872" r="14.4" fill="#009af9" fill-rule="evenodd" fill-opacity="1" stroke="#000000" stroke-opacity="1" stroke-width="3.2"/>
<circle clip-path="url(#clip572)" cx="1105.79" cy="881.235" r="14.4" fill="#009af9" fill-rule="evenodd" fill-opacity="1" stroke="#000000" stroke-opacity="1" stroke-width="3.2"/>
<circle clip-path="url(#clip572)" cx="1126.98" cy="892.614" r="14.4" fill="#009af9" fill-rule="evenodd" fill-opacity="1" stroke="#000000" stroke-opacity="1" stroke-width="3.2"/>
<circle clip-path="url(#clip572)" cx="1148.17" cy="864.279" r="14.4" fill="#009af9" fill-rule="evenodd" fill-opacity="1" stroke="#000000" stroke-opacity="1" stroke-width="3.2"/>
<circle clip-path="url(#clip572)" cx="1169.36" cy="839.051" r="14.4" fill="#009af9" fill-rule="evenodd" fill-opacity="1" stroke="#000000" stroke-opacity="1" stroke-width="3.2"/>
<circle clip-path="url(#clip572)" cx="1190.54" cy="846.249" r="14.4" fill="#009af9" fill-rule="evenodd" fill-opacity="1" stroke="#000000" stroke-opacity="1" stroke-width="3.2"/>
<circle clip-path="url(#clip572)" cx="1211.73" cy="841.842" r="14.4" fill="#009af9" fill-rule="evenodd" fill-opacity="1" stroke="#000000" stroke-opacity="1" stroke-width="3.2"/>
<circle clip-path="url(#clip572)" cx="1232.92" cy="824.637" r="14.4" fill="#009af9" fill-rule="evenodd" fill-opacity="1" stroke="#000000" stroke-opacity="1" stroke-width="3.2"/>
<circle clip-path="url(#clip572)" cx="1254.11" cy="798.2" r="14.4" fill="#009af9" fill-rule="evenodd" fill-opacity="1" stroke="#000000" stroke-opacity="1" stroke-width="3.2"/>
<circle clip-path="url(#clip572)" cx="1275.3" cy="797.471" r="14.4" fill="#009af9" fill-rule="evenodd" fill-opacity="1" stroke="#000000" stroke-opacity="1" stroke-width="3.2"/>
<circle clip-path="url(#clip572)" cx="1296.49" cy="778.293" r="14.4" fill="#009af9" fill-rule="evenodd" fill-opacity="1" stroke="#000000" stroke-opacity="1" stroke-width="3.2"/>
<circle clip-path="url(#clip572)" cx="1317.68" cy="745.297" r="14.4" fill="#009af9" fill-rule="evenodd" fill-opacity="1" stroke="#000000" stroke-opacity="1" stroke-width="3.2"/>
<circle clip-path="url(#clip572)" cx="1338.87" cy="764.323" r="14.4" fill="#009af9" fill-rule="evenodd" fill-opacity="1" stroke="#000000" stroke-opacity="1" stroke-width="3.2"/>
<circle clip-path="url(#clip572)" cx="1360.06" cy="730.477" r="14.4" fill="#009af9" fill-rule="evenodd" fill-opacity="1" stroke="#000000" stroke-opacity="1" stroke-width="3.2"/>
<circle clip-path="url(#clip572)" cx="1381.24" cy="714.208" r="14.4" fill="#009af9" fill-rule="evenodd" fill-opacity="1" stroke="#000000" stroke-opacity="1" stroke-width="3.2"/>
<circle clip-path="url(#clip572)" cx="1402.43" cy="693.609" r="14.4" fill="#009af9" fill-rule="evenodd" fill-opacity="1" stroke="#000000" stroke-opacity="1" stroke-width="3.2"/>
<circle clip-path="url(#clip572)" cx="1423.62" cy="683.986" r="14.4" fill="#009af9" fill-rule="evenodd" fill-opacity="1" stroke="#000000" stroke-opacity="1" stroke-width="3.2"/>
<circle clip-path="url(#clip572)" cx="1444.81" cy="662.673" r="14.4" fill="#009af9" fill-rule="evenodd" fill-opacity="1" stroke="#000000" stroke-opacity="1" stroke-width="3.2"/>
<circle clip-path="url(#clip572)" cx="1466" cy="642.5" r="14.4" fill="#009af9" fill-rule="evenodd" fill-opacity="1" stroke="#000000" stroke-opacity="1" stroke-width="3.2"/>
<circle clip-path="url(#clip572)" cx="1487.19" cy="600.823" r="14.4" fill="#009af9" fill-rule="evenodd" fill-opacity="1" stroke="#000000" stroke-opacity="1" stroke-width="3.2"/>
<circle clip-path="url(#clip572)" cx="1508.38" cy="645.151" r="14.4" fill="#009af9" fill-rule="evenodd" fill-opacity="1" stroke="#000000" stroke-opacity="1" stroke-width="3.2"/>
<circle clip-path="url(#clip572)" cx="1529.57" cy="614.265" r="14.4" fill="#009af9" fill-rule="evenodd" fill-opacity="1" stroke="#000000" stroke-opacity="1" stroke-width="3.2"/>
<circle clip-path="url(#clip572)" cx="1550.76" cy="604.04" r="14.4" fill="#009af9" fill-rule="evenodd" fill-opacity="1" stroke="#000000" stroke-opacity="1" stroke-width="3.2"/>
<circle clip-path="url(#clip572)" cx="1571.94" cy="467.554" r="14.4" fill="#009af9" fill-rule="evenodd" fill-opacity="1" stroke="#000000" stroke-opacity="1" stroke-width="3.2"/>
<circle clip-path="url(#clip572)" cx="1593.13" cy="549.328" r="14.4" fill="#009af9" fill-rule="evenodd" fill-opacity="1" stroke="#000000" stroke-opacity="1" stroke-width="3.2"/>
<circle clip-path="url(#clip572)" cx="1614.32" cy="571.714" r="14.4" fill="#009af9" fill-rule="evenodd" fill-opacity="1" stroke="#000000" stroke-opacity="1" stroke-width="3.2"/>
<circle clip-path="url(#clip572)" cx="1635.51" cy="554.956" r="14.4" fill="#009af9" fill-rule="evenodd" fill-opacity="1" stroke="#000000" stroke-opacity="1" stroke-width="3.2"/>
<circle clip-path="url(#clip572)" cx="1656.7" cy="522.05" r="14.4" fill="#009af9" fill-rule="evenodd" fill-opacity="1" stroke="#000000" stroke-opacity="1" stroke-width="3.2"/>
<circle clip-path="url(#clip572)" cx="1677.89" cy="508.148" r="14.4" fill="#009af9" fill-rule="evenodd" fill-opacity="1" stroke="#000000" stroke-opacity="1" stroke-width="3.2"/>
<circle clip-path="url(#clip572)" cx="1699.08" cy="511.847" r="14.4" fill="#009af9" fill-rule="evenodd" fill-opacity="1" stroke="#000000" stroke-opacity="1" stroke-width="3.2"/>
<circle clip-path="url(#clip572)" cx="1720.27" cy="489.101" r="14.4" fill="#009af9" fill-rule="evenodd" fill-opacity="1" stroke="#000000" stroke-opacity="1" stroke-width="3.2"/>
<circle clip-path="url(#clip572)" cx="1741.46" cy="474.995" r="14.4" fill="#009af9" fill-rule="evenodd" fill-opacity="1" stroke="#000000" stroke-opacity="1" stroke-width="3.2"/>
<circle clip-path="url(#clip572)" cx="1762.64" cy="464.133" r="14.4" fill="#009af9" fill-rule="evenodd" fill-opacity="1" stroke="#000000" stroke-opacity="1" stroke-width="3.2"/>
<circle clip-path="url(#clip572)" cx="1783.83" cy="434.634" r="14.4" fill="#009af9" fill-rule="evenodd" fill-opacity="1" stroke="#000000" stroke-opacity="1" stroke-width="3.2"/>
<circle clip-path="url(#clip572)" cx="1805.02" cy="434.147" r="14.4" fill="#009af9" fill-rule="evenodd" fill-opacity="1" stroke="#000000" stroke-opacity="1" stroke-width="3.2"/>
<circle clip-path="url(#clip572)" cx="1826.21" cy="433.925" r="14.4" fill="#009af9" fill-rule="evenodd" fill-opacity="1" stroke="#000000" stroke-opacity="1" stroke-width="3.2"/>
<circle clip-path="url(#clip572)" cx="1847.4" cy="383.456" r="14.4" fill="#009af9" fill-rule="evenodd" fill-opacity="1" stroke="#000000" stroke-opacity="1" stroke-width="3.2"/>
<circle clip-path="url(#clip572)" cx="1868.59" cy="400.384" r="14.4" fill="#009af9" fill-rule="evenodd" fill-opacity="1" stroke="#000000" stroke-opacity="1" stroke-width="3.2"/>
<circle clip-path="url(#clip572)" cx="1889.78" cy="364.219" r="14.4" fill="#009af9" fill-rule="evenodd" fill-opacity="1" stroke="#000000" stroke-opacity="1" stroke-width="3.2"/>
<circle clip-path="url(#clip572)" cx="1910.97" cy="357.759" r="14.4" fill="#009af9" fill-rule="evenodd" fill-opacity="1" stroke="#000000" stroke-opacity="1" stroke-width="3.2"/>
<circle clip-path="url(#clip572)" cx="1932.16" cy="348.929" r="14.4" fill="#009af9" fill-rule="evenodd" fill-opacity="1" stroke="#000000" stroke-opacity="1" stroke-width="3.2"/>
<circle clip-path="url(#clip572)" cx="1953.35" cy="334.326" r="14.4" fill="#009af9" fill-rule="evenodd" fill-opacity="1" stroke="#000000" stroke-opacity="1" stroke-width="3.2"/>
<circle clip-path="url(#clip572)" cx="1974.53" cy="308.509" r="14.4" fill="#009af9" fill-rule="evenodd" fill-opacity="1" stroke="#000000" stroke-opacity="1" stroke-width="3.2"/>
<circle clip-path="url(#clip572)" cx="1995.72" cy="294.383" r="14.4" fill="#009af9" fill-rule="evenodd" fill-opacity="1" stroke="#000000" stroke-opacity="1" stroke-width="3.2"/>
<circle clip-path="url(#clip572)" cx="2016.91" cy="288.048" r="14.4" fill="#009af9" fill-rule="evenodd" fill-opacity="1" stroke="#000000" stroke-opacity="1" stroke-width="3.2"/>
<circle clip-path="url(#clip572)" cx="2038.1" cy="271.33" r="14.4" fill="#009af9" fill-rule="evenodd" fill-opacity="1" stroke="#000000" stroke-opacity="1" stroke-width="3.2"/>
<circle clip-path="url(#clip572)" cx="2059.29" cy="235.24" r="14.4" fill="#009af9" fill-rule="evenodd" fill-opacity="1" stroke="#000000" stroke-opacity="1" stroke-width="3.2"/>
<circle clip-path="url(#clip572)" cx="2080.48" cy="216.041" r="14.4" fill="#009af9" fill-rule="evenodd" fill-opacity="1" stroke="#000000" stroke-opacity="1" stroke-width="3.2"/>
<circle clip-path="url(#clip572)" cx="2101.67" cy="222.848" r="14.4" fill="#009af9" fill-rule="evenodd" fill-opacity="1" stroke="#000000" stroke-opacity="1" stroke-width="3.2"/>
<circle clip-path="url(#clip572)" cx="2122.86" cy="168.907" r="14.4" fill="#009af9" fill-rule="evenodd" fill-opacity="1" stroke="#000000" stroke-opacity="1" stroke-width="3.2"/>
<circle clip-path="url(#clip572)" cx="2144.05" cy="186.866" r="14.4" fill="#009af9" fill-rule="evenodd" fill-opacity="1" stroke="#000000" stroke-opacity="1" stroke-width="3.2"/>
<circle clip-path="url(#clip572)" cx="2165.23" cy="169.414" r="14.4" fill="#009af9" fill-rule="evenodd" fill-opacity="1" stroke="#000000" stroke-opacity="1" stroke-width="3.2"/>
<circle clip-path="url(#clip572)" cx="2186.42" cy="157.385" r="14.4" fill="#009af9" fill-rule="evenodd" fill-opacity="1" stroke="#000000" stroke-opacity="1" stroke-width="3.2"/>
<circle clip-path="url(#clip572)" cx="2207.61" cy="148.579" r="14.4" fill="#009af9" fill-rule="evenodd" fill-opacity="1" stroke="#000000" stroke-opacity="1" stroke-width="3.2"/>
<circle clip-path="url(#clip572)" cx="2228.8" cy="133.41" r="14.4" fill="#009af9" fill-rule="evenodd" fill-opacity="1" stroke="#000000" stroke-opacity="1" stroke-width="3.2"/>
<circle clip-path="url(#clip572)" cx="2249.99" cy="111.248" r="14.4" fill="#009af9" fill-rule="evenodd" fill-opacity="1" stroke="#000000" stroke-opacity="1" stroke-width="3.2"/>
<circle clip-path="url(#clip572)" cx="2271.18" cy="97.2953" r="14.4" fill="#009af9" fill-rule="evenodd" fill-opacity="1" stroke="#000000" stroke-opacity="1" stroke-width="3.2"/>
<circle clip-path="url(#clip572)" cx="2292.37" cy="86.1857" r="14.4" fill="#009af9" fill-rule="evenodd" fill-opacity="1" stroke="#000000" stroke-opacity="1" stroke-width="3.2"/>
<polyline clip-path="url(#clip572)" style="stroke:#20b2aa; stroke-linecap:round; stroke-linejoin:round; stroke-width:8; stroke-opacity:1; fill:none" stroke-dasharray="4, 8" points="279.421,1364.68 300.61,1351.72 321.799,1338.75 342.988,1325.79 364.177,1312.83 385.366,1299.86 406.555,1286.9 427.744,1273.94 448.933,1260.97 470.121,1248.01 491.31,1235.05 512.499,1222.08 533.688,1209.12 554.877,1196.15 576.066,1183.19 597.255,1170.23 618.444,1157.26 639.633,1144.3 660.822,1131.34 682.011,1118.37 703.199,1105.41 724.388,1092.45 745.577,1079.48 766.766,1066.52 787.955,1053.55 809.144,1040.59 830.333,1027.63 851.522,1014.66 872.711,1001.7 893.9,988.736 915.089,975.772 936.277,962.809 957.466,949.845 978.655,936.881 999.844,923.918 1021.03,910.954 1042.22,897.991 1063.41,885.027 1084.6,872.063 1105.79,859.1 1126.98,846.136 1148.17,833.172 1169.36,820.209 1190.54,807.245 1211.73,794.281 1232.92,781.318 1254.11,768.354 1275.3,755.391 1296.49,742.427 1317.68,729.463 1338.87,716.5 1360.06,703.536 1381.24,690.572 1402.43,677.609 1423.62,664.645 1444.81,651.681 1466,638.718 1487.19,625.754 1508.38,612.791 1529.57,599.827 1550.76,586.863 1571.94,573.9 1593.13,560.936 1614.32,547.972 1635.51,535.009 1656.7,522.045 1677.89,509.081 1699.08,496.118 1720.27,483.154 1741.46,470.19 1762.64,457.227 1783.83,444.263 1805.02,431.3 1826.21,418.336 1847.4,405.372 1868.59,392.409 1889.78,379.445 1910.97,366.481 1932.16,353.518 1953.35,340.554 1974.53,327.59 1995.72,314.627 2016.91,301.663 2038.1,288.7 2059.29,275.736 2080.48,262.772 2101.67,249.809 2122.86,236.845 2144.05,223.881 2165.23,210.918 2186.42,197.954 2207.61,184.99 2228.8,172.027 2249.99,159.063 2271.18,146.1 2292.37,133.136 "/>
<path clip-path="url(#clip570)" d="M290.157 222.709 L1313.16 222.709 L1313.16 93.1086 L290.157 93.1086  Z" fill="#ffffff" fill-rule="evenodd" fill-opacity="1"/>
<polyline clip-path="url(#clip570)" style="stroke:#000000; stroke-linecap:round; stroke-linejoin:round; stroke-width:4; stroke-opacity:1; fill:none" points="290.157,222.709 1313.16,222.709 1313.16,93.1086 290.157,93.1086 290.157,222.709 "/>
<polyline clip-path="url(#clip570)" style="stroke:#20b2aa; stroke-linecap:round; stroke-linejoin:round; stroke-width:10; stroke-opacity:1; fill:none" stroke-dasharray="5, 10" points="313.865,157.909 456.113,157.909 "/>
<path clip-path="url(#clip570)" d="M479.821 136.309 L516.366 136.309 L516.366 141.228 L501.031 141.228 L501.031 179.509 L495.157 179.509 L495.157 141.228 L479.821 141.228 L479.821 136.309 Z" fill="#000000" fill-rule="nonzero" fill-opacity="1" /><path clip-path="url(#clip570)" d="M519.954 147.101 L525.278 147.101 L525.278 179.509 L519.954 179.509 L519.954 147.101 M519.954 134.486 L525.278 134.486 L525.278 141.228 L519.954 141.228 L519.954 134.486 Z" fill="#000000" fill-rule="nonzero" fill-opacity="1" /><path clip-path="url(#clip570)" d="M561.65 153.322 Q563.646 149.734 566.424 148.027 Q569.202 146.32 572.963 146.32 Q578.027 146.32 580.776 149.879 Q583.524 153.409 583.524 159.949 L583.524 179.509 L578.171 179.509 L578.171 160.122 Q578.171 155.464 576.522 153.207 Q574.873 150.95 571.487 150.95 Q567.35 150.95 564.948 153.699 Q562.547 156.447 562.547 161.193 L562.547 179.509 L557.194 179.509 L557.194 160.122 Q557.194 155.435 555.544 153.207 Q553.895 150.95 550.452 150.95 Q546.372 150.95 543.97 153.728 Q541.569 156.476 541.569 161.193 L541.569 179.509 L536.216 179.509 L536.216 147.101 L541.569 147.101 L541.569 152.136 Q543.392 149.156 545.938 147.738 Q548.484 146.32 551.985 146.32 Q555.515 146.32 557.975 148.114 Q560.463 149.908 561.65 153.322 Z" fill="#000000" fill-rule="nonzero" fill-opacity="1" /><path clip-path="url(#clip570)" d="M621.863 161.974 L621.863 164.578 L597.384 164.578 Q597.732 170.076 600.683 172.969 Q603.663 175.834 608.958 175.834 Q612.025 175.834 614.89 175.082 Q617.784 174.329 620.619 172.825 L620.619 177.859 Q617.755 179.075 614.745 179.711 Q611.736 180.348 608.64 180.348 Q600.885 180.348 596.343 175.834 Q591.829 171.32 591.829 163.623 Q591.829 155.666 596.111 151.008 Q600.423 146.32 607.714 146.32 Q614.253 146.32 618.044 150.545 Q621.863 154.74 621.863 161.974 M616.539 160.411 Q616.481 156.042 614.08 153.438 Q611.707 150.834 607.772 150.834 Q603.316 150.834 600.625 153.351 Q597.963 155.869 597.558 160.44 L616.539 160.411 Z" fill="#000000" fill-rule="nonzero" fill-opacity="1" /><path clip-path="url(#clip570)" d="M648.947 134.486 L661.215 134.486 L661.215 138.623 L654.271 138.623 L654.271 183.183 L661.215 183.183 L661.215 187.321 L648.947 187.321 L648.947 134.486 Z" fill="#000000" fill-rule="nonzero" fill-opacity="1" /><path clip-path="url(#clip570)" d="M693.217 148.056 L693.217 153.091 Q690.96 151.934 688.53 151.355 Q686.099 150.776 683.495 150.776 Q679.531 150.776 677.534 151.991 Q675.567 153.207 675.567 155.637 Q675.567 157.489 676.985 158.56 Q678.402 159.601 682.685 160.556 L684.508 160.961 Q690.179 162.177 692.552 164.405 Q694.953 166.604 694.953 170.568 Q694.953 175.082 691.365 177.715 Q687.806 180.348 681.556 180.348 Q678.952 180.348 676.117 179.827 Q673.31 179.335 670.185 178.322 L670.185 172.825 Q673.136 174.358 676.001 175.139 Q678.865 175.892 681.672 175.892 Q685.434 175.892 687.459 174.619 Q689.485 173.317 689.485 170.973 Q689.485 168.803 688.009 167.645 Q686.562 166.488 681.614 165.417 L679.762 164.983 Q674.814 163.942 672.615 161.8 Q670.416 159.63 670.416 155.869 Q670.416 151.297 673.657 148.809 Q676.898 146.32 682.858 146.32 Q685.81 146.32 688.414 146.754 Q691.018 147.188 693.217 148.056 Z" fill="#000000" fill-rule="nonzero" fill-opacity="1" /><path clip-path="url(#clip570)" d="M715.873 134.486 L715.873 187.321 L703.605 187.321 L703.605 183.183 L710.52 183.183 L710.52 138.623 L703.605 138.623 L703.605 134.486 L715.873 134.486 Z" fill="#000000" fill-rule="nonzero" fill-opacity="1" /><path clip-path="url(#clip570)" d="M746.081 152.599 L783.176 152.599 L783.176 157.46 L746.081 157.46 L746.081 152.599 M746.081 164.405 L783.176 164.405 L783.176 169.323 L746.081 169.323 L746.081 164.405 Z" fill="#000000" fill-rule="nonzero" fill-opacity="1" /><path clip-path="url(#clip570)" d="M832.337 156.216 Q836.532 157.113 838.876 159.949 Q841.249 162.784 841.249 166.951 Q841.249 173.345 836.851 176.847 Q832.453 180.348 824.351 180.348 Q821.631 180.348 818.737 179.798 Q815.873 179.277 812.806 178.207 L812.806 172.564 Q815.236 173.982 818.13 174.705 Q821.023 175.429 824.177 175.429 Q829.675 175.429 832.539 173.259 Q835.433 171.089 835.433 166.951 Q835.433 163.131 832.742 160.99 Q830.08 158.82 825.306 158.82 L820.271 158.82 L820.271 154.017 L825.537 154.017 Q829.848 154.017 832.134 152.31 Q834.42 150.574 834.42 147.333 Q834.42 144.005 832.047 142.24 Q829.704 140.446 825.306 140.446 Q822.904 140.446 820.155 140.967 Q817.406 141.488 814.108 142.588 L814.108 137.379 Q817.435 136.453 820.329 135.99 Q823.251 135.527 825.826 135.527 Q832.481 135.527 836.359 138.566 Q840.236 141.575 840.236 146.725 Q840.236 150.313 838.182 152.802 Q836.127 155.261 832.337 156.216 Z" fill="#000000" fill-rule="nonzero" fill-opacity="1" /><path clip-path="url(#clip570)" d="M852.331 172.159 L858.436 172.159 L858.436 179.509 L852.331 179.509 L852.331 172.159 Z" fill="#000000" fill-rule="nonzero" fill-opacity="1" /><path clip-path="url(#clip570)" d="M871.341 178.612 L871.341 173.288 Q873.54 174.329 875.797 174.879 Q878.054 175.429 880.224 175.429 Q886.011 175.429 889.049 171.551 Q892.117 167.645 892.551 159.717 Q890.872 162.205 888.297 163.536 Q885.722 164.867 882.597 164.867 Q876.115 164.867 872.325 160.961 Q868.563 157.026 868.563 150.226 Q868.563 143.571 872.499 139.549 Q876.434 135.527 882.973 135.527 Q890.467 135.527 894.402 141.285 Q898.367 147.015 898.367 157.952 Q898.367 168.166 893.505 174.271 Q888.673 180.348 880.485 180.348 Q878.286 180.348 876.029 179.914 Q873.772 179.48 871.341 178.612 M882.973 160.296 Q886.908 160.296 889.194 157.605 Q891.509 154.914 891.509 150.226 Q891.509 145.568 889.194 142.877 Q886.908 140.157 882.973 140.157 Q879.038 140.157 876.723 142.877 Q874.437 145.568 874.437 150.226 Q874.437 154.914 876.723 157.605 Q879.038 160.296 882.973 160.296 Z" fill="#000000" fill-rule="nonzero" fill-opacity="1" /><path clip-path="url(#clip570)" d="M913.905 174.59 L934.304 174.59 L934.304 179.509 L906.873 179.509 L906.873 174.59 Q910.201 171.146 915.93 165.359 Q921.688 159.543 923.164 157.865 Q925.971 154.711 927.07 152.541 Q928.199 150.342 928.199 148.23 Q928.199 144.787 925.768 142.616 Q923.366 140.446 919.489 140.446 Q916.74 140.446 913.673 141.401 Q910.635 142.356 907.163 144.295 L907.163 138.392 Q910.693 136.974 913.76 136.251 Q916.827 135.527 919.373 135.527 Q926.086 135.527 930.079 138.884 Q934.072 142.24 934.072 147.854 Q934.072 150.516 933.06 152.917 Q932.076 155.29 929.443 158.531 Q928.719 159.37 924.842 163.392 Q920.965 167.385 913.905 174.59 Z" fill="#000000" fill-rule="nonzero" fill-opacity="1" /><path clip-path="url(#clip570)" d="M973.54 161.974 L973.54 164.578 L949.061 164.578 Q949.408 170.076 952.359 172.969 Q955.34 175.834 960.635 175.834 Q963.702 175.834 966.566 175.082 Q969.46 174.329 972.296 172.825 L972.296 177.859 Q969.431 179.075 966.422 179.711 Q963.412 180.348 960.316 180.348 Q952.562 180.348 948.019 175.834 Q943.505 171.32 943.505 163.623 Q943.505 155.666 947.788 151.008 Q952.099 146.32 959.39 146.32 Q965.93 146.32 969.72 150.545 Q973.54 154.74 973.54 161.974 M968.216 160.411 Q968.158 156.042 965.756 153.438 Q963.384 150.834 959.448 150.834 Q954.992 150.834 952.301 153.351 Q949.639 155.869 949.234 160.44 L968.216 160.411 Z" fill="#000000" fill-rule="nonzero" fill-opacity="1" /><path clip-path="url(#clip570)" d="M979.587 160.903 L995.183 160.903 L995.183 165.649 L979.587 165.649 L979.587 160.903 Z" fill="#000000" fill-rule="nonzero" fill-opacity="1" /><path clip-path="url(#clip570)" d="M1016.91 140.157 Q1012.4 140.157 1010.11 144.613 Q1007.86 149.04 1007.86 157.952 Q1007.86 166.835 1010.11 171.291 Q1012.4 175.718 1016.91 175.718 Q1021.46 175.718 1023.71 171.291 Q1026 166.835 1026 157.952 Q1026 149.04 1023.71 144.613 Q1021.46 140.157 1016.91 140.157 M1016.91 135.527 Q1024.18 135.527 1028 141.285 Q1031.84 147.015 1031.84 157.952 Q1031.84 168.861 1028 174.619 Q1024.18 180.348 1016.91 180.348 Q1009.65 180.348 1005.8 174.619 Q1001.98 168.861 1001.98 157.952 Q1001.98 147.015 1005.8 141.285 Q1009.65 135.527 1016.91 135.527 Z" fill="#000000" fill-rule="nonzero" fill-opacity="1" /><path clip-path="url(#clip570)" d="M1059.82 156.216 Q1064.02 157.113 1066.36 159.949 Q1068.74 162.784 1068.74 166.951 Q1068.74 173.345 1064.34 176.847 Q1059.94 180.348 1051.84 180.348 Q1049.12 180.348 1046.22 179.798 Q1043.36 179.277 1040.29 178.207 L1040.29 172.564 Q1042.72 173.982 1045.62 174.705 Q1048.51 175.429 1051.66 175.429 Q1057.16 175.429 1060.03 173.259 Q1062.92 171.089 1062.92 166.951 Q1062.92 163.131 1060.23 160.99 Q1057.57 158.82 1052.79 158.82 L1047.76 158.82 L1047.76 154.017 L1053.02 154.017 Q1057.34 154.017 1059.62 152.31 Q1061.91 150.574 1061.91 147.333 Q1061.91 144.005 1059.53 142.24 Q1057.19 140.446 1052.79 140.446 Q1050.39 140.446 1047.64 140.967 Q1044.89 141.488 1041.59 142.588 L1041.59 137.379 Q1044.92 136.453 1047.82 135.99 Q1050.74 135.527 1053.31 135.527 Q1059.97 135.527 1063.85 138.566 Q1067.72 141.575 1067.72 146.725 Q1067.72 150.313 1065.67 152.802 Q1063.61 155.261 1059.82 156.216 Z" fill="#000000" fill-rule="nonzero" fill-opacity="1" /><path clip-path="url(#clip570)" d="M1097.41 134.486 L1109.68 134.486 L1109.68 138.623 L1102.73 138.623 L1102.73 183.183 L1109.68 183.183 L1109.68 187.321 L1097.41 187.321 L1097.41 134.486 Z" fill="#000000" fill-rule="nonzero" fill-opacity="1" /><path clip-path="url(#clip570)" d="M1141.68 148.056 L1141.68 153.091 Q1139.42 151.934 1136.99 151.355 Q1134.56 150.776 1131.96 150.776 Q1127.99 150.776 1126 151.991 Q1124.03 153.207 1124.03 155.637 Q1124.03 157.489 1125.45 158.56 Q1126.87 159.601 1131.15 160.556 L1132.97 160.961 Q1138.64 162.177 1141.02 164.405 Q1143.42 166.604 1143.42 170.568 Q1143.42 175.082 1139.83 177.715 Q1136.27 180.348 1130.02 180.348 Q1127.42 180.348 1124.58 179.827 Q1121.77 179.335 1118.65 178.322 L1118.65 172.825 Q1121.6 174.358 1124.46 175.139 Q1127.33 175.892 1130.14 175.892 Q1133.9 175.892 1135.92 174.619 Q1137.95 173.317 1137.95 170.973 Q1137.95 168.803 1136.47 167.645 Q1135.03 166.488 1130.08 165.417 L1128.23 164.983 Q1123.28 163.942 1121.08 161.8 Q1118.88 159.63 1118.88 155.869 Q1118.88 151.297 1122.12 148.809 Q1125.36 146.32 1131.32 146.32 Q1134.27 146.32 1136.88 146.754 Q1139.48 147.188 1141.68 148.056 Z" fill="#000000" fill-rule="nonzero" fill-opacity="1" /><path clip-path="url(#clip570)" d="M1164.34 134.486 L1164.34 187.321 L1152.07 187.321 L1152.07 183.183 L1158.98 183.183 L1158.98 138.623 L1152.07 138.623 L1152.07 134.486 L1164.34 134.486 Z" fill="#000000" fill-rule="nonzero" fill-opacity="1" /><path clip-path="url(#clip570)" d="M1229.82 147.68 L1216.59 160.961 L1229.82 174.185 L1226.37 177.686 L1213.09 164.405 L1199.81 177.686 L1196.4 174.185 L1209.59 160.961 L1196.4 147.68 L1199.81 144.179 L1213.09 157.46 L1226.37 144.179 L1229.82 147.68 Z" fill="#000000" fill-rule="nonzero" fill-opacity="1" /><path clip-path="url(#clip570)" d="M1262.57 136.309 L1268.42 136.309 L1268.42 174.59 L1289.45 174.59 L1289.45 179.509 L1262.57 179.509 L1262.57 136.309 Z" fill="#000000" fill-rule="nonzero" fill-opacity="1" /></svg>
