<?xml version="1.0" encoding="utf-8"?>
<svg xmlns="http://www.w3.org/2000/svg" xmlns:xlink="http://www.w3.org/1999/xlink" width="600" height="400" viewBox="0 0 2400 1600">
<defs>
  <clipPath id="clip880">
    <rect x="0" y="0" width="2400" height="1600"/>
  </clipPath>
</defs>
<path clip-path="url(#clip880)" d="M0 1600 L2400 1600 L2400 0 L0 0  Z" fill="#ffffff" fill-rule="evenodd" fill-opacity="1"/>
<defs>
  <clipPath id="clip881">
    <rect x="480" y="0" width="1681" height="1600"/>
  </clipPath>
</defs>
<path clip-path="url(#clip880)" d="M219.38 1423.18 L2352.76 1423.18 L2352.76 47.2441 L219.38 47.2441  Z" fill="#ffffff" fill-rule="evenodd" fill-opacity="1"/>
<defs>
  <clipPath id="clip882">
    <rect x="219" y="47" width="2134" height="1377"/>
  </clipPath>
</defs>
<polyline clip-path="url(#clip882)" style="stroke:#000000; stroke-linecap:round; stroke-linejoin:round; stroke-width:2; stroke-opacity:0.1; fill:none" points="238.685,1423.18 238.685,47.2441 "/>
<polyline clip-path="url(#clip882)" style="stroke:#000000; stroke-linecap:round; stroke-linejoin:round; stroke-width:2; stroke-opacity:0.1; fill:none" points="649.423,1423.18 649.423,47.2441 "/>
<polyline clip-path="url(#clip882)" style="stroke:#000000; stroke-linecap:round; stroke-linejoin:round; stroke-width:2; stroke-opacity:0.1; fill:none" points="1060.16,1423.18 1060.16,47.2441 "/>
<polyline clip-path="url(#clip882)" style="stroke:#000000; stroke-linecap:round; stroke-linejoin:round; stroke-width:2; stroke-opacity:0.1; fill:none" points="1470.9,1423.18 1470.9,47.2441 "/>
<polyline clip-path="url(#clip882)" style="stroke:#000000; stroke-linecap:round; stroke-linejoin:round; stroke-width:2; stroke-opacity:0.1; fill:none" points="1881.64,1423.18 1881.64,47.2441 "/>
<polyline clip-path="url(#clip882)" style="stroke:#000000; stroke-linecap:round; stroke-linejoin:round; stroke-width:2; stroke-opacity:0.1; fill:none" points="2292.38,1423.18 2292.38,47.2441 "/>
<polyline clip-path="url(#clip880)" style="stroke:#000000; stroke-linecap:round; stroke-linejoin:round; stroke-width:4; stroke-opacity:1; fill:none" points="219.38,1423.18 2352.76,1423.18 "/>
<polyline clip-path="url(#clip880)" style="stroke:#000000; stroke-linecap:round; stroke-linejoin:round; stroke-width:4; stroke-opacity:1; fill:none" points="238.685,1423.18 238.685,1404.28 "/>
<polyline clip-path="url(#clip880)" style="stroke:#000000; stroke-linecap:round; stroke-linejoin:round; stroke-width:4; stroke-opacity:1; fill:none" points="649.423,1423.18 649.423,1404.28 "/>
<polyline clip-path="url(#clip880)" style="stroke:#000000; stroke-linecap:round; stroke-linejoin:round; stroke-width:4; stroke-opacity:1; fill:none" points="1060.16,1423.18 1060.16,1404.28 "/>
<polyline clip-path="url(#clip880)" style="stroke:#000000; stroke-linecap:round; stroke-linejoin:round; stroke-width:4; stroke-opacity:1; fill:none" points="1470.9,1423.18 1470.9,1404.28 "/>
<polyline clip-path="url(#clip880)" style="stroke:#000000; stroke-linecap:round; stroke-linejoin:round; stroke-width:4; stroke-opacity:1; fill:none" points="1881.64,1423.18 1881.64,1404.28 "/>
<polyline clip-path="url(#clip880)" style="stroke:#000000; stroke-linecap:round; stroke-linejoin:round; stroke-width:4; stroke-opacity:1; fill:none" points="2292.38,1423.18 2292.38,1404.28 "/>
<path clip-path="url(#clip880)" d="M238.685 1454.1 Q235.074 1454.1 233.245 1457.66 Q231.44 1461.2 231.44 1468.33 Q231.44 1475.44 233.245 1479.01 Q235.074 1482.55 238.685 1482.55 Q242.319 1482.55 244.125 1479.01 Q245.953 1475.44 245.953 1468.33 Q245.953 1461.2 244.125 1457.66 Q242.319 1454.1 238.685 1454.1 M238.685 1450.39 Q244.495 1450.39 247.551 1455 Q250.629 1459.58 250.629 1468.33 Q250.629 1477.06 247.551 1481.67 Q244.495 1486.25 238.685 1486.25 Q232.875 1486.25 229.796 1481.67 Q226.74 1477.06 226.74 1468.33 Q226.74 1459.58 229.796 1455 Q232.875 1450.39 238.685 1450.39 Z" fill="#000000" fill-rule="nonzero" fill-opacity="1" /><path clip-path="url(#clip880)" d="M624.111 1481.64 L631.75 1481.64 L631.75 1455.28 L623.44 1456.95 L623.44 1452.69 L631.704 1451.02 L636.379 1451.02 L636.379 1481.64 L644.018 1481.64 L644.018 1485.58 L624.111 1485.58 L624.111 1481.64 Z" fill="#000000" fill-rule="nonzero" fill-opacity="1" /><path clip-path="url(#clip880)" d="M663.463 1454.1 Q659.852 1454.1 658.023 1457.66 Q656.217 1461.2 656.217 1468.33 Q656.217 1475.44 658.023 1479.01 Q659.852 1482.55 663.463 1482.55 Q667.097 1482.55 668.902 1479.01 Q670.731 1475.44 670.731 1468.33 Q670.731 1461.2 668.902 1457.66 Q667.097 1454.1 663.463 1454.1 M663.463 1450.39 Q669.273 1450.39 672.328 1455 Q675.407 1459.58 675.407 1468.33 Q675.407 1477.06 672.328 1481.67 Q669.273 1486.25 663.463 1486.25 Q657.652 1486.25 654.574 1481.67 Q651.518 1477.06 651.518 1468.33 Q651.518 1459.58 654.574 1455 Q657.652 1450.39 663.463 1450.39 Z" fill="#000000" fill-rule="nonzero" fill-opacity="1" /><path clip-path="url(#clip880)" d="M1038.94 1481.64 L1055.25 1481.64 L1055.25 1485.58 L1033.31 1485.58 L1033.31 1481.64 Q1035.97 1478.89 1040.56 1474.26 Q1045.16 1469.61 1046.34 1468.27 Q1048.59 1465.74 1049.47 1464.01 Q1050.37 1462.25 1050.37 1460.56 Q1050.37 1457.8 1048.43 1456.07 Q1046.5 1454.33 1043.4 1454.33 Q1041.2 1454.33 1038.75 1455.09 Q1036.32 1455.86 1033.54 1457.41 L1033.54 1452.69 Q1036.37 1451.55 1038.82 1450.97 Q1041.27 1450.39 1043.31 1450.39 Q1048.68 1450.39 1051.87 1453.08 Q1055.07 1455.77 1055.07 1460.26 Q1055.07 1462.39 1054.26 1464.31 Q1053.47 1466.2 1051.37 1468.8 Q1050.79 1469.47 1047.69 1472.69 Q1044.58 1475.88 1038.94 1481.64 Z" fill="#000000" fill-rule="nonzero" fill-opacity="1" /><path clip-path="url(#clip880)" d="M1075.07 1454.1 Q1071.46 1454.1 1069.63 1457.66 Q1067.82 1461.2 1067.82 1468.33 Q1067.82 1475.44 1069.63 1479.01 Q1071.46 1482.55 1075.07 1482.55 Q1078.7 1482.55 1080.51 1479.01 Q1082.34 1475.44 1082.34 1468.33 Q1082.34 1461.2 1080.51 1457.66 Q1078.7 1454.1 1075.07 1454.1 M1075.07 1450.39 Q1080.88 1450.39 1083.93 1455 Q1087.01 1459.58 1087.01 1468.33 Q1087.01 1477.06 1083.93 1481.67 Q1080.88 1486.25 1075.07 1486.25 Q1069.26 1486.25 1066.18 1481.67 Q1063.12 1477.06 1063.12 1468.33 Q1063.12 1459.58 1066.18 1455 Q1069.26 1450.39 1075.07 1450.39 Z" fill="#000000" fill-rule="nonzero" fill-opacity="1" /><path clip-path="url(#clip880)" d="M1459.74 1466.95 Q1463.1 1467.66 1464.97 1469.93 Q1466.87 1472.2 1466.87 1475.53 Q1466.87 1480.65 1463.35 1483.45 Q1459.84 1486.25 1453.35 1486.25 Q1451.18 1486.25 1448.86 1485.81 Q1446.57 1485.39 1444.12 1484.54 L1444.12 1480.02 Q1446.06 1481.16 1448.38 1481.74 Q1450.69 1482.32 1453.22 1482.32 Q1457.61 1482.32 1459.91 1480.58 Q1462.22 1478.84 1462.22 1475.53 Q1462.22 1472.48 1460.07 1470.77 Q1457.94 1469.03 1454.12 1469.03 L1450.09 1469.03 L1450.09 1465.19 L1454.3 1465.19 Q1457.75 1465.19 1459.58 1463.82 Q1461.41 1462.43 1461.41 1459.84 Q1461.41 1457.18 1459.51 1455.77 Q1457.64 1454.33 1454.12 1454.33 Q1452.2 1454.33 1450 1454.75 Q1447.8 1455.16 1445.16 1456.04 L1445.16 1451.88 Q1447.82 1451.14 1450.14 1450.77 Q1452.47 1450.39 1454.53 1450.39 Q1459.86 1450.39 1462.96 1452.83 Q1466.06 1455.23 1466.06 1459.35 Q1466.06 1462.22 1464.42 1464.21 Q1462.78 1466.18 1459.74 1466.95 Z" fill="#000000" fill-rule="nonzero" fill-opacity="1" /><path clip-path="url(#clip880)" d="M1485.74 1454.1 Q1482.13 1454.1 1480.3 1457.66 Q1478.49 1461.2 1478.49 1468.33 Q1478.49 1475.44 1480.3 1479.01 Q1482.13 1482.55 1485.74 1482.55 Q1489.37 1482.55 1491.18 1479.01 Q1493.01 1475.44 1493.01 1468.33 Q1493.01 1461.2 1491.18 1457.66 Q1489.37 1454.1 1485.74 1454.1 M1485.74 1450.39 Q1491.55 1450.39 1494.6 1455 Q1497.68 1459.58 1497.68 1468.33 Q1497.68 1477.06 1494.6 1481.67 Q1491.55 1486.25 1485.74 1486.25 Q1479.93 1486.25 1476.85 1481.67 Q1473.79 1477.06 1473.79 1468.33 Q1473.79 1459.58 1476.85 1455 Q1479.93 1450.39 1485.74 1450.39 Z" fill="#000000" fill-rule="nonzero" fill-opacity="1" /><path clip-path="url(#clip880)" d="M1869.81 1455.09 L1858 1473.54 L1869.81 1473.54 L1869.81 1455.09 M1868.58 1451.02 L1874.46 1451.02 L1874.46 1473.54 L1879.39 1473.54 L1879.39 1477.43 L1874.46 1477.43 L1874.46 1485.58 L1869.81 1485.58 L1869.81 1477.43 L1854.21 1477.43 L1854.21 1472.92 L1868.58 1451.02 Z" fill="#000000" fill-rule="nonzero" fill-opacity="1" /><path clip-path="url(#clip880)" d="M1897.12 1454.1 Q1893.51 1454.1 1891.69 1457.66 Q1889.88 1461.2 1889.88 1468.33 Q1889.88 1475.44 1891.69 1479.01 Q1893.51 1482.55 1897.12 1482.55 Q1900.76 1482.55 1902.56 1479.01 Q1904.39 1475.44 1904.39 1468.33 Q1904.39 1461.2 1902.56 1457.66 Q1900.76 1454.1 1897.12 1454.1 M1897.12 1450.39 Q1902.94 1450.39 1905.99 1455 Q1909.07 1459.58 1909.07 1468.33 Q1909.07 1477.06 1905.99 1481.67 Q1902.94 1486.25 1897.12 1486.25 Q1891.31 1486.25 1888.24 1481.67 Q1885.18 1477.06 1885.18 1468.33 Q1885.18 1459.58 1888.24 1455 Q1891.31 1450.39 1897.12 1450.39 Z" fill="#000000" fill-rule="nonzero" fill-opacity="1" /><path clip-path="url(#clip880)" d="M2267.08 1451.02 L2285.43 1451.02 L2285.43 1454.96 L2271.36 1454.96 L2271.36 1463.43 Q2272.38 1463.08 2273.4 1462.92 Q2274.41 1462.73 2275.43 1462.73 Q2281.22 1462.73 2284.6 1465.9 Q2287.98 1469.08 2287.98 1474.49 Q2287.98 1480.07 2284.51 1483.17 Q2281.03 1486.25 2274.72 1486.25 Q2272.54 1486.25 2270.27 1485.88 Q2268.03 1485.51 2265.62 1484.77 L2265.62 1480.07 Q2267.7 1481.2 2269.92 1481.76 Q2272.15 1482.32 2274.62 1482.32 Q2278.63 1482.32 2280.97 1480.21 Q2283.3 1478.1 2283.3 1474.49 Q2283.3 1470.88 2280.97 1468.77 Q2278.63 1466.67 2274.62 1466.67 Q2272.75 1466.67 2270.87 1467.08 Q2269.02 1467.5 2267.08 1468.38 L2267.08 1451.02 Z" fill="#000000" fill-rule="nonzero" fill-opacity="1" /><path clip-path="url(#clip880)" d="M2307.19 1454.1 Q2303.58 1454.1 2301.75 1457.66 Q2299.95 1461.2 2299.95 1468.33 Q2299.95 1475.44 2301.75 1479.01 Q2303.58 1482.55 2307.19 1482.55 Q2310.83 1482.55 2312.63 1479.01 Q2314.46 1475.44 2314.46 1468.33 Q2314.46 1461.2 2312.63 1457.66 Q2310.83 1454.1 2307.19 1454.1 M2307.19 1450.39 Q2313 1450.39 2316.06 1455 Q2319.14 1459.58 2319.14 1468.33 Q2319.14 1477.06 2316.06 1481.67 Q2313 1486.25 2307.19 1486.25 Q2301.38 1486.25 2298.3 1481.67 Q2295.25 1477.06 2295.25 1468.33 Q2295.25 1459.58 2298.3 1455 Q2301.38 1450.39 2307.19 1450.39 Z" fill="#000000" fill-rule="nonzero" fill-opacity="1" /><path clip-path="url(#clip880)" d="M841.774 1520.52 L850.431 1520.52 L871.501 1560.28 L871.501 1520.52 L877.74 1520.52 L877.74 1568.04 L869.082 1568.04 L848.012 1528.29 L848.012 1568.04 L841.774 1568.04 L841.774 1520.52 Z" fill="#000000" fill-rule="nonzero" fill-opacity="1" /><path clip-path="url(#clip880)" d="M889.675 1553.98 L889.675 1532.4 L895.532 1532.4 L895.532 1553.75 Q895.532 1558.81 897.505 1561.36 Q899.479 1563.87 903.425 1563.87 Q908.168 1563.87 910.905 1560.85 Q913.674 1557.83 913.674 1552.61 L913.674 1532.4 L919.531 1532.4 L919.531 1568.04 L913.674 1568.04 L913.674 1562.57 Q911.542 1565.82 908.709 1567.41 Q905.908 1568.97 902.184 1568.97 Q896.041 1568.97 892.858 1565.15 Q889.675 1561.33 889.675 1553.98 M904.412 1531.54 L904.412 1531.54 Z" fill="#000000" fill-rule="nonzero" fill-opacity="1" /><path clip-path="url(#clip880)" d="M959.348 1539.24 Q961.544 1535.29 964.6 1533.41 Q967.655 1531.54 971.793 1531.54 Q977.363 1531.54 980.387 1535.45 Q983.411 1539.33 983.411 1546.53 L983.411 1568.04 L977.522 1568.04 L977.522 1546.72 Q977.522 1541.59 975.708 1539.11 Q973.894 1536.63 970.17 1536.63 Q965.618 1536.63 962.977 1539.65 Q960.335 1542.68 960.335 1547.9 L960.335 1568.04 L954.447 1568.04 L954.447 1546.72 Q954.447 1541.56 952.632 1539.11 Q950.818 1536.63 947.03 1536.63 Q942.543 1536.63 939.901 1539.68 Q937.259 1542.71 937.259 1547.9 L937.259 1568.04 L931.371 1568.04 L931.371 1532.4 L937.259 1532.4 L937.259 1537.93 Q939.264 1534.66 942.065 1533.1 Q944.866 1531.54 948.717 1531.54 Q952.6 1531.54 955.306 1533.51 Q958.043 1535.48 959.348 1539.24 Z" fill="#000000" fill-rule="nonzero" fill-opacity="1" /><path clip-path="url(#clip880)" d="M1020.68 1550.25 Q1020.68 1543.79 1018.01 1540.13 Q1015.37 1536.44 1010.72 1536.44 Q1006.07 1536.44 1003.4 1540.13 Q1000.76 1543.79 1000.76 1550.25 Q1000.76 1556.71 1003.4 1560.4 Q1006.07 1564.07 1010.72 1564.07 Q1015.37 1564.07 1018.01 1560.4 Q1020.68 1556.71 1020.68 1550.25 M1000.76 1537.81 Q1002.6 1534.62 1005.4 1533.1 Q1008.24 1531.54 1012.15 1531.54 Q1018.64 1531.54 1022.69 1536.69 Q1026.76 1541.85 1026.76 1550.25 Q1026.76 1558.65 1022.69 1563.81 Q1018.64 1568.97 1012.15 1568.97 Q1008.24 1568.97 1005.4 1567.44 Q1002.6 1565.88 1000.76 1562.7 L1000.76 1568.04 L994.869 1568.04 L994.869 1518.52 L1000.76 1518.52 L1000.76 1537.81 Z" fill="#000000" fill-rule="nonzero" fill-opacity="1" /><path clip-path="url(#clip880)" d="M1066.96 1548.76 L1066.96 1551.62 L1040.03 1551.62 Q1040.42 1557.67 1043.66 1560.85 Q1046.94 1564 1052.76 1564 Q1056.14 1564 1059.29 1563.17 Q1062.47 1562.35 1065.59 1560.69 L1065.59 1566.23 Q1062.44 1567.57 1059.13 1568.27 Q1055.82 1568.97 1052.41 1568.97 Q1043.88 1568.97 1038.89 1564 Q1033.92 1559.04 1033.92 1550.57 Q1033.92 1541.82 1038.63 1536.69 Q1043.38 1531.54 1051.4 1531.54 Q1058.59 1531.54 1062.76 1536.18 Q1066.96 1540.8 1066.96 1548.76 M1061.1 1547.04 Q1061.04 1542.23 1058.4 1539.37 Q1055.79 1536.5 1051.46 1536.5 Q1046.56 1536.5 1043.6 1539.27 Q1040.67 1542.04 1040.22 1547.07 L1061.1 1547.04 Z" fill="#000000" fill-rule="nonzero" fill-opacity="1" /><path clip-path="url(#clip880)" d="M1097.23 1537.87 Q1096.24 1537.3 1095.07 1537.04 Q1093.92 1536.76 1092.52 1536.76 Q1087.55 1536.76 1084.88 1540 Q1082.24 1543.22 1082.24 1549.27 L1082.24 1568.04 L1076.35 1568.04 L1076.35 1532.4 L1082.24 1532.4 L1082.24 1537.93 Q1084.08 1534.69 1087.04 1533.13 Q1090 1531.54 1094.24 1531.54 Q1094.84 1531.54 1095.57 1531.63 Q1096.31 1531.7 1097.2 1531.85 L1097.23 1537.87 Z" fill="#000000" fill-rule="nonzero" fill-opacity="1" /><path clip-path="url(#clip880)" d="M1137.91 1536.5 Q1133.2 1536.5 1130.46 1540.19 Q1127.72 1543.85 1127.72 1550.25 Q1127.72 1556.65 1130.43 1560.34 Q1133.16 1564 1137.91 1564 Q1142.59 1564 1145.32 1560.31 Q1148.06 1556.62 1148.06 1550.25 Q1148.06 1543.92 1145.32 1540.23 Q1142.59 1536.5 1137.91 1536.5 M1137.91 1531.54 Q1145.55 1531.54 1149.91 1536.5 Q1154.27 1541.47 1154.27 1550.25 Q1154.27 1559 1149.91 1564 Q1145.55 1568.97 1137.91 1568.97 Q1130.24 1568.97 1125.88 1564 Q1121.55 1559 1121.55 1550.25 Q1121.55 1541.47 1125.88 1536.5 Q1130.24 1531.54 1137.91 1531.54 Z" fill="#000000" fill-rule="nonzero" fill-opacity="1" /><path clip-path="url(#clip880)" d="M1182.02 1518.52 L1182.02 1523.39 L1176.42 1523.39 Q1173.27 1523.39 1172.03 1524.66 Q1170.82 1525.93 1170.82 1529.24 L1170.82 1532.4 L1180.46 1532.4 L1180.46 1536.95 L1170.82 1536.95 L1170.82 1568.04 L1164.93 1568.04 L1164.93 1536.95 L1159.33 1536.95 L1159.33 1532.4 L1164.93 1532.4 L1164.93 1529.91 Q1164.93 1523.96 1167.7 1521.26 Q1170.47 1518.52 1176.48 1518.52 L1182.02 1518.52 Z" fill="#000000" fill-rule="nonzero" fill-opacity="1" /><path clip-path="url(#clip880)" d="M1214.33 1525.81 L1214.33 1562.76 L1222.09 1562.76 Q1231.93 1562.76 1236.48 1558.3 Q1241.06 1553.85 1241.06 1544.24 Q1241.06 1534.69 1236.48 1530.26 Q1231.93 1525.81 1222.09 1525.81 L1214.33 1525.81 M1207.9 1520.52 L1221.11 1520.52 Q1234.92 1520.52 1241.38 1526.28 Q1247.84 1532.01 1247.84 1544.24 Q1247.84 1556.52 1241.35 1562.28 Q1234.86 1568.04 1221.11 1568.04 L1207.9 1568.04 L1207.9 1520.52 Z" fill="#000000" fill-rule="nonzero" fill-opacity="1" /><path clip-path="url(#clip880)" d="M1258.09 1520.52 L1267.67 1520.52 L1279.8 1552.86 L1291.99 1520.52 L1301.57 1520.52 L1301.57 1568.04 L1295.3 1568.04 L1295.3 1526.32 L1283.04 1558.91 L1276.58 1558.91 L1264.33 1526.32 L1264.33 1568.04 L1258.09 1568.04 L1258.09 1520.52 Z" fill="#000000" fill-rule="nonzero" fill-opacity="1" /><path clip-path="url(#clip880)" d="M1336.87 1545.76 Q1338.94 1546.46 1340.88 1548.76 Q1342.85 1551.05 1344.82 1555.06 L1351.35 1568.04 L1344.44 1568.04 L1338.36 1555.85 Q1336.01 1551.08 1333.78 1549.52 Q1331.58 1547.96 1327.76 1547.96 L1320.76 1547.96 L1320.76 1568.04 L1314.33 1568.04 L1314.33 1520.52 L1328.85 1520.52 Q1336.99 1520.52 1341 1523.93 Q1345.01 1527.34 1345.01 1534.21 Q1345.01 1538.7 1342.91 1541.66 Q1340.84 1544.62 1336.87 1545.76 M1320.76 1525.81 L1320.76 1542.68 L1328.85 1542.68 Q1333.49 1542.68 1335.85 1540.54 Q1338.23 1538.38 1338.23 1534.21 Q1338.23 1530.04 1335.85 1527.94 Q1333.49 1525.81 1328.85 1525.81 L1320.76 1525.81 Z" fill="#000000" fill-rule="nonzero" fill-opacity="1" /><path clip-path="url(#clip880)" d="M1392.03 1561.26 L1392.03 1548.5 L1381.52 1548.5 L1381.52 1543.22 L1398.39 1543.22 L1398.39 1563.62 Q1394.67 1566.26 1390.18 1567.63 Q1385.69 1568.97 1380.6 1568.97 Q1369.46 1568.97 1363.16 1562.47 Q1356.89 1555.95 1356.89 1544.33 Q1356.89 1532.68 1363.16 1526.19 Q1369.46 1519.66 1380.6 1519.66 Q1385.25 1519.66 1389.42 1520.81 Q1393.62 1521.96 1397.15 1524.18 L1397.15 1531.03 Q1393.58 1528 1389.57 1526.48 Q1385.56 1524.95 1381.14 1524.95 Q1372.42 1524.95 1368.03 1529.82 Q1363.67 1534.69 1363.67 1544.33 Q1363.67 1553.94 1368.03 1558.81 Q1372.42 1563.68 1381.14 1563.68 Q1384.55 1563.68 1387.22 1563.11 Q1389.89 1562.51 1392.03 1561.26 Z" fill="#000000" fill-rule="nonzero" fill-opacity="1" /><path clip-path="url(#clip880)" d="M1453.33 1533.45 L1453.33 1538.98 Q1450.84 1537.71 1448.17 1537.07 Q1445.5 1536.44 1442.63 1536.44 Q1438.27 1536.44 1436.08 1537.77 Q1433.91 1539.11 1433.91 1541.79 Q1433.91 1543.82 1435.47 1545 Q1437.03 1546.15 1441.74 1547.2 L1443.75 1547.64 Q1449.98 1548.98 1452.59 1551.43 Q1455.24 1553.85 1455.24 1558.21 Q1455.24 1563.17 1451.29 1566.07 Q1447.38 1568.97 1440.5 1568.97 Q1437.64 1568.97 1434.52 1568.39 Q1431.43 1567.85 1427.99 1566.74 L1427.99 1560.69 Q1431.24 1562.38 1434.39 1563.24 Q1437.54 1564.07 1440.63 1564.07 Q1444.77 1564.07 1446.99 1562.66 Q1449.22 1561.23 1449.22 1558.65 Q1449.22 1556.27 1447.6 1554.99 Q1446.01 1553.72 1440.56 1552.54 L1438.53 1552.07 Q1433.08 1550.92 1430.67 1548.56 Q1428.25 1546.18 1428.25 1542.04 Q1428.25 1537.01 1431.81 1534.27 Q1435.38 1531.54 1441.93 1531.54 Q1445.18 1531.54 1448.04 1532.01 Q1450.91 1532.49 1453.33 1533.45 Z" fill="#000000" fill-rule="nonzero" fill-opacity="1" /><path clip-path="url(#clip880)" d="M1461.16 1532.4 L1467.01 1532.4 L1474.33 1560.21 L1481.62 1532.4 L1488.53 1532.4 L1495.85 1560.21 L1503.14 1532.4 L1509 1532.4 L1499.67 1568.04 L1492.76 1568.04 L1485.09 1538.83 L1477.39 1568.04 L1470.48 1568.04 L1461.16 1532.4 Z" fill="#000000" fill-rule="nonzero" fill-opacity="1" /><path clip-path="url(#clip880)" d="M1548.37 1548.76 L1548.37 1551.62 L1521.44 1551.62 Q1521.82 1557.67 1525.07 1560.85 Q1528.35 1564 1534.17 1564 Q1537.55 1564 1540.7 1563.17 Q1543.88 1562.35 1547 1560.69 L1547 1566.23 Q1543.85 1567.57 1540.54 1568.27 Q1537.23 1568.97 1533.82 1568.97 Q1525.29 1568.97 1520.29 1564 Q1515.33 1559.04 1515.33 1550.57 Q1515.33 1541.82 1520.04 1536.69 Q1524.78 1531.54 1532.8 1531.54 Q1540 1531.54 1544.17 1536.18 Q1548.37 1540.8 1548.37 1548.76 M1542.51 1547.04 Q1542.45 1542.23 1539.81 1539.37 Q1537.2 1536.5 1532.87 1536.5 Q1527.96 1536.5 1525 1539.27 Q1522.08 1542.04 1521.63 1547.07 L1542.51 1547.04 Z" fill="#000000" fill-rule="nonzero" fill-opacity="1" /><path clip-path="url(#clip880)" d="M1588.47 1548.76 L1588.47 1551.62 L1561.54 1551.62 Q1561.93 1557.67 1565.17 1560.85 Q1568.45 1564 1574.28 1564 Q1577.65 1564 1580.8 1563.17 Q1583.98 1562.35 1587.1 1560.69 L1587.1 1566.23 Q1583.95 1567.57 1580.64 1568.27 Q1577.33 1568.97 1573.93 1568.97 Q1565.4 1568.97 1560.4 1564 Q1555.43 1559.04 1555.43 1550.57 Q1555.43 1541.82 1560.14 1536.69 Q1564.89 1531.54 1572.91 1531.54 Q1580.1 1531.54 1584.27 1536.18 Q1588.47 1540.8 1588.47 1548.76 M1582.61 1547.04 Q1582.55 1542.23 1579.91 1539.37 Q1577.3 1536.5 1572.97 1536.5 Q1568.07 1536.5 1565.11 1539.27 Q1562.18 1542.04 1561.73 1547.07 L1582.61 1547.04 Z" fill="#000000" fill-rule="nonzero" fill-opacity="1" /><path clip-path="url(#clip880)" d="M1603.75 1562.7 L1603.75 1581.6 L1597.86 1581.6 L1597.86 1532.4 L1603.75 1532.4 L1603.75 1537.81 Q1605.59 1534.62 1608.4 1533.1 Q1611.23 1531.54 1615.14 1531.54 Q1621.64 1531.54 1625.68 1536.69 Q1629.75 1541.85 1629.75 1550.25 Q1629.75 1558.65 1625.68 1563.81 Q1621.64 1568.97 1615.14 1568.97 Q1611.23 1568.97 1608.4 1567.44 Q1605.59 1565.88 1603.75 1562.7 M1623.67 1550.25 Q1623.67 1543.79 1621 1540.13 Q1618.36 1536.44 1613.71 1536.44 Q1609.06 1536.44 1606.39 1540.13 Q1603.75 1543.79 1603.75 1550.25 Q1603.75 1556.71 1606.39 1560.4 Q1609.06 1564.07 1613.71 1564.07 Q1618.36 1564.07 1621 1560.4 Q1623.67 1556.71 1623.67 1550.25 Z" fill="#000000" fill-rule="nonzero" fill-opacity="1" /><path clip-path="url(#clip880)" d="M1662.19 1533.45 L1662.19 1538.98 Q1659.7 1537.71 1657.03 1537.07 Q1654.36 1536.44 1651.49 1536.44 Q1647.13 1536.44 1644.93 1537.77 Q1642.77 1539.11 1642.77 1541.79 Q1642.77 1543.82 1644.33 1545 Q1645.89 1546.15 1650.6 1547.2 L1652.61 1547.64 Q1658.84 1548.98 1661.45 1551.43 Q1664.1 1553.85 1664.1 1558.21 Q1664.1 1563.17 1660.15 1566.07 Q1656.23 1568.97 1649.36 1568.97 Q1646.49 1568.97 1643.38 1568.39 Q1640.29 1567.85 1636.85 1566.74 L1636.85 1560.69 Q1640.1 1562.38 1643.25 1563.24 Q1646.4 1564.07 1649.49 1564.07 Q1653.62 1564.07 1655.85 1562.66 Q1658.08 1561.23 1658.08 1558.65 Q1658.08 1556.27 1656.46 1554.99 Q1654.87 1553.72 1649.42 1552.54 L1647.39 1552.07 Q1641.94 1550.92 1639.52 1548.56 Q1637.1 1546.18 1637.1 1542.04 Q1637.1 1537.01 1640.67 1534.27 Q1644.23 1531.54 1650.79 1531.54 Q1654.04 1531.54 1656.9 1532.01 Q1659.77 1532.49 1662.19 1533.45 Z" fill="#000000" fill-rule="nonzero" fill-opacity="1" /><path clip-path="url(#clip880)" d="M1694.4 1520.52 L1703.05 1520.52 L1724.12 1560.28 L1724.12 1520.52 L1730.36 1520.52 L1730.36 1568.04 L1721.71 1568.04 L1700.63 1528.29 L1700.63 1568.04 L1694.4 1568.04 L1694.4 1520.52 Z" fill="#000000" fill-rule="nonzero" fill-opacity="1" /><polyline clip-path="url(#clip882)" style="stroke:#000000; stroke-linecap:round; stroke-linejoin:round; stroke-width:2; stroke-opacity:0.1; fill:none" points="219.38,1410.31 2352.76,1410.31 "/>
<polyline clip-path="url(#clip882)" style="stroke:#000000; stroke-linecap:round; stroke-linejoin:round; stroke-width:2; stroke-opacity:0.1; fill:none" points="219.38,959.162 2352.76,959.162 "/>
<polyline clip-path="url(#clip882)" style="stroke:#000000; stroke-linecap:round; stroke-linejoin:round; stroke-width:2; stroke-opacity:0.1; fill:none" points="219.38,508.014 2352.76,508.014 "/>
<polyline clip-path="url(#clip882)" style="stroke:#000000; stroke-linecap:round; stroke-linejoin:round; stroke-width:2; stroke-opacity:0.1; fill:none" points="219.38,56.8656 2352.76,56.8656 "/>
<polyline clip-path="url(#clip880)" style="stroke:#000000; stroke-linecap:round; stroke-linejoin:round; stroke-width:4; stroke-opacity:1; fill:none" points="219.38,1423.18 219.38,47.2441 "/>
<polyline clip-path="url(#clip880)" style="stroke:#000000; stroke-linecap:round; stroke-linejoin:round; stroke-width:4; stroke-opacity:1; fill:none" points="219.38,1410.31 238.278,1410.31 "/>
<polyline clip-path="url(#clip880)" style="stroke:#000000; stroke-linecap:round; stroke-linejoin:round; stroke-width:4; stroke-opacity:1; fill:none" points="219.38,959.162 238.278,959.162 "/>
<polyline clip-path="url(#clip880)" style="stroke:#000000; stroke-linecap:round; stroke-linejoin:round; stroke-width:4; stroke-opacity:1; fill:none" points="219.38,508.014 238.278,508.014 "/>
<polyline clip-path="url(#clip880)" style="stroke:#000000; stroke-linecap:round; stroke-linejoin:round; stroke-width:4; stroke-opacity:1; fill:none" points="219.38,56.8656 238.278,56.8656 "/>
<path clip-path="url(#clip880)" d="M126.205 1396.11 Q122.593 1396.11 120.765 1399.67 Q118.959 1403.22 118.959 1410.34 Q118.959 1417.45 120.765 1421.02 Q122.593 1424.56 126.205 1424.56 Q129.839 1424.56 131.644 1421.02 Q133.473 1417.45 133.473 1410.34 Q133.473 1403.22 131.644 1399.67 Q129.839 1396.11 126.205 1396.11 M126.205 1392.41 Q132.015 1392.41 135.07 1397.01 Q138.149 1401.59 138.149 1410.34 Q138.149 1419.07 135.07 1423.68 Q132.015 1428.26 126.205 1428.26 Q120.394 1428.26 117.316 1423.68 Q114.26 1419.07 114.26 1410.34 Q114.26 1401.59 117.316 1397.01 Q120.394 1392.41 126.205 1392.41 Z" fill="#000000" fill-rule="nonzero" fill-opacity="1" /><path clip-path="url(#clip880)" d="M146.366 1421.71 L151.251 1421.71 L151.251 1427.59 L146.366 1427.59 L146.366 1421.71 Z" fill="#000000" fill-rule="nonzero" fill-opacity="1" /><path clip-path="url(#clip880)" d="M171.436 1396.11 Q167.825 1396.11 165.996 1399.67 Q164.19 1403.22 164.19 1410.34 Q164.19 1417.45 165.996 1421.02 Q167.825 1424.56 171.436 1424.56 Q175.07 1424.56 176.876 1421.02 Q178.704 1417.45 178.704 1410.34 Q178.704 1403.22 176.876 1399.67 Q175.07 1396.11 171.436 1396.11 M171.436 1392.41 Q177.246 1392.41 180.301 1397.01 Q183.38 1401.59 183.38 1410.34 Q183.38 1419.07 180.301 1423.68 Q177.246 1428.26 171.436 1428.26 Q165.626 1428.26 162.547 1423.68 Q159.491 1419.07 159.491 1410.34 Q159.491 1401.59 162.547 1397.01 Q165.626 1392.41 171.436 1392.41 Z" fill="#000000" fill-rule="nonzero" fill-opacity="1" /><path clip-path="url(#clip880)" d="M127.2 944.961 Q123.589 944.961 121.76 948.525 Q119.955 952.067 119.955 959.197 Q119.955 966.303 121.76 969.868 Q123.589 973.41 127.2 973.41 Q130.834 973.41 132.64 969.868 Q134.468 966.303 134.468 959.197 Q134.468 952.067 132.64 948.525 Q130.834 944.961 127.2 944.961 M127.2 941.257 Q133.01 941.257 136.066 945.863 Q139.144 950.447 139.144 959.197 Q139.144 967.923 136.066 972.53 Q133.01 977.113 127.2 977.113 Q121.39 977.113 118.311 972.53 Q115.256 967.923 115.256 959.197 Q115.256 950.447 118.311 945.863 Q121.39 941.257 127.2 941.257 Z" fill="#000000" fill-rule="nonzero" fill-opacity="1" /><path clip-path="url(#clip880)" d="M147.362 970.562 L152.246 970.562 L152.246 976.442 L147.362 976.442 L147.362 970.562 Z" fill="#000000" fill-rule="nonzero" fill-opacity="1" /><path clip-path="url(#clip880)" d="M162.477 941.882 L180.834 941.882 L180.834 945.817 L166.76 945.817 L166.76 954.289 Q167.778 953.942 168.797 953.78 Q169.815 953.595 170.834 953.595 Q176.621 953.595 180.001 956.766 Q183.38 959.937 183.38 965.354 Q183.38 970.933 179.908 974.035 Q176.436 977.113 170.116 977.113 Q167.94 977.113 165.672 976.743 Q163.427 976.372 161.019 975.632 L161.019 970.933 Q163.102 972.067 165.325 972.623 Q167.547 973.178 170.024 973.178 Q174.028 973.178 176.366 971.072 Q178.704 968.965 178.704 965.354 Q178.704 961.743 176.366 959.636 Q174.028 957.53 170.024 957.53 Q168.149 957.53 166.274 957.947 Q164.422 958.363 162.477 959.243 L162.477 941.882 Z" fill="#000000" fill-rule="nonzero" fill-opacity="1" /><path clip-path="url(#clip880)" d="M117.015 521.359 L124.654 521.359 L124.654 494.993 L116.343 496.66 L116.343 492.4 L124.607 490.734 L129.283 490.734 L129.283 521.359 L136.922 521.359 L136.922 525.294 L117.015 525.294 L117.015 521.359 Z" fill="#000000" fill-rule="nonzero" fill-opacity="1" /><path clip-path="url(#clip880)" d="M146.366 519.414 L151.251 519.414 L151.251 525.294 L146.366 525.294 L146.366 519.414 Z" fill="#000000" fill-rule="nonzero" fill-opacity="1" /><path clip-path="url(#clip880)" d="M171.436 493.812 Q167.825 493.812 165.996 497.377 Q164.19 500.919 164.19 508.048 Q164.19 515.155 165.996 518.72 Q167.825 522.261 171.436 522.261 Q175.07 522.261 176.876 518.72 Q178.704 515.155 178.704 508.048 Q178.704 500.919 176.876 497.377 Q175.07 493.812 171.436 493.812 M171.436 490.109 Q177.246 490.109 180.301 494.715 Q183.38 499.299 183.38 508.048 Q183.38 516.775 180.301 521.382 Q177.246 525.965 171.436 525.965 Q165.626 525.965 162.547 521.382 Q159.491 516.775 159.491 508.048 Q159.491 499.299 162.547 494.715 Q165.626 490.109 171.436 490.109 Z" fill="#000000" fill-rule="nonzero" fill-opacity="1" /><path clip-path="url(#clip880)" d="M118.01 70.2104 L125.649 70.2104 L125.649 43.8448 L117.339 45.5114 L117.339 41.2522 L125.603 39.5856 L130.279 39.5856 L130.279 70.2104 L137.917 70.2104 L137.917 74.1456 L118.01 74.1456 L118.01 70.2104 Z" fill="#000000" fill-rule="nonzero" fill-opacity="1" /><path clip-path="url(#clip880)" d="M147.362 68.266 L152.246 68.266 L152.246 74.1456 L147.362 74.1456 L147.362 68.266 Z" fill="#000000" fill-rule="nonzero" fill-opacity="1" /><path clip-path="url(#clip880)" d="M162.477 39.5856 L180.834 39.5856 L180.834 43.5207 L166.76 43.5207 L166.76 51.9929 Q167.778 51.6457 168.797 51.4836 Q169.815 51.2985 170.834 51.2985 Q176.621 51.2985 180.001 54.4697 Q183.38 57.641 183.38 63.0577 Q183.38 68.6363 179.908 71.7382 Q176.436 74.8168 170.116 74.8168 Q167.94 74.8168 165.672 74.4465 Q163.427 74.0761 161.019 73.3354 L161.019 68.6363 Q163.102 69.7706 165.325 70.3261 Q167.547 70.8817 170.024 70.8817 Q174.028 70.8817 176.366 68.7752 Q178.704 66.6687 178.704 63.0577 Q178.704 59.4466 176.366 57.3401 Q174.028 55.2336 170.024 55.2336 Q168.149 55.2336 166.274 55.6503 Q164.422 56.0669 162.477 56.9466 L162.477 39.5856 Z" fill="#000000" fill-rule="nonzero" fill-opacity="1" /><path clip-path="url(#clip880)" d="M20.1444 1040 L26.9239 1040 Q23.9002 1043.25 22.4043 1046.94 Q20.9083 1050.6 20.9083 1054.74 Q20.9083 1062.89 25.9054 1067.22 Q30.8707 1071.54 40.2919 1071.54 Q49.6813 1071.54 54.6784 1067.22 Q59.6436 1062.89 59.6436 1054.74 Q59.6436 1050.6 58.1477 1046.94 Q56.6518 1043.25 53.6281 1040 L60.3439 1040 Q62.6355 1043.38 63.7814 1047.16 Q64.9272 1050.92 64.9272 1055.12 Q64.9272 1065.91 58.3387 1072.12 Q51.7183 1078.32 40.2919 1078.32 Q28.8336 1078.32 22.2451 1072.12 Q15.6248 1065.91 15.6248 1055.12 Q15.6248 1050.86 16.7706 1047.1 Q17.8846 1043.31 20.1444 1040 Z" fill="#000000" fill-rule="nonzero" fill-opacity="1" /><path clip-path="url(#clip880)" d="M32.4621 1016.51 Q32.4621 1021.22 36.1542 1023.96 Q39.8145 1026.7 46.212 1026.7 Q52.6095 1026.7 56.3017 1023.99 Q59.9619 1021.25 59.9619 1016.51 Q59.9619 1011.83 56.2698 1009.1 Q52.5777 1006.36 46.212 1006.36 Q39.8781 1006.36 36.186 1009.1 Q32.4621 1011.83 32.4621 1016.51 M27.4968 1016.51 Q27.4968 1008.87 32.4621 1004.51 Q37.4273 1000.15 46.212 1000.15 Q54.9649 1000.15 59.9619 1004.51 Q64.9272 1008.87 64.9272 1016.51 Q64.9272 1024.18 59.9619 1028.54 Q54.9649 1032.87 46.212 1032.87 Q37.4273 1032.87 32.4621 1028.54 Q27.4968 1024.18 27.4968 1016.51 Z" fill="#000000" fill-rule="nonzero" fill-opacity="1" /><path clip-path="url(#clip880)" d="M35.1993 962.69 Q31.2526 960.494 29.3747 957.439 Q27.4968 954.383 27.4968 950.246 Q27.4968 944.676 31.4117 941.652 Q35.2948 938.628 42.4881 938.628 L64.0042 938.628 L64.0042 944.516 L42.679 944.516 Q37.5546 944.516 35.072 946.331 Q32.5894 948.145 32.5894 951.869 Q32.5894 956.42 35.6131 959.062 Q38.6368 961.704 43.8567 961.704 L64.0042 961.704 L64.0042 967.592 L42.679 967.592 Q37.5228 967.592 35.072 969.406 Q32.5894 971.221 32.5894 975.008 Q32.5894 979.496 35.6449 982.138 Q38.6686 984.779 43.8567 984.779 L64.0042 984.779 L64.0042 990.668 L28.3562 990.668 L28.3562 984.779 L33.8944 984.779 Q30.616 982.774 29.0564 979.973 Q27.4968 977.172 27.4968 973.321 Q27.4968 969.438 29.4702 966.733 Q31.4436 963.995 35.1993 962.69 Z" fill="#000000" fill-rule="nonzero" fill-opacity="1" /><path clip-path="url(#clip880)" d="M58.657 921.282 L77.5631 921.282 L77.5631 927.17 L28.3562 927.17 L28.3562 921.282 L33.7671 921.282 Q30.5842 919.436 29.0564 916.635 Q27.4968 913.802 27.4968 909.887 Q27.4968 903.394 32.6531 899.352 Q37.8093 895.278 46.212 895.278 Q54.6147 895.278 59.771 899.352 Q64.9272 903.394 64.9272 909.887 Q64.9272 913.802 63.3994 916.635 Q61.8398 919.436 58.657 921.282 M46.212 901.357 Q39.7508 901.357 36.0905 904.031 Q32.3984 906.672 32.3984 911.319 Q32.3984 915.966 36.0905 918.64 Q39.7508 921.282 46.212 921.282 Q52.6732 921.282 56.3653 918.64 Q60.0256 915.966 60.0256 911.319 Q60.0256 906.672 56.3653 904.031 Q52.6732 901.357 46.212 901.357 Z" fill="#000000" fill-rule="nonzero" fill-opacity="1" /><path clip-path="url(#clip880)" d="M49.9359 886.175 L28.3562 886.175 L28.3562 880.318 L49.7131 880.318 Q54.7739 880.318 57.3202 878.345 Q59.8346 876.372 59.8346 872.425 Q59.8346 867.682 56.8109 864.945 Q53.7872 862.176 48.5673 862.176 L28.3562 862.176 L28.3562 856.32 L64.0042 856.32 L64.0042 862.176 L58.5296 862.176 Q61.7762 864.308 63.3676 867.141 Q64.9272 869.942 64.9272 873.666 Q64.9272 879.809 61.1078 882.992 Q57.2883 886.175 49.9359 886.175 M27.4968 871.438 L27.4968 871.438 Z" fill="#000000" fill-rule="nonzero" fill-opacity="1" /><path clip-path="url(#clip880)" d="M18.2347 838.464 L28.3562 838.464 L28.3562 826.401 L32.9077 826.401 L32.9077 838.464 L52.2594 838.464 Q56.6199 838.464 57.8613 837.286 Q59.1026 836.077 59.1026 832.416 L59.1026 826.401 L64.0042 826.401 L64.0042 832.416 Q64.0042 839.196 61.4897 841.774 Q58.9434 844.352 52.2594 844.352 L32.9077 844.352 L32.9077 848.649 L28.3562 848.649 L28.3562 844.352 L18.2347 844.352 L18.2347 838.464 Z" fill="#000000" fill-rule="nonzero" fill-opacity="1" /><path clip-path="url(#clip880)" d="M46.0847 802.497 Q46.0847 809.595 47.7079 812.333 Q49.3312 815.07 53.2461 815.07 Q56.3653 815.07 58.2114 813.033 Q60.0256 810.964 60.0256 807.431 Q60.0256 802.561 56.5881 799.633 Q53.1188 796.673 47.3897 796.673 L46.0847 796.673 L46.0847 802.497 M43.6657 790.816 L64.0042 790.816 L64.0042 796.673 L58.5933 796.673 Q61.8398 798.678 63.3994 801.67 Q64.9272 804.662 64.9272 808.991 Q64.9272 814.465 61.8716 817.712 Q58.7843 820.926 53.6281 820.926 Q47.6125 820.926 44.5569 816.916 Q41.5014 812.874 41.5014 804.885 L41.5014 796.673 L40.9285 796.673 Q36.8862 796.673 34.6901 799.346 Q32.4621 801.988 32.4621 806.794 Q32.4621 809.85 33.1941 812.746 Q33.9262 815.643 35.3903 818.316 L29.9795 818.316 Q28.7381 815.102 28.1334 812.078 Q27.4968 809.054 27.4968 806.19 Q27.4968 798.455 31.5072 794.636 Q35.5176 790.816 43.6657 790.816 Z" fill="#000000" fill-rule="nonzero" fill-opacity="1" /><path clip-path="url(#clip880)" d="M18.2347 772.961 L28.3562 772.961 L28.3562 760.898 L32.9077 760.898 L32.9077 772.961 L52.2594 772.961 Q56.6199 772.961 57.8613 771.783 Q59.1026 770.573 59.1026 766.913 L59.1026 760.898 L64.0042 760.898 L64.0042 766.913 Q64.0042 773.693 61.4897 776.271 Q58.9434 778.849 52.2594 778.849 L32.9077 778.849 L32.9077 783.146 L28.3562 783.146 L28.3562 778.849 L18.2347 778.849 L18.2347 772.961 Z" fill="#000000" fill-rule="nonzero" fill-opacity="1" /><path clip-path="url(#clip880)" d="M28.3562 753.195 L28.3562 747.339 L64.0042 747.339 L64.0042 753.195 L28.3562 753.195 M14.479 753.195 L14.479 747.339 L21.895 747.339 L21.895 753.195 L14.479 753.195 Z" fill="#000000" fill-rule="nonzero" fill-opacity="1" /><path clip-path="url(#clip880)" d="M32.4621 721.271 Q32.4621 725.982 36.1542 728.719 Q39.8145 731.456 46.212 731.456 Q52.6095 731.456 56.3017 728.751 Q59.9619 726.014 59.9619 721.271 Q59.9619 716.592 56.2698 713.855 Q52.5777 711.118 46.212 711.118 Q39.8781 711.118 36.186 713.855 Q32.4621 716.592 32.4621 721.271 M27.4968 721.271 Q27.4968 713.632 32.4621 709.272 Q37.4273 704.911 46.212 704.911 Q54.9649 704.911 59.9619 709.272 Q64.9272 713.632 64.9272 721.271 Q64.9272 728.942 59.9619 733.302 Q54.9649 737.631 46.212 737.631 Q37.4273 737.631 32.4621 733.302 Q27.4968 728.942 27.4968 721.271 Z" fill="#000000" fill-rule="nonzero" fill-opacity="1" /><path clip-path="url(#clip880)" d="M42.4881 665.571 L64.0042 665.571 L64.0042 671.428 L42.679 671.428 Q37.6183 671.428 35.1038 673.401 Q32.5894 675.374 32.5894 679.321 Q32.5894 684.064 35.6131 686.801 Q38.6368 689.538 43.8567 689.538 L64.0042 689.538 L64.0042 695.426 L28.3562 695.426 L28.3562 689.538 L33.8944 689.538 Q30.6797 687.437 29.0883 684.605 Q27.4968 681.74 27.4968 678.016 Q27.4968 671.873 31.3163 668.722 Q35.1038 665.571 42.4881 665.571 Z" fill="#000000" fill-rule="nonzero" fill-opacity="1" /><path clip-path="url(#clip880)" d="M18.2347 627.377 L28.3562 627.377 L28.3562 615.314 L32.9077 615.314 L32.9077 627.377 L52.2594 627.377 Q56.6199 627.377 57.8613 626.199 Q59.1026 624.99 59.1026 621.329 L59.1026 615.314 L64.0042 615.314 L64.0042 621.329 Q64.0042 628.109 61.4897 630.687 Q58.9434 633.265 52.2594 633.265 L32.9077 633.265 L32.9077 637.562 L28.3562 637.562 L28.3562 633.265 L18.2347 633.265 L18.2347 627.377 Z" fill="#000000" fill-rule="nonzero" fill-opacity="1" /><path clip-path="url(#clip880)" d="M28.3562 607.611 L28.3562 601.755 L64.0042 601.755 L64.0042 607.611 L28.3562 607.611 M14.479 607.611 L14.479 601.755 L21.895 601.755 L21.895 607.611 L14.479 607.611 Z" fill="#000000" fill-rule="nonzero" fill-opacity="1" /><path clip-path="url(#clip880)" d="M35.1993 561.746 Q31.2526 559.55 29.3747 556.495 Q27.4968 553.439 27.4968 549.302 Q27.4968 543.732 31.4117 540.708 Q35.2948 537.684 42.4881 537.684 L64.0042 537.684 L64.0042 543.572 L42.679 543.572 Q37.5546 543.572 35.072 545.387 Q32.5894 547.201 32.5894 550.925 Q32.5894 555.476 35.6131 558.118 Q38.6368 560.76 43.8567 560.76 L64.0042 560.76 L64.0042 566.648 L42.679 566.648 Q37.5228 566.648 35.072 568.462 Q32.5894 570.277 32.5894 574.064 Q32.5894 578.552 35.6449 581.194 Q38.6686 583.835 43.8567 583.835 L64.0042 583.835 L64.0042 589.724 L28.3562 589.724 L28.3562 583.835 L33.8944 583.835 Q30.616 581.83 29.0564 579.029 Q27.4968 576.228 27.4968 572.377 Q27.4968 568.494 29.4702 565.789 Q31.4436 563.051 35.1993 561.746 Z" fill="#000000" fill-rule="nonzero" fill-opacity="1" /><path clip-path="url(#clip880)" d="M44.7161 495.511 L47.5806 495.511 L47.5806 522.438 Q53.6281 522.056 56.8109 518.81 Q59.9619 515.531 59.9619 509.707 Q59.9619 506.333 59.1344 503.182 Q58.3069 499.999 56.6518 496.88 L62.1899 496.88 Q63.5267 500.031 64.227 503.341 Q64.9272 506.651 64.9272 510.057 Q64.9272 518.587 59.9619 523.584 Q54.9967 528.549 46.5303 528.549 Q37.7774 528.549 32.6531 523.839 Q27.4968 519.096 27.4968 511.075 Q27.4968 503.882 32.1438 499.713 Q36.7589 495.511 44.7161 495.511 M42.9973 501.368 Q38.1912 501.431 35.3266 504.073 Q32.4621 506.683 32.4621 511.012 Q32.4621 515.913 35.2312 518.873 Q38.0002 521.802 43.0292 522.247 L42.9973 501.368 Z" fill="#000000" fill-rule="nonzero" fill-opacity="1" /><path clip-path="url(#clip880)" d="M14.479 465.72 L14.479 452.224 L19.0304 452.224 L19.0304 459.863 L68.0464 459.863 L68.0464 452.224 L72.5979 452.224 L72.5979 465.72 L14.479 465.72 Z" fill="#000000" fill-rule="nonzero" fill-opacity="1" /><path clip-path="url(#clip880)" d="M29.4065 417.022 L34.9447 417.022 Q33.6716 419.505 33.035 422.178 Q32.3984 424.852 32.3984 427.717 Q32.3984 432.077 33.7352 434.273 Q35.072 436.438 37.7456 436.438 Q39.7826 436.438 40.9603 434.878 Q42.1061 433.318 43.1565 428.608 L43.6021 426.603 Q44.9389 420.364 47.3897 417.754 Q49.8086 415.112 54.1691 415.112 Q59.1344 415.112 62.0308 419.059 Q64.9272 422.974 64.9272 429.849 Q64.9272 432.714 64.3543 435.833 Q63.8132 438.92 62.6992 442.358 L56.6518 442.358 Q58.3387 439.111 59.198 435.96 Q60.0256 432.809 60.0256 429.722 Q60.0256 425.584 58.6251 423.356 Q57.1929 421.128 54.6147 421.128 Q52.2276 421.128 50.9545 422.751 Q49.6813 424.343 48.5037 429.785 L48.0262 431.822 Q46.8804 437.265 44.5251 439.684 Q42.138 442.103 38.0002 442.103 Q32.9713 442.103 30.2341 438.538 Q27.4968 434.973 27.4968 428.417 Q27.4968 425.17 27.9743 422.306 Q28.4517 419.441 29.4065 417.022 Z" fill="#000000" fill-rule="nonzero" fill-opacity="1" /><path clip-path="url(#clip880)" d="M14.479 392.1 L72.5979 392.1 L72.5979 405.596 L68.0464 405.596 L68.0464 397.989 L19.0304 397.989 L19.0304 405.596 L14.479 405.596 L14.479 392.1 Z" fill="#000000" fill-rule="nonzero" fill-opacity="1" /><circle clip-path="url(#clip882)" cx="279.759" cy="1364.35" r="14.4" fill="#009af9" fill-rule="evenodd" fill-opacity="1" stroke="#000000" stroke-opacity="1" stroke-width="3.2"/>
<circle clip-path="url(#clip882)" cx="320.833" cy="1338.61" r="14.4" fill="#009af9" fill-rule="evenodd" fill-opacity="1" stroke="#000000" stroke-opacity="1" stroke-width="3.2"/>
<circle clip-path="url(#clip882)" cx="361.906" cy="1288.27" r="14.4" fill="#009af9" fill-rule="evenodd" fill-opacity="1" stroke="#000000" stroke-opacity="1" stroke-width="3.2"/>
<circle clip-path="url(#clip882)" cx="402.98" cy="1286.71" r="14.4" fill="#009af9" fill-rule="evenodd" fill-opacity="1" stroke="#000000" stroke-opacity="1" stroke-width="3.2"/>
<circle clip-path="url(#clip882)" cx="444.054" cy="1253.24" r="14.4" fill="#009af9" fill-rule="evenodd" fill-opacity="1" stroke="#000000" stroke-opacity="1" stroke-width="3.2"/>
<circle clip-path="url(#clip882)" cx="485.128" cy="1218.6" r="14.4" fill="#009af9" fill-rule="evenodd" fill-opacity="1" stroke="#000000" stroke-opacity="1" stroke-width="3.2"/>
<circle clip-path="url(#clip882)" cx="526.202" cy="1203.48" r="14.4" fill="#009af9" fill-rule="evenodd" fill-opacity="1" stroke="#000000" stroke-opacity="1" stroke-width="3.2"/>
<circle clip-path="url(#clip882)" cx="567.276" cy="1175.73" r="14.4" fill="#009af9" fill-rule="evenodd" fill-opacity="1" stroke="#000000" stroke-opacity="1" stroke-width="3.2"/>
<circle clip-path="url(#clip882)" cx="608.35" cy="1154.29" r="14.4" fill="#009af9" fill-rule="evenodd" fill-opacity="1" stroke="#000000" stroke-opacity="1" stroke-width="3.2"/>
<circle clip-path="url(#clip882)" cx="649.423" cy="1135.07" r="14.4" fill="#009af9" fill-rule="evenodd" fill-opacity="1" stroke="#000000" stroke-opacity="1" stroke-width="3.2"/>
<circle clip-path="url(#clip882)" cx="690.497" cy="1077.93" r="14.4" fill="#009af9" fill-rule="evenodd" fill-opacity="1" stroke="#000000" stroke-opacity="1" stroke-width="3.2"/>
<circle clip-path="url(#clip882)" cx="731.571" cy="1060.23" r="14.4" fill="#009af9" fill-rule="evenodd" fill-opacity="1" stroke="#000000" stroke-opacity="1" stroke-width="3.2"/>
<circle clip-path="url(#clip882)" cx="772.645" cy="1052.59" r="14.4" fill="#009af9" fill-rule="evenodd" fill-opacity="1" stroke="#000000" stroke-opacity="1" stroke-width="3.2"/>
<circle clip-path="url(#clip882)" cx="813.719" cy="1003.43" r="14.4" fill="#009af9" fill-rule="evenodd" fill-opacity="1" stroke="#000000" stroke-opacity="1" stroke-width="3.2"/>
<circle clip-path="url(#clip882)" cx="854.793" cy="1009.62" r="14.4" fill="#009af9" fill-rule="evenodd" fill-opacity="1" stroke="#000000" stroke-opacity="1" stroke-width="3.2"/>
<circle clip-path="url(#clip882)" cx="895.866" cy="975.716" r="14.4" fill="#009af9" fill-rule="evenodd" fill-opacity="1" stroke="#000000" stroke-opacity="1" stroke-width="3.2"/>
<circle clip-path="url(#clip882)" cx="936.94" cy="984.252" r="14.4" fill="#009af9" fill-rule="evenodd" fill-opacity="1" stroke="#000000" stroke-opacity="1" stroke-width="3.2"/>
<circle clip-path="url(#clip882)" cx="978.014" cy="912.635" r="14.4" fill="#009af9" fill-rule="evenodd" fill-opacity="1" stroke="#000000" stroke-opacity="1" stroke-width="3.2"/>
<circle clip-path="url(#clip882)" cx="1019.09" cy="774.994" r="14.4" fill="#009af9" fill-rule="evenodd" fill-opacity="1" stroke="#000000" stroke-opacity="1" stroke-width="3.2"/>
<circle clip-path="url(#clip882)" cx="1060.16" cy="882.859" r="14.4" fill="#009af9" fill-rule="evenodd" fill-opacity="1" stroke="#000000" stroke-opacity="1" stroke-width="3.2"/>
<circle clip-path="url(#clip882)" cx="1101.24" cy="904.383" r="14.4" fill="#009af9" fill-rule="evenodd" fill-opacity="1" stroke="#000000" stroke-opacity="1" stroke-width="3.2"/>
<circle clip-path="url(#clip882)" cx="1142.31" cy="881.094" r="14.4" fill="#009af9" fill-rule="evenodd" fill-opacity="1" stroke="#000000" stroke-opacity="1" stroke-width="3.2"/>
<circle clip-path="url(#clip882)" cx="1183.38" cy="859.501" r="14.4" fill="#009af9" fill-rule="evenodd" fill-opacity="1" stroke="#000000" stroke-opacity="1" stroke-width="3.2"/>
<circle clip-path="url(#clip882)" cx="1224.46" cy="825.164" r="14.4" fill="#009af9" fill-rule="evenodd" fill-opacity="1" stroke="#000000" stroke-opacity="1" stroke-width="3.2"/>
<circle clip-path="url(#clip882)" cx="1265.53" cy="791.847" r="14.4" fill="#009af9" fill-rule="evenodd" fill-opacity="1" stroke="#000000" stroke-opacity="1" stroke-width="3.2"/>
<circle clip-path="url(#clip882)" cx="1306.6" cy="782.486" r="14.4" fill="#009af9" fill-rule="evenodd" fill-opacity="1" stroke="#000000" stroke-opacity="1" stroke-width="3.2"/>
<circle clip-path="url(#clip882)" cx="1347.68" cy="744.872" r="14.4" fill="#009af9" fill-rule="evenodd" fill-opacity="1" stroke="#000000" stroke-opacity="1" stroke-width="3.2"/>
<circle clip-path="url(#clip882)" cx="1388.75" cy="635.774" r="14.4" fill="#009af9" fill-rule="evenodd" fill-opacity="1" stroke="#000000" stroke-opacity="1" stroke-width="3.2"/>
<circle clip-path="url(#clip882)" cx="1429.83" cy="637.271" r="14.4" fill="#009af9" fill-rule="evenodd" fill-opacity="1" stroke="#000000" stroke-opacity="1" stroke-width="3.2"/>
<circle clip-path="url(#clip882)" cx="1470.9" cy="662.032" r="14.4" fill="#009af9" fill-rule="evenodd" fill-opacity="1" stroke="#000000" stroke-opacity="1" stroke-width="3.2"/>
<circle clip-path="url(#clip882)" cx="1511.97" cy="646.946" r="14.4" fill="#009af9" fill-rule="evenodd" fill-opacity="1" stroke="#000000" stroke-opacity="1" stroke-width="3.2"/>
<circle clip-path="url(#clip882)" cx="1553.05" cy="623.123" r="14.4" fill="#009af9" fill-rule="evenodd" fill-opacity="1" stroke="#000000" stroke-opacity="1" stroke-width="3.2"/>
<circle clip-path="url(#clip882)" cx="1594.12" cy="560.198" r="14.4" fill="#009af9" fill-rule="evenodd" fill-opacity="1" stroke="#000000" stroke-opacity="1" stroke-width="3.2"/>
<circle clip-path="url(#clip882)" cx="1635.2" cy="555.207" r="14.4" fill="#009af9" fill-rule="evenodd" fill-opacity="1" stroke="#000000" stroke-opacity="1" stroke-width="3.2"/>
<circle clip-path="url(#clip882)" cx="1676.27" cy="518.101" r="14.4" fill="#009af9" fill-rule="evenodd" fill-opacity="1" stroke="#000000" stroke-opacity="1" stroke-width="3.2"/>
<circle clip-path="url(#clip882)" cx="1717.34" cy="490.868" r="14.4" fill="#009af9" fill-rule="evenodd" fill-opacity="1" stroke="#000000" stroke-opacity="1" stroke-width="3.2"/>
<circle clip-path="url(#clip882)" cx="1758.42" cy="495.488" r="14.4" fill="#009af9" fill-rule="evenodd" fill-opacity="1" stroke="#000000" stroke-opacity="1" stroke-width="3.2"/>
<circle clip-path="url(#clip882)" cx="1799.49" cy="413.315" r="14.4" fill="#009af9" fill-rule="evenodd" fill-opacity="1" stroke="#000000" stroke-opacity="1" stroke-width="3.2"/>
<circle clip-path="url(#clip882)" cx="1840.57" cy="229.002" r="14.4" fill="#009af9" fill-rule="evenodd" fill-opacity="1" stroke="#000000" stroke-opacity="1" stroke-width="3.2"/>
<circle clip-path="url(#clip882)" cx="1881.64" cy="350.826" r="14.4" fill="#009af9" fill-rule="evenodd" fill-opacity="1" stroke="#000000" stroke-opacity="1" stroke-width="3.2"/>
<circle clip-path="url(#clip882)" cx="1922.71" cy="382.44" r="14.4" fill="#009af9" fill-rule="evenodd" fill-opacity="1" stroke="#000000" stroke-opacity="1" stroke-width="3.2"/>
<circle clip-path="url(#clip882)" cx="1963.79" cy="377.495" r="14.4" fill="#009af9" fill-rule="evenodd" fill-opacity="1" stroke="#000000" stroke-opacity="1" stroke-width="3.2"/>
<circle clip-path="url(#clip882)" cx="2004.86" cy="301.791" r="14.4" fill="#009af9" fill-rule="evenodd" fill-opacity="1" stroke="#000000" stroke-opacity="1" stroke-width="3.2"/>
<circle clip-path="url(#clip882)" cx="2045.93" cy="185.99" r="14.4" fill="#009af9" fill-rule="evenodd" fill-opacity="1" stroke="#000000" stroke-opacity="1" stroke-width="3.2"/>
<circle clip-path="url(#clip882)" cx="2087.01" cy="307.794" r="14.4" fill="#009af9" fill-rule="evenodd" fill-opacity="1" stroke="#000000" stroke-opacity="1" stroke-width="3.2"/>
<circle clip-path="url(#clip882)" cx="2128.08" cy="233.294" r="14.4" fill="#009af9" fill-rule="evenodd" fill-opacity="1" stroke="#000000" stroke-opacity="1" stroke-width="3.2"/>
<circle clip-path="url(#clip882)" cx="2169.16" cy="111.462" r="14.4" fill="#009af9" fill-rule="evenodd" fill-opacity="1" stroke="#000000" stroke-opacity="1" stroke-width="3.2"/>
<circle clip-path="url(#clip882)" cx="2210.23" cy="86.1857" r="14.4" fill="#009af9" fill-rule="evenodd" fill-opacity="1" stroke="#000000" stroke-opacity="1" stroke-width="3.2"/>
<circle clip-path="url(#clip882)" cx="2251.3" cy="112.578" r="14.4" fill="#009af9" fill-rule="evenodd" fill-opacity="1" stroke="#000000" stroke-opacity="1" stroke-width="3.2"/>
<circle clip-path="url(#clip882)" cx="2292.38" cy="150.4" r="14.4" fill="#009af9" fill-rule="evenodd" fill-opacity="1" stroke="#000000" stroke-opacity="1" stroke-width="3.2"/>
<polyline clip-path="url(#clip882)" style="stroke:#20b2aa; stroke-linecap:round; stroke-linejoin:round; stroke-width:8; stroke-opacity:1; fill:none" stroke-dasharray="4, 8" points="279.759,1384.24 320.833,1358.17 361.906,1332.09 402.98,1306.02 444.054,1279.95 485.128,1253.88 526.202,1227.81 567.276,1201.74 608.35,1175.66 649.423,1149.59 690.497,1123.52 731.571,1097.45 772.645,1071.38 813.719,1045.3 854.793,1019.23 895.866,993.16 936.94,967.089 978.014,941.017 1019.09,914.945 1060.16,888.873 1101.24,862.801 1142.31,836.729 1183.38,810.657 1224.46,784.585 1265.53,758.514 1306.6,732.442 1347.68,706.37 1388.75,680.298 1429.83,654.226 1470.9,628.154 1511.97,602.082 1553.05,576.011 1594.12,549.939 1635.2,523.867 1676.27,497.795 1717.34,471.723 1758.42,445.651 1799.49,419.579 1840.57,393.508 1881.64,367.436 1922.71,341.364 1963.79,315.292 2004.86,289.22 2045.93,263.148 2087.01,237.076 2128.08,211.005 2169.16,184.933 2210.23,158.861 2251.3,132.789 2292.38,106.717 "/>
<path clip-path="url(#clip880)" d="M290.493 222.709 L1319.28 222.709 L1319.28 93.1086 L290.493 93.1086  Z" fill="#ffffff" fill-rule="evenodd" fill-opacity="1"/>
<polyline clip-path="url(#clip880)" style="stroke:#000000; stroke-linecap:round; stroke-linejoin:round; stroke-width:4; stroke-opacity:1; fill:none" points="290.493,222.709 1319.28,222.709 1319.28,93.1086 290.493,93.1086 290.493,222.709 "/>
<polyline clip-path="url(#clip880)" style="stroke:#20b2aa; stroke-linecap:round; stroke-linejoin:round; stroke-width:10; stroke-opacity:1; fill:none" stroke-dasharray="5, 10" points="314.197,157.909 456.422,157.909 "/>
<path clip-path="url(#clip880)" d="M480.126 136.309 L516.671 136.309 L516.671 141.228 L501.335 141.228 L501.335 179.509 L495.462 179.509 L495.462 141.228 L480.126 141.228 L480.126 136.309 Z" fill="#000000" fill-rule="nonzero" fill-opacity="1" /><path clip-path="url(#clip880)" d="M520.259 147.101 L525.583 147.101 L525.583 179.509 L520.259 179.509 L520.259 147.101 M520.259 134.486 L525.583 134.486 L525.583 141.228 L520.259 141.228 L520.259 134.486 Z" fill="#000000" fill-rule="nonzero" fill-opacity="1" /><path clip-path="url(#clip880)" d="M561.954 153.322 Q563.951 149.734 566.729 148.027 Q569.506 146.32 573.268 146.32 Q578.332 146.32 581.08 149.879 Q583.829 153.409 583.829 159.949 L583.829 179.509 L578.476 179.509 L578.476 160.122 Q578.476 155.464 576.827 153.207 Q575.178 150.95 571.792 150.95 Q567.655 150.95 565.253 153.699 Q562.851 156.447 562.851 161.193 L562.851 179.509 L557.498 179.509 L557.498 160.122 Q557.498 155.435 555.849 153.207 Q554.2 150.95 550.756 150.95 Q546.677 150.95 544.275 153.728 Q541.873 156.476 541.873 161.193 L541.873 179.509 L536.52 179.509 L536.52 147.101 L541.873 147.101 L541.873 152.136 Q543.696 149.156 546.243 147.738 Q548.789 146.32 552.29 146.32 Q555.82 146.32 558.28 148.114 Q560.768 149.908 561.954 153.322 Z" fill="#000000" fill-rule="nonzero" fill-opacity="1" /><path clip-path="url(#clip880)" d="M622.168 161.974 L622.168 164.578 L597.689 164.578 Q598.036 170.076 600.988 172.969 Q603.968 175.834 609.263 175.834 Q612.33 175.834 615.195 175.082 Q618.088 174.329 620.924 172.825 L620.924 177.859 Q618.059 179.075 615.05 179.711 Q612.041 180.348 608.945 180.348 Q601.19 180.348 596.647 175.834 Q592.134 171.32 592.134 163.623 Q592.134 155.666 596.416 151.008 Q600.727 146.32 608.019 146.32 Q614.558 146.32 618.349 150.545 Q622.168 154.74 622.168 161.974 M616.844 160.411 Q616.786 156.042 614.385 153.438 Q612.012 150.834 608.077 150.834 Q603.621 150.834 600.93 153.351 Q598.268 155.869 597.863 160.44 L616.844 160.411 Z" fill="#000000" fill-rule="nonzero" fill-opacity="1" /><path clip-path="url(#clip880)" d="M649.251 134.486 L661.52 134.486 L661.52 138.623 L654.575 138.623 L654.575 183.183 L661.52 183.183 L661.52 187.321 L649.251 187.321 L649.251 134.486 Z" fill="#000000" fill-rule="nonzero" fill-opacity="1" /><path clip-path="url(#clip880)" d="M693.522 148.056 L693.522 153.091 Q691.265 151.934 688.834 151.355 Q686.404 150.776 683.8 150.776 Q679.836 150.776 677.839 151.991 Q675.872 153.207 675.872 155.637 Q675.872 157.489 677.289 158.56 Q678.707 159.601 682.99 160.556 L684.812 160.961 Q690.484 162.177 692.856 164.405 Q695.258 166.604 695.258 170.568 Q695.258 175.082 691.67 177.715 Q688.111 180.348 681.861 180.348 Q679.257 180.348 676.421 179.827 Q673.615 179.335 670.49 178.322 L670.49 172.825 Q673.441 174.358 676.306 175.139 Q679.17 175.892 681.977 175.892 Q685.738 175.892 687.764 174.619 Q689.789 173.317 689.789 170.973 Q689.789 168.803 688.314 167.645 Q686.867 166.488 681.919 165.417 L680.067 164.983 Q675.119 163.942 672.92 161.8 Q670.721 159.63 670.721 155.869 Q670.721 151.297 673.962 148.809 Q677.203 146.32 683.163 146.32 Q686.115 146.32 688.719 146.754 Q691.323 147.188 693.522 148.056 Z" fill="#000000" fill-rule="nonzero" fill-opacity="1" /><path clip-path="url(#clip880)" d="M716.178 134.486 L716.178 187.321 L703.91 187.321 L703.91 183.183 L710.825 183.183 L710.825 138.623 L703.91 138.623 L703.91 134.486 L716.178 134.486 Z" fill="#000000" fill-rule="nonzero" fill-opacity="1" /><path clip-path="url(#clip880)" d="M746.386 152.599 L783.481 152.599 L783.481 157.46 L746.386 157.46 L746.386 152.599 M746.386 164.405 L783.481 164.405 L783.481 169.323 L746.386 169.323 L746.386 164.405 Z" fill="#000000" fill-rule="nonzero" fill-opacity="1" /><path clip-path="url(#clip880)" d="M819.968 174.59 L840.367 174.59 L840.367 179.509 L812.937 179.509 L812.937 174.59 Q816.264 171.146 821.993 165.359 Q827.752 159.543 829.227 157.865 Q832.034 154.711 833.133 152.541 Q834.262 150.342 834.262 148.23 Q834.262 144.787 831.831 142.616 Q829.43 140.446 825.552 140.446 Q822.804 140.446 819.737 141.401 Q816.698 142.356 813.226 144.295 L813.226 138.392 Q816.756 136.974 819.823 136.251 Q822.89 135.527 825.437 135.527 Q832.15 135.527 836.143 138.884 Q840.136 142.24 840.136 147.854 Q840.136 150.516 839.123 152.917 Q838.139 155.29 835.506 158.531 Q834.783 159.37 830.905 163.392 Q827.028 167.385 819.968 174.59 Z" fill="#000000" fill-rule="nonzero" fill-opacity="1" /><path clip-path="url(#clip880)" d="M852.636 172.159 L858.741 172.159 L858.741 179.509 L852.636 179.509 L852.636 172.159 Z" fill="#000000" fill-rule="nonzero" fill-opacity="1" /><path clip-path="url(#clip880)" d="M883.972 158.994 Q879.806 158.994 877.404 161.222 Q875.031 163.45 875.031 167.356 Q875.031 171.262 877.404 173.49 Q879.806 175.718 883.972 175.718 Q888.139 175.718 890.541 173.49 Q892.942 171.233 892.942 167.356 Q892.942 163.45 890.541 161.222 Q888.168 158.994 883.972 158.994 M878.127 156.505 Q874.366 155.579 872.254 153.004 Q870.17 150.429 870.17 146.725 Q870.17 141.546 873.845 138.537 Q877.549 135.527 883.972 135.527 Q890.425 135.527 894.1 138.537 Q897.774 141.546 897.774 146.725 Q897.774 150.429 895.662 153.004 Q893.579 155.579 889.846 156.505 Q894.071 157.489 896.414 160.354 Q898.787 163.218 898.787 167.356 Q898.787 173.635 894.939 176.991 Q891.119 180.348 883.972 180.348 Q876.825 180.348 872.977 176.991 Q869.158 173.635 869.158 167.356 Q869.158 163.218 871.53 160.354 Q873.903 157.489 878.127 156.505 M875.986 147.275 Q875.986 150.631 878.07 152.512 Q880.182 154.393 883.972 154.393 Q887.734 154.393 889.846 152.512 Q891.987 150.631 891.987 147.275 Q891.987 143.919 889.846 142.038 Q887.734 140.157 883.972 140.157 Q880.182 140.157 878.07 142.038 Q875.986 143.919 875.986 147.275 Z" fill="#000000" fill-rule="nonzero" fill-opacity="1" /><path clip-path="url(#clip880)" d="M909.348 178.612 L909.348 173.288 Q911.547 174.329 913.804 174.879 Q916.061 175.429 918.231 175.429 Q924.018 175.429 927.057 171.551 Q930.124 167.645 930.558 159.717 Q928.879 162.205 926.304 163.536 Q923.729 164.867 920.604 164.867 Q914.123 164.867 910.332 160.961 Q906.571 157.026 906.571 150.226 Q906.571 143.571 910.506 139.549 Q914.441 135.527 920.98 135.527 Q928.474 135.527 932.41 141.285 Q936.374 147.015 936.374 157.952 Q936.374 168.166 931.513 174.271 Q926.68 180.348 918.492 180.348 Q916.293 180.348 914.036 179.914 Q911.779 179.48 909.348 178.612 M920.98 160.296 Q924.915 160.296 927.201 157.605 Q929.516 154.914 929.516 150.226 Q929.516 145.568 927.201 142.877 Q924.915 140.157 920.98 140.157 Q917.045 140.157 914.73 142.877 Q912.444 145.568 912.444 150.226 Q912.444 154.914 914.73 157.605 Q917.045 160.296 920.98 160.296 Z" fill="#000000" fill-rule="nonzero" fill-opacity="1" /><path clip-path="url(#clip880)" d="M973.845 161.974 L973.845 164.578 L949.365 164.578 Q949.713 170.076 952.664 172.969 Q955.644 175.834 960.939 175.834 Q964.007 175.834 966.871 175.082 Q969.765 174.329 972.6 172.825 L972.6 177.859 Q969.736 179.075 966.726 179.711 Q963.717 180.348 960.621 180.348 Q952.867 180.348 948.324 175.834 Q943.81 171.32 943.81 163.623 Q943.81 155.666 948.092 151.008 Q952.404 146.32 959.695 146.32 Q966.235 146.32 970.025 150.545 Q973.845 154.74 973.845 161.974 M968.52 160.411 Q968.463 156.042 966.061 153.438 Q963.688 150.834 959.753 150.834 Q955.297 150.834 952.606 153.351 Q949.944 155.869 949.539 160.44 L968.52 160.411 Z" fill="#000000" fill-rule="nonzero" fill-opacity="1" /><path clip-path="url(#clip880)" d="M979.892 160.903 L995.488 160.903 L995.488 165.649 L979.892 165.649 L979.892 160.903 Z" fill="#000000" fill-rule="nonzero" fill-opacity="1" /><path clip-path="url(#clip880)" d="M1017.22 140.157 Q1012.7 140.157 1010.42 144.613 Q1008.16 149.04 1008.16 157.952 Q1008.16 166.835 1010.42 171.291 Q1012.7 175.718 1017.22 175.718 Q1021.76 175.718 1024.02 171.291 Q1026.3 166.835 1026.3 157.952 Q1026.3 149.04 1024.02 144.613 Q1021.76 140.157 1017.22 140.157 M1017.22 135.527 Q1024.48 135.527 1028.3 141.285 Q1032.15 147.015 1032.15 157.952 Q1032.15 168.861 1028.3 174.619 Q1024.48 180.348 1017.22 180.348 Q1009.96 180.348 1006.11 174.619 Q1002.29 168.861 1002.29 157.952 Q1002.29 147.015 1006.11 141.285 Q1009.96 135.527 1017.22 135.527 Z" fill="#000000" fill-rule="nonzero" fill-opacity="1" /><path clip-path="url(#clip880)" d="M1047.46 174.59 L1067.85 174.59 L1067.85 179.509 L1040.42 179.509 L1040.42 174.59 Q1043.75 171.146 1049.48 165.359 Q1055.24 159.543 1056.71 157.865 Q1059.52 154.711 1060.62 152.541 Q1061.75 150.342 1061.75 148.23 Q1061.75 144.787 1059.32 142.616 Q1056.92 140.446 1053.04 140.446 Q1050.29 140.446 1047.22 141.401 Q1044.19 142.356 1040.71 144.295 L1040.71 138.392 Q1044.24 136.974 1047.31 136.251 Q1050.38 135.527 1052.92 135.527 Q1059.64 135.527 1063.63 138.884 Q1067.62 142.24 1067.62 147.854 Q1067.62 150.516 1066.61 152.917 Q1065.63 155.29 1062.99 158.531 Q1062.27 159.37 1058.39 163.392 Q1054.52 167.385 1047.46 174.59 Z" fill="#000000" fill-rule="nonzero" fill-opacity="1" /><path clip-path="url(#clip880)" d="M1097.72 134.486 L1109.98 134.486 L1109.98 138.623 L1103.04 138.623 L1103.04 183.183 L1109.98 183.183 L1109.98 187.321 L1097.72 187.321 L1097.72 134.486 Z" fill="#000000" fill-rule="nonzero" fill-opacity="1" /><path clip-path="url(#clip880)" d="M1141.99 148.056 L1141.99 153.091 Q1139.73 151.934 1137.3 151.355 Q1134.87 150.776 1132.26 150.776 Q1128.3 150.776 1126.3 151.991 Q1124.34 153.207 1124.34 155.637 Q1124.34 157.489 1125.75 158.56 Q1127.17 159.601 1131.45 160.556 L1133.28 160.961 Q1138.95 162.177 1141.32 164.405 Q1143.72 166.604 1143.72 170.568 Q1143.72 175.082 1140.13 177.715 Q1136.58 180.348 1130.33 180.348 Q1127.72 180.348 1124.89 179.827 Q1122.08 179.335 1118.95 178.322 L1118.95 172.825 Q1121.91 174.358 1124.77 175.139 Q1127.63 175.892 1130.44 175.892 Q1134.2 175.892 1136.23 174.619 Q1138.25 173.317 1138.25 170.973 Q1138.25 168.803 1136.78 167.645 Q1135.33 166.488 1130.38 165.417 L1128.53 164.983 Q1123.58 163.942 1121.38 161.8 Q1119.19 159.63 1119.19 155.869 Q1119.19 151.297 1122.43 148.809 Q1125.67 146.32 1131.63 146.32 Q1134.58 146.32 1137.18 146.754 Q1139.79 147.188 1141.99 148.056 Z" fill="#000000" fill-rule="nonzero" fill-opacity="1" /><path clip-path="url(#clip880)" d="M1164.64 134.486 L1164.64 187.321 L1152.37 187.321 L1152.37 183.183 L1159.29 183.183 L1159.29 138.623 L1152.37 138.623 L1152.37 134.486 L1164.64 134.486 Z" fill="#000000" fill-rule="nonzero" fill-opacity="1" /><path clip-path="url(#clip880)" d="M1230.12 147.68 L1216.9 160.961 L1230.12 174.185 L1226.68 177.686 L1213.4 164.405 L1200.12 177.686 L1196.7 174.185 L1209.9 160.961 L1196.7 147.68 L1200.12 144.179 L1213.4 157.46 L1226.68 144.179 L1230.12 147.68 Z" fill="#000000" fill-rule="nonzero" fill-opacity="1" /><path clip-path="url(#clip880)" d="M1262.88 136.309 L1270.75 136.309 L1289.9 172.448 L1289.9 136.309 L1295.57 136.309 L1295.57 179.509 L1287.7 179.509 L1268.55 143.369 L1268.55 179.509 L1262.88 179.509 L1262.88 136.309 Z" fill="#000000" fill-rule="nonzero" fill-opacity="1" /></svg>
