<?xml version="1.0" encoding="utf-8"?>
<svg xmlns="http://www.w3.org/2000/svg" xmlns:xlink="http://www.w3.org/1999/xlink" width="600" height="400" viewBox="0 0 2400 1600">
<defs>
  <clipPath id="clip550">
    <rect x="0" y="0" width="2400" height="1600"/>
  </clipPath>
</defs>
<path clip-path="url(#clip550)" d="M0 1600 L2400 1600 L2400 0 L0 0  Z" fill="#ffffff" fill-rule="evenodd" fill-opacity="1"/>
<defs>
  <clipPath id="clip551">
    <rect x="480" y="0" width="1681" height="1600"/>
  </clipPath>
</defs>
<path clip-path="url(#clip550)" d="M391.102 1423.18 L2352.76 1423.18 L2352.76 47.2441 L391.102 47.2441  Z" fill="#ffffff" fill-rule="evenodd" fill-opacity="1"/>
<defs>
  <clipPath id="clip552">
    <rect x="391" y="47" width="1963" height="1377"/>
  </clipPath>
</defs>
<polyline clip-path="url(#clip552)" style="stroke:#000000; stroke-linecap:round; stroke-linejoin:round; stroke-width:2; stroke-opacity:0.1; fill:none" points="446.62,1423.18 446.62,47.2441 "/>
<polyline clip-path="url(#clip552)" style="stroke:#000000; stroke-linecap:round; stroke-linejoin:round; stroke-width:2; stroke-opacity:0.1; fill:none" points="688.725,1423.18 688.725,47.2441 "/>
<polyline clip-path="url(#clip552)" style="stroke:#000000; stroke-linecap:round; stroke-linejoin:round; stroke-width:2; stroke-opacity:0.1; fill:none" points="1008.77,1423.18 1008.77,47.2441 "/>
<polyline clip-path="url(#clip552)" style="stroke:#000000; stroke-linecap:round; stroke-linejoin:round; stroke-width:2; stroke-opacity:0.1; fill:none" points="1250.88,1423.18 1250.88,47.2441 "/>
<polyline clip-path="url(#clip552)" style="stroke:#000000; stroke-linecap:round; stroke-linejoin:round; stroke-width:2; stroke-opacity:0.1; fill:none" points="1492.98,1423.18 1492.98,47.2441 "/>
<polyline clip-path="url(#clip552)" style="stroke:#000000; stroke-linecap:round; stroke-linejoin:round; stroke-width:2; stroke-opacity:0.1; fill:none" points="1813.03,1423.18 1813.03,47.2441 "/>
<polyline clip-path="url(#clip552)" style="stroke:#000000; stroke-linecap:round; stroke-linejoin:round; stroke-width:2; stroke-opacity:0.1; fill:none" points="2055.13,1423.18 2055.13,47.2441 "/>
<polyline clip-path="url(#clip552)" style="stroke:#000000; stroke-linecap:round; stroke-linejoin:round; stroke-width:2; stroke-opacity:0.1; fill:none" points="2297.24,1423.18 2297.24,47.2441 "/>
<polyline clip-path="url(#clip550)" style="stroke:#000000; stroke-linecap:round; stroke-linejoin:round; stroke-width:4; stroke-opacity:1; fill:none" points="391.102,1423.18 2352.76,1423.18 "/>
<polyline clip-path="url(#clip550)" style="stroke:#000000; stroke-linecap:round; stroke-linejoin:round; stroke-width:4; stroke-opacity:1; fill:none" points="446.62,1423.18 446.62,1404.28 "/>
<polyline clip-path="url(#clip550)" style="stroke:#000000; stroke-linecap:round; stroke-linejoin:round; stroke-width:4; stroke-opacity:1; fill:none" points="688.725,1423.18 688.725,1404.28 "/>
<polyline clip-path="url(#clip550)" style="stroke:#000000; stroke-linecap:round; stroke-linejoin:round; stroke-width:4; stroke-opacity:1; fill:none" points="1008.77,1423.18 1008.77,1404.28 "/>
<polyline clip-path="url(#clip550)" style="stroke:#000000; stroke-linecap:round; stroke-linejoin:round; stroke-width:4; stroke-opacity:1; fill:none" points="1250.88,1423.18 1250.88,1404.28 "/>
<polyline clip-path="url(#clip550)" style="stroke:#000000; stroke-linecap:round; stroke-linejoin:round; stroke-width:4; stroke-opacity:1; fill:none" points="1492.98,1423.18 1492.98,1404.28 "/>
<polyline clip-path="url(#clip550)" style="stroke:#000000; stroke-linecap:round; stroke-linejoin:round; stroke-width:4; stroke-opacity:1; fill:none" points="1813.03,1423.18 1813.03,1404.28 "/>
<polyline clip-path="url(#clip550)" style="stroke:#000000; stroke-linecap:round; stroke-linejoin:round; stroke-width:4; stroke-opacity:1; fill:none" points="2055.13,1423.18 2055.13,1404.28 "/>
<polyline clip-path="url(#clip550)" style="stroke:#000000; stroke-linecap:round; stroke-linejoin:round; stroke-width:4; stroke-opacity:1; fill:none" points="2297.24,1423.18 2297.24,1404.28 "/>
<path clip-path="url(#clip550)" d="M421.308 1481.64 L428.947 1481.64 L428.947 1455.28 L420.637 1456.95 L420.637 1452.69 L428.9 1451.02 L433.576 1451.02 L433.576 1481.64 L441.215 1481.64 L441.215 1485.58 L421.308 1485.58 L421.308 1481.64 Z" fill="#000000" fill-rule="nonzero" fill-opacity="1" /><path clip-path="url(#clip550)" d="M460.66 1454.1 Q457.048 1454.1 455.22 1457.66 Q453.414 1461.2 453.414 1468.33 Q453.414 1475.44 455.22 1479.01 Q457.048 1482.55 460.66 1482.55 Q464.294 1482.55 466.099 1479.01 Q467.928 1475.44 467.928 1468.33 Q467.928 1461.2 466.099 1457.66 Q464.294 1454.1 460.66 1454.1 M460.66 1450.39 Q466.47 1450.39 469.525 1455 Q472.604 1459.58 472.604 1468.33 Q472.604 1477.06 469.525 1481.67 Q466.47 1486.25 460.66 1486.25 Q454.849 1486.25 451.771 1481.67 Q448.715 1477.06 448.715 1468.33 Q448.715 1459.58 451.771 1455 Q454.849 1450.39 460.66 1450.39 Z" fill="#000000" fill-rule="nonzero" fill-opacity="1" /><path clip-path="url(#clip550)" d="M667.499 1481.64 L683.818 1481.64 L683.818 1485.58 L661.874 1485.58 L661.874 1481.64 Q664.536 1478.89 669.119 1474.26 Q673.726 1469.61 674.906 1468.27 Q677.151 1465.74 678.031 1464.01 Q678.934 1462.25 678.934 1460.56 Q678.934 1457.8 676.989 1456.07 Q675.068 1454.33 671.966 1454.33 Q669.767 1454.33 667.314 1455.09 Q664.883 1455.86 662.105 1457.41 L662.105 1452.69 Q664.929 1451.55 667.383 1450.97 Q669.837 1450.39 671.874 1450.39 Q677.244 1450.39 680.438 1453.08 Q683.633 1455.77 683.633 1460.26 Q683.633 1462.39 682.823 1464.31 Q682.036 1466.2 679.929 1468.8 Q679.35 1469.47 676.249 1472.69 Q673.147 1475.88 667.499 1481.64 Z" fill="#000000" fill-rule="nonzero" fill-opacity="1" /><path clip-path="url(#clip550)" d="M703.633 1454.1 Q700.022 1454.1 698.193 1457.66 Q696.387 1461.2 696.387 1468.33 Q696.387 1475.44 698.193 1479.01 Q700.022 1482.55 703.633 1482.55 Q707.267 1482.55 709.073 1479.01 Q710.901 1475.44 710.901 1468.33 Q710.901 1461.2 709.073 1457.66 Q707.267 1454.1 703.633 1454.1 M703.633 1450.39 Q709.443 1450.39 712.498 1455 Q715.577 1459.58 715.577 1468.33 Q715.577 1477.06 712.498 1481.67 Q709.443 1486.25 703.633 1486.25 Q697.823 1486.25 694.744 1481.67 Q691.688 1477.06 691.688 1468.33 Q691.688 1459.58 694.744 1455 Q697.823 1450.39 703.633 1450.39 Z" fill="#000000" fill-rule="nonzero" fill-opacity="1" /><path clip-path="url(#clip550)" d="M983.47 1451.02 L1001.83 1451.02 L1001.83 1454.96 L987.753 1454.96 L987.753 1463.43 Q988.771 1463.08 989.79 1462.92 Q990.808 1462.73 991.827 1462.73 Q997.614 1462.73 1000.99 1465.9 Q1004.37 1469.08 1004.37 1474.49 Q1004.37 1480.07 1000.9 1483.17 Q997.429 1486.25 991.109 1486.25 Q988.933 1486.25 986.665 1485.88 Q984.419 1485.51 982.012 1484.77 L982.012 1480.07 Q984.095 1481.2 986.317 1481.76 Q988.54 1482.32 991.017 1482.32 Q995.021 1482.32 997.359 1480.21 Q999.697 1478.1 999.697 1474.49 Q999.697 1470.88 997.359 1468.77 Q995.021 1466.67 991.017 1466.67 Q989.142 1466.67 987.267 1467.08 Q985.415 1467.5 983.47 1468.38 L983.47 1451.02 Z" fill="#000000" fill-rule="nonzero" fill-opacity="1" /><path clip-path="url(#clip550)" d="M1023.59 1454.1 Q1019.97 1454.1 1018.15 1457.66 Q1016.34 1461.2 1016.34 1468.33 Q1016.34 1475.44 1018.15 1479.01 Q1019.97 1482.55 1023.59 1482.55 Q1027.22 1482.55 1029.03 1479.01 Q1030.85 1475.44 1030.85 1468.33 Q1030.85 1461.2 1029.03 1457.66 Q1027.22 1454.1 1023.59 1454.1 M1023.59 1450.39 Q1029.4 1450.39 1032.45 1455 Q1035.53 1459.58 1035.53 1468.33 Q1035.53 1477.06 1032.45 1481.67 Q1029.4 1486.25 1023.59 1486.25 Q1017.78 1486.25 1014.7 1481.67 Q1011.64 1477.06 1011.64 1468.33 Q1011.64 1459.58 1014.7 1455 Q1017.78 1450.39 1023.59 1450.39 Z" fill="#000000" fill-rule="nonzero" fill-opacity="1" /><path clip-path="url(#clip550)" d="M1210.48 1481.64 L1218.12 1481.64 L1218.12 1455.28 L1209.81 1456.95 L1209.81 1452.69 L1218.08 1451.02 L1222.75 1451.02 L1222.75 1481.64 L1230.39 1481.64 L1230.39 1485.58 L1210.48 1485.58 L1210.48 1481.64 Z" fill="#000000" fill-rule="nonzero" fill-opacity="1" /><path clip-path="url(#clip550)" d="M1249.83 1454.1 Q1246.22 1454.1 1244.39 1457.66 Q1242.59 1461.2 1242.59 1468.33 Q1242.59 1475.44 1244.39 1479.01 Q1246.22 1482.55 1249.83 1482.55 Q1253.47 1482.55 1255.27 1479.01 Q1257.1 1475.44 1257.1 1468.33 Q1257.1 1461.2 1255.27 1457.66 Q1253.47 1454.1 1249.83 1454.1 M1249.83 1450.39 Q1255.64 1450.39 1258.7 1455 Q1261.78 1459.58 1261.78 1468.33 Q1261.78 1477.06 1258.7 1481.67 Q1255.64 1486.25 1249.83 1486.25 Q1244.02 1486.25 1240.95 1481.67 Q1237.89 1477.06 1237.89 1468.33 Q1237.89 1459.58 1240.95 1455 Q1244.02 1450.39 1249.83 1450.39 Z" fill="#000000" fill-rule="nonzero" fill-opacity="1" /><path clip-path="url(#clip550)" d="M1280 1454.1 Q1276.39 1454.1 1274.56 1457.66 Q1272.75 1461.2 1272.75 1468.33 Q1272.75 1475.44 1274.56 1479.01 Q1276.39 1482.55 1280 1482.55 Q1283.63 1482.55 1285.44 1479.01 Q1287.26 1475.44 1287.26 1468.33 Q1287.26 1461.2 1285.44 1457.66 Q1283.63 1454.1 1280 1454.1 M1280 1450.39 Q1285.81 1450.39 1288.86 1455 Q1291.94 1459.58 1291.94 1468.33 Q1291.94 1477.06 1288.86 1481.67 Q1285.81 1486.25 1280 1486.25 Q1274.19 1486.25 1271.11 1481.67 Q1268.05 1477.06 1268.05 1468.33 Q1268.05 1459.58 1271.11 1455 Q1274.19 1450.39 1280 1450.39 Z" fill="#000000" fill-rule="nonzero" fill-opacity="1" /><path clip-path="url(#clip550)" d="M1456.67 1481.64 L1472.99 1481.64 L1472.99 1485.58 L1451.05 1485.58 L1451.05 1481.64 Q1453.71 1478.89 1458.29 1474.26 Q1462.9 1469.61 1464.08 1468.27 Q1466.33 1465.74 1467.21 1464.01 Q1468.11 1462.25 1468.11 1460.56 Q1468.11 1457.8 1466.16 1456.07 Q1464.24 1454.33 1461.14 1454.33 Q1458.94 1454.33 1456.49 1455.09 Q1454.06 1455.86 1451.28 1457.41 L1451.28 1452.69 Q1454.1 1451.55 1456.56 1450.97 Q1459.01 1450.39 1461.05 1450.39 Q1466.42 1450.39 1469.61 1453.08 Q1472.81 1455.77 1472.81 1460.26 Q1472.81 1462.39 1472 1464.31 Q1471.21 1466.2 1469.1 1468.8 Q1468.53 1469.47 1465.42 1472.69 Q1462.32 1475.88 1456.67 1481.64 Z" fill="#000000" fill-rule="nonzero" fill-opacity="1" /><path clip-path="url(#clip550)" d="M1492.81 1454.1 Q1489.2 1454.1 1487.37 1457.66 Q1485.56 1461.2 1485.56 1468.33 Q1485.56 1475.44 1487.37 1479.01 Q1489.2 1482.55 1492.81 1482.55 Q1496.44 1482.55 1498.25 1479.01 Q1500.08 1475.44 1500.08 1468.33 Q1500.08 1461.2 1498.25 1457.66 Q1496.44 1454.1 1492.81 1454.1 M1492.81 1450.39 Q1498.62 1450.39 1501.67 1455 Q1504.75 1459.58 1504.75 1468.33 Q1504.75 1477.06 1501.67 1481.67 Q1498.62 1486.25 1492.81 1486.25 Q1487 1486.25 1483.92 1481.67 Q1480.86 1477.06 1480.86 1468.33 Q1480.86 1459.58 1483.92 1455 Q1487 1450.39 1492.81 1450.39 Z" fill="#000000" fill-rule="nonzero" fill-opacity="1" /><path clip-path="url(#clip550)" d="M1522.97 1454.1 Q1519.36 1454.1 1517.53 1457.66 Q1515.72 1461.2 1515.72 1468.33 Q1515.72 1475.44 1517.53 1479.01 Q1519.36 1482.55 1522.97 1482.55 Q1526.6 1482.55 1528.41 1479.01 Q1530.24 1475.44 1530.24 1468.33 Q1530.24 1461.2 1528.41 1457.66 Q1526.6 1454.1 1522.97 1454.1 M1522.97 1450.39 Q1528.78 1450.39 1531.84 1455 Q1534.91 1459.58 1534.91 1468.33 Q1534.91 1477.06 1531.84 1481.67 Q1528.78 1486.25 1522.97 1486.25 Q1517.16 1486.25 1514.08 1481.67 Q1511.03 1477.06 1511.03 1468.33 Q1511.03 1459.58 1514.08 1455 Q1517.16 1450.39 1522.97 1450.39 Z" fill="#000000" fill-rule="nonzero" fill-opacity="1" /><path clip-path="url(#clip550)" d="M1772.65 1451.02 L1791 1451.02 L1791 1454.96 L1776.93 1454.96 L1776.93 1463.43 Q1777.95 1463.08 1778.96 1462.92 Q1779.98 1462.73 1781 1462.73 Q1786.79 1462.73 1790.17 1465.9 Q1793.55 1469.08 1793.55 1474.49 Q1793.55 1480.07 1790.08 1483.17 Q1786.6 1486.25 1780.28 1486.25 Q1778.11 1486.25 1775.84 1485.88 Q1773.59 1485.51 1771.19 1484.77 L1771.19 1480.07 Q1773.27 1481.2 1775.49 1481.76 Q1777.71 1482.32 1780.19 1482.32 Q1784.2 1482.32 1786.53 1480.21 Q1788.87 1478.1 1788.87 1474.49 Q1788.87 1470.88 1786.53 1468.77 Q1784.2 1466.67 1780.19 1466.67 Q1778.32 1466.67 1776.44 1467.08 Q1774.59 1467.5 1772.65 1468.38 L1772.65 1451.02 Z" fill="#000000" fill-rule="nonzero" fill-opacity="1" /><path clip-path="url(#clip550)" d="M1812.76 1454.1 Q1809.15 1454.1 1807.32 1457.66 Q1805.52 1461.2 1805.52 1468.33 Q1805.52 1475.44 1807.32 1479.01 Q1809.15 1482.55 1812.76 1482.55 Q1816.4 1482.55 1818.2 1479.01 Q1820.03 1475.44 1820.03 1468.33 Q1820.03 1461.2 1818.2 1457.66 Q1816.4 1454.1 1812.76 1454.1 M1812.76 1450.39 Q1818.57 1450.39 1821.63 1455 Q1824.71 1459.58 1824.71 1468.33 Q1824.71 1477.06 1821.63 1481.67 Q1818.57 1486.25 1812.76 1486.25 Q1806.95 1486.25 1803.87 1481.67 Q1800.82 1477.06 1800.82 1468.33 Q1800.82 1459.58 1803.87 1455 Q1806.95 1450.39 1812.76 1450.39 Z" fill="#000000" fill-rule="nonzero" fill-opacity="1" /><path clip-path="url(#clip550)" d="M1842.92 1454.1 Q1839.31 1454.1 1837.48 1457.66 Q1835.68 1461.2 1835.68 1468.33 Q1835.68 1475.44 1837.48 1479.01 Q1839.31 1482.55 1842.92 1482.55 Q1846.56 1482.55 1848.36 1479.01 Q1850.19 1475.44 1850.19 1468.33 Q1850.19 1461.2 1848.36 1457.66 Q1846.56 1454.1 1842.92 1454.1 M1842.92 1450.39 Q1848.73 1450.39 1851.79 1455 Q1854.87 1459.58 1854.87 1468.33 Q1854.87 1477.06 1851.79 1481.67 Q1848.73 1486.25 1842.92 1486.25 Q1837.11 1486.25 1834.03 1481.67 Q1830.98 1477.06 1830.98 1468.33 Q1830.98 1459.58 1834.03 1455 Q1837.11 1450.39 1842.92 1450.39 Z" fill="#000000" fill-rule="nonzero" fill-opacity="1" /><path clip-path="url(#clip550)" d="M1999.66 1481.64 L2007.3 1481.64 L2007.3 1455.28 L1998.99 1456.95 L1998.99 1452.69 L2007.25 1451.02 L2011.93 1451.02 L2011.93 1481.64 L2019.57 1481.64 L2019.57 1485.58 L1999.66 1485.58 L1999.66 1481.64 Z" fill="#000000" fill-rule="nonzero" fill-opacity="1" /><path clip-path="url(#clip550)" d="M2039.01 1454.1 Q2035.4 1454.1 2033.57 1457.66 Q2031.76 1461.2 2031.76 1468.33 Q2031.76 1475.44 2033.57 1479.01 Q2035.4 1482.55 2039.01 1482.55 Q2042.64 1482.55 2044.45 1479.01 Q2046.28 1475.44 2046.28 1468.33 Q2046.28 1461.2 2044.45 1457.66 Q2042.64 1454.1 2039.01 1454.1 M2039.01 1450.39 Q2044.82 1450.39 2047.88 1455 Q2050.95 1459.58 2050.95 1468.33 Q2050.95 1477.06 2047.88 1481.67 Q2044.82 1486.25 2039.01 1486.25 Q2033.2 1486.25 2030.12 1481.67 Q2027.07 1477.06 2027.07 1468.33 Q2027.07 1459.58 2030.12 1455 Q2033.2 1450.39 2039.01 1450.39 Z" fill="#000000" fill-rule="nonzero" fill-opacity="1" /><path clip-path="url(#clip550)" d="M2069.17 1454.1 Q2065.56 1454.1 2063.73 1457.66 Q2061.93 1461.2 2061.93 1468.33 Q2061.93 1475.44 2063.73 1479.01 Q2065.56 1482.55 2069.17 1482.55 Q2072.81 1482.55 2074.61 1479.01 Q2076.44 1475.44 2076.44 1468.33 Q2076.44 1461.2 2074.61 1457.66 Q2072.81 1454.1 2069.17 1454.1 M2069.17 1450.39 Q2074.98 1450.39 2078.04 1455 Q2081.12 1459.58 2081.12 1468.33 Q2081.12 1477.06 2078.04 1481.67 Q2074.98 1486.25 2069.17 1486.25 Q2063.36 1486.25 2060.28 1481.67 Q2057.23 1477.06 2057.23 1468.33 Q2057.23 1459.58 2060.28 1455 Q2063.36 1450.39 2069.17 1450.39 Z" fill="#000000" fill-rule="nonzero" fill-opacity="1" /><path clip-path="url(#clip550)" d="M2099.33 1454.1 Q2095.72 1454.1 2093.89 1457.66 Q2092.09 1461.2 2092.09 1468.33 Q2092.09 1475.44 2093.89 1479.01 Q2095.72 1482.55 2099.33 1482.55 Q2102.97 1482.55 2104.77 1479.01 Q2106.6 1475.44 2106.6 1468.33 Q2106.6 1461.2 2104.77 1457.66 Q2102.97 1454.1 2099.33 1454.1 M2099.33 1450.39 Q2105.14 1450.39 2108.2 1455 Q2111.28 1459.58 2111.28 1468.33 Q2111.28 1477.06 2108.2 1481.67 Q2105.14 1486.25 2099.33 1486.25 Q2093.52 1486.25 2090.44 1481.67 Q2087.39 1477.06 2087.39 1468.33 Q2087.39 1459.58 2090.44 1455 Q2093.52 1450.39 2099.33 1450.39 Z" fill="#000000" fill-rule="nonzero" fill-opacity="1" /><path clip-path="url(#clip550)" d="M2245.85 1481.64 L2262.17 1481.64 L2262.17 1485.58 L2240.22 1485.58 L2240.22 1481.64 Q2242.89 1478.89 2247.47 1474.26 Q2252.08 1469.61 2253.26 1468.27 Q2255.5 1465.74 2256.38 1464.01 Q2257.28 1462.25 2257.28 1460.56 Q2257.28 1457.8 2255.34 1456.07 Q2253.42 1454.33 2250.32 1454.33 Q2248.12 1454.33 2245.66 1455.09 Q2243.23 1455.86 2240.46 1457.41 L2240.46 1452.69 Q2243.28 1451.55 2245.73 1450.97 Q2248.19 1450.39 2250.22 1450.39 Q2255.59 1450.39 2258.79 1453.08 Q2261.98 1455.77 2261.98 1460.26 Q2261.98 1462.39 2261.17 1464.31 Q2260.39 1466.2 2258.28 1468.8 Q2257.7 1469.47 2254.6 1472.69 Q2251.5 1475.88 2245.85 1481.64 Z" fill="#000000" fill-rule="nonzero" fill-opacity="1" /><path clip-path="url(#clip550)" d="M2281.98 1454.1 Q2278.37 1454.1 2276.54 1457.66 Q2274.74 1461.2 2274.74 1468.33 Q2274.74 1475.44 2276.54 1479.01 Q2278.37 1482.55 2281.98 1482.55 Q2285.62 1482.55 2287.42 1479.01 Q2289.25 1475.44 2289.25 1468.33 Q2289.25 1461.2 2287.42 1457.66 Q2285.62 1454.1 2281.98 1454.1 M2281.98 1450.39 Q2287.79 1450.39 2290.85 1455 Q2293.93 1459.58 2293.93 1468.33 Q2293.93 1477.06 2290.85 1481.67 Q2287.79 1486.25 2281.98 1486.25 Q2276.17 1486.25 2273.09 1481.67 Q2270.04 1477.06 2270.04 1468.33 Q2270.04 1459.58 2273.09 1455 Q2276.17 1450.39 2281.98 1450.39 Z" fill="#000000" fill-rule="nonzero" fill-opacity="1" /><path clip-path="url(#clip550)" d="M2312.14 1454.1 Q2308.53 1454.1 2306.7 1457.66 Q2304.9 1461.2 2304.9 1468.33 Q2304.9 1475.44 2306.7 1479.01 Q2308.53 1482.55 2312.14 1482.55 Q2315.78 1482.55 2317.58 1479.01 Q2319.41 1475.44 2319.41 1468.33 Q2319.41 1461.2 2317.58 1457.66 Q2315.78 1454.1 2312.14 1454.1 M2312.14 1450.39 Q2317.95 1450.39 2321.01 1455 Q2324.09 1459.58 2324.09 1468.33 Q2324.09 1477.06 2321.01 1481.67 Q2317.95 1486.25 2312.14 1486.25 Q2306.33 1486.25 2303.26 1481.67 Q2300.2 1477.06 2300.2 1468.33 Q2300.2 1459.58 2303.26 1455 Q2306.33 1450.39 2312.14 1450.39 Z" fill="#000000" fill-rule="nonzero" fill-opacity="1" /><path clip-path="url(#clip550)" d="M2342.31 1454.1 Q2338.7 1454.1 2336.87 1457.66 Q2335.06 1461.2 2335.06 1468.33 Q2335.06 1475.44 2336.87 1479.01 Q2338.7 1482.55 2342.31 1482.55 Q2345.94 1482.55 2347.75 1479.01 Q2349.58 1475.44 2349.58 1468.33 Q2349.58 1461.2 2347.75 1457.66 Q2345.94 1454.1 2342.31 1454.1 M2342.31 1450.39 Q2348.12 1450.39 2351.17 1455 Q2354.25 1459.58 2354.25 1468.33 Q2354.25 1477.06 2351.17 1481.67 Q2348.12 1486.25 2342.31 1486.25 Q2336.5 1486.25 2333.42 1481.67 Q2330.36 1477.06 2330.36 1468.33 Q2330.36 1459.58 2333.42 1455 Q2336.5 1450.39 2342.31 1450.39 Z" fill="#000000" fill-rule="nonzero" fill-opacity="1" /><path clip-path="url(#clip550)" d="M924.279 1499.75 L930.709 1499.75 L930.709 1547.27 L924.279 1547.27 L924.279 1499.75 Z" fill="#000000" fill-rule="nonzero" fill-opacity="1" /><path clip-path="url(#clip550)" d="M972.881 1525.76 L972.881 1547.27 L967.025 1547.27 L967.025 1525.95 Q967.025 1520.89 965.052 1518.37 Q963.078 1515.86 959.132 1515.86 Q954.389 1515.86 951.652 1518.88 Q948.915 1521.91 948.915 1527.13 L948.915 1547.27 L943.026 1547.27 L943.026 1511.63 L948.915 1511.63 L948.915 1517.16 Q951.015 1513.95 953.848 1512.36 Q956.713 1510.77 960.437 1510.77 Q966.579 1510.77 969.73 1514.59 Q972.881 1518.37 972.881 1525.76 Z" fill="#000000" fill-rule="nonzero" fill-opacity="1" /><path clip-path="url(#clip550)" d="M984.563 1511.63 L990.419 1511.63 L990.419 1547.27 L984.563 1547.27 L984.563 1511.63 M984.563 1497.75 L990.419 1497.75 L990.419 1505.16 L984.563 1505.16 L984.563 1497.75 Z" fill="#000000" fill-rule="nonzero" fill-opacity="1" /><path clip-path="url(#clip550)" d="M1032.31 1525.76 L1032.31 1547.27 L1026.45 1547.27 L1026.45 1525.95 Q1026.45 1520.89 1024.48 1518.37 Q1022.5 1515.86 1018.56 1515.86 Q1013.81 1515.86 1011.08 1518.88 Q1008.34 1521.91 1008.34 1527.13 L1008.34 1547.27 L1002.45 1547.27 L1002.45 1511.63 L1008.34 1511.63 L1008.34 1517.16 Q1010.44 1513.95 1013.27 1512.36 Q1016.14 1510.77 1019.86 1510.77 Q1026 1510.77 1029.15 1514.59 Q1032.31 1518.37 1032.31 1525.76 Z" fill="#000000" fill-rule="nonzero" fill-opacity="1" /><path clip-path="url(#clip550)" d="M1049.78 1501.5 L1049.78 1511.63 L1061.84 1511.63 L1061.84 1516.18 L1049.78 1516.18 L1049.78 1535.53 Q1049.78 1539.89 1050.96 1541.13 Q1052.17 1542.37 1055.83 1542.37 L1061.84 1542.37 L1061.84 1547.27 L1055.83 1547.27 Q1049.05 1547.27 1046.47 1544.76 Q1043.89 1542.21 1043.89 1535.53 L1043.89 1516.18 L1039.59 1516.18 L1039.59 1511.63 L1043.89 1511.63 L1043.89 1501.5 L1049.78 1501.5 Z" fill="#000000" fill-rule="nonzero" fill-opacity="1" /><path clip-path="url(#clip550)" d="M1069.54 1511.63 L1075.4 1511.63 L1075.4 1547.27 L1069.54 1547.27 L1069.54 1511.63 M1069.54 1497.75 L1075.4 1497.75 L1075.4 1505.16 L1069.54 1505.16 L1069.54 1497.75 Z" fill="#000000" fill-rule="nonzero" fill-opacity="1" /><path clip-path="url(#clip550)" d="M1103.86 1529.35 Q1096.76 1529.35 1094.02 1530.98 Q1091.28 1532.6 1091.28 1536.52 Q1091.28 1539.64 1093.32 1541.48 Q1095.39 1543.3 1098.92 1543.3 Q1103.79 1543.3 1106.72 1539.86 Q1109.68 1536.39 1109.68 1530.66 L1109.68 1529.35 L1103.86 1529.35 M1115.54 1526.94 L1115.54 1547.27 L1109.68 1547.27 L1109.68 1541.86 Q1107.68 1545.11 1104.68 1546.67 Q1101.69 1548.2 1097.36 1548.2 Q1091.89 1548.2 1088.64 1545.14 Q1085.43 1542.05 1085.43 1536.9 Q1085.43 1530.88 1089.44 1527.83 Q1093.48 1524.77 1101.47 1524.77 L1109.68 1524.77 L1109.68 1524.2 Q1109.68 1520.16 1107.01 1517.96 Q1104.37 1515.73 1099.56 1515.73 Q1096.5 1515.73 1093.61 1516.46 Q1090.71 1517.2 1088.04 1518.66 L1088.04 1513.25 Q1091.25 1512.01 1094.28 1511.4 Q1097.3 1510.77 1100.16 1510.77 Q1107.9 1510.77 1111.72 1514.78 Q1115.54 1518.79 1115.54 1526.94 Z" fill="#000000" fill-rule="nonzero" fill-opacity="1" /><path clip-path="url(#clip550)" d="M1127.6 1497.75 L1133.46 1497.75 L1133.46 1547.27 L1127.6 1547.27 L1127.6 1497.75 Z" fill="#000000" fill-rule="nonzero" fill-opacity="1" /><path clip-path="url(#clip550)" d="M1192.02 1529.48 Q1192.02 1523.02 1189.35 1519.36 Q1186.71 1515.67 1182.06 1515.67 Q1177.41 1515.67 1174.74 1519.36 Q1172.1 1523.02 1172.1 1529.48 Q1172.1 1535.94 1174.74 1539.64 Q1177.41 1543.3 1182.06 1543.3 Q1186.71 1543.3 1189.35 1539.64 Q1192.02 1535.94 1192.02 1529.48 M1172.1 1517.04 Q1173.94 1513.85 1176.74 1512.33 Q1179.58 1510.77 1183.49 1510.77 Q1189.98 1510.77 1194.03 1515.92 Q1198.1 1521.08 1198.1 1529.48 Q1198.1 1537.88 1194.03 1543.04 Q1189.98 1548.2 1183.49 1548.2 Q1179.58 1548.2 1176.74 1546.67 Q1173.94 1545.11 1172.1 1541.93 L1172.1 1547.27 L1166.21 1547.27 L1166.21 1497.75 L1172.1 1497.75 L1172.1 1517.04 Z" fill="#000000" fill-rule="nonzero" fill-opacity="1" /><path clip-path="url(#clip550)" d="M1221.62 1515.73 Q1216.91 1515.73 1214.17 1519.42 Q1211.44 1523.08 1211.44 1529.48 Q1211.44 1535.88 1214.14 1539.57 Q1216.88 1543.23 1221.62 1543.23 Q1226.3 1543.23 1229.04 1539.54 Q1231.77 1535.85 1231.77 1529.48 Q1231.77 1523.15 1229.04 1519.46 Q1226.3 1515.73 1221.62 1515.73 M1221.62 1510.77 Q1229.26 1510.77 1233.62 1515.73 Q1237.98 1520.7 1237.98 1529.48 Q1237.98 1538.23 1233.62 1543.23 Q1229.26 1548.2 1221.62 1548.2 Q1213.95 1548.2 1209.59 1543.23 Q1205.26 1538.23 1205.26 1529.48 Q1205.26 1520.7 1209.59 1515.73 Q1213.95 1510.77 1221.62 1510.77 Z" fill="#000000" fill-rule="nonzero" fill-opacity="1" /><path clip-path="url(#clip550)" d="M1277.32 1525.76 L1277.32 1547.27 L1271.46 1547.27 L1271.46 1525.95 Q1271.46 1520.89 1269.49 1518.37 Q1267.52 1515.86 1263.57 1515.86 Q1258.83 1515.86 1256.09 1518.88 Q1253.35 1521.91 1253.35 1527.13 L1253.35 1547.27 L1247.47 1547.27 L1247.47 1511.63 L1253.35 1511.63 L1253.35 1517.16 Q1255.46 1513.95 1258.29 1512.36 Q1261.15 1510.77 1264.88 1510.77 Q1271.02 1510.77 1274.17 1514.59 Q1277.32 1518.37 1277.32 1525.76 Z" fill="#000000" fill-rule="nonzero" fill-opacity="1" /><path clip-path="url(#clip550)" d="M1312.46 1517.04 L1312.46 1497.75 L1318.32 1497.75 L1318.32 1547.27 L1312.46 1547.27 L1312.46 1541.93 Q1310.61 1545.11 1307.78 1546.67 Q1304.98 1548.2 1301.03 1548.2 Q1294.57 1548.2 1290.5 1543.04 Q1286.46 1537.88 1286.46 1529.48 Q1286.46 1521.08 1290.5 1515.92 Q1294.57 1510.77 1301.03 1510.77 Q1304.98 1510.77 1307.78 1512.33 Q1310.61 1513.85 1312.46 1517.04 M1292.5 1529.48 Q1292.5 1535.94 1295.15 1539.64 Q1297.82 1543.3 1302.47 1543.3 Q1307.11 1543.3 1309.79 1539.64 Q1312.46 1535.94 1312.46 1529.48 Q1312.46 1523.02 1309.79 1519.36 Q1307.11 1515.67 1302.47 1515.67 Q1297.82 1515.67 1295.15 1519.36 Q1292.5 1523.02 1292.5 1529.48 Z" fill="#000000" fill-rule="nonzero" fill-opacity="1" /><path clip-path="url(#clip550)" d="M1374.56 1517.04 L1374.56 1497.75 L1380.41 1497.75 L1380.41 1547.27 L1374.56 1547.27 L1374.56 1541.93 Q1372.71 1545.11 1369.88 1546.67 Q1367.08 1548.2 1363.13 1548.2 Q1356.67 1548.2 1352.6 1543.04 Q1348.55 1537.88 1348.55 1529.48 Q1348.55 1521.08 1352.6 1515.92 Q1356.67 1510.77 1363.13 1510.77 Q1367.08 1510.77 1369.88 1512.33 Q1372.71 1513.85 1374.56 1517.04 M1354.6 1529.48 Q1354.6 1535.94 1357.24 1539.64 Q1359.92 1543.3 1364.56 1543.3 Q1369.21 1543.3 1371.88 1539.64 Q1374.56 1535.94 1374.56 1529.48 Q1374.56 1523.02 1371.88 1519.36 Q1369.21 1515.67 1364.56 1515.67 Q1359.92 1515.67 1357.24 1519.36 Q1354.6 1523.02 1354.6 1529.48 Z" fill="#000000" fill-rule="nonzero" fill-opacity="1" /><path clip-path="url(#clip550)" d="M1392.48 1511.63 L1398.33 1511.63 L1398.33 1547.27 L1392.48 1547.27 L1392.48 1511.63 M1392.48 1497.75 L1398.33 1497.75 L1398.33 1505.16 L1392.48 1505.16 L1392.48 1497.75 Z" fill="#000000" fill-rule="nonzero" fill-opacity="1" /><path clip-path="url(#clip550)" d="M1438.34 1518.47 Q1440.54 1514.52 1443.59 1512.64 Q1446.65 1510.77 1450.79 1510.77 Q1456.36 1510.77 1459.38 1514.68 Q1462.4 1518.56 1462.4 1525.76 L1462.4 1547.27 L1456.52 1547.27 L1456.52 1525.95 Q1456.52 1520.82 1454.7 1518.34 Q1452.89 1515.86 1449.16 1515.86 Q1444.61 1515.86 1441.97 1518.88 Q1439.33 1521.91 1439.33 1527.13 L1439.33 1547.27 L1433.44 1547.27 L1433.44 1525.95 Q1433.44 1520.79 1431.63 1518.34 Q1429.81 1515.86 1426.02 1515.86 Q1421.54 1515.86 1418.89 1518.91 Q1416.25 1521.94 1416.25 1527.13 L1416.25 1547.27 L1410.36 1547.27 L1410.36 1511.63 L1416.25 1511.63 L1416.25 1517.16 Q1418.26 1513.89 1421.06 1512.33 Q1423.86 1510.77 1427.71 1510.77 Q1431.59 1510.77 1434.3 1512.74 Q1437.04 1514.71 1438.34 1518.47 Z" fill="#000000" fill-rule="nonzero" fill-opacity="1" /><path clip-path="url(#clip550)" d="M1504.58 1527.99 L1504.58 1530.85 L1477.65 1530.85 Q1478.03 1536.9 1481.28 1540.08 Q1484.56 1543.23 1490.38 1543.23 Q1493.76 1543.23 1496.91 1542.4 Q1500.09 1541.58 1503.21 1539.92 L1503.21 1545.46 Q1500.06 1546.8 1496.75 1547.5 Q1493.44 1548.2 1490.03 1548.2 Q1481.5 1548.2 1476.5 1543.23 Q1471.54 1538.27 1471.54 1529.8 Q1471.54 1521.05 1476.25 1515.92 Q1480.99 1510.77 1489.01 1510.77 Q1496.21 1510.77 1500.38 1515.41 Q1504.58 1520.03 1504.58 1527.99 M1498.72 1526.27 Q1498.66 1521.46 1496.02 1518.6 Q1493.41 1515.73 1489.08 1515.73 Q1484.18 1515.73 1481.21 1518.5 Q1478.29 1521.27 1477.84 1526.3 L1498.72 1526.27 Z" fill="#000000" fill-rule="nonzero" fill-opacity="1" /><path clip-path="url(#clip550)" d="M1543.82 1525.76 L1543.82 1547.27 L1537.97 1547.27 L1537.97 1525.95 Q1537.97 1520.89 1535.99 1518.37 Q1534.02 1515.86 1530.07 1515.86 Q1525.33 1515.86 1522.59 1518.88 Q1519.85 1521.91 1519.85 1527.13 L1519.85 1547.27 L1513.97 1547.27 L1513.97 1511.63 L1519.85 1511.63 L1519.85 1517.16 Q1521.96 1513.95 1524.79 1512.36 Q1527.65 1510.77 1531.38 1510.77 Q1537.52 1510.77 1540.67 1514.59 Q1543.82 1518.37 1543.82 1525.76 Z" fill="#000000" fill-rule="nonzero" fill-opacity="1" /><path clip-path="url(#clip550)" d="M1578.23 1512.68 L1578.23 1518.21 Q1575.75 1516.94 1573.07 1516.3 Q1570.4 1515.67 1567.53 1515.67 Q1563.17 1515.67 1560.98 1517.01 Q1558.81 1518.34 1558.81 1521.02 Q1558.81 1523.05 1560.37 1524.23 Q1561.93 1525.38 1566.64 1526.43 L1568.65 1526.87 Q1574.89 1528.21 1577.5 1530.66 Q1580.14 1533.08 1580.14 1537.44 Q1580.14 1542.4 1576.19 1545.3 Q1572.28 1548.2 1565.4 1548.2 Q1562.54 1548.2 1559.42 1547.62 Q1556.33 1547.08 1552.89 1545.97 L1552.89 1539.92 Q1556.14 1541.61 1559.29 1542.47 Q1562.44 1543.3 1565.53 1543.3 Q1569.67 1543.3 1571.89 1541.9 Q1574.12 1540.46 1574.12 1537.88 Q1574.12 1535.5 1572.5 1534.22 Q1570.91 1532.95 1565.47 1531.77 L1563.43 1531.3 Q1557.99 1530.15 1555.57 1527.79 Q1553.15 1525.41 1553.15 1521.27 Q1553.15 1516.24 1556.71 1513.5 Q1560.28 1510.77 1566.83 1510.77 Q1570.08 1510.77 1572.94 1511.24 Q1575.81 1511.72 1578.23 1512.68 Z" fill="#000000" fill-rule="nonzero" fill-opacity="1" /><path clip-path="url(#clip550)" d="M1589.46 1511.63 L1595.32 1511.63 L1595.32 1547.27 L1589.46 1547.27 L1589.46 1511.63 M1589.46 1497.75 L1595.32 1497.75 L1595.32 1505.16 L1589.46 1505.16 L1589.46 1497.75 Z" fill="#000000" fill-rule="nonzero" fill-opacity="1" /><path clip-path="url(#clip550)" d="M1621.39 1515.73 Q1616.68 1515.73 1613.94 1519.42 Q1611.2 1523.08 1611.2 1529.48 Q1611.2 1535.88 1613.91 1539.57 Q1616.65 1543.23 1621.39 1543.23 Q1626.07 1543.23 1628.8 1539.54 Q1631.54 1535.85 1631.54 1529.48 Q1631.54 1523.15 1628.8 1519.46 Q1626.07 1515.73 1621.39 1515.73 M1621.39 1510.77 Q1629.03 1510.77 1633.39 1515.73 Q1637.75 1520.7 1637.75 1529.48 Q1637.75 1538.23 1633.39 1543.23 Q1629.03 1548.2 1621.39 1548.2 Q1613.72 1548.2 1609.36 1543.23 Q1605.03 1538.23 1605.03 1529.48 Q1605.03 1520.7 1609.36 1515.73 Q1613.72 1510.77 1621.39 1510.77 Z" fill="#000000" fill-rule="nonzero" fill-opacity="1" /><path clip-path="url(#clip550)" d="M1677.09 1525.76 L1677.09 1547.27 L1671.23 1547.27 L1671.23 1525.95 Q1671.23 1520.89 1669.26 1518.37 Q1667.28 1515.86 1663.34 1515.86 Q1658.6 1515.86 1655.86 1518.88 Q1653.12 1521.91 1653.12 1527.13 L1653.12 1547.27 L1647.23 1547.27 L1647.23 1511.63 L1653.12 1511.63 L1653.12 1517.16 Q1655.22 1513.95 1658.05 1512.36 Q1660.92 1510.77 1664.64 1510.77 Q1670.79 1510.77 1673.94 1514.59 Q1677.09 1518.37 1677.09 1525.76 Z" fill="#000000" fill-rule="nonzero" fill-opacity="1" /><path clip-path="url(#clip550)" d="M1710.25 1517.67 L1751.06 1517.67 L1751.06 1523.02 L1710.25 1523.02 L1710.25 1517.67 M1710.25 1530.66 L1751.06 1530.66 L1751.06 1536.07 L1710.25 1536.07 L1710.25 1530.66 Z" fill="#000000" fill-rule="nonzero" fill-opacity="1" /><path clip-path="url(#clip550)" d="M1815.62 1519.09 Q1815.85 1519.32 1815.85 1519.64 Q1815.85 1519.96 1815.11 1520.7 L1799.43 1538.29 Q1805.42 1559.35 1808.7 1559.35 Q1809.7 1559.35 1810.73 1558.58 Q1811.79 1557.84 1812.21 1556.71 Q1812.37 1556.16 1812.53 1555.97 Q1812.69 1555.78 1813.14 1555.78 Q1813.92 1555.78 1813.92 1556.52 Q1813.92 1556.9 1813.56 1557.55 Q1813.21 1558.22 1812.57 1558.96 Q1811.92 1559.74 1810.79 1560.25 Q1809.67 1560.8 1808.31 1560.8 Q1806.64 1560.8 1805.29 1560.41 Q1803.93 1560.03 1803.16 1559.54 Q1802.39 1559.06 1801.68 1558.19 Q1801 1557.35 1800.75 1556.84 Q1800.52 1556.36 1800.13 1555.52 Q1799.36 1553.72 1798.65 1551.72 Q1797.94 1549.72 1797.49 1548.27 Q1797.04 1546.82 1795.66 1542.38 L1780.55 1559.35 Q1779.84 1560.06 1779.49 1560.06 Q1779.2 1560.06 1778.94 1559.8 Q1778.68 1559.58 1778.68 1559.29 Q1778.68 1558.96 1779.43 1558.22 L1794.59 1541.28 Q1794.82 1541.06 1794.95 1540.87 Q1795.08 1540.67 1795.08 1540.61 L1795.11 1540.54 Q1795.11 1540.38 1794.53 1538.32 Q1793.95 1536.26 1792.89 1533.07 Q1791.86 1529.85 1790.89 1527.5 Q1790.28 1525.92 1789.86 1524.96 Q1789.44 1523.99 1788.7 1522.54 Q1787.99 1521.09 1787.25 1520.35 Q1786.51 1519.58 1785.83 1519.58 Q1785.61 1519.58 1785.25 1519.67 Q1784.9 1519.77 1784.32 1520.03 Q1783.77 1520.25 1783.23 1520.9 Q1782.68 1521.51 1782.32 1522.41 Q1782.03 1523.12 1781.49 1523.12 Q1781.13 1523.12 1780.91 1522.96 Q1780.71 1522.8 1780.71 1522.64 L1780.68 1522.48 Q1780.68 1521.9 1781.23 1520.93 Q1781.78 1519.96 1783.13 1519.06 Q1784.48 1518.13 1786.22 1518.13 Q1787.86 1518.13 1789.22 1518.51 Q1790.57 1518.9 1791.31 1519.35 Q1792.08 1519.8 1792.76 1520.64 Q1793.43 1521.44 1793.63 1521.83 Q1793.85 1522.19 1794.21 1522.93 Q1795.3 1525.44 1796.01 1527.6 Q1796.75 1529.72 1798.88 1536.45 L1813.98 1519.64 Q1814.66 1518.84 1815.04 1518.84 Q1815.4 1518.84 1815.62 1519.09 Z" fill="#000000" fill-rule="nonzero" fill-opacity="1" /><polyline clip-path="url(#clip552)" style="stroke:#000000; stroke-linecap:round; stroke-linejoin:round; stroke-width:2; stroke-opacity:0.1; fill:none" points="391.102,1384.24 2352.76,1384.24 "/>
<polyline clip-path="url(#clip552)" style="stroke:#000000; stroke-linecap:round; stroke-linejoin:round; stroke-width:2; stroke-opacity:0.1; fill:none" points="391.102,1124.84 2352.76,1124.84 "/>
<polyline clip-path="url(#clip552)" style="stroke:#000000; stroke-linecap:round; stroke-linejoin:round; stroke-width:2; stroke-opacity:0.1; fill:none" points="391.102,865.441 2352.76,865.441 "/>
<polyline clip-path="url(#clip552)" style="stroke:#000000; stroke-linecap:round; stroke-linejoin:round; stroke-width:2; stroke-opacity:0.1; fill:none" points="391.102,606.042 2352.76,606.042 "/>
<polyline clip-path="url(#clip552)" style="stroke:#000000; stroke-linecap:round; stroke-linejoin:round; stroke-width:2; stroke-opacity:0.1; fill:none" points="391.102,346.643 2352.76,346.643 "/>
<polyline clip-path="url(#clip552)" style="stroke:#000000; stroke-linecap:round; stroke-linejoin:round; stroke-width:2; stroke-opacity:0.1; fill:none" points="391.102,87.244 2352.76,87.244 "/>
<polyline clip-path="url(#clip550)" style="stroke:#000000; stroke-linecap:round; stroke-linejoin:round; stroke-width:4; stroke-opacity:1; fill:none" points="391.102,1423.18 391.102,47.2441 "/>
<polyline clip-path="url(#clip550)" style="stroke:#000000; stroke-linecap:round; stroke-linejoin:round; stroke-width:4; stroke-opacity:1; fill:none" points="391.102,1384.24 409.999,1384.24 "/>
<polyline clip-path="url(#clip550)" style="stroke:#000000; stroke-linecap:round; stroke-linejoin:round; stroke-width:4; stroke-opacity:1; fill:none" points="391.102,1124.84 409.999,1124.84 "/>
<polyline clip-path="url(#clip550)" style="stroke:#000000; stroke-linecap:round; stroke-linejoin:round; stroke-width:4; stroke-opacity:1; fill:none" points="391.102,865.441 409.999,865.441 "/>
<polyline clip-path="url(#clip550)" style="stroke:#000000; stroke-linecap:round; stroke-linejoin:round; stroke-width:4; stroke-opacity:1; fill:none" points="391.102,606.042 409.999,606.042 "/>
<polyline clip-path="url(#clip550)" style="stroke:#000000; stroke-linecap:round; stroke-linejoin:round; stroke-width:4; stroke-opacity:1; fill:none" points="391.102,346.643 409.999,346.643 "/>
<polyline clip-path="url(#clip550)" style="stroke:#000000; stroke-linecap:round; stroke-linejoin:round; stroke-width:4; stroke-opacity:1; fill:none" points="391.102,87.244 409.999,87.244 "/>
<path clip-path="url(#clip550)" d="M267.764 1370.04 Q264.153 1370.04 262.324 1373.6 Q260.519 1377.14 260.519 1384.27 Q260.519 1391.38 262.324 1394.94 Q264.153 1398.49 267.764 1398.49 Q271.399 1398.49 273.204 1394.94 Q275.033 1391.38 275.033 1384.27 Q275.033 1377.14 273.204 1373.6 Q271.399 1370.04 267.764 1370.04 M267.764 1366.33 Q273.574 1366.33 276.63 1370.94 Q279.709 1375.52 279.709 1384.27 Q279.709 1393 276.63 1397.61 Q273.574 1402.19 267.764 1402.19 Q261.954 1402.19 258.875 1397.61 Q255.82 1393 255.82 1384.27 Q255.82 1375.52 258.875 1370.94 Q261.954 1366.33 267.764 1366.33 Z" fill="#000000" fill-rule="nonzero" fill-opacity="1" /><path clip-path="url(#clip550)" d="M287.926 1395.64 L292.81 1395.64 L292.81 1401.52 L287.926 1401.52 L287.926 1395.64 Z" fill="#000000" fill-rule="nonzero" fill-opacity="1" /><path clip-path="url(#clip550)" d="M312.996 1370.04 Q309.384 1370.04 307.556 1373.6 Q305.75 1377.14 305.75 1384.27 Q305.75 1391.38 307.556 1394.94 Q309.384 1398.49 312.996 1398.49 Q316.63 1398.49 318.435 1394.94 Q320.264 1391.38 320.264 1384.27 Q320.264 1377.14 318.435 1373.6 Q316.63 1370.04 312.996 1370.04 M312.996 1366.33 Q318.806 1366.33 321.861 1370.94 Q324.94 1375.52 324.94 1384.27 Q324.94 1393 321.861 1397.61 Q318.806 1402.19 312.996 1402.19 Q307.185 1402.19 304.107 1397.61 Q301.051 1393 301.051 1384.27 Q301.051 1375.52 304.107 1370.94 Q307.185 1366.33 312.996 1366.33 Z" fill="#000000" fill-rule="nonzero" fill-opacity="1" /><path clip-path="url(#clip550)" d="M343.157 1370.04 Q339.546 1370.04 337.718 1373.6 Q335.912 1377.14 335.912 1384.27 Q335.912 1391.38 337.718 1394.94 Q339.546 1398.49 343.157 1398.49 Q346.792 1398.49 348.597 1394.94 Q350.426 1391.38 350.426 1384.27 Q350.426 1377.14 348.597 1373.6 Q346.792 1370.04 343.157 1370.04 M343.157 1366.33 Q348.968 1366.33 352.023 1370.94 Q355.102 1375.52 355.102 1384.27 Q355.102 1393 352.023 1397.61 Q348.968 1402.19 343.157 1402.19 Q337.347 1402.19 334.269 1397.61 Q331.213 1393 331.213 1384.27 Q331.213 1375.52 334.269 1370.94 Q337.347 1366.33 343.157 1366.33 Z" fill="#000000" fill-rule="nonzero" fill-opacity="1" /><path clip-path="url(#clip550)" d="M268.76 1110.64 Q265.149 1110.64 263.32 1114.2 Q261.514 1117.74 261.514 1124.87 Q261.514 1131.98 263.32 1135.55 Q265.149 1139.09 268.76 1139.09 Q272.394 1139.09 274.199 1135.55 Q276.028 1131.98 276.028 1124.87 Q276.028 1117.74 274.199 1114.2 Q272.394 1110.64 268.76 1110.64 M268.76 1106.93 Q274.57 1106.93 277.625 1111.54 Q280.704 1116.12 280.704 1124.87 Q280.704 1133.6 277.625 1138.21 Q274.57 1142.79 268.76 1142.79 Q262.949 1142.79 259.871 1138.21 Q256.815 1133.6 256.815 1124.87 Q256.815 1116.12 259.871 1111.54 Q262.949 1106.93 268.76 1106.93 Z" fill="#000000" fill-rule="nonzero" fill-opacity="1" /><path clip-path="url(#clip550)" d="M288.922 1136.24 L293.806 1136.24 L293.806 1142.12 L288.922 1142.12 L288.922 1136.24 Z" fill="#000000" fill-rule="nonzero" fill-opacity="1" /><path clip-path="url(#clip550)" d="M313.991 1110.64 Q310.38 1110.64 308.551 1114.2 Q306.746 1117.74 306.746 1124.87 Q306.746 1131.98 308.551 1135.55 Q310.38 1139.09 313.991 1139.09 Q317.625 1139.09 319.431 1135.55 Q321.259 1131.98 321.259 1124.87 Q321.259 1117.74 319.431 1114.2 Q317.625 1110.64 313.991 1110.64 M313.991 1106.93 Q319.801 1106.93 322.857 1111.54 Q325.935 1116.12 325.935 1124.87 Q325.935 1133.6 322.857 1138.21 Q319.801 1142.79 313.991 1142.79 Q308.181 1142.79 305.102 1138.21 Q302.046 1133.6 302.046 1124.87 Q302.046 1116.12 305.102 1111.54 Q308.181 1106.93 313.991 1106.93 Z" fill="#000000" fill-rule="nonzero" fill-opacity="1" /><path clip-path="url(#clip550)" d="M334.199 1107.56 L352.555 1107.56 L352.555 1111.49 L338.481 1111.49 L338.481 1119.97 Q339.5 1119.62 340.519 1119.46 Q341.537 1119.27 342.556 1119.27 Q348.343 1119.27 351.722 1122.44 Q355.102 1125.61 355.102 1131.03 Q355.102 1136.61 351.63 1139.71 Q348.157 1142.79 341.838 1142.79 Q339.662 1142.79 337.394 1142.42 Q335.148 1142.05 332.741 1141.31 L332.741 1136.61 Q334.824 1137.74 337.046 1138.3 Q339.269 1138.86 341.745 1138.86 Q345.75 1138.86 348.088 1136.75 Q350.426 1134.64 350.426 1131.03 Q350.426 1127.42 348.088 1125.31 Q345.75 1123.21 341.745 1123.21 Q339.87 1123.21 337.995 1123.62 Q336.144 1124.04 334.199 1124.92 L334.199 1107.56 Z" fill="#000000" fill-rule="nonzero" fill-opacity="1" /><path clip-path="url(#clip550)" d="M267.764 851.239 Q264.153 851.239 262.324 854.804 Q260.519 858.346 260.519 865.475 Q260.519 872.582 262.324 876.147 Q264.153 879.688 267.764 879.688 Q271.399 879.688 273.204 876.147 Q275.033 872.582 275.033 865.475 Q275.033 858.346 273.204 854.804 Q271.399 851.239 267.764 851.239 M267.764 847.536 Q273.574 847.536 276.63 852.142 Q279.709 856.725 279.709 865.475 Q279.709 874.202 276.63 878.809 Q273.574 883.392 267.764 883.392 Q261.954 883.392 258.875 878.809 Q255.82 874.202 255.82 865.475 Q255.82 856.725 258.875 852.142 Q261.954 847.536 267.764 847.536 Z" fill="#000000" fill-rule="nonzero" fill-opacity="1" /><path clip-path="url(#clip550)" d="M287.926 876.841 L292.81 876.841 L292.81 882.721 L287.926 882.721 L287.926 876.841 Z" fill="#000000" fill-rule="nonzero" fill-opacity="1" /><path clip-path="url(#clip550)" d="M303.806 878.785 L311.445 878.785 L311.445 852.42 L303.134 854.086 L303.134 849.827 L311.398 848.161 L316.074 848.161 L316.074 878.785 L323.713 878.785 L323.713 882.721 L303.806 882.721 L303.806 878.785 Z" fill="#000000" fill-rule="nonzero" fill-opacity="1" /><path clip-path="url(#clip550)" d="M343.157 851.239 Q339.546 851.239 337.718 854.804 Q335.912 858.346 335.912 865.475 Q335.912 872.582 337.718 876.147 Q339.546 879.688 343.157 879.688 Q346.792 879.688 348.597 876.147 Q350.426 872.582 350.426 865.475 Q350.426 858.346 348.597 854.804 Q346.792 851.239 343.157 851.239 M343.157 847.536 Q348.968 847.536 352.023 852.142 Q355.102 856.725 355.102 865.475 Q355.102 874.202 352.023 878.809 Q348.968 883.392 343.157 883.392 Q337.347 883.392 334.269 878.809 Q331.213 874.202 331.213 865.475 Q331.213 856.725 334.269 852.142 Q337.347 847.536 343.157 847.536 Z" fill="#000000" fill-rule="nonzero" fill-opacity="1" /><path clip-path="url(#clip550)" d="M268.76 591.84 Q265.149 591.84 263.32 595.405 Q261.514 598.947 261.514 606.076 Q261.514 613.183 263.32 616.748 Q265.149 620.289 268.76 620.289 Q272.394 620.289 274.199 616.748 Q276.028 613.183 276.028 606.076 Q276.028 598.947 274.199 595.405 Q272.394 591.84 268.76 591.84 M268.76 588.137 Q274.57 588.137 277.625 592.743 Q280.704 597.326 280.704 606.076 Q280.704 614.803 277.625 619.41 Q274.57 623.993 268.76 623.993 Q262.949 623.993 259.871 619.41 Q256.815 614.803 256.815 606.076 Q256.815 597.326 259.871 592.743 Q262.949 588.137 268.76 588.137 Z" fill="#000000" fill-rule="nonzero" fill-opacity="1" /><path clip-path="url(#clip550)" d="M288.922 617.442 L293.806 617.442 L293.806 623.322 L288.922 623.322 L288.922 617.442 Z" fill="#000000" fill-rule="nonzero" fill-opacity="1" /><path clip-path="url(#clip550)" d="M304.801 619.387 L312.44 619.387 L312.44 593.021 L304.13 594.688 L304.13 590.428 L312.394 588.762 L317.07 588.762 L317.07 619.387 L324.708 619.387 L324.708 623.322 L304.801 623.322 L304.801 619.387 Z" fill="#000000" fill-rule="nonzero" fill-opacity="1" /><path clip-path="url(#clip550)" d="M334.199 588.762 L352.555 588.762 L352.555 592.697 L338.481 592.697 L338.481 601.169 Q339.5 600.822 340.519 600.66 Q341.537 600.475 342.556 600.475 Q348.343 600.475 351.722 603.646 Q355.102 606.817 355.102 612.234 Q355.102 617.812 351.63 620.914 Q348.157 623.993 341.838 623.993 Q339.662 623.993 337.394 623.623 Q335.148 623.252 332.741 622.512 L332.741 617.812 Q334.824 618.947 337.046 619.502 Q339.269 620.058 341.745 620.058 Q345.75 620.058 348.088 617.951 Q350.426 615.845 350.426 612.234 Q350.426 608.623 348.088 606.516 Q345.75 604.41 341.745 604.41 Q339.87 604.41 337.995 604.826 Q336.144 605.243 334.199 606.123 L334.199 588.762 Z" fill="#000000" fill-rule="nonzero" fill-opacity="1" /><path clip-path="url(#clip550)" d="M267.764 332.442 Q264.153 332.442 262.324 336.006 Q260.519 339.548 260.519 346.678 Q260.519 353.784 262.324 357.349 Q264.153 360.89 267.764 360.89 Q271.399 360.89 273.204 357.349 Q275.033 353.784 275.033 346.678 Q275.033 339.548 273.204 336.006 Q271.399 332.442 267.764 332.442 M267.764 328.738 Q273.574 328.738 276.63 333.344 Q279.709 337.928 279.709 346.678 Q279.709 355.404 276.63 360.011 Q273.574 364.594 267.764 364.594 Q261.954 364.594 258.875 360.011 Q255.82 355.404 255.82 346.678 Q255.82 337.928 258.875 333.344 Q261.954 328.738 267.764 328.738 Z" fill="#000000" fill-rule="nonzero" fill-opacity="1" /><path clip-path="url(#clip550)" d="M287.926 358.043 L292.81 358.043 L292.81 363.923 L287.926 363.923 L287.926 358.043 Z" fill="#000000" fill-rule="nonzero" fill-opacity="1" /><path clip-path="url(#clip550)" d="M307.023 359.988 L323.343 359.988 L323.343 363.923 L301.398 363.923 L301.398 359.988 Q304.06 357.233 308.644 352.603 Q313.25 347.951 314.431 346.608 Q316.676 344.085 317.556 342.349 Q318.458 340.59 318.458 338.9 Q318.458 336.145 316.514 334.409 Q314.593 332.673 311.491 332.673 Q309.292 332.673 306.838 333.437 Q304.408 334.201 301.63 335.752 L301.63 331.03 Q304.454 329.895 306.908 329.317 Q309.361 328.738 311.398 328.738 Q316.769 328.738 319.963 331.423 Q323.157 334.108 323.157 338.599 Q323.157 340.729 322.347 342.65 Q321.56 344.548 319.454 347.141 Q318.875 347.812 315.773 351.029 Q312.671 354.224 307.023 359.988 Z" fill="#000000" fill-rule="nonzero" fill-opacity="1" /><path clip-path="url(#clip550)" d="M343.157 332.442 Q339.546 332.442 337.718 336.006 Q335.912 339.548 335.912 346.678 Q335.912 353.784 337.718 357.349 Q339.546 360.89 343.157 360.89 Q346.792 360.89 348.597 357.349 Q350.426 353.784 350.426 346.678 Q350.426 339.548 348.597 336.006 Q346.792 332.442 343.157 332.442 M343.157 328.738 Q348.968 328.738 352.023 333.344 Q355.102 337.928 355.102 346.678 Q355.102 355.404 352.023 360.011 Q348.968 364.594 343.157 364.594 Q337.347 364.594 334.269 360.011 Q331.213 355.404 331.213 346.678 Q331.213 337.928 334.269 333.344 Q337.347 328.738 343.157 328.738 Z" fill="#000000" fill-rule="nonzero" fill-opacity="1" /><path clip-path="url(#clip550)" d="M268.76 73.0427 Q265.149 73.0427 263.32 76.6075 Q261.514 80.1491 261.514 87.2787 Q261.514 94.3852 263.32 97.95 Q265.149 101.492 268.76 101.492 Q272.394 101.492 274.199 97.95 Q276.028 94.3852 276.028 87.2787 Q276.028 80.1491 274.199 76.6075 Q272.394 73.0427 268.76 73.0427 M268.76 69.339 Q274.57 69.339 277.625 73.9455 Q280.704 78.5288 280.704 87.2787 Q280.704 96.0055 277.625 100.612 Q274.57 105.195 268.76 105.195 Q262.949 105.195 259.871 100.612 Q256.815 96.0055 256.815 87.2787 Q256.815 78.5288 259.871 73.9455 Q262.949 69.339 268.76 69.339 Z" fill="#000000" fill-rule="nonzero" fill-opacity="1" /><path clip-path="url(#clip550)" d="M288.922 98.6444 L293.806 98.6444 L293.806 104.524 L288.922 104.524 L288.922 98.6444 Z" fill="#000000" fill-rule="nonzero" fill-opacity="1" /><path clip-path="url(#clip550)" d="M308.019 100.589 L324.338 100.589 L324.338 104.524 L302.394 104.524 L302.394 100.589 Q305.056 97.8342 309.639 93.2046 Q314.245 88.5519 315.426 87.2093 Q317.671 84.6862 318.551 82.9501 Q319.454 81.1908 319.454 79.501 Q319.454 76.7464 317.509 75.0103 Q315.588 73.2742 312.486 73.2742 Q310.287 73.2742 307.833 74.0381 Q305.403 74.802 302.625 76.3529 L302.625 71.6307 Q305.449 70.4964 307.903 69.9177 Q310.357 69.339 312.394 69.339 Q317.764 69.339 320.958 72.0242 Q324.153 74.7094 324.153 79.2001 Q324.153 81.3297 323.343 83.251 Q322.556 85.1491 320.449 87.7417 Q319.87 88.413 316.769 91.6306 Q313.667 94.825 308.019 100.589 Z" fill="#000000" fill-rule="nonzero" fill-opacity="1" /><path clip-path="url(#clip550)" d="M334.199 69.964 L352.555 69.964 L352.555 73.8992 L338.481 73.8992 L338.481 82.3714 Q339.5 82.0241 340.519 81.8621 Q341.537 81.6769 342.556 81.6769 Q348.343 81.6769 351.722 84.8482 Q355.102 88.0195 355.102 93.4361 Q355.102 99.0148 351.63 102.117 Q348.157 105.195 341.838 105.195 Q339.662 105.195 337.394 104.825 Q335.148 104.455 332.741 103.714 L332.741 99.0148 Q334.824 100.149 337.046 100.705 Q339.269 101.26 341.745 101.26 Q345.75 101.26 348.088 99.1537 Q350.426 97.0472 350.426 93.4361 Q350.426 89.825 348.088 87.7186 Q345.75 85.6121 341.745 85.6121 Q339.87 85.6121 337.995 86.0287 Q336.144 86.4454 334.199 87.325 L334.199 69.964 Z" fill="#000000" fill-rule="nonzero" fill-opacity="1" /><path clip-path="url(#clip550)" d="M126.381 1209.06 L126.381 1179.01 L131.792 1179.01 L131.792 1202.63 L145.86 1202.63 L145.86 1180 L151.271 1180 L151.271 1202.63 L168.49 1202.63 L168.49 1178.44 L173.901 1178.44 L173.901 1209.06 L126.381 1209.06 Z" fill="#000000" fill-rule="nonzero" fill-opacity="1" /><path clip-path="url(#clip550)" d="M143.727 1147.47 Q143.154 1148.46 142.9 1149.63 Q142.613 1150.78 142.613 1152.18 Q142.613 1157.14 145.86 1159.82 Q149.075 1162.46 155.122 1162.46 L173.901 1162.46 L173.901 1168.35 L138.253 1168.35 L138.253 1162.46 L143.791 1162.46 Q140.545 1160.61 138.985 1157.65 Q137.394 1154.69 137.394 1150.46 Q137.394 1149.86 137.489 1149.12 Q137.553 1148.39 137.712 1147.5 L143.727 1147.47 Z" fill="#000000" fill-rule="nonzero" fill-opacity="1" /><path clip-path="url(#clip550)" d="M143.727 1121.82 Q143.154 1122.8 142.9 1123.98 Q142.613 1125.13 142.613 1126.53 Q142.613 1131.49 145.86 1134.16 Q149.075 1136.81 155.122 1136.81 L173.901 1136.81 L173.901 1142.69 L138.253 1142.69 L138.253 1136.81 L143.791 1136.81 Q140.545 1134.96 138.985 1132 Q137.394 1129.04 137.394 1124.81 Q137.394 1124.2 137.489 1123.47 Q137.553 1122.74 137.712 1121.85 L143.727 1121.82 Z" fill="#000000" fill-rule="nonzero" fill-opacity="1" /><path clip-path="url(#clip550)" d="M142.359 1103.29 Q142.359 1108 146.051 1110.74 Q149.711 1113.48 156.109 1113.48 Q162.506 1113.48 166.198 1110.77 Q169.859 1108.03 169.859 1103.29 Q169.859 1098.61 166.167 1095.88 Q162.474 1093.14 156.109 1093.14 Q149.775 1093.14 146.083 1095.88 Q142.359 1098.61 142.359 1103.29 M137.394 1103.29 Q137.394 1095.65 142.359 1091.29 Q147.324 1086.93 156.109 1086.93 Q164.862 1086.93 169.859 1091.29 Q174.824 1095.65 174.824 1103.29 Q174.824 1110.96 169.859 1115.32 Q164.862 1119.65 156.109 1119.65 Q147.324 1119.65 142.359 1115.32 Q137.394 1110.96 137.394 1103.29 Z" fill="#000000" fill-rule="nonzero" fill-opacity="1" /><path clip-path="url(#clip550)" d="M143.727 1056.57 Q143.154 1057.55 142.9 1058.73 Q142.613 1059.88 142.613 1061.28 Q142.613 1066.24 145.86 1068.92 Q149.075 1071.56 155.122 1071.56 L173.901 1071.56 L173.901 1077.45 L138.253 1077.45 L138.253 1071.56 L143.791 1071.56 Q140.545 1069.71 138.985 1066.75 Q137.394 1063.79 137.394 1059.56 Q137.394 1058.95 137.489 1058.22 Q137.553 1057.49 137.712 1056.6 L143.727 1056.57 Z" fill="#000000" fill-rule="nonzero" fill-opacity="1" /><path clip-path="url(#clip550)" d="M144.3 1028.94 L144.3 988.135 L149.647 988.135 L149.647 1028.94 L144.3 1028.94 M157.286 1028.94 L157.286 988.135 L162.697 988.135 L162.697 1028.94 L157.286 1028.94 Z" fill="#000000" fill-rule="nonzero" fill-opacity="1" /><path clip-path="url(#clip550)" d="M136.252 960.508 L134.191 960.508 Q134.191 952.586 129.972 948.495 Q129.972 947.368 130.23 947.175 Q130.487 946.982 131.679 946.982 L168.683 946.982 Q170.648 946.982 171.26 946.016 Q171.872 945.049 171.872 940.83 L171.872 938.737 L173.901 938.737 Q173.708 941.056 173.708 949.429 Q173.708 957.803 173.901 960.09 L171.872 960.09 L171.872 957.996 Q171.872 953.842 171.292 952.843 Q170.68 951.845 168.683 951.845 L134.513 951.845 Q136.252 955.291 136.252 960.508 Z" fill="#000000" fill-rule="nonzero" fill-opacity="1" /><path clip-path="url(#clip550)" d="M156.477 865.999 Q156.864 865.613 157.411 865.613 Q157.959 865.613 158.345 865.999 Q158.732 866.386 158.732 866.933 L158.732 908.221 Q158.732 908.769 158.345 909.155 Q157.959 909.542 157.411 909.542 Q156.864 909.542 156.477 909.155 Q156.091 908.769 156.091 908.221 L156.091 866.933 Q156.091 866.386 156.477 865.999 Z" fill="#000000" fill-rule="nonzero" fill-opacity="1" /><path clip-path="url(#clip550)" d="M146.67 840.425 Q115.415 840.425 90.2118 828.772 Q79.6428 823.803 70.7902 816.848 Q61.9375 809.892 58.0532 805.285 Q54.1689 800.678 54.1689 799.413 Q54.1689 797.607 55.9756 797.516 Q56.8789 797.516 59.1372 799.955 Q89.4891 829.765 146.67 829.675 Q204.031 829.675 233.209 800.678 Q236.371 797.516 237.364 797.516 Q239.171 797.516 239.171 799.413 Q239.171 800.678 235.467 805.104 Q231.764 809.531 223.272 816.396 Q214.781 823.261 204.393 828.23 Q179.19 840.425 146.67 840.425 Z" fill="#000000" fill-rule="nonzero" fill-opacity="1" /><path clip-path="url(#clip550)" d="M139.857 710.266 L78.4406 710.266 Q75.993 710.266 75.993 708.945 Q75.993 707.625 77.9575 707.625 L139.374 707.625 Q141.822 707.625 141.822 708.945 Q141.822 710.266 139.857 710.266 Z" fill="#000000" fill-rule="nonzero" fill-opacity="1" /><path clip-path="url(#clip550)" d="M140.566 668.129 Q141.113 668.129 141.5 668.515 Q141.886 668.902 141.886 669.449 Q141.886 670.383 141.017 670.705 L109.358 682.976 Q109.229 683.04 108.907 683.04 Q108.585 683.04 108.456 682.976 L76.7981 670.705 Q75.9286 670.383 75.9286 669.449 Q75.9286 668.902 76.315 668.515 Q76.7015 668.129 77.249 668.129 Q77.5711 668.129 77.6999 668.193 L108.907 680.335 L140.115 668.193 Q140.244 668.129 140.566 668.129 Z" fill="#000000" fill-rule="nonzero" fill-opacity="1" /><path clip-path="url(#clip550)" d="M100.856 617.682 Q102.788 617.682 106.17 618.422 Q109.551 619.131 111.162 619.711 Q115.445 621.321 119.052 624.541 Q121.049 626.313 122.498 628.245 Q123.915 630.145 124.624 631.562 Q125.3 632.979 125.654 634.654 Q126.041 636.329 126.073 637.102 Q126.138 637.875 126.138 638.97 L135.96 641.482 Q138.505 641.997 138.666 642.255 Q138.794 642.319 138.859 642.48 Q138.923 642.609 138.923 642.738 L138.923 642.867 Q138.923 643.221 138.762 643.414 Q138.601 643.607 138.408 643.639 L138.247 643.639 Q137.796 643.639 131.999 642.126 Q129.036 641.353 125.976 640.677 Q125.654 645.829 123.368 649.018 Q121.081 652.174 116.637 652.174 Q113.899 652.174 105.494 648.986 Q101.468 647.472 99.7931 647.472 Q99.0524 647.472 98.6015 647.633 Q98.1184 647.794 97.9574 648.116 Q97.7641 648.438 97.7319 648.631 Q97.6997 648.792 97.6997 649.114 Q97.6997 651.015 99.5999 652.786 Q101.5 654.557 105.88 655.781 Q106.685 656.039 106.878 656.2 Q107.072 656.361 107.072 656.844 Q107.039 657.649 106.395 657.649 Q106.138 657.649 105.139 657.359 Q104.109 657.069 102.595 656.393 Q101.049 655.684 99.6643 654.718 Q98.2472 653.752 97.2488 652.238 Q96.2505 650.693 96.2505 648.921 Q96.2505 646.506 97.8286 645.024 Q99.3744 643.511 101.661 643.511 Q102.112 643.511 102.627 643.607 Q103.143 643.704 103.432 643.8 Q103.722 643.865 104.27 644.058 Q104.785 644.219 104.882 644.251 Q109.133 645.894 111.903 646.731 Q114.64 647.569 115.445 647.697 Q116.218 647.794 117.152 647.794 Q123.658 647.794 124.527 640.29 L80.9527 629.34 Q80.0509 629.147 79.8577 628.986 Q79.6322 628.825 79.6322 628.342 Q79.6322 627.569 80.3408 627.569 Q80.5662 627.569 81.3392 627.762 L124.656 638.648 Q124.656 637.617 124.624 636.973 Q124.592 636.329 124.302 634.976 Q123.98 633.591 123.4 632.432 Q122.82 631.24 121.661 629.565 Q120.469 627.891 118.795 626.248 Q116.701 624.187 113.191 622.351 Q109.68 620.516 106.782 620.516 Q103.529 620.516 101.178 622.867 Q100.856 623.221 100.663 623.414 Q100.469 623.575 100.147 623.736 Q99.8253 623.865 99.4066 623.865 Q98.3116 623.865 97.2811 622.834 Q96.2505 621.804 96.2505 620.58 Q96.2505 619.485 97.3133 618.583 Q98.3761 617.682 100.856 617.682 Z" fill="#000000" fill-rule="nonzero" fill-opacity="1" /><path clip-path="url(#clip550)" d="M139.857 606.944 L78.4406 606.944 Q75.993 606.944 75.993 605.624 Q75.993 604.303 77.9575 604.303 L139.374 604.303 Q141.822 604.303 141.822 605.624 Q141.822 606.944 139.857 606.944 Z" fill="#000000" fill-rule="nonzero" fill-opacity="1" /><path clip-path="url(#clip550)" d="M105.333 556.423 Q109.165 556.423 112.965 558.194 Q116.766 559.966 119.664 562.864 Q122.53 565.73 124.334 569.66 Q126.138 573.556 126.138 577.55 Q126.138 578.258 125.976 579.708 Q137.86 581.962 138.054 582.027 Q138.73 582.316 139.149 582.896 Q139.567 583.444 139.664 583.83 Q139.761 584.217 139.761 584.474 Q139.761 585.118 139.31 585.762 Q138.891 586.374 137.925 586.374 Q137.699 586.374 136.604 586.052 L125.526 582.542 Q124.302 587.856 120.92 590.915 Q117.506 593.975 112.869 593.975 Q109.906 593.975 106.041 592.622 Q102.176 591.27 99.5677 589.627 Q96.959 587.985 96.959 587.051 Q96.959 586.246 97.6353 586.246 Q97.893 586.246 98.4727 586.761 Q101.468 589.37 105.783 590.819 Q110.067 592.236 112.128 592.236 Q115.735 592.236 118.344 589.466 Q120.92 586.664 121.886 581.415 Q111.774 578.291 107.523 576.423 Q99.0846 572.655 97.0234 567.759 Q96.2505 565.956 96.2505 563.959 Q96.2505 560.352 98.7947 558.387 Q101.307 556.423 105.333 556.423 M106.782 558.291 Q105.075 558.291 103.626 558.903 Q102.176 559.482 101.146 560.964 Q100.083 562.445 100.083 564.603 Q100.083 568.919 104.238 572.526 Q108.392 576.133 114.833 577.679 L121.983 578.999 Q122.241 578.999 122.241 578.13 Q122.305 577.614 122.305 576.938 Q122.305 573.267 120.92 569.788 Q119.535 566.278 117.345 563.798 Q115.155 561.318 112.353 559.805 Q109.551 558.291 106.782 558.291 Z" fill="#000000" fill-rule="nonzero" fill-opacity="1" /><path clip-path="url(#clip550)" d="M108.456 536.448 Q108.585 536.384 108.907 536.384 Q109.229 536.384 109.358 536.448 L141.017 548.719 Q141.886 549.041 141.886 549.942 Q141.886 550.49 141.5 550.876 Q141.113 551.263 140.566 551.263 Q140.244 551.263 140.115 551.198 L108.907 539.089 L77.6999 551.198 Q77.5711 551.263 77.249 551.263 Q76.7015 551.263 76.315 550.876 Q75.9286 550.49 75.9286 549.942 Q75.9286 549.041 76.7981 548.719 L108.456 536.448 Z" fill="#000000" fill-rule="nonzero" fill-opacity="1" /><path clip-path="url(#clip550)" d="M139.857 525.872 L78.4406 525.872 Q75.993 525.872 75.993 524.551 Q75.993 523.231 77.9575 523.231 L139.374 523.231 Q141.822 523.231 141.822 524.551 Q141.822 525.872 139.857 525.872 Z" fill="#000000" fill-rule="nonzero" fill-opacity="1" /><path clip-path="url(#clip550)" d="M75.1858 494.986 L85.4433 496.429 L85.4433 516.222 L84.6092 516.222 Q83.8878 516.222 83.6849 516.155 Q83.4595 516.064 83.0537 515.636 L73.5851 506.348 Q68.5353 501.366 63.9813 501.366 Q61.231 501.366 59.3147 502.989 Q57.3759 504.612 57.3759 507.453 Q57.3759 510.293 58.9766 512.209 Q59.0667 511.849 59.2471 511.488 Q59.4274 511.127 59.8107 510.654 Q60.1714 510.18 60.8252 509.887 Q61.479 509.572 62.3131 509.572 Q63.9137 509.572 64.7704 510.609 Q65.6271 511.623 65.6271 512.908 Q65.6271 513.382 65.4693 513.9 Q65.3114 514.419 64.9733 514.982 Q64.6126 515.523 63.9137 515.884 Q63.1923 516.222 62.2229 516.222 Q59.1569 516.222 57.1956 513.382 Q55.2117 510.541 55.2117 506.303 Q55.2117 501.343 57.6014 498.164 Q59.991 494.986 63.9363 494.986 Q65.2213 494.986 66.3259 495.346 Q67.4081 495.685 68.3324 496.338 Q69.2567 496.97 70.2261 497.984 Q71.1729 498.999 72.1198 500.216 Q73.0441 501.411 74.2164 503.011 Q74.3065 503.147 74.3516 503.214 Q76.0875 505.559 79.672 509.865 L79.672 503.079 Q79.672 498.886 79.4015 498.367 Q79.0859 497.714 75.1858 497.15 L75.1858 494.986 Z" fill="#000000" fill-rule="nonzero" fill-opacity="1" /><path clip-path="url(#clip550)" d="M159.325 748.266 L159.325 443.353 L155.805 443.353 L155.805 748.266  Z" fill="#000000" fill-rule="evenodd" fill-opacity="1"/>
<path clip-path="url(#clip550)" d="M237.574 733.354 Q238.121 733.354 238.508 733.741 Q238.894 734.127 238.894 734.675 Q238.894 735.609 238.025 735.931 L206.366 748.201 Q206.238 748.266 205.915 748.266 Q205.593 748.266 205.465 748.201 L173.806 735.931 Q172.937 735.609 172.937 734.675 Q172.937 734.127 173.323 733.741 Q173.71 733.354 174.257 733.354 Q174.579 733.354 174.708 733.419 L205.915 745.56 L237.123 733.419 Q237.252 733.354 237.574 733.354 Z" fill="#000000" fill-rule="nonzero" fill-opacity="1" /><path clip-path="url(#clip550)" d="M197.864 682.907 Q199.796 682.907 203.178 683.648 Q206.56 684.356 208.17 684.936 Q212.453 686.546 216.06 689.767 Q218.057 691.538 219.506 693.47 Q220.923 695.371 221.632 696.788 Q222.308 698.205 222.663 699.879 Q223.049 701.554 223.081 702.327 Q223.146 703.1 223.146 704.195 L232.968 706.707 Q235.513 707.222 235.674 707.48 Q235.803 707.544 235.867 707.705 Q235.931 707.834 235.931 707.963 L235.931 708.092 Q235.931 708.446 235.77 708.639 Q235.609 708.833 235.416 708.865 L235.255 708.865 Q234.804 708.865 229.007 707.351 Q226.044 706.578 222.985 705.902 Q222.663 711.055 220.376 714.243 Q218.089 717.399 213.645 717.399 Q210.907 717.399 202.502 714.211 Q198.476 712.697 196.801 712.697 Q196.061 712.697 195.61 712.858 Q195.127 713.019 194.966 713.341 Q194.772 713.663 194.74 713.857 Q194.708 714.018 194.708 714.34 Q194.708 716.24 196.608 718.011 Q198.508 719.783 202.888 721.006 Q203.693 721.264 203.887 721.425 Q204.08 721.586 204.08 722.069 Q204.048 722.874 203.403 722.874 Q203.146 722.874 202.147 722.585 Q201.117 722.295 199.603 721.618 Q198.057 720.91 196.672 719.944 Q195.255 718.977 194.257 717.464 Q193.259 715.918 193.259 714.147 Q193.259 711.731 194.837 710.25 Q196.383 708.736 198.669 708.736 Q199.12 708.736 199.635 708.833 Q200.151 708.929 200.44 709.026 Q200.73 709.09 201.278 709.283 Q201.793 709.445 201.89 709.477 Q206.141 711.119 208.911 711.957 Q211.648 712.794 212.453 712.923 Q213.226 713.019 214.16 713.019 Q220.666 713.019 221.535 705.515 L177.961 694.565 Q177.059 694.372 176.866 694.211 Q176.64 694.05 176.64 693.567 Q176.64 692.794 177.349 692.794 Q177.574 692.794 178.347 692.987 L221.664 703.873 Q221.664 702.842 221.632 702.198 Q221.6 701.554 221.31 700.201 Q220.988 698.817 220.408 697.657 Q219.828 696.466 218.669 694.791 Q217.477 693.116 215.803 691.474 Q213.709 689.412 210.199 687.577 Q206.688 685.741 203.79 685.741 Q200.537 685.741 198.186 688.092 Q197.864 688.446 197.671 688.64 Q197.478 688.801 197.156 688.962 Q196.833 689.09 196.415 689.09 Q195.32 689.09 194.289 688.06 Q193.259 687.029 193.259 685.805 Q193.259 684.71 194.321 683.809 Q195.384 682.907 197.864 682.907 Z" fill="#000000" fill-rule="nonzero" fill-opacity="1" /><path clip-path="url(#clip550)" d="M236.865 672.17 L175.449 672.17 Q173.001 672.17 173.001 670.849 Q173.001 669.529 174.966 669.529 L236.382 669.529 Q238.83 669.529 238.83 670.849 Q238.83 672.17 236.865 672.17 Z" fill="#000000" fill-rule="nonzero" fill-opacity="1" /><path clip-path="url(#clip550)" d="M197.864 620.817 Q199.796 620.817 203.178 621.558 Q206.56 622.266 208.17 622.846 Q212.453 624.456 216.06 627.677 Q218.057 629.448 219.506 631.38 Q220.923 633.281 221.632 634.698 Q222.308 636.115 222.663 637.789 Q223.049 639.464 223.081 640.237 Q223.146 641.01 223.146 642.105 L232.968 644.617 Q235.513 645.132 235.674 645.39 Q235.803 645.454 235.867 645.615 Q235.931 645.744 235.931 645.873 L235.931 646.002 Q235.931 646.356 235.77 646.549 Q235.609 646.743 235.416 646.775 L235.255 646.775 Q234.804 646.775 229.007 645.261 Q226.044 644.488 222.985 643.812 Q222.663 648.965 220.376 652.153 Q218.089 655.309 213.645 655.309 Q210.907 655.309 202.502 652.121 Q198.476 650.607 196.801 650.607 Q196.061 650.607 195.61 650.768 Q195.127 650.929 194.966 651.251 Q194.772 651.573 194.74 651.767 Q194.708 651.928 194.708 652.25 Q194.708 654.15 196.608 655.921 Q198.508 657.693 202.888 658.916 Q203.693 659.174 203.887 659.335 Q204.08 659.496 204.08 659.979 Q204.048 660.784 203.403 660.784 Q203.146 660.784 202.147 660.494 Q201.117 660.205 199.603 659.528 Q198.057 658.82 196.672 657.854 Q195.255 656.887 194.257 655.374 Q193.259 653.828 193.259 652.057 Q193.259 649.641 194.837 648.16 Q196.383 646.646 198.669 646.646 Q199.12 646.646 199.635 646.743 Q200.151 646.839 200.44 646.936 Q200.73 647 201.278 647.193 Q201.793 647.354 201.89 647.387 Q206.141 649.029 208.911 649.867 Q211.648 650.704 212.453 650.833 Q213.226 650.929 214.16 650.929 Q220.666 650.929 221.535 643.425 L177.961 632.475 Q177.059 632.282 176.866 632.121 Q176.64 631.96 176.64 631.477 Q176.64 630.704 177.349 630.704 Q177.574 630.704 178.347 630.897 L221.664 641.783 Q221.664 640.752 221.632 640.108 Q221.6 639.464 221.31 638.111 Q220.988 636.727 220.408 635.567 Q219.828 634.376 218.669 632.701 Q217.477 631.026 215.803 629.384 Q213.709 627.322 210.199 625.487 Q206.688 623.651 203.79 623.651 Q200.537 623.651 198.186 626.002 Q197.864 626.356 197.671 626.549 Q197.478 626.711 197.156 626.872 Q196.833 627 196.415 627 Q195.32 627 194.289 625.97 Q193.259 624.939 193.259 623.715 Q193.259 622.62 194.321 621.719 Q195.384 620.817 197.864 620.817 Z" fill="#000000" fill-rule="nonzero" fill-opacity="1" /><path clip-path="url(#clip550)" d="M205.465 603.449 Q205.593 603.385 205.915 603.385 Q206.238 603.385 206.366 603.449 L238.025 615.719 Q238.894 616.041 238.894 616.943 Q238.894 617.491 238.508 617.877 Q238.121 618.264 237.574 618.264 Q237.252 618.264 237.123 618.199 L205.915 606.09 L174.708 618.199 Q174.579 618.264 174.257 618.264 Q173.71 618.264 173.323 617.877 Q172.937 617.491 172.937 616.943 Q172.937 616.041 173.806 615.719 L205.465 603.449 Z" fill="#000000" fill-rule="nonzero" fill-opacity="1" /><path clip-path="url(#clip550)" d="M237.574 577.961 Q238.121 577.961 238.508 578.348 Q238.894 578.734 238.894 579.282 Q238.894 580.216 238.025 580.538 L206.366 592.808 Q206.238 592.872 205.915 592.872 Q205.593 592.872 205.465 592.808 L173.806 580.538 Q172.937 580.216 172.937 579.282 Q172.937 578.734 173.323 578.348 Q173.71 577.961 174.257 577.961 Q174.579 577.961 174.708 578.026 L205.915 590.167 L237.123 578.026 Q237.252 577.961 237.574 577.961 Z" fill="#000000" fill-rule="nonzero" fill-opacity="1" /><path clip-path="url(#clip550)" d="M202.341 529.929 Q206.173 529.929 209.973 531.701 Q213.774 533.472 216.672 536.37 Q219.539 539.237 221.342 543.166 Q223.146 547.063 223.146 551.056 Q223.146 551.765 222.985 553.214 Q234.869 555.468 235.062 555.533 Q235.738 555.823 236.157 556.402 Q236.575 556.95 236.672 557.336 Q236.769 557.723 236.769 557.98 Q236.769 558.625 236.318 559.269 Q235.899 559.881 234.933 559.881 Q234.708 559.881 233.613 559.559 L222.534 556.048 Q221.31 561.362 217.928 564.422 Q214.514 567.481 209.877 567.481 Q206.914 567.481 203.049 566.129 Q199.184 564.776 196.576 563.133 Q193.967 561.491 193.967 560.557 Q193.967 559.752 194.643 559.752 Q194.901 559.752 195.481 560.267 Q198.476 562.876 202.792 564.325 Q207.075 565.742 209.136 565.742 Q212.743 565.742 215.352 562.972 Q217.928 560.17 218.894 554.921 Q208.782 551.797 204.531 549.929 Q196.093 546.161 194.032 541.266 Q193.259 539.462 193.259 537.465 Q193.259 533.858 195.803 531.894 Q198.315 529.929 202.341 529.929 M203.79 531.797 Q202.083 531.797 200.634 532.409 Q199.184 532.989 198.154 534.47 Q197.091 535.952 197.091 538.109 Q197.091 542.425 201.246 546.032 Q205.4 549.639 211.841 551.185 L218.991 552.505 Q219.249 552.505 219.249 551.636 Q219.313 551.121 219.313 550.444 Q219.313 546.773 217.928 543.295 Q216.543 539.784 214.353 537.304 Q212.163 534.824 209.362 533.311 Q206.56 531.797 203.79 531.797 Z" fill="#000000" fill-rule="nonzero" fill-opacity="1" /><path clip-path="url(#clip550)" d="M236.865 520.809 L175.449 520.809 Q173.001 520.809 173.001 519.489 Q173.001 518.168 174.966 518.168 L236.382 518.168 Q238.83 518.168 238.83 519.489 Q238.83 520.809 236.865 520.809 Z" fill="#000000" fill-rule="nonzero" fill-opacity="1" /><path clip-path="url(#clip550)" d="M202.341 470.288 Q206.173 470.288 209.973 472.059 Q213.774 473.83 216.672 476.729 Q219.539 479.595 221.342 483.524 Q223.146 487.421 223.146 491.415 Q223.146 492.123 222.985 493.573 Q234.869 495.827 235.062 495.891 Q235.738 496.181 236.157 496.761 Q236.575 497.308 236.672 497.695 Q236.769 498.081 236.769 498.339 Q236.769 498.983 236.318 499.627 Q235.899 500.239 234.933 500.239 Q234.708 500.239 233.613 499.917 L222.534 496.407 Q221.31 501.721 217.928 504.78 Q214.514 507.84 209.877 507.84 Q206.914 507.84 203.049 506.487 Q199.184 505.134 196.576 503.492 Q193.967 501.849 193.967 500.916 Q193.967 500.11 194.643 500.11 Q194.901 500.11 195.481 500.626 Q198.476 503.234 202.792 504.684 Q207.075 506.101 209.136 506.101 Q212.743 506.101 215.352 503.331 Q217.928 500.529 218.894 495.279 Q208.782 492.156 204.531 490.288 Q196.093 486.519 194.032 481.624 Q193.259 479.821 193.259 477.824 Q193.259 474.217 195.803 472.252 Q198.315 470.288 202.341 470.288 M203.79 472.156 Q202.083 472.156 200.634 472.768 Q199.184 473.347 198.154 474.829 Q197.091 476.31 197.091 478.468 Q197.091 482.784 201.246 486.391 Q205.4 489.998 211.841 491.544 L218.991 492.864 Q219.249 492.864 219.249 491.994 Q219.313 491.479 219.313 490.803 Q219.313 487.131 217.928 483.653 Q216.543 480.143 214.353 477.663 Q212.163 475.183 209.362 473.669 Q206.56 472.156 203.79 472.156 Z" fill="#000000" fill-rule="nonzero" fill-opacity="1" /><path clip-path="url(#clip550)" d="M205.465 450.313 Q205.593 450.249 205.915 450.249 Q206.238 450.249 206.366 450.313 L238.025 462.583 Q238.894 462.905 238.894 463.807 Q238.894 464.355 238.508 464.741 Q238.121 465.128 237.574 465.128 Q237.252 465.128 237.123 465.063 L205.915 452.954 L174.708 465.063 Q174.579 465.128 174.257 465.128 Q173.71 465.128 173.323 464.741 Q172.937 464.355 172.937 463.807 Q172.937 462.905 173.806 462.583 L205.465 450.313 Z" fill="#000000" fill-rule="nonzero" fill-opacity="1" /><path clip-path="url(#clip550)" d="M237.364 429.273 Q236.461 429.273 234.203 426.925 Q203.851 397.115 146.67 397.115 Q89.3085 397.115 60.3115 425.75 Q56.9692 429.273 55.9756 429.273 Q54.1689 429.273 54.1689 427.467 Q54.1689 426.202 57.8726 421.776 Q61.5762 417.259 70.0675 410.484 Q78.5588 403.619 88.9471 398.56 Q114.15 386.365 146.67 386.365 Q177.925 386.365 203.128 398.018 Q213.697 402.986 222.55 409.942 Q231.402 416.898 235.287 421.505 Q239.171 426.112 239.171 427.467 Q239.171 429.273 237.364 429.273 Z" fill="#000000" fill-rule="nonzero" fill-opacity="1" /><path clip-path="url(#clip550)" d="M91.0431 351.194 Q83.2429 351.194 76.9531 348.286 Q74.3154 347.046 72.1061 345.31 Q69.8968 343.574 68.9274 342.425 Q67.958 341.275 67.958 340.959 Q67.958 340.508 68.4089 340.486 Q68.6343 340.486 69.1979 341.094 Q76.7727 348.534 91.0431 348.511 Q105.359 348.511 112.64 341.275 Q113.429 340.486 113.677 340.486 Q114.128 340.486 114.128 340.959 Q114.128 341.275 113.204 342.379 Q112.28 343.484 110.161 345.197 Q108.041 346.911 105.449 348.151 Q99.159 351.194 91.0431 351.194 Z" fill="#000000" fill-rule="nonzero" fill-opacity="1" /><path clip-path="url(#clip550)" d="M53.7085 317.609 L52.2657 317.609 Q52.2657 312.063 49.3124 309.2 Q49.3124 308.411 49.4928 308.276 Q49.6731 308.141 50.5072 308.141 L76.4104 308.141 Q77.7856 308.141 78.2139 307.464 Q78.6423 306.788 78.6423 303.835 L78.6423 302.369 L80.0626 302.369 Q79.9273 303.992 79.9273 309.854 Q79.9273 315.715 80.0626 317.316 L78.6423 317.316 L78.6423 315.851 Q78.6423 312.942 78.2365 312.244 Q77.8082 311.545 76.4104 311.545 L52.4911 311.545 Q53.7085 313.957 53.7085 317.609 Z" fill="#000000" fill-rule="nonzero" fill-opacity="1" /><path clip-path="url(#clip550)" d="M92.3826 323.609 L92.3826 291.064 L89.9186 291.064 L89.9186 323.609  Z" fill="#000000" fill-rule="evenodd" fill-opacity="1"/>
<path clip-path="url(#clip550)" d="M122.069 295.722 Q122.204 295.722 122.723 295.902 L132.687 299.554 Q133.273 299.757 133.386 299.96 Q133.476 300.163 133.476 300.997 L133.476 322.369 Q133.476 322.888 133.454 323.091 Q133.431 323.293 133.318 323.451 Q133.206 323.609 132.958 323.609 Q132.507 323.609 132.304 323.451 Q132.101 323.271 132.078 323.068 Q132.056 322.865 132.056 322.369 Q132.056 321.242 131.988 320.566 Q131.921 319.889 131.83 319.461 Q131.718 319.01 131.402 318.785 Q131.086 318.537 130.816 318.424 Q130.523 318.311 129.869 318.153 L105.07 311.976 Q104.327 311.796 104.214 311.796 Q103.785 311.796 103.673 312.066 Q103.537 312.314 103.47 313.036 L103.38 314.794 Q103.38 315.335 103.357 315.561 Q103.335 315.764 103.222 315.921 Q103.109 316.079 102.861 316.079 Q102.433 316.079 102.23 315.921 Q102.004 315.741 101.982 315.606 Q101.937 315.448 101.937 315.2 L102.072 309.068 L101.937 302.237 Q101.937 301.493 102.5 301.493 Q103.132 301.493 103.267 301.809 Q103.38 302.124 103.38 303.252 Q103.38 305.416 103.605 306.408 Q103.831 307.377 104.214 307.648 Q104.575 307.896 105.544 308.144 L130.478 314.388 Q131.312 314.614 131.537 314.614 Q131.785 314.614 131.875 314.501 Q131.943 314.366 131.988 314.005 Q132.056 313.599 132.056 312.991 L132.056 308.662 Q132.056 307.355 131.853 306.205 Q131.65 305.055 131.357 304.176 Q131.064 303.274 130.523 302.463 Q129.982 301.651 129.508 301.087 Q129.012 300.501 128.246 299.938 Q127.457 299.352 126.916 299.013 Q126.352 298.653 125.45 298.247 Q124.526 297.841 124.008 297.638 Q123.466 297.413 122.542 297.075 Q122.069 296.872 121.933 296.804 Q121.798 296.736 121.685 296.624 Q121.573 296.488 121.573 296.286 Q121.573 296.015 121.731 295.88 Q121.888 295.722 122.069 295.722 Z" fill="#000000" fill-rule="nonzero" fill-opacity="1" /><path clip-path="url(#clip550)" d="M113.677 286.136 Q113.452 286.136 112.888 285.55 Q105.314 278.11 91.0431 278.11 Q76.7276 278.11 69.491 285.257 Q68.6568 286.136 68.4089 286.136 Q67.958 286.136 67.958 285.685 Q67.958 285.369 68.8823 284.265 Q69.8066 283.137 71.9257 281.447 Q74.0449 279.733 76.6375 278.471 Q82.9273 275.427 91.0431 275.427 Q98.8434 275.427 105.133 278.336 Q107.771 279.576 109.98 281.311 Q112.19 283.047 113.159 284.197 Q114.128 285.347 114.128 285.685 Q114.128 286.136 113.677 286.136 Z" fill="#000000" fill-rule="nonzero" fill-opacity="1" /><circle clip-path="url(#clip552)" cx="446.62" cy="1384.24" r="14.4" fill="#009af9" fill-rule="evenodd" fill-opacity="1" stroke="#000000" stroke-opacity="1" stroke-width="3.2"/>
<circle clip-path="url(#clip552)" cx="588.243" cy="1180.17" r="14.4" fill="#009af9" fill-rule="evenodd" fill-opacity="1" stroke="#000000" stroke-opacity="1" stroke-width="3.2"/>
<circle clip-path="url(#clip552)" cx="688.725" cy="1073.87" r="14.4" fill="#009af9" fill-rule="evenodd" fill-opacity="1" stroke="#000000" stroke-opacity="1" stroke-width="3.2"/>
<circle clip-path="url(#clip552)" cx="766.666" cy="964.304" r="14.4" fill="#009af9" fill-rule="evenodd" fill-opacity="1" stroke="#000000" stroke-opacity="1" stroke-width="3.2"/>
<circle clip-path="url(#clip552)" cx="830.348" cy="937.179" r="14.4" fill="#009af9" fill-rule="evenodd" fill-opacity="1" stroke="#000000" stroke-opacity="1" stroke-width="3.2"/>
<circle clip-path="url(#clip552)" cx="884.19" cy="837.862" r="14.4" fill="#009af9" fill-rule="evenodd" fill-opacity="1" stroke="#000000" stroke-opacity="1" stroke-width="3.2"/>
<circle clip-path="url(#clip552)" cx="930.831" cy="826.058" r="14.4" fill="#009af9" fill-rule="evenodd" fill-opacity="1" stroke="#000000" stroke-opacity="1" stroke-width="3.2"/>
<circle clip-path="url(#clip552)" cx="971.97" cy="754.293" r="14.4" fill="#009af9" fill-rule="evenodd" fill-opacity="1" stroke="#000000" stroke-opacity="1" stroke-width="3.2"/>
<circle clip-path="url(#clip552)" cx="1008.77" cy="738.543" r="14.4" fill="#009af9" fill-rule="evenodd" fill-opacity="1" stroke="#000000" stroke-opacity="1" stroke-width="3.2"/>
<circle clip-path="url(#clip552)" cx="1042.06" cy="734.237" r="14.4" fill="#009af9" fill-rule="evenodd" fill-opacity="1" stroke="#000000" stroke-opacity="1" stroke-width="3.2"/>
<circle clip-path="url(#clip552)" cx="1072.45" cy="679.773" r="14.4" fill="#009af9" fill-rule="evenodd" fill-opacity="1" stroke="#000000" stroke-opacity="1" stroke-width="3.2"/>
<circle clip-path="url(#clip552)" cx="1100.41" cy="646.657" r="14.4" fill="#009af9" fill-rule="evenodd" fill-opacity="1" stroke="#000000" stroke-opacity="1" stroke-width="3.2"/>
<circle clip-path="url(#clip552)" cx="1126.3" cy="622.129" r="14.4" fill="#009af9" fill-rule="evenodd" fill-opacity="1" stroke="#000000" stroke-opacity="1" stroke-width="3.2"/>
<circle clip-path="url(#clip552)" cx="1150.39" cy="611.617" r="14.4" fill="#009af9" fill-rule="evenodd" fill-opacity="1" stroke="#000000" stroke-opacity="1" stroke-width="3.2"/>
<circle clip-path="url(#clip552)" cx="1172.94" cy="585.966" r="14.4" fill="#009af9" fill-rule="evenodd" fill-opacity="1" stroke="#000000" stroke-opacity="1" stroke-width="3.2"/>
<circle clip-path="url(#clip552)" cx="1194.11" cy="581.858" r="14.4" fill="#009af9" fill-rule="evenodd" fill-opacity="1" stroke="#000000" stroke-opacity="1" stroke-width="3.2"/>
<circle clip-path="url(#clip552)" cx="1214.08" cy="569.66" r="14.4" fill="#009af9" fill-rule="evenodd" fill-opacity="1" stroke="#000000" stroke-opacity="1" stroke-width="3.2"/>
<circle clip-path="url(#clip552)" cx="1232.96" cy="543.288" r="14.4" fill="#009af9" fill-rule="evenodd" fill-opacity="1" stroke="#000000" stroke-opacity="1" stroke-width="3.2"/>
<circle clip-path="url(#clip552)" cx="1250.88" cy="536.81" r="14.4" fill="#009af9" fill-rule="evenodd" fill-opacity="1" stroke="#000000" stroke-opacity="1" stroke-width="3.2"/>
<circle clip-path="url(#clip552)" cx="1314.56" cy="493.13" r="14.4" fill="#009af9" fill-rule="evenodd" fill-opacity="1" stroke="#000000" stroke-opacity="1" stroke-width="3.2"/>
<circle clip-path="url(#clip552)" cx="1368.4" cy="449.582" r="14.4" fill="#009af9" fill-rule="evenodd" fill-opacity="1" stroke="#000000" stroke-opacity="1" stroke-width="3.2"/>
<circle clip-path="url(#clip552)" cx="1415.04" cy="421.05" r="14.4" fill="#009af9" fill-rule="evenodd" fill-opacity="1" stroke="#000000" stroke-opacity="1" stroke-width="3.2"/>
<circle clip-path="url(#clip552)" cx="1456.18" cy="399.1" r="14.4" fill="#009af9" fill-rule="evenodd" fill-opacity="1" stroke="#000000" stroke-opacity="1" stroke-width="3.2"/>
<circle clip-path="url(#clip552)" cx="1492.98" cy="379.745" r="14.4" fill="#009af9" fill-rule="evenodd" fill-opacity="1" stroke="#000000" stroke-opacity="1" stroke-width="3.2"/>
<circle clip-path="url(#clip552)" cx="1526.27" cy="357.324" r="14.4" fill="#009af9" fill-rule="evenodd" fill-opacity="1" stroke="#000000" stroke-opacity="1" stroke-width="3.2"/>
<circle clip-path="url(#clip552)" cx="1556.66" cy="344.746" r="14.4" fill="#009af9" fill-rule="evenodd" fill-opacity="1" stroke="#000000" stroke-opacity="1" stroke-width="3.2"/>
<circle clip-path="url(#clip552)" cx="1584.62" cy="312.972" r="14.4" fill="#009af9" fill-rule="evenodd" fill-opacity="1" stroke="#000000" stroke-opacity="1" stroke-width="3.2"/>
<circle clip-path="url(#clip552)" cx="1610.51" cy="312.722" r="14.4" fill="#009af9" fill-rule="evenodd" fill-opacity="1" stroke="#000000" stroke-opacity="1" stroke-width="3.2"/>
<circle clip-path="url(#clip552)" cx="1634.6" cy="298.359" r="14.4" fill="#009af9" fill-rule="evenodd" fill-opacity="1" stroke="#000000" stroke-opacity="1" stroke-width="3.2"/>
<circle clip-path="url(#clip552)" cx="1688.45" cy="274.878" r="14.4" fill="#009af9" fill-rule="evenodd" fill-opacity="1" stroke="#000000" stroke-opacity="1" stroke-width="3.2"/>
<circle clip-path="url(#clip552)" cx="1735.09" cy="254.671" r="14.4" fill="#009af9" fill-rule="evenodd" fill-opacity="1" stroke="#000000" stroke-opacity="1" stroke-width="3.2"/>
<circle clip-path="url(#clip552)" cx="1776.23" cy="241.268" r="14.4" fill="#009af9" fill-rule="evenodd" fill-opacity="1" stroke="#000000" stroke-opacity="1" stroke-width="3.2"/>
<circle clip-path="url(#clip552)" cx="1813.03" cy="225.738" r="14.4" fill="#009af9" fill-rule="evenodd" fill-opacity="1" stroke="#000000" stroke-opacity="1" stroke-width="3.2"/>
<circle clip-path="url(#clip552)" cx="1876.71" cy="198.431" r="14.4" fill="#009af9" fill-rule="evenodd" fill-opacity="1" stroke="#000000" stroke-opacity="1" stroke-width="3.2"/>
<circle clip-path="url(#clip552)" cx="1930.55" cy="181.702" r="14.4" fill="#009af9" fill-rule="evenodd" fill-opacity="1" stroke="#000000" stroke-opacity="1" stroke-width="3.2"/>
<circle clip-path="url(#clip552)" cx="1977.19" cy="165.336" r="14.4" fill="#009af9" fill-rule="evenodd" fill-opacity="1" stroke="#000000" stroke-opacity="1" stroke-width="3.2"/>
<circle clip-path="url(#clip552)" cx="2018.33" cy="151.719" r="14.4" fill="#009af9" fill-rule="evenodd" fill-opacity="1" stroke="#000000" stroke-opacity="1" stroke-width="3.2"/>
<circle clip-path="url(#clip552)" cx="2055.13" cy="139.1" r="14.4" fill="#009af9" fill-rule="evenodd" fill-opacity="1" stroke="#000000" stroke-opacity="1" stroke-width="3.2"/>
<circle clip-path="url(#clip552)" cx="2196.75" cy="104.312" r="14.4" fill="#009af9" fill-rule="evenodd" fill-opacity="1" stroke="#000000" stroke-opacity="1" stroke-width="3.2"/>
<circle clip-path="url(#clip552)" cx="2297.24" cy="86.1857" r="14.4" fill="#009af9" fill-rule="evenodd" fill-opacity="1" stroke="#000000" stroke-opacity="1" stroke-width="3.2"/>
</svg>
