<?xml version="1.0" encoding="utf-8"?>
<svg xmlns="http://www.w3.org/2000/svg" xmlns:xlink="http://www.w3.org/1999/xlink" width="600" height="400" viewBox="0 0 2400 1600">
<defs>
  <clipPath id="clip310">
    <rect x="0" y="0" width="2400" height="1600"/>
  </clipPath>
</defs>
<path clip-path="url(#clip310)" d="M0 1600 L2400 1600 L2400 0 L0 0  Z" fill="#ffffff" fill-rule="evenodd" fill-opacity="1"/>
<defs>
  <clipPath id="clip311">
    <rect x="480" y="0" width="1681" height="1600"/>
  </clipPath>
</defs>
<path clip-path="url(#clip310)" d="M387.334 1423.18 L2352.76 1423.18 L2352.76 47.2441 L387.334 47.2441  Z" fill="#ffffff" fill-rule="evenodd" fill-opacity="1"/>
<defs>
  <clipPath id="clip312">
    <rect x="387" y="47" width="1966" height="1377"/>
  </clipPath>
</defs>
<polyline clip-path="url(#clip312)" style="stroke:#000000; stroke-linecap:round; stroke-linejoin:round; stroke-width:2; stroke-opacity:0.1; fill:none" points="-366.006,1423.18 -366.006,47.2441 "/>
<polyline clip-path="url(#clip312)" style="stroke:#000000; stroke-linecap:round; stroke-linejoin:round; stroke-width:2; stroke-opacity:0.1; fill:none" points="-17.6037,1423.18 -17.6037,47.2441 "/>
<polyline clip-path="url(#clip312)" style="stroke:#000000; stroke-linecap:round; stroke-linejoin:round; stroke-width:2; stroke-opacity:0.1; fill:none" points="442.959,1423.18 442.959,47.2441 "/>
<polyline clip-path="url(#clip312)" style="stroke:#000000; stroke-linecap:round; stroke-linejoin:round; stroke-width:2; stroke-opacity:0.1; fill:none" points="791.361,1423.18 791.361,47.2441 "/>
<polyline clip-path="url(#clip312)" style="stroke:#000000; stroke-linecap:round; stroke-linejoin:round; stroke-width:2; stroke-opacity:0.1; fill:none" points="1139.76,1423.18 1139.76,47.2441 "/>
<polyline clip-path="url(#clip312)" style="stroke:#000000; stroke-linecap:round; stroke-linejoin:round; stroke-width:2; stroke-opacity:0.1; fill:none" points="1600.33,1423.18 1600.33,47.2441 "/>
<polyline clip-path="url(#clip312)" style="stroke:#000000; stroke-linecap:round; stroke-linejoin:round; stroke-width:2; stroke-opacity:0.1; fill:none" points="1948.73,1423.18 1948.73,47.2441 "/>
<polyline clip-path="url(#clip312)" style="stroke:#000000; stroke-linecap:round; stroke-linejoin:round; stroke-width:2; stroke-opacity:0.1; fill:none" points="2152.53,1423.18 2152.53,47.2441 "/>
<polyline clip-path="url(#clip312)" style="stroke:#000000; stroke-linecap:round; stroke-linejoin:round; stroke-width:2; stroke-opacity:0.1; fill:none" points="2297.13,1423.18 2297.13,47.2441 "/>
<polyline clip-path="url(#clip310)" style="stroke:#000000; stroke-linecap:round; stroke-linejoin:round; stroke-width:4; stroke-opacity:1; fill:none" points="387.334,1423.18 2352.76,1423.18 "/>
<polyline clip-path="url(#clip310)" style="stroke:#000000; stroke-linecap:round; stroke-linejoin:round; stroke-width:4; stroke-opacity:1; fill:none" points="-366.006,1423.18 -366.006,1404.28 "/>
<polyline clip-path="url(#clip310)" style="stroke:#000000; stroke-linecap:round; stroke-linejoin:round; stroke-width:4; stroke-opacity:1; fill:none" points="-17.6037,1423.18 -17.6037,1404.28 "/>
<polyline clip-path="url(#clip310)" style="stroke:#000000; stroke-linecap:round; stroke-linejoin:round; stroke-width:4; stroke-opacity:1; fill:none" points="442.959,1423.18 442.959,1404.28 "/>
<polyline clip-path="url(#clip310)" style="stroke:#000000; stroke-linecap:round; stroke-linejoin:round; stroke-width:4; stroke-opacity:1; fill:none" points="791.361,1423.18 791.361,1404.28 "/>
<polyline clip-path="url(#clip310)" style="stroke:#000000; stroke-linecap:round; stroke-linejoin:round; stroke-width:4; stroke-opacity:1; fill:none" points="1139.76,1423.18 1139.76,1404.28 "/>
<polyline clip-path="url(#clip310)" style="stroke:#000000; stroke-linecap:round; stroke-linejoin:round; stroke-width:4; stroke-opacity:1; fill:none" points="1600.33,1423.18 1600.33,1404.28 "/>
<polyline clip-path="url(#clip310)" style="stroke:#000000; stroke-linecap:round; stroke-linejoin:round; stroke-width:4; stroke-opacity:1; fill:none" points="1948.73,1423.18 1948.73,1404.28 "/>
<polyline clip-path="url(#clip310)" style="stroke:#000000; stroke-linecap:round; stroke-linejoin:round; stroke-width:4; stroke-opacity:1; fill:none" points="2152.53,1423.18 2152.53,1404.28 "/>
<polyline clip-path="url(#clip310)" style="stroke:#000000; stroke-linecap:round; stroke-linejoin:round; stroke-width:4; stroke-opacity:1; fill:none" points="2297.13,1423.18 2297.13,1404.28 "/>
<path clip-path="url(#clip310)" d="M-391.318 1481.64 L-383.679 1481.64 L-383.679 1455.28 L-391.99 1456.95 L-391.99 1452.69 L-383.726 1451.02 L-379.05 1451.02 L-379.05 1481.64 L-371.411 1481.64 L-371.411 1485.58 L-391.318 1485.58 L-391.318 1481.64 Z" fill="#000000" fill-rule="nonzero" fill-opacity="1" /><path clip-path="url(#clip310)" d="M-351.967 1454.1 Q-355.578 1454.1 -357.406 1457.66 Q-359.212 1461.2 -359.212 1468.33 Q-359.212 1475.44 -357.406 1479.01 Q-355.578 1482.55 -351.967 1482.55 Q-348.332 1482.55 -346.527 1479.01 Q-344.698 1475.44 -344.698 1468.33 Q-344.698 1461.2 -346.527 1457.66 Q-348.332 1454.1 -351.967 1454.1 M-351.967 1450.39 Q-346.156 1450.39 -343.101 1455 Q-340.022 1459.58 -340.022 1468.33 Q-340.022 1477.06 -343.101 1481.67 Q-346.156 1486.25 -351.967 1486.25 Q-357.777 1486.25 -360.855 1481.67 Q-363.911 1477.06 -363.911 1468.33 Q-363.911 1459.58 -360.855 1455 Q-357.777 1450.39 -351.967 1450.39 Z" fill="#000000" fill-rule="nonzero" fill-opacity="1" /><path clip-path="url(#clip310)" d="M-38.8304 1481.64 L-22.511 1481.64 L-22.511 1485.58 L-44.4554 1485.58 L-44.4554 1481.64 Q-41.7933 1478.89 -37.21 1474.26 Q-32.6036 1469.61 -31.423 1468.27 Q-29.1777 1465.74 -28.298 1464.01 Q-27.3953 1462.25 -27.3953 1460.56 Q-27.3953 1457.8 -29.3397 1456.07 Q-31.261 1454.33 -34.3628 1454.33 Q-36.5619 1454.33 -39.0156 1455.09 Q-41.4461 1455.86 -44.2239 1457.41 L-44.2239 1452.69 Q-41.3998 1451.55 -38.9461 1450.97 Q-36.4925 1450.39 -34.4554 1450.39 Q-29.0851 1450.39 -25.8907 1453.08 Q-22.6962 1455.77 -22.6962 1460.26 Q-22.6962 1462.39 -23.5064 1464.31 Q-24.2934 1466.2 -26.3999 1468.8 Q-26.9786 1469.47 -30.0804 1472.69 Q-33.1823 1475.88 -38.8304 1481.64 Z" fill="#000000" fill-rule="nonzero" fill-opacity="1" /><path clip-path="url(#clip310)" d="M-2.69634 1454.1 Q-6.30743 1454.1 -8.13612 1457.66 Q-9.94167 1461.2 -9.94167 1468.33 Q-9.94167 1475.44 -8.13612 1479.01 Q-6.30743 1482.55 -2.69634 1482.55 Q0.937905 1482.55 2.74345 1479.01 Q4.57214 1475.44 4.57214 1468.33 Q4.57214 1461.2 2.74345 1457.66 Q0.937905 1454.1 -2.69634 1454.1 M-2.69634 1450.39 Q3.11382 1450.39 6.16936 1455 Q9.24805 1459.58 9.24805 1468.33 Q9.24805 1477.06 6.16936 1481.67 Q3.11382 1486.25 -2.69634 1486.25 Q-8.50649 1486.25 -11.5852 1481.67 Q-14.6407 1477.06 -14.6407 1468.33 Q-14.6407 1459.58 -11.5852 1455 Q-8.50649 1450.39 -2.69634 1450.39 Z" fill="#000000" fill-rule="nonzero" fill-opacity="1" /><path clip-path="url(#clip310)" d="M417.658 1451.02 L436.015 1451.02 L436.015 1454.96 L421.941 1454.96 L421.941 1463.43 Q422.959 1463.08 423.978 1462.92 Q424.996 1462.73 426.015 1462.73 Q431.802 1462.73 435.181 1465.9 Q438.561 1469.08 438.561 1474.49 Q438.561 1480.07 435.089 1483.17 Q431.617 1486.25 425.297 1486.25 Q423.121 1486.25 420.853 1485.88 Q418.607 1485.51 416.2 1484.77 L416.2 1480.07 Q418.283 1481.2 420.505 1481.76 Q422.728 1482.32 425.205 1482.32 Q429.209 1482.32 431.547 1480.21 Q433.885 1478.1 433.885 1474.49 Q433.885 1470.88 431.547 1468.77 Q429.209 1466.67 425.205 1466.67 Q423.33 1466.67 421.455 1467.08 Q419.603 1467.5 417.658 1468.38 L417.658 1451.02 Z" fill="#000000" fill-rule="nonzero" fill-opacity="1" /><path clip-path="url(#clip310)" d="M457.774 1454.1 Q454.163 1454.1 452.334 1457.66 Q450.528 1461.2 450.528 1468.33 Q450.528 1475.44 452.334 1479.01 Q454.163 1482.55 457.774 1482.55 Q461.408 1482.55 463.214 1479.01 Q465.042 1475.44 465.042 1468.33 Q465.042 1461.2 463.214 1457.66 Q461.408 1454.1 457.774 1454.1 M457.774 1450.39 Q463.584 1450.39 466.639 1455 Q469.718 1459.58 469.718 1468.33 Q469.718 1477.06 466.639 1481.67 Q463.584 1486.25 457.774 1486.25 Q451.964 1486.25 448.885 1481.67 Q445.829 1477.06 445.829 1468.33 Q445.829 1459.58 448.885 1455 Q451.964 1450.39 457.774 1450.39 Z" fill="#000000" fill-rule="nonzero" fill-opacity="1" /><path clip-path="url(#clip310)" d="M750.968 1481.64 L758.607 1481.64 L758.607 1455.28 L750.297 1456.95 L750.297 1452.69 L758.561 1451.02 L763.236 1451.02 L763.236 1481.64 L770.875 1481.64 L770.875 1485.58 L750.968 1485.58 L750.968 1481.64 Z" fill="#000000" fill-rule="nonzero" fill-opacity="1" /><path clip-path="url(#clip310)" d="M790.32 1454.1 Q786.709 1454.1 784.88 1457.66 Q783.074 1461.2 783.074 1468.33 Q783.074 1475.44 784.88 1479.01 Q786.709 1482.55 790.32 1482.55 Q793.954 1482.55 795.759 1479.01 Q797.588 1475.44 797.588 1468.33 Q797.588 1461.2 795.759 1457.66 Q793.954 1454.1 790.32 1454.1 M790.32 1450.39 Q796.13 1450.39 799.185 1455 Q802.264 1459.58 802.264 1468.33 Q802.264 1477.06 799.185 1481.67 Q796.13 1486.25 790.32 1486.25 Q784.509 1486.25 781.431 1481.67 Q778.375 1477.06 778.375 1468.33 Q778.375 1459.58 781.431 1455 Q784.509 1450.39 790.32 1450.39 Z" fill="#000000" fill-rule="nonzero" fill-opacity="1" /><path clip-path="url(#clip310)" d="M820.482 1454.1 Q816.87 1454.1 815.042 1457.66 Q813.236 1461.2 813.236 1468.33 Q813.236 1475.44 815.042 1479.01 Q816.87 1482.55 820.482 1482.55 Q824.116 1482.55 825.921 1479.01 Q827.75 1475.44 827.75 1468.33 Q827.75 1461.2 825.921 1457.66 Q824.116 1454.1 820.482 1454.1 M820.482 1450.39 Q826.292 1450.39 829.347 1455 Q832.426 1459.58 832.426 1468.33 Q832.426 1477.06 829.347 1481.67 Q826.292 1486.25 820.482 1486.25 Q814.671 1486.25 811.593 1481.67 Q808.537 1477.06 808.537 1468.33 Q808.537 1459.58 811.593 1455 Q814.671 1450.39 820.482 1450.39 Z" fill="#000000" fill-rule="nonzero" fill-opacity="1" /><path clip-path="url(#clip310)" d="M1103.46 1481.64 L1119.78 1481.64 L1119.78 1485.58 L1097.83 1485.58 L1097.83 1481.64 Q1100.49 1478.89 1105.08 1474.26 Q1109.68 1469.61 1110.86 1468.27 Q1113.11 1465.74 1113.99 1464.01 Q1114.89 1462.25 1114.89 1460.56 Q1114.89 1457.8 1112.95 1456.07 Q1111.03 1454.33 1107.92 1454.33 Q1105.72 1454.33 1103.27 1455.09 Q1100.84 1455.86 1098.06 1457.41 L1098.06 1452.69 Q1100.89 1451.55 1103.34 1450.97 Q1105.79 1450.39 1107.83 1450.39 Q1113.2 1450.39 1116.4 1453.08 Q1119.59 1455.77 1119.59 1460.26 Q1119.59 1462.39 1118.78 1464.31 Q1117.99 1466.2 1115.89 1468.8 Q1115.31 1469.47 1112.21 1472.69 Q1109.1 1475.88 1103.46 1481.64 Z" fill="#000000" fill-rule="nonzero" fill-opacity="1" /><path clip-path="url(#clip310)" d="M1139.59 1454.1 Q1135.98 1454.1 1134.15 1457.66 Q1132.34 1461.2 1132.34 1468.33 Q1132.34 1475.44 1134.15 1479.01 Q1135.98 1482.55 1139.59 1482.55 Q1143.22 1482.55 1145.03 1479.01 Q1146.86 1475.44 1146.86 1468.33 Q1146.86 1461.2 1145.03 1457.66 Q1143.22 1454.1 1139.59 1454.1 M1139.59 1450.39 Q1145.4 1450.39 1148.46 1455 Q1151.53 1459.58 1151.53 1468.33 Q1151.53 1477.06 1148.46 1481.67 Q1145.4 1486.25 1139.59 1486.25 Q1133.78 1486.25 1130.7 1481.67 Q1127.65 1477.06 1127.65 1468.33 Q1127.65 1459.58 1130.7 1455 Q1133.78 1450.39 1139.59 1450.39 Z" fill="#000000" fill-rule="nonzero" fill-opacity="1" /><path clip-path="url(#clip310)" d="M1169.75 1454.1 Q1166.14 1454.1 1164.31 1457.66 Q1162.51 1461.2 1162.51 1468.33 Q1162.51 1475.44 1164.31 1479.01 Q1166.14 1482.55 1169.75 1482.55 Q1173.39 1482.55 1175.19 1479.01 Q1177.02 1475.44 1177.02 1468.33 Q1177.02 1461.2 1175.19 1457.66 Q1173.39 1454.1 1169.75 1454.1 M1169.75 1450.39 Q1175.56 1450.39 1178.62 1455 Q1181.7 1459.58 1181.7 1468.33 Q1181.7 1477.06 1178.62 1481.67 Q1175.56 1486.25 1169.75 1486.25 Q1163.94 1486.25 1160.86 1481.67 Q1157.81 1477.06 1157.81 1468.33 Q1157.81 1459.58 1160.86 1455 Q1163.94 1450.39 1169.75 1450.39 Z" fill="#000000" fill-rule="nonzero" fill-opacity="1" /><path clip-path="url(#clip310)" d="M1559.94 1451.02 L1578.3 1451.02 L1578.3 1454.96 L1564.23 1454.96 L1564.23 1463.43 Q1565.25 1463.08 1566.26 1462.92 Q1567.28 1462.73 1568.3 1462.73 Q1574.09 1462.73 1577.47 1465.9 Q1580.85 1469.08 1580.85 1474.49 Q1580.85 1480.07 1577.37 1483.17 Q1573.9 1486.25 1567.58 1486.25 Q1565.41 1486.25 1563.14 1485.88 Q1560.89 1485.51 1558.49 1484.77 L1558.49 1480.07 Q1560.57 1481.2 1562.79 1481.76 Q1565.01 1482.32 1567.49 1482.32 Q1571.5 1482.32 1573.83 1480.21 Q1576.17 1478.1 1576.17 1474.49 Q1576.17 1470.88 1573.83 1468.77 Q1571.5 1466.67 1567.49 1466.67 Q1565.62 1466.67 1563.74 1467.08 Q1561.89 1467.5 1559.94 1468.38 L1559.94 1451.02 Z" fill="#000000" fill-rule="nonzero" fill-opacity="1" /><path clip-path="url(#clip310)" d="M1600.06 1454.1 Q1596.45 1454.1 1594.62 1457.66 Q1592.81 1461.2 1592.81 1468.33 Q1592.81 1475.44 1594.62 1479.01 Q1596.45 1482.55 1600.06 1482.55 Q1603.69 1482.55 1605.5 1479.01 Q1607.33 1475.44 1607.33 1468.33 Q1607.33 1461.2 1605.5 1457.66 Q1603.69 1454.1 1600.06 1454.1 M1600.06 1450.39 Q1605.87 1450.39 1608.93 1455 Q1612 1459.58 1612 1468.33 Q1612 1477.06 1608.93 1481.67 Q1605.87 1486.25 1600.06 1486.25 Q1594.25 1486.25 1591.17 1481.67 Q1588.12 1477.06 1588.12 1468.33 Q1588.12 1459.58 1591.17 1455 Q1594.25 1450.39 1600.06 1450.39 Z" fill="#000000" fill-rule="nonzero" fill-opacity="1" /><path clip-path="url(#clip310)" d="M1630.22 1454.1 Q1626.61 1454.1 1624.78 1457.66 Q1622.98 1461.2 1622.98 1468.33 Q1622.98 1475.44 1624.78 1479.01 Q1626.61 1482.55 1630.22 1482.55 Q1633.86 1482.55 1635.66 1479.01 Q1637.49 1475.44 1637.49 1468.33 Q1637.49 1461.2 1635.66 1457.66 Q1633.86 1454.1 1630.22 1454.1 M1630.22 1450.39 Q1636.03 1450.39 1639.09 1455 Q1642.17 1459.58 1642.17 1468.33 Q1642.17 1477.06 1639.09 1481.67 Q1636.03 1486.25 1630.22 1486.25 Q1624.41 1486.25 1621.33 1481.67 Q1618.28 1477.06 1618.28 1468.33 Q1618.28 1459.58 1621.33 1455 Q1624.41 1450.39 1630.22 1450.39 Z" fill="#000000" fill-rule="nonzero" fill-opacity="1" /><path clip-path="url(#clip310)" d="M1893.25 1481.64 L1900.89 1481.64 L1900.89 1455.28 L1892.58 1456.95 L1892.58 1452.69 L1900.85 1451.02 L1905.52 1451.02 L1905.52 1481.64 L1913.16 1481.64 L1913.16 1485.58 L1893.25 1485.58 L1893.25 1481.64 Z" fill="#000000" fill-rule="nonzero" fill-opacity="1" /><path clip-path="url(#clip310)" d="M1932.61 1454.1 Q1928.99 1454.1 1927.17 1457.66 Q1925.36 1461.2 1925.36 1468.33 Q1925.36 1475.44 1927.17 1479.01 Q1928.99 1482.55 1932.61 1482.55 Q1936.24 1482.55 1938.05 1479.01 Q1939.87 1475.44 1939.87 1468.33 Q1939.87 1461.2 1938.05 1457.66 Q1936.24 1454.1 1932.61 1454.1 M1932.61 1450.39 Q1938.42 1450.39 1941.47 1455 Q1944.55 1459.58 1944.55 1468.33 Q1944.55 1477.06 1941.47 1481.67 Q1938.42 1486.25 1932.61 1486.25 Q1926.8 1486.25 1923.72 1481.67 Q1920.66 1477.06 1920.66 1468.33 Q1920.66 1459.58 1923.72 1455 Q1926.8 1450.39 1932.61 1450.39 Z" fill="#000000" fill-rule="nonzero" fill-opacity="1" /><path clip-path="url(#clip310)" d="M1962.77 1454.1 Q1959.16 1454.1 1957.33 1457.66 Q1955.52 1461.2 1955.52 1468.33 Q1955.52 1475.44 1957.33 1479.01 Q1959.16 1482.55 1962.77 1482.55 Q1966.4 1482.55 1968.21 1479.01 Q1970.04 1475.44 1970.04 1468.33 Q1970.04 1461.2 1968.21 1457.66 Q1966.4 1454.1 1962.77 1454.1 M1962.77 1450.39 Q1968.58 1450.39 1971.63 1455 Q1974.71 1459.58 1974.71 1468.33 Q1974.71 1477.06 1971.63 1481.67 Q1968.58 1486.25 1962.77 1486.25 Q1956.96 1486.25 1953.88 1481.67 Q1950.82 1477.06 1950.82 1468.33 Q1950.82 1459.58 1953.88 1455 Q1956.96 1450.39 1962.77 1450.39 Z" fill="#000000" fill-rule="nonzero" fill-opacity="1" /><path clip-path="url(#clip310)" d="M1992.93 1454.1 Q1989.32 1454.1 1987.49 1457.66 Q1985.68 1461.2 1985.68 1468.33 Q1985.68 1475.44 1987.49 1479.01 Q1989.32 1482.55 1992.93 1482.55 Q1996.56 1482.55 1998.37 1479.01 Q2000.2 1475.44 2000.2 1468.33 Q2000.2 1461.2 1998.37 1457.66 Q1996.56 1454.1 1992.93 1454.1 M1992.93 1450.39 Q1998.74 1450.39 2001.8 1455 Q2004.87 1459.58 2004.87 1468.33 Q2004.87 1477.06 2001.8 1481.67 Q1998.74 1486.25 1992.93 1486.25 Q1987.12 1486.25 1984.04 1481.67 Q1980.99 1477.06 1980.99 1468.33 Q1980.99 1459.58 1984.04 1455 Q1987.12 1450.39 1992.93 1450.39 Z" fill="#000000" fill-rule="nonzero" fill-opacity="1" /><path clip-path="url(#clip310)" d="M2101.14 1481.64 L2117.46 1481.64 L2117.46 1485.58 L2095.52 1485.58 L2095.52 1481.64 Q2098.18 1478.89 2102.76 1474.26 Q2107.37 1469.61 2108.55 1468.27 Q2110.79 1465.74 2111.67 1464.01 Q2112.58 1462.25 2112.58 1460.56 Q2112.58 1457.8 2110.63 1456.07 Q2108.71 1454.33 2105.61 1454.33 Q2103.41 1454.33 2100.96 1455.09 Q2098.53 1455.86 2095.75 1457.41 L2095.75 1452.69 Q2098.57 1451.55 2101.03 1450.97 Q2103.48 1450.39 2105.52 1450.39 Q2110.89 1450.39 2114.08 1453.08 Q2117.28 1455.77 2117.28 1460.26 Q2117.28 1462.39 2116.47 1464.31 Q2115.68 1466.2 2113.57 1468.8 Q2112.99 1469.47 2109.89 1472.69 Q2106.79 1475.88 2101.14 1481.64 Z" fill="#000000" fill-rule="nonzero" fill-opacity="1" /><path clip-path="url(#clip310)" d="M2137.28 1454.1 Q2133.67 1454.1 2131.84 1457.66 Q2130.03 1461.2 2130.03 1468.33 Q2130.03 1475.44 2131.84 1479.01 Q2133.67 1482.55 2137.28 1482.55 Q2140.91 1482.55 2142.72 1479.01 Q2144.54 1475.44 2144.54 1468.33 Q2144.54 1461.2 2142.72 1457.66 Q2140.91 1454.1 2137.28 1454.1 M2137.28 1450.39 Q2143.09 1450.39 2146.14 1455 Q2149.22 1459.58 2149.22 1468.33 Q2149.22 1477.06 2146.14 1481.67 Q2143.09 1486.25 2137.28 1486.25 Q2131.47 1486.25 2128.39 1481.67 Q2125.33 1477.06 2125.33 1468.33 Q2125.33 1459.58 2128.39 1455 Q2131.47 1450.39 2137.28 1450.39 Z" fill="#000000" fill-rule="nonzero" fill-opacity="1" /><path clip-path="url(#clip310)" d="M2167.44 1454.1 Q2163.83 1454.1 2162 1457.66 Q2160.19 1461.2 2160.19 1468.33 Q2160.19 1475.44 2162 1479.01 Q2163.83 1482.55 2167.44 1482.55 Q2171.07 1482.55 2172.88 1479.01 Q2174.71 1475.44 2174.71 1468.33 Q2174.71 1461.2 2172.88 1457.66 Q2171.07 1454.1 2167.44 1454.1 M2167.44 1450.39 Q2173.25 1450.39 2176.3 1455 Q2179.38 1459.58 2179.38 1468.33 Q2179.38 1477.06 2176.3 1481.67 Q2173.25 1486.25 2167.44 1486.25 Q2161.63 1486.25 2158.55 1481.67 Q2155.49 1477.06 2155.49 1468.33 Q2155.49 1459.58 2158.55 1455 Q2161.63 1450.39 2167.44 1450.39 Z" fill="#000000" fill-rule="nonzero" fill-opacity="1" /><path clip-path="url(#clip310)" d="M2197.6 1454.1 Q2193.99 1454.1 2192.16 1457.66 Q2190.35 1461.2 2190.35 1468.33 Q2190.35 1475.44 2192.16 1479.01 Q2193.99 1482.55 2197.6 1482.55 Q2201.23 1482.55 2203.04 1479.01 Q2204.87 1475.44 2204.87 1468.33 Q2204.87 1461.2 2203.04 1457.66 Q2201.23 1454.1 2197.6 1454.1 M2197.6 1450.39 Q2203.41 1450.39 2206.47 1455 Q2209.54 1459.58 2209.54 1468.33 Q2209.54 1477.06 2206.47 1481.67 Q2203.41 1486.25 2197.6 1486.25 Q2191.79 1486.25 2188.71 1481.67 Q2185.66 1477.06 2185.66 1468.33 Q2185.66 1459.58 2188.71 1455 Q2191.79 1450.39 2197.6 1450.39 Z" fill="#000000" fill-rule="nonzero" fill-opacity="1" /><path clip-path="url(#clip310)" d="M922.395 1499.75 L928.825 1499.75 L928.825 1547.27 L922.395 1547.27 L922.395 1499.75 Z" fill="#000000" fill-rule="nonzero" fill-opacity="1" /><path clip-path="url(#clip310)" d="M970.998 1525.76 L970.998 1547.27 L965.141 1547.27 L965.141 1525.95 Q965.141 1520.89 963.168 1518.37 Q961.194 1515.86 957.248 1515.86 Q952.505 1515.86 949.768 1518.88 Q947.031 1521.91 947.031 1527.13 L947.031 1547.27 L941.142 1547.27 L941.142 1511.63 L947.031 1511.63 L947.031 1517.16 Q949.131 1513.95 951.964 1512.36 Q954.829 1510.77 958.553 1510.77 Q964.696 1510.77 967.847 1514.59 Q970.998 1518.37 970.998 1525.76 Z" fill="#000000" fill-rule="nonzero" fill-opacity="1" /><path clip-path="url(#clip310)" d="M982.679 1511.63 L988.535 1511.63 L988.535 1547.27 L982.679 1547.27 L982.679 1511.63 M982.679 1497.75 L988.535 1497.75 L988.535 1505.16 L982.679 1505.16 L982.679 1497.75 Z" fill="#000000" fill-rule="nonzero" fill-opacity="1" /><path clip-path="url(#clip310)" d="M1030.42 1525.76 L1030.42 1547.27 L1024.56 1547.27 L1024.56 1525.95 Q1024.56 1520.89 1022.59 1518.37 Q1020.62 1515.86 1016.67 1515.86 Q1011.93 1515.86 1009.19 1518.88 Q1006.45 1521.91 1006.45 1527.13 L1006.45 1547.27 L1000.57 1547.27 L1000.57 1511.63 L1006.45 1511.63 L1006.45 1517.16 Q1008.56 1513.95 1011.39 1512.36 Q1014.25 1510.77 1017.98 1510.77 Q1024.12 1510.77 1027.27 1514.59 Q1030.42 1518.37 1030.42 1525.76 Z" fill="#000000" fill-rule="nonzero" fill-opacity="1" /><path clip-path="url(#clip310)" d="M1047.9 1501.5 L1047.9 1511.63 L1059.96 1511.63 L1059.96 1516.18 L1047.9 1516.18 L1047.9 1535.53 Q1047.9 1539.89 1049.07 1541.13 Q1050.28 1542.37 1053.94 1542.37 L1059.96 1542.37 L1059.96 1547.27 L1053.94 1547.27 Q1047.16 1547.27 1044.59 1544.76 Q1042.01 1542.21 1042.01 1535.53 L1042.01 1516.18 L1037.71 1516.18 L1037.71 1511.63 L1042.01 1511.63 L1042.01 1501.5 L1047.9 1501.5 Z" fill="#000000" fill-rule="nonzero" fill-opacity="1" /><path clip-path="url(#clip310)" d="M1067.66 1511.63 L1073.52 1511.63 L1073.52 1547.27 L1067.66 1547.27 L1067.66 1511.63 M1067.66 1497.75 L1073.52 1497.75 L1073.52 1505.16 L1067.66 1505.16 L1067.66 1497.75 Z" fill="#000000" fill-rule="nonzero" fill-opacity="1" /><path clip-path="url(#clip310)" d="M1101.97 1529.35 Q1094.87 1529.35 1092.14 1530.98 Q1089.4 1532.6 1089.4 1536.52 Q1089.4 1539.64 1091.44 1541.48 Q1093.51 1543.3 1097.04 1543.3 Q1101.91 1543.3 1104.84 1539.86 Q1107.8 1536.39 1107.8 1530.66 L1107.8 1529.35 L1101.97 1529.35 M1113.65 1526.94 L1113.65 1547.27 L1107.8 1547.27 L1107.8 1541.86 Q1105.79 1545.11 1102.8 1546.67 Q1099.81 1548.2 1095.48 1548.2 Q1090 1548.2 1086.76 1545.14 Q1083.54 1542.05 1083.54 1536.9 Q1083.54 1530.88 1087.55 1527.83 Q1091.6 1524.77 1099.58 1524.77 L1107.8 1524.77 L1107.8 1524.2 Q1107.8 1520.16 1105.12 1517.96 Q1102.48 1515.73 1097.68 1515.73 Q1094.62 1515.73 1091.72 1516.46 Q1088.83 1517.2 1086.15 1518.66 L1086.15 1513.25 Q1089.37 1512.01 1092.39 1511.4 Q1095.42 1510.77 1098.28 1510.77 Q1106.01 1510.77 1109.83 1514.78 Q1113.65 1518.79 1113.65 1526.94 Z" fill="#000000" fill-rule="nonzero" fill-opacity="1" /><path clip-path="url(#clip310)" d="M1125.72 1497.75 L1131.57 1497.75 L1131.57 1547.27 L1125.72 1547.27 L1125.72 1497.75 Z" fill="#000000" fill-rule="nonzero" fill-opacity="1" /><path clip-path="url(#clip310)" d="M1190.14 1529.48 Q1190.14 1523.02 1187.46 1519.36 Q1184.82 1515.67 1180.17 1515.67 Q1175.53 1515.67 1172.85 1519.36 Q1170.21 1523.02 1170.21 1529.48 Q1170.21 1535.94 1172.85 1539.64 Q1175.53 1543.3 1180.17 1543.3 Q1184.82 1543.3 1187.46 1539.64 Q1190.14 1535.94 1190.14 1529.48 M1170.21 1517.04 Q1172.06 1513.85 1174.86 1512.33 Q1177.69 1510.77 1181.61 1510.77 Q1188.1 1510.77 1192.14 1515.92 Q1196.22 1521.08 1196.22 1529.48 Q1196.22 1537.88 1192.14 1543.04 Q1188.1 1548.2 1181.61 1548.2 Q1177.69 1548.2 1174.86 1546.67 Q1172.06 1545.11 1170.21 1541.93 L1170.21 1547.27 L1164.32 1547.27 L1164.32 1497.75 L1170.21 1497.75 L1170.21 1517.04 Z" fill="#000000" fill-rule="nonzero" fill-opacity="1" /><path clip-path="url(#clip310)" d="M1219.74 1515.73 Q1215.03 1515.73 1212.29 1519.42 Q1209.55 1523.08 1209.55 1529.48 Q1209.55 1535.88 1212.26 1539.57 Q1215 1543.23 1219.74 1543.23 Q1224.42 1543.23 1227.15 1539.54 Q1229.89 1535.85 1229.89 1529.48 Q1229.89 1523.15 1227.15 1519.46 Q1224.42 1515.73 1219.74 1515.73 M1219.74 1510.77 Q1227.38 1510.77 1231.74 1515.73 Q1236.1 1520.7 1236.1 1529.48 Q1236.1 1538.23 1231.74 1543.23 Q1227.38 1548.2 1219.74 1548.2 Q1212.07 1548.2 1207.71 1543.23 Q1203.38 1538.23 1203.38 1529.48 Q1203.38 1520.7 1207.71 1515.73 Q1212.07 1510.77 1219.74 1510.77 Z" fill="#000000" fill-rule="nonzero" fill-opacity="1" /><path clip-path="url(#clip310)" d="M1275.44 1525.76 L1275.44 1547.27 L1269.58 1547.27 L1269.58 1525.95 Q1269.58 1520.89 1267.61 1518.37 Q1265.63 1515.86 1261.69 1515.86 Q1256.95 1515.86 1254.21 1518.88 Q1251.47 1521.91 1251.47 1527.13 L1251.47 1547.27 L1245.58 1547.27 L1245.58 1511.63 L1251.47 1511.63 L1251.47 1517.16 Q1253.57 1513.95 1256.4 1512.36 Q1259.27 1510.77 1262.99 1510.77 Q1269.14 1510.77 1272.29 1514.59 Q1275.44 1518.37 1275.44 1525.76 Z" fill="#000000" fill-rule="nonzero" fill-opacity="1" /><path clip-path="url(#clip310)" d="M1310.58 1517.04 L1310.58 1497.75 L1316.43 1497.75 L1316.43 1547.27 L1310.58 1547.27 L1310.58 1541.93 Q1308.73 1545.11 1305.9 1546.67 Q1303.1 1548.2 1299.15 1548.2 Q1292.69 1548.2 1288.61 1543.04 Q1284.57 1537.88 1284.57 1529.48 Q1284.57 1521.08 1288.61 1515.92 Q1292.69 1510.77 1299.15 1510.77 Q1303.1 1510.77 1305.9 1512.33 Q1308.73 1513.85 1310.58 1517.04 M1290.62 1529.48 Q1290.62 1535.94 1293.26 1539.64 Q1295.94 1543.3 1300.58 1543.3 Q1305.23 1543.3 1307.9 1539.64 Q1310.58 1535.94 1310.58 1529.48 Q1310.58 1523.02 1307.9 1519.36 Q1305.23 1515.67 1300.58 1515.67 Q1295.94 1515.67 1293.26 1519.36 Q1290.62 1523.02 1290.62 1529.48 Z" fill="#000000" fill-rule="nonzero" fill-opacity="1" /><path clip-path="url(#clip310)" d="M1372.67 1517.04 L1372.67 1497.75 L1378.53 1497.75 L1378.53 1547.27 L1372.67 1547.27 L1372.67 1541.93 Q1370.83 1545.11 1367.99 1546.67 Q1365.19 1548.2 1361.25 1548.2 Q1354.79 1548.2 1350.71 1543.04 Q1346.67 1537.88 1346.67 1529.48 Q1346.67 1521.08 1350.71 1515.92 Q1354.79 1510.77 1361.25 1510.77 Q1365.19 1510.77 1367.99 1512.33 Q1370.83 1513.85 1372.67 1517.04 M1352.72 1529.48 Q1352.72 1535.94 1355.36 1539.64 Q1358.03 1543.3 1362.68 1543.3 Q1367.33 1543.3 1370 1539.64 Q1372.67 1535.94 1372.67 1529.48 Q1372.67 1523.02 1370 1519.36 Q1367.33 1515.67 1362.68 1515.67 Q1358.03 1515.67 1355.36 1519.36 Q1352.72 1523.02 1352.72 1529.48 Z" fill="#000000" fill-rule="nonzero" fill-opacity="1" /><path clip-path="url(#clip310)" d="M1390.59 1511.63 L1396.45 1511.63 L1396.45 1547.27 L1390.59 1547.27 L1390.59 1511.63 M1390.59 1497.75 L1396.45 1497.75 L1396.45 1505.16 L1390.59 1505.16 L1390.59 1497.75 Z" fill="#000000" fill-rule="nonzero" fill-opacity="1" /><path clip-path="url(#clip310)" d="M1436.46 1518.47 Q1438.65 1514.52 1441.71 1512.64 Q1444.77 1510.77 1448.9 1510.77 Q1454.47 1510.77 1457.5 1514.68 Q1460.52 1518.56 1460.52 1525.76 L1460.52 1547.27 L1454.63 1547.27 L1454.63 1525.95 Q1454.63 1520.82 1452.82 1518.34 Q1451 1515.86 1447.28 1515.86 Q1442.73 1515.86 1440.09 1518.88 Q1437.44 1521.91 1437.44 1527.13 L1437.44 1547.27 L1431.56 1547.27 L1431.56 1525.95 Q1431.56 1520.79 1429.74 1518.34 Q1427.93 1515.86 1424.14 1515.86 Q1419.65 1515.86 1417.01 1518.91 Q1414.37 1521.94 1414.37 1527.13 L1414.37 1547.27 L1408.48 1547.27 L1408.48 1511.63 L1414.37 1511.63 L1414.37 1517.16 Q1416.37 1513.89 1419.18 1512.33 Q1421.98 1510.77 1425.83 1510.77 Q1429.71 1510.77 1432.42 1512.74 Q1435.15 1514.71 1436.46 1518.47 Z" fill="#000000" fill-rule="nonzero" fill-opacity="1" /><path clip-path="url(#clip310)" d="M1502.69 1527.99 L1502.69 1530.85 L1475.77 1530.85 Q1476.15 1536.9 1479.39 1540.08 Q1482.67 1543.23 1488.5 1543.23 Q1491.87 1543.23 1495.02 1542.4 Q1498.21 1541.58 1501.32 1539.92 L1501.32 1545.46 Q1498.17 1546.8 1494.86 1547.5 Q1491.55 1548.2 1488.15 1548.2 Q1479.62 1548.2 1474.62 1543.23 Q1469.66 1538.27 1469.66 1529.8 Q1469.66 1521.05 1474.37 1515.92 Q1479.11 1510.77 1487.13 1510.77 Q1494.32 1510.77 1498.49 1515.41 Q1502.69 1520.03 1502.69 1527.99 M1496.84 1526.27 Q1496.77 1521.46 1494.13 1518.6 Q1491.52 1515.73 1487.19 1515.73 Q1482.29 1515.73 1479.33 1518.5 Q1476.4 1521.27 1475.96 1526.3 L1496.84 1526.27 Z" fill="#000000" fill-rule="nonzero" fill-opacity="1" /><path clip-path="url(#clip310)" d="M1541.94 1525.76 L1541.94 1547.27 L1536.08 1547.27 L1536.08 1525.95 Q1536.08 1520.89 1534.11 1518.37 Q1532.13 1515.86 1528.19 1515.86 Q1523.45 1515.86 1520.71 1518.88 Q1517.97 1521.91 1517.97 1527.13 L1517.97 1547.27 L1512.08 1547.27 L1512.08 1511.63 L1517.97 1511.63 L1517.97 1517.16 Q1520.07 1513.95 1522.9 1512.36 Q1525.77 1510.77 1529.49 1510.77 Q1535.64 1510.77 1538.79 1514.59 Q1541.94 1518.37 1541.94 1525.76 Z" fill="#000000" fill-rule="nonzero" fill-opacity="1" /><path clip-path="url(#clip310)" d="M1576.34 1512.68 L1576.34 1518.21 Q1573.86 1516.94 1571.19 1516.3 Q1568.51 1515.67 1565.65 1515.67 Q1561.29 1515.67 1559.09 1517.01 Q1556.93 1518.34 1556.93 1521.02 Q1556.93 1523.05 1558.49 1524.23 Q1560.05 1525.38 1564.76 1526.43 L1566.76 1526.87 Q1573 1528.21 1575.61 1530.66 Q1578.25 1533.08 1578.25 1537.44 Q1578.25 1542.4 1574.31 1545.3 Q1570.39 1548.2 1563.52 1548.2 Q1560.65 1548.2 1557.53 1547.62 Q1554.45 1547.08 1551.01 1545.97 L1551.01 1539.92 Q1554.26 1541.61 1557.41 1542.47 Q1560.56 1543.3 1563.64 1543.3 Q1567.78 1543.3 1570.01 1541.9 Q1572.24 1540.46 1572.24 1537.88 Q1572.24 1535.5 1570.62 1534.22 Q1569.02 1532.95 1563.58 1531.77 L1561.54 1531.3 Q1556.1 1530.15 1553.68 1527.79 Q1551.26 1525.41 1551.26 1521.27 Q1551.26 1516.24 1554.83 1513.5 Q1558.39 1510.77 1564.95 1510.77 Q1568.2 1510.77 1571.06 1511.24 Q1573.93 1511.72 1576.34 1512.68 Z" fill="#000000" fill-rule="nonzero" fill-opacity="1" /><path clip-path="url(#clip310)" d="M1587.58 1511.63 L1593.44 1511.63 L1593.44 1547.27 L1587.58 1547.27 L1587.58 1511.63 M1587.58 1497.75 L1593.44 1497.75 L1593.44 1505.16 L1587.58 1505.16 L1587.58 1497.75 Z" fill="#000000" fill-rule="nonzero" fill-opacity="1" /><path clip-path="url(#clip310)" d="M1619.5 1515.73 Q1614.79 1515.73 1612.06 1519.42 Q1609.32 1523.08 1609.32 1529.48 Q1609.32 1535.88 1612.02 1539.57 Q1614.76 1543.23 1619.5 1543.23 Q1624.18 1543.23 1626.92 1539.54 Q1629.66 1535.85 1629.66 1529.48 Q1629.66 1523.15 1626.92 1519.46 Q1624.18 1515.73 1619.5 1515.73 M1619.5 1510.77 Q1627.14 1510.77 1631.5 1515.73 Q1635.86 1520.7 1635.86 1529.48 Q1635.86 1538.23 1631.5 1543.23 Q1627.14 1548.2 1619.5 1548.2 Q1611.83 1548.2 1607.47 1543.23 Q1603.14 1538.23 1603.14 1529.48 Q1603.14 1520.7 1607.47 1515.73 Q1611.83 1510.77 1619.5 1510.77 Z" fill="#000000" fill-rule="nonzero" fill-opacity="1" /><path clip-path="url(#clip310)" d="M1675.2 1525.76 L1675.2 1547.27 L1669.35 1547.27 L1669.35 1525.95 Q1669.35 1520.89 1667.37 1518.37 Q1665.4 1515.86 1661.45 1515.86 Q1656.71 1515.86 1653.97 1518.88 Q1651.24 1521.91 1651.24 1527.13 L1651.24 1547.27 L1645.35 1547.27 L1645.35 1511.63 L1651.24 1511.63 L1651.24 1517.16 Q1653.34 1513.95 1656.17 1512.36 Q1659.03 1510.77 1662.76 1510.77 Q1668.9 1510.77 1672.05 1514.59 Q1675.2 1518.37 1675.2 1525.76 Z" fill="#000000" fill-rule="nonzero" fill-opacity="1" /><path clip-path="url(#clip310)" d="M1708.37 1517.67 L1749.17 1517.67 L1749.17 1523.02 L1708.37 1523.02 L1708.37 1517.67 M1708.37 1530.66 L1749.17 1530.66 L1749.17 1536.07 L1708.37 1536.07 L1708.37 1530.66 Z" fill="#000000" fill-rule="nonzero" fill-opacity="1" /><path clip-path="url(#clip310)" d="M1813.74 1519.09 Q1813.97 1519.32 1813.97 1519.64 Q1813.97 1519.96 1813.23 1520.7 L1797.54 1538.29 Q1803.53 1559.35 1806.82 1559.35 Q1807.81 1559.35 1808.85 1558.58 Q1809.91 1557.84 1810.33 1556.71 Q1810.49 1556.16 1810.65 1555.97 Q1810.81 1555.78 1811.26 1555.78 Q1812.03 1555.78 1812.03 1556.52 Q1812.03 1556.9 1811.68 1557.55 Q1811.33 1558.22 1810.68 1558.96 Q1810.04 1559.74 1808.91 1560.25 Q1807.78 1560.8 1806.43 1560.8 Q1804.76 1560.8 1803.4 1560.41 Q1802.05 1560.03 1801.28 1559.54 Q1800.5 1559.06 1799.8 1558.19 Q1799.12 1557.35 1798.86 1556.84 Q1798.64 1556.36 1798.25 1555.52 Q1797.48 1553.72 1796.77 1551.72 Q1796.06 1549.72 1795.61 1548.27 Q1795.16 1546.82 1793.77 1542.38 L1778.67 1559.35 Q1777.96 1560.06 1777.61 1560.06 Q1777.32 1560.06 1777.06 1559.8 Q1776.8 1559.58 1776.8 1559.29 Q1776.8 1558.96 1777.54 1558.22 L1792.71 1541.28 Q1792.94 1541.06 1793.06 1540.87 Q1793.19 1540.67 1793.19 1540.61 L1793.23 1540.54 Q1793.23 1540.38 1792.65 1538.32 Q1792.07 1536.26 1791 1533.07 Q1789.97 1529.85 1789.01 1527.5 Q1788.39 1525.92 1787.98 1524.96 Q1787.56 1523.99 1786.82 1522.54 Q1786.11 1521.09 1785.37 1520.35 Q1784.63 1519.58 1783.95 1519.58 Q1783.72 1519.58 1783.37 1519.67 Q1783.02 1519.77 1782.44 1520.03 Q1781.89 1520.25 1781.34 1520.9 Q1780.79 1521.51 1780.44 1522.41 Q1780.15 1523.12 1779.6 1523.12 Q1779.25 1523.12 1779.02 1522.96 Q1778.83 1522.8 1778.83 1522.64 L1778.8 1522.48 Q1778.8 1521.9 1779.34 1520.93 Q1779.89 1519.96 1781.24 1519.06 Q1782.6 1518.13 1784.34 1518.13 Q1785.98 1518.13 1787.33 1518.51 Q1788.68 1518.9 1789.43 1519.35 Q1790.2 1519.8 1790.87 1520.64 Q1791.55 1521.44 1791.74 1521.83 Q1791.97 1522.19 1792.32 1522.93 Q1793.42 1525.44 1794.13 1527.6 Q1794.87 1529.72 1796.99 1536.45 L1812.1 1519.64 Q1812.77 1518.84 1813.16 1518.84 Q1813.52 1518.84 1813.74 1519.09 Z" fill="#000000" fill-rule="nonzero" fill-opacity="1" /><polyline clip-path="url(#clip312)" style="stroke:#000000; stroke-linecap:round; stroke-linejoin:round; stroke-width:2; stroke-opacity:0.1; fill:none" points="387.334,1291.46 2352.76,1291.46 "/>
<polyline clip-path="url(#clip312)" style="stroke:#000000; stroke-linecap:round; stroke-linejoin:round; stroke-width:2; stroke-opacity:0.1; fill:none" points="387.334,1041.54 2352.76,1041.54 "/>
<polyline clip-path="url(#clip312)" style="stroke:#000000; stroke-linecap:round; stroke-linejoin:round; stroke-width:2; stroke-opacity:0.1; fill:none" points="387.334,791.626 2352.76,791.626 "/>
<polyline clip-path="url(#clip312)" style="stroke:#000000; stroke-linecap:round; stroke-linejoin:round; stroke-width:2; stroke-opacity:0.1; fill:none" points="387.334,541.708 2352.76,541.708 "/>
<polyline clip-path="url(#clip312)" style="stroke:#000000; stroke-linecap:round; stroke-linejoin:round; stroke-width:2; stroke-opacity:0.1; fill:none" points="387.334,291.789 2352.76,291.789 "/>
<polyline clip-path="url(#clip310)" style="stroke:#000000; stroke-linecap:round; stroke-linejoin:round; stroke-width:4; stroke-opacity:1; fill:none" points="387.334,1423.18 387.334,47.2441 "/>
<polyline clip-path="url(#clip310)" style="stroke:#000000; stroke-linecap:round; stroke-linejoin:round; stroke-width:4; stroke-opacity:1; fill:none" points="387.334,1291.46 406.232,1291.46 "/>
<polyline clip-path="url(#clip310)" style="stroke:#000000; stroke-linecap:round; stroke-linejoin:round; stroke-width:4; stroke-opacity:1; fill:none" points="387.334,1041.54 406.232,1041.54 "/>
<polyline clip-path="url(#clip310)" style="stroke:#000000; stroke-linecap:round; stroke-linejoin:round; stroke-width:4; stroke-opacity:1; fill:none" points="387.334,791.626 406.232,791.626 "/>
<polyline clip-path="url(#clip310)" style="stroke:#000000; stroke-linecap:round; stroke-linejoin:round; stroke-width:4; stroke-opacity:1; fill:none" points="387.334,541.708 406.232,541.708 "/>
<polyline clip-path="url(#clip310)" style="stroke:#000000; stroke-linecap:round; stroke-linejoin:round; stroke-width:4; stroke-opacity:1; fill:none" points="387.334,291.789 406.232,291.789 "/>
<path clip-path="url(#clip310)" d="M264.992 1277.26 Q261.381 1277.26 259.552 1280.83 Q257.746 1284.37 257.746 1291.5 Q257.746 1298.6 259.552 1302.17 Q261.381 1305.71 264.992 1305.71 Q268.626 1305.71 270.432 1302.17 Q272.26 1298.6 272.26 1291.5 Q272.26 1284.37 270.432 1280.83 Q268.626 1277.26 264.992 1277.26 M264.992 1273.56 Q270.802 1273.56 273.857 1278.16 Q276.936 1282.75 276.936 1291.5 Q276.936 1300.22 273.857 1304.83 Q270.802 1309.41 264.992 1309.41 Q259.182 1309.41 256.103 1304.83 Q253.047 1300.22 253.047 1291.5 Q253.047 1282.75 256.103 1278.16 Q259.182 1273.56 264.992 1273.56 Z" fill="#000000" fill-rule="nonzero" fill-opacity="1" /><path clip-path="url(#clip310)" d="M285.154 1302.86 L290.038 1302.86 L290.038 1308.74 L285.154 1308.74 L285.154 1302.86 Z" fill="#000000" fill-rule="nonzero" fill-opacity="1" /><path clip-path="url(#clip310)" d="M300.362 1308.02 L300.362 1303.77 Q302.121 1304.6 303.927 1305.04 Q305.732 1305.48 307.468 1305.48 Q312.098 1305.48 314.529 1302.38 Q316.982 1299.25 317.329 1292.91 Q315.987 1294.9 313.927 1295.96 Q311.867 1297.03 309.367 1297.03 Q304.181 1297.03 301.149 1293.9 Q298.14 1290.76 298.14 1285.32 Q298.14 1279.99 301.288 1276.77 Q304.436 1273.56 309.667 1273.56 Q315.663 1273.56 318.811 1278.16 Q321.982 1282.75 321.982 1291.5 Q321.982 1299.67 318.093 1304.55 Q314.228 1309.41 307.677 1309.41 Q305.917 1309.41 304.112 1309.07 Q302.306 1308.72 300.362 1308.02 M309.667 1293.37 Q312.816 1293.37 314.644 1291.22 Q316.496 1289.07 316.496 1285.32 Q316.496 1281.59 314.644 1279.44 Q312.816 1277.26 309.667 1277.26 Q306.519 1277.26 304.667 1279.44 Q302.839 1281.59 302.839 1285.32 Q302.839 1289.07 304.667 1291.22 Q306.519 1293.37 309.667 1293.37 Z" fill="#000000" fill-rule="nonzero" fill-opacity="1" /><path clip-path="url(#clip310)" d="M330.431 1274.18 L348.788 1274.18 L348.788 1278.12 L334.714 1278.12 L334.714 1286.59 Q335.732 1286.24 336.751 1286.08 Q337.769 1285.9 338.788 1285.9 Q344.575 1285.9 347.954 1289.07 Q351.334 1292.24 351.334 1297.65 Q351.334 1303.23 347.862 1306.33 Q344.389 1309.41 338.07 1309.41 Q335.894 1309.41 333.626 1309.04 Q331.38 1308.67 328.973 1307.93 L328.973 1303.23 Q331.056 1304.37 333.278 1304.92 Q335.501 1305.48 337.977 1305.48 Q341.982 1305.48 344.32 1303.37 Q346.658 1301.27 346.658 1297.65 Q346.658 1294.04 344.32 1291.94 Q341.982 1289.83 337.977 1289.83 Q336.103 1289.83 334.228 1290.25 Q332.376 1290.66 330.431 1291.54 L330.431 1274.18 Z" fill="#000000" fill-rule="nonzero" fill-opacity="1" /><path clip-path="url(#clip310)" d="M263.834 1027.34 Q260.223 1027.34 258.395 1030.91 Q256.589 1034.45 256.589 1041.58 Q256.589 1048.69 258.395 1052.25 Q260.223 1055.79 263.834 1055.79 Q267.469 1055.79 269.274 1052.25 Q271.103 1048.69 271.103 1041.58 Q271.103 1034.45 269.274 1030.91 Q267.469 1027.34 263.834 1027.34 M263.834 1023.64 Q269.645 1023.64 272.7 1028.25 Q275.779 1032.83 275.779 1041.58 Q275.779 1050.31 272.7 1054.91 Q269.645 1059.5 263.834 1059.5 Q258.024 1059.5 254.946 1054.91 Q251.89 1050.31 251.89 1041.58 Q251.89 1032.83 254.946 1028.25 Q258.024 1023.64 263.834 1023.64 Z" fill="#000000" fill-rule="nonzero" fill-opacity="1" /><path clip-path="url(#clip310)" d="M283.996 1052.94 L288.881 1052.94 L288.881 1058.82 L283.996 1058.82 L283.996 1052.94 Z" fill="#000000" fill-rule="nonzero" fill-opacity="1" /><path clip-path="url(#clip310)" d="M299.205 1058.11 L299.205 1053.85 Q300.964 1054.68 302.769 1055.12 Q304.575 1055.56 306.311 1055.56 Q310.941 1055.56 313.371 1052.46 Q315.825 1049.33 316.172 1042.99 Q314.829 1044.98 312.769 1046.05 Q310.709 1047.11 308.209 1047.11 Q303.024 1047.11 299.992 1043.99 Q296.982 1040.84 296.982 1035.4 Q296.982 1030.07 300.13 1026.86 Q303.279 1023.64 308.51 1023.64 Q314.505 1023.64 317.654 1028.25 Q320.825 1032.83 320.825 1041.58 Q320.825 1049.75 316.936 1054.63 Q313.07 1059.5 306.519 1059.5 Q304.76 1059.5 302.955 1059.15 Q301.149 1058.8 299.205 1058.11 M308.51 1043.45 Q311.658 1043.45 313.487 1041.3 Q315.339 1039.15 315.339 1035.4 Q315.339 1031.67 313.487 1029.52 Q311.658 1027.34 308.51 1027.34 Q305.362 1027.34 303.51 1029.52 Q301.681 1031.67 301.681 1035.4 Q301.681 1039.15 303.51 1041.3 Q305.362 1043.45 308.51 1043.45 Z" fill="#000000" fill-rule="nonzero" fill-opacity="1" /><path clip-path="url(#clip310)" d="M339.806 1039.68 Q336.658 1039.68 334.806 1041.83 Q332.978 1043.99 332.978 1047.74 Q332.978 1051.46 334.806 1053.64 Q336.658 1055.79 339.806 1055.79 Q342.954 1055.79 344.783 1053.64 Q346.635 1051.46 346.635 1047.74 Q346.635 1043.99 344.783 1041.83 Q342.954 1039.68 339.806 1039.68 M349.089 1025.03 L349.089 1029.29 Q347.329 1028.45 345.524 1028.01 Q343.741 1027.57 341.982 1027.57 Q337.352 1027.57 334.899 1030.7 Q332.468 1033.82 332.121 1040.14 Q333.487 1038.13 335.547 1037.06 Q337.607 1035.98 340.084 1035.98 Q345.292 1035.98 348.302 1039.15 Q351.334 1042.3 351.334 1047.74 Q351.334 1053.06 348.186 1056.28 Q345.038 1059.5 339.806 1059.5 Q333.811 1059.5 330.64 1054.91 Q327.468 1050.31 327.468 1041.58 Q327.468 1033.38 331.357 1028.52 Q335.246 1023.64 341.797 1023.64 Q343.556 1023.64 345.339 1023.99 Q347.144 1024.33 349.089 1025.03 Z" fill="#000000" fill-rule="nonzero" fill-opacity="1" /><path clip-path="url(#clip310)" d="M264.899 777.424 Q261.288 777.424 259.459 780.989 Q257.654 784.531 257.654 791.661 Q257.654 798.767 259.459 802.332 Q261.288 805.873 264.899 805.873 Q268.533 805.873 270.339 802.332 Q272.168 798.767 272.168 791.661 Q272.168 784.531 270.339 780.989 Q268.533 777.424 264.899 777.424 M264.899 773.721 Q270.709 773.721 273.765 778.327 Q276.844 782.911 276.844 791.661 Q276.844 800.387 273.765 804.994 Q270.709 809.577 264.899 809.577 Q259.089 809.577 256.01 804.994 Q252.955 800.387 252.955 791.661 Q252.955 782.911 256.01 778.327 Q259.089 773.721 264.899 773.721 Z" fill="#000000" fill-rule="nonzero" fill-opacity="1" /><path clip-path="url(#clip310)" d="M285.061 803.026 L289.945 803.026 L289.945 808.906 L285.061 808.906 L285.061 803.026 Z" fill="#000000" fill-rule="nonzero" fill-opacity="1" /><path clip-path="url(#clip310)" d="M300.269 808.188 L300.269 803.929 Q302.029 804.762 303.834 805.202 Q305.64 805.642 307.376 805.642 Q312.005 805.642 314.436 802.54 Q316.89 799.415 317.237 793.073 Q315.894 795.063 313.834 796.128 Q311.774 797.193 309.274 797.193 Q304.089 797.193 301.056 794.068 Q298.047 790.92 298.047 785.48 Q298.047 780.156 301.195 776.938 Q304.343 773.721 309.575 773.721 Q315.57 773.721 318.718 778.327 Q321.89 782.911 321.89 791.661 Q321.89 799.832 318.001 804.716 Q314.135 809.577 307.584 809.577 Q305.825 809.577 304.019 809.23 Q302.214 808.883 300.269 808.188 M309.575 793.535 Q312.723 793.535 314.552 791.383 Q316.404 789.23 316.404 785.48 Q316.404 781.753 314.552 779.6 Q312.723 777.424 309.575 777.424 Q306.427 777.424 304.575 779.6 Q302.746 781.753 302.746 785.48 Q302.746 789.23 304.575 791.383 Q306.427 793.535 309.575 793.535 Z" fill="#000000" fill-rule="nonzero" fill-opacity="1" /><path clip-path="url(#clip310)" d="M329.112 774.346 L351.334 774.346 L351.334 776.337 L338.788 808.906 L333.903 808.906 L345.709 778.281 L329.112 778.281 L329.112 774.346 Z" fill="#000000" fill-rule="nonzero" fill-opacity="1" /><path clip-path="url(#clip310)" d="M264.089 527.506 Q260.478 527.506 258.649 531.071 Q256.844 534.613 256.844 541.742 Q256.844 548.849 258.649 552.414 Q260.478 555.955 264.089 555.955 Q267.723 555.955 269.529 552.414 Q271.357 548.849 271.357 541.742 Q271.357 534.613 269.529 531.071 Q267.723 527.506 264.089 527.506 M264.089 523.803 Q269.899 523.803 272.955 528.409 Q276.033 532.992 276.033 541.742 Q276.033 550.469 272.955 555.076 Q269.899 559.659 264.089 559.659 Q258.279 559.659 255.2 555.076 Q252.145 550.469 252.145 541.742 Q252.145 532.992 255.2 528.409 Q258.279 523.803 264.089 523.803 Z" fill="#000000" fill-rule="nonzero" fill-opacity="1" /><path clip-path="url(#clip310)" d="M284.251 553.108 L289.135 553.108 L289.135 558.988 L284.251 558.988 L284.251 553.108 Z" fill="#000000" fill-rule="nonzero" fill-opacity="1" /><path clip-path="url(#clip310)" d="M299.459 558.27 L299.459 554.011 Q301.218 554.844 303.024 555.284 Q304.83 555.724 306.566 555.724 Q311.195 555.724 313.626 552.622 Q316.079 549.497 316.427 543.154 Q315.084 545.145 313.024 546.21 Q310.964 547.275 308.464 547.275 Q303.279 547.275 300.246 544.15 Q297.237 541.002 297.237 535.562 Q297.237 530.238 300.385 527.02 Q303.533 523.803 308.765 523.803 Q314.76 523.803 317.908 528.409 Q321.079 532.992 321.079 541.742 Q321.079 549.914 317.191 554.798 Q313.325 559.659 306.774 559.659 Q305.015 559.659 303.209 559.312 Q301.404 558.964 299.459 558.27 M308.765 543.617 Q311.913 543.617 313.742 541.465 Q315.593 539.312 315.593 535.562 Q315.593 531.835 313.742 529.682 Q311.913 527.506 308.765 527.506 Q305.617 527.506 303.765 529.682 Q301.936 531.835 301.936 535.562 Q301.936 539.312 303.765 541.465 Q305.617 543.617 308.765 543.617 Z" fill="#000000" fill-rule="nonzero" fill-opacity="1" /><path clip-path="url(#clip310)" d="M339.482 542.576 Q336.149 542.576 334.228 544.358 Q332.329 546.14 332.329 549.265 Q332.329 552.39 334.228 554.173 Q336.149 555.955 339.482 555.955 Q342.815 555.955 344.737 554.173 Q346.658 552.367 346.658 549.265 Q346.658 546.14 344.737 544.358 Q342.839 542.576 339.482 542.576 M334.806 540.585 Q331.797 539.844 330.107 537.784 Q328.441 535.724 328.441 532.761 Q328.441 528.617 331.38 526.21 Q334.343 523.803 339.482 523.803 Q344.644 523.803 347.584 526.21 Q350.524 528.617 350.524 532.761 Q350.524 535.724 348.834 537.784 Q347.167 539.844 344.181 540.585 Q347.561 541.372 349.436 543.664 Q351.334 545.955 351.334 549.265 Q351.334 554.289 348.255 556.974 Q345.2 559.659 339.482 559.659 Q333.765 559.659 330.686 556.974 Q327.63 554.289 327.63 549.265 Q327.63 545.955 329.528 543.664 Q331.427 541.372 334.806 540.585 M333.093 533.201 Q333.093 535.886 334.76 537.39 Q336.45 538.895 339.482 538.895 Q342.491 538.895 344.181 537.39 Q345.894 535.886 345.894 533.201 Q345.894 530.515 344.181 529.011 Q342.491 527.506 339.482 527.506 Q336.45 527.506 334.76 529.011 Q333.093 530.515 333.093 533.201 Z" fill="#000000" fill-rule="nonzero" fill-opacity="1" /><path clip-path="url(#clip310)" d="M264.182 277.588 Q260.571 277.588 258.742 281.153 Q256.936 284.694 256.936 291.824 Q256.936 298.93 258.742 302.495 Q260.571 306.037 264.182 306.037 Q267.816 306.037 269.621 302.495 Q271.45 298.93 271.45 291.824 Q271.45 284.694 269.621 281.153 Q267.816 277.588 264.182 277.588 M264.182 273.884 Q269.992 273.884 273.047 278.491 Q276.126 283.074 276.126 291.824 Q276.126 300.551 273.047 305.157 Q269.992 309.741 264.182 309.741 Q258.371 309.741 255.293 305.157 Q252.237 300.551 252.237 291.824 Q252.237 283.074 255.293 278.491 Q258.371 273.884 264.182 273.884 Z" fill="#000000" fill-rule="nonzero" fill-opacity="1" /><path clip-path="url(#clip310)" d="M284.344 303.19 L289.228 303.19 L289.228 309.069 L284.344 309.069 L284.344 303.19 Z" fill="#000000" fill-rule="nonzero" fill-opacity="1" /><path clip-path="url(#clip310)" d="M299.552 308.352 L299.552 304.093 Q301.311 304.926 303.117 305.366 Q304.922 305.805 306.658 305.805 Q311.288 305.805 313.718 302.704 Q316.172 299.579 316.519 293.236 Q315.177 295.227 313.117 296.292 Q311.056 297.356 308.556 297.356 Q303.371 297.356 300.339 294.231 Q297.33 291.083 297.33 285.644 Q297.33 280.319 300.478 277.102 Q303.626 273.884 308.857 273.884 Q314.853 273.884 318.001 278.491 Q321.172 283.074 321.172 291.824 Q321.172 299.995 317.283 304.88 Q313.417 309.741 306.867 309.741 Q305.107 309.741 303.302 309.393 Q301.496 309.046 299.552 308.352 M308.857 293.699 Q312.005 293.699 313.834 291.546 Q315.686 289.394 315.686 285.644 Q315.686 281.917 313.834 279.764 Q312.005 277.588 308.857 277.588 Q305.709 277.588 303.857 279.764 Q302.029 281.917 302.029 285.644 Q302.029 289.394 303.857 291.546 Q305.709 293.699 308.857 293.699 Z" fill="#000000" fill-rule="nonzero" fill-opacity="1" /><path clip-path="url(#clip310)" d="M329.714 308.352 L329.714 304.093 Q331.473 304.926 333.278 305.366 Q335.084 305.805 336.82 305.805 Q341.45 305.805 343.88 302.704 Q346.334 299.579 346.681 293.236 Q345.339 295.227 343.278 296.292 Q341.218 297.356 338.718 297.356 Q333.533 297.356 330.501 294.231 Q327.491 291.083 327.491 285.644 Q327.491 280.319 330.64 277.102 Q333.788 273.884 339.019 273.884 Q345.014 273.884 348.163 278.491 Q351.334 283.074 351.334 291.824 Q351.334 299.995 347.445 304.88 Q343.579 309.741 337.028 309.741 Q335.269 309.741 333.464 309.393 Q331.658 309.046 329.714 308.352 M339.019 293.699 Q342.167 293.699 343.996 291.546 Q345.848 289.394 345.848 285.644 Q345.848 281.917 343.996 279.764 Q342.167 277.588 339.019 277.588 Q335.871 277.588 334.019 279.764 Q332.19 281.917 332.19 285.644 Q332.19 289.394 334.019 291.546 Q335.871 293.699 339.019 293.699 Z" fill="#000000" fill-rule="nonzero" fill-opacity="1" /><path clip-path="url(#clip310)" d="M121.861 1082.54 L121.861 1052.5 L127.272 1052.5 L127.272 1076.12 L141.341 1076.12 L141.341 1053.48 L146.751 1053.48 L146.751 1076.12 L163.971 1076.12 L163.971 1051.93 L169.381 1051.93 L169.381 1082.54 L121.861 1082.54 Z" fill="#000000" fill-rule="nonzero" fill-opacity="1" /><path clip-path="url(#clip310)" d="M139.208 1020.96 Q138.635 1021.94 138.38 1023.12 Q138.094 1024.27 138.094 1025.67 Q138.094 1030.63 141.341 1033.31 Q144.555 1035.95 150.603 1035.95 L169.381 1035.95 L169.381 1041.84 L133.734 1041.84 L133.734 1035.95 L139.272 1035.95 Q136.025 1034.1 134.466 1031.14 Q132.874 1028.18 132.874 1023.95 Q132.874 1023.34 132.97 1022.61 Q133.033 1021.88 133.192 1020.99 L139.208 1020.96 Z" fill="#000000" fill-rule="nonzero" fill-opacity="1" /><path clip-path="url(#clip310)" d="M139.208 995.302 Q138.635 996.289 138.38 997.467 Q138.094 998.613 138.094 1000.01 Q138.094 1004.98 141.341 1007.65 Q144.555 1010.29 150.603 1010.29 L169.381 1010.29 L169.381 1016.18 L133.734 1016.18 L133.734 1010.29 L139.272 1010.29 Q136.025 1008.45 134.466 1005.49 Q132.874 1002.53 132.874 998.294 Q132.874 997.69 132.97 996.957 Q133.033 996.225 133.192 995.334 L139.208 995.302 Z" fill="#000000" fill-rule="nonzero" fill-opacity="1" /><path clip-path="url(#clip310)" d="M137.839 976.778 Q137.839 981.489 141.531 984.226 Q145.192 986.963 151.589 986.963 Q157.987 986.963 161.679 984.258 Q165.339 981.521 165.339 976.778 Q165.339 972.099 161.647 969.362 Q157.955 966.625 151.589 966.625 Q145.255 966.625 141.563 969.362 Q137.839 972.099 137.839 976.778 M132.874 976.778 Q132.874 969.139 137.839 964.779 Q142.805 960.418 151.589 960.418 Q160.342 960.418 165.339 964.779 Q170.304 969.139 170.304 976.778 Q170.304 984.449 165.339 988.809 Q160.342 993.138 151.589 993.138 Q142.805 993.138 137.839 988.809 Q132.874 984.449 132.874 976.778 Z" fill="#000000" fill-rule="nonzero" fill-opacity="1" /><path clip-path="url(#clip310)" d="M139.208 930.054 Q138.635 931.041 138.38 932.218 Q138.094 933.364 138.094 934.765 Q138.094 939.73 141.341 942.403 Q144.555 945.045 150.603 945.045 L169.381 945.045 L169.381 950.933 L133.734 950.933 L133.734 945.045 L139.272 945.045 Q136.025 943.199 134.466 940.239 Q132.874 937.279 132.874 933.046 Q132.874 932.441 132.97 931.709 Q133.033 930.977 133.192 930.086 L139.208 930.054 Z" fill="#000000" fill-rule="nonzero" fill-opacity="1" /><path clip-path="url(#clip310)" d="M139.781 902.427 L139.781 861.623 L145.128 861.623 L145.128 902.427 L139.781 902.427 M152.767 902.427 L152.767 861.623 L158.178 861.623 L158.178 902.427 L152.767 902.427 Z" fill="#000000" fill-rule="nonzero" fill-opacity="1" /><path clip-path="url(#clip310)" d="M131.733 833.995 L129.672 833.995 Q129.672 826.073 125.453 821.983 Q125.453 820.855 125.71 820.662 Q125.968 820.469 127.16 820.469 L164.164 820.469 Q166.129 820.469 166.741 819.503 Q167.352 818.537 167.352 814.318 L167.352 812.224 L169.381 812.224 Q169.188 814.543 169.188 822.917 Q169.188 831.29 169.381 833.577 L167.352 833.577 L167.352 831.483 Q167.352 827.329 166.773 826.33 Q166.161 825.332 164.164 825.332 L129.994 825.332 Q131.733 828.778 131.733 833.995 Z" fill="#000000" fill-rule="nonzero" fill-opacity="1" /><path clip-path="url(#clip310)" d="M151.958 739.486 Q152.345 739.1 152.892 739.1 Q153.44 739.1 153.826 739.486 Q154.212 739.873 154.212 740.42 L154.212 781.708 Q154.212 782.256 153.826 782.642 Q153.44 783.029 152.892 783.029 Q152.345 783.029 151.958 782.642 Q151.572 782.256 151.572 781.708 L151.572 740.42 Q151.572 739.873 151.958 739.486 Z" fill="#000000" fill-rule="nonzero" fill-opacity="1" /><path clip-path="url(#clip310)" d="M135.338 661.832 L73.9213 661.832 Q71.4736 661.832 71.4736 660.511 Q71.4736 659.191 73.4382 659.191 L134.855 659.191 Q137.302 659.191 137.302 660.511 Q137.302 661.832 135.338 661.832 Z" fill="#000000" fill-rule="nonzero" fill-opacity="1" /><path clip-path="url(#clip310)" d="M136.046 619.695 Q136.594 619.695 136.98 620.082 Q137.367 620.468 137.367 621.016 Q137.367 621.95 136.497 622.272 L104.839 634.542 Q104.71 634.606 104.388 634.606 Q104.066 634.606 103.937 634.542 L72.2788 622.272 Q71.4092 621.95 71.4092 621.016 Q71.4092 620.468 71.7957 620.082 Q72.1821 619.695 72.7296 619.695 Q73.0517 619.695 73.1805 619.76 L104.388 631.901 L135.595 619.76 Q135.724 619.695 136.046 619.695 Z" fill="#000000" fill-rule="nonzero" fill-opacity="1" /><path clip-path="url(#clip310)" d="M96.3365 569.248 Q98.2689 569.248 101.65 569.988 Q105.032 570.697 106.642 571.277 Q110.926 572.887 114.533 576.108 Q116.53 577.879 117.979 579.811 Q119.396 581.711 120.104 583.128 Q120.781 584.546 121.135 586.22 Q121.522 587.895 121.554 588.668 Q121.618 589.441 121.618 590.536 L131.441 593.048 Q133.985 593.563 134.146 593.821 Q134.275 593.885 134.339 594.046 Q134.404 594.175 134.404 594.304 L134.404 594.433 Q134.404 594.787 134.243 594.98 Q134.082 595.173 133.889 595.206 L133.728 595.206 Q133.277 595.206 127.48 593.692 Q124.517 592.919 121.457 592.243 Q121.135 597.396 118.848 600.584 Q116.562 603.74 112.117 603.74 Q109.38 603.74 100.974 600.552 Q96.9484 599.038 95.2737 599.038 Q94.533 599.038 94.0821 599.199 Q93.599 599.36 93.438 599.682 Q93.2448 600.004 93.2126 600.198 Q93.1804 600.359 93.1804 600.681 Q93.1804 602.581 95.0805 604.352 Q96.9806 606.123 101.361 607.347 Q102.166 607.605 102.359 607.766 Q102.552 607.927 102.552 608.41 Q102.52 609.215 101.876 609.215 Q101.618 609.215 100.62 608.925 Q99.5893 608.636 98.0756 607.959 Q96.5298 607.251 95.1449 606.284 Q93.7279 605.318 92.7295 603.805 Q91.7311 602.259 91.7311 600.487 Q91.7311 598.072 93.3092 596.591 Q94.8551 595.077 97.1417 595.077 Q97.5926 595.077 98.1079 595.173 Q98.6231 595.27 98.913 595.367 Q99.2029 595.431 99.7504 595.624 Q100.266 595.785 100.362 595.818 Q104.613 597.46 107.383 598.297 Q110.121 599.135 110.926 599.264 Q111.699 599.36 112.633 599.36 Q119.138 599.36 120.008 591.856 L76.4333 580.906 Q75.5315 580.713 75.3383 580.552 Q75.1129 580.391 75.1129 579.908 Q75.1129 579.135 75.8214 579.135 Q76.0468 579.135 76.8198 579.328 L120.137 590.214 Q120.137 589.183 120.104 588.539 Q120.072 587.895 119.782 586.542 Q119.46 585.157 118.881 583.998 Q118.301 582.806 117.142 581.132 Q115.95 579.457 114.275 577.815 Q112.182 575.753 108.671 573.918 Q105.161 572.082 102.262 572.082 Q99.0096 572.082 96.6586 574.433 Q96.3365 574.787 96.1433 574.98 Q95.9501 575.141 95.628 575.302 Q95.3059 575.431 94.8873 575.431 Q93.7923 575.431 92.7617 574.401 Q91.7311 573.37 91.7311 572.146 Q91.7311 571.051 92.7939 570.15 Q93.8567 569.248 96.3365 569.248 Z" fill="#000000" fill-rule="nonzero" fill-opacity="1" /><path clip-path="url(#clip310)" d="M135.338 558.511 L73.9213 558.511 Q71.4736 558.511 71.4736 557.19 Q71.4736 555.87 73.4382 555.87 L134.855 555.87 Q137.302 555.87 137.302 557.19 Q137.302 558.511 135.338 558.511 Z" fill="#000000" fill-rule="nonzero" fill-opacity="1" /><path clip-path="url(#clip310)" d="M100.813 507.989 Q104.646 507.989 108.446 509.76 Q112.246 511.532 115.145 514.43 Q118.011 517.297 119.815 521.226 Q121.618 525.123 121.618 529.116 Q121.618 529.825 121.457 531.274 Q133.341 533.528 133.534 533.593 Q134.211 533.883 134.629 534.462 Q135.048 535.01 135.145 535.396 Q135.241 535.783 135.241 536.04 Q135.241 536.685 134.79 537.329 Q134.372 537.941 133.405 537.941 Q133.18 537.941 132.085 537.619 L121.006 534.108 Q119.782 539.422 116.401 542.482 Q112.987 545.541 108.349 545.541 Q105.386 545.541 101.522 544.189 Q97.657 542.836 95.0483 541.193 Q92.4396 539.551 92.4396 538.617 Q92.4396 537.812 93.1159 537.812 Q93.3736 537.812 93.9533 538.327 Q96.9484 540.936 101.264 542.385 Q105.547 543.802 107.609 543.802 Q111.216 543.802 113.824 541.032 Q116.401 538.23 117.367 532.981 Q107.254 529.857 103.003 527.989 Q94.5652 524.221 92.504 519.326 Q91.7311 517.522 91.7311 515.525 Q91.7311 511.918 94.2754 509.954 Q96.7874 507.989 100.813 507.989 M102.262 509.857 Q100.555 509.857 99.1062 510.469 Q97.657 511.049 96.6264 512.53 Q95.5636 514.012 95.5636 516.169 Q95.5636 520.485 99.7181 524.092 Q103.873 527.699 110.314 529.245 L117.464 530.565 Q117.721 530.565 117.721 529.696 Q117.786 529.181 117.786 528.504 Q117.786 524.833 116.401 521.355 Q115.016 517.844 112.826 515.364 Q110.636 512.884 107.834 511.371 Q105.032 509.857 102.262 509.857 Z" fill="#000000" fill-rule="nonzero" fill-opacity="1" /><path clip-path="url(#clip310)" d="M103.937 488.014 Q104.066 487.95 104.388 487.95 Q104.71 487.95 104.839 488.014 L136.497 500.285 Q137.367 500.607 137.367 501.509 Q137.367 502.056 136.98 502.443 Q136.594 502.829 136.046 502.829 Q135.724 502.829 135.595 502.765 L104.388 490.655 L73.1805 502.765 Q73.0517 502.829 72.7296 502.829 Q72.1821 502.829 71.7957 502.443 Q71.4092 502.056 71.4092 501.509 Q71.4092 500.607 72.2788 500.285 L103.937 488.014 Z" fill="#000000" fill-rule="nonzero" fill-opacity="1" /><path clip-path="url(#clip310)" d="M135.338 477.438 L73.9213 477.438 Q71.4736 477.438 71.4736 476.117 Q71.4736 474.797 73.4382 474.797 L134.855 474.797 Q137.302 474.797 137.302 476.117 Q137.302 477.438 135.338 477.438 Z" fill="#000000" fill-rule="nonzero" fill-opacity="1" /><path clip-path="url(#clip310)" d="M70.6664 446.552 L80.924 447.995 L80.924 467.789 L80.0898 467.789 Q79.3684 467.789 79.1655 467.721 Q78.9401 467.631 78.5343 467.202 L69.0658 457.914 Q64.0159 452.932 59.462 452.932 Q56.7116 452.932 54.7953 454.555 Q52.8566 456.178 52.8566 459.019 Q52.8566 461.859 54.4572 463.776 Q54.5474 463.415 54.7277 463.054 Q54.9081 462.694 55.2913 462.22 Q55.652 461.747 56.3058 461.454 Q56.9596 461.138 57.7937 461.138 Q59.3943 461.138 60.251 462.175 Q61.1077 463.19 61.1077 464.475 Q61.1077 464.948 60.9499 465.466 Q60.7921 465.985 60.4539 466.549 Q60.0932 467.09 59.3943 467.45 Q58.6729 467.789 57.7035 467.789 Q54.6375 467.789 52.6762 464.948 Q50.6923 462.107 50.6923 457.869 Q50.6923 452.909 53.082 449.731 Q55.4717 446.552 59.4169 446.552 Q60.7019 446.552 61.8066 446.913 Q62.8887 447.251 63.813 447.905 Q64.7373 448.536 65.7067 449.55 Q66.6535 450.565 67.6004 451.782 Q68.5247 452.977 69.697 454.578 Q69.7872 454.713 69.8323 454.781 Q71.5682 457.125 75.1527 461.431 L75.1527 454.645 Q75.1527 450.452 74.8821 449.934 Q74.5665 449.28 70.6664 448.716 L70.6664 446.552 Z" fill="#000000" fill-rule="nonzero" fill-opacity="1" /><path clip-path="url(#clip310)" d="M154.806 699.832 L154.806 394.92 L151.286 394.92 L151.286 699.832  Z" fill="#000000" fill-rule="evenodd" fill-opacity="1"/>
<path clip-path="url(#clip310)" d="M233.054 684.92 Q233.602 684.92 233.988 685.307 Q234.375 685.693 234.375 686.241 Q234.375 687.175 233.505 687.497 L201.847 699.767 Q201.718 699.832 201.396 699.832 Q201.074 699.832 200.945 699.767 L169.287 687.497 Q168.417 687.175 168.417 686.241 Q168.417 685.693 168.804 685.307 Q169.19 684.92 169.738 684.92 Q170.06 684.92 170.189 684.985 L201.396 697.126 L232.604 684.985 Q232.732 684.92 233.054 684.92 Z" fill="#000000" fill-rule="nonzero" fill-opacity="1" /><path clip-path="url(#clip310)" d="M193.345 634.473 Q195.277 634.473 198.659 635.214 Q202.04 635.922 203.651 636.502 Q207.934 638.112 211.541 641.333 Q213.538 643.104 214.987 645.037 Q216.404 646.937 217.113 648.354 Q217.789 649.771 218.143 651.446 Q218.53 653.12 218.562 653.893 Q218.626 654.666 218.626 655.761 L228.449 658.273 Q230.993 658.789 231.154 659.046 Q231.283 659.111 231.348 659.272 Q231.412 659.4 231.412 659.529 L231.412 659.658 Q231.412 660.012 231.251 660.206 Q231.09 660.399 230.897 660.431 L230.736 660.431 Q230.285 660.431 224.488 658.917 Q221.525 658.144 218.465 657.468 Q218.143 662.621 215.857 665.809 Q213.57 668.966 209.126 668.966 Q206.388 668.966 197.982 665.777 Q193.957 664.264 192.282 664.264 Q191.541 664.264 191.09 664.425 Q190.607 664.586 190.446 664.908 Q190.253 665.23 190.221 665.423 Q190.188 665.584 190.188 665.906 Q190.188 667.806 192.089 669.577 Q193.989 671.349 198.369 672.573 Q199.174 672.83 199.367 672.991 Q199.56 673.152 199.56 673.635 Q199.528 674.441 198.884 674.441 Q198.626 674.441 197.628 674.151 Q196.597 673.861 195.084 673.185 Q193.538 672.476 192.153 671.51 Q190.736 670.544 189.738 669.03 Q188.739 667.484 188.739 665.713 Q188.739 663.297 190.317 661.816 Q191.863 660.302 194.15 660.302 Q194.601 660.302 195.116 660.399 Q195.631 660.495 195.921 660.592 Q196.211 660.656 196.758 660.85 Q197.274 661.011 197.37 661.043 Q201.622 662.685 204.391 663.523 Q207.129 664.36 207.934 664.489 Q208.707 664.586 209.641 664.586 Q216.146 664.586 217.016 657.082 L173.441 646.132 Q172.54 645.938 172.346 645.777 Q172.121 645.616 172.121 645.133 Q172.121 644.36 172.83 644.36 Q173.055 644.36 173.828 644.554 L217.145 655.439 Q217.145 654.409 217.113 653.764 Q217.08 653.12 216.791 651.768 Q216.468 650.383 215.889 649.223 Q215.309 648.032 214.15 646.357 Q212.958 644.682 211.283 643.04 Q209.19 640.979 205.68 639.143 Q202.169 637.307 199.271 637.307 Q196.018 637.307 193.667 639.658 Q193.345 640.013 193.151 640.206 Q192.958 640.367 192.636 640.528 Q192.314 640.657 191.895 640.657 Q190.8 640.657 189.77 639.626 Q188.739 638.595 188.739 637.372 Q188.739 636.277 189.802 635.375 Q190.865 634.473 193.345 634.473 Z" fill="#000000" fill-rule="nonzero" fill-opacity="1" /><path clip-path="url(#clip310)" d="M232.346 623.736 L170.929 623.736 Q168.482 623.736 168.482 622.415 Q168.482 621.095 170.446 621.095 L231.863 621.095 Q234.311 621.095 234.311 622.415 Q234.311 623.736 232.346 623.736 Z" fill="#000000" fill-rule="nonzero" fill-opacity="1" /><path clip-path="url(#clip310)" d="M193.345 572.383 Q195.277 572.383 198.659 573.124 Q202.04 573.832 203.651 574.412 Q207.934 576.022 211.541 579.243 Q213.538 581.014 214.987 582.947 Q216.404 584.847 217.113 586.264 Q217.789 587.681 218.143 589.356 Q218.53 591.03 218.562 591.803 Q218.626 592.576 218.626 593.671 L228.449 596.183 Q230.993 596.698 231.154 596.956 Q231.283 597.021 231.348 597.182 Q231.412 597.31 231.412 597.439 L231.412 597.568 Q231.412 597.922 231.251 598.116 Q231.09 598.309 230.897 598.341 L230.736 598.341 Q230.285 598.341 224.488 596.827 Q221.525 596.054 218.465 595.378 Q218.143 600.531 215.857 603.719 Q213.57 606.876 209.126 606.876 Q206.388 606.876 197.982 603.687 Q193.957 602.173 192.282 602.173 Q191.541 602.173 191.09 602.335 Q190.607 602.496 190.446 602.818 Q190.253 603.14 190.221 603.333 Q190.188 603.494 190.188 603.816 Q190.188 605.716 192.089 607.487 Q193.989 609.259 198.369 610.483 Q199.174 610.74 199.367 610.901 Q199.56 611.062 199.56 611.545 Q199.528 612.351 198.884 612.351 Q198.626 612.351 197.628 612.061 Q196.597 611.771 195.084 611.095 Q193.538 610.386 192.153 609.42 Q190.736 608.454 189.738 606.94 Q188.739 605.394 188.739 603.623 Q188.739 601.207 190.317 599.726 Q191.863 598.212 194.15 598.212 Q194.601 598.212 195.116 598.309 Q195.631 598.405 195.921 598.502 Q196.211 598.566 196.758 598.76 Q197.274 598.921 197.37 598.953 Q201.622 600.595 204.391 601.433 Q207.129 602.27 207.934 602.399 Q208.707 602.496 209.641 602.496 Q216.146 602.496 217.016 594.992 L173.441 584.042 Q172.54 583.848 172.346 583.687 Q172.121 583.526 172.121 583.043 Q172.121 582.27 172.83 582.27 Q173.055 582.27 173.828 582.463 L217.145 593.349 Q217.145 592.318 217.113 591.674 Q217.08 591.03 216.791 589.678 Q216.468 588.293 215.889 587.133 Q215.309 585.942 214.15 584.267 Q212.958 582.592 211.283 580.95 Q209.19 578.889 205.68 577.053 Q202.169 575.217 199.271 575.217 Q196.018 575.217 193.667 577.568 Q193.345 577.922 193.151 578.116 Q192.958 578.277 192.636 578.438 Q192.314 578.567 191.895 578.567 Q190.8 578.567 189.77 577.536 Q188.739 576.505 188.739 575.282 Q188.739 574.187 189.802 573.285 Q190.865 572.383 193.345 572.383 Z" fill="#000000" fill-rule="nonzero" fill-opacity="1" /><path clip-path="url(#clip310)" d="M200.945 555.015 Q201.074 554.951 201.396 554.951 Q201.718 554.951 201.847 555.015 L233.505 567.286 Q234.375 567.608 234.375 568.509 Q234.375 569.057 233.988 569.443 Q233.602 569.83 233.054 569.83 Q232.732 569.83 232.604 569.765 L201.396 557.656 L170.189 569.765 Q170.06 569.83 169.738 569.83 Q169.19 569.83 168.804 569.443 Q168.417 569.057 168.417 568.509 Q168.417 567.608 169.287 567.286 L200.945 555.015 Z" fill="#000000" fill-rule="nonzero" fill-opacity="1" /><path clip-path="url(#clip310)" d="M233.054 529.527 Q233.602 529.527 233.988 529.914 Q234.375 530.3 234.375 530.848 Q234.375 531.782 233.505 532.104 L201.847 544.374 Q201.718 544.439 201.396 544.439 Q201.074 544.439 200.945 544.374 L169.287 532.104 Q168.417 531.782 168.417 530.848 Q168.417 530.3 168.804 529.914 Q169.19 529.527 169.738 529.527 Q170.06 529.527 170.189 529.592 L201.396 541.733 L232.604 529.592 Q232.732 529.527 233.054 529.527 Z" fill="#000000" fill-rule="nonzero" fill-opacity="1" /><path clip-path="url(#clip310)" d="M197.821 481.495 Q201.654 481.495 205.454 483.267 Q209.254 485.038 212.153 487.937 Q215.019 490.803 216.823 494.732 Q218.626 498.629 218.626 502.622 Q218.626 503.331 218.465 504.78 Q230.349 507.035 230.542 507.099 Q231.219 507.389 231.637 507.969 Q232.056 508.516 232.153 508.903 Q232.249 509.289 232.249 509.547 Q232.249 510.191 231.798 510.835 Q231.38 511.447 230.414 511.447 Q230.188 511.447 229.093 511.125 L218.014 507.614 Q216.791 512.928 213.409 515.988 Q209.995 519.047 205.357 519.047 Q202.395 519.047 198.53 517.695 Q194.665 516.342 192.056 514.7 Q189.448 513.057 189.448 512.123 Q189.448 511.318 190.124 511.318 Q190.382 511.318 190.961 511.833 Q193.957 514.442 198.272 515.891 Q202.556 517.308 204.617 517.308 Q208.224 517.308 210.832 514.539 Q213.409 511.737 214.375 506.487 Q204.262 503.363 200.011 501.495 Q191.573 497.727 189.512 492.832 Q188.739 491.028 188.739 489.032 Q188.739 485.425 191.283 483.46 Q193.796 481.495 197.821 481.495 M199.271 483.363 Q197.564 483.363 196.114 483.975 Q194.665 484.555 193.635 486.036 Q192.572 487.518 192.572 489.676 Q192.572 493.991 196.726 497.598 Q200.881 501.205 207.322 502.751 L214.472 504.072 Q214.729 504.072 214.729 503.202 Q214.794 502.687 214.794 502.011 Q214.794 498.339 213.409 494.861 Q212.024 491.35 209.834 488.871 Q207.644 486.391 204.842 484.877 Q202.04 483.363 199.271 483.363 Z" fill="#000000" fill-rule="nonzero" fill-opacity="1" /><path clip-path="url(#clip310)" d="M232.346 472.375 L170.929 472.375 Q168.482 472.375 168.482 471.055 Q168.482 469.734 170.446 469.734 L231.863 469.734 Q234.311 469.734 234.311 471.055 Q234.311 472.375 232.346 472.375 Z" fill="#000000" fill-rule="nonzero" fill-opacity="1" /><path clip-path="url(#clip310)" d="M197.821 421.854 Q201.654 421.854 205.454 423.625 Q209.254 425.397 212.153 428.295 Q215.019 431.161 216.823 435.091 Q218.626 438.987 218.626 442.981 Q218.626 443.69 218.465 445.139 Q230.349 447.393 230.542 447.458 Q231.219 447.747 231.637 448.327 Q232.056 448.875 232.153 449.261 Q232.249 449.648 232.249 449.905 Q232.249 450.549 231.798 451.194 Q231.38 451.805 230.414 451.805 Q230.188 451.805 229.093 451.483 L218.014 447.973 Q216.791 453.287 213.409 456.346 Q209.995 459.406 205.357 459.406 Q202.395 459.406 198.53 458.053 Q194.665 456.701 192.056 455.058 Q189.448 453.416 189.448 452.482 Q189.448 451.677 190.124 451.677 Q190.382 451.677 190.961 452.192 Q193.957 454.801 198.272 456.25 Q202.556 457.667 204.617 457.667 Q208.224 457.667 210.832 454.897 Q213.409 452.095 214.375 446.846 Q204.262 443.722 200.011 441.854 Q191.573 438.086 189.512 433.19 Q188.739 431.387 188.739 429.39 Q188.739 425.783 191.283 423.819 Q193.796 421.854 197.821 421.854 M199.271 423.722 Q197.564 423.722 196.114 424.334 Q194.665 424.914 193.635 426.395 Q192.572 427.876 192.572 430.034 Q192.572 434.35 196.726 437.957 Q200.881 441.564 207.322 443.11 L214.472 444.43 Q214.729 444.43 214.729 443.561 Q214.794 443.045 214.794 442.369 Q214.794 438.698 213.409 435.219 Q212.024 431.709 209.834 429.229 Q207.644 426.749 204.842 425.236 Q202.04 423.722 199.271 423.722 Z" fill="#000000" fill-rule="nonzero" fill-opacity="1" /><path clip-path="url(#clip310)" d="M200.945 401.879 Q201.074 401.815 201.396 401.815 Q201.718 401.815 201.847 401.879 L233.505 414.15 Q234.375 414.472 234.375 415.373 Q234.375 415.921 233.988 416.307 Q233.602 416.694 233.054 416.694 Q232.732 416.694 232.604 416.63 L201.396 404.52 L170.189 416.63 Q170.06 416.694 169.738 416.694 Q169.19 416.694 168.804 416.307 Q168.417 415.921 168.417 415.373 Q168.417 414.472 169.287 414.15 L200.945 401.879 Z" fill="#000000" fill-rule="nonzero" fill-opacity="1" /><circle clip-path="url(#clip312)" cx="442.959" cy="1384.24" r="14.4" fill="#009af9" fill-rule="evenodd" fill-opacity="1" stroke="#000000" stroke-opacity="1" stroke-width="3.2"/>
<circle clip-path="url(#clip312)" cx="490.866" cy="1356.52" r="14.4" fill="#009af9" fill-rule="evenodd" fill-opacity="1" stroke="#000000" stroke-opacity="1" stroke-width="3.2"/>
<circle clip-path="url(#clip312)" cx="534.601" cy="1049.83" r="14.4" fill="#009af9" fill-rule="evenodd" fill-opacity="1" stroke="#000000" stroke-opacity="1" stroke-width="3.2"/>
<circle clip-path="url(#clip312)" cx="574.833" cy="898.14" r="14.4" fill="#009af9" fill-rule="evenodd" fill-opacity="1" stroke="#000000" stroke-opacity="1" stroke-width="3.2"/>
<circle clip-path="url(#clip312)" cx="612.083" cy="800.112" r="14.4" fill="#009af9" fill-rule="evenodd" fill-opacity="1" stroke="#000000" stroke-opacity="1" stroke-width="3.2"/>
<circle clip-path="url(#clip312)" cx="646.761" cy="761.465" r="14.4" fill="#009af9" fill-rule="evenodd" fill-opacity="1" stroke="#000000" stroke-opacity="1" stroke-width="3.2"/>
<circle clip-path="url(#clip312)" cx="679.201" cy="674.89" r="14.4" fill="#009af9" fill-rule="evenodd" fill-opacity="1" stroke="#000000" stroke-opacity="1" stroke-width="3.2"/>
<circle clip-path="url(#clip312)" cx="709.673" cy="661.987" r="14.4" fill="#009af9" fill-rule="evenodd" fill-opacity="1" stroke="#000000" stroke-opacity="1" stroke-width="3.2"/>
<circle clip-path="url(#clip312)" cx="738.403" cy="625.13" r="14.4" fill="#009af9" fill-rule="evenodd" fill-opacity="1" stroke="#000000" stroke-opacity="1" stroke-width="3.2"/>
<circle clip-path="url(#clip312)" cx="765.579" cy="552.461" r="14.4" fill="#009af9" fill-rule="evenodd" fill-opacity="1" stroke="#000000" stroke-opacity="1" stroke-width="3.2"/>
<circle clip-path="url(#clip312)" cx="791.361" cy="535.981" r="14.4" fill="#009af9" fill-rule="evenodd" fill-opacity="1" stroke="#000000" stroke-opacity="1" stroke-width="3.2"/>
<circle clip-path="url(#clip312)" cx="883.003" cy="437.408" r="14.4" fill="#009af9" fill-rule="evenodd" fill-opacity="1" stroke="#000000" stroke-opacity="1" stroke-width="3.2"/>
<circle clip-path="url(#clip312)" cx="960.485" cy="357.997" r="14.4" fill="#009af9" fill-rule="evenodd" fill-opacity="1" stroke="#000000" stroke-opacity="1" stroke-width="3.2"/>
<circle clip-path="url(#clip312)" cx="1027.6" cy="314.487" r="14.4" fill="#009af9" fill-rule="evenodd" fill-opacity="1" stroke="#000000" stroke-opacity="1" stroke-width="3.2"/>
<circle clip-path="url(#clip312)" cx="1086.81" cy="284.968" r="14.4" fill="#009af9" fill-rule="evenodd" fill-opacity="1" stroke="#000000" stroke-opacity="1" stroke-width="3.2"/>
<circle clip-path="url(#clip312)" cx="1139.76" cy="261.494" r="14.4" fill="#009af9" fill-rule="evenodd" fill-opacity="1" stroke="#000000" stroke-opacity="1" stroke-width="3.2"/>
<circle clip-path="url(#clip312)" cx="1187.67" cy="237.006" r="14.4" fill="#009af9" fill-rule="evenodd" fill-opacity="1" stroke="#000000" stroke-opacity="1" stroke-width="3.2"/>
<circle clip-path="url(#clip312)" cx="1231.41" cy="224.433" r="14.4" fill="#009af9" fill-rule="evenodd" fill-opacity="1" stroke="#000000" stroke-opacity="1" stroke-width="3.2"/>
<circle clip-path="url(#clip312)" cx="1271.64" cy="196.023" r="14.4" fill="#009af9" fill-rule="evenodd" fill-opacity="1" stroke="#000000" stroke-opacity="1" stroke-width="3.2"/>
<circle clip-path="url(#clip312)" cx="1308.89" cy="195.817" r="14.4" fill="#009af9" fill-rule="evenodd" fill-opacity="1" stroke="#000000" stroke-opacity="1" stroke-width="3.2"/>
<circle clip-path="url(#clip312)" cx="1343.57" cy="184.423" r="14.4" fill="#009af9" fill-rule="evenodd" fill-opacity="1" stroke="#000000" stroke-opacity="1" stroke-width="3.2"/>
<circle clip-path="url(#clip312)" cx="1421.05" cy="167.51" r="14.4" fill="#009af9" fill-rule="evenodd" fill-opacity="1" stroke="#000000" stroke-opacity="1" stroke-width="3.2"/>
<circle clip-path="url(#clip312)" cx="1488.17" cy="154.505" r="14.4" fill="#009af9" fill-rule="evenodd" fill-opacity="1" stroke="#000000" stroke-opacity="1" stroke-width="3.2"/>
<circle clip-path="url(#clip312)" cx="1547.37" cy="146.6" r="14.4" fill="#009af9" fill-rule="evenodd" fill-opacity="1" stroke="#000000" stroke-opacity="1" stroke-width="3.2"/>
<circle clip-path="url(#clip312)" cx="1600.33" cy="138.101" r="14.4" fill="#009af9" fill-rule="evenodd" fill-opacity="1" stroke="#000000" stroke-opacity="1" stroke-width="3.2"/>
<circle clip-path="url(#clip312)" cx="1691.97" cy="124.731" r="14.4" fill="#009af9" fill-rule="evenodd" fill-opacity="1" stroke="#000000" stroke-opacity="1" stroke-width="3.2"/>
<circle clip-path="url(#clip312)" cx="1769.45" cy="117.436" r="14.4" fill="#009af9" fill-rule="evenodd" fill-opacity="1" stroke="#000000" stroke-opacity="1" stroke-width="3.2"/>
<circle clip-path="url(#clip312)" cx="1836.57" cy="110.896" r="14.4" fill="#009af9" fill-rule="evenodd" fill-opacity="1" stroke="#000000" stroke-opacity="1" stroke-width="3.2"/>
<circle clip-path="url(#clip312)" cx="1895.77" cy="105.87" r="14.4" fill="#009af9" fill-rule="evenodd" fill-opacity="1" stroke="#000000" stroke-opacity="1" stroke-width="3.2"/>
<circle clip-path="url(#clip312)" cx="1948.73" cy="101.525" r="14.4" fill="#009af9" fill-rule="evenodd" fill-opacity="1" stroke="#000000" stroke-opacity="1" stroke-width="3.2"/>
<circle clip-path="url(#clip312)" cx="2152.53" cy="90.9581" r="14.4" fill="#009af9" fill-rule="evenodd" fill-opacity="1" stroke="#000000" stroke-opacity="1" stroke-width="3.2"/>
<circle clip-path="url(#clip312)" cx="2297.13" cy="86.1857" r="14.4" fill="#009af9" fill-rule="evenodd" fill-opacity="1" stroke="#000000" stroke-opacity="1" stroke-width="3.2"/>
</svg>
