<?xml version="1.0" encoding="utf-8"?>
<svg xmlns="http://www.w3.org/2000/svg" xmlns:xlink="http://www.w3.org/1999/xlink" width="600" height="400" viewBox="0 0 2400 1600">
<defs>
  <clipPath id="clip010">
    <rect x="0" y="0" width="2400" height="1600"/>
  </clipPath>
</defs>
<path clip-path="url(#clip010)" d="M0 1600 L2400 1600 L2400 0 L0 0  Z" fill="#ffffff" fill-rule="evenodd" fill-opacity="1"/>
<defs>
  <clipPath id="clip011">
    <rect x="480" y="0" width="1681" height="1600"/>
  </clipPath>
</defs>
<path clip-path="url(#clip010)" d="M387.658 1423.18 L2352.76 1423.18 L2352.76 47.2441 L387.658 47.2441  Z" fill="#ffffff" fill-rule="evenodd" fill-opacity="1"/>
<defs>
  <clipPath id="clip012">
    <rect x="387" y="47" width="1966" height="1377"/>
  </clipPath>
</defs>
<polyline clip-path="url(#clip012)" style="stroke:#000000; stroke-linecap:round; stroke-linejoin:round; stroke-width:2; stroke-opacity:0.1; fill:none" points="405.44,1423.18 405.44,47.2441 "/>
<polyline clip-path="url(#clip012)" style="stroke:#000000; stroke-linecap:round; stroke-linejoin:round; stroke-width:2; stroke-opacity:0.1; fill:none" points="783.78,1423.18 783.78,47.2441 "/>
<polyline clip-path="url(#clip012)" style="stroke:#000000; stroke-linecap:round; stroke-linejoin:round; stroke-width:2; stroke-opacity:0.1; fill:none" points="1162.12,1423.18 1162.12,47.2441 "/>
<polyline clip-path="url(#clip012)" style="stroke:#000000; stroke-linecap:round; stroke-linejoin:round; stroke-width:2; stroke-opacity:0.1; fill:none" points="1540.46,1423.18 1540.46,47.2441 "/>
<polyline clip-path="url(#clip012)" style="stroke:#000000; stroke-linecap:round; stroke-linejoin:round; stroke-width:2; stroke-opacity:0.1; fill:none" points="1918.8,1423.18 1918.8,47.2441 "/>
<polyline clip-path="url(#clip012)" style="stroke:#000000; stroke-linecap:round; stroke-linejoin:round; stroke-width:2; stroke-opacity:0.1; fill:none" points="2297.14,1423.18 2297.14,47.2441 "/>
<polyline clip-path="url(#clip010)" style="stroke:#000000; stroke-linecap:round; stroke-linejoin:round; stroke-width:4; stroke-opacity:1; fill:none" points="387.658,1423.18 2352.76,1423.18 "/>
<polyline clip-path="url(#clip010)" style="stroke:#000000; stroke-linecap:round; stroke-linejoin:round; stroke-width:4; stroke-opacity:1; fill:none" points="405.44,1423.18 405.44,1404.28 "/>
<polyline clip-path="url(#clip010)" style="stroke:#000000; stroke-linecap:round; stroke-linejoin:round; stroke-width:4; stroke-opacity:1; fill:none" points="783.78,1423.18 783.78,1404.28 "/>
<polyline clip-path="url(#clip010)" style="stroke:#000000; stroke-linecap:round; stroke-linejoin:round; stroke-width:4; stroke-opacity:1; fill:none" points="1162.12,1423.18 1162.12,1404.28 "/>
<polyline clip-path="url(#clip010)" style="stroke:#000000; stroke-linecap:round; stroke-linejoin:round; stroke-width:4; stroke-opacity:1; fill:none" points="1540.46,1423.18 1540.46,1404.28 "/>
<polyline clip-path="url(#clip010)" style="stroke:#000000; stroke-linecap:round; stroke-linejoin:round; stroke-width:4; stroke-opacity:1; fill:none" points="1918.8,1423.18 1918.8,1404.28 "/>
<polyline clip-path="url(#clip010)" style="stroke:#000000; stroke-linecap:round; stroke-linejoin:round; stroke-width:4; stroke-opacity:1; fill:none" points="2297.14,1423.18 2297.14,1404.28 "/>
<path clip-path="url(#clip010)" d="M405.44 1454.1 Q401.829 1454.1 400 1457.66 Q398.195 1461.2 398.195 1468.33 Q398.195 1475.44 400 1479.01 Q401.829 1482.55 405.44 1482.55 Q409.074 1482.55 410.88 1479.01 Q412.708 1475.44 412.708 1468.33 Q412.708 1461.2 410.88 1457.66 Q409.074 1454.1 405.44 1454.1 M405.44 1450.39 Q411.25 1450.39 414.306 1455 Q417.384 1459.58 417.384 1468.33 Q417.384 1477.06 414.306 1481.67 Q411.25 1486.25 405.44 1486.25 Q399.63 1486.25 396.551 1481.67 Q393.496 1477.06 393.496 1468.33 Q393.496 1459.58 396.551 1455 Q399.63 1450.39 405.44 1450.39 Z" fill="#000000" fill-rule="nonzero" fill-opacity="1" /><path clip-path="url(#clip010)" d="M758.468 1481.64 L766.106 1481.64 L766.106 1455.28 L757.796 1456.95 L757.796 1452.69 L766.06 1451.02 L770.736 1451.02 L770.736 1481.64 L778.375 1481.64 L778.375 1485.58 L758.468 1485.58 L758.468 1481.64 Z" fill="#000000" fill-rule="nonzero" fill-opacity="1" /><path clip-path="url(#clip010)" d="M797.819 1454.1 Q794.208 1454.1 792.379 1457.66 Q790.574 1461.2 790.574 1468.33 Q790.574 1475.44 792.379 1479.01 Q794.208 1482.55 797.819 1482.55 Q801.453 1482.55 803.259 1479.01 Q805.088 1475.44 805.088 1468.33 Q805.088 1461.2 803.259 1457.66 Q801.453 1454.1 797.819 1454.1 M797.819 1450.39 Q803.629 1450.39 806.685 1455 Q809.764 1459.58 809.764 1468.33 Q809.764 1477.06 806.685 1481.67 Q803.629 1486.25 797.819 1486.25 Q792.009 1486.25 788.93 1481.67 Q785.875 1477.06 785.875 1468.33 Q785.875 1459.58 788.93 1455 Q792.009 1450.39 797.819 1450.39 Z" fill="#000000" fill-rule="nonzero" fill-opacity="1" /><path clip-path="url(#clip010)" d="M1140.89 1481.64 L1157.21 1481.64 L1157.21 1485.58 L1135.27 1485.58 L1135.27 1481.64 Q1137.93 1478.89 1142.51 1474.26 Q1147.12 1469.61 1148.3 1468.27 Q1150.55 1465.74 1151.43 1464.01 Q1152.33 1462.25 1152.33 1460.56 Q1152.33 1457.8 1150.38 1456.07 Q1148.46 1454.33 1145.36 1454.33 Q1143.16 1454.33 1140.71 1455.09 Q1138.28 1455.86 1135.5 1457.41 L1135.5 1452.69 Q1138.32 1451.55 1140.78 1450.97 Q1143.23 1450.39 1145.27 1450.39 Q1150.64 1450.39 1153.83 1453.08 Q1157.03 1455.77 1157.03 1460.26 Q1157.03 1462.39 1156.22 1464.31 Q1155.43 1466.2 1153.32 1468.8 Q1152.74 1469.47 1149.64 1472.69 Q1146.54 1475.88 1140.89 1481.64 Z" fill="#000000" fill-rule="nonzero" fill-opacity="1" /><path clip-path="url(#clip010)" d="M1177.03 1454.1 Q1173.42 1454.1 1171.59 1457.66 Q1169.78 1461.2 1169.78 1468.33 Q1169.78 1475.44 1171.59 1479.01 Q1173.42 1482.55 1177.03 1482.55 Q1180.66 1482.55 1182.47 1479.01 Q1184.3 1475.44 1184.3 1468.33 Q1184.3 1461.2 1182.47 1457.66 Q1180.66 1454.1 1177.03 1454.1 M1177.03 1450.39 Q1182.84 1450.39 1185.89 1455 Q1188.97 1459.58 1188.97 1468.33 Q1188.97 1477.06 1185.89 1481.67 Q1182.84 1486.25 1177.03 1486.25 Q1171.22 1486.25 1168.14 1481.67 Q1165.08 1477.06 1165.08 1468.33 Q1165.08 1459.58 1168.14 1455 Q1171.22 1450.39 1177.03 1450.39 Z" fill="#000000" fill-rule="nonzero" fill-opacity="1" /><path clip-path="url(#clip010)" d="M1529.3 1466.95 Q1532.66 1467.66 1534.53 1469.93 Q1536.43 1472.2 1536.43 1475.53 Q1536.43 1480.65 1532.91 1483.45 Q1529.4 1486.25 1522.91 1486.25 Q1520.74 1486.25 1518.42 1485.81 Q1516.13 1485.39 1513.68 1484.54 L1513.68 1480.02 Q1515.62 1481.16 1517.94 1481.74 Q1520.25 1482.32 1522.77 1482.32 Q1527.17 1482.32 1529.46 1480.58 Q1531.78 1478.84 1531.78 1475.53 Q1531.78 1472.48 1529.63 1470.77 Q1527.5 1469.03 1523.68 1469.03 L1519.65 1469.03 L1519.65 1465.19 L1523.86 1465.19 Q1527.31 1465.19 1529.14 1463.82 Q1530.97 1462.43 1530.97 1459.84 Q1530.97 1457.18 1529.07 1455.77 Q1527.2 1454.33 1523.68 1454.33 Q1521.76 1454.33 1519.56 1454.75 Q1517.36 1455.16 1514.72 1456.04 L1514.72 1451.88 Q1517.38 1451.14 1519.7 1450.77 Q1522.03 1450.39 1524.09 1450.39 Q1529.42 1450.39 1532.52 1452.83 Q1535.62 1455.23 1535.62 1459.35 Q1535.62 1462.22 1533.98 1464.21 Q1532.33 1466.18 1529.3 1466.95 Z" fill="#000000" fill-rule="nonzero" fill-opacity="1" /><path clip-path="url(#clip010)" d="M1555.3 1454.1 Q1551.69 1454.1 1549.86 1457.66 Q1548.05 1461.2 1548.05 1468.33 Q1548.05 1475.44 1549.86 1479.01 Q1551.69 1482.55 1555.3 1482.55 Q1558.93 1482.55 1560.74 1479.01 Q1562.57 1475.44 1562.57 1468.33 Q1562.57 1461.2 1560.74 1457.66 Q1558.93 1454.1 1555.3 1454.1 M1555.3 1450.39 Q1561.11 1450.39 1564.16 1455 Q1567.24 1459.58 1567.24 1468.33 Q1567.24 1477.06 1564.16 1481.67 Q1561.11 1486.25 1555.3 1486.25 Q1549.49 1486.25 1546.41 1481.67 Q1543.35 1477.06 1543.35 1468.33 Q1543.35 1459.58 1546.41 1455 Q1549.49 1450.39 1555.3 1450.39 Z" fill="#000000" fill-rule="nonzero" fill-opacity="1" /><path clip-path="url(#clip010)" d="M1906.97 1455.09 L1895.17 1473.54 L1906.97 1473.54 L1906.97 1455.09 M1905.74 1451.02 L1911.62 1451.02 L1911.62 1473.54 L1916.55 1473.54 L1916.55 1477.43 L1911.62 1477.43 L1911.62 1485.58 L1906.97 1485.58 L1906.97 1477.43 L1891.37 1477.43 L1891.37 1472.92 L1905.74 1451.02 Z" fill="#000000" fill-rule="nonzero" fill-opacity="1" /><path clip-path="url(#clip010)" d="M1934.29 1454.1 Q1930.67 1454.1 1928.85 1457.66 Q1927.04 1461.2 1927.04 1468.33 Q1927.04 1475.44 1928.85 1479.01 Q1930.67 1482.55 1934.29 1482.55 Q1937.92 1482.55 1939.73 1479.01 Q1941.55 1475.44 1941.55 1468.33 Q1941.55 1461.2 1939.73 1457.66 Q1937.92 1454.1 1934.29 1454.1 M1934.29 1450.39 Q1940.1 1450.39 1943.15 1455 Q1946.23 1459.58 1946.23 1468.33 Q1946.23 1477.06 1943.15 1481.67 Q1940.1 1486.25 1934.29 1486.25 Q1928.48 1486.25 1925.4 1481.67 Q1922.34 1477.06 1922.34 1468.33 Q1922.34 1459.58 1925.4 1455 Q1928.48 1450.39 1934.29 1450.39 Z" fill="#000000" fill-rule="nonzero" fill-opacity="1" /><path clip-path="url(#clip010)" d="M2271.84 1451.02 L2290.2 1451.02 L2290.2 1454.96 L2276.12 1454.96 L2276.12 1463.43 Q2277.14 1463.08 2278.16 1462.92 Q2279.18 1462.73 2280.2 1462.73 Q2285.98 1462.73 2289.36 1465.9 Q2292.74 1469.08 2292.74 1474.49 Q2292.74 1480.07 2289.27 1483.17 Q2285.8 1486.25 2279.48 1486.25 Q2277.3 1486.25 2275.03 1485.88 Q2272.79 1485.51 2270.38 1484.77 L2270.38 1480.07 Q2272.46 1481.2 2274.69 1481.76 Q2276.91 1482.32 2279.39 1482.32 Q2283.39 1482.32 2285.73 1480.21 Q2288.07 1478.1 2288.07 1474.49 Q2288.07 1470.88 2285.73 1468.77 Q2283.39 1466.67 2279.39 1466.67 Q2277.51 1466.67 2275.64 1467.08 Q2273.78 1467.5 2271.84 1468.38 L2271.84 1451.02 Z" fill="#000000" fill-rule="nonzero" fill-opacity="1" /><path clip-path="url(#clip010)" d="M2311.95 1454.1 Q2308.34 1454.1 2306.51 1457.66 Q2304.71 1461.2 2304.71 1468.33 Q2304.71 1475.44 2306.51 1479.01 Q2308.34 1482.55 2311.95 1482.55 Q2315.59 1482.55 2317.39 1479.01 Q2319.22 1475.44 2319.22 1468.33 Q2319.22 1461.2 2317.39 1457.66 Q2315.59 1454.1 2311.95 1454.1 M2311.95 1450.39 Q2317.76 1450.39 2320.82 1455 Q2323.9 1459.58 2323.9 1468.33 Q2323.9 1477.06 2320.82 1481.67 Q2317.76 1486.25 2311.95 1486.25 Q2306.14 1486.25 2303.07 1481.67 Q2300.01 1477.06 2300.01 1468.33 Q2300.01 1459.58 2303.07 1455 Q2306.14 1450.39 2311.95 1450.39 Z" fill="#000000" fill-rule="nonzero" fill-opacity="1" /><path clip-path="url(#clip010)" d="M925.912 1520.52 L934.57 1520.52 L955.64 1560.28 L955.64 1520.52 L961.879 1520.52 L961.879 1568.04 L953.221 1568.04 L932.151 1528.29 L932.151 1568.04 L925.912 1568.04 L925.912 1520.52 Z" fill="#000000" fill-rule="nonzero" fill-opacity="1" /><path clip-path="url(#clip010)" d="M973.814 1553.98 L973.814 1532.4 L979.671 1532.4 L979.671 1553.75 Q979.671 1558.81 981.644 1561.36 Q983.618 1563.87 987.564 1563.87 Q992.307 1563.87 995.044 1560.85 Q997.813 1557.83 997.813 1552.61 L997.813 1532.4 L1003.67 1532.4 L1003.67 1568.04 L997.813 1568.04 L997.813 1562.57 Q995.681 1565.82 992.848 1567.41 Q990.047 1568.97 986.323 1568.97 Q980.18 1568.97 976.997 1565.15 Q973.814 1561.33 973.814 1553.98 M988.551 1531.54 L988.551 1531.54 Z" fill="#000000" fill-rule="nonzero" fill-opacity="1" /><path clip-path="url(#clip010)" d="M1043.49 1539.24 Q1045.68 1535.29 1048.74 1533.41 Q1051.79 1531.54 1055.93 1531.54 Q1061.5 1531.54 1064.53 1535.45 Q1067.55 1539.33 1067.55 1546.53 L1067.55 1568.04 L1061.66 1568.04 L1061.66 1546.72 Q1061.66 1541.59 1059.85 1539.11 Q1058.03 1536.63 1054.31 1536.63 Q1049.76 1536.63 1047.12 1539.65 Q1044.47 1542.68 1044.47 1547.9 L1044.47 1568.04 L1038.59 1568.04 L1038.59 1546.72 Q1038.59 1541.56 1036.77 1539.11 Q1034.96 1536.63 1031.17 1536.63 Q1026.68 1536.63 1024.04 1539.68 Q1021.4 1542.71 1021.4 1547.9 L1021.4 1568.04 L1015.51 1568.04 L1015.51 1532.4 L1021.4 1532.4 L1021.4 1537.93 Q1023.4 1534.66 1026.2 1533.1 Q1029.01 1531.54 1032.86 1531.54 Q1036.74 1531.54 1039.44 1533.51 Q1042.18 1535.48 1043.49 1539.24 Z" fill="#000000" fill-rule="nonzero" fill-opacity="1" /><path clip-path="url(#clip010)" d="M1104.82 1550.25 Q1104.82 1543.79 1102.15 1540.13 Q1099.51 1536.44 1094.86 1536.44 Q1090.21 1536.44 1087.54 1540.13 Q1084.9 1543.79 1084.9 1550.25 Q1084.9 1556.71 1087.54 1560.4 Q1090.21 1564.07 1094.86 1564.07 Q1099.51 1564.07 1102.15 1560.4 Q1104.82 1556.71 1104.82 1550.25 M1084.9 1537.81 Q1086.74 1534.62 1089.54 1533.1 Q1092.38 1531.54 1096.29 1531.54 Q1102.78 1531.54 1106.83 1536.69 Q1110.9 1541.85 1110.9 1550.25 Q1110.9 1558.65 1106.83 1563.81 Q1102.78 1568.97 1096.29 1568.97 Q1092.38 1568.97 1089.54 1567.44 Q1086.74 1565.88 1084.9 1562.7 L1084.9 1568.04 L1079.01 1568.04 L1079.01 1518.52 L1084.9 1518.52 L1084.9 1537.81 Z" fill="#000000" fill-rule="nonzero" fill-opacity="1" /><path clip-path="url(#clip010)" d="M1151.1 1548.76 L1151.1 1551.62 L1124.17 1551.62 Q1124.55 1557.67 1127.8 1560.85 Q1131.08 1564 1136.9 1564 Q1140.28 1564 1143.43 1563.17 Q1146.61 1562.35 1149.73 1560.69 L1149.73 1566.23 Q1146.58 1567.57 1143.27 1568.27 Q1139.96 1568.97 1136.55 1568.97 Q1128.02 1568.97 1123.03 1564 Q1118.06 1559.04 1118.06 1550.57 Q1118.06 1541.82 1122.77 1536.69 Q1127.51 1531.54 1135.54 1531.54 Q1142.73 1531.54 1146.9 1536.18 Q1151.1 1540.8 1151.1 1548.76 M1145.24 1547.04 Q1145.18 1542.23 1142.54 1539.37 Q1139.93 1536.5 1135.6 1536.5 Q1130.7 1536.5 1127.74 1539.27 Q1124.81 1542.04 1124.36 1547.07 L1145.24 1547.04 Z" fill="#000000" fill-rule="nonzero" fill-opacity="1" /><path clip-path="url(#clip010)" d="M1181.37 1537.87 Q1180.38 1537.3 1179.2 1537.04 Q1178.06 1536.76 1176.66 1536.76 Q1171.69 1536.76 1169.02 1540 Q1166.38 1543.22 1166.38 1549.27 L1166.38 1568.04 L1160.49 1568.04 L1160.49 1532.4 L1166.38 1532.4 L1166.38 1537.93 Q1168.22 1534.69 1171.18 1533.13 Q1174.14 1531.54 1178.38 1531.54 Q1178.98 1531.54 1179.71 1531.63 Q1180.45 1531.7 1181.34 1531.85 L1181.37 1537.87 Z" fill="#000000" fill-rule="nonzero" fill-opacity="1" /><path clip-path="url(#clip010)" d="M1222.05 1536.5 Q1217.33 1536.5 1214.6 1540.19 Q1211.86 1543.85 1211.86 1550.25 Q1211.86 1556.65 1214.57 1560.34 Q1217.3 1564 1222.05 1564 Q1226.72 1564 1229.46 1560.31 Q1232.2 1556.62 1232.2 1550.25 Q1232.2 1543.92 1229.46 1540.23 Q1226.72 1536.5 1222.05 1536.5 M1222.05 1531.54 Q1229.68 1531.54 1234.04 1536.5 Q1238.4 1541.47 1238.4 1550.25 Q1238.4 1559 1234.04 1564 Q1229.68 1568.97 1222.05 1568.97 Q1214.37 1568.97 1210.01 1564 Q1205.69 1559 1205.69 1550.25 Q1205.69 1541.47 1210.01 1536.5 Q1214.37 1531.54 1222.05 1531.54 Z" fill="#000000" fill-rule="nonzero" fill-opacity="1" /><path clip-path="url(#clip010)" d="M1266.16 1518.52 L1266.16 1523.39 L1260.56 1523.39 Q1257.41 1523.39 1256.17 1524.66 Q1254.96 1525.93 1254.96 1529.24 L1254.96 1532.4 L1264.6 1532.4 L1264.6 1536.95 L1254.96 1536.95 L1254.96 1568.04 L1249.07 1568.04 L1249.07 1536.95 L1243.47 1536.95 L1243.47 1532.4 L1249.07 1532.4 L1249.07 1529.91 Q1249.07 1523.96 1251.84 1521.26 Q1254.61 1518.52 1260.62 1518.52 L1266.16 1518.52 Z" fill="#000000" fill-rule="nonzero" fill-opacity="1" /><path clip-path="url(#clip010)" d="M1298.47 1525.81 L1298.47 1562.76 L1306.23 1562.76 Q1316.07 1562.76 1320.62 1558.3 Q1325.2 1553.85 1325.2 1544.24 Q1325.2 1534.69 1320.62 1530.26 Q1316.07 1525.81 1306.23 1525.81 L1298.47 1525.81 M1292.04 1520.52 L1305.24 1520.52 Q1319.06 1520.52 1325.52 1526.28 Q1331.98 1532.01 1331.98 1544.24 Q1331.98 1556.52 1325.49 1562.28 Q1318.99 1568.04 1305.24 1568.04 L1292.04 1568.04 L1292.04 1520.52 Z" fill="#000000" fill-rule="nonzero" fill-opacity="1" /><path clip-path="url(#clip010)" d="M1342.23 1520.52 L1351.81 1520.52 L1363.94 1552.86 L1376.13 1520.52 L1385.71 1520.52 L1385.71 1568.04 L1379.44 1568.04 L1379.44 1526.32 L1367.18 1558.91 L1360.72 1558.91 L1348.47 1526.32 L1348.47 1568.04 L1342.23 1568.04 L1342.23 1520.52 Z" fill="#000000" fill-rule="nonzero" fill-opacity="1" /><path clip-path="url(#clip010)" d="M1421.01 1545.76 Q1423.07 1546.46 1425.02 1548.76 Q1426.99 1551.05 1428.96 1555.06 L1435.49 1568.04 L1428.58 1568.04 L1422.5 1555.85 Q1420.15 1551.08 1417.92 1549.52 Q1415.72 1547.96 1411.9 1547.96 L1404.9 1547.96 L1404.9 1568.04 L1398.47 1568.04 L1398.47 1520.52 L1412.98 1520.52 Q1421.13 1520.52 1425.14 1523.93 Q1429.15 1527.34 1429.15 1534.21 Q1429.15 1538.7 1427.05 1541.66 Q1424.98 1544.62 1421.01 1545.76 M1404.9 1525.81 L1404.9 1542.68 L1412.98 1542.68 Q1417.63 1542.68 1419.99 1540.54 Q1422.37 1538.38 1422.37 1534.21 Q1422.37 1530.04 1419.99 1527.94 Q1417.63 1525.81 1412.98 1525.81 L1404.9 1525.81 Z" fill="#000000" fill-rule="nonzero" fill-opacity="1" /><path clip-path="url(#clip010)" d="M1476.16 1561.26 L1476.16 1548.5 L1465.66 1548.5 L1465.66 1543.22 L1482.53 1543.22 L1482.53 1563.62 Q1478.81 1566.26 1474.32 1567.63 Q1469.83 1568.97 1464.74 1568.97 Q1453.6 1568.97 1447.3 1562.47 Q1441.03 1555.95 1441.03 1544.33 Q1441.03 1532.68 1447.3 1526.19 Q1453.6 1519.66 1464.74 1519.66 Q1469.38 1519.66 1473.55 1520.81 Q1477.76 1521.96 1481.29 1524.18 L1481.29 1531.03 Q1477.72 1528 1473.71 1526.48 Q1469.7 1524.95 1465.28 1524.95 Q1456.56 1524.95 1452.17 1529.82 Q1447.8 1534.69 1447.8 1544.33 Q1447.8 1553.94 1452.17 1558.81 Q1456.56 1563.68 1465.28 1563.68 Q1468.68 1563.68 1471.36 1563.11 Q1474.03 1562.51 1476.16 1561.26 Z" fill="#000000" fill-rule="nonzero" fill-opacity="1" /><path clip-path="url(#clip010)" d="M1537.47 1533.45 L1537.47 1538.98 Q1534.98 1537.71 1532.31 1537.07 Q1529.64 1536.44 1526.77 1536.44 Q1522.41 1536.44 1520.21 1537.77 Q1518.05 1539.11 1518.05 1541.79 Q1518.05 1543.82 1519.61 1545 Q1521.17 1546.15 1525.88 1547.2 L1527.89 1547.64 Q1534.12 1548.98 1536.73 1551.43 Q1539.38 1553.85 1539.38 1558.21 Q1539.38 1563.17 1535.43 1566.07 Q1531.51 1568.97 1524.64 1568.97 Q1521.77 1568.97 1518.66 1568.39 Q1515.57 1567.85 1512.13 1566.74 L1512.13 1560.69 Q1515.38 1562.38 1518.53 1563.24 Q1521.68 1564.07 1524.77 1564.07 Q1528.9 1564.07 1531.13 1562.66 Q1533.36 1561.23 1533.36 1558.65 Q1533.36 1556.27 1531.74 1554.99 Q1530.15 1553.72 1524.7 1552.54 L1522.67 1552.07 Q1517.22 1550.92 1514.8 1548.56 Q1512.38 1546.18 1512.38 1542.04 Q1512.38 1537.01 1515.95 1534.27 Q1519.51 1531.54 1526.07 1531.54 Q1529.32 1531.54 1532.18 1532.01 Q1535.05 1532.49 1537.47 1533.45 Z" fill="#000000" fill-rule="nonzero" fill-opacity="1" /><path clip-path="url(#clip010)" d="M1545.3 1532.4 L1551.15 1532.4 L1558.47 1560.21 L1565.76 1532.4 L1572.67 1532.4 L1579.99 1560.21 L1587.28 1532.4 L1593.13 1532.4 L1583.81 1568.04 L1576.9 1568.04 L1569.23 1538.83 L1561.53 1568.04 L1554.62 1568.04 L1545.3 1532.4 Z" fill="#000000" fill-rule="nonzero" fill-opacity="1" /><path clip-path="url(#clip010)" d="M1632.51 1548.76 L1632.51 1551.62 L1605.58 1551.62 Q1605.96 1557.67 1609.21 1560.85 Q1612.49 1564 1618.31 1564 Q1621.68 1564 1624.84 1563.17 Q1628.02 1562.35 1631.14 1560.69 L1631.14 1566.23 Q1627.99 1567.57 1624.68 1568.27 Q1621.37 1568.97 1617.96 1568.97 Q1609.43 1568.97 1604.43 1564 Q1599.47 1559.04 1599.47 1550.57 Q1599.47 1541.82 1604.18 1536.69 Q1608.92 1531.54 1616.94 1531.54 Q1624.13 1531.54 1628.3 1536.18 Q1632.51 1540.8 1632.51 1548.76 M1626.65 1547.04 Q1626.59 1542.23 1623.94 1539.37 Q1621.33 1536.5 1617.01 1536.5 Q1612.1 1536.5 1609.14 1539.27 Q1606.22 1542.04 1605.77 1547.07 L1626.65 1547.04 Z" fill="#000000" fill-rule="nonzero" fill-opacity="1" /><path clip-path="url(#clip010)" d="M1672.61 1548.76 L1672.61 1551.62 L1645.68 1551.62 Q1646.06 1557.67 1649.31 1560.85 Q1652.59 1564 1658.41 1564 Q1661.79 1564 1664.94 1563.17 Q1668.12 1562.35 1671.24 1560.69 L1671.24 1566.23 Q1668.09 1567.57 1664.78 1568.27 Q1661.47 1568.97 1658.06 1568.97 Q1649.53 1568.97 1644.54 1564 Q1639.57 1559.04 1639.57 1550.57 Q1639.57 1541.82 1644.28 1536.69 Q1649.02 1531.54 1657.05 1531.54 Q1664.24 1531.54 1668.41 1536.18 Q1672.61 1540.8 1672.61 1548.76 M1666.75 1547.04 Q1666.69 1542.23 1664.05 1539.37 Q1661.44 1536.5 1657.11 1536.5 Q1652.21 1536.5 1649.25 1539.27 Q1646.32 1542.04 1645.87 1547.07 L1666.75 1547.04 Z" fill="#000000" fill-rule="nonzero" fill-opacity="1" /><path clip-path="url(#clip010)" d="M1687.89 1562.7 L1687.89 1581.6 L1682 1581.6 L1682 1532.4 L1687.89 1532.4 L1687.89 1537.81 Q1689.73 1534.62 1692.53 1533.1 Q1695.37 1531.54 1699.28 1531.54 Q1705.78 1531.54 1709.82 1536.69 Q1713.89 1541.85 1713.89 1550.25 Q1713.89 1558.65 1709.82 1563.81 Q1705.78 1568.97 1699.28 1568.97 Q1695.37 1568.97 1692.53 1567.44 Q1689.73 1565.88 1687.89 1562.7 M1707.81 1550.25 Q1707.81 1543.79 1705.14 1540.13 Q1702.5 1536.44 1697.85 1536.44 Q1693.2 1536.44 1690.53 1540.13 Q1687.89 1543.79 1687.89 1550.25 Q1687.89 1556.71 1690.53 1560.4 Q1693.2 1564.07 1697.85 1564.07 Q1702.5 1564.07 1705.14 1560.4 Q1707.81 1556.71 1707.81 1550.25 Z" fill="#000000" fill-rule="nonzero" fill-opacity="1" /><path clip-path="url(#clip010)" d="M1746.32 1533.45 L1746.32 1538.98 Q1743.84 1537.71 1741.17 1537.07 Q1738.49 1536.44 1735.63 1536.44 Q1731.27 1536.44 1729.07 1537.77 Q1726.91 1539.11 1726.91 1541.79 Q1726.91 1543.82 1728.47 1545 Q1730.03 1546.15 1734.74 1547.2 L1736.74 1547.64 Q1742.98 1548.98 1745.59 1551.43 Q1748.23 1553.85 1748.23 1558.21 Q1748.23 1563.17 1744.29 1566.07 Q1740.37 1568.97 1733.5 1568.97 Q1730.63 1568.97 1727.51 1568.39 Q1724.43 1567.85 1720.99 1566.74 L1720.99 1560.69 Q1724.24 1562.38 1727.39 1563.24 Q1730.54 1564.07 1733.63 1564.07 Q1737.76 1564.07 1739.99 1562.66 Q1742.22 1561.23 1742.22 1558.65 Q1742.22 1556.27 1740.6 1554.99 Q1739 1553.72 1733.56 1552.54 L1731.52 1552.07 Q1726.08 1550.92 1723.66 1548.56 Q1721.24 1546.18 1721.24 1542.04 Q1721.24 1537.01 1724.81 1534.27 Q1728.37 1531.54 1734.93 1531.54 Q1738.18 1531.54 1741.04 1532.01 Q1743.91 1532.49 1746.32 1533.45 Z" fill="#000000" fill-rule="nonzero" fill-opacity="1" /><path clip-path="url(#clip010)" d="M1778.54 1520.52 L1787.19 1520.52 L1808.26 1560.28 L1808.26 1520.52 L1814.5 1520.52 L1814.5 1568.04 L1805.84 1568.04 L1784.77 1528.29 L1784.77 1568.04 L1778.54 1568.04 L1778.54 1520.52 Z" fill="#000000" fill-rule="nonzero" fill-opacity="1" /><polyline clip-path="url(#clip012)" style="stroke:#000000; stroke-linecap:round; stroke-linejoin:round; stroke-width:2; stroke-opacity:0.1; fill:none" points="387.658,1352.13 2352.76,1352.13 "/>
<polyline clip-path="url(#clip012)" style="stroke:#000000; stroke-linecap:round; stroke-linejoin:round; stroke-width:2; stroke-opacity:0.1; fill:none" points="387.658,1163.76 2352.76,1163.76 "/>
<polyline clip-path="url(#clip012)" style="stroke:#000000; stroke-linecap:round; stroke-linejoin:round; stroke-width:2; stroke-opacity:0.1; fill:none" points="387.658,975.397 2352.76,975.397 "/>
<polyline clip-path="url(#clip012)" style="stroke:#000000; stroke-linecap:round; stroke-linejoin:round; stroke-width:2; stroke-opacity:0.1; fill:none" points="387.658,787.031 2352.76,787.031 "/>
<polyline clip-path="url(#clip012)" style="stroke:#000000; stroke-linecap:round; stroke-linejoin:round; stroke-width:2; stroke-opacity:0.1; fill:none" points="387.658,598.665 2352.76,598.665 "/>
<polyline clip-path="url(#clip012)" style="stroke:#000000; stroke-linecap:round; stroke-linejoin:round; stroke-width:2; stroke-opacity:0.1; fill:none" points="387.658,410.299 2352.76,410.299 "/>
<polyline clip-path="url(#clip012)" style="stroke:#000000; stroke-linecap:round; stroke-linejoin:round; stroke-width:2; stroke-opacity:0.1; fill:none" points="387.658,221.934 2352.76,221.934 "/>
<polyline clip-path="url(#clip010)" style="stroke:#000000; stroke-linecap:round; stroke-linejoin:round; stroke-width:4; stroke-opacity:1; fill:none" points="387.658,1423.18 387.658,47.2441 "/>
<polyline clip-path="url(#clip010)" style="stroke:#000000; stroke-linecap:round; stroke-linejoin:round; stroke-width:4; stroke-opacity:1; fill:none" points="387.658,1352.13 406.556,1352.13 "/>
<polyline clip-path="url(#clip010)" style="stroke:#000000; stroke-linecap:round; stroke-linejoin:round; stroke-width:4; stroke-opacity:1; fill:none" points="387.658,1163.76 406.556,1163.76 "/>
<polyline clip-path="url(#clip010)" style="stroke:#000000; stroke-linecap:round; stroke-linejoin:round; stroke-width:4; stroke-opacity:1; fill:none" points="387.658,975.397 406.556,975.397 "/>
<polyline clip-path="url(#clip010)" style="stroke:#000000; stroke-linecap:round; stroke-linejoin:round; stroke-width:4; stroke-opacity:1; fill:none" points="387.658,787.031 406.556,787.031 "/>
<polyline clip-path="url(#clip010)" style="stroke:#000000; stroke-linecap:round; stroke-linejoin:round; stroke-width:4; stroke-opacity:1; fill:none" points="387.658,598.665 406.556,598.665 "/>
<polyline clip-path="url(#clip010)" style="stroke:#000000; stroke-linecap:round; stroke-linejoin:round; stroke-width:4; stroke-opacity:1; fill:none" points="387.658,410.299 406.556,410.299 "/>
<polyline clip-path="url(#clip010)" style="stroke:#000000; stroke-linecap:round; stroke-linejoin:round; stroke-width:4; stroke-opacity:1; fill:none" points="387.658,221.934 406.556,221.934 "/>
<path clip-path="url(#clip010)" d="M265.918 1337.93 Q262.307 1337.93 260.478 1341.49 Q258.672 1345.03 258.672 1352.16 Q258.672 1359.27 260.478 1362.83 Q262.307 1366.38 265.918 1366.38 Q269.552 1366.38 271.357 1362.83 Q273.186 1359.27 273.186 1352.16 Q273.186 1345.03 271.357 1341.49 Q269.552 1337.93 265.918 1337.93 M265.918 1334.22 Q271.728 1334.22 274.783 1338.83 Q277.862 1343.41 277.862 1352.16 Q277.862 1360.89 274.783 1365.5 Q271.728 1370.08 265.918 1370.08 Q260.108 1370.08 257.029 1365.5 Q253.973 1360.89 253.973 1352.16 Q253.973 1343.41 257.029 1338.83 Q260.108 1334.22 265.918 1334.22 Z" fill="#000000" fill-rule="nonzero" fill-opacity="1" /><path clip-path="url(#clip010)" d="M286.08 1363.53 L290.964 1363.53 L290.964 1369.41 L286.08 1369.41 L286.08 1363.53 Z" fill="#000000" fill-rule="nonzero" fill-opacity="1" /><path clip-path="url(#clip010)" d="M311.728 1350.26 Q308.58 1350.26 306.728 1352.42 Q304.899 1354.57 304.899 1358.32 Q304.899 1362.05 306.728 1364.22 Q308.58 1366.38 311.728 1366.38 Q314.876 1366.38 316.704 1364.22 Q318.556 1362.05 318.556 1358.32 Q318.556 1354.57 316.704 1352.42 Q314.876 1350.26 311.728 1350.26 M321.01 1335.61 L321.01 1339.87 Q319.251 1339.04 317.445 1338.6 Q315.663 1338.16 313.904 1338.16 Q309.274 1338.16 306.82 1341.28 Q304.39 1344.41 304.042 1350.73 Q305.408 1348.71 307.468 1347.65 Q309.529 1346.56 312.005 1346.56 Q317.214 1346.56 320.223 1349.73 Q323.255 1352.88 323.255 1358.32 Q323.255 1363.64 320.107 1366.86 Q316.959 1370.08 311.728 1370.08 Q305.732 1370.08 302.561 1365.5 Q299.39 1360.89 299.39 1352.16 Q299.39 1343.97 303.279 1339.11 Q307.167 1334.22 313.718 1334.22 Q315.478 1334.22 317.26 1334.57 Q319.066 1334.92 321.01 1335.61 Z" fill="#000000" fill-rule="nonzero" fill-opacity="1" /><path clip-path="url(#clip010)" d="M335.339 1365.47 L351.658 1365.47 L351.658 1369.41 L329.714 1369.41 L329.714 1365.47 Q332.376 1362.72 336.959 1358.09 Q341.565 1353.44 342.746 1352.09 Q344.991 1349.57 345.871 1347.83 Q346.774 1346.07 346.774 1344.39 Q346.774 1341.63 344.829 1339.89 Q342.908 1338.16 339.806 1338.16 Q337.607 1338.16 335.153 1338.92 Q332.723 1339.69 329.945 1341.24 L329.945 1336.51 Q332.769 1335.38 335.223 1334.8 Q337.677 1334.22 339.714 1334.22 Q345.084 1334.22 348.278 1336.91 Q351.473 1339.59 351.473 1344.08 Q351.473 1346.21 350.663 1348.14 Q349.876 1350.03 347.769 1352.63 Q347.19 1353.3 344.089 1356.51 Q340.987 1359.71 335.339 1365.47 Z" fill="#000000" fill-rule="nonzero" fill-opacity="1" /><path clip-path="url(#clip010)" d="M263.834 1149.56 Q260.223 1149.56 258.395 1153.13 Q256.589 1156.67 256.589 1163.8 Q256.589 1170.9 258.395 1174.47 Q260.223 1178.01 263.834 1178.01 Q267.469 1178.01 269.274 1174.47 Q271.103 1170.9 271.103 1163.8 Q271.103 1156.67 269.274 1153.13 Q267.469 1149.56 263.834 1149.56 M263.834 1145.86 Q269.645 1145.86 272.7 1150.46 Q275.779 1155.05 275.779 1163.8 Q275.779 1172.52 272.7 1177.13 Q269.645 1181.71 263.834 1181.71 Q258.024 1181.71 254.946 1177.13 Q251.89 1172.52 251.89 1163.8 Q251.89 1155.05 254.946 1150.46 Q258.024 1145.86 263.834 1145.86 Z" fill="#000000" fill-rule="nonzero" fill-opacity="1" /><path clip-path="url(#clip010)" d="M283.996 1175.16 L288.881 1175.16 L288.881 1181.04 L283.996 1181.04 L283.996 1175.16 Z" fill="#000000" fill-rule="nonzero" fill-opacity="1" /><path clip-path="url(#clip010)" d="M309.644 1161.9 Q306.496 1161.9 304.644 1164.05 Q302.816 1166.2 302.816 1169.95 Q302.816 1173.68 304.644 1175.86 Q306.496 1178.01 309.644 1178.01 Q312.792 1178.01 314.621 1175.86 Q316.473 1173.68 316.473 1169.95 Q316.473 1166.2 314.621 1164.05 Q312.792 1161.9 309.644 1161.9 M318.927 1147.25 L318.927 1151.51 Q317.167 1150.67 315.362 1150.23 Q313.579 1149.79 311.82 1149.79 Q307.191 1149.79 304.737 1152.92 Q302.306 1156.04 301.959 1162.36 Q303.325 1160.35 305.385 1159.28 Q307.445 1158.2 309.922 1158.2 Q315.13 1158.2 318.14 1161.37 Q321.172 1164.51 321.172 1169.95 Q321.172 1175.28 318.024 1178.5 Q314.876 1181.71 309.644 1181.71 Q303.649 1181.71 300.478 1177.13 Q297.306 1172.52 297.306 1163.8 Q297.306 1155.6 301.195 1150.74 Q305.084 1145.86 311.635 1145.86 Q313.394 1145.86 315.177 1146.2 Q316.982 1146.55 318.927 1147.25 Z" fill="#000000" fill-rule="nonzero" fill-opacity="1" /><path clip-path="url(#clip010)" d="M342.075 1150.56 L330.269 1169.01 L342.075 1169.01 L342.075 1150.56 M340.848 1146.48 L346.727 1146.48 L346.727 1169.01 L351.658 1169.01 L351.658 1172.89 L346.727 1172.89 L346.727 1181.04 L342.075 1181.04 L342.075 1172.89 L326.473 1172.89 L326.473 1168.38 L340.848 1146.48 Z" fill="#000000" fill-rule="nonzero" fill-opacity="1" /><path clip-path="url(#clip010)" d="M264.158 961.195 Q260.547 961.195 258.719 964.76 Q256.913 968.302 256.913 975.431 Q256.913 982.538 258.719 986.103 Q260.547 989.644 264.158 989.644 Q267.793 989.644 269.598 986.103 Q271.427 982.538 271.427 975.431 Q271.427 968.302 269.598 964.76 Q267.793 961.195 264.158 961.195 M264.158 957.492 Q269.969 957.492 273.024 962.098 Q276.103 966.681 276.103 975.431 Q276.103 984.158 273.024 988.765 Q269.969 993.348 264.158 993.348 Q258.348 993.348 255.27 988.765 Q252.214 984.158 252.214 975.431 Q252.214 966.681 255.27 962.098 Q258.348 957.492 264.158 957.492 Z" fill="#000000" fill-rule="nonzero" fill-opacity="1" /><path clip-path="url(#clip010)" d="M284.32 986.797 L289.205 986.797 L289.205 992.677 L284.32 992.677 L284.32 986.797 Z" fill="#000000" fill-rule="nonzero" fill-opacity="1" /><path clip-path="url(#clip010)" d="M309.968 973.533 Q306.82 973.533 304.968 975.686 Q303.14 977.839 303.14 981.589 Q303.14 985.315 304.968 987.491 Q306.82 989.644 309.968 989.644 Q313.117 989.644 314.945 987.491 Q316.797 985.315 316.797 981.589 Q316.797 977.839 314.945 975.686 Q313.117 973.533 309.968 973.533 M319.251 958.88 L319.251 963.14 Q317.491 962.306 315.686 961.867 Q313.904 961.427 312.144 961.427 Q307.515 961.427 305.061 964.552 Q302.63 967.677 302.283 973.996 Q303.649 971.982 305.709 970.917 Q307.769 969.829 310.246 969.829 Q315.454 969.829 318.464 973.001 Q321.496 976.149 321.496 981.589 Q321.496 986.913 318.348 990.13 Q315.2 993.348 309.968 993.348 Q303.973 993.348 300.802 988.765 Q297.63 984.158 297.63 975.431 Q297.63 967.237 301.519 962.376 Q305.408 957.492 311.959 957.492 Q313.718 957.492 315.501 957.839 Q317.306 958.186 319.251 958.88 Z" fill="#000000" fill-rule="nonzero" fill-opacity="1" /><path clip-path="url(#clip010)" d="M340.13 973.533 Q336.982 973.533 335.13 975.686 Q333.302 977.839 333.302 981.589 Q333.302 985.315 335.13 987.491 Q336.982 989.644 340.13 989.644 Q343.278 989.644 345.107 987.491 Q346.959 985.315 346.959 981.589 Q346.959 977.839 345.107 975.686 Q343.278 973.533 340.13 973.533 M349.413 958.88 L349.413 963.14 Q347.653 962.306 345.848 961.867 Q344.065 961.427 342.306 961.427 Q337.677 961.427 335.223 964.552 Q332.792 967.677 332.445 973.996 Q333.811 971.982 335.871 970.917 Q337.931 969.829 340.408 969.829 Q345.616 969.829 348.626 973.001 Q351.658 976.149 351.658 981.589 Q351.658 986.913 348.51 990.13 Q345.362 993.348 340.13 993.348 Q334.135 993.348 330.964 988.765 Q327.792 984.158 327.792 975.431 Q327.792 967.237 331.681 962.376 Q335.57 957.492 342.121 957.492 Q343.88 957.492 345.663 957.839 Q347.468 958.186 349.413 958.88 Z" fill="#000000" fill-rule="nonzero" fill-opacity="1" /><path clip-path="url(#clip010)" d="M264.413 772.829 Q260.802 772.829 258.973 776.394 Q257.168 779.936 257.168 787.066 Q257.168 794.172 258.973 797.737 Q260.802 801.278 264.413 801.278 Q268.047 801.278 269.853 797.737 Q271.682 794.172 271.682 787.066 Q271.682 779.936 269.853 776.394 Q268.047 772.829 264.413 772.829 M264.413 769.126 Q270.223 769.126 273.279 773.732 Q276.357 778.316 276.357 787.066 Q276.357 795.792 273.279 800.399 Q270.223 804.982 264.413 804.982 Q258.603 804.982 255.524 800.399 Q252.469 795.792 252.469 787.066 Q252.469 778.316 255.524 773.732 Q258.603 769.126 264.413 769.126 Z" fill="#000000" fill-rule="nonzero" fill-opacity="1" /><path clip-path="url(#clip010)" d="M284.575 798.431 L289.459 798.431 L289.459 804.311 L284.575 804.311 L284.575 798.431 Z" fill="#000000" fill-rule="nonzero" fill-opacity="1" /><path clip-path="url(#clip010)" d="M310.223 785.167 Q307.075 785.167 305.223 787.32 Q303.394 789.473 303.394 793.223 Q303.394 796.95 305.223 799.126 Q307.075 801.278 310.223 801.278 Q313.371 801.278 315.2 799.126 Q317.052 796.95 317.052 793.223 Q317.052 789.473 315.2 787.32 Q313.371 785.167 310.223 785.167 M319.505 770.515 L319.505 774.774 Q317.746 773.941 315.941 773.501 Q314.158 773.061 312.399 773.061 Q307.769 773.061 305.316 776.186 Q302.885 779.311 302.538 785.63 Q303.904 783.616 305.964 782.552 Q308.024 781.464 310.501 781.464 Q315.709 781.464 318.718 784.635 Q321.751 787.783 321.751 793.223 Q321.751 798.547 318.603 801.765 Q315.454 804.982 310.223 804.982 Q304.228 804.982 301.056 800.399 Q297.885 795.792 297.885 787.066 Q297.885 778.871 301.774 774.01 Q305.663 769.126 312.214 769.126 Q313.973 769.126 315.755 769.473 Q317.561 769.82 319.505 770.515 Z" fill="#000000" fill-rule="nonzero" fill-opacity="1" /><path clip-path="url(#clip010)" d="M339.806 787.899 Q336.473 787.899 334.552 789.681 Q332.653 791.464 332.653 794.589 Q332.653 797.714 334.552 799.496 Q336.473 801.278 339.806 801.278 Q343.14 801.278 345.061 799.496 Q346.982 797.69 346.982 794.589 Q346.982 791.464 345.061 789.681 Q343.163 787.899 339.806 787.899 M335.13 785.908 Q332.121 785.167 330.431 783.107 Q328.765 781.047 328.765 778.084 Q328.765 773.941 331.704 771.533 Q334.667 769.126 339.806 769.126 Q344.968 769.126 347.908 771.533 Q350.848 773.941 350.848 778.084 Q350.848 781.047 349.158 783.107 Q347.491 785.167 344.505 785.908 Q347.885 786.695 349.76 788.987 Q351.658 791.278 351.658 794.589 Q351.658 799.612 348.579 802.297 Q345.524 804.982 339.806 804.982 Q334.089 804.982 331.01 802.297 Q327.954 799.612 327.954 794.589 Q327.954 791.278 329.853 788.987 Q331.751 786.695 335.13 785.908 M333.417 778.524 Q333.417 781.209 335.084 782.714 Q336.774 784.218 339.806 784.218 Q342.815 784.218 344.505 782.714 Q346.218 781.209 346.218 778.524 Q346.218 775.839 344.505 774.334 Q342.815 772.829 339.806 772.829 Q336.774 772.829 335.084 774.334 Q333.417 775.839 333.417 778.524 Z" fill="#000000" fill-rule="nonzero" fill-opacity="1" /><path clip-path="url(#clip010)" d="M264.32 584.464 Q260.709 584.464 258.881 588.029 Q257.075 591.57 257.075 598.7 Q257.075 605.806 258.881 609.371 Q260.709 612.913 264.32 612.913 Q267.955 612.913 269.76 609.371 Q271.589 605.806 271.589 598.7 Q271.589 591.57 269.76 588.029 Q267.955 584.464 264.32 584.464 M264.32 580.76 Q270.131 580.76 273.186 585.366 Q276.265 589.95 276.265 598.7 Q276.265 607.427 273.186 612.033 Q270.131 616.616 264.32 616.616 Q258.51 616.616 255.432 612.033 Q252.376 607.427 252.376 598.7 Q252.376 589.95 255.432 585.366 Q258.51 580.76 264.32 580.76 Z" fill="#000000" fill-rule="nonzero" fill-opacity="1" /><path clip-path="url(#clip010)" d="M284.482 610.065 L289.367 610.065 L289.367 615.945 L284.482 615.945 L284.482 610.065 Z" fill="#000000" fill-rule="nonzero" fill-opacity="1" /><path clip-path="url(#clip010)" d="M298.371 581.385 L320.593 581.385 L320.593 583.376 L308.047 615.945 L303.163 615.945 L314.968 585.32 L298.371 585.32 L298.371 581.385 Z" fill="#000000" fill-rule="nonzero" fill-opacity="1" /><path clip-path="url(#clip010)" d="M339.714 584.464 Q336.103 584.464 334.274 588.029 Q332.468 591.57 332.468 598.7 Q332.468 605.806 334.274 609.371 Q336.103 612.913 339.714 612.913 Q343.348 612.913 345.153 609.371 Q346.982 605.806 346.982 598.7 Q346.982 591.57 345.153 588.029 Q343.348 584.464 339.714 584.464 M339.714 580.76 Q345.524 580.76 348.579 585.366 Q351.658 589.95 351.658 598.7 Q351.658 607.427 348.579 612.033 Q345.524 616.616 339.714 616.616 Q333.903 616.616 330.825 612.033 Q327.769 607.427 327.769 598.7 Q327.769 589.95 330.825 585.366 Q333.903 580.76 339.714 580.76 Z" fill="#000000" fill-rule="nonzero" fill-opacity="1" /><path clip-path="url(#clip010)" d="M265.918 396.098 Q262.307 396.098 260.478 399.663 Q258.672 403.204 258.672 410.334 Q258.672 417.44 260.478 421.005 Q262.307 424.547 265.918 424.547 Q269.552 424.547 271.357 421.005 Q273.186 417.44 273.186 410.334 Q273.186 403.204 271.357 399.663 Q269.552 396.098 265.918 396.098 M265.918 392.394 Q271.728 392.394 274.783 397.001 Q277.862 401.584 277.862 410.334 Q277.862 419.061 274.783 423.667 Q271.728 428.251 265.918 428.251 Q260.108 428.251 257.029 423.667 Q253.973 419.061 253.973 410.334 Q253.973 401.584 257.029 397.001 Q260.108 392.394 265.918 392.394 Z" fill="#000000" fill-rule="nonzero" fill-opacity="1" /><path clip-path="url(#clip010)" d="M286.08 421.7 L290.964 421.7 L290.964 427.579 L286.08 427.579 L286.08 421.7 Z" fill="#000000" fill-rule="nonzero" fill-opacity="1" /><path clip-path="url(#clip010)" d="M299.968 393.019 L322.191 393.019 L322.191 395.01 L309.644 427.579 L304.76 427.579 L316.566 396.954 L299.968 396.954 L299.968 393.019 Z" fill="#000000" fill-rule="nonzero" fill-opacity="1" /><path clip-path="url(#clip010)" d="M335.339 423.644 L351.658 423.644 L351.658 427.579 L329.714 427.579 L329.714 423.644 Q332.376 420.889 336.959 416.26 Q341.565 411.607 342.746 410.265 Q344.991 407.741 345.871 406.005 Q346.774 404.246 346.774 402.556 Q346.774 399.802 344.829 398.066 Q342.908 396.329 339.806 396.329 Q337.607 396.329 335.153 397.093 Q332.723 397.857 329.945 399.408 L329.945 394.686 Q332.769 393.552 335.223 392.973 Q337.677 392.394 339.714 392.394 Q345.084 392.394 348.278 395.079 Q351.473 397.765 351.473 402.255 Q351.473 404.385 350.663 406.306 Q349.876 408.204 347.769 410.797 Q347.19 411.468 344.089 414.686 Q340.987 417.88 335.339 423.644 Z" fill="#000000" fill-rule="nonzero" fill-opacity="1" /><path clip-path="url(#clip010)" d="M263.834 207.732 Q260.223 207.732 258.395 211.297 Q256.589 214.839 256.589 221.968 Q256.589 229.075 258.395 232.639 Q260.223 236.181 263.834 236.181 Q267.469 236.181 269.274 232.639 Q271.103 229.075 271.103 221.968 Q271.103 214.839 269.274 211.297 Q267.469 207.732 263.834 207.732 M263.834 204.029 Q269.645 204.029 272.7 208.635 Q275.779 213.218 275.779 221.968 Q275.779 230.695 272.7 235.301 Q269.645 239.885 263.834 239.885 Q258.024 239.885 254.946 235.301 Q251.89 230.695 251.89 221.968 Q251.89 213.218 254.946 208.635 Q258.024 204.029 263.834 204.029 Z" fill="#000000" fill-rule="nonzero" fill-opacity="1" /><path clip-path="url(#clip010)" d="M283.996 233.334 L288.881 233.334 L288.881 239.214 L283.996 239.214 L283.996 233.334 Z" fill="#000000" fill-rule="nonzero" fill-opacity="1" /><path clip-path="url(#clip010)" d="M297.885 204.654 L320.107 204.654 L320.107 206.644 L307.561 239.214 L302.677 239.214 L314.482 208.589 L297.885 208.589 L297.885 204.654 Z" fill="#000000" fill-rule="nonzero" fill-opacity="1" /><path clip-path="url(#clip010)" d="M342.075 208.728 L330.269 227.177 L342.075 227.177 L342.075 208.728 M340.848 204.654 L346.727 204.654 L346.727 227.177 L351.658 227.177 L351.658 231.065 L346.727 231.065 L346.727 239.214 L342.075 239.214 L342.075 231.065 L326.473 231.065 L326.473 226.552 L340.848 204.654 Z" fill="#000000" fill-rule="nonzero" fill-opacity="1" /><path clip-path="url(#clip010)" d="M121.861 1082.54 L121.861 1052.5 L127.272 1052.5 L127.272 1076.12 L141.341 1076.12 L141.341 1053.48 L146.751 1053.48 L146.751 1076.12 L163.971 1076.12 L163.971 1051.93 L169.381 1051.93 L169.381 1082.54 L121.861 1082.54 Z" fill="#000000" fill-rule="nonzero" fill-opacity="1" /><path clip-path="url(#clip010)" d="M139.208 1020.96 Q138.635 1021.94 138.38 1023.12 Q138.094 1024.27 138.094 1025.67 Q138.094 1030.63 141.341 1033.31 Q144.555 1035.95 150.603 1035.95 L169.381 1035.95 L169.381 1041.84 L133.734 1041.84 L133.734 1035.95 L139.272 1035.95 Q136.025 1034.1 134.466 1031.14 Q132.874 1028.18 132.874 1023.95 Q132.874 1023.34 132.97 1022.61 Q133.033 1021.88 133.192 1020.99 L139.208 1020.96 Z" fill="#000000" fill-rule="nonzero" fill-opacity="1" /><path clip-path="url(#clip010)" d="M139.208 995.302 Q138.635 996.289 138.38 997.467 Q138.094 998.613 138.094 1000.01 Q138.094 1004.98 141.341 1007.65 Q144.555 1010.29 150.603 1010.29 L169.381 1010.29 L169.381 1016.18 L133.734 1016.18 L133.734 1010.29 L139.272 1010.29 Q136.025 1008.45 134.466 1005.49 Q132.874 1002.53 132.874 998.294 Q132.874 997.69 132.97 996.957 Q133.033 996.225 133.192 995.334 L139.208 995.302 Z" fill="#000000" fill-rule="nonzero" fill-opacity="1" /><path clip-path="url(#clip010)" d="M137.839 976.778 Q137.839 981.489 141.531 984.226 Q145.192 986.963 151.589 986.963 Q157.987 986.963 161.679 984.258 Q165.339 981.521 165.339 976.778 Q165.339 972.099 161.647 969.362 Q157.955 966.625 151.589 966.625 Q145.255 966.625 141.563 969.362 Q137.839 972.099 137.839 976.778 M132.874 976.778 Q132.874 969.139 137.839 964.779 Q142.805 960.418 151.589 960.418 Q160.342 960.418 165.339 964.779 Q170.304 969.139 170.304 976.778 Q170.304 984.449 165.339 988.809 Q160.342 993.138 151.589 993.138 Q142.805 993.138 137.839 988.809 Q132.874 984.449 132.874 976.778 Z" fill="#000000" fill-rule="nonzero" fill-opacity="1" /><path clip-path="url(#clip010)" d="M139.208 930.054 Q138.635 931.041 138.38 932.218 Q138.094 933.364 138.094 934.765 Q138.094 939.73 141.341 942.403 Q144.555 945.045 150.603 945.045 L169.381 945.045 L169.381 950.933 L133.734 950.933 L133.734 945.045 L139.272 945.045 Q136.025 943.199 134.466 940.239 Q132.874 937.279 132.874 933.046 Q132.874 932.441 132.97 931.709 Q133.033 930.977 133.192 930.086 L139.208 930.054 Z" fill="#000000" fill-rule="nonzero" fill-opacity="1" /><path clip-path="url(#clip010)" d="M139.781 902.427 L139.781 861.623 L145.128 861.623 L145.128 902.427 L139.781 902.427 M152.767 902.427 L152.767 861.623 L158.178 861.623 L158.178 902.427 L152.767 902.427 Z" fill="#000000" fill-rule="nonzero" fill-opacity="1" /><path clip-path="url(#clip010)" d="M131.733 833.995 L129.672 833.995 Q129.672 826.073 125.453 821.983 Q125.453 820.855 125.71 820.662 Q125.968 820.469 127.16 820.469 L164.164 820.469 Q166.129 820.469 166.741 819.503 Q167.352 818.537 167.352 814.318 L167.352 812.224 L169.381 812.224 Q169.188 814.543 169.188 822.917 Q169.188 831.29 169.381 833.577 L167.352 833.577 L167.352 831.483 Q167.352 827.329 166.773 826.33 Q166.161 825.332 164.164 825.332 L129.994 825.332 Q131.733 828.778 131.733 833.995 Z" fill="#000000" fill-rule="nonzero" fill-opacity="1" /><path clip-path="url(#clip010)" d="M151.958 739.486 Q152.345 739.1 152.892 739.1 Q153.44 739.1 153.826 739.486 Q154.212 739.873 154.212 740.42 L154.212 781.708 Q154.212 782.256 153.826 782.642 Q153.44 783.029 152.892 783.029 Q152.345 783.029 151.958 782.642 Q151.572 782.256 151.572 781.708 L151.572 740.42 Q151.572 739.873 151.958 739.486 Z" fill="#000000" fill-rule="nonzero" fill-opacity="1" /><path clip-path="url(#clip010)" d="M135.338 661.832 L73.9213 661.832 Q71.4736 661.832 71.4736 660.511 Q71.4736 659.191 73.4382 659.191 L134.855 659.191 Q137.302 659.191 137.302 660.511 Q137.302 661.832 135.338 661.832 Z" fill="#000000" fill-rule="nonzero" fill-opacity="1" /><path clip-path="url(#clip010)" d="M136.046 619.695 Q136.594 619.695 136.98 620.082 Q137.367 620.468 137.367 621.016 Q137.367 621.95 136.497 622.272 L104.839 634.542 Q104.71 634.606 104.388 634.606 Q104.066 634.606 103.937 634.542 L72.2788 622.272 Q71.4092 621.95 71.4092 621.016 Q71.4092 620.468 71.7957 620.082 Q72.1821 619.695 72.7296 619.695 Q73.0517 619.695 73.1805 619.76 L104.388 631.901 L135.595 619.76 Q135.724 619.695 136.046 619.695 Z" fill="#000000" fill-rule="nonzero" fill-opacity="1" /><path clip-path="url(#clip010)" d="M96.3365 569.248 Q98.2689 569.248 101.65 569.988 Q105.032 570.697 106.642 571.277 Q110.926 572.887 114.533 576.108 Q116.53 577.879 117.979 579.811 Q119.396 581.711 120.104 583.128 Q120.781 584.546 121.135 586.22 Q121.522 587.895 121.554 588.668 Q121.618 589.441 121.618 590.536 L131.441 593.048 Q133.985 593.563 134.146 593.821 Q134.275 593.885 134.339 594.046 Q134.404 594.175 134.404 594.304 L134.404 594.433 Q134.404 594.787 134.243 594.98 Q134.082 595.173 133.889 595.206 L133.728 595.206 Q133.277 595.206 127.48 593.692 Q124.517 592.919 121.457 592.243 Q121.135 597.396 118.848 600.584 Q116.562 603.74 112.117 603.74 Q109.38 603.74 100.974 600.552 Q96.9484 599.038 95.2737 599.038 Q94.533 599.038 94.0821 599.199 Q93.599 599.36 93.438 599.682 Q93.2448 600.004 93.2126 600.198 Q93.1804 600.359 93.1804 600.681 Q93.1804 602.581 95.0805 604.352 Q96.9806 606.123 101.361 607.347 Q102.166 607.605 102.359 607.766 Q102.552 607.927 102.552 608.41 Q102.52 609.215 101.876 609.215 Q101.618 609.215 100.62 608.925 Q99.5893 608.636 98.0756 607.959 Q96.5298 607.251 95.1449 606.284 Q93.7279 605.318 92.7295 603.805 Q91.7311 602.259 91.7311 600.487 Q91.7311 598.072 93.3092 596.591 Q94.8551 595.077 97.1417 595.077 Q97.5926 595.077 98.1079 595.173 Q98.6231 595.27 98.913 595.367 Q99.2029 595.431 99.7504 595.624 Q100.266 595.785 100.362 595.818 Q104.613 597.46 107.383 598.297 Q110.121 599.135 110.926 599.264 Q111.699 599.36 112.633 599.36 Q119.138 599.36 120.008 591.856 L76.4333 580.906 Q75.5315 580.713 75.3383 580.552 Q75.1129 580.391 75.1129 579.908 Q75.1129 579.135 75.8214 579.135 Q76.0468 579.135 76.8198 579.328 L120.137 590.214 Q120.137 589.183 120.104 588.539 Q120.072 587.895 119.782 586.542 Q119.46 585.157 118.881 583.998 Q118.301 582.806 117.142 581.132 Q115.95 579.457 114.275 577.815 Q112.182 575.753 108.671 573.918 Q105.161 572.082 102.262 572.082 Q99.0096 572.082 96.6586 574.433 Q96.3365 574.787 96.1433 574.98 Q95.9501 575.141 95.628 575.302 Q95.3059 575.431 94.8873 575.431 Q93.7923 575.431 92.7617 574.401 Q91.7311 573.37 91.7311 572.146 Q91.7311 571.051 92.7939 570.15 Q93.8567 569.248 96.3365 569.248 Z" fill="#000000" fill-rule="nonzero" fill-opacity="1" /><path clip-path="url(#clip010)" d="M135.338 558.511 L73.9213 558.511 Q71.4736 558.511 71.4736 557.19 Q71.4736 555.87 73.4382 555.87 L134.855 555.87 Q137.302 555.87 137.302 557.19 Q137.302 558.511 135.338 558.511 Z" fill="#000000" fill-rule="nonzero" fill-opacity="1" /><path clip-path="url(#clip010)" d="M100.813 507.989 Q104.646 507.989 108.446 509.76 Q112.246 511.532 115.145 514.43 Q118.011 517.297 119.815 521.226 Q121.618 525.123 121.618 529.116 Q121.618 529.825 121.457 531.274 Q133.341 533.528 133.534 533.593 Q134.211 533.883 134.629 534.462 Q135.048 535.01 135.145 535.396 Q135.241 535.783 135.241 536.04 Q135.241 536.685 134.79 537.329 Q134.372 537.941 133.405 537.941 Q133.18 537.941 132.085 537.619 L121.006 534.108 Q119.782 539.422 116.401 542.482 Q112.987 545.541 108.349 545.541 Q105.386 545.541 101.522 544.189 Q97.657 542.836 95.0483 541.193 Q92.4396 539.551 92.4396 538.617 Q92.4396 537.812 93.1159 537.812 Q93.3736 537.812 93.9533 538.327 Q96.9484 540.936 101.264 542.385 Q105.547 543.802 107.609 543.802 Q111.216 543.802 113.824 541.032 Q116.401 538.23 117.367 532.981 Q107.254 529.857 103.003 527.989 Q94.5652 524.221 92.504 519.326 Q91.7311 517.522 91.7311 515.525 Q91.7311 511.918 94.2754 509.954 Q96.7874 507.989 100.813 507.989 M102.262 509.857 Q100.555 509.857 99.1062 510.469 Q97.657 511.049 96.6264 512.53 Q95.5636 514.012 95.5636 516.169 Q95.5636 520.485 99.7181 524.092 Q103.873 527.699 110.314 529.245 L117.464 530.565 Q117.721 530.565 117.721 529.696 Q117.786 529.181 117.786 528.504 Q117.786 524.833 116.401 521.355 Q115.016 517.844 112.826 515.364 Q110.636 512.884 107.834 511.371 Q105.032 509.857 102.262 509.857 Z" fill="#000000" fill-rule="nonzero" fill-opacity="1" /><path clip-path="url(#clip010)" d="M103.937 488.014 Q104.066 487.95 104.388 487.95 Q104.71 487.95 104.839 488.014 L136.497 500.285 Q137.367 500.607 137.367 501.509 Q137.367 502.056 136.98 502.443 Q136.594 502.829 136.046 502.829 Q135.724 502.829 135.595 502.765 L104.388 490.655 L73.1805 502.765 Q73.0517 502.829 72.7296 502.829 Q72.1821 502.829 71.7957 502.443 Q71.4092 502.056 71.4092 501.509 Q71.4092 500.607 72.2788 500.285 L103.937 488.014 Z" fill="#000000" fill-rule="nonzero" fill-opacity="1" /><path clip-path="url(#clip010)" d="M135.338 477.438 L73.9213 477.438 Q71.4736 477.438 71.4736 476.117 Q71.4736 474.797 73.4382 474.797 L134.855 474.797 Q137.302 474.797 137.302 476.117 Q137.302 477.438 135.338 477.438 Z" fill="#000000" fill-rule="nonzero" fill-opacity="1" /><path clip-path="url(#clip010)" d="M70.6664 446.552 L80.924 447.995 L80.924 467.789 L80.0898 467.789 Q79.3684 467.789 79.1655 467.721 Q78.9401 467.631 78.5343 467.202 L69.0658 457.914 Q64.0159 452.932 59.462 452.932 Q56.7116 452.932 54.7953 454.555 Q52.8566 456.178 52.8566 459.019 Q52.8566 461.859 54.4572 463.776 Q54.5474 463.415 54.7277 463.054 Q54.9081 462.694 55.2913 462.22 Q55.652 461.747 56.3058 461.454 Q56.9596 461.138 57.7937 461.138 Q59.3943 461.138 60.251 462.175 Q61.1077 463.19 61.1077 464.475 Q61.1077 464.948 60.9499 465.466 Q60.7921 465.985 60.4539 466.549 Q60.0932 467.09 59.3943 467.45 Q58.6729 467.789 57.7035 467.789 Q54.6375 467.789 52.6762 464.948 Q50.6923 462.107 50.6923 457.869 Q50.6923 452.909 53.082 449.731 Q55.4717 446.552 59.4169 446.552 Q60.7019 446.552 61.8066 446.913 Q62.8887 447.251 63.813 447.905 Q64.7373 448.536 65.7067 449.55 Q66.6535 450.565 67.6004 451.782 Q68.5247 452.977 69.697 454.578 Q69.7872 454.713 69.8323 454.781 Q71.5682 457.125 75.1527 461.431 L75.1527 454.645 Q75.1527 450.452 74.8821 449.934 Q74.5665 449.28 70.6664 448.716 L70.6664 446.552 Z" fill="#000000" fill-rule="nonzero" fill-opacity="1" /><path clip-path="url(#clip010)" d="M154.806 699.832 L154.806 394.92 L151.286 394.92 L151.286 699.832  Z" fill="#000000" fill-rule="evenodd" fill-opacity="1"/>
<path clip-path="url(#clip010)" d="M233.054 684.92 Q233.602 684.92 233.988 685.307 Q234.375 685.693 234.375 686.241 Q234.375 687.175 233.505 687.497 L201.847 699.767 Q201.718 699.832 201.396 699.832 Q201.074 699.832 200.945 699.767 L169.287 687.497 Q168.417 687.175 168.417 686.241 Q168.417 685.693 168.804 685.307 Q169.19 684.92 169.738 684.92 Q170.06 684.92 170.189 684.985 L201.396 697.126 L232.604 684.985 Q232.732 684.92 233.054 684.92 Z" fill="#000000" fill-rule="nonzero" fill-opacity="1" /><path clip-path="url(#clip010)" d="M193.345 634.473 Q195.277 634.473 198.659 635.214 Q202.04 635.922 203.651 636.502 Q207.934 638.112 211.541 641.333 Q213.538 643.104 214.987 645.037 Q216.404 646.937 217.113 648.354 Q217.789 649.771 218.143 651.446 Q218.53 653.12 218.562 653.893 Q218.626 654.666 218.626 655.761 L228.449 658.273 Q230.993 658.789 231.154 659.046 Q231.283 659.111 231.348 659.272 Q231.412 659.4 231.412 659.529 L231.412 659.658 Q231.412 660.012 231.251 660.206 Q231.09 660.399 230.897 660.431 L230.736 660.431 Q230.285 660.431 224.488 658.917 Q221.525 658.144 218.465 657.468 Q218.143 662.621 215.857 665.809 Q213.57 668.966 209.126 668.966 Q206.388 668.966 197.982 665.777 Q193.957 664.264 192.282 664.264 Q191.541 664.264 191.09 664.425 Q190.607 664.586 190.446 664.908 Q190.253 665.23 190.221 665.423 Q190.188 665.584 190.188 665.906 Q190.188 667.806 192.089 669.577 Q193.989 671.349 198.369 672.573 Q199.174 672.83 199.367 672.991 Q199.56 673.152 199.56 673.635 Q199.528 674.441 198.884 674.441 Q198.626 674.441 197.628 674.151 Q196.597 673.861 195.084 673.185 Q193.538 672.476 192.153 671.51 Q190.736 670.544 189.738 669.03 Q188.739 667.484 188.739 665.713 Q188.739 663.297 190.317 661.816 Q191.863 660.302 194.15 660.302 Q194.601 660.302 195.116 660.399 Q195.631 660.495 195.921 660.592 Q196.211 660.656 196.758 660.85 Q197.274 661.011 197.37 661.043 Q201.622 662.685 204.391 663.523 Q207.129 664.36 207.934 664.489 Q208.707 664.586 209.641 664.586 Q216.146 664.586 217.016 657.082 L173.441 646.132 Q172.54 645.938 172.346 645.777 Q172.121 645.616 172.121 645.133 Q172.121 644.36 172.83 644.36 Q173.055 644.36 173.828 644.554 L217.145 655.439 Q217.145 654.409 217.113 653.764 Q217.08 653.12 216.791 651.768 Q216.468 650.383 215.889 649.223 Q215.309 648.032 214.15 646.357 Q212.958 644.682 211.283 643.04 Q209.19 640.979 205.68 639.143 Q202.169 637.307 199.271 637.307 Q196.018 637.307 193.667 639.658 Q193.345 640.013 193.151 640.206 Q192.958 640.367 192.636 640.528 Q192.314 640.657 191.895 640.657 Q190.8 640.657 189.77 639.626 Q188.739 638.595 188.739 637.372 Q188.739 636.277 189.802 635.375 Q190.865 634.473 193.345 634.473 Z" fill="#000000" fill-rule="nonzero" fill-opacity="1" /><path clip-path="url(#clip010)" d="M232.346 623.736 L170.929 623.736 Q168.482 623.736 168.482 622.415 Q168.482 621.095 170.446 621.095 L231.863 621.095 Q234.311 621.095 234.311 622.415 Q234.311 623.736 232.346 623.736 Z" fill="#000000" fill-rule="nonzero" fill-opacity="1" /><path clip-path="url(#clip010)" d="M193.345 572.383 Q195.277 572.383 198.659 573.124 Q202.04 573.832 203.651 574.412 Q207.934 576.022 211.541 579.243 Q213.538 581.014 214.987 582.947 Q216.404 584.847 217.113 586.264 Q217.789 587.681 218.143 589.356 Q218.53 591.03 218.562 591.803 Q218.626 592.576 218.626 593.671 L228.449 596.183 Q230.993 596.698 231.154 596.956 Q231.283 597.021 231.348 597.182 Q231.412 597.31 231.412 597.439 L231.412 597.568 Q231.412 597.922 231.251 598.116 Q231.09 598.309 230.897 598.341 L230.736 598.341 Q230.285 598.341 224.488 596.827 Q221.525 596.054 218.465 595.378 Q218.143 600.531 215.857 603.719 Q213.57 606.876 209.126 606.876 Q206.388 606.876 197.982 603.687 Q193.957 602.173 192.282 602.173 Q191.541 602.173 191.09 602.335 Q190.607 602.496 190.446 602.818 Q190.253 603.14 190.221 603.333 Q190.188 603.494 190.188 603.816 Q190.188 605.716 192.089 607.487 Q193.989 609.259 198.369 610.483 Q199.174 610.74 199.367 610.901 Q199.56 611.062 199.56 611.545 Q199.528 612.351 198.884 612.351 Q198.626 612.351 197.628 612.061 Q196.597 611.771 195.084 611.095 Q193.538 610.386 192.153 609.42 Q190.736 608.454 189.738 606.94 Q188.739 605.394 188.739 603.623 Q188.739 601.207 190.317 599.726 Q191.863 598.212 194.15 598.212 Q194.601 598.212 195.116 598.309 Q195.631 598.405 195.921 598.502 Q196.211 598.566 196.758 598.76 Q197.274 598.921 197.37 598.953 Q201.622 600.595 204.391 601.433 Q207.129 602.27 207.934 602.399 Q208.707 602.496 209.641 602.496 Q216.146 602.496 217.016 594.992 L173.441 584.042 Q172.54 583.848 172.346 583.687 Q172.121 583.526 172.121 583.043 Q172.121 582.27 172.83 582.27 Q173.055 582.27 173.828 582.463 L217.145 593.349 Q217.145 592.318 217.113 591.674 Q217.08 591.03 216.791 589.678 Q216.468 588.293 215.889 587.133 Q215.309 585.942 214.15 584.267 Q212.958 582.592 211.283 580.95 Q209.19 578.889 205.68 577.053 Q202.169 575.217 199.271 575.217 Q196.018 575.217 193.667 577.568 Q193.345 577.922 193.151 578.116 Q192.958 578.277 192.636 578.438 Q192.314 578.567 191.895 578.567 Q190.8 578.567 189.77 577.536 Q188.739 576.505 188.739 575.282 Q188.739 574.187 189.802 573.285 Q190.865 572.383 193.345 572.383 Z" fill="#000000" fill-rule="nonzero" fill-opacity="1" /><path clip-path="url(#clip010)" d="M200.945 555.015 Q201.074 554.951 201.396 554.951 Q201.718 554.951 201.847 555.015 L233.505 567.286 Q234.375 567.608 234.375 568.509 Q234.375 569.057 233.988 569.443 Q233.602 569.83 233.054 569.83 Q232.732 569.83 232.604 569.765 L201.396 557.656 L170.189 569.765 Q170.06 569.83 169.738 569.83 Q169.19 569.83 168.804 569.443 Q168.417 569.057 168.417 568.509 Q168.417 567.608 169.287 567.286 L200.945 555.015 Z" fill="#000000" fill-rule="nonzero" fill-opacity="1" /><path clip-path="url(#clip010)" d="M233.054 529.527 Q233.602 529.527 233.988 529.914 Q234.375 530.3 234.375 530.848 Q234.375 531.782 233.505 532.104 L201.847 544.374 Q201.718 544.439 201.396 544.439 Q201.074 544.439 200.945 544.374 L169.287 532.104 Q168.417 531.782 168.417 530.848 Q168.417 530.3 168.804 529.914 Q169.19 529.527 169.738 529.527 Q170.06 529.527 170.189 529.592 L201.396 541.733 L232.604 529.592 Q232.732 529.527 233.054 529.527 Z" fill="#000000" fill-rule="nonzero" fill-opacity="1" /><path clip-path="url(#clip010)" d="M197.821 481.495 Q201.654 481.495 205.454 483.267 Q209.254 485.038 212.153 487.937 Q215.019 490.803 216.823 494.732 Q218.626 498.629 218.626 502.622 Q218.626 503.331 218.465 504.78 Q230.349 507.035 230.542 507.099 Q231.219 507.389 231.637 507.969 Q232.056 508.516 232.153 508.903 Q232.249 509.289 232.249 509.547 Q232.249 510.191 231.798 510.835 Q231.38 511.447 230.414 511.447 Q230.188 511.447 229.093 511.125 L218.014 507.614 Q216.791 512.928 213.409 515.988 Q209.995 519.047 205.357 519.047 Q202.395 519.047 198.53 517.695 Q194.665 516.342 192.056 514.7 Q189.448 513.057 189.448 512.123 Q189.448 511.318 190.124 511.318 Q190.382 511.318 190.961 511.833 Q193.957 514.442 198.272 515.891 Q202.556 517.308 204.617 517.308 Q208.224 517.308 210.832 514.539 Q213.409 511.737 214.375 506.487 Q204.262 503.363 200.011 501.495 Q191.573 497.727 189.512 492.832 Q188.739 491.028 188.739 489.032 Q188.739 485.425 191.283 483.46 Q193.796 481.495 197.821 481.495 M199.271 483.363 Q197.564 483.363 196.114 483.975 Q194.665 484.555 193.635 486.036 Q192.572 487.518 192.572 489.676 Q192.572 493.991 196.726 497.598 Q200.881 501.205 207.322 502.751 L214.472 504.072 Q214.729 504.072 214.729 503.202 Q214.794 502.687 214.794 502.011 Q214.794 498.339 213.409 494.861 Q212.024 491.35 209.834 488.871 Q207.644 486.391 204.842 484.877 Q202.04 483.363 199.271 483.363 Z" fill="#000000" fill-rule="nonzero" fill-opacity="1" /><path clip-path="url(#clip010)" d="M232.346 472.375 L170.929 472.375 Q168.482 472.375 168.482 471.055 Q168.482 469.734 170.446 469.734 L231.863 469.734 Q234.311 469.734 234.311 471.055 Q234.311 472.375 232.346 472.375 Z" fill="#000000" fill-rule="nonzero" fill-opacity="1" /><path clip-path="url(#clip010)" d="M197.821 421.854 Q201.654 421.854 205.454 423.625 Q209.254 425.397 212.153 428.295 Q215.019 431.161 216.823 435.091 Q218.626 438.987 218.626 442.981 Q218.626 443.69 218.465 445.139 Q230.349 447.393 230.542 447.458 Q231.219 447.747 231.637 448.327 Q232.056 448.875 232.153 449.261 Q232.249 449.648 232.249 449.905 Q232.249 450.549 231.798 451.194 Q231.38 451.805 230.414 451.805 Q230.188 451.805 229.093 451.483 L218.014 447.973 Q216.791 453.287 213.409 456.346 Q209.995 459.406 205.357 459.406 Q202.395 459.406 198.53 458.053 Q194.665 456.701 192.056 455.058 Q189.448 453.416 189.448 452.482 Q189.448 451.677 190.124 451.677 Q190.382 451.677 190.961 452.192 Q193.957 454.801 198.272 456.25 Q202.556 457.667 204.617 457.667 Q208.224 457.667 210.832 454.897 Q213.409 452.095 214.375 446.846 Q204.262 443.722 200.011 441.854 Q191.573 438.086 189.512 433.19 Q188.739 431.387 188.739 429.39 Q188.739 425.783 191.283 423.819 Q193.796 421.854 197.821 421.854 M199.271 423.722 Q197.564 423.722 196.114 424.334 Q194.665 424.914 193.635 426.395 Q192.572 427.876 192.572 430.034 Q192.572 434.35 196.726 437.957 Q200.881 441.564 207.322 443.11 L214.472 444.43 Q214.729 444.43 214.729 443.561 Q214.794 443.045 214.794 442.369 Q214.794 438.698 213.409 435.219 Q212.024 431.709 209.834 429.229 Q207.644 426.749 204.842 425.236 Q202.04 423.722 199.271 423.722 Z" fill="#000000" fill-rule="nonzero" fill-opacity="1" /><path clip-path="url(#clip010)" d="M200.945 401.879 Q201.074 401.815 201.396 401.815 Q201.718 401.815 201.847 401.879 L233.505 414.15 Q234.375 414.472 234.375 415.373 Q234.375 415.921 233.988 416.307 Q233.602 416.694 233.054 416.694 Q232.732 416.694 232.604 416.63 L201.396 404.52 L170.189 416.63 Q170.06 416.694 169.738 416.694 Q169.19 416.694 168.804 416.307 Q168.417 415.921 168.417 415.373 Q168.417 414.472 169.287 414.15 L200.945 401.879 Z" fill="#000000" fill-rule="nonzero" fill-opacity="1" /><circle clip-path="url(#clip012)" cx="443.274" cy="86.1857" r="14.4" fill="#009af9" fill-rule="evenodd" fill-opacity="1" stroke="#000000" stroke-opacity="1" stroke-width="3.2"/>
<circle clip-path="url(#clip012)" cx="481.108" cy="774.929" r="14.4" fill="#009af9" fill-rule="evenodd" fill-opacity="1" stroke="#000000" stroke-opacity="1" stroke-width="3.2"/>
<circle clip-path="url(#clip012)" cx="518.942" cy="1003.04" r="14.4" fill="#009af9" fill-rule="evenodd" fill-opacity="1" stroke="#000000" stroke-opacity="1" stroke-width="3.2"/>
<circle clip-path="url(#clip012)" cx="556.776" cy="1133.75" r="14.4" fill="#009af9" fill-rule="evenodd" fill-opacity="1" stroke="#000000" stroke-opacity="1" stroke-width="3.2"/>
<circle clip-path="url(#clip012)" cx="594.61" cy="1191.54" r="14.4" fill="#009af9" fill-rule="evenodd" fill-opacity="1" stroke="#000000" stroke-opacity="1" stroke-width="3.2"/>
<circle clip-path="url(#clip012)" cx="632.444" cy="1231.76" r="14.4" fill="#009af9" fill-rule="evenodd" fill-opacity="1" stroke="#000000" stroke-opacity="1" stroke-width="3.2"/>
<circle clip-path="url(#clip012)" cx="670.278" cy="1273.26" r="14.4" fill="#009af9" fill-rule="evenodd" fill-opacity="1" stroke="#000000" stroke-opacity="1" stroke-width="3.2"/>
<circle clip-path="url(#clip012)" cx="708.112" cy="1290.25" r="14.4" fill="#009af9" fill-rule="evenodd" fill-opacity="1" stroke="#000000" stroke-opacity="1" stroke-width="3.2"/>
<circle clip-path="url(#clip012)" cx="745.946" cy="1310.37" r="14.4" fill="#009af9" fill-rule="evenodd" fill-opacity="1" stroke="#000000" stroke-opacity="1" stroke-width="3.2"/>
<circle clip-path="url(#clip012)" cx="783.78" cy="1316.37" r="14.4" fill="#009af9" fill-rule="evenodd" fill-opacity="1" stroke="#000000" stroke-opacity="1" stroke-width="3.2"/>
<circle clip-path="url(#clip012)" cx="821.614" cy="1324.88" r="14.4" fill="#009af9" fill-rule="evenodd" fill-opacity="1" stroke="#000000" stroke-opacity="1" stroke-width="3.2"/>
<circle clip-path="url(#clip012)" cx="859.448" cy="1327.81" r="14.4" fill="#009af9" fill-rule="evenodd" fill-opacity="1" stroke="#000000" stroke-opacity="1" stroke-width="3.2"/>
<circle clip-path="url(#clip012)" cx="897.282" cy="1337.72" r="14.4" fill="#009af9" fill-rule="evenodd" fill-opacity="1" stroke="#000000" stroke-opacity="1" stroke-width="3.2"/>
<circle clip-path="url(#clip012)" cx="935.116" cy="1339" r="14.4" fill="#009af9" fill-rule="evenodd" fill-opacity="1" stroke="#000000" stroke-opacity="1" stroke-width="3.2"/>
<circle clip-path="url(#clip012)" cx="972.95" cy="1353.37" r="14.4" fill="#009af9" fill-rule="evenodd" fill-opacity="1" stroke="#000000" stroke-opacity="1" stroke-width="3.2"/>
<circle clip-path="url(#clip012)" cx="1010.78" cy="1350.52" r="14.4" fill="#009af9" fill-rule="evenodd" fill-opacity="1" stroke="#000000" stroke-opacity="1" stroke-width="3.2"/>
<circle clip-path="url(#clip012)" cx="1048.62" cy="1353.41" r="14.4" fill="#009af9" fill-rule="evenodd" fill-opacity="1" stroke="#000000" stroke-opacity="1" stroke-width="3.2"/>
<circle clip-path="url(#clip012)" cx="1086.45" cy="1353.66" r="14.4" fill="#009af9" fill-rule="evenodd" fill-opacity="1" stroke="#000000" stroke-opacity="1" stroke-width="3.2"/>
<circle clip-path="url(#clip012)" cx="1124.29" cy="1365.62" r="14.4" fill="#009af9" fill-rule="evenodd" fill-opacity="1" stroke="#000000" stroke-opacity="1" stroke-width="3.2"/>
<circle clip-path="url(#clip012)" cx="1162.12" cy="1358.41" r="14.4" fill="#009af9" fill-rule="evenodd" fill-opacity="1" stroke="#000000" stroke-opacity="1" stroke-width="3.2"/>
<circle clip-path="url(#clip012)" cx="1199.95" cy="1364.65" r="14.4" fill="#009af9" fill-rule="evenodd" fill-opacity="1" stroke="#000000" stroke-opacity="1" stroke-width="3.2"/>
<circle clip-path="url(#clip012)" cx="1237.79" cy="1364.11" r="14.4" fill="#009af9" fill-rule="evenodd" fill-opacity="1" stroke="#000000" stroke-opacity="1" stroke-width="3.2"/>
<circle clip-path="url(#clip012)" cx="1275.62" cy="1361.03" r="14.4" fill="#009af9" fill-rule="evenodd" fill-opacity="1" stroke="#000000" stroke-opacity="1" stroke-width="3.2"/>
<circle clip-path="url(#clip012)" cx="1313.46" cy="1367.22" r="14.4" fill="#009af9" fill-rule="evenodd" fill-opacity="1" stroke="#000000" stroke-opacity="1" stroke-width="3.2"/>
<circle clip-path="url(#clip012)" cx="1351.29" cy="1370.66" r="14.4" fill="#009af9" fill-rule="evenodd" fill-opacity="1" stroke="#000000" stroke-opacity="1" stroke-width="3.2"/>
<circle clip-path="url(#clip012)" cx="1389.12" cy="1376.97" r="14.4" fill="#009af9" fill-rule="evenodd" fill-opacity="1" stroke="#000000" stroke-opacity="1" stroke-width="3.2"/>
<circle clip-path="url(#clip012)" cx="1426.96" cy="1374.12" r="14.4" fill="#009af9" fill-rule="evenodd" fill-opacity="1" stroke="#000000" stroke-opacity="1" stroke-width="3.2"/>
<circle clip-path="url(#clip012)" cx="1464.79" cy="1371.89" r="14.4" fill="#009af9" fill-rule="evenodd" fill-opacity="1" stroke="#000000" stroke-opacity="1" stroke-width="3.2"/>
<circle clip-path="url(#clip012)" cx="1502.63" cy="1374.41" r="14.4" fill="#009af9" fill-rule="evenodd" fill-opacity="1" stroke="#000000" stroke-opacity="1" stroke-width="3.2"/>
<circle clip-path="url(#clip012)" cx="1540.46" cy="1371.74" r="14.4" fill="#009af9" fill-rule="evenodd" fill-opacity="1" stroke="#000000" stroke-opacity="1" stroke-width="3.2"/>
<circle clip-path="url(#clip012)" cx="1578.29" cy="1373.72" r="14.4" fill="#009af9" fill-rule="evenodd" fill-opacity="1" stroke="#000000" stroke-opacity="1" stroke-width="3.2"/>
<circle clip-path="url(#clip012)" cx="1616.13" cy="1378.63" r="14.4" fill="#009af9" fill-rule="evenodd" fill-opacity="1" stroke="#000000" stroke-opacity="1" stroke-width="3.2"/>
<circle clip-path="url(#clip012)" cx="1653.96" cy="1378.34" r="14.4" fill="#009af9" fill-rule="evenodd" fill-opacity="1" stroke="#000000" stroke-opacity="1" stroke-width="3.2"/>
<circle clip-path="url(#clip012)" cx="1691.8" cy="1376.35" r="14.4" fill="#009af9" fill-rule="evenodd" fill-opacity="1" stroke="#000000" stroke-opacity="1" stroke-width="3.2"/>
<circle clip-path="url(#clip012)" cx="1729.63" cy="1372.18" r="14.4" fill="#009af9" fill-rule="evenodd" fill-opacity="1" stroke="#000000" stroke-opacity="1" stroke-width="3.2"/>
<circle clip-path="url(#clip012)" cx="1767.46" cy="1377.63" r="14.4" fill="#009af9" fill-rule="evenodd" fill-opacity="1" stroke="#000000" stroke-opacity="1" stroke-width="3.2"/>
<circle clip-path="url(#clip012)" cx="1805.3" cy="1376.51" r="14.4" fill="#009af9" fill-rule="evenodd" fill-opacity="1" stroke="#000000" stroke-opacity="1" stroke-width="3.2"/>
<circle clip-path="url(#clip012)" cx="1843.13" cy="1380.84" r="14.4" fill="#009af9" fill-rule="evenodd" fill-opacity="1" stroke="#000000" stroke-opacity="1" stroke-width="3.2"/>
<circle clip-path="url(#clip012)" cx="1880.97" cy="1381.52" r="14.4" fill="#009af9" fill-rule="evenodd" fill-opacity="1" stroke="#000000" stroke-opacity="1" stroke-width="3.2"/>
<circle clip-path="url(#clip012)" cx="1918.8" cy="1381.43" r="14.4" fill="#009af9" fill-rule="evenodd" fill-opacity="1" stroke="#000000" stroke-opacity="1" stroke-width="3.2"/>
<circle clip-path="url(#clip012)" cx="1956.63" cy="1378.25" r="14.4" fill="#009af9" fill-rule="evenodd" fill-opacity="1" stroke="#000000" stroke-opacity="1" stroke-width="3.2"/>
<circle clip-path="url(#clip012)" cx="1994.47" cy="1380.17" r="14.4" fill="#009af9" fill-rule="evenodd" fill-opacity="1" stroke="#000000" stroke-opacity="1" stroke-width="3.2"/>
<circle clip-path="url(#clip012)" cx="2032.3" cy="1382.64" r="14.4" fill="#009af9" fill-rule="evenodd" fill-opacity="1" stroke="#000000" stroke-opacity="1" stroke-width="3.2"/>
<circle clip-path="url(#clip012)" cx="2070.14" cy="1380.82" r="14.4" fill="#009af9" fill-rule="evenodd" fill-opacity="1" stroke="#000000" stroke-opacity="1" stroke-width="3.2"/>
<circle clip-path="url(#clip012)" cx="2107.97" cy="1383.26" r="14.4" fill="#009af9" fill-rule="evenodd" fill-opacity="1" stroke="#000000" stroke-opacity="1" stroke-width="3.2"/>
<circle clip-path="url(#clip012)" cx="2145.8" cy="1381.59" r="14.4" fill="#009af9" fill-rule="evenodd" fill-opacity="1" stroke="#000000" stroke-opacity="1" stroke-width="3.2"/>
<circle clip-path="url(#clip012)" cx="2183.64" cy="1383.49" r="14.4" fill="#009af9" fill-rule="evenodd" fill-opacity="1" stroke="#000000" stroke-opacity="1" stroke-width="3.2"/>
<circle clip-path="url(#clip012)" cx="2221.47" cy="1383.56" r="14.4" fill="#009af9" fill-rule="evenodd" fill-opacity="1" stroke="#000000" stroke-opacity="1" stroke-width="3.2"/>
<circle clip-path="url(#clip012)" cx="2259.31" cy="1384.24" r="14.4" fill="#009af9" fill-rule="evenodd" fill-opacity="1" stroke="#000000" stroke-opacity="1" stroke-width="3.2"/>
<circle clip-path="url(#clip012)" cx="2297.14" cy="1382.57" r="14.4" fill="#009af9" fill-rule="evenodd" fill-opacity="1" stroke="#000000" stroke-opacity="1" stroke-width="3.2"/>
</svg>
