<?xml version="1.0" encoding="utf-8"?>
<svg xmlns="http://www.w3.org/2000/svg" xmlns:xlink="http://www.w3.org/1999/xlink" width="600" height="400" viewBox="0 0 2400 1600">
<defs>
  <clipPath id="clip420">
    <rect x="0" y="0" width="2400" height="1600"/>
  </clipPath>
</defs>
<path clip-path="url(#clip420)" d="M0 1600 L2400 1600 L2400 0 L0 0  Z" fill="#ffffff" fill-rule="evenodd" fill-opacity="1"/>
<defs>
  <clipPath id="clip421">
    <rect x="480" y="0" width="1681" height="1600"/>
  </clipPath>
</defs>
<path clip-path="url(#clip420)" d="M265.22 1423.18 L2352.76 1423.18 L2352.76 47.2441 L265.22 47.2441  Z" fill="#ffffff" fill-rule="evenodd" fill-opacity="1"/>
<defs>
  <clipPath id="clip422">
    <rect x="265" y="47" width="2089" height="1377"/>
  </clipPath>
</defs>
<polyline clip-path="url(#clip422)" style="stroke:#000000; stroke-linecap:round; stroke-linejoin:round; stroke-width:2; stroke-opacity:0.1; fill:none" points="324.301,1423.18 324.301,47.2441 "/>
<polyline clip-path="url(#clip422)" style="stroke:#000000; stroke-linecap:round; stroke-linejoin:round; stroke-width:2; stroke-opacity:0.1; fill:none" points="581.942,1423.18 581.942,47.2441 "/>
<polyline clip-path="url(#clip422)" style="stroke:#000000; stroke-linecap:round; stroke-linejoin:round; stroke-width:2; stroke-opacity:0.1; fill:none" points="922.526,1423.18 922.526,47.2441 "/>
<polyline clip-path="url(#clip422)" style="stroke:#000000; stroke-linecap:round; stroke-linejoin:round; stroke-width:2; stroke-opacity:0.1; fill:none" points="1180.17,1423.18 1180.17,47.2441 "/>
<polyline clip-path="url(#clip422)" style="stroke:#000000; stroke-linecap:round; stroke-linejoin:round; stroke-width:2; stroke-opacity:0.1; fill:none" points="1437.81,1423.18 1437.81,47.2441 "/>
<polyline clip-path="url(#clip422)" style="stroke:#000000; stroke-linecap:round; stroke-linejoin:round; stroke-width:2; stroke-opacity:0.1; fill:none" points="1778.39,1423.18 1778.39,47.2441 "/>
<polyline clip-path="url(#clip422)" style="stroke:#000000; stroke-linecap:round; stroke-linejoin:round; stroke-width:2; stroke-opacity:0.1; fill:none" points="2036.03,1423.18 2036.03,47.2441 "/>
<polyline clip-path="url(#clip422)" style="stroke:#000000; stroke-linecap:round; stroke-linejoin:round; stroke-width:2; stroke-opacity:0.1; fill:none" points="2293.67,1423.18 2293.67,47.2441 "/>
<polyline clip-path="url(#clip420)" style="stroke:#000000; stroke-linecap:round; stroke-linejoin:round; stroke-width:4; stroke-opacity:1; fill:none" points="265.22,1423.18 2352.76,1423.18 "/>
<polyline clip-path="url(#clip420)" style="stroke:#000000; stroke-linecap:round; stroke-linejoin:round; stroke-width:4; stroke-opacity:1; fill:none" points="324.301,1423.18 324.301,1404.28 "/>
<polyline clip-path="url(#clip420)" style="stroke:#000000; stroke-linecap:round; stroke-linejoin:round; stroke-width:4; stroke-opacity:1; fill:none" points="581.942,1423.18 581.942,1404.28 "/>
<polyline clip-path="url(#clip420)" style="stroke:#000000; stroke-linecap:round; stroke-linejoin:round; stroke-width:4; stroke-opacity:1; fill:none" points="922.526,1423.18 922.526,1404.28 "/>
<polyline clip-path="url(#clip420)" style="stroke:#000000; stroke-linecap:round; stroke-linejoin:round; stroke-width:4; stroke-opacity:1; fill:none" points="1180.17,1423.18 1180.17,1404.28 "/>
<polyline clip-path="url(#clip420)" style="stroke:#000000; stroke-linecap:round; stroke-linejoin:round; stroke-width:4; stroke-opacity:1; fill:none" points="1437.81,1423.18 1437.81,1404.28 "/>
<polyline clip-path="url(#clip420)" style="stroke:#000000; stroke-linecap:round; stroke-linejoin:round; stroke-width:4; stroke-opacity:1; fill:none" points="1778.39,1423.18 1778.39,1404.28 "/>
<polyline clip-path="url(#clip420)" style="stroke:#000000; stroke-linecap:round; stroke-linejoin:round; stroke-width:4; stroke-opacity:1; fill:none" points="2036.03,1423.18 2036.03,1404.28 "/>
<polyline clip-path="url(#clip420)" style="stroke:#000000; stroke-linecap:round; stroke-linejoin:round; stroke-width:4; stroke-opacity:1; fill:none" points="2293.67,1423.18 2293.67,1404.28 "/>
<path clip-path="url(#clip420)" d="M298.988 1481.64 L306.627 1481.64 L306.627 1455.28 L298.317 1456.95 L298.317 1452.69 L306.581 1451.02 L311.257 1451.02 L311.257 1481.64 L318.896 1481.64 L318.896 1485.58 L298.988 1485.58 L298.988 1481.64 Z" fill="#000000" fill-rule="nonzero" fill-opacity="1" /><path clip-path="url(#clip420)" d="M338.34 1454.1 Q334.729 1454.1 332.9 1457.66 Q331.095 1461.2 331.095 1468.33 Q331.095 1475.44 332.9 1479.01 Q334.729 1482.55 338.34 1482.55 Q341.974 1482.55 343.78 1479.01 Q345.609 1475.44 345.609 1468.33 Q345.609 1461.2 343.78 1457.66 Q341.974 1454.1 338.34 1454.1 M338.34 1450.39 Q344.15 1450.39 347.206 1455 Q350.284 1459.58 350.284 1468.33 Q350.284 1477.06 347.206 1481.67 Q344.15 1486.25 338.34 1486.25 Q332.53 1486.25 329.451 1481.67 Q326.396 1477.06 326.396 1468.33 Q326.396 1459.58 329.451 1455 Q332.53 1450.39 338.34 1450.39 Z" fill="#000000" fill-rule="nonzero" fill-opacity="1" /><path clip-path="url(#clip420)" d="M560.715 1481.64 L577.035 1481.64 L577.035 1485.58 L555.091 1485.58 L555.091 1481.64 Q557.753 1478.89 562.336 1474.26 Q566.942 1469.61 568.123 1468.27 Q570.368 1465.74 571.248 1464.01 Q572.151 1462.25 572.151 1460.56 Q572.151 1457.8 570.206 1456.07 Q568.285 1454.33 565.183 1454.33 Q562.984 1454.33 560.53 1455.09 Q558.1 1455.86 555.322 1457.41 L555.322 1452.69 Q558.146 1451.55 560.6 1450.97 Q563.053 1450.39 565.09 1450.39 Q570.461 1450.39 573.655 1453.08 Q576.85 1455.77 576.85 1460.26 Q576.85 1462.39 576.039 1464.31 Q575.252 1466.2 573.146 1468.8 Q572.567 1469.47 569.465 1472.69 Q566.364 1475.88 560.715 1481.64 Z" fill="#000000" fill-rule="nonzero" fill-opacity="1" /><path clip-path="url(#clip420)" d="M596.85 1454.1 Q593.238 1454.1 591.41 1457.66 Q589.604 1461.2 589.604 1468.33 Q589.604 1475.44 591.41 1479.01 Q593.238 1482.55 596.85 1482.55 Q600.484 1482.55 602.289 1479.01 Q604.118 1475.44 604.118 1468.33 Q604.118 1461.2 602.289 1457.66 Q600.484 1454.1 596.85 1454.1 M596.85 1450.39 Q602.66 1450.39 605.715 1455 Q608.794 1459.58 608.794 1468.33 Q608.794 1477.06 605.715 1481.67 Q602.66 1486.25 596.85 1486.25 Q591.039 1486.25 587.961 1481.67 Q584.905 1477.06 584.905 1468.33 Q584.905 1459.58 587.961 1455 Q591.039 1450.39 596.85 1450.39 Z" fill="#000000" fill-rule="nonzero" fill-opacity="1" /><path clip-path="url(#clip420)" d="M897.225 1451.02 L915.581 1451.02 L915.581 1454.96 L901.507 1454.96 L901.507 1463.43 Q902.526 1463.08 903.544 1462.92 Q904.563 1462.73 905.581 1462.73 Q911.368 1462.73 914.748 1465.9 Q918.128 1469.08 918.128 1474.49 Q918.128 1480.07 914.655 1483.17 Q911.183 1486.25 904.864 1486.25 Q902.688 1486.25 900.419 1485.88 Q898.174 1485.51 895.767 1484.77 L895.767 1480.07 Q897.85 1481.2 900.072 1481.76 Q902.294 1482.32 904.771 1482.32 Q908.776 1482.32 911.114 1480.21 Q913.452 1478.1 913.452 1474.49 Q913.452 1470.88 911.114 1468.77 Q908.776 1466.67 904.771 1466.67 Q902.896 1466.67 901.021 1467.08 Q899.169 1467.5 897.225 1468.38 L897.225 1451.02 Z" fill="#000000" fill-rule="nonzero" fill-opacity="1" /><path clip-path="url(#clip420)" d="M937.34 1454.1 Q933.729 1454.1 931.901 1457.66 Q930.095 1461.2 930.095 1468.33 Q930.095 1475.44 931.901 1479.01 Q933.729 1482.55 937.34 1482.55 Q940.975 1482.55 942.78 1479.01 Q944.609 1475.44 944.609 1468.33 Q944.609 1461.2 942.78 1457.66 Q940.975 1454.1 937.34 1454.1 M937.34 1450.39 Q943.151 1450.39 946.206 1455 Q949.285 1459.58 949.285 1468.33 Q949.285 1477.06 946.206 1481.67 Q943.151 1486.25 937.34 1486.25 Q931.53 1486.25 928.452 1481.67 Q925.396 1477.06 925.396 1468.33 Q925.396 1459.58 928.452 1455 Q931.53 1450.39 937.34 1450.39 Z" fill="#000000" fill-rule="nonzero" fill-opacity="1" /><path clip-path="url(#clip420)" d="M1139.77 1481.64 L1147.41 1481.64 L1147.41 1455.28 L1139.1 1456.95 L1139.1 1452.69 L1147.37 1451.02 L1152.04 1451.02 L1152.04 1481.64 L1159.68 1481.64 L1159.68 1485.58 L1139.77 1485.58 L1139.77 1481.64 Z" fill="#000000" fill-rule="nonzero" fill-opacity="1" /><path clip-path="url(#clip420)" d="M1179.13 1454.1 Q1175.51 1454.1 1173.69 1457.66 Q1171.88 1461.2 1171.88 1468.33 Q1171.88 1475.44 1173.69 1479.01 Q1175.51 1482.55 1179.13 1482.55 Q1182.76 1482.55 1184.57 1479.01 Q1186.39 1475.44 1186.39 1468.33 Q1186.39 1461.2 1184.57 1457.66 Q1182.76 1454.1 1179.13 1454.1 M1179.13 1450.39 Q1184.94 1450.39 1187.99 1455 Q1191.07 1459.58 1191.07 1468.33 Q1191.07 1477.06 1187.99 1481.67 Q1184.94 1486.25 1179.13 1486.25 Q1173.32 1486.25 1170.24 1481.67 Q1167.18 1477.06 1167.18 1468.33 Q1167.18 1459.58 1170.24 1455 Q1173.32 1450.39 1179.13 1450.39 Z" fill="#000000" fill-rule="nonzero" fill-opacity="1" /><path clip-path="url(#clip420)" d="M1209.29 1454.1 Q1205.68 1454.1 1203.85 1457.66 Q1202.04 1461.2 1202.04 1468.33 Q1202.04 1475.44 1203.85 1479.01 Q1205.68 1482.55 1209.29 1482.55 Q1212.92 1482.55 1214.73 1479.01 Q1216.56 1475.44 1216.56 1468.33 Q1216.56 1461.2 1214.73 1457.66 Q1212.92 1454.1 1209.29 1454.1 M1209.29 1450.39 Q1215.1 1450.39 1218.15 1455 Q1221.23 1459.58 1221.23 1468.33 Q1221.23 1477.06 1218.15 1481.67 Q1215.1 1486.25 1209.29 1486.25 Q1203.48 1486.25 1200.4 1481.67 Q1197.34 1477.06 1197.34 1468.33 Q1197.34 1459.58 1200.4 1455 Q1203.48 1450.39 1209.29 1450.39 Z" fill="#000000" fill-rule="nonzero" fill-opacity="1" /><path clip-path="url(#clip420)" d="M1401.5 1481.64 L1417.82 1481.64 L1417.82 1485.58 L1395.88 1485.58 L1395.88 1481.64 Q1398.54 1478.89 1403.12 1474.26 Q1407.73 1469.61 1408.91 1468.27 Q1411.15 1465.74 1412.03 1464.01 Q1412.94 1462.25 1412.94 1460.56 Q1412.94 1457.8 1410.99 1456.07 Q1409.07 1454.33 1405.97 1454.33 Q1403.77 1454.33 1401.32 1455.09 Q1398.89 1455.86 1396.11 1457.41 L1396.11 1452.69 Q1398.93 1451.55 1401.39 1450.97 Q1403.84 1450.39 1405.88 1450.39 Q1411.25 1450.39 1414.44 1453.08 Q1417.63 1455.77 1417.63 1460.26 Q1417.63 1462.39 1416.82 1464.31 Q1416.04 1466.2 1413.93 1468.8 Q1413.35 1469.47 1410.25 1472.69 Q1407.15 1475.88 1401.5 1481.64 Z" fill="#000000" fill-rule="nonzero" fill-opacity="1" /><path clip-path="url(#clip420)" d="M1437.63 1454.1 Q1434.02 1454.1 1432.2 1457.66 Q1430.39 1461.2 1430.39 1468.33 Q1430.39 1475.44 1432.2 1479.01 Q1434.02 1482.55 1437.63 1482.55 Q1441.27 1482.55 1443.07 1479.01 Q1444.9 1475.44 1444.9 1468.33 Q1444.9 1461.2 1443.07 1457.66 Q1441.27 1454.1 1437.63 1454.1 M1437.63 1450.39 Q1443.44 1450.39 1446.5 1455 Q1449.58 1459.58 1449.58 1468.33 Q1449.58 1477.06 1446.5 1481.67 Q1443.44 1486.25 1437.63 1486.25 Q1431.82 1486.25 1428.75 1481.67 Q1425.69 1477.06 1425.69 1468.33 Q1425.69 1459.58 1428.75 1455 Q1431.82 1450.39 1437.63 1450.39 Z" fill="#000000" fill-rule="nonzero" fill-opacity="1" /><path clip-path="url(#clip420)" d="M1467.8 1454.1 Q1464.19 1454.1 1462.36 1457.66 Q1460.55 1461.2 1460.55 1468.33 Q1460.55 1475.44 1462.36 1479.01 Q1464.19 1482.55 1467.8 1482.55 Q1471.43 1482.55 1473.24 1479.01 Q1475.07 1475.44 1475.07 1468.33 Q1475.07 1461.2 1473.24 1457.66 Q1471.43 1454.1 1467.8 1454.1 M1467.8 1450.39 Q1473.61 1450.39 1476.66 1455 Q1479.74 1459.58 1479.74 1468.33 Q1479.74 1477.06 1476.66 1481.67 Q1473.61 1486.25 1467.8 1486.25 Q1461.99 1486.25 1458.91 1481.67 Q1455.85 1477.06 1455.85 1468.33 Q1455.85 1459.58 1458.91 1455 Q1461.99 1450.39 1467.8 1450.39 Z" fill="#000000" fill-rule="nonzero" fill-opacity="1" /><path clip-path="url(#clip420)" d="M1738.01 1451.02 L1756.37 1451.02 L1756.37 1454.96 L1742.29 1454.96 L1742.29 1463.43 Q1743.31 1463.08 1744.33 1462.92 Q1745.35 1462.73 1746.37 1462.73 Q1752.15 1462.73 1755.53 1465.9 Q1758.91 1469.08 1758.91 1474.49 Q1758.91 1480.07 1755.44 1483.17 Q1751.97 1486.25 1745.65 1486.25 Q1743.47 1486.25 1741.2 1485.88 Q1738.96 1485.51 1736.55 1484.77 L1736.55 1480.07 Q1738.64 1481.2 1740.86 1481.76 Q1743.08 1482.32 1745.56 1482.32 Q1749.56 1482.32 1751.9 1480.21 Q1754.24 1478.1 1754.24 1474.49 Q1754.24 1470.88 1751.9 1468.77 Q1749.56 1466.67 1745.56 1466.67 Q1743.68 1466.67 1741.81 1467.08 Q1739.95 1467.5 1738.01 1468.38 L1738.01 1451.02 Z" fill="#000000" fill-rule="nonzero" fill-opacity="1" /><path clip-path="url(#clip420)" d="M1778.13 1454.1 Q1774.51 1454.1 1772.69 1457.66 Q1770.88 1461.2 1770.88 1468.33 Q1770.88 1475.44 1772.69 1479.01 Q1774.51 1482.55 1778.13 1482.55 Q1781.76 1482.55 1783.57 1479.01 Q1785.39 1475.44 1785.39 1468.33 Q1785.39 1461.2 1783.57 1457.66 Q1781.76 1454.1 1778.13 1454.1 M1778.13 1450.39 Q1783.94 1450.39 1786.99 1455 Q1790.07 1459.58 1790.07 1468.33 Q1790.07 1477.06 1786.99 1481.67 Q1783.94 1486.25 1778.13 1486.25 Q1772.32 1486.25 1769.24 1481.67 Q1766.18 1477.06 1766.18 1468.33 Q1766.18 1459.58 1769.24 1455 Q1772.32 1450.39 1778.13 1450.39 Z" fill="#000000" fill-rule="nonzero" fill-opacity="1" /><path clip-path="url(#clip420)" d="M1808.29 1454.1 Q1804.68 1454.1 1802.85 1457.66 Q1801.04 1461.2 1801.04 1468.33 Q1801.04 1475.44 1802.85 1479.01 Q1804.68 1482.55 1808.29 1482.55 Q1811.92 1482.55 1813.73 1479.01 Q1815.56 1475.44 1815.56 1468.33 Q1815.56 1461.2 1813.73 1457.66 Q1811.92 1454.1 1808.29 1454.1 M1808.29 1450.39 Q1814.1 1450.39 1817.15 1455 Q1820.23 1459.58 1820.23 1468.33 Q1820.23 1477.06 1817.15 1481.67 Q1814.1 1486.25 1808.29 1486.25 Q1802.48 1486.25 1799.4 1481.67 Q1796.34 1477.06 1796.34 1468.33 Q1796.34 1459.58 1799.4 1455 Q1802.48 1450.39 1808.29 1450.39 Z" fill="#000000" fill-rule="nonzero" fill-opacity="1" /><path clip-path="url(#clip420)" d="M1980.56 1481.64 L1988.2 1481.64 L1988.2 1455.28 L1979.89 1456.95 L1979.89 1452.69 L1988.15 1451.02 L1992.83 1451.02 L1992.83 1481.64 L2000.47 1481.64 L2000.47 1485.58 L1980.56 1485.58 L1980.56 1481.64 Z" fill="#000000" fill-rule="nonzero" fill-opacity="1" /><path clip-path="url(#clip420)" d="M2019.91 1454.1 Q2016.3 1454.1 2014.47 1457.66 Q2012.67 1461.2 2012.67 1468.33 Q2012.67 1475.44 2014.47 1479.01 Q2016.3 1482.55 2019.91 1482.55 Q2023.54 1482.55 2025.35 1479.01 Q2027.18 1475.44 2027.18 1468.33 Q2027.18 1461.2 2025.35 1457.66 Q2023.54 1454.1 2019.91 1454.1 M2019.91 1450.39 Q2025.72 1450.39 2028.78 1455 Q2031.86 1459.58 2031.86 1468.33 Q2031.86 1477.06 2028.78 1481.67 Q2025.72 1486.25 2019.91 1486.25 Q2014.1 1486.25 2011.02 1481.67 Q2007.97 1477.06 2007.97 1468.33 Q2007.97 1459.58 2011.02 1455 Q2014.1 1450.39 2019.91 1450.39 Z" fill="#000000" fill-rule="nonzero" fill-opacity="1" /><path clip-path="url(#clip420)" d="M2050.07 1454.1 Q2046.46 1454.1 2044.63 1457.66 Q2042.83 1461.2 2042.83 1468.33 Q2042.83 1475.44 2044.63 1479.01 Q2046.46 1482.55 2050.07 1482.55 Q2053.71 1482.55 2055.51 1479.01 Q2057.34 1475.44 2057.34 1468.33 Q2057.34 1461.2 2055.51 1457.66 Q2053.71 1454.1 2050.07 1454.1 M2050.07 1450.39 Q2055.88 1450.39 2058.94 1455 Q2062.02 1459.58 2062.02 1468.33 Q2062.02 1477.06 2058.94 1481.67 Q2055.88 1486.25 2050.07 1486.25 Q2044.26 1486.25 2041.18 1481.67 Q2038.13 1477.06 2038.13 1468.33 Q2038.13 1459.58 2041.18 1455 Q2044.26 1450.39 2050.07 1450.39 Z" fill="#000000" fill-rule="nonzero" fill-opacity="1" /><path clip-path="url(#clip420)" d="M2080.23 1454.1 Q2076.62 1454.1 2074.79 1457.66 Q2072.99 1461.2 2072.99 1468.33 Q2072.99 1475.44 2074.79 1479.01 Q2076.62 1482.55 2080.23 1482.55 Q2083.87 1482.55 2085.67 1479.01 Q2087.5 1475.44 2087.5 1468.33 Q2087.5 1461.2 2085.67 1457.66 Q2083.87 1454.1 2080.23 1454.1 M2080.23 1450.39 Q2086.04 1450.39 2089.1 1455 Q2092.18 1459.58 2092.18 1468.33 Q2092.18 1477.06 2089.1 1481.67 Q2086.04 1486.25 2080.23 1486.25 Q2074.42 1486.25 2071.35 1481.67 Q2068.29 1477.06 2068.29 1468.33 Q2068.29 1459.58 2071.35 1455 Q2074.42 1450.39 2080.23 1450.39 Z" fill="#000000" fill-rule="nonzero" fill-opacity="1" /><path clip-path="url(#clip420)" d="M2242.29 1481.64 L2258.61 1481.64 L2258.61 1485.58 L2236.66 1485.58 L2236.66 1481.64 Q2239.32 1478.89 2243.91 1474.26 Q2248.51 1469.61 2249.69 1468.27 Q2251.94 1465.74 2252.82 1464.01 Q2253.72 1462.25 2253.72 1460.56 Q2253.72 1457.8 2251.78 1456.07 Q2249.86 1454.33 2246.75 1454.33 Q2244.55 1454.33 2242.1 1455.09 Q2239.67 1455.86 2236.89 1457.41 L2236.89 1452.69 Q2239.72 1451.55 2242.17 1450.97 Q2244.62 1450.39 2246.66 1450.39 Q2252.03 1450.39 2255.23 1453.08 Q2258.42 1455.77 2258.42 1460.26 Q2258.42 1462.39 2257.61 1464.31 Q2256.82 1466.2 2254.72 1468.8 Q2254.14 1469.47 2251.04 1472.69 Q2247.93 1475.88 2242.29 1481.64 Z" fill="#000000" fill-rule="nonzero" fill-opacity="1" /><path clip-path="url(#clip420)" d="M2278.42 1454.1 Q2274.81 1454.1 2272.98 1457.66 Q2271.17 1461.2 2271.17 1468.33 Q2271.17 1475.44 2272.98 1479.01 Q2274.81 1482.55 2278.42 1482.55 Q2282.05 1482.55 2283.86 1479.01 Q2285.69 1475.44 2285.69 1468.33 Q2285.69 1461.2 2283.86 1457.66 Q2282.05 1454.1 2278.42 1454.1 M2278.42 1450.39 Q2284.23 1450.39 2287.29 1455 Q2290.36 1459.58 2290.36 1468.33 Q2290.36 1477.06 2287.29 1481.67 Q2284.23 1486.25 2278.42 1486.25 Q2272.61 1486.25 2269.53 1481.67 Q2266.48 1477.06 2266.48 1468.33 Q2266.48 1459.58 2269.53 1455 Q2272.61 1450.39 2278.42 1450.39 Z" fill="#000000" fill-rule="nonzero" fill-opacity="1" /><path clip-path="url(#clip420)" d="M2308.58 1454.1 Q2304.97 1454.1 2303.14 1457.66 Q2301.34 1461.2 2301.34 1468.33 Q2301.34 1475.44 2303.14 1479.01 Q2304.97 1482.55 2308.58 1482.55 Q2312.22 1482.55 2314.02 1479.01 Q2315.85 1475.44 2315.85 1468.33 Q2315.85 1461.2 2314.02 1457.66 Q2312.22 1454.1 2308.58 1454.1 M2308.58 1450.39 Q2314.39 1450.39 2317.45 1455 Q2320.53 1459.58 2320.53 1468.33 Q2320.53 1477.06 2317.45 1481.67 Q2314.39 1486.25 2308.58 1486.25 Q2302.77 1486.25 2299.69 1481.67 Q2296.64 1477.06 2296.64 1468.33 Q2296.64 1459.58 2299.69 1455 Q2302.77 1450.39 2308.58 1450.39 Z" fill="#000000" fill-rule="nonzero" fill-opacity="1" /><path clip-path="url(#clip420)" d="M2338.74 1454.1 Q2335.13 1454.1 2333.3 1457.66 Q2331.5 1461.2 2331.5 1468.33 Q2331.5 1475.44 2333.3 1479.01 Q2335.13 1482.55 2338.74 1482.55 Q2342.38 1482.55 2344.18 1479.01 Q2346.01 1475.44 2346.01 1468.33 Q2346.01 1461.2 2344.18 1457.66 Q2342.38 1454.1 2338.74 1454.1 M2338.74 1450.39 Q2344.55 1450.39 2347.61 1455 Q2350.69 1459.58 2350.69 1468.33 Q2350.69 1477.06 2347.61 1481.67 Q2344.55 1486.25 2338.74 1486.25 Q2332.93 1486.25 2329.86 1481.67 Q2326.8 1477.06 2326.8 1468.33 Q2326.8 1459.58 2329.86 1455 Q2332.93 1450.39 2338.74 1450.39 Z" fill="#000000" fill-rule="nonzero" fill-opacity="1" /><path clip-path="url(#clip420)" d="M861.338 1499.75 L867.768 1499.75 L867.768 1547.27 L861.338 1547.27 L861.338 1499.75 Z" fill="#000000" fill-rule="nonzero" fill-opacity="1" /><path clip-path="url(#clip420)" d="M909.94 1525.76 L909.94 1547.27 L904.084 1547.27 L904.084 1525.95 Q904.084 1520.89 902.111 1518.37 Q900.137 1515.86 896.19 1515.86 Q891.448 1515.86 888.711 1518.88 Q885.974 1521.91 885.974 1527.13 L885.974 1547.27 L880.085 1547.27 L880.085 1511.63 L885.974 1511.63 L885.974 1517.16 Q888.074 1513.95 890.907 1512.36 Q893.772 1510.77 897.495 1510.77 Q903.638 1510.77 906.789 1514.59 Q909.94 1518.37 909.94 1525.76 Z" fill="#000000" fill-rule="nonzero" fill-opacity="1" /><path clip-path="url(#clip420)" d="M921.621 1511.63 L927.478 1511.63 L927.478 1547.27 L921.621 1547.27 L921.621 1511.63 M921.621 1497.75 L927.478 1497.75 L927.478 1505.16 L921.621 1505.16 L921.621 1497.75 Z" fill="#000000" fill-rule="nonzero" fill-opacity="1" /><path clip-path="url(#clip420)" d="M969.364 1525.76 L969.364 1547.27 L963.508 1547.27 L963.508 1525.95 Q963.508 1520.89 961.534 1518.37 Q959.561 1515.86 955.614 1515.86 Q950.872 1515.86 948.135 1518.88 Q945.397 1521.91 945.397 1527.13 L945.397 1547.27 L939.509 1547.27 L939.509 1511.63 L945.397 1511.63 L945.397 1517.16 Q947.498 1513.95 950.331 1512.36 Q953.195 1510.77 956.919 1510.77 Q963.062 1510.77 966.213 1514.59 Q969.364 1518.37 969.364 1525.76 Z" fill="#000000" fill-rule="nonzero" fill-opacity="1" /><path clip-path="url(#clip420)" d="M986.838 1501.5 L986.838 1511.63 L998.901 1511.63 L998.901 1516.18 L986.838 1516.18 L986.838 1535.53 Q986.838 1539.89 988.016 1541.13 Q989.225 1542.37 992.886 1542.37 L998.901 1542.37 L998.901 1547.27 L992.886 1547.27 Q986.106 1547.27 983.528 1544.76 Q980.95 1542.21 980.95 1535.53 L980.95 1516.18 L976.653 1516.18 L976.653 1511.63 L980.95 1511.63 L980.95 1501.5 L986.838 1501.5 Z" fill="#000000" fill-rule="nonzero" fill-opacity="1" /><path clip-path="url(#clip420)" d="M1006.6 1511.63 L1012.46 1511.63 L1012.46 1547.27 L1006.6 1547.27 L1006.6 1511.63 M1006.6 1497.75 L1012.46 1497.75 L1012.46 1505.16 L1006.6 1505.16 L1006.6 1497.75 Z" fill="#000000" fill-rule="nonzero" fill-opacity="1" /><path clip-path="url(#clip420)" d="M1040.91 1529.35 Q1033.82 1529.35 1031.08 1530.98 Q1028.34 1532.6 1028.34 1536.52 Q1028.34 1539.64 1030.38 1541.48 Q1032.45 1543.3 1035.98 1543.3 Q1040.85 1543.3 1043.78 1539.86 Q1046.74 1536.39 1046.74 1530.66 L1046.74 1529.35 L1040.91 1529.35 M1052.6 1526.94 L1052.6 1547.27 L1046.74 1547.27 L1046.74 1541.86 Q1044.73 1545.11 1041.74 1546.67 Q1038.75 1548.2 1034.42 1548.2 Q1028.95 1548.2 1025.7 1545.14 Q1022.49 1542.05 1022.49 1536.9 Q1022.49 1530.88 1026.5 1527.83 Q1030.54 1524.77 1038.53 1524.77 L1046.74 1524.77 L1046.74 1524.2 Q1046.74 1520.16 1044.07 1517.96 Q1041.42 1515.73 1036.62 1515.73 Q1033.56 1515.73 1030.67 1516.46 Q1027.77 1517.2 1025.1 1518.66 L1025.1 1513.25 Q1028.31 1512.01 1031.33 1511.4 Q1034.36 1510.77 1037.22 1510.77 Q1044.96 1510.77 1048.78 1514.78 Q1052.6 1518.79 1052.6 1526.94 Z" fill="#000000" fill-rule="nonzero" fill-opacity="1" /><path clip-path="url(#clip420)" d="M1064.66 1497.75 L1070.52 1497.75 L1070.52 1547.27 L1064.66 1547.27 L1064.66 1497.75 Z" fill="#000000" fill-rule="nonzero" fill-opacity="1" /><path clip-path="url(#clip420)" d="M1129.08 1529.48 Q1129.08 1523.02 1126.41 1519.36 Q1123.76 1515.67 1119.12 1515.67 Q1114.47 1515.67 1111.8 1519.36 Q1109.16 1523.02 1109.16 1529.48 Q1109.16 1535.94 1111.8 1539.64 Q1114.47 1543.3 1119.12 1543.3 Q1123.76 1543.3 1126.41 1539.64 Q1129.08 1535.94 1129.08 1529.48 M1109.16 1517.04 Q1111 1513.85 1113.8 1512.33 Q1116.63 1510.77 1120.55 1510.77 Q1127.04 1510.77 1131.09 1515.92 Q1135.16 1521.08 1135.16 1529.48 Q1135.16 1537.88 1131.09 1543.04 Q1127.04 1548.2 1120.55 1548.2 Q1116.63 1548.2 1113.8 1546.67 Q1111 1545.11 1109.16 1541.93 L1109.16 1547.27 L1103.27 1547.27 L1103.27 1497.75 L1109.16 1497.75 L1109.16 1517.04 Z" fill="#000000" fill-rule="nonzero" fill-opacity="1" /><path clip-path="url(#clip420)" d="M1158.68 1515.73 Q1153.97 1515.73 1151.23 1519.42 Q1148.5 1523.08 1148.5 1529.48 Q1148.5 1535.88 1151.2 1539.57 Q1153.94 1543.23 1158.68 1543.23 Q1163.36 1543.23 1166.1 1539.54 Q1168.83 1535.85 1168.83 1529.48 Q1168.83 1523.15 1166.1 1519.46 Q1163.36 1515.73 1158.68 1515.73 M1158.68 1510.77 Q1166.32 1510.77 1170.68 1515.73 Q1175.04 1520.7 1175.04 1529.48 Q1175.04 1538.23 1170.68 1543.23 Q1166.32 1548.2 1158.68 1548.2 Q1151.01 1548.2 1146.65 1543.23 Q1142.32 1538.23 1142.32 1529.48 Q1142.32 1520.7 1146.65 1515.73 Q1151.01 1510.77 1158.68 1510.77 Z" fill="#000000" fill-rule="nonzero" fill-opacity="1" /><path clip-path="url(#clip420)" d="M1214.38 1525.76 L1214.38 1547.27 L1208.52 1547.27 L1208.52 1525.95 Q1208.52 1520.89 1206.55 1518.37 Q1204.58 1515.86 1200.63 1515.86 Q1195.89 1515.86 1193.15 1518.88 Q1190.41 1521.91 1190.41 1527.13 L1190.41 1547.27 L1184.53 1547.27 L1184.53 1511.63 L1190.41 1511.63 L1190.41 1517.16 Q1192.51 1513.95 1195.35 1512.36 Q1198.21 1510.77 1201.94 1510.77 Q1208.08 1510.77 1211.23 1514.59 Q1214.38 1518.37 1214.38 1525.76 Z" fill="#000000" fill-rule="nonzero" fill-opacity="1" /><path clip-path="url(#clip420)" d="M1249.52 1517.04 L1249.52 1497.75 L1255.38 1497.75 L1255.38 1547.27 L1249.52 1547.27 L1249.52 1541.93 Q1247.67 1545.11 1244.84 1546.67 Q1242.04 1548.2 1238.09 1548.2 Q1231.63 1548.2 1227.56 1543.04 Q1223.52 1537.88 1223.52 1529.48 Q1223.52 1521.08 1227.56 1515.92 Q1231.63 1510.77 1238.09 1510.77 Q1242.04 1510.77 1244.84 1512.33 Q1247.67 1513.85 1249.52 1517.04 M1229.56 1529.48 Q1229.56 1535.94 1232.2 1539.64 Q1234.88 1543.3 1239.52 1543.3 Q1244.17 1543.3 1246.85 1539.64 Q1249.52 1535.94 1249.52 1529.48 Q1249.52 1523.02 1246.85 1519.36 Q1244.17 1515.67 1239.52 1515.67 Q1234.88 1515.67 1232.2 1519.36 Q1229.56 1523.02 1229.56 1529.48 Z" fill="#000000" fill-rule="nonzero" fill-opacity="1" /><path clip-path="url(#clip420)" d="M1311.62 1517.04 L1311.62 1497.75 L1317.47 1497.75 L1317.47 1547.27 L1311.62 1547.27 L1311.62 1541.93 Q1309.77 1545.11 1306.94 1546.67 Q1304.14 1548.2 1300.19 1548.2 Q1293.73 1548.2 1289.65 1543.04 Q1285.61 1537.88 1285.61 1529.48 Q1285.61 1521.08 1289.65 1515.92 Q1293.73 1510.77 1300.19 1510.77 Q1304.14 1510.77 1306.94 1512.33 Q1309.77 1513.85 1311.62 1517.04 M1291.66 1529.48 Q1291.66 1535.94 1294.3 1539.64 Q1296.98 1543.3 1301.62 1543.3 Q1306.27 1543.3 1308.94 1539.64 Q1311.62 1535.94 1311.62 1529.48 Q1311.62 1523.02 1308.94 1519.36 Q1306.27 1515.67 1301.62 1515.67 Q1296.98 1515.67 1294.3 1519.36 Q1291.66 1523.02 1291.66 1529.48 Z" fill="#000000" fill-rule="nonzero" fill-opacity="1" /><path clip-path="url(#clip420)" d="M1329.54 1511.63 L1335.39 1511.63 L1335.39 1547.27 L1329.54 1547.27 L1329.54 1511.63 M1329.54 1497.75 L1335.39 1497.75 L1335.39 1505.16 L1329.54 1505.16 L1329.54 1497.75 Z" fill="#000000" fill-rule="nonzero" fill-opacity="1" /><path clip-path="url(#clip420)" d="M1375.4 1518.47 Q1377.6 1514.52 1380.65 1512.64 Q1383.71 1510.77 1387.85 1510.77 Q1393.42 1510.77 1396.44 1514.68 Q1399.46 1518.56 1399.46 1525.76 L1399.46 1547.27 L1393.57 1547.27 L1393.57 1525.95 Q1393.57 1520.82 1391.76 1518.34 Q1389.95 1515.86 1386.22 1515.86 Q1381.67 1515.86 1379.03 1518.88 Q1376.39 1521.91 1376.39 1527.13 L1376.39 1547.27 L1370.5 1547.27 L1370.5 1525.95 Q1370.5 1520.79 1368.69 1518.34 Q1366.87 1515.86 1363.08 1515.86 Q1358.6 1515.86 1355.95 1518.91 Q1353.31 1521.94 1353.31 1527.13 L1353.31 1547.27 L1347.42 1547.27 L1347.42 1511.63 L1353.31 1511.63 L1353.31 1517.16 Q1355.32 1513.89 1358.12 1512.33 Q1360.92 1510.77 1364.77 1510.77 Q1368.65 1510.77 1371.36 1512.74 Q1374.1 1514.71 1375.4 1518.47 Z" fill="#000000" fill-rule="nonzero" fill-opacity="1" /><path clip-path="url(#clip420)" d="M1441.64 1527.99 L1441.64 1530.85 L1414.71 1530.85 Q1415.09 1536.9 1418.34 1540.08 Q1421.62 1543.23 1427.44 1543.23 Q1430.81 1543.23 1433.97 1542.4 Q1437.15 1541.58 1440.27 1539.92 L1440.27 1545.46 Q1437.12 1546.8 1433.81 1547.5 Q1430.5 1548.2 1427.09 1548.2 Q1418.56 1548.2 1413.56 1543.23 Q1408.6 1538.27 1408.6 1529.8 Q1408.6 1521.05 1413.31 1515.92 Q1418.05 1510.77 1426.07 1510.77 Q1433.27 1510.77 1437.43 1515.41 Q1441.64 1520.03 1441.64 1527.99 M1435.78 1526.27 Q1435.72 1521.46 1433.07 1518.6 Q1430.46 1515.73 1426.14 1515.73 Q1421.23 1515.73 1418.27 1518.5 Q1415.35 1521.27 1414.9 1526.3 L1435.78 1526.27 Z" fill="#000000" fill-rule="nonzero" fill-opacity="1" /><path clip-path="url(#clip420)" d="M1480.88 1525.76 L1480.88 1547.27 L1475.02 1547.27 L1475.02 1525.95 Q1475.02 1520.89 1473.05 1518.37 Q1471.08 1515.86 1467.13 1515.86 Q1462.39 1515.86 1459.65 1518.88 Q1456.91 1521.91 1456.91 1527.13 L1456.91 1547.27 L1451.03 1547.27 L1451.03 1511.63 L1456.91 1511.63 L1456.91 1517.16 Q1459.01 1513.95 1461.85 1512.36 Q1464.71 1510.77 1468.44 1510.77 Q1474.58 1510.77 1477.73 1514.59 Q1480.88 1518.37 1480.88 1525.76 Z" fill="#000000" fill-rule="nonzero" fill-opacity="1" /><path clip-path="url(#clip420)" d="M1515.29 1512.68 L1515.29 1518.21 Q1512.8 1516.94 1510.13 1516.3 Q1507.46 1515.67 1504.59 1515.67 Q1500.23 1515.67 1498.04 1517.01 Q1495.87 1518.34 1495.87 1521.02 Q1495.87 1523.05 1497.43 1524.23 Q1498.99 1525.38 1503.7 1526.43 L1505.71 1526.87 Q1511.95 1528.21 1514.56 1530.66 Q1517.2 1533.08 1517.2 1537.44 Q1517.2 1542.4 1513.25 1545.3 Q1509.34 1548.2 1502.46 1548.2 Q1499.6 1548.2 1496.48 1547.62 Q1493.39 1547.08 1489.95 1545.97 L1489.95 1539.92 Q1493.2 1541.61 1496.35 1542.47 Q1499.5 1543.3 1502.59 1543.3 Q1506.73 1543.3 1508.95 1541.9 Q1511.18 1540.46 1511.18 1537.88 Q1511.18 1535.5 1509.56 1534.22 Q1507.97 1532.95 1502.52 1531.77 L1500.49 1531.3 Q1495.04 1530.15 1492.63 1527.79 Q1490.21 1525.41 1490.21 1521.27 Q1490.21 1516.24 1493.77 1513.5 Q1497.34 1510.77 1503.89 1510.77 Q1507.14 1510.77 1510 1511.24 Q1512.87 1511.72 1515.29 1512.68 Z" fill="#000000" fill-rule="nonzero" fill-opacity="1" /><path clip-path="url(#clip420)" d="M1526.52 1511.63 L1532.38 1511.63 L1532.38 1547.27 L1526.52 1547.27 L1526.52 1511.63 M1526.52 1497.75 L1532.38 1497.75 L1532.38 1505.16 L1526.52 1505.16 L1526.52 1497.75 Z" fill="#000000" fill-rule="nonzero" fill-opacity="1" /><path clip-path="url(#clip420)" d="M1558.45 1515.73 Q1553.74 1515.73 1551 1519.42 Q1548.26 1523.08 1548.26 1529.48 Q1548.26 1535.88 1550.97 1539.57 Q1553.7 1543.23 1558.45 1543.23 Q1563.13 1543.23 1565.86 1539.54 Q1568.6 1535.85 1568.6 1529.48 Q1568.6 1523.15 1565.86 1519.46 Q1563.13 1515.73 1558.45 1515.73 M1558.45 1510.77 Q1566.09 1510.77 1570.45 1515.73 Q1574.81 1520.7 1574.81 1529.48 Q1574.81 1538.23 1570.45 1543.23 Q1566.09 1548.2 1558.45 1548.2 Q1550.78 1548.2 1546.42 1543.23 Q1542.09 1538.23 1542.09 1529.48 Q1542.09 1520.7 1546.42 1515.73 Q1550.78 1510.77 1558.45 1510.77 Z" fill="#000000" fill-rule="nonzero" fill-opacity="1" /><path clip-path="url(#clip420)" d="M1614.15 1525.76 L1614.15 1547.27 L1608.29 1547.27 L1608.29 1525.95 Q1608.29 1520.89 1606.32 1518.37 Q1604.34 1515.86 1600.4 1515.86 Q1595.65 1515.86 1592.92 1518.88 Q1590.18 1521.91 1590.18 1527.13 L1590.18 1547.27 L1584.29 1547.27 L1584.29 1511.63 L1590.18 1511.63 L1590.18 1517.16 Q1592.28 1513.95 1595.11 1512.36 Q1597.98 1510.77 1601.7 1510.77 Q1607.84 1510.77 1611 1514.59 Q1614.15 1518.37 1614.15 1525.76 Z" fill="#000000" fill-rule="nonzero" fill-opacity="1" /><path clip-path="url(#clip420)" d="M1647.31 1517.67 L1688.12 1517.67 L1688.12 1523.02 L1647.31 1523.02 L1647.31 1517.67 M1647.31 1530.66 L1688.12 1530.66 L1688.12 1536.07 L1647.31 1536.07 L1647.31 1530.66 Z" fill="#000000" fill-rule="nonzero" fill-opacity="1" /><path clip-path="url(#clip420)" d="M1752.68 1519.09 Q1752.91 1519.32 1752.91 1519.64 Q1752.91 1519.96 1752.17 1520.7 L1736.48 1538.29 Q1742.47 1559.35 1745.76 1559.35 Q1746.76 1559.35 1747.79 1558.58 Q1748.85 1557.84 1749.27 1556.71 Q1749.43 1556.16 1749.59 1555.97 Q1749.75 1555.78 1750.2 1555.78 Q1750.98 1555.78 1750.98 1556.52 Q1750.98 1556.9 1750.62 1557.55 Q1750.27 1558.22 1749.62 1558.96 Q1748.98 1559.74 1747.85 1560.25 Q1746.73 1560.8 1745.37 1560.8 Q1743.7 1560.8 1742.35 1560.41 Q1740.99 1560.03 1740.22 1559.54 Q1739.45 1559.06 1738.74 1558.19 Q1738.06 1557.35 1737.8 1556.84 Q1737.58 1556.36 1737.19 1555.52 Q1736.42 1553.72 1735.71 1551.72 Q1735 1549.72 1734.55 1548.27 Q1734.1 1546.82 1732.72 1542.38 L1717.61 1559.35 Q1716.9 1560.06 1716.55 1560.06 Q1716.26 1560.06 1716 1559.8 Q1715.74 1559.58 1715.74 1559.29 Q1715.74 1558.96 1716.48 1558.22 L1731.65 1541.28 Q1731.88 1541.06 1732.01 1540.87 Q1732.14 1540.67 1732.14 1540.61 L1732.17 1540.54 Q1732.17 1540.38 1731.59 1538.32 Q1731.01 1536.26 1729.95 1533.07 Q1728.92 1529.85 1727.95 1527.5 Q1727.34 1525.92 1726.92 1524.96 Q1726.5 1523.99 1725.76 1522.54 Q1725.05 1521.09 1724.31 1520.35 Q1723.57 1519.58 1722.89 1519.58 Q1722.67 1519.58 1722.31 1519.67 Q1721.96 1519.77 1721.38 1520.03 Q1720.83 1520.25 1720.28 1520.9 Q1719.74 1521.51 1719.38 1522.41 Q1719.09 1523.12 1718.55 1523.12 Q1718.19 1523.12 1717.97 1522.96 Q1717.77 1522.8 1717.77 1522.64 L1717.74 1522.48 Q1717.74 1521.9 1718.29 1520.93 Q1718.84 1519.96 1720.19 1519.06 Q1721.54 1518.13 1723.28 1518.13 Q1724.92 1518.13 1726.27 1518.51 Q1727.63 1518.9 1728.37 1519.35 Q1729.14 1519.8 1729.82 1520.64 Q1730.49 1521.44 1730.69 1521.83 Q1730.91 1522.19 1731.27 1522.93 Q1732.36 1525.44 1733.07 1527.6 Q1733.81 1529.72 1735.94 1536.45 L1751.04 1519.64 Q1751.72 1518.84 1752.1 1518.84 Q1752.46 1518.84 1752.68 1519.09 Z" fill="#000000" fill-rule="nonzero" fill-opacity="1" /><polyline clip-path="url(#clip422)" style="stroke:#000000; stroke-linecap:round; stroke-linejoin:round; stroke-width:2; stroke-opacity:0.1; fill:none" points="265.22,1188.6 2352.76,1188.6 "/>
<polyline clip-path="url(#clip422)" style="stroke:#000000; stroke-linecap:round; stroke-linejoin:round; stroke-width:2; stroke-opacity:0.1; fill:none" points="265.22,835.188 2352.76,835.188 "/>
<polyline clip-path="url(#clip422)" style="stroke:#000000; stroke-linecap:round; stroke-linejoin:round; stroke-width:2; stroke-opacity:0.1; fill:none" points="265.22,481.776 2352.76,481.776 "/>
<polyline clip-path="url(#clip422)" style="stroke:#000000; stroke-linecap:round; stroke-linejoin:round; stroke-width:2; stroke-opacity:0.1; fill:none" points="265.22,128.365 2352.76,128.365 "/>
<polyline clip-path="url(#clip420)" style="stroke:#000000; stroke-linecap:round; stroke-linejoin:round; stroke-width:4; stroke-opacity:1; fill:none" points="265.22,1423.18 265.22,47.2441 "/>
<polyline clip-path="url(#clip420)" style="stroke:#000000; stroke-linecap:round; stroke-linejoin:round; stroke-width:4; stroke-opacity:1; fill:none" points="265.22,1188.6 284.117,1188.6 "/>
<polyline clip-path="url(#clip420)" style="stroke:#000000; stroke-linecap:round; stroke-linejoin:round; stroke-width:4; stroke-opacity:1; fill:none" points="265.22,835.188 284.117,835.188 "/>
<polyline clip-path="url(#clip420)" style="stroke:#000000; stroke-linecap:round; stroke-linejoin:round; stroke-width:4; stroke-opacity:1; fill:none" points="265.22,481.776 284.117,481.776 "/>
<polyline clip-path="url(#clip420)" style="stroke:#000000; stroke-linecap:round; stroke-linejoin:round; stroke-width:4; stroke-opacity:1; fill:none" points="265.22,128.365 284.117,128.365 "/>
<path clip-path="url(#clip420)" d="M217.692 1186.74 Q214.544 1186.74 212.692 1188.89 Q210.863 1191.04 210.863 1194.79 Q210.863 1198.52 212.692 1200.69 Q214.544 1202.85 217.692 1202.85 Q220.84 1202.85 222.669 1200.69 Q224.521 1198.52 224.521 1194.79 Q224.521 1191.04 222.669 1188.89 Q220.84 1186.74 217.692 1186.74 M226.974 1172.08 L226.974 1176.34 Q225.215 1175.51 223.409 1175.07 Q221.627 1174.63 219.868 1174.63 Q215.238 1174.63 212.785 1177.75 Q210.354 1180.88 210.007 1187.2 Q211.372 1185.18 213.433 1184.12 Q215.493 1183.03 217.97 1183.03 Q223.178 1183.03 226.187 1186.2 Q229.22 1189.35 229.22 1194.79 Q229.22 1200.12 226.071 1203.33 Q222.923 1206.55 217.692 1206.55 Q211.697 1206.55 208.525 1201.97 Q205.354 1197.36 205.354 1188.63 Q205.354 1180.44 209.243 1175.58 Q213.132 1170.69 219.683 1170.69 Q221.442 1170.69 223.224 1171.04 Q225.03 1171.39 226.974 1172.08 Z" fill="#000000" fill-rule="nonzero" fill-opacity="1" /><path clip-path="url(#clip420)" d="M217.368 836.056 Q214.034 836.056 212.113 837.838 Q210.215 839.62 210.215 842.745 Q210.215 845.87 212.113 847.653 Q214.034 849.435 217.368 849.435 Q220.701 849.435 222.622 847.653 Q224.544 845.847 224.544 842.745 Q224.544 839.62 222.622 837.838 Q220.724 836.056 217.368 836.056 M212.692 834.065 Q209.683 833.324 207.993 831.264 Q206.326 829.204 206.326 826.241 Q206.326 822.097 209.266 819.69 Q212.229 817.283 217.368 817.283 Q222.53 817.283 225.47 819.69 Q228.409 822.097 228.409 826.241 Q228.409 829.204 226.72 831.264 Q225.053 833.324 222.067 834.065 Q225.446 834.852 227.321 837.144 Q229.22 839.435 229.22 842.745 Q229.22 847.769 226.141 850.454 Q223.085 853.139 217.368 853.139 Q211.65 853.139 208.572 850.454 Q205.516 847.769 205.516 842.745 Q205.516 839.435 207.414 837.144 Q209.312 834.852 212.692 834.065 M210.979 826.681 Q210.979 829.366 212.646 830.871 Q214.335 832.375 217.368 832.375 Q220.377 832.375 222.067 830.871 Q223.78 829.366 223.78 826.681 Q223.78 823.996 222.067 822.491 Q220.377 820.986 217.368 820.986 Q214.335 820.986 212.646 822.491 Q210.979 823.996 210.979 826.681 Z" fill="#000000" fill-rule="nonzero" fill-opacity="1" /><path clip-path="url(#clip420)" d="M177.924 495.121 L185.562 495.121 L185.562 468.755 L177.252 470.422 L177.252 466.163 L185.516 464.496 L190.192 464.496 L190.192 495.121 L197.831 495.121 L197.831 499.056 L177.924 499.056 L177.924 495.121 Z" fill="#000000" fill-rule="nonzero" fill-opacity="1" /><path clip-path="url(#clip420)" d="M217.275 467.575 Q213.664 467.575 211.835 471.14 Q210.03 474.681 210.03 481.811 Q210.03 488.917 211.835 492.482 Q213.664 496.024 217.275 496.024 Q220.909 496.024 222.715 492.482 Q224.544 488.917 224.544 481.811 Q224.544 474.681 222.715 471.14 Q220.909 467.575 217.275 467.575 M217.275 463.871 Q223.085 463.871 226.141 468.478 Q229.22 473.061 229.22 481.811 Q229.22 490.538 226.141 495.144 Q223.085 499.728 217.275 499.728 Q211.465 499.728 208.386 495.144 Q205.331 490.538 205.331 481.811 Q205.331 473.061 208.386 468.478 Q211.465 463.871 217.275 463.871 Z" fill="#000000" fill-rule="nonzero" fill-opacity="1" /><path clip-path="url(#clip420)" d="M179.521 141.71 L187.16 141.71 L187.16 115.344 L178.849 117.011 L178.849 112.751 L187.113 111.085 L191.789 111.085 L191.789 141.71 L199.428 141.71 L199.428 145.645 L179.521 145.645 L179.521 141.71 Z" fill="#000000" fill-rule="nonzero" fill-opacity="1" /><path clip-path="url(#clip420)" d="M212.9 141.71 L229.22 141.71 L229.22 145.645 L207.275 145.645 L207.275 141.71 Q209.937 138.955 214.521 134.325 Q219.127 129.673 220.308 128.33 Q222.553 125.807 223.433 124.071 Q224.335 122.312 224.335 120.622 Q224.335 117.867 222.391 116.131 Q220.47 114.395 217.368 114.395 Q215.169 114.395 212.715 115.159 Q210.285 115.923 207.507 117.474 L207.507 112.751 Q210.331 111.617 212.785 111.039 Q215.238 110.46 217.275 110.46 Q222.646 110.46 225.84 113.145 Q229.034 115.83 229.034 120.321 Q229.034 122.45 228.224 124.372 Q227.437 126.27 225.331 128.862 Q224.752 129.534 221.65 132.751 Q218.548 135.946 212.9 141.71 Z" fill="#000000" fill-rule="nonzero" fill-opacity="1" /><path clip-path="url(#clip420)" d="M104.716 1117.07 Q105.417 1115.01 107.708 1113.06 Q110 1111.09 114.01 1109.12 L126.996 1102.59 L126.996 1109.5 L114.806 1115.58 Q110.032 1117.93 108.472 1120.16 Q106.912 1122.36 106.912 1126.18 L106.912 1133.18 L126.996 1133.18 L126.996 1139.61 L79.4763 1139.61 L79.4763 1125.1 Q79.4763 1116.95 82.8819 1112.94 Q86.2876 1108.93 93.1626 1108.93 Q97.6504 1108.93 100.61 1111.03 Q103.57 1113.1 104.716 1117.07 M84.7598 1133.18 L101.629 1133.18 L101.629 1125.1 Q101.629 1120.45 99.4964 1118.09 Q97.3321 1115.71 93.1626 1115.71 Q88.993 1115.71 86.8923 1118.09 Q84.7598 1120.45 84.7598 1125.1 L84.7598 1133.18 Z" fill="#000000" fill-rule="nonzero" fill-opacity="1" /><path clip-path="url(#clip420)" d="M85.8102 1081.08 L109.459 1089.8 L109.459 1072.32 L85.8102 1081.08 M79.4763 1084.71 L79.4763 1077.42 L126.996 1059.31 L126.996 1065.99 L114.806 1070.32 L114.806 1091.74 L126.996 1096.07 L126.996 1102.85 L79.4763 1084.71 Z" fill="#000000" fill-rule="nonzero" fill-opacity="1" /><path clip-path="url(#clip420)" d="M79.4763 1052.37 L79.4763 1042.79 L111.814 1030.66 L79.4763 1018.47 L79.4763 1008.89 L126.996 1008.89 L126.996 1015.16 L85.2691 1015.16 L117.861 1027.41 L117.861 1033.88 L85.2691 1046.13 L126.996 1046.13 L126.996 1052.37 L79.4763 1052.37 Z" fill="#000000" fill-rule="nonzero" fill-opacity="1" /><path clip-path="url(#clip420)" d="M98.1915 947.906 Q94.2447 945.71 92.3668 942.654 Q90.489 939.599 90.489 935.461 Q90.489 929.891 94.4039 926.867 Q98.2869 923.844 105.48 923.844 L126.996 923.844 L126.996 929.732 L105.671 929.732 Q100.547 929.732 98.0641 931.546 Q95.5815 933.361 95.5815 937.084 Q95.5815 941.636 98.6052 944.278 Q101.629 946.919 106.849 946.919 L126.996 946.919 L126.996 952.808 L105.671 952.808 Q100.515 952.808 98.0641 954.622 Q95.5815 956.436 95.5815 960.224 Q95.5815 964.712 98.6371 967.353 Q101.661 969.995 106.849 969.995 L126.996 969.995 L126.996 975.883 L91.3483 975.883 L91.3483 969.995 L96.8865 969.995 Q93.6082 967.99 92.0486 965.189 Q90.489 962.388 90.489 958.537 Q90.489 954.654 92.4623 951.948 Q94.4357 949.211 98.1915 947.906 Z" fill="#000000" fill-rule="nonzero" fill-opacity="1" /><path clip-path="url(#clip420)" d="M107.708 881.671 L110.573 881.671 L110.573 908.598 Q116.62 908.216 119.803 904.969 Q122.954 901.691 122.954 895.866 Q122.954 892.493 122.127 889.342 Q121.299 886.159 119.644 883.04 L125.182 883.04 Q126.519 886.191 127.219 889.501 Q127.919 892.811 127.919 896.217 Q127.919 904.747 122.954 909.744 Q117.989 914.709 109.522 914.709 Q100.77 914.709 95.6452 909.998 Q90.489 905.256 90.489 897.235 Q90.489 890.042 95.1359 885.872 Q99.7511 881.671 107.708 881.671 M105.989 887.527 Q101.183 887.591 98.3188 890.233 Q95.4542 892.843 95.4542 897.171 Q95.4542 902.073 98.2233 905.033 Q100.992 907.961 106.021 908.407 L105.989 887.527 Z" fill="#000000" fill-rule="nonzero" fill-opacity="1" /><path clip-path="url(#clip420)" d="M98.1915 844.304 Q94.2447 842.108 92.3668 839.053 Q90.489 835.997 90.489 831.859 Q90.489 826.289 94.4039 823.266 Q98.2869 820.242 105.48 820.242 L126.996 820.242 L126.996 826.13 L105.671 826.13 Q100.547 826.13 98.0641 827.944 Q95.5815 829.759 95.5815 833.483 Q95.5815 838.034 98.6052 840.676 Q101.629 843.318 106.849 843.318 L126.996 843.318 L126.996 849.206 L105.671 849.206 Q100.515 849.206 98.0641 851.02 Q95.5815 852.834 95.5815 856.622 Q95.5815 861.11 98.6371 863.751 Q101.661 866.393 106.849 866.393 L126.996 866.393 L126.996 872.282 L91.3483 872.282 L91.3483 866.393 L96.8865 866.393 Q93.6082 864.388 92.0486 861.587 Q90.489 858.786 90.489 854.935 Q90.489 851.052 92.4623 848.346 Q94.4357 845.609 98.1915 844.304 Z" fill="#000000" fill-rule="nonzero" fill-opacity="1" /><path clip-path="url(#clip420)" d="M95.4542 794.747 Q95.4542 799.458 99.1463 802.195 Q102.807 804.932 109.204 804.932 Q115.602 804.932 119.294 802.227 Q122.954 799.49 122.954 794.747 Q122.954 790.068 119.262 787.331 Q115.57 784.594 109.204 784.594 Q102.87 784.594 99.1781 787.331 Q95.4542 790.068 95.4542 794.747 M90.489 794.747 Q90.489 787.108 95.4542 782.748 Q100.419 778.387 109.204 778.387 Q117.957 778.387 122.954 782.748 Q127.919 787.108 127.919 794.747 Q127.919 802.418 122.954 806.778 Q117.957 811.107 109.204 811.107 Q100.419 811.107 95.4542 806.778 Q90.489 802.418 90.489 794.747 Z" fill="#000000" fill-rule="nonzero" fill-opacity="1" /><path clip-path="url(#clip420)" d="M96.8228 748.023 Q96.2499 749.01 95.9953 750.187 Q95.7088 751.333 95.7088 752.734 Q95.7088 757.699 98.9553 760.372 Q102.17 763.014 108.217 763.014 L126.996 763.014 L126.996 768.902 L91.3483 768.902 L91.3483 763.014 L96.8865 763.014 Q93.64 761.168 92.0804 758.208 Q90.489 755.248 90.489 751.015 Q90.489 750.41 90.5844 749.678 Q90.6481 748.946 90.8072 748.055 L96.8228 748.023 Z" fill="#000000" fill-rule="nonzero" fill-opacity="1" /><path clip-path="url(#clip420)" d="M130.306 727.048 Q136.672 729.531 138.614 731.886 Q140.555 734.241 140.555 738.188 L140.555 742.867 L135.654 742.867 L135.654 739.429 Q135.654 737.01 134.508 735.673 Q133.362 734.337 129.097 732.713 L126.423 731.663 L91.3483 746.081 L91.3483 739.875 L119.23 728.735 L91.3483 717.595 L91.3483 711.388 L130.306 727.048 Z" fill="#000000" fill-rule="nonzero" fill-opacity="1" /><path clip-path="url(#clip420)" d="M112.928 683.188 L91.3483 683.188 L91.3483 677.332 L112.705 677.332 Q117.766 677.332 120.312 675.358 Q122.827 673.385 122.827 669.438 Q122.827 664.696 119.803 661.959 Q116.779 659.19 111.559 659.19 L91.3483 659.19 L91.3483 653.333 L126.996 653.333 L126.996 659.19 L121.522 659.19 Q124.768 661.322 126.36 664.155 Q127.919 666.956 127.919 670.68 Q127.919 676.823 124.1 680.005 Q120.28 683.188 112.928 683.188 M90.489 668.452 L90.489 668.452 Z" fill="#000000" fill-rule="nonzero" fill-opacity="1" /><path clip-path="url(#clip420)" d="M92.3987 618.544 L97.9368 618.544 Q96.6637 621.027 96.0271 623.701 Q95.3906 626.374 95.3906 629.239 Q95.3906 633.599 96.7273 635.796 Q98.0641 637.96 100.738 637.96 Q102.775 637.96 103.952 636.4 Q105.098 634.841 106.149 630.13 L106.594 628.125 Q107.931 621.886 110.382 619.277 Q112.801 616.635 117.161 616.635 Q122.127 616.635 125.023 620.582 Q127.919 624.496 127.919 631.371 Q127.919 634.236 127.346 637.355 Q126.805 640.443 125.691 643.88 L119.644 643.88 Q121.331 640.633 122.19 637.482 Q123.018 634.331 123.018 631.244 Q123.018 627.106 121.617 624.878 Q120.185 622.65 117.607 622.65 Q115.22 622.65 113.947 624.274 Q112.673 625.865 111.496 631.308 L111.018 633.345 Q109.873 638.787 107.517 641.206 Q105.13 643.625 100.992 643.625 Q95.9635 643.625 93.2262 640.061 Q90.489 636.496 90.489 629.939 Q90.489 626.693 90.9664 623.828 Q91.4438 620.963 92.3987 618.544 Z" fill="#000000" fill-rule="nonzero" fill-opacity="1" /><path clip-path="url(#clip420)" d="M109.077 591.108 Q109.077 598.206 110.7 600.943 Q112.323 603.681 116.238 603.681 Q119.357 603.681 121.203 601.644 Q123.018 599.575 123.018 596.042 Q123.018 591.172 119.58 588.244 Q116.111 585.284 110.382 585.284 L109.077 585.284 L109.077 591.108 M106.658 579.427 L126.996 579.427 L126.996 585.284 L121.585 585.284 Q124.832 587.289 126.392 590.281 Q127.919 593.273 127.919 597.601 Q127.919 603.076 124.864 606.322 Q121.776 609.537 116.62 609.537 Q110.605 609.537 107.549 605.527 Q104.494 601.484 104.494 593.495 L104.494 585.284 L103.921 585.284 Q99.8784 585.284 97.6822 587.957 Q95.4542 590.599 95.4542 595.405 Q95.4542 598.461 96.1863 601.357 Q96.9183 604.253 98.3824 606.927 L92.9716 606.927 Q91.7303 603.712 91.1255 600.689 Q90.489 597.665 90.489 594.8 Q90.489 587.066 94.4994 583.247 Q98.5097 579.427 106.658 579.427 Z" fill="#000000" fill-rule="nonzero" fill-opacity="1" /><path clip-path="url(#clip420)" d="M108.759 543.907 Q102.393 543.907 98.8917 546.548 Q95.3906 549.158 95.3906 553.901 Q95.3906 558.611 98.8917 561.253 Q102.393 563.863 108.759 563.863 Q115.092 563.863 118.594 561.253 Q122.095 558.611 122.095 553.901 Q122.095 549.158 118.594 546.548 Q115.092 543.907 108.759 543.907 M122.572 538.05 Q131.675 538.05 136.099 542.092 Q140.555 546.135 140.555 554.474 Q140.555 557.561 140.078 560.298 Q139.632 563.036 138.677 565.614 L132.98 565.614 Q134.381 563.036 135.049 560.521 Q135.717 558.007 135.717 555.397 Q135.717 549.636 132.694 546.771 Q129.702 543.907 123.622 543.907 L120.726 543.907 Q123.877 545.721 125.437 548.554 Q126.996 551.386 126.996 555.333 Q126.996 561.89 121.999 565.9 Q117.002 569.91 108.759 569.91 Q100.483 569.91 95.486 565.9 Q90.489 561.89 90.489 555.333 Q90.489 551.386 92.0486 548.554 Q93.6082 545.721 96.7592 543.907 L91.3483 543.907 L91.3483 538.05 L122.572 538.05 Z" fill="#000000" fill-rule="nonzero" fill-opacity="1" /><path clip-path="url(#clip420)" d="M107.708 495.495 L110.573 495.495 L110.573 522.422 Q116.62 522.04 119.803 518.794 Q122.954 515.516 122.954 509.691 Q122.954 506.317 122.127 503.166 Q121.299 499.983 119.644 496.864 L125.182 496.864 Q126.519 500.015 127.219 503.325 Q127.919 506.635 127.919 510.041 Q127.919 518.571 122.954 523.568 Q117.989 528.533 109.522 528.533 Q100.77 528.533 95.6452 523.823 Q90.489 519.08 90.489 511.06 Q90.489 503.866 95.1359 499.697 Q99.7511 495.495 107.708 495.495 M105.989 501.352 Q101.183 501.415 98.3188 504.057 Q95.4542 506.667 95.4542 510.996 Q95.4542 515.897 98.2233 518.858 Q100.992 521.786 106.021 522.231 L105.989 501.352 Z" fill="#000000" fill-rule="nonzero" fill-opacity="1" /><path clip-path="url(#clip420)" d="M77.4711 465.704 L77.4711 452.209 L82.0226 452.209 L82.0226 459.847 L131.039 459.847 L131.039 452.209 L135.59 452.209 L135.59 465.704 L77.4711 465.704 Z" fill="#000000" fill-rule="nonzero" fill-opacity="1" /><path clip-path="url(#clip420)" d="M120.217 407.076 L107.454 407.076 L107.454 417.579 L102.17 417.579 L102.17 400.71 L122.572 400.71 Q125.214 404.434 126.583 408.922 Q127.919 413.41 127.919 418.502 Q127.919 429.642 121.426 435.944 Q114.901 442.214 103.284 442.214 Q91.6348 442.214 85.1418 435.944 Q78.6169 429.642 78.6169 418.502 Q78.6169 413.855 79.7627 409.686 Q80.9086 405.484 83.1366 401.951 L89.9797 401.951 Q86.956 405.516 85.4282 409.527 Q83.9004 413.537 83.9004 417.961 Q83.9004 426.682 88.7702 431.074 Q93.64 435.435 103.284 435.435 Q112.896 435.435 117.766 431.074 Q122.636 426.682 122.636 417.961 Q122.636 414.555 122.063 411.882 Q121.458 409.208 120.217 407.076 Z" fill="#000000" fill-rule="nonzero" fill-opacity="1" /><path clip-path="url(#clip420)" d="M104.303 382.536 L121.713 382.536 L121.713 372.223 Q121.713 367.035 119.58 364.553 Q117.416 362.038 112.992 362.038 Q108.536 362.038 106.435 364.553 Q104.303 367.035 104.303 372.223 L104.303 382.536 M84.7598 382.536 L99.0827 382.536 L99.0827 373.019 Q99.0827 368.309 97.3321 366.017 Q95.5497 363.693 91.9212 363.693 Q88.3246 363.693 86.5422 366.017 Q84.7598 368.309 84.7598 373.019 L84.7598 382.536 M79.4763 388.965 L79.4763 372.542 Q79.4763 365.189 82.5318 361.211 Q85.5874 357.232 91.221 357.232 Q95.5815 357.232 98.1596 359.269 Q100.738 361.306 101.374 365.253 Q102.393 360.511 105.639 357.901 Q108.854 355.259 113.692 355.259 Q120.058 355.259 123.527 359.588 Q126.996 363.916 126.996 371.905 L126.996 388.965 L79.4763 388.965 Z" fill="#000000" fill-rule="nonzero" fill-opacity="1" /><path clip-path="url(#clip420)" d="M77.4711 330.815 L135.59 330.815 L135.59 344.31 L131.039 344.31 L131.039 336.703 L82.0226 336.703 L82.0226 344.31 L77.4711 344.31 L77.4711 330.815 Z" fill="#000000" fill-rule="nonzero" fill-opacity="1" /><circle clip-path="url(#clip422)" cx="324.301" cy="1384.24" r="14.4" fill="#009af9" fill-rule="evenodd" fill-opacity="0.25" stroke="#000000" stroke-opacity="0.25" stroke-width="3.2"/>
<circle clip-path="url(#clip422)" cx="475.011" cy="1377.75" r="14.4" fill="#009af9" fill-rule="evenodd" fill-opacity="0.25" stroke="#000000" stroke-opacity="0.25" stroke-width="3.2"/>
<circle clip-path="url(#clip422)" cx="581.942" cy="1377.76" r="14.4" fill="#009af9" fill-rule="evenodd" fill-opacity="0.25" stroke="#000000" stroke-opacity="0.25" stroke-width="3.2"/>
<circle clip-path="url(#clip422)" cx="664.884" cy="1377.64" r="14.4" fill="#009af9" fill-rule="evenodd" fill-opacity="0.25" stroke="#000000" stroke-opacity="0.25" stroke-width="3.2"/>
<circle clip-path="url(#clip422)" cx="732.653" cy="1377.31" r="14.4" fill="#009af9" fill-rule="evenodd" fill-opacity="0.25" stroke="#000000" stroke-opacity="0.25" stroke-width="3.2"/>
<circle clip-path="url(#clip422)" cx="789.95" cy="1376.75" r="14.4" fill="#009af9" fill-rule="evenodd" fill-opacity="0.25" stroke="#000000" stroke-opacity="0.25" stroke-width="3.2"/>
<circle clip-path="url(#clip422)" cx="839.584" cy="1375.32" r="14.4" fill="#009af9" fill-rule="evenodd" fill-opacity="0.25" stroke="#000000" stroke-opacity="0.25" stroke-width="3.2"/>
<circle clip-path="url(#clip422)" cx="883.363" cy="1375.02" r="14.4" fill="#009af9" fill-rule="evenodd" fill-opacity="0.25" stroke="#000000" stroke-opacity="0.25" stroke-width="3.2"/>
<circle clip-path="url(#clip422)" cx="922.526" cy="1374.35" r="14.4" fill="#009af9" fill-rule="evenodd" fill-opacity="0.25" stroke="#000000" stroke-opacity="0.25" stroke-width="3.2"/>
<circle clip-path="url(#clip422)" cx="957.952" cy="1373.63" r="14.4" fill="#009af9" fill-rule="evenodd" fill-opacity="0.25" stroke="#000000" stroke-opacity="0.25" stroke-width="3.2"/>
<circle clip-path="url(#clip422)" cx="990.294" cy="1373.51" r="14.4" fill="#009af9" fill-rule="evenodd" fill-opacity="0.25" stroke="#000000" stroke-opacity="0.25" stroke-width="3.2"/>
<circle clip-path="url(#clip422)" cx="1020.05" cy="1372.7" r="14.4" fill="#009af9" fill-rule="evenodd" fill-opacity="0.25" stroke="#000000" stroke-opacity="0.25" stroke-width="3.2"/>
<circle clip-path="url(#clip422)" cx="1047.59" cy="1371.98" r="14.4" fill="#009af9" fill-rule="evenodd" fill-opacity="0.25" stroke="#000000" stroke-opacity="0.25" stroke-width="3.2"/>
<circle clip-path="url(#clip422)" cx="1073.24" cy="1371.64" r="14.4" fill="#009af9" fill-rule="evenodd" fill-opacity="0.25" stroke="#000000" stroke-opacity="0.25" stroke-width="3.2"/>
<circle clip-path="url(#clip422)" cx="1097.23" cy="1371.25" r="14.4" fill="#009af9" fill-rule="evenodd" fill-opacity="0.25" stroke="#000000" stroke-opacity="0.25" stroke-width="3.2"/>
<circle clip-path="url(#clip422)" cx="1119.76" cy="1371.72" r="14.4" fill="#009af9" fill-rule="evenodd" fill-opacity="0.25" stroke="#000000" stroke-opacity="0.25" stroke-width="3.2"/>
<circle clip-path="url(#clip422)" cx="1141" cy="1371.68" r="14.4" fill="#009af9" fill-rule="evenodd" fill-opacity="0.25" stroke="#000000" stroke-opacity="0.25" stroke-width="3.2"/>
<circle clip-path="url(#clip422)" cx="1161.1" cy="1370.2" r="14.4" fill="#009af9" fill-rule="evenodd" fill-opacity="0.25" stroke="#000000" stroke-opacity="0.25" stroke-width="3.2"/>
<circle clip-path="url(#clip422)" cx="1180.17" cy="1369.92" r="14.4" fill="#009af9" fill-rule="evenodd" fill-opacity="0.25" stroke="#000000" stroke-opacity="0.25" stroke-width="3.2"/>
<circle clip-path="url(#clip422)" cx="1247.94" cy="1367.55" r="14.4" fill="#009af9" fill-rule="evenodd" fill-opacity="0.25" stroke="#000000" stroke-opacity="0.25" stroke-width="3.2"/>
<circle clip-path="url(#clip422)" cx="1305.23" cy="1363.57" r="14.4" fill="#009af9" fill-rule="evenodd" fill-opacity="0.25" stroke="#000000" stroke-opacity="0.25" stroke-width="3.2"/>
<circle clip-path="url(#clip422)" cx="1354.87" cy="1360.1" r="14.4" fill="#009af9" fill-rule="evenodd" fill-opacity="0.25" stroke="#000000" stroke-opacity="0.25" stroke-width="3.2"/>
<circle clip-path="url(#clip422)" cx="1398.65" cy="1354.66" r="14.4" fill="#009af9" fill-rule="evenodd" fill-opacity="0.25" stroke="#000000" stroke-opacity="0.25" stroke-width="3.2"/>
<circle clip-path="url(#clip422)" cx="1437.81" cy="1349.66" r="14.4" fill="#009af9" fill-rule="evenodd" fill-opacity="0.25" stroke="#000000" stroke-opacity="0.25" stroke-width="3.2"/>
<circle clip-path="url(#clip422)" cx="1473.24" cy="1344.6" r="14.4" fill="#009af9" fill-rule="evenodd" fill-opacity="0.25" stroke="#000000" stroke-opacity="0.25" stroke-width="3.2"/>
<circle clip-path="url(#clip422)" cx="1505.58" cy="1332.37" r="14.4" fill="#009af9" fill-rule="evenodd" fill-opacity="0.25" stroke="#000000" stroke-opacity="0.25" stroke-width="3.2"/>
<circle clip-path="url(#clip422)" cx="1535.33" cy="1327.18" r="14.4" fill="#009af9" fill-rule="evenodd" fill-opacity="0.25" stroke="#000000" stroke-opacity="0.25" stroke-width="3.2"/>
<circle clip-path="url(#clip422)" cx="1562.87" cy="1318.67" r="14.4" fill="#009af9" fill-rule="evenodd" fill-opacity="0.25" stroke="#000000" stroke-opacity="0.25" stroke-width="3.2"/>
<circle clip-path="url(#clip422)" cx="1588.52" cy="1312.48" r="14.4" fill="#009af9" fill-rule="evenodd" fill-opacity="0.25" stroke="#000000" stroke-opacity="0.25" stroke-width="3.2"/>
<circle clip-path="url(#clip422)" cx="1645.82" cy="1290.74" r="14.4" fill="#009af9" fill-rule="evenodd" fill-opacity="0.25" stroke="#000000" stroke-opacity="0.25" stroke-width="3.2"/>
<circle clip-path="url(#clip422)" cx="1695.45" cy="1262.75" r="14.4" fill="#009af9" fill-rule="evenodd" fill-opacity="0.25" stroke="#000000" stroke-opacity="0.25" stroke-width="3.2"/>
<circle clip-path="url(#clip422)" cx="1739.23" cy="1220.18" r="14.4" fill="#009af9" fill-rule="evenodd" fill-opacity="0.25" stroke="#000000" stroke-opacity="0.25" stroke-width="3.2"/>
<circle clip-path="url(#clip422)" cx="1778.39" cy="1187.54" r="14.4" fill="#009af9" fill-rule="evenodd" fill-opacity="0.25" stroke="#000000" stroke-opacity="0.25" stroke-width="3.2"/>
<circle clip-path="url(#clip422)" cx="1846.16" cy="1158.86" r="14.4" fill="#009af9" fill-rule="evenodd" fill-opacity="0.25" stroke="#000000" stroke-opacity="0.25" stroke-width="3.2"/>
<circle clip-path="url(#clip422)" cx="1903.46" cy="1112.97" r="14.4" fill="#009af9" fill-rule="evenodd" fill-opacity="0.25" stroke="#000000" stroke-opacity="0.25" stroke-width="3.2"/>
<circle clip-path="url(#clip422)" cx="1953.09" cy="1026.74" r="14.4" fill="#009af9" fill-rule="evenodd" fill-opacity="0.25" stroke="#000000" stroke-opacity="0.25" stroke-width="3.2"/>
<circle clip-path="url(#clip422)" cx="1996.87" cy="909.671" r="14.4" fill="#009af9" fill-rule="evenodd" fill-opacity="0.25" stroke="#000000" stroke-opacity="0.25" stroke-width="3.2"/>
<circle clip-path="url(#clip422)" cx="2036.03" cy="773.678" r="14.4" fill="#009af9" fill-rule="evenodd" fill-opacity="0.25" stroke="#000000" stroke-opacity="0.25" stroke-width="3.2"/>
<circle clip-path="url(#clip422)" cx="2186.74" cy="541.425" r="14.4" fill="#009af9" fill-rule="evenodd" fill-opacity="0.25" stroke="#000000" stroke-opacity="0.25" stroke-width="3.2"/>
<circle clip-path="url(#clip422)" cx="2293.67" cy="86.1857" r="14.4" fill="#009af9" fill-rule="evenodd" fill-opacity="0.25" stroke="#000000" stroke-opacity="0.25" stroke-width="3.2"/>
<polyline clip-path="url(#clip422)" style="stroke:#20b2aa; stroke-linecap:round; stroke-linejoin:round; stroke-width:12; stroke-opacity:1; fill:none" stroke-dasharray="6, 12" points="324.301,1384.24 475.011,1377.75 581.942,1377.76 664.884,1377.64 732.653,1377.31 789.95,1376.75 839.584,1375.32 883.363,1375.02 922.526,1374.35 957.952,1373.63 990.294,1373.51 1020.05,1372.7 1047.59,1371.98 1073.24,1371.64 1097.23,1371.25 1119.76,1371.72 1141,1371.68 1161.1,1370.2 1180.17,1369.92 1247.94,1367.55 1305.23,1363.57 1354.87,1360.1 1398.65,1354.66 1437.81,1349.66 1473.24,1344.6 1505.58,1332.37 1535.33,1327.18 1562.87,1318.67 1588.52,1312.48 1645.82,1290.74 1695.45,1262.75 1739.23,1220.18 1778.39,1187.54 1846.16,1158.86 1903.46,1112.97 1953.09,1026.74 1996.87,909.671 2036.03,773.678 2186.74,541.425 2293.67,86.1857 "/>
</svg>
