<?xml version="1.0" encoding="utf-8"?>
<svg xmlns="http://www.w3.org/2000/svg" xmlns:xlink="http://www.w3.org/1999/xlink" width="600" height="400" viewBox="0 0 2400 1600">
<defs>
  <clipPath id="clip080">
    <rect x="0" y="0" width="2400" height="1600"/>
  </clipPath>
</defs>
<path clip-path="url(#clip080)" d="M0 1600 L2400 1600 L2400 0 L0 0  Z" fill="#ffffff" fill-rule="evenodd" fill-opacity="1"/>
<defs>
  <clipPath id="clip081">
    <rect x="480" y="0" width="1681" height="1600"/>
  </clipPath>
</defs>
<path clip-path="url(#clip080)" d="M175.445 1423.18 L2352.76 1423.18 L2352.76 47.2441 L175.445 47.2441  Z" fill="#ffffff" fill-rule="evenodd" fill-opacity="1"/>
<defs>
  <clipPath id="clip082">
    <rect x="175" y="47" width="2178" height="1377"/>
  </clipPath>
</defs>
<polyline clip-path="url(#clip082)" style="stroke:#000000; stroke-linecap:round; stroke-linejoin:round; stroke-width:2; stroke-opacity:0.1; fill:none" points="237.067,1423.18 237.067,47.2441 "/>
<polyline clip-path="url(#clip082)" style="stroke:#000000; stroke-linecap:round; stroke-linejoin:round; stroke-width:2; stroke-opacity:0.1; fill:none" points="505.788,1423.18 505.788,47.2441 "/>
<polyline clip-path="url(#clip082)" style="stroke:#000000; stroke-linecap:round; stroke-linejoin:round; stroke-width:2; stroke-opacity:0.1; fill:none" points="861.019,1423.18 861.019,47.2441 "/>
<polyline clip-path="url(#clip082)" style="stroke:#000000; stroke-linecap:round; stroke-linejoin:round; stroke-width:2; stroke-opacity:0.1; fill:none" points="1129.74,1423.18 1129.74,47.2441 "/>
<polyline clip-path="url(#clip082)" style="stroke:#000000; stroke-linecap:round; stroke-linejoin:round; stroke-width:2; stroke-opacity:0.1; fill:none" points="1398.46,1423.18 1398.46,47.2441 "/>
<polyline clip-path="url(#clip082)" style="stroke:#000000; stroke-linecap:round; stroke-linejoin:round; stroke-width:2; stroke-opacity:0.1; fill:none" points="1753.69,1423.18 1753.69,47.2441 "/>
<polyline clip-path="url(#clip082)" style="stroke:#000000; stroke-linecap:round; stroke-linejoin:round; stroke-width:2; stroke-opacity:0.1; fill:none" points="2022.41,1423.18 2022.41,47.2441 "/>
<polyline clip-path="url(#clip082)" style="stroke:#000000; stroke-linecap:round; stroke-linejoin:round; stroke-width:2; stroke-opacity:0.1; fill:none" points="2179.6,1423.18 2179.6,47.2441 "/>
<polyline clip-path="url(#clip082)" style="stroke:#000000; stroke-linecap:round; stroke-linejoin:round; stroke-width:2; stroke-opacity:0.1; fill:none" points="2291.13,1423.18 2291.13,47.2441 "/>
<polyline clip-path="url(#clip080)" style="stroke:#000000; stroke-linecap:round; stroke-linejoin:round; stroke-width:4; stroke-opacity:1; fill:none" points="175.445,1423.18 2352.76,1423.18 "/>
<polyline clip-path="url(#clip080)" style="stroke:#000000; stroke-linecap:round; stroke-linejoin:round; stroke-width:4; stroke-opacity:1; fill:none" points="237.067,1423.18 237.067,1404.28 "/>
<polyline clip-path="url(#clip080)" style="stroke:#000000; stroke-linecap:round; stroke-linejoin:round; stroke-width:4; stroke-opacity:1; fill:none" points="505.788,1423.18 505.788,1404.28 "/>
<polyline clip-path="url(#clip080)" style="stroke:#000000; stroke-linecap:round; stroke-linejoin:round; stroke-width:4; stroke-opacity:1; fill:none" points="861.019,1423.18 861.019,1404.28 "/>
<polyline clip-path="url(#clip080)" style="stroke:#000000; stroke-linecap:round; stroke-linejoin:round; stroke-width:4; stroke-opacity:1; fill:none" points="1129.74,1423.18 1129.74,1404.28 "/>
<polyline clip-path="url(#clip080)" style="stroke:#000000; stroke-linecap:round; stroke-linejoin:round; stroke-width:4; stroke-opacity:1; fill:none" points="1398.46,1423.18 1398.46,1404.28 "/>
<polyline clip-path="url(#clip080)" style="stroke:#000000; stroke-linecap:round; stroke-linejoin:round; stroke-width:4; stroke-opacity:1; fill:none" points="1753.69,1423.18 1753.69,1404.28 "/>
<polyline clip-path="url(#clip080)" style="stroke:#000000; stroke-linecap:round; stroke-linejoin:round; stroke-width:4; stroke-opacity:1; fill:none" points="2022.41,1423.18 2022.41,1404.28 "/>
<polyline clip-path="url(#clip080)" style="stroke:#000000; stroke-linecap:round; stroke-linejoin:round; stroke-width:4; stroke-opacity:1; fill:none" points="2179.6,1423.18 2179.6,1404.28 "/>
<polyline clip-path="url(#clip080)" style="stroke:#000000; stroke-linecap:round; stroke-linejoin:round; stroke-width:4; stroke-opacity:1; fill:none" points="2291.13,1423.18 2291.13,1404.28 "/>
<path clip-path="url(#clip080)" d="M211.755 1481.64 L219.394 1481.64 L219.394 1455.28 L211.084 1456.95 L211.084 1452.69 L219.347 1451.02 L224.023 1451.02 L224.023 1481.64 L231.662 1481.64 L231.662 1485.58 L211.755 1485.58 L211.755 1481.64 Z" fill="#000000" fill-rule="nonzero" fill-opacity="1" /><path clip-path="url(#clip080)" d="M251.106 1454.1 Q247.495 1454.1 245.667 1457.66 Q243.861 1461.2 243.861 1468.33 Q243.861 1475.44 245.667 1479.01 Q247.495 1482.55 251.106 1482.55 Q254.741 1482.55 256.546 1479.01 Q258.375 1475.44 258.375 1468.33 Q258.375 1461.2 256.546 1457.66 Q254.741 1454.1 251.106 1454.1 M251.106 1450.39 Q256.917 1450.39 259.972 1455 Q263.051 1459.58 263.051 1468.33 Q263.051 1477.06 259.972 1481.67 Q256.917 1486.25 251.106 1486.25 Q245.296 1486.25 242.218 1481.67 Q239.162 1477.06 239.162 1468.33 Q239.162 1459.58 242.218 1455 Q245.296 1450.39 251.106 1450.39 Z" fill="#000000" fill-rule="nonzero" fill-opacity="1" /><path clip-path="url(#clip080)" d="M484.562 1481.64 L500.881 1481.64 L500.881 1485.58 L478.937 1485.58 L478.937 1481.64 Q481.599 1478.89 486.182 1474.26 Q490.789 1469.61 491.969 1468.27 Q494.214 1465.74 495.094 1464.01 Q495.997 1462.25 495.997 1460.56 Q495.997 1457.8 494.052 1456.07 Q492.131 1454.33 489.029 1454.33 Q486.83 1454.33 484.377 1455.09 Q481.946 1455.86 479.168 1457.41 L479.168 1452.69 Q481.992 1451.55 484.446 1450.97 Q486.9 1450.39 488.937 1450.39 Q494.307 1450.39 497.501 1453.08 Q500.696 1455.77 500.696 1460.26 Q500.696 1462.39 499.886 1464.31 Q499.099 1466.2 496.992 1468.8 Q496.414 1469.47 493.312 1472.69 Q490.21 1475.88 484.562 1481.64 Z" fill="#000000" fill-rule="nonzero" fill-opacity="1" /><path clip-path="url(#clip080)" d="M520.696 1454.1 Q517.085 1454.1 515.256 1457.66 Q513.45 1461.2 513.45 1468.33 Q513.45 1475.44 515.256 1479.01 Q517.085 1482.55 520.696 1482.55 Q524.33 1482.55 526.136 1479.01 Q527.964 1475.44 527.964 1468.33 Q527.964 1461.2 526.136 1457.66 Q524.33 1454.1 520.696 1454.1 M520.696 1450.39 Q526.506 1450.39 529.561 1455 Q532.64 1459.58 532.64 1468.33 Q532.64 1477.06 529.561 1481.67 Q526.506 1486.25 520.696 1486.25 Q514.886 1486.25 511.807 1481.67 Q508.751 1477.06 508.751 1468.33 Q508.751 1459.58 511.807 1455 Q514.886 1450.39 520.696 1450.39 Z" fill="#000000" fill-rule="nonzero" fill-opacity="1" /><path clip-path="url(#clip080)" d="M835.718 1451.02 L854.074 1451.02 L854.074 1454.96 L840 1454.96 L840 1463.43 Q841.019 1463.08 842.037 1462.92 Q843.056 1462.73 844.074 1462.73 Q849.861 1462.73 853.241 1465.9 Q856.621 1469.08 856.621 1474.49 Q856.621 1480.07 853.148 1483.17 Q849.676 1486.25 843.357 1486.25 Q841.181 1486.25 838.912 1485.88 Q836.667 1485.51 834.26 1484.77 L834.26 1480.07 Q836.343 1481.2 838.565 1481.76 Q840.787 1482.32 843.264 1482.32 Q847.269 1482.32 849.607 1480.21 Q851.945 1478.1 851.945 1474.49 Q851.945 1470.88 849.607 1468.77 Q847.269 1466.67 843.264 1466.67 Q841.389 1466.67 839.514 1467.08 Q837.662 1467.5 835.718 1468.38 L835.718 1451.02 Z" fill="#000000" fill-rule="nonzero" fill-opacity="1" /><path clip-path="url(#clip080)" d="M875.833 1454.1 Q872.222 1454.1 870.394 1457.66 Q868.588 1461.2 868.588 1468.33 Q868.588 1475.44 870.394 1479.01 Q872.222 1482.55 875.833 1482.55 Q879.468 1482.55 881.273 1479.01 Q883.102 1475.44 883.102 1468.33 Q883.102 1461.2 881.273 1457.66 Q879.468 1454.1 875.833 1454.1 M875.833 1450.39 Q881.644 1450.39 884.699 1455 Q887.778 1459.58 887.778 1468.33 Q887.778 1477.06 884.699 1481.67 Q881.644 1486.25 875.833 1486.25 Q870.023 1486.25 866.945 1481.67 Q863.889 1477.06 863.889 1468.33 Q863.889 1459.58 866.945 1455 Q870.023 1450.39 875.833 1450.39 Z" fill="#000000" fill-rule="nonzero" fill-opacity="1" /><path clip-path="url(#clip080)" d="M1089.35 1481.64 L1096.99 1481.64 L1096.99 1455.28 L1088.68 1456.95 L1088.68 1452.69 L1096.94 1451.02 L1101.62 1451.02 L1101.62 1481.64 L1109.25 1481.64 L1109.25 1485.58 L1089.35 1485.58 L1089.35 1481.64 Z" fill="#000000" fill-rule="nonzero" fill-opacity="1" /><path clip-path="url(#clip080)" d="M1128.7 1454.1 Q1125.09 1454.1 1123.26 1457.66 Q1121.45 1461.2 1121.45 1468.33 Q1121.45 1475.44 1123.26 1479.01 Q1125.09 1482.55 1128.7 1482.55 Q1132.33 1482.55 1134.14 1479.01 Q1135.97 1475.44 1135.97 1468.33 Q1135.97 1461.2 1134.14 1457.66 Q1132.33 1454.1 1128.7 1454.1 M1128.7 1450.39 Q1134.51 1450.39 1137.56 1455 Q1140.64 1459.58 1140.64 1468.33 Q1140.64 1477.06 1137.56 1481.67 Q1134.51 1486.25 1128.7 1486.25 Q1122.89 1486.25 1119.81 1481.67 Q1116.75 1477.06 1116.75 1468.33 Q1116.75 1459.58 1119.81 1455 Q1122.89 1450.39 1128.7 1450.39 Z" fill="#000000" fill-rule="nonzero" fill-opacity="1" /><path clip-path="url(#clip080)" d="M1158.86 1454.1 Q1155.25 1454.1 1153.42 1457.66 Q1151.61 1461.2 1151.61 1468.33 Q1151.61 1475.44 1153.42 1479.01 Q1155.25 1482.55 1158.86 1482.55 Q1162.49 1482.55 1164.3 1479.01 Q1166.13 1475.44 1166.13 1468.33 Q1166.13 1461.2 1164.3 1457.66 Q1162.49 1454.1 1158.86 1454.1 M1158.86 1450.39 Q1164.67 1450.39 1167.73 1455 Q1170.8 1459.58 1170.8 1468.33 Q1170.8 1477.06 1167.73 1481.67 Q1164.67 1486.25 1158.86 1486.25 Q1153.05 1486.25 1149.97 1481.67 Q1146.92 1477.06 1146.92 1468.33 Q1146.92 1459.58 1149.97 1455 Q1153.05 1450.39 1158.86 1450.39 Z" fill="#000000" fill-rule="nonzero" fill-opacity="1" /><path clip-path="url(#clip080)" d="M1362.15 1481.64 L1378.47 1481.64 L1378.47 1485.58 L1356.53 1485.58 L1356.53 1481.64 Q1359.19 1478.89 1363.77 1474.26 Q1368.38 1469.61 1369.56 1468.27 Q1371.81 1465.74 1372.69 1464.01 Q1373.59 1462.25 1373.59 1460.56 Q1373.59 1457.8 1371.64 1456.07 Q1369.72 1454.33 1366.62 1454.33 Q1364.42 1454.33 1361.97 1455.09 Q1359.54 1455.86 1356.76 1457.41 L1356.76 1452.69 Q1359.58 1451.55 1362.04 1450.97 Q1364.49 1450.39 1366.53 1450.39 Q1371.9 1450.39 1375.09 1453.08 Q1378.29 1455.77 1378.29 1460.26 Q1378.29 1462.39 1377.48 1464.31 Q1376.69 1466.2 1374.58 1468.8 Q1374.01 1469.47 1370.9 1472.69 Q1367.8 1475.88 1362.15 1481.64 Z" fill="#000000" fill-rule="nonzero" fill-opacity="1" /><path clip-path="url(#clip080)" d="M1398.29 1454.1 Q1394.68 1454.1 1392.85 1457.66 Q1391.04 1461.2 1391.04 1468.33 Q1391.04 1475.44 1392.85 1479.01 Q1394.68 1482.55 1398.29 1482.55 Q1401.92 1482.55 1403.73 1479.01 Q1405.56 1475.44 1405.56 1468.33 Q1405.56 1461.2 1403.73 1457.66 Q1401.92 1454.1 1398.29 1454.1 M1398.29 1450.39 Q1404.1 1450.39 1407.15 1455 Q1410.23 1459.58 1410.23 1468.33 Q1410.23 1477.06 1407.15 1481.67 Q1404.1 1486.25 1398.29 1486.25 Q1392.48 1486.25 1389.4 1481.67 Q1386.34 1477.06 1386.34 1468.33 Q1386.34 1459.58 1389.4 1455 Q1392.48 1450.39 1398.29 1450.39 Z" fill="#000000" fill-rule="nonzero" fill-opacity="1" /><path clip-path="url(#clip080)" d="M1428.45 1454.1 Q1424.84 1454.1 1423.01 1457.66 Q1421.2 1461.2 1421.2 1468.33 Q1421.2 1475.44 1423.01 1479.01 Q1424.84 1482.55 1428.45 1482.55 Q1432.08 1482.55 1433.89 1479.01 Q1435.72 1475.44 1435.72 1468.33 Q1435.72 1461.2 1433.89 1457.66 Q1432.08 1454.1 1428.45 1454.1 M1428.45 1450.39 Q1434.26 1450.39 1437.32 1455 Q1440.39 1459.58 1440.39 1468.33 Q1440.39 1477.06 1437.32 1481.67 Q1434.26 1486.25 1428.45 1486.25 Q1422.64 1486.25 1419.56 1481.67 Q1416.51 1477.06 1416.51 1468.33 Q1416.51 1459.58 1419.56 1455 Q1422.64 1450.39 1428.45 1450.39 Z" fill="#000000" fill-rule="nonzero" fill-opacity="1" /><path clip-path="url(#clip080)" d="M1713.31 1451.02 L1731.67 1451.02 L1731.67 1454.96 L1717.59 1454.96 L1717.59 1463.43 Q1718.61 1463.08 1719.63 1462.92 Q1720.65 1462.73 1721.67 1462.73 Q1727.45 1462.73 1730.83 1465.9 Q1734.21 1469.08 1734.21 1474.49 Q1734.21 1480.07 1730.74 1483.17 Q1727.27 1486.25 1720.95 1486.25 Q1718.77 1486.25 1716.5 1485.88 Q1714.26 1485.51 1711.85 1484.77 L1711.85 1480.07 Q1713.93 1481.2 1716.16 1481.76 Q1718.38 1482.32 1720.86 1482.32 Q1724.86 1482.32 1727.2 1480.21 Q1729.54 1478.1 1729.54 1474.49 Q1729.54 1470.88 1727.2 1468.77 Q1724.86 1466.67 1720.86 1466.67 Q1718.98 1466.67 1717.11 1467.08 Q1715.25 1467.5 1713.31 1468.38 L1713.31 1451.02 Z" fill="#000000" fill-rule="nonzero" fill-opacity="1" /><path clip-path="url(#clip080)" d="M1753.43 1454.1 Q1749.81 1454.1 1747.99 1457.66 Q1746.18 1461.2 1746.18 1468.33 Q1746.18 1475.44 1747.99 1479.01 Q1749.81 1482.55 1753.43 1482.55 Q1757.06 1482.55 1758.86 1479.01 Q1760.69 1475.44 1760.69 1468.33 Q1760.69 1461.2 1758.86 1457.66 Q1757.06 1454.1 1753.43 1454.1 M1753.43 1450.39 Q1759.24 1450.39 1762.29 1455 Q1765.37 1459.58 1765.37 1468.33 Q1765.37 1477.06 1762.29 1481.67 Q1759.24 1486.25 1753.43 1486.25 Q1747.62 1486.25 1744.54 1481.67 Q1741.48 1477.06 1741.48 1468.33 Q1741.48 1459.58 1744.54 1455 Q1747.62 1450.39 1753.43 1450.39 Z" fill="#000000" fill-rule="nonzero" fill-opacity="1" /><path clip-path="url(#clip080)" d="M1783.59 1454.1 Q1779.98 1454.1 1778.15 1457.66 Q1776.34 1461.2 1776.34 1468.33 Q1776.34 1475.44 1778.15 1479.01 Q1779.98 1482.55 1783.59 1482.55 Q1787.22 1482.55 1789.03 1479.01 Q1790.86 1475.44 1790.86 1468.33 Q1790.86 1461.2 1789.03 1457.66 Q1787.22 1454.1 1783.59 1454.1 M1783.59 1450.39 Q1789.4 1450.39 1792.45 1455 Q1795.53 1459.58 1795.53 1468.33 Q1795.53 1477.06 1792.45 1481.67 Q1789.4 1486.25 1783.59 1486.25 Q1777.78 1486.25 1774.7 1481.67 Q1771.64 1477.06 1771.64 1468.33 Q1771.64 1459.58 1774.7 1455 Q1777.78 1450.39 1783.59 1450.39 Z" fill="#000000" fill-rule="nonzero" fill-opacity="1" /><path clip-path="url(#clip080)" d="M1966.94 1481.64 L1974.58 1481.64 L1974.58 1455.28 L1966.27 1456.95 L1966.27 1452.69 L1974.53 1451.02 L1979.21 1451.02 L1979.21 1481.64 L1986.85 1481.64 L1986.85 1485.58 L1966.94 1485.58 L1966.94 1481.64 Z" fill="#000000" fill-rule="nonzero" fill-opacity="1" /><path clip-path="url(#clip080)" d="M2006.29 1454.1 Q2002.68 1454.1 2000.85 1457.66 Q1999.04 1461.2 1999.04 1468.33 Q1999.04 1475.44 2000.85 1479.01 Q2002.68 1482.55 2006.29 1482.55 Q2009.92 1482.55 2011.73 1479.01 Q2013.56 1475.44 2013.56 1468.33 Q2013.56 1461.2 2011.73 1457.66 Q2009.92 1454.1 2006.29 1454.1 M2006.29 1450.39 Q2012.1 1450.39 2015.16 1455 Q2018.23 1459.58 2018.23 1468.33 Q2018.23 1477.06 2015.16 1481.67 Q2012.1 1486.25 2006.29 1486.25 Q2000.48 1486.25 1997.4 1481.67 Q1994.35 1477.06 1994.35 1468.33 Q1994.35 1459.58 1997.4 1455 Q2000.48 1450.39 2006.29 1450.39 Z" fill="#000000" fill-rule="nonzero" fill-opacity="1" /><path clip-path="url(#clip080)" d="M2036.45 1454.1 Q2032.84 1454.1 2031.01 1457.66 Q2029.21 1461.2 2029.21 1468.33 Q2029.21 1475.44 2031.01 1479.01 Q2032.84 1482.55 2036.45 1482.55 Q2040.09 1482.55 2041.89 1479.01 Q2043.72 1475.44 2043.72 1468.33 Q2043.72 1461.2 2041.89 1457.66 Q2040.09 1454.1 2036.45 1454.1 M2036.45 1450.39 Q2042.26 1450.39 2045.32 1455 Q2048.4 1459.58 2048.4 1468.33 Q2048.4 1477.06 2045.32 1481.67 Q2042.26 1486.25 2036.45 1486.25 Q2030.64 1486.25 2027.56 1481.67 Q2024.51 1477.06 2024.51 1468.33 Q2024.51 1459.58 2027.56 1455 Q2030.64 1450.39 2036.45 1450.39 Z" fill="#000000" fill-rule="nonzero" fill-opacity="1" /><path clip-path="url(#clip080)" d="M2066.61 1454.1 Q2063 1454.1 2061.17 1457.66 Q2059.37 1461.2 2059.37 1468.33 Q2059.37 1475.44 2061.17 1479.01 Q2063 1482.55 2066.61 1482.55 Q2070.25 1482.55 2072.05 1479.01 Q2073.88 1475.44 2073.88 1468.33 Q2073.88 1461.2 2072.05 1457.66 Q2070.25 1454.1 2066.61 1454.1 M2066.61 1450.39 Q2072.42 1450.39 2075.48 1455 Q2078.56 1459.58 2078.56 1468.33 Q2078.56 1477.06 2075.48 1481.67 Q2072.42 1486.25 2066.61 1486.25 Q2060.8 1486.25 2057.72 1481.67 Q2054.67 1477.06 2054.67 1468.33 Q2054.67 1459.58 2057.72 1455 Q2060.8 1450.39 2066.61 1450.39 Z" fill="#000000" fill-rule="nonzero" fill-opacity="1" /><path clip-path="url(#clip080)" d="M2128.22 1481.64 L2144.54 1481.64 L2144.54 1485.58 L2122.59 1485.58 L2122.59 1481.64 Q2125.25 1478.89 2129.84 1474.26 Q2134.44 1469.61 2135.62 1468.27 Q2137.87 1465.74 2138.75 1464.01 Q2139.65 1462.25 2139.65 1460.56 Q2139.65 1457.8 2137.71 1456.07 Q2135.79 1454.33 2132.68 1454.33 Q2130.48 1454.33 2128.03 1455.09 Q2125.6 1455.86 2122.82 1457.41 L2122.82 1452.69 Q2125.65 1451.55 2128.1 1450.97 Q2130.55 1450.39 2132.59 1450.39 Q2137.96 1450.39 2141.16 1453.08 Q2144.35 1455.77 2144.35 1460.26 Q2144.35 1462.39 2143.54 1464.31 Q2142.75 1466.2 2140.65 1468.8 Q2140.07 1469.47 2136.97 1472.69 Q2133.86 1475.88 2128.22 1481.64 Z" fill="#000000" fill-rule="nonzero" fill-opacity="1" /><path clip-path="url(#clip080)" d="M2164.35 1454.1 Q2160.74 1454.1 2158.91 1457.66 Q2157.1 1461.2 2157.1 1468.33 Q2157.1 1475.44 2158.91 1479.01 Q2160.74 1482.55 2164.35 1482.55 Q2167.98 1482.55 2169.79 1479.01 Q2171.62 1475.44 2171.62 1468.33 Q2171.62 1461.2 2169.79 1457.66 Q2167.98 1454.1 2164.35 1454.1 M2164.35 1450.39 Q2170.16 1450.39 2173.22 1455 Q2176.29 1459.58 2176.29 1468.33 Q2176.29 1477.06 2173.22 1481.67 Q2170.16 1486.25 2164.35 1486.25 Q2158.54 1486.25 2155.46 1481.67 Q2152.41 1477.06 2152.41 1468.33 Q2152.41 1459.58 2155.46 1455 Q2158.54 1450.39 2164.35 1450.39 Z" fill="#000000" fill-rule="nonzero" fill-opacity="1" /><path clip-path="url(#clip080)" d="M2194.51 1454.1 Q2190.9 1454.1 2189.07 1457.66 Q2187.27 1461.2 2187.27 1468.33 Q2187.27 1475.44 2189.07 1479.01 Q2190.9 1482.55 2194.51 1482.55 Q2198.15 1482.55 2199.95 1479.01 Q2201.78 1475.44 2201.78 1468.33 Q2201.78 1461.2 2199.95 1457.66 Q2198.15 1454.1 2194.51 1454.1 M2194.51 1450.39 Q2200.32 1450.39 2203.38 1455 Q2206.46 1459.58 2206.46 1468.33 Q2206.46 1477.06 2203.38 1481.67 Q2200.32 1486.25 2194.51 1486.25 Q2188.7 1486.25 2185.62 1481.67 Q2182.57 1477.06 2182.57 1468.33 Q2182.57 1459.58 2185.62 1455 Q2188.7 1450.39 2194.51 1450.39 Z" fill="#000000" fill-rule="nonzero" fill-opacity="1" /><path clip-path="url(#clip080)" d="M2224.67 1454.1 Q2221.06 1454.1 2219.23 1457.66 Q2217.43 1461.2 2217.43 1468.33 Q2217.43 1475.44 2219.23 1479.01 Q2221.06 1482.55 2224.67 1482.55 Q2228.31 1482.55 2230.11 1479.01 Q2231.94 1475.44 2231.94 1468.33 Q2231.94 1461.2 2230.11 1457.66 Q2228.31 1454.1 2224.67 1454.1 M2224.67 1450.39 Q2230.48 1450.39 2233.54 1455 Q2236.62 1459.58 2236.62 1468.33 Q2236.62 1477.06 2233.54 1481.67 Q2230.48 1486.25 2224.67 1486.25 Q2218.86 1486.25 2215.78 1481.67 Q2212.73 1477.06 2212.73 1468.33 Q2212.73 1459.58 2215.78 1455 Q2218.86 1450.39 2224.67 1450.39 Z" fill="#000000" fill-rule="nonzero" fill-opacity="1" /><path clip-path="url(#clip080)" d="M816.451 1499.75 L822.88 1499.75 L822.88 1547.27 L816.451 1547.27 L816.451 1499.75 Z" fill="#000000" fill-rule="nonzero" fill-opacity="1" /><path clip-path="url(#clip080)" d="M865.053 1525.76 L865.053 1547.27 L859.197 1547.27 L859.197 1525.95 Q859.197 1520.89 857.223 1518.37 Q855.25 1515.86 851.303 1515.86 Q846.561 1515.86 843.824 1518.88 Q841.086 1521.91 841.086 1527.13 L841.086 1547.27 L835.198 1547.27 L835.198 1511.63 L841.086 1511.63 L841.086 1517.16 Q843.187 1513.95 846.02 1512.36 Q848.884 1510.77 852.608 1510.77 Q858.751 1510.77 861.902 1514.59 Q865.053 1518.37 865.053 1525.76 Z" fill="#000000" fill-rule="nonzero" fill-opacity="1" /><path clip-path="url(#clip080)" d="M876.734 1511.63 L882.591 1511.63 L882.591 1547.27 L876.734 1547.27 L876.734 1511.63 M876.734 1497.75 L882.591 1497.75 L882.591 1505.16 L876.734 1505.16 L876.734 1497.75 Z" fill="#000000" fill-rule="nonzero" fill-opacity="1" /><path clip-path="url(#clip080)" d="M924.477 1525.76 L924.477 1547.27 L918.621 1547.27 L918.621 1525.95 Q918.621 1520.89 916.647 1518.37 Q914.674 1515.86 910.727 1515.86 Q905.985 1515.86 903.247 1518.88 Q900.51 1521.91 900.51 1527.13 L900.51 1547.27 L894.622 1547.27 L894.622 1511.63 L900.51 1511.63 L900.51 1517.16 Q902.611 1513.95 905.444 1512.36 Q908.308 1510.77 912.032 1510.77 Q918.175 1510.77 921.326 1514.59 Q924.477 1518.37 924.477 1525.76 Z" fill="#000000" fill-rule="nonzero" fill-opacity="1" /><path clip-path="url(#clip080)" d="M941.951 1501.5 L941.951 1511.63 L954.014 1511.63 L954.014 1516.18 L941.951 1516.18 L941.951 1535.53 Q941.951 1539.89 943.129 1541.13 Q944.338 1542.37 947.998 1542.37 L954.014 1542.37 L954.014 1547.27 L947.998 1547.27 Q941.219 1547.27 938.641 1544.76 Q936.063 1542.21 936.063 1535.53 L936.063 1516.18 L931.766 1516.18 L931.766 1511.63 L936.063 1511.63 L936.063 1501.5 L941.951 1501.5 Z" fill="#000000" fill-rule="nonzero" fill-opacity="1" /><path clip-path="url(#clip080)" d="M961.716 1511.63 L967.573 1511.63 L967.573 1547.27 L961.716 1547.27 L961.716 1511.63 M961.716 1497.75 L967.573 1497.75 L967.573 1505.16 L961.716 1505.16 L961.716 1497.75 Z" fill="#000000" fill-rule="nonzero" fill-opacity="1" /><path clip-path="url(#clip080)" d="M996.028 1529.35 Q988.93 1529.35 986.193 1530.98 Q983.455 1532.6 983.455 1536.52 Q983.455 1539.64 985.492 1541.48 Q987.561 1543.3 991.094 1543.3 Q995.964 1543.3 998.892 1539.86 Q1001.85 1536.39 1001.85 1530.66 L1001.85 1529.35 L996.028 1529.35 M1007.71 1526.94 L1007.71 1547.27 L1001.85 1547.27 L1001.85 1541.86 Q999.847 1545.11 996.855 1546.67 Q993.863 1548.2 989.535 1548.2 Q984.06 1548.2 980.814 1545.14 Q977.599 1542.05 977.599 1536.9 Q977.599 1530.88 981.609 1527.83 Q985.652 1524.77 993.64 1524.77 L1001.85 1524.77 L1001.85 1524.2 Q1001.85 1520.16 999.179 1517.96 Q996.537 1515.73 991.731 1515.73 Q988.675 1515.73 985.779 1516.46 Q982.882 1517.2 980.209 1518.66 L980.209 1513.25 Q983.424 1512.01 986.447 1511.4 Q989.471 1510.77 992.336 1510.77 Q1000.07 1510.77 1003.89 1514.78 Q1007.71 1518.79 1007.71 1526.94 Z" fill="#000000" fill-rule="nonzero" fill-opacity="1" /><path clip-path="url(#clip080)" d="M1019.77 1497.75 L1025.63 1497.75 L1025.63 1547.27 L1019.77 1547.27 L1019.77 1497.75 Z" fill="#000000" fill-rule="nonzero" fill-opacity="1" /><path clip-path="url(#clip080)" d="M1084.19 1529.48 Q1084.19 1523.02 1081.52 1519.36 Q1078.88 1515.67 1074.23 1515.67 Q1069.58 1515.67 1066.91 1519.36 Q1064.27 1523.02 1064.27 1529.48 Q1064.27 1535.94 1066.91 1539.64 Q1069.58 1543.3 1074.23 1543.3 Q1078.88 1543.3 1081.52 1539.64 Q1084.19 1535.94 1084.19 1529.48 M1064.27 1517.04 Q1066.11 1513.85 1068.91 1512.33 Q1071.75 1510.77 1075.66 1510.77 Q1082.16 1510.77 1086.2 1515.92 Q1090.27 1521.08 1090.27 1529.48 Q1090.27 1537.88 1086.2 1543.04 Q1082.16 1548.2 1075.66 1548.2 Q1071.75 1548.2 1068.91 1546.67 Q1066.11 1545.11 1064.27 1541.93 L1064.27 1547.27 L1058.38 1547.27 L1058.38 1497.75 L1064.27 1497.75 L1064.27 1517.04 Z" fill="#000000" fill-rule="nonzero" fill-opacity="1" /><path clip-path="url(#clip080)" d="M1113.79 1515.73 Q1109.08 1515.73 1106.35 1519.42 Q1103.61 1523.08 1103.61 1529.48 Q1103.61 1535.88 1106.31 1539.57 Q1109.05 1543.23 1113.79 1543.23 Q1118.47 1543.23 1121.21 1539.54 Q1123.95 1535.85 1123.95 1529.48 Q1123.95 1523.15 1121.21 1519.46 Q1118.47 1515.73 1113.79 1515.73 M1113.79 1510.77 Q1121.43 1510.77 1125.79 1515.73 Q1130.15 1520.7 1130.15 1529.48 Q1130.15 1538.23 1125.79 1543.23 Q1121.43 1548.2 1113.79 1548.2 Q1106.12 1548.2 1101.76 1543.23 Q1097.43 1538.23 1097.43 1529.48 Q1097.43 1520.7 1101.76 1515.73 Q1106.12 1510.77 1113.79 1510.77 Z" fill="#000000" fill-rule="nonzero" fill-opacity="1" /><path clip-path="url(#clip080)" d="M1169.49 1525.76 L1169.49 1547.27 L1163.64 1547.27 L1163.64 1525.95 Q1163.64 1520.89 1161.66 1518.37 Q1159.69 1515.86 1155.74 1515.86 Q1151 1515.86 1148.26 1518.88 Q1145.53 1521.91 1145.53 1527.13 L1145.53 1547.27 L1139.64 1547.27 L1139.64 1511.63 L1145.53 1511.63 L1145.53 1517.16 Q1147.63 1513.95 1150.46 1512.36 Q1153.32 1510.77 1157.05 1510.77 Q1163.19 1510.77 1166.34 1514.59 Q1169.49 1518.37 1169.49 1525.76 Z" fill="#000000" fill-rule="nonzero" fill-opacity="1" /><path clip-path="url(#clip080)" d="M1204.63 1517.04 L1204.63 1497.75 L1210.49 1497.75 L1210.49 1547.27 L1204.63 1547.27 L1204.63 1541.93 Q1202.79 1545.11 1199.95 1546.67 Q1197.15 1548.2 1193.21 1548.2 Q1186.74 1548.2 1182.67 1543.04 Q1178.63 1537.88 1178.63 1529.48 Q1178.63 1521.08 1182.67 1515.92 Q1186.74 1510.77 1193.21 1510.77 Q1197.15 1510.77 1199.95 1512.33 Q1202.79 1513.85 1204.63 1517.04 M1184.68 1529.48 Q1184.68 1535.94 1187.32 1539.64 Q1189.99 1543.3 1194.64 1543.3 Q1199.28 1543.3 1201.96 1539.64 Q1204.63 1535.94 1204.63 1529.48 Q1204.63 1523.02 1201.96 1519.36 Q1199.28 1515.67 1194.64 1515.67 Q1189.99 1515.67 1187.32 1519.36 Q1184.68 1523.02 1184.68 1529.48 Z" fill="#000000" fill-rule="nonzero" fill-opacity="1" /><path clip-path="url(#clip080)" d="M1266.73 1517.04 L1266.73 1497.75 L1272.59 1497.75 L1272.59 1547.27 L1266.73 1547.27 L1266.73 1541.93 Q1264.88 1545.11 1262.05 1546.67 Q1259.25 1548.2 1255.3 1548.2 Q1248.84 1548.2 1244.77 1543.04 Q1240.73 1537.88 1240.73 1529.48 Q1240.73 1521.08 1244.77 1515.92 Q1248.84 1510.77 1255.3 1510.77 Q1259.25 1510.77 1262.05 1512.33 Q1264.88 1513.85 1266.73 1517.04 M1246.77 1529.48 Q1246.77 1535.94 1249.41 1539.64 Q1252.09 1543.3 1256.74 1543.3 Q1261.38 1543.3 1264.06 1539.64 Q1266.73 1535.94 1266.73 1529.48 Q1266.73 1523.02 1264.06 1519.36 Q1261.38 1515.67 1256.74 1515.67 Q1252.09 1515.67 1249.41 1519.36 Q1246.77 1523.02 1246.77 1529.48 Z" fill="#000000" fill-rule="nonzero" fill-opacity="1" /><path clip-path="url(#clip080)" d="M1284.65 1511.63 L1290.51 1511.63 L1290.51 1547.27 L1284.65 1547.27 L1284.65 1511.63 M1284.65 1497.75 L1290.51 1497.75 L1290.51 1505.16 L1284.65 1505.16 L1284.65 1497.75 Z" fill="#000000" fill-rule="nonzero" fill-opacity="1" /><path clip-path="url(#clip080)" d="M1330.51 1518.47 Q1332.71 1514.52 1335.77 1512.64 Q1338.82 1510.77 1342.96 1510.77 Q1348.53 1510.77 1351.55 1514.68 Q1354.58 1518.56 1354.58 1525.76 L1354.58 1547.27 L1348.69 1547.27 L1348.69 1525.95 Q1348.69 1520.82 1346.87 1518.34 Q1345.06 1515.86 1341.34 1515.86 Q1336.78 1515.86 1334.14 1518.88 Q1331.5 1521.91 1331.5 1527.13 L1331.5 1547.27 L1325.61 1547.27 L1325.61 1525.95 Q1325.61 1520.79 1323.8 1518.34 Q1321.98 1515.86 1318.2 1515.86 Q1313.71 1515.86 1311.07 1518.91 Q1308.42 1521.94 1308.42 1527.13 L1308.42 1547.27 L1302.54 1547.27 L1302.54 1511.63 L1308.42 1511.63 L1308.42 1517.16 Q1310.43 1513.89 1313.23 1512.33 Q1316.03 1510.77 1319.88 1510.77 Q1323.77 1510.77 1326.47 1512.74 Q1329.21 1514.71 1330.51 1518.47 Z" fill="#000000" fill-rule="nonzero" fill-opacity="1" /><path clip-path="url(#clip080)" d="M1396.75 1527.99 L1396.75 1530.85 L1369.82 1530.85 Q1370.2 1536.9 1373.45 1540.08 Q1376.73 1543.23 1382.55 1543.23 Q1385.93 1543.23 1389.08 1542.4 Q1392.26 1541.58 1395.38 1539.92 L1395.38 1545.46 Q1392.23 1546.8 1388.92 1547.5 Q1385.61 1548.2 1382.2 1548.2 Q1373.67 1548.2 1368.68 1543.23 Q1363.71 1538.27 1363.71 1529.8 Q1363.71 1521.05 1368.42 1515.92 Q1373.16 1510.77 1381.18 1510.77 Q1388.38 1510.77 1392.55 1515.41 Q1396.75 1520.03 1396.75 1527.99 M1390.89 1526.27 Q1390.83 1521.46 1388.19 1518.6 Q1385.58 1515.73 1381.25 1515.73 Q1376.35 1515.73 1373.39 1518.5 Q1370.46 1521.27 1370.01 1526.3 L1390.89 1526.27 Z" fill="#000000" fill-rule="nonzero" fill-opacity="1" /><path clip-path="url(#clip080)" d="M1435.99 1525.76 L1435.99 1547.27 L1430.14 1547.27 L1430.14 1525.95 Q1430.14 1520.89 1428.16 1518.37 Q1426.19 1515.86 1422.24 1515.86 Q1417.5 1515.86 1414.76 1518.88 Q1412.03 1521.91 1412.03 1527.13 L1412.03 1547.27 L1406.14 1547.27 L1406.14 1511.63 L1412.03 1511.63 L1412.03 1517.16 Q1414.13 1513.95 1416.96 1512.36 Q1419.82 1510.77 1423.55 1510.77 Q1429.69 1510.77 1432.84 1514.59 Q1435.99 1518.37 1435.99 1525.76 Z" fill="#000000" fill-rule="nonzero" fill-opacity="1" /><path clip-path="url(#clip080)" d="M1470.4 1512.68 L1470.4 1518.21 Q1467.92 1516.94 1465.24 1516.3 Q1462.57 1515.67 1459.71 1515.67 Q1455.35 1515.67 1453.15 1517.01 Q1450.98 1518.34 1450.98 1521.02 Q1450.98 1523.05 1452.54 1524.23 Q1454.1 1525.38 1458.81 1526.43 L1460.82 1526.87 Q1467.06 1528.21 1469.67 1530.66 Q1472.31 1533.08 1472.31 1537.44 Q1472.31 1542.4 1468.36 1545.3 Q1464.45 1548.2 1457.57 1548.2 Q1454.71 1548.2 1451.59 1547.62 Q1448.5 1547.08 1445.06 1545.97 L1445.06 1539.92 Q1448.31 1541.61 1451.46 1542.47 Q1454.61 1543.3 1457.7 1543.3 Q1461.84 1543.3 1464.07 1541.9 Q1466.29 1540.46 1466.29 1537.88 Q1466.29 1535.5 1464.67 1534.22 Q1463.08 1532.95 1457.64 1531.77 L1455.6 1531.3 Q1450.16 1530.15 1447.74 1527.79 Q1445.32 1525.41 1445.32 1521.27 Q1445.32 1516.24 1448.88 1513.5 Q1452.45 1510.77 1459.01 1510.77 Q1462.25 1510.77 1465.12 1511.24 Q1467.98 1511.72 1470.4 1512.68 Z" fill="#000000" fill-rule="nonzero" fill-opacity="1" /><path clip-path="url(#clip080)" d="M1481.64 1511.63 L1487.49 1511.63 L1487.49 1547.27 L1481.64 1547.27 L1481.64 1511.63 M1481.64 1497.75 L1487.49 1497.75 L1487.49 1505.16 L1481.64 1505.16 L1481.64 1497.75 Z" fill="#000000" fill-rule="nonzero" fill-opacity="1" /><path clip-path="url(#clip080)" d="M1513.56 1515.73 Q1508.85 1515.73 1506.11 1519.42 Q1503.37 1523.08 1503.37 1529.48 Q1503.37 1535.88 1506.08 1539.57 Q1508.82 1543.23 1513.56 1543.23 Q1518.24 1543.23 1520.98 1539.54 Q1523.71 1535.85 1523.71 1529.48 Q1523.71 1523.15 1520.98 1519.46 Q1518.24 1515.73 1513.56 1515.73 M1513.56 1510.77 Q1521.2 1510.77 1525.56 1515.73 Q1529.92 1520.7 1529.92 1529.48 Q1529.92 1538.23 1525.56 1543.23 Q1521.2 1548.2 1513.56 1548.2 Q1505.89 1548.2 1501.53 1543.23 Q1497.2 1538.23 1497.2 1529.48 Q1497.2 1520.7 1501.53 1515.73 Q1505.89 1510.77 1513.56 1510.77 Z" fill="#000000" fill-rule="nonzero" fill-opacity="1" /><path clip-path="url(#clip080)" d="M1569.26 1525.76 L1569.26 1547.27 L1563.4 1547.27 L1563.4 1525.95 Q1563.4 1520.89 1561.43 1518.37 Q1559.46 1515.86 1555.51 1515.86 Q1550.77 1515.86 1548.03 1518.88 Q1545.29 1521.91 1545.29 1527.13 L1545.29 1547.27 L1539.4 1547.27 L1539.4 1511.63 L1545.29 1511.63 L1545.29 1517.16 Q1547.39 1513.95 1550.23 1512.36 Q1553.09 1510.77 1556.81 1510.77 Q1562.96 1510.77 1566.11 1514.59 Q1569.26 1518.37 1569.26 1525.76 Z" fill="#000000" fill-rule="nonzero" fill-opacity="1" /><path clip-path="url(#clip080)" d="M1602.42 1517.67 L1643.23 1517.67 L1643.23 1523.02 L1602.42 1523.02 L1602.42 1517.67 M1602.42 1530.66 L1643.23 1530.66 L1643.23 1536.07 L1602.42 1536.07 L1602.42 1530.66 Z" fill="#000000" fill-rule="nonzero" fill-opacity="1" /><path clip-path="url(#clip080)" d="M1707.8 1519.09 Q1708.02 1519.32 1708.02 1519.64 Q1708.02 1519.96 1707.28 1520.7 L1691.6 1538.29 Q1697.59 1559.35 1700.87 1559.35 Q1701.87 1559.35 1702.9 1558.58 Q1703.96 1557.84 1704.38 1556.71 Q1704.54 1556.16 1704.7 1555.97 Q1704.87 1555.78 1705.32 1555.78 Q1706.09 1555.78 1706.09 1556.52 Q1706.09 1556.9 1705.74 1557.55 Q1705.38 1558.22 1704.74 1558.96 Q1704.09 1559.74 1702.97 1560.25 Q1701.84 1560.8 1700.49 1560.8 Q1698.81 1560.8 1697.46 1560.41 Q1696.11 1560.03 1695.33 1559.54 Q1694.56 1559.06 1693.85 1558.19 Q1693.17 1557.35 1692.92 1556.84 Q1692.69 1556.36 1692.31 1555.52 Q1691.53 1553.72 1690.82 1551.72 Q1690.12 1549.72 1689.66 1548.27 Q1689.21 1546.82 1687.83 1542.38 L1672.72 1559.35 Q1672.02 1560.06 1671.66 1560.06 Q1671.37 1560.06 1671.11 1559.8 Q1670.86 1559.58 1670.86 1559.29 Q1670.86 1558.96 1671.6 1558.22 L1686.77 1541.28 Q1686.99 1541.06 1687.12 1540.87 Q1687.25 1540.67 1687.25 1540.61 L1687.28 1540.54 Q1687.28 1540.38 1686.7 1538.32 Q1686.12 1536.26 1685.06 1533.07 Q1684.03 1529.85 1683.06 1527.5 Q1682.45 1525.92 1682.03 1524.96 Q1681.61 1523.99 1680.87 1522.54 Q1680.16 1521.09 1679.42 1520.35 Q1678.68 1519.58 1678.01 1519.58 Q1677.78 1519.58 1677.43 1519.67 Q1677.07 1519.77 1676.49 1520.03 Q1675.94 1520.25 1675.4 1520.9 Q1674.85 1521.51 1674.5 1522.41 Q1674.21 1523.12 1673.66 1523.12 Q1673.3 1523.12 1673.08 1522.96 Q1672.89 1522.8 1672.89 1522.64 L1672.85 1522.48 Q1672.85 1521.9 1673.4 1520.93 Q1673.95 1519.96 1675.3 1519.06 Q1676.65 1518.13 1678.39 1518.13 Q1680.03 1518.13 1681.39 1518.51 Q1682.74 1518.9 1683.48 1519.35 Q1684.25 1519.8 1684.93 1520.64 Q1685.61 1521.44 1685.8 1521.83 Q1686.03 1522.19 1686.38 1522.93 Q1687.47 1525.44 1688.18 1527.6 Q1688.92 1529.72 1691.05 1536.45 L1706.15 1519.64 Q1706.83 1518.84 1707.22 1518.84 Q1707.57 1518.84 1707.8 1519.09 Z" fill="#000000" fill-rule="nonzero" fill-opacity="1" /><polyline clip-path="url(#clip082)" style="stroke:#000000; stroke-linecap:round; stroke-linejoin:round; stroke-width:2; stroke-opacity:0.1; fill:none" points="175.445,1389.25 2352.76,1389.25 "/>
<polyline clip-path="url(#clip082)" style="stroke:#000000; stroke-linecap:round; stroke-linejoin:round; stroke-width:2; stroke-opacity:0.1; fill:none" points="175.445,1167.34 2352.76,1167.34 "/>
<polyline clip-path="url(#clip082)" style="stroke:#000000; stroke-linecap:round; stroke-linejoin:round; stroke-width:2; stroke-opacity:0.1; fill:none" points="175.445,945.432 2352.76,945.432 "/>
<polyline clip-path="url(#clip082)" style="stroke:#000000; stroke-linecap:round; stroke-linejoin:round; stroke-width:2; stroke-opacity:0.1; fill:none" points="175.445,723.522 2352.76,723.522 "/>
<polyline clip-path="url(#clip082)" style="stroke:#000000; stroke-linecap:round; stroke-linejoin:round; stroke-width:2; stroke-opacity:0.1; fill:none" points="175.445,501.612 2352.76,501.612 "/>
<polyline clip-path="url(#clip082)" style="stroke:#000000; stroke-linecap:round; stroke-linejoin:round; stroke-width:2; stroke-opacity:0.1; fill:none" points="175.445,279.702 2352.76,279.702 "/>
<polyline clip-path="url(#clip082)" style="stroke:#000000; stroke-linecap:round; stroke-linejoin:round; stroke-width:2; stroke-opacity:0.1; fill:none" points="175.445,57.7925 2352.76,57.7925 "/>
<polyline clip-path="url(#clip080)" style="stroke:#000000; stroke-linecap:round; stroke-linejoin:round; stroke-width:4; stroke-opacity:1; fill:none" points="175.445,1423.18 175.445,47.2441 "/>
<polyline clip-path="url(#clip080)" style="stroke:#000000; stroke-linecap:round; stroke-linejoin:round; stroke-width:4; stroke-opacity:1; fill:none" points="175.445,1389.25 194.343,1389.25 "/>
<polyline clip-path="url(#clip080)" style="stroke:#000000; stroke-linecap:round; stroke-linejoin:round; stroke-width:4; stroke-opacity:1; fill:none" points="175.445,1167.34 194.343,1167.34 "/>
<polyline clip-path="url(#clip080)" style="stroke:#000000; stroke-linecap:round; stroke-linejoin:round; stroke-width:4; stroke-opacity:1; fill:none" points="175.445,945.432 194.343,945.432 "/>
<polyline clip-path="url(#clip080)" style="stroke:#000000; stroke-linecap:round; stroke-linejoin:round; stroke-width:4; stroke-opacity:1; fill:none" points="175.445,723.522 194.343,723.522 "/>
<polyline clip-path="url(#clip080)" style="stroke:#000000; stroke-linecap:round; stroke-linejoin:round; stroke-width:4; stroke-opacity:1; fill:none" points="175.445,501.612 194.343,501.612 "/>
<polyline clip-path="url(#clip080)" style="stroke:#000000; stroke-linecap:round; stroke-linejoin:round; stroke-width:4; stroke-opacity:1; fill:none" points="175.445,279.702 194.343,279.702 "/>
<polyline clip-path="url(#clip080)" style="stroke:#000000; stroke-linecap:round; stroke-linejoin:round; stroke-width:4; stroke-opacity:1; fill:none" points="175.445,57.7925 194.343,57.7925 "/>
<path clip-path="url(#clip080)" d="M127.501 1375.05 Q123.89 1375.05 122.061 1378.62 Q120.255 1382.16 120.255 1389.29 Q120.255 1396.39 122.061 1399.96 Q123.89 1403.5 127.501 1403.5 Q131.135 1403.5 132.941 1399.96 Q134.769 1396.39 134.769 1389.29 Q134.769 1382.16 132.941 1378.62 Q131.135 1375.05 127.501 1375.05 M127.501 1371.35 Q133.311 1371.35 136.367 1375.95 Q139.445 1380.54 139.445 1389.29 Q139.445 1398.01 136.367 1402.62 Q133.311 1407.2 127.501 1407.2 Q121.691 1407.2 118.612 1402.62 Q115.556 1398.01 115.556 1389.29 Q115.556 1380.54 118.612 1375.95 Q121.691 1371.35 127.501 1371.35 Z" fill="#000000" fill-rule="nonzero" fill-opacity="1" /><path clip-path="url(#clip080)" d="M119.538 1180.69 L127.177 1180.69 L127.177 1154.32 L118.867 1155.99 L118.867 1151.73 L127.13 1150.06 L131.806 1150.06 L131.806 1180.69 L139.445 1180.69 L139.445 1184.62 L119.538 1184.62 L119.538 1180.69 Z" fill="#000000" fill-rule="nonzero" fill-opacity="1" /><path clip-path="url(#clip080)" d="M123.126 958.777 L139.445 958.777 L139.445 962.712 L117.501 962.712 L117.501 958.777 Q120.163 956.022 124.746 951.393 Q129.353 946.74 130.533 945.397 Q132.779 942.874 133.658 941.138 Q134.561 939.379 134.561 937.689 Q134.561 934.935 132.617 933.198 Q130.695 931.462 127.593 931.462 Q125.394 931.462 122.941 932.226 Q120.51 932.99 117.732 934.541 L117.732 929.819 Q120.556 928.685 123.01 928.106 Q125.464 927.527 127.501 927.527 Q132.871 927.527 136.066 930.212 Q139.26 932.897 139.26 937.388 Q139.26 939.518 138.45 941.439 Q137.663 943.337 135.556 945.93 Q134.978 946.601 131.876 949.819 Q128.774 953.013 123.126 958.777 Z" fill="#000000" fill-rule="nonzero" fill-opacity="1" /><path clip-path="url(#clip080)" d="M132.316 722.168 Q135.672 722.886 137.547 725.154 Q139.445 727.423 139.445 730.756 Q139.445 735.872 135.927 738.673 Q132.408 741.474 125.927 741.474 Q123.751 741.474 121.436 741.034 Q119.144 740.617 116.691 739.761 L116.691 735.247 Q118.635 736.381 120.95 736.96 Q123.265 737.538 125.788 737.538 Q130.186 737.538 132.478 735.802 Q134.792 734.066 134.792 730.756 Q134.792 727.7 132.64 725.987 Q130.51 724.251 126.691 724.251 L122.663 724.251 L122.663 720.409 L126.876 720.409 Q130.325 720.409 132.154 719.043 Q133.982 717.654 133.982 715.062 Q133.982 712.4 132.084 710.988 Q130.209 709.552 126.691 709.552 Q124.769 709.552 122.57 709.969 Q120.371 710.386 117.732 711.265 L117.732 707.099 Q120.394 706.358 122.709 705.988 Q125.047 705.617 127.107 705.617 Q132.431 705.617 135.533 708.048 Q138.635 710.455 138.635 714.576 Q138.635 717.446 136.992 719.437 Q135.348 721.404 132.316 722.168 Z" fill="#000000" fill-rule="nonzero" fill-opacity="1" /><path clip-path="url(#clip080)" d="M129.862 488.406 L118.056 506.855 L129.862 506.855 L129.862 488.406 M128.635 484.332 L134.515 484.332 L134.515 506.855 L139.445 506.855 L139.445 510.744 L134.515 510.744 L134.515 518.892 L129.862 518.892 L129.862 510.744 L114.26 510.744 L114.26 506.23 L128.635 484.332 Z" fill="#000000" fill-rule="nonzero" fill-opacity="1" /><path clip-path="url(#clip080)" d="M118.543 262.422 L136.899 262.422 L136.899 266.358 L122.825 266.358 L122.825 274.83 Q123.843 274.483 124.862 274.32 Q125.88 274.135 126.899 274.135 Q132.686 274.135 136.066 277.307 Q139.445 280.478 139.445 285.894 Q139.445 291.473 135.973 294.575 Q132.501 297.654 126.181 297.654 Q124.005 297.654 121.737 297.283 Q119.492 296.913 117.084 296.172 L117.084 291.473 Q119.168 292.607 121.39 293.163 Q123.612 293.719 126.089 293.719 Q130.093 293.719 132.431 291.612 Q134.769 289.506 134.769 285.894 Q134.769 282.283 132.431 280.177 Q130.093 278.07 126.089 278.07 Q124.214 278.07 122.339 278.487 Q120.487 278.904 118.543 279.783 L118.543 262.422 Z" fill="#000000" fill-rule="nonzero" fill-opacity="1" /><path clip-path="url(#clip080)" d="M127.917 55.9291 Q124.769 55.9291 122.918 58.0818 Q121.089 60.2346 121.089 63.9846 Q121.089 67.7114 122.918 69.8873 Q124.769 72.0401 127.917 72.0401 Q131.066 72.0401 132.894 69.8873 Q134.746 67.7114 134.746 63.9846 Q134.746 60.2346 132.894 58.0818 Q131.066 55.9291 127.917 55.9291 M137.2 41.2764 L137.2 45.5356 Q135.441 44.7023 133.635 44.2625 Q131.853 43.8226 130.093 43.8226 Q125.464 43.8226 123.01 46.9476 Q120.58 50.0726 120.232 56.392 Q121.598 54.3781 123.658 53.3133 Q125.718 52.2254 128.195 52.2254 Q133.404 52.2254 136.413 55.3967 Q139.445 58.5448 139.445 63.9846 Q139.445 69.3086 136.297 72.5262 Q133.149 75.7438 127.917 75.7438 Q121.922 75.7438 118.751 71.1605 Q115.58 66.554 115.58 57.8272 Q115.58 49.6328 119.468 44.7717 Q123.357 39.8875 129.908 39.8875 Q131.667 39.8875 133.45 40.2347 Q135.255 40.5819 137.2 41.2764 Z" fill="#000000" fill-rule="nonzero" fill-opacity="1" /><path clip-path="url(#clip080)" d="M20.1444 1040 L26.9239 1040 Q23.9002 1043.25 22.4043 1046.94 Q20.9083 1050.6 20.9083 1054.74 Q20.9083 1062.89 25.9054 1067.22 Q30.8707 1071.54 40.2919 1071.54 Q49.6813 1071.54 54.6784 1067.22 Q59.6436 1062.89 59.6436 1054.74 Q59.6436 1050.6 58.1477 1046.94 Q56.6518 1043.25 53.6281 1040 L60.3439 1040 Q62.6355 1043.38 63.7814 1047.16 Q64.9272 1050.92 64.9272 1055.12 Q64.9272 1065.91 58.3387 1072.12 Q51.7183 1078.32 40.2919 1078.32 Q28.8336 1078.32 22.2451 1072.12 Q15.6248 1065.91 15.6248 1055.12 Q15.6248 1050.86 16.7706 1047.1 Q17.8846 1043.31 20.1444 1040 Z" fill="#000000" fill-rule="nonzero" fill-opacity="1" /><path clip-path="url(#clip080)" d="M32.4621 1016.51 Q32.4621 1021.22 36.1542 1023.96 Q39.8145 1026.7 46.212 1026.7 Q52.6095 1026.7 56.3017 1023.99 Q59.9619 1021.25 59.9619 1016.51 Q59.9619 1011.83 56.2698 1009.1 Q52.5777 1006.36 46.212 1006.36 Q39.8781 1006.36 36.186 1009.1 Q32.4621 1011.83 32.4621 1016.51 M27.4968 1016.51 Q27.4968 1008.87 32.4621 1004.51 Q37.4273 1000.15 46.212 1000.15 Q54.9649 1000.15 59.9619 1004.51 Q64.9272 1008.87 64.9272 1016.51 Q64.9272 1024.18 59.9619 1028.54 Q54.9649 1032.87 46.212 1032.87 Q37.4273 1032.87 32.4621 1028.54 Q27.4968 1024.18 27.4968 1016.51 Z" fill="#000000" fill-rule="nonzero" fill-opacity="1" /><path clip-path="url(#clip080)" d="M35.1993 962.69 Q31.2526 960.494 29.3747 957.439 Q27.4968 954.383 27.4968 950.246 Q27.4968 944.676 31.4117 941.652 Q35.2948 938.628 42.4881 938.628 L64.0042 938.628 L64.0042 944.516 L42.679 944.516 Q37.5546 944.516 35.072 946.331 Q32.5894 948.145 32.5894 951.869 Q32.5894 956.42 35.6131 959.062 Q38.6368 961.704 43.8567 961.704 L64.0042 961.704 L64.0042 967.592 L42.679 967.592 Q37.5228 967.592 35.072 969.406 Q32.5894 971.221 32.5894 975.008 Q32.5894 979.496 35.6449 982.138 Q38.6686 984.779 43.8567 984.779 L64.0042 984.779 L64.0042 990.668 L28.3562 990.668 L28.3562 984.779 L33.8944 984.779 Q30.616 982.774 29.0564 979.973 Q27.4968 977.172 27.4968 973.321 Q27.4968 969.438 29.4702 966.733 Q31.4436 963.995 35.1993 962.69 Z" fill="#000000" fill-rule="nonzero" fill-opacity="1" /><path clip-path="url(#clip080)" d="M58.657 921.282 L77.5631 921.282 L77.5631 927.17 L28.3562 927.17 L28.3562 921.282 L33.7671 921.282 Q30.5842 919.436 29.0564 916.635 Q27.4968 913.802 27.4968 909.887 Q27.4968 903.394 32.6531 899.352 Q37.8093 895.278 46.212 895.278 Q54.6147 895.278 59.771 899.352 Q64.9272 903.394 64.9272 909.887 Q64.9272 913.802 63.3994 916.635 Q61.8398 919.436 58.657 921.282 M46.212 901.357 Q39.7508 901.357 36.0905 904.031 Q32.3984 906.672 32.3984 911.319 Q32.3984 915.966 36.0905 918.64 Q39.7508 921.282 46.212 921.282 Q52.6732 921.282 56.3653 918.64 Q60.0256 915.966 60.0256 911.319 Q60.0256 906.672 56.3653 904.031 Q52.6732 901.357 46.212 901.357 Z" fill="#000000" fill-rule="nonzero" fill-opacity="1" /><path clip-path="url(#clip080)" d="M49.9359 886.175 L28.3562 886.175 L28.3562 880.318 L49.7131 880.318 Q54.7739 880.318 57.3202 878.345 Q59.8346 876.372 59.8346 872.425 Q59.8346 867.682 56.8109 864.945 Q53.7872 862.176 48.5673 862.176 L28.3562 862.176 L28.3562 856.32 L64.0042 856.32 L64.0042 862.176 L58.5296 862.176 Q61.7762 864.308 63.3676 867.141 Q64.9272 869.942 64.9272 873.666 Q64.9272 879.809 61.1078 882.992 Q57.2883 886.175 49.9359 886.175 M27.4968 871.438 L27.4968 871.438 Z" fill="#000000" fill-rule="nonzero" fill-opacity="1" /><path clip-path="url(#clip080)" d="M18.2347 838.464 L28.3562 838.464 L28.3562 826.401 L32.9077 826.401 L32.9077 838.464 L52.2594 838.464 Q56.6199 838.464 57.8613 837.286 Q59.1026 836.077 59.1026 832.416 L59.1026 826.401 L64.0042 826.401 L64.0042 832.416 Q64.0042 839.196 61.4897 841.774 Q58.9434 844.352 52.2594 844.352 L32.9077 844.352 L32.9077 848.649 L28.3562 848.649 L28.3562 844.352 L18.2347 844.352 L18.2347 838.464 Z" fill="#000000" fill-rule="nonzero" fill-opacity="1" /><path clip-path="url(#clip080)" d="M46.0847 802.497 Q46.0847 809.595 47.7079 812.333 Q49.3312 815.07 53.2461 815.07 Q56.3653 815.07 58.2114 813.033 Q60.0256 810.964 60.0256 807.431 Q60.0256 802.561 56.5881 799.633 Q53.1188 796.673 47.3897 796.673 L46.0847 796.673 L46.0847 802.497 M43.6657 790.816 L64.0042 790.816 L64.0042 796.673 L58.5933 796.673 Q61.8398 798.678 63.3994 801.67 Q64.9272 804.662 64.9272 808.991 Q64.9272 814.465 61.8716 817.712 Q58.7843 820.926 53.6281 820.926 Q47.6125 820.926 44.5569 816.916 Q41.5014 812.874 41.5014 804.885 L41.5014 796.673 L40.9285 796.673 Q36.8862 796.673 34.6901 799.346 Q32.4621 801.988 32.4621 806.794 Q32.4621 809.85 33.1941 812.746 Q33.9262 815.643 35.3903 818.316 L29.9795 818.316 Q28.7381 815.102 28.1334 812.078 Q27.4968 809.054 27.4968 806.19 Q27.4968 798.455 31.5072 794.636 Q35.5176 790.816 43.6657 790.816 Z" fill="#000000" fill-rule="nonzero" fill-opacity="1" /><path clip-path="url(#clip080)" d="M18.2347 772.961 L28.3562 772.961 L28.3562 760.898 L32.9077 760.898 L32.9077 772.961 L52.2594 772.961 Q56.6199 772.961 57.8613 771.783 Q59.1026 770.573 59.1026 766.913 L59.1026 760.898 L64.0042 760.898 L64.0042 766.913 Q64.0042 773.693 61.4897 776.271 Q58.9434 778.849 52.2594 778.849 L32.9077 778.849 L32.9077 783.146 L28.3562 783.146 L28.3562 778.849 L18.2347 778.849 L18.2347 772.961 Z" fill="#000000" fill-rule="nonzero" fill-opacity="1" /><path clip-path="url(#clip080)" d="M28.3562 753.195 L28.3562 747.339 L64.0042 747.339 L64.0042 753.195 L28.3562 753.195 M14.479 753.195 L14.479 747.339 L21.895 747.339 L21.895 753.195 L14.479 753.195 Z" fill="#000000" fill-rule="nonzero" fill-opacity="1" /><path clip-path="url(#clip080)" d="M32.4621 721.271 Q32.4621 725.982 36.1542 728.719 Q39.8145 731.456 46.212 731.456 Q52.6095 731.456 56.3017 728.751 Q59.9619 726.014 59.9619 721.271 Q59.9619 716.592 56.2698 713.855 Q52.5777 711.118 46.212 711.118 Q39.8781 711.118 36.186 713.855 Q32.4621 716.592 32.4621 721.271 M27.4968 721.271 Q27.4968 713.632 32.4621 709.272 Q37.4273 704.911 46.212 704.911 Q54.9649 704.911 59.9619 709.272 Q64.9272 713.632 64.9272 721.271 Q64.9272 728.942 59.9619 733.302 Q54.9649 737.631 46.212 737.631 Q37.4273 737.631 32.4621 733.302 Q27.4968 728.942 27.4968 721.271 Z" fill="#000000" fill-rule="nonzero" fill-opacity="1" /><path clip-path="url(#clip080)" d="M42.4881 665.571 L64.0042 665.571 L64.0042 671.428 L42.679 671.428 Q37.6183 671.428 35.1038 673.401 Q32.5894 675.374 32.5894 679.321 Q32.5894 684.064 35.6131 686.801 Q38.6368 689.538 43.8567 689.538 L64.0042 689.538 L64.0042 695.426 L28.3562 695.426 L28.3562 689.538 L33.8944 689.538 Q30.6797 687.437 29.0883 684.605 Q27.4968 681.74 27.4968 678.016 Q27.4968 671.873 31.3163 668.722 Q35.1038 665.571 42.4881 665.571 Z" fill="#000000" fill-rule="nonzero" fill-opacity="1" /><path clip-path="url(#clip080)" d="M18.2347 627.377 L28.3562 627.377 L28.3562 615.314 L32.9077 615.314 L32.9077 627.377 L52.2594 627.377 Q56.6199 627.377 57.8613 626.199 Q59.1026 624.99 59.1026 621.329 L59.1026 615.314 L64.0042 615.314 L64.0042 621.329 Q64.0042 628.109 61.4897 630.687 Q58.9434 633.265 52.2594 633.265 L32.9077 633.265 L32.9077 637.562 L28.3562 637.562 L28.3562 633.265 L18.2347 633.265 L18.2347 627.377 Z" fill="#000000" fill-rule="nonzero" fill-opacity="1" /><path clip-path="url(#clip080)" d="M28.3562 607.611 L28.3562 601.755 L64.0042 601.755 L64.0042 607.611 L28.3562 607.611 M14.479 607.611 L14.479 601.755 L21.895 601.755 L21.895 607.611 L14.479 607.611 Z" fill="#000000" fill-rule="nonzero" fill-opacity="1" /><path clip-path="url(#clip080)" d="M35.1993 561.746 Q31.2526 559.55 29.3747 556.495 Q27.4968 553.439 27.4968 549.302 Q27.4968 543.732 31.4117 540.708 Q35.2948 537.684 42.4881 537.684 L64.0042 537.684 L64.0042 543.572 L42.679 543.572 Q37.5546 543.572 35.072 545.387 Q32.5894 547.201 32.5894 550.925 Q32.5894 555.476 35.6131 558.118 Q38.6368 560.76 43.8567 560.76 L64.0042 560.76 L64.0042 566.648 L42.679 566.648 Q37.5228 566.648 35.072 568.462 Q32.5894 570.277 32.5894 574.064 Q32.5894 578.552 35.6449 581.194 Q38.6686 583.835 43.8567 583.835 L64.0042 583.835 L64.0042 589.724 L28.3562 589.724 L28.3562 583.835 L33.8944 583.835 Q30.616 581.83 29.0564 579.029 Q27.4968 576.228 27.4968 572.377 Q27.4968 568.494 29.4702 565.789 Q31.4436 563.051 35.1993 561.746 Z" fill="#000000" fill-rule="nonzero" fill-opacity="1" /><path clip-path="url(#clip080)" d="M44.7161 495.511 L47.5806 495.511 L47.5806 522.438 Q53.6281 522.056 56.8109 518.81 Q59.9619 515.531 59.9619 509.707 Q59.9619 506.333 59.1344 503.182 Q58.3069 499.999 56.6518 496.88 L62.1899 496.88 Q63.5267 500.031 64.227 503.341 Q64.9272 506.651 64.9272 510.057 Q64.9272 518.587 59.9619 523.584 Q54.9967 528.549 46.5303 528.549 Q37.7774 528.549 32.6531 523.839 Q27.4968 519.096 27.4968 511.075 Q27.4968 503.882 32.1438 499.713 Q36.7589 495.511 44.7161 495.511 M42.9973 501.368 Q38.1912 501.431 35.3266 504.073 Q32.4621 506.683 32.4621 511.012 Q32.4621 515.913 35.2312 518.873 Q38.0002 521.802 43.0292 522.247 L42.9973 501.368 Z" fill="#000000" fill-rule="nonzero" fill-opacity="1" /><path clip-path="url(#clip080)" d="M14.479 465.72 L14.479 452.224 L19.0304 452.224 L19.0304 459.863 L68.0464 459.863 L68.0464 452.224 L72.5979 452.224 L72.5979 465.72 L14.479 465.72 Z" fill="#000000" fill-rule="nonzero" fill-opacity="1" /><path clip-path="url(#clip080)" d="M29.4065 417.022 L34.9447 417.022 Q33.6716 419.505 33.035 422.178 Q32.3984 424.852 32.3984 427.717 Q32.3984 432.077 33.7352 434.273 Q35.072 436.438 37.7456 436.438 Q39.7826 436.438 40.9603 434.878 Q42.1061 433.318 43.1565 428.608 L43.6021 426.603 Q44.9389 420.364 47.3897 417.754 Q49.8086 415.112 54.1691 415.112 Q59.1344 415.112 62.0308 419.059 Q64.9272 422.974 64.9272 429.849 Q64.9272 432.714 64.3543 435.833 Q63.8132 438.92 62.6992 442.358 L56.6518 442.358 Q58.3387 439.111 59.198 435.96 Q60.0256 432.809 60.0256 429.722 Q60.0256 425.584 58.6251 423.356 Q57.1929 421.128 54.6147 421.128 Q52.2276 421.128 50.9545 422.751 Q49.6813 424.343 48.5037 429.785 L48.0262 431.822 Q46.8804 437.265 44.5251 439.684 Q42.138 442.103 38.0002 442.103 Q32.9713 442.103 30.2341 438.538 Q27.4968 434.973 27.4968 428.417 Q27.4968 425.17 27.9743 422.306 Q28.4517 419.441 29.4065 417.022 Z" fill="#000000" fill-rule="nonzero" fill-opacity="1" /><path clip-path="url(#clip080)" d="M14.479 392.1 L72.5979 392.1 L72.5979 405.596 L68.0464 405.596 L68.0464 397.989 L19.0304 397.989 L19.0304 405.596 L14.479 405.596 L14.479 392.1 Z" fill="#000000" fill-rule="nonzero" fill-opacity="1" /><circle clip-path="url(#clip082)" cx="237.067" cy="1379.86" r="14.4" fill="#009af9" fill-rule="evenodd" fill-opacity="1" stroke="#000000" stroke-opacity="1" stroke-width="3.2"/>
<circle clip-path="url(#clip082)" cx="394.259" cy="1367.49" r="14.4" fill="#009af9" fill-rule="evenodd" fill-opacity="1" stroke="#000000" stroke-opacity="1" stroke-width="3.2"/>
<circle clip-path="url(#clip082)" cx="505.788" cy="1377.34" r="14.4" fill="#009af9" fill-rule="evenodd" fill-opacity="1" stroke="#000000" stroke-opacity="1" stroke-width="3.2"/>
<circle clip-path="url(#clip082)" cx="592.297" cy="1378.83" r="14.4" fill="#009af9" fill-rule="evenodd" fill-opacity="1" stroke="#000000" stroke-opacity="1" stroke-width="3.2"/>
<circle clip-path="url(#clip082)" cx="662.98" cy="1376.32" r="14.4" fill="#009af9" fill-rule="evenodd" fill-opacity="1" stroke="#000000" stroke-opacity="1" stroke-width="3.2"/>
<circle clip-path="url(#clip082)" cx="722.742" cy="1376.28" r="14.4" fill="#009af9" fill-rule="evenodd" fill-opacity="1" stroke="#000000" stroke-opacity="1" stroke-width="3.2"/>
<circle clip-path="url(#clip082)" cx="774.51" cy="1374.09" r="14.4" fill="#009af9" fill-rule="evenodd" fill-opacity="1" stroke="#000000" stroke-opacity="1" stroke-width="3.2"/>
<circle clip-path="url(#clip082)" cx="820.172" cy="1374.68" r="14.4" fill="#009af9" fill-rule="evenodd" fill-opacity="1" stroke="#000000" stroke-opacity="1" stroke-width="3.2"/>
<circle clip-path="url(#clip082)" cx="861.019" cy="1372.32" r="14.4" fill="#009af9" fill-rule="evenodd" fill-opacity="1" stroke="#000000" stroke-opacity="1" stroke-width="3.2"/>
<circle clip-path="url(#clip082)" cx="897.969" cy="1371.75" r="14.4" fill="#009af9" fill-rule="evenodd" fill-opacity="1" stroke="#000000" stroke-opacity="1" stroke-width="3.2"/>
<circle clip-path="url(#clip082)" cx="931.702" cy="1372.6" r="14.4" fill="#009af9" fill-rule="evenodd" fill-opacity="1" stroke="#000000" stroke-opacity="1" stroke-width="3.2"/>
<circle clip-path="url(#clip082)" cx="962.733" cy="1370.84" r="14.4" fill="#009af9" fill-rule="evenodd" fill-opacity="1" stroke="#000000" stroke-opacity="1" stroke-width="3.2"/>
<circle clip-path="url(#clip082)" cx="991.463" cy="1368.4" r="14.4" fill="#009af9" fill-rule="evenodd" fill-opacity="1" stroke="#000000" stroke-opacity="1" stroke-width="3.2"/>
<circle clip-path="url(#clip082)" cx="1018.21" cy="1369.45" r="14.4" fill="#009af9" fill-rule="evenodd" fill-opacity="1" stroke="#000000" stroke-opacity="1" stroke-width="3.2"/>
<circle clip-path="url(#clip082)" cx="1043.23" cy="1368.4" r="14.4" fill="#009af9" fill-rule="evenodd" fill-opacity="1" stroke="#000000" stroke-opacity="1" stroke-width="3.2"/>
<circle clip-path="url(#clip082)" cx="1066.73" cy="1366.95" r="14.4" fill="#009af9" fill-rule="evenodd" fill-opacity="1" stroke="#000000" stroke-opacity="1" stroke-width="3.2"/>
<circle clip-path="url(#clip082)" cx="1088.89" cy="1370.22" r="14.4" fill="#009af9" fill-rule="evenodd" fill-opacity="1" stroke="#000000" stroke-opacity="1" stroke-width="3.2"/>
<circle clip-path="url(#clip082)" cx="1109.85" cy="1364.59" r="14.4" fill="#009af9" fill-rule="evenodd" fill-opacity="1" stroke="#000000" stroke-opacity="1" stroke-width="3.2"/>
<circle clip-path="url(#clip082)" cx="1129.74" cy="1364.91" r="14.4" fill="#009af9" fill-rule="evenodd" fill-opacity="1" stroke="#000000" stroke-opacity="1" stroke-width="3.2"/>
<circle clip-path="url(#clip082)" cx="1200.42" cy="1357.69" r="14.4" fill="#009af9" fill-rule="evenodd" fill-opacity="1" stroke="#000000" stroke-opacity="1" stroke-width="3.2"/>
<circle clip-path="url(#clip082)" cx="1260.18" cy="1355.94" r="14.4" fill="#009af9" fill-rule="evenodd" fill-opacity="1" stroke="#000000" stroke-opacity="1" stroke-width="3.2"/>
<circle clip-path="url(#clip082)" cx="1311.95" cy="1352.14" r="14.4" fill="#009af9" fill-rule="evenodd" fill-opacity="1" stroke="#000000" stroke-opacity="1" stroke-width="3.2"/>
<circle clip-path="url(#clip082)" cx="1357.61" cy="1349.78" r="14.4" fill="#009af9" fill-rule="evenodd" fill-opacity="1" stroke="#000000" stroke-opacity="1" stroke-width="3.2"/>
<circle clip-path="url(#clip082)" cx="1398.46" cy="1344" r="14.4" fill="#009af9" fill-rule="evenodd" fill-opacity="1" stroke="#000000" stroke-opacity="1" stroke-width="3.2"/>
<circle clip-path="url(#clip082)" cx="1435.41" cy="1341.47" r="14.4" fill="#009af9" fill-rule="evenodd" fill-opacity="1" stroke="#000000" stroke-opacity="1" stroke-width="3.2"/>
<circle clip-path="url(#clip082)" cx="1469.14" cy="1336.14" r="14.4" fill="#009af9" fill-rule="evenodd" fill-opacity="1" stroke="#000000" stroke-opacity="1" stroke-width="3.2"/>
<circle clip-path="url(#clip082)" cx="1500.18" cy="1331.12" r="14.4" fill="#009af9" fill-rule="evenodd" fill-opacity="1" stroke="#000000" stroke-opacity="1" stroke-width="3.2"/>
<circle clip-path="url(#clip082)" cx="1528.91" cy="1326.14" r="14.4" fill="#009af9" fill-rule="evenodd" fill-opacity="1" stroke="#000000" stroke-opacity="1" stroke-width="3.2"/>
<circle clip-path="url(#clip082)" cx="1555.65" cy="1321.65" r="14.4" fill="#009af9" fill-rule="evenodd" fill-opacity="1" stroke="#000000" stroke-opacity="1" stroke-width="3.2"/>
<circle clip-path="url(#clip082)" cx="1615.41" cy="1311.25" r="14.4" fill="#009af9" fill-rule="evenodd" fill-opacity="1" stroke="#000000" stroke-opacity="1" stroke-width="3.2"/>
<circle clip-path="url(#clip082)" cx="1667.18" cy="1275.68" r="14.4" fill="#009af9" fill-rule="evenodd" fill-opacity="1" stroke="#000000" stroke-opacity="1" stroke-width="3.2"/>
<circle clip-path="url(#clip082)" cx="1712.84" cy="1275.01" r="14.4" fill="#009af9" fill-rule="evenodd" fill-opacity="1" stroke="#000000" stroke-opacity="1" stroke-width="3.2"/>
<circle clip-path="url(#clip082)" cx="1753.69" cy="1257.29" r="14.4" fill="#009af9" fill-rule="evenodd" fill-opacity="1" stroke="#000000" stroke-opacity="1" stroke-width="3.2"/>
<circle clip-path="url(#clip082)" cx="1824.37" cy="1209.88" r="14.4" fill="#009af9" fill-rule="evenodd" fill-opacity="1" stroke="#000000" stroke-opacity="1" stroke-width="3.2"/>
<circle clip-path="url(#clip082)" cx="1884.14" cy="1165.36" r="14.4" fill="#009af9" fill-rule="evenodd" fill-opacity="1" stroke="#000000" stroke-opacity="1" stroke-width="3.2"/>
<circle clip-path="url(#clip082)" cx="1935.9" cy="1098.14" r="14.4" fill="#009af9" fill-rule="evenodd" fill-opacity="1" stroke="#000000" stroke-opacity="1" stroke-width="3.2"/>
<circle clip-path="url(#clip082)" cx="1981.57" cy="1020.17" r="14.4" fill="#009af9" fill-rule="evenodd" fill-opacity="1" stroke="#000000" stroke-opacity="1" stroke-width="3.2"/>
<circle clip-path="url(#clip082)" cx="2022.41" cy="925.344" r="14.4" fill="#009af9" fill-rule="evenodd" fill-opacity="1" stroke="#000000" stroke-opacity="1" stroke-width="3.2"/>
<circle clip-path="url(#clip082)" cx="2179.6" cy="553.321" r="14.4" fill="#009af9" fill-rule="evenodd" fill-opacity="1" stroke="#000000" stroke-opacity="1" stroke-width="3.2"/>
<circle clip-path="url(#clip082)" cx="2291.13" cy="112.136" r="14.4" fill="#009af9" fill-rule="evenodd" fill-opacity="1" stroke="#000000" stroke-opacity="1" stroke-width="3.2"/>
<polyline clip-path="url(#clip082)" style="stroke:#20b2aa; stroke-linecap:round; stroke-linejoin:round; stroke-width:8; stroke-opacity:1; fill:none" stroke-dasharray="4, 8" points="237.067,1384.24 394.259,1383.32 505.788,1382.38 592.297,1381.44 662.98,1380.48 722.742,1379.51 774.51,1378.53 820.172,1377.54 861.019,1376.53 897.969,1375.51 931.702,1374.49 962.733,1373.45 991.463,1372.39 1018.21,1371.33 1043.23,1370.25 1066.73,1369.17 1088.89,1368.07 1109.85,1366.96 1129.74,1365.84 1200.42,1361.23 1260.18,1356.43 1311.95,1351.45 1357.61,1346.27 1398.46,1340.91 1435.41,1335.36 1469.14,1329.62 1500.18,1323.69 1528.91,1317.57 1555.65,1311.27 1615.41,1294.68 1667.18,1276.92 1712.84,1257.97 1753.69,1237.85 1824.37,1194.07 1884.14,1145.57 1935.9,1092.36 1981.57,1034.44 2022.41,971.805 2179.6,587.917 2291.13,86.1857 "/>
<path clip-path="url(#clip080)" d="M248.022 196.789 L1841.06 196.789 L1841.06 93.1086 L248.022 93.1086  Z" fill="#ffffff" fill-rule="evenodd" fill-opacity="1"/>
<polyline clip-path="url(#clip080)" style="stroke:#000000; stroke-linecap:round; stroke-linejoin:round; stroke-width:4; stroke-opacity:1; fill:none" points="248.022,196.789 1841.06,196.789 1841.06,93.1086 248.022,93.1086 248.022,196.789 "/>
<polyline clip-path="url(#clip080)" style="stroke:#20b2aa; stroke-linecap:round; stroke-linejoin:round; stroke-width:8; stroke-opacity:1; fill:none" stroke-dasharray="4, 8" points="272.215,144.949 417.369,144.949 "/>
<path clip-path="url(#clip080)" d="M441.561 123.766 L470.797 123.766 L470.797 127.701 L458.528 127.701 L458.528 158.326 L453.829 158.326 L453.829 127.701 L441.561 127.701 L441.561 123.766 Z" fill="#000000" fill-rule="nonzero" fill-opacity="1" /><path clip-path="url(#clip080)" d="M473.667 132.4 L477.927 132.4 L477.927 158.326 L473.667 158.326 L473.667 132.4 M473.667 122.307 L477.927 122.307 L477.927 127.701 L473.667 127.701 L473.667 122.307 Z" fill="#000000" fill-rule="nonzero" fill-opacity="1" /><path clip-path="url(#clip080)" d="M507.024 137.377 Q508.621 134.506 510.843 133.141 Q513.065 131.775 516.074 131.775 Q520.125 131.775 522.324 134.622 Q524.523 137.446 524.523 142.678 L524.523 158.326 L520.241 158.326 L520.241 142.816 Q520.241 139.09 518.922 137.284 Q517.602 135.478 514.894 135.478 Q511.584 135.478 509.662 137.678 Q507.741 139.877 507.741 143.673 L507.741 158.326 L503.459 158.326 L503.459 142.816 Q503.459 139.066 502.139 137.284 Q500.82 135.478 498.065 135.478 Q494.801 135.478 492.88 137.701 Q490.959 139.9 490.959 143.673 L490.959 158.326 L486.676 158.326 L486.676 132.4 L490.959 132.4 L490.959 136.428 Q492.417 134.043 494.454 132.909 Q496.491 131.775 499.292 131.775 Q502.116 131.775 504.084 133.21 Q506.075 134.645 507.024 137.377 Z" fill="#000000" fill-rule="nonzero" fill-opacity="1" /><path clip-path="url(#clip080)" d="M555.195 144.298 L555.195 146.381 L535.611 146.381 Q535.889 150.779 538.25 153.094 Q540.635 155.386 544.871 155.386 Q547.324 155.386 549.616 154.784 Q551.931 154.182 554.199 152.978 L554.199 157.006 Q551.908 157.978 549.5 158.488 Q547.093 158.997 544.616 158.997 Q538.412 158.997 534.778 155.386 Q531.167 151.775 531.167 145.617 Q531.167 139.252 534.593 135.525 Q538.042 131.775 543.875 131.775 Q549.107 131.775 552.139 135.154 Q555.195 138.511 555.195 144.298 M550.935 143.048 Q550.889 139.553 548.968 137.469 Q547.07 135.386 543.922 135.386 Q540.357 135.386 538.204 137.4 Q536.074 139.414 535.75 143.071 L550.935 143.048 Z" fill="#000000" fill-rule="nonzero" fill-opacity="1" /><path clip-path="url(#clip080)" d="M576.861 122.307 L586.676 122.307 L586.676 125.617 L581.12 125.617 L581.12 161.265 L586.676 161.265 L586.676 164.576 L576.861 164.576 L576.861 122.307 Z" fill="#000000" fill-rule="nonzero" fill-opacity="1" /><path clip-path="url(#clip080)" d="M612.278 133.164 L612.278 137.191 Q610.472 136.266 608.528 135.803 Q606.583 135.34 604.5 135.34 Q601.329 135.34 599.731 136.312 Q598.157 137.284 598.157 139.228 Q598.157 140.71 599.292 141.566 Q600.426 142.4 603.852 143.164 L605.31 143.488 Q609.847 144.46 611.745 146.242 Q613.667 148.002 613.667 151.173 Q613.667 154.784 610.796 156.89 Q607.949 158.997 602.949 158.997 Q600.866 158.997 598.597 158.58 Q596.352 158.187 593.852 157.377 L593.852 152.978 Q596.213 154.205 598.505 154.83 Q600.796 155.432 603.042 155.432 Q606.051 155.432 607.671 154.414 Q609.292 153.372 609.292 151.497 Q609.292 149.761 608.111 148.835 Q606.954 147.909 602.995 147.052 L601.514 146.705 Q597.555 145.872 595.796 144.159 Q594.037 142.423 594.037 139.414 Q594.037 135.756 596.63 133.766 Q599.222 131.775 603.991 131.775 Q606.352 131.775 608.435 132.122 Q610.518 132.469 612.278 133.164 Z" fill="#000000" fill-rule="nonzero" fill-opacity="1" /><path clip-path="url(#clip080)" d="M630.403 122.307 L630.403 164.576 L620.588 164.576 L620.588 161.265 L626.12 161.265 L626.12 125.617 L620.588 125.617 L620.588 122.307 L630.403 122.307 Z" fill="#000000" fill-rule="nonzero" fill-opacity="1" /><path clip-path="url(#clip080)" d="M654.569 136.798 L684.245 136.798 L684.245 140.687 L654.569 140.687 L654.569 136.798 M654.569 146.242 L684.245 146.242 L684.245 150.177 L654.569 150.177 L654.569 146.242 Z" fill="#000000" fill-rule="nonzero" fill-opacity="1" /><path clip-path="url(#clip080)" d="M710.217 154.39 L717.856 154.39 L717.856 128.025 L709.546 129.691 L709.546 125.432 L717.809 123.766 L722.485 123.766 L722.485 154.39 L730.124 154.39 L730.124 158.326 L710.217 158.326 L710.217 154.39 Z" fill="#000000" fill-rule="nonzero" fill-opacity="1" /><path clip-path="url(#clip080)" d="M739.569 152.446 L744.453 152.446 L744.453 158.326 L739.569 158.326 L739.569 152.446 Z" fill="#000000" fill-rule="nonzero" fill-opacity="1" /><path clip-path="url(#clip080)" d="M764.638 126.844 Q761.027 126.844 759.198 130.409 Q757.393 133.951 757.393 141.08 Q757.393 148.187 759.198 151.752 Q761.027 155.293 764.638 155.293 Q768.272 155.293 770.078 151.752 Q771.906 148.187 771.906 141.08 Q771.906 133.951 770.078 130.409 Q768.272 126.844 764.638 126.844 M764.638 123.141 Q770.448 123.141 773.504 127.747 Q776.582 132.33 776.582 141.08 Q776.582 149.807 773.504 154.414 Q770.448 158.997 764.638 158.997 Q758.828 158.997 755.749 154.414 Q752.694 149.807 752.694 141.08 Q752.694 132.33 755.749 127.747 Q758.828 123.141 764.638 123.141 Z" fill="#000000" fill-rule="nonzero" fill-opacity="1" /><path clip-path="url(#clip080)" d="M795.379 139.182 Q792.23 139.182 790.379 141.335 Q788.55 143.488 788.55 147.238 Q788.55 150.965 790.379 153.14 Q792.23 155.293 795.379 155.293 Q798.527 155.293 800.355 153.14 Q802.207 150.965 802.207 147.238 Q802.207 143.488 800.355 141.335 Q798.527 139.182 795.379 139.182 M804.661 124.529 L804.661 128.789 Q802.902 127.955 801.096 127.516 Q799.314 127.076 797.554 127.076 Q792.925 127.076 790.471 130.201 Q788.041 133.326 787.693 139.645 Q789.059 137.631 791.119 136.566 Q793.179 135.478 795.656 135.478 Q800.865 135.478 803.874 138.65 Q806.906 141.798 806.906 147.238 Q806.906 152.562 803.758 155.779 Q800.61 158.997 795.379 158.997 Q789.383 158.997 786.212 154.414 Q783.041 149.807 783.041 141.08 Q783.041 132.886 786.929 128.025 Q790.818 123.141 797.369 123.141 Q799.128 123.141 800.911 123.488 Q802.716 123.835 804.661 124.529 Z" fill="#000000" fill-rule="nonzero" fill-opacity="1" /><path clip-path="url(#clip080)" d="M836.536 144.298 L836.536 146.381 L816.952 146.381 Q817.23 150.779 819.591 153.094 Q821.976 155.386 826.212 155.386 Q828.665 155.386 830.957 154.784 Q833.272 154.182 835.54 152.978 L835.54 157.006 Q833.249 157.978 830.841 158.488 Q828.434 158.997 825.957 158.997 Q819.753 158.997 816.119 155.386 Q812.508 151.775 812.508 145.617 Q812.508 139.252 815.934 135.525 Q819.383 131.775 825.216 131.775 Q830.448 131.775 833.48 135.154 Q836.536 138.511 836.536 144.298 M832.276 143.048 Q832.23 139.553 830.309 137.469 Q828.411 135.386 825.263 135.386 Q821.698 135.386 819.545 137.4 Q817.415 139.414 817.091 143.071 L832.276 143.048 Z" fill="#000000" fill-rule="nonzero" fill-opacity="1" /><path clip-path="url(#clip080)" d="M841.374 143.441 L853.85 143.441 L853.85 147.238 L841.374 147.238 L841.374 143.441 Z" fill="#000000" fill-rule="nonzero" fill-opacity="1" /><path clip-path="url(#clip080)" d="M871.235 126.844 Q867.623 126.844 865.795 130.409 Q863.989 133.951 863.989 141.08 Q863.989 148.187 865.795 151.752 Q867.623 155.293 871.235 155.293 Q874.869 155.293 876.674 151.752 Q878.503 148.187 878.503 141.08 Q878.503 133.951 876.674 130.409 Q874.869 126.844 871.235 126.844 M871.235 123.141 Q877.045 123.141 880.1 127.747 Q883.179 132.33 883.179 141.08 Q883.179 149.807 880.1 154.414 Q877.045 158.997 871.235 158.997 Q865.424 158.997 862.346 154.414 Q859.29 149.807 859.29 141.08 Q859.29 132.33 862.346 127.747 Q865.424 123.141 871.235 123.141 Z" fill="#000000" fill-rule="nonzero" fill-opacity="1" /><path clip-path="url(#clip080)" d="M901.975 139.182 Q898.827 139.182 896.975 141.335 Q895.146 143.488 895.146 147.238 Q895.146 150.965 896.975 153.14 Q898.827 155.293 901.975 155.293 Q905.123 155.293 906.952 153.14 Q908.804 150.965 908.804 147.238 Q908.804 143.488 906.952 141.335 Q905.123 139.182 901.975 139.182 M911.258 124.529 L911.258 128.789 Q909.498 127.955 907.693 127.516 Q905.91 127.076 904.151 127.076 Q899.521 127.076 897.068 130.201 Q894.637 133.326 894.29 139.645 Q895.656 137.631 897.716 136.566 Q899.776 135.478 902.253 135.478 Q907.461 135.478 910.47 138.65 Q913.503 141.798 913.503 147.238 Q913.503 152.562 910.355 155.779 Q907.207 158.997 901.975 158.997 Q895.98 158.997 892.809 154.414 Q889.637 149.807 889.637 141.08 Q889.637 132.886 893.526 128.025 Q897.415 123.141 903.966 123.141 Q905.725 123.141 907.508 123.488 Q909.313 123.835 911.258 124.529 Z" fill="#000000" fill-rule="nonzero" fill-opacity="1" /><path clip-path="url(#clip080)" d="M935.632 122.307 L945.447 122.307 L945.447 125.617 L939.892 125.617 L939.892 161.265 L945.447 161.265 L945.447 164.576 L935.632 164.576 L935.632 122.307 Z" fill="#000000" fill-rule="nonzero" fill-opacity="1" /><path clip-path="url(#clip080)" d="M971.049 133.164 L971.049 137.191 Q969.243 136.266 967.299 135.803 Q965.354 135.34 963.271 135.34 Q960.1 135.34 958.503 136.312 Q956.929 137.284 956.929 139.228 Q956.929 140.71 958.063 141.566 Q959.197 142.4 962.623 143.164 L964.081 143.488 Q968.618 144.46 970.516 146.242 Q972.438 148.002 972.438 151.173 Q972.438 154.784 969.567 156.89 Q966.72 158.997 961.72 158.997 Q959.637 158.997 957.368 158.58 Q955.123 158.187 952.623 157.377 L952.623 152.978 Q954.984 154.205 957.276 154.83 Q959.567 155.432 961.813 155.432 Q964.822 155.432 966.442 154.414 Q968.063 153.372 968.063 151.497 Q968.063 149.761 966.882 148.835 Q965.725 147.909 961.767 147.052 L960.285 146.705 Q956.327 145.872 954.567 144.159 Q952.808 142.423 952.808 139.414 Q952.808 135.756 955.401 133.766 Q957.993 131.775 962.762 131.775 Q965.123 131.775 967.206 132.122 Q969.29 132.469 971.049 133.164 Z" fill="#000000" fill-rule="nonzero" fill-opacity="1" /><path clip-path="url(#clip080)" d="M989.174 122.307 L989.174 164.576 L979.359 164.576 L979.359 161.265 L984.891 161.265 L984.891 125.617 L979.359 125.617 L979.359 122.307 L989.174 122.307 Z" fill="#000000" fill-rule="nonzero" fill-opacity="1" /><path clip-path="url(#clip080)" d="M1016.04 137.831 Q1016.2 137.995 1016.2 138.229 Q1016.2 138.463 1015.66 139.002 L1004.26 151.791 Q1008.61 167.109 1011 167.109 Q1011.73 167.109 1012.48 166.547 Q1013.25 166.008 1013.56 165.188 Q1013.67 164.79 1013.79 164.65 Q1013.91 164.509 1014.24 164.509 Q1014.8 164.509 1014.8 165.048 Q1014.8 165.329 1014.54 165.797 Q1014.28 166.289 1013.81 166.828 Q1013.35 167.39 1012.53 167.765 Q1011.71 168.163 1010.72 168.163 Q1009.5 168.163 1008.52 167.882 Q1007.54 167.601 1006.97 167.25 Q1006.41 166.898 1005.9 166.266 Q1005.41 165.657 1005.22 165.282 Q1005.05 164.931 1004.77 164.322 Q1004.21 163.01 1003.7 161.558 Q1003.18 160.106 1002.85 159.052 Q1002.52 157.998 1001.52 154.765 L990.532 167.109 Q990.017 167.624 989.759 167.624 Q989.549 167.624 989.361 167.437 Q989.174 167.273 989.174 167.062 Q989.174 166.828 989.712 166.289 L1000.74 153.969 Q1000.91 153.805 1001 153.665 Q1001.1 153.524 1001.1 153.477 L1001.12 153.43 Q1001.12 153.313 1000.7 151.814 Q1000.28 150.315 999.503 147.996 Q998.754 145.654 998.051 143.944 Q997.606 142.796 997.301 142.094 Q996.997 141.391 996.458 140.337 Q995.943 139.283 995.404 138.744 Q994.865 138.182 994.374 138.182 Q994.21 138.182 993.952 138.253 Q993.694 138.323 993.273 138.51 Q992.875 138.674 992.476 139.143 Q992.078 139.588 991.821 140.243 Q991.61 140.759 991.212 140.759 Q990.954 140.759 990.79 140.642 Q990.649 140.525 990.649 140.407 L990.626 140.29 Q990.626 139.869 991.024 139.166 Q991.422 138.463 992.406 137.808 Q993.39 137.128 994.655 137.128 Q995.849 137.128 996.833 137.409 Q997.817 137.69 998.355 138.018 Q998.918 138.346 999.409 138.955 Q999.901 139.541 1000.04 139.822 Q1000.21 140.079 1000.46 140.618 Q1001.26 142.445 1001.78 144.014 Q1002.31 145.56 1003.86 150.456 L1014.84 138.229 Q1015.34 137.644 1015.62 137.644 Q1015.88 137.644 1016.04 137.831 Z" fill="#000000" fill-rule="nonzero" fill-opacity="1" /><path clip-path="url(#clip080)" d="M1021.06 143.986 Q1021.06 143.379 1021.11 143.199 Q1021.17 143.018 1021.44 142.74 L1027.88 135.558 Q1031.41 131.591 1031.41 128.131 Q1031.41 125.885 1030.22 124.278 Q1029.06 122.671 1026.91 122.671 Q1025.44 122.671 1024.19 123.573 Q1022.94 124.475 1022.37 126.082 Q1022.47 126.049 1022.81 126.049 Q1023.65 126.049 1024.11 126.573 Q1024.58 127.098 1024.58 127.803 Q1024.58 128.705 1023.99 129.148 Q1023.42 129.574 1022.85 129.574 Q1022.62 129.574 1022.31 129.525 Q1022.01 129.476 1021.53 129.016 Q1021.06 128.541 1021.06 127.705 Q1021.06 125.36 1022.83 123.491 Q1024.62 121.622 1027.34 121.622 Q1030.42 121.622 1032.44 123.458 Q1034.47 125.278 1034.47 128.131 Q1034.47 129.131 1034.16 130.049 Q1033.86 130.951 1033.45 131.656 Q1033.06 132.361 1031.98 133.492 Q1030.9 134.624 1030.03 135.427 Q1029.16 136.231 1027.21 137.936 L1023.65 141.395 L1029.7 141.395 Q1032.65 141.395 1032.88 141.133 Q1033.21 140.657 1033.62 138.149 L1034.47 138.149 L1033.52 143.986 L1021.06 143.986 Z" fill="#000000" fill-rule="nonzero" fill-opacity="1" /><path clip-path="url(#clip080)" d="M1076.33 128.604 L1076.33 141.497 L1089.23 141.497 L1089.23 145.432 L1076.33 145.432 L1076.33 158.326 L1072.44 158.326 L1072.44 145.432 L1059.55 145.432 L1059.55 141.497 L1072.44 141.497 L1072.44 128.604 L1076.33 128.604 Z" fill="#000000" fill-rule="nonzero" fill-opacity="1" /><path clip-path="url(#clip080)" d="M1124.39 141.914 Q1121.05 141.914 1119.13 143.696 Q1117.23 145.478 1117.23 148.603 Q1117.23 151.728 1119.13 153.511 Q1121.05 155.293 1124.39 155.293 Q1127.72 155.293 1129.64 153.511 Q1131.56 151.705 1131.56 148.603 Q1131.56 145.478 1129.64 143.696 Q1127.74 141.914 1124.39 141.914 M1119.71 139.923 Q1116.7 139.182 1115.01 137.122 Q1113.35 135.062 1113.35 132.099 Q1113.35 127.955 1116.29 125.548 Q1119.25 123.141 1124.39 123.141 Q1129.55 123.141 1132.49 125.548 Q1135.43 127.955 1135.43 132.099 Q1135.43 135.062 1133.74 137.122 Q1132.07 139.182 1129.09 139.923 Q1132.47 140.71 1134.34 143.002 Q1136.24 145.293 1136.24 148.603 Q1136.24 153.627 1133.16 156.312 Q1130.11 158.997 1124.39 158.997 Q1118.67 158.997 1115.59 156.312 Q1112.54 153.627 1112.54 148.603 Q1112.54 145.293 1114.43 143.002 Q1116.33 140.71 1119.71 139.923 M1118 132.539 Q1118 135.224 1119.67 136.728 Q1121.36 138.233 1124.39 138.233 Q1127.4 138.233 1129.09 136.728 Q1130.8 135.224 1130.8 132.539 Q1130.8 129.854 1129.09 128.349 Q1127.4 126.844 1124.39 126.844 Q1121.36 126.844 1119.67 128.349 Q1118 129.854 1118 132.539 Z" fill="#000000" fill-rule="nonzero" fill-opacity="1" /><path clip-path="url(#clip080)" d="M1144.55 152.446 L1149.43 152.446 L1149.43 158.326 L1144.55 158.326 L1144.55 152.446 Z" fill="#000000" fill-rule="nonzero" fill-opacity="1" /><path clip-path="url(#clip080)" d="M1169.62 126.844 Q1166.01 126.844 1164.18 130.409 Q1162.37 133.951 1162.37 141.08 Q1162.37 148.187 1164.18 151.752 Q1166.01 155.293 1169.62 155.293 Q1173.25 155.293 1175.06 151.752 Q1176.89 148.187 1176.89 141.08 Q1176.89 133.951 1175.06 130.409 Q1173.25 126.844 1169.62 126.844 M1169.62 123.141 Q1175.43 123.141 1178.48 127.747 Q1181.56 132.33 1181.56 141.08 Q1181.56 149.807 1178.48 154.414 Q1175.43 158.997 1169.62 158.997 Q1163.81 158.997 1160.73 154.414 Q1157.67 149.807 1157.67 141.08 Q1157.67 132.33 1160.73 127.747 Q1163.81 123.141 1169.62 123.141 Z" fill="#000000" fill-rule="nonzero" fill-opacity="1" /><path clip-path="url(#clip080)" d="M1189.83 123.766 L1208.18 123.766 L1208.18 127.701 L1194.11 127.701 L1194.11 136.173 Q1195.13 135.826 1196.15 135.664 Q1197.17 135.478 1198.18 135.478 Q1203.97 135.478 1207.35 138.65 Q1210.73 141.821 1210.73 147.238 Q1210.73 152.816 1207.26 155.918 Q1203.79 158.997 1197.47 158.997 Q1195.29 158.997 1193.02 158.626 Q1190.78 158.256 1188.37 157.515 L1188.37 152.816 Q1190.45 153.951 1192.67 154.506 Q1194.9 155.062 1197.37 155.062 Q1201.38 155.062 1203.72 152.955 Q1206.05 150.849 1206.05 147.238 Q1206.05 143.627 1203.72 141.52 Q1201.38 139.414 1197.37 139.414 Q1195.5 139.414 1193.62 139.83 Q1191.77 140.247 1189.83 141.127 L1189.83 123.766 Z" fill="#000000" fill-rule="nonzero" fill-opacity="1" /><path clip-path="url(#clip080)" d="M1241.52 144.298 L1241.52 146.381 L1221.93 146.381 Q1222.21 150.779 1224.57 153.094 Q1226.96 155.386 1231.19 155.386 Q1233.65 155.386 1235.94 154.784 Q1238.25 154.182 1240.52 152.978 L1240.52 157.006 Q1238.23 157.978 1235.82 158.488 Q1233.41 158.997 1230.94 158.997 Q1224.73 158.997 1221.1 155.386 Q1217.49 151.775 1217.49 145.617 Q1217.49 139.252 1220.91 135.525 Q1224.36 131.775 1230.2 131.775 Q1235.43 131.775 1238.46 135.154 Q1241.52 138.511 1241.52 144.298 M1237.26 143.048 Q1237.21 139.553 1235.29 137.469 Q1233.39 135.386 1230.24 135.386 Q1226.68 135.386 1224.53 137.4 Q1222.4 139.414 1222.07 143.071 L1237.26 143.048 Z" fill="#000000" fill-rule="nonzero" fill-opacity="1" /><path clip-path="url(#clip080)" d="M1246.35 143.441 L1258.83 143.441 L1258.83 147.238 L1246.35 147.238 L1246.35 143.441 Z" fill="#000000" fill-rule="nonzero" fill-opacity="1" /><path clip-path="url(#clip080)" d="M1276.22 126.844 Q1272.6 126.844 1270.78 130.409 Q1268.97 133.951 1268.97 141.08 Q1268.97 148.187 1270.78 151.752 Q1272.6 155.293 1276.22 155.293 Q1279.85 155.293 1281.66 151.752 Q1283.48 148.187 1283.48 141.08 Q1283.48 133.951 1281.66 130.409 Q1279.85 126.844 1276.22 126.844 M1276.22 123.141 Q1282.03 123.141 1285.08 127.747 Q1288.16 132.33 1288.16 141.08 Q1288.16 149.807 1285.08 154.414 Q1282.03 158.997 1276.22 158.997 Q1270.41 158.997 1267.33 154.414 Q1264.27 149.807 1264.27 141.08 Q1264.27 132.33 1267.33 127.747 Q1270.41 123.141 1276.22 123.141 Z" fill="#000000" fill-rule="nonzero" fill-opacity="1" /><path clip-path="url(#clip080)" d="M1309.22 127.84 L1297.42 146.289 L1309.22 146.289 L1309.22 127.84 M1308 123.766 L1313.88 123.766 L1313.88 146.289 L1318.81 146.289 L1318.81 150.177 L1313.88 150.177 L1313.88 158.326 L1309.22 158.326 L1309.22 150.177 L1293.62 150.177 L1293.62 145.664 L1308 123.766 Z" fill="#000000" fill-rule="nonzero" fill-opacity="1" /><path clip-path="url(#clip080)" d="M1340.61 122.307 L1350.43 122.307 L1350.43 125.617 L1344.87 125.617 L1344.87 161.265 L1350.43 161.265 L1350.43 164.576 L1340.61 164.576 L1340.61 122.307 Z" fill="#000000" fill-rule="nonzero" fill-opacity="1" /><path clip-path="url(#clip080)" d="M1376.03 133.164 L1376.03 137.191 Q1374.22 136.266 1372.28 135.803 Q1370.34 135.34 1368.25 135.34 Q1365.08 135.34 1363.48 136.312 Q1361.91 137.284 1361.91 139.228 Q1361.91 140.71 1363.04 141.566 Q1364.18 142.4 1367.6 143.164 L1369.06 143.488 Q1373.6 144.46 1375.5 146.242 Q1377.42 148.002 1377.42 151.173 Q1377.42 154.784 1374.55 156.89 Q1371.7 158.997 1366.7 158.997 Q1364.62 158.997 1362.35 158.58 Q1360.1 158.187 1357.6 157.377 L1357.6 152.978 Q1359.97 154.205 1362.26 154.83 Q1364.55 155.432 1366.79 155.432 Q1369.8 155.432 1371.42 154.414 Q1373.04 153.372 1373.04 151.497 Q1373.04 149.761 1371.86 148.835 Q1370.71 147.909 1366.75 147.052 L1365.27 146.705 Q1361.31 145.872 1359.55 144.159 Q1357.79 142.423 1357.79 139.414 Q1357.79 135.756 1360.38 133.766 Q1362.97 131.775 1367.74 131.775 Q1370.1 131.775 1372.19 132.122 Q1374.27 132.469 1376.03 133.164 Z" fill="#000000" fill-rule="nonzero" fill-opacity="1" /><path clip-path="url(#clip080)" d="M1394.15 122.307 L1394.15 164.576 L1384.34 164.576 L1384.34 161.265 L1389.87 161.265 L1389.87 125.617 L1384.34 125.617 L1384.34 122.307 L1394.15 122.307 Z" fill="#000000" fill-rule="nonzero" fill-opacity="1" /><path clip-path="url(#clip080)" d="M1440.16 130.079 Q1440.33 130.243 1440.33 130.477 Q1440.33 130.711 1439.79 131.25 L1428.38 144.039 Q1432.74 159.357 1435.13 159.357 Q1435.85 159.357 1436.6 158.795 Q1437.38 158.256 1437.68 157.436 Q1437.8 157.038 1437.92 156.898 Q1438.03 156.757 1438.36 156.757 Q1438.92 156.757 1438.92 157.296 Q1438.92 157.577 1438.66 158.045 Q1438.41 158.537 1437.94 159.076 Q1437.47 159.638 1436.65 160.013 Q1435.83 160.411 1434.85 160.411 Q1433.63 160.411 1432.65 160.13 Q1431.66 159.849 1431.1 159.498 Q1430.54 159.146 1430.02 158.514 Q1429.53 157.905 1429.34 157.53 Q1429.18 157.179 1428.9 156.57 Q1428.34 155.258 1427.82 153.806 Q1427.3 152.354 1426.98 151.3 Q1426.65 150.246 1425.64 147.013 L1414.66 159.357 Q1414.14 159.872 1413.88 159.872 Q1413.67 159.872 1413.49 159.685 Q1413.3 159.521 1413.3 159.31 Q1413.3 159.076 1413.84 158.537 L1424.87 146.217 Q1425.03 146.053 1425.13 145.913 Q1425.22 145.772 1425.22 145.725 L1425.24 145.678 Q1425.24 145.561 1424.82 144.062 Q1424.4 142.563 1423.63 140.244 Q1422.88 137.902 1422.18 136.192 Q1421.73 135.045 1421.43 134.342 Q1421.12 133.639 1420.58 132.585 Q1420.07 131.531 1419.53 130.992 Q1418.99 130.43 1418.5 130.43 Q1418.33 130.43 1418.08 130.501 Q1417.82 130.571 1417.4 130.758 Q1417 130.922 1416.6 131.391 Q1416.2 131.836 1415.94 132.491 Q1415.73 133.007 1415.34 133.007 Q1415.08 133.007 1414.91 132.89 Q1414.77 132.773 1414.77 132.655 L1414.75 132.538 Q1414.75 132.117 1415.15 131.414 Q1415.55 130.711 1416.53 130.056 Q1417.51 129.376 1418.78 129.376 Q1419.97 129.376 1420.96 129.657 Q1421.94 129.938 1422.48 130.266 Q1423.04 130.594 1423.53 131.203 Q1424.03 131.789 1424.17 132.07 Q1424.33 132.328 1424.59 132.866 Q1425.38 134.693 1425.9 136.263 Q1426.44 137.808 1427.98 142.704 L1438.97 130.477 Q1439.46 129.892 1439.74 129.892 Q1440 129.892 1440.16 130.079 Z" fill="#000000" fill-rule="nonzero" fill-opacity="1" /><path clip-path="url(#clip080)" d="M1479.91 128.604 L1479.91 141.497 L1492.8 141.497 L1492.8 145.432 L1479.91 145.432 L1479.91 158.326 L1476.02 158.326 L1476.02 145.432 L1463.12 145.432 L1463.12 141.497 L1476.02 141.497 L1476.02 128.604 L1479.91 128.604 Z" fill="#000000" fill-rule="nonzero" fill-opacity="1" /><path clip-path="url(#clip080)" d="M1518.77 154.39 L1526.41 154.39 L1526.41 128.025 L1518.1 129.691 L1518.1 125.432 L1526.36 123.766 L1531.04 123.766 L1531.04 154.39 L1538.68 154.39 L1538.68 158.326 L1518.77 158.326 L1518.77 154.39 Z" fill="#000000" fill-rule="nonzero" fill-opacity="1" /><path clip-path="url(#clip080)" d="M1548.12 152.446 L1553.01 152.446 L1553.01 158.326 L1548.12 158.326 L1548.12 152.446 Z" fill="#000000" fill-rule="nonzero" fill-opacity="1" /><path clip-path="url(#clip080)" d="M1576.04 127.84 L1564.24 146.289 L1576.04 146.289 L1576.04 127.84 M1574.81 123.766 L1580.69 123.766 L1580.69 146.289 L1585.62 146.289 L1585.62 150.177 L1580.69 150.177 L1580.69 158.326 L1576.04 158.326 L1576.04 150.177 L1560.44 150.177 L1560.44 145.664 L1574.81 123.766 Z" fill="#000000" fill-rule="nonzero" fill-opacity="1" /><path clip-path="url(#clip080)" d="M1606.2 127.84 L1594.4 146.289 L1606.2 146.289 L1606.2 127.84 M1604.98 123.766 L1610.86 123.766 L1610.86 146.289 L1615.79 146.289 L1615.79 150.177 L1610.86 150.177 L1610.86 158.326 L1606.2 158.326 L1606.2 150.177 L1590.6 150.177 L1590.6 145.664 L1604.98 123.766 Z" fill="#000000" fill-rule="nonzero" fill-opacity="1" /><path clip-path="url(#clip080)" d="M1645.09 144.298 L1645.09 146.381 L1625.51 146.381 Q1625.79 150.779 1628.15 153.094 Q1630.53 155.386 1634.77 155.386 Q1637.22 155.386 1639.51 154.784 Q1641.83 154.182 1644.1 152.978 L1644.1 157.006 Q1641.8 157.978 1639.4 158.488 Q1636.99 158.997 1634.51 158.997 Q1628.31 158.997 1624.67 155.386 Q1621.06 151.775 1621.06 145.617 Q1621.06 139.252 1624.49 135.525 Q1627.94 131.775 1633.77 131.775 Q1639 131.775 1642.04 135.154 Q1645.09 138.511 1645.09 144.298 M1640.83 143.048 Q1640.79 139.553 1638.86 137.469 Q1636.97 135.386 1633.82 135.386 Q1630.25 135.386 1628.1 137.4 Q1625.97 139.414 1625.65 143.071 L1640.83 143.048 Z" fill="#000000" fill-rule="nonzero" fill-opacity="1" /><path clip-path="url(#clip080)" d="M1649.93 143.441 L1662.41 143.441 L1662.41 147.238 L1649.93 147.238 L1649.93 143.441 Z" fill="#000000" fill-rule="nonzero" fill-opacity="1" /><path clip-path="url(#clip080)" d="M1679.79 126.844 Q1676.18 126.844 1674.35 130.409 Q1672.54 133.951 1672.54 141.08 Q1672.54 148.187 1674.35 151.752 Q1676.18 155.293 1679.79 155.293 Q1683.42 155.293 1685.23 151.752 Q1687.06 148.187 1687.06 141.08 Q1687.06 133.951 1685.23 130.409 Q1683.42 126.844 1679.79 126.844 M1679.79 123.141 Q1685.6 123.141 1688.66 127.747 Q1691.73 132.33 1691.73 141.08 Q1691.73 149.807 1688.66 154.414 Q1685.6 158.997 1679.79 158.997 Q1673.98 158.997 1670.9 154.414 Q1667.85 149.807 1667.85 141.08 Q1667.85 132.33 1670.9 127.747 Q1673.98 123.141 1679.79 123.141 Z" fill="#000000" fill-rule="nonzero" fill-opacity="1" /><path clip-path="url(#clip080)" d="M1703.98 154.39 L1720.3 154.39 L1720.3 158.326 L1698.35 158.326 L1698.35 154.39 Q1701.02 151.636 1705.6 147.006 Q1710.21 142.353 1711.39 141.011 Q1713.63 138.488 1714.51 136.752 Q1715.41 134.992 1715.41 133.303 Q1715.41 130.548 1713.47 128.812 Q1711.55 127.076 1708.45 127.076 Q1706.25 127.076 1703.79 127.84 Q1701.36 128.604 1698.59 130.154 L1698.59 125.432 Q1701.41 124.298 1703.86 123.719 Q1706.32 123.141 1708.35 123.141 Q1713.72 123.141 1716.92 125.826 Q1720.11 128.511 1720.11 133.002 Q1720.11 135.131 1719.3 137.053 Q1718.52 138.951 1716.41 141.543 Q1715.83 142.215 1712.73 145.432 Q1709.63 148.627 1703.98 154.39 Z" fill="#000000" fill-rule="nonzero" fill-opacity="1" /><path clip-path="url(#clip080)" d="M1744.19 122.307 L1754 122.307 L1754 125.617 L1748.45 125.617 L1748.45 161.265 L1754 161.265 L1754 164.576 L1744.19 164.576 L1744.19 122.307 Z" fill="#000000" fill-rule="nonzero" fill-opacity="1" /><path clip-path="url(#clip080)" d="M1779.6 133.164 L1779.6 137.191 Q1777.8 136.266 1775.85 135.803 Q1773.91 135.34 1771.83 135.34 Q1768.66 135.34 1767.06 136.312 Q1765.48 137.284 1765.48 139.228 Q1765.48 140.71 1766.62 141.566 Q1767.75 142.4 1771.18 143.164 L1772.64 143.488 Q1777.17 144.46 1779.07 146.242 Q1780.99 148.002 1780.99 151.173 Q1780.99 154.784 1778.12 156.89 Q1775.28 158.997 1770.28 158.997 Q1768.19 158.997 1765.92 158.58 Q1763.68 158.187 1761.18 157.377 L1761.18 152.978 Q1763.54 154.205 1765.83 154.83 Q1768.12 155.432 1770.37 155.432 Q1773.38 155.432 1775 154.414 Q1776.62 153.372 1776.62 151.497 Q1776.62 149.761 1775.44 148.835 Q1774.28 147.909 1770.32 147.052 L1768.84 146.705 Q1764.88 145.872 1763.12 144.159 Q1761.36 142.423 1761.36 139.414 Q1761.36 135.756 1763.96 133.766 Q1766.55 131.775 1771.32 131.775 Q1773.68 131.775 1775.76 132.122 Q1777.85 132.469 1779.6 133.164 Z" fill="#000000" fill-rule="nonzero" fill-opacity="1" /><path clip-path="url(#clip080)" d="M1797.73 122.307 L1797.73 164.576 L1787.91 164.576 L1787.91 161.265 L1793.45 161.265 L1793.45 125.617 L1787.91 125.617 L1787.91 122.307 L1797.73 122.307 Z" fill="#000000" fill-rule="nonzero" fill-opacity="1" /></svg>
