<?xml version="1.0" encoding="utf-8"?>
<svg xmlns="http://www.w3.org/2000/svg" xmlns:xlink="http://www.w3.org/1999/xlink" width="600" height="400" viewBox="0 0 2400 1600">
<defs>
  <clipPath id="clip940">
    <rect x="0" y="0" width="2400" height="1600"/>
  </clipPath>
</defs>
<path clip-path="url(#clip940)" d="M0 1600 L2400 1600 L2400 0 L0 0  Z" fill="#ffffff" fill-rule="evenodd" fill-opacity="1"/>
<defs>
  <clipPath id="clip941">
    <rect x="480" y="0" width="1681" height="1600"/>
  </clipPath>
</defs>
<path clip-path="url(#clip940)" d="M251.372 1423.18 L2352.76 1423.18 L2352.76 47.2441 L251.372 47.2441  Z" fill="#ffffff" fill-rule="evenodd" fill-opacity="1"/>
<defs>
  <clipPath id="clip942">
    <rect x="251" y="47" width="2102" height="1377"/>
  </clipPath>
</defs>
<polyline clip-path="url(#clip942)" style="stroke:#000000; stroke-linecap:round; stroke-linejoin:round; stroke-width:2; stroke-opacity:0.1; fill:none" points="310.845,1423.18 310.845,47.2441 "/>
<polyline clip-path="url(#clip942)" style="stroke:#000000; stroke-linecap:round; stroke-linejoin:round; stroke-width:2; stroke-opacity:0.1; fill:none" points="570.196,1423.18 570.196,47.2441 "/>
<polyline clip-path="url(#clip942)" style="stroke:#000000; stroke-linecap:round; stroke-linejoin:round; stroke-width:2; stroke-opacity:0.1; fill:none" points="913.038,1423.18 913.038,47.2441 "/>
<polyline clip-path="url(#clip942)" style="stroke:#000000; stroke-linecap:round; stroke-linejoin:round; stroke-width:2; stroke-opacity:0.1; fill:none" points="1172.39,1423.18 1172.39,47.2441 "/>
<polyline clip-path="url(#clip942)" style="stroke:#000000; stroke-linecap:round; stroke-linejoin:round; stroke-width:2; stroke-opacity:0.1; fill:none" points="1431.74,1423.18 1431.74,47.2441 "/>
<polyline clip-path="url(#clip942)" style="stroke:#000000; stroke-linecap:round; stroke-linejoin:round; stroke-width:2; stroke-opacity:0.1; fill:none" points="1774.58,1423.18 1774.58,47.2441 "/>
<polyline clip-path="url(#clip942)" style="stroke:#000000; stroke-linecap:round; stroke-linejoin:round; stroke-width:2; stroke-opacity:0.1; fill:none" points="2033.93,1423.18 2033.93,47.2441 "/>
<polyline clip-path="url(#clip942)" style="stroke:#000000; stroke-linecap:round; stroke-linejoin:round; stroke-width:2; stroke-opacity:0.1; fill:none" points="2293.28,1423.18 2293.28,47.2441 "/>
<polyline clip-path="url(#clip940)" style="stroke:#000000; stroke-linecap:round; stroke-linejoin:round; stroke-width:4; stroke-opacity:1; fill:none" points="251.372,1423.18 2352.76,1423.18 "/>
<polyline clip-path="url(#clip940)" style="stroke:#000000; stroke-linecap:round; stroke-linejoin:round; stroke-width:4; stroke-opacity:1; fill:none" points="310.845,1423.18 310.845,1404.28 "/>
<polyline clip-path="url(#clip940)" style="stroke:#000000; stroke-linecap:round; stroke-linejoin:round; stroke-width:4; stroke-opacity:1; fill:none" points="570.196,1423.18 570.196,1404.28 "/>
<polyline clip-path="url(#clip940)" style="stroke:#000000; stroke-linecap:round; stroke-linejoin:round; stroke-width:4; stroke-opacity:1; fill:none" points="913.038,1423.18 913.038,1404.28 "/>
<polyline clip-path="url(#clip940)" style="stroke:#000000; stroke-linecap:round; stroke-linejoin:round; stroke-width:4; stroke-opacity:1; fill:none" points="1172.39,1423.18 1172.39,1404.28 "/>
<polyline clip-path="url(#clip940)" style="stroke:#000000; stroke-linecap:round; stroke-linejoin:round; stroke-width:4; stroke-opacity:1; fill:none" points="1431.74,1423.18 1431.74,1404.28 "/>
<polyline clip-path="url(#clip940)" style="stroke:#000000; stroke-linecap:round; stroke-linejoin:round; stroke-width:4; stroke-opacity:1; fill:none" points="1774.58,1423.18 1774.58,1404.28 "/>
<polyline clip-path="url(#clip940)" style="stroke:#000000; stroke-linecap:round; stroke-linejoin:round; stroke-width:4; stroke-opacity:1; fill:none" points="2033.93,1423.18 2033.93,1404.28 "/>
<polyline clip-path="url(#clip940)" style="stroke:#000000; stroke-linecap:round; stroke-linejoin:round; stroke-width:4; stroke-opacity:1; fill:none" points="2293.28,1423.18 2293.28,1404.28 "/>
<path clip-path="url(#clip940)" d="M285.533 1481.64 L293.172 1481.64 L293.172 1455.28 L284.862 1456.95 L284.862 1452.69 L293.125 1451.02 L297.801 1451.02 L297.801 1481.64 L305.44 1481.64 L305.44 1485.58 L285.533 1485.58 L285.533 1481.64 Z" fill="#000000" fill-rule="nonzero" fill-opacity="1" /><path clip-path="url(#clip940)" d="M324.885 1454.1 Q321.273 1454.1 319.445 1457.66 Q317.639 1461.2 317.639 1468.33 Q317.639 1475.44 319.445 1479.01 Q321.273 1482.55 324.885 1482.55 Q328.519 1482.55 330.324 1479.01 Q332.153 1475.44 332.153 1468.33 Q332.153 1461.2 330.324 1457.66 Q328.519 1454.1 324.885 1454.1 M324.885 1450.39 Q330.695 1450.39 333.75 1455 Q336.829 1459.58 336.829 1468.33 Q336.829 1477.06 333.75 1481.67 Q330.695 1486.25 324.885 1486.25 Q319.074 1486.25 315.996 1481.67 Q312.94 1477.06 312.94 1468.33 Q312.94 1459.58 315.996 1455 Q319.074 1450.39 324.885 1450.39 Z" fill="#000000" fill-rule="nonzero" fill-opacity="1" /><path clip-path="url(#clip940)" d="M548.969 1481.64 L565.288 1481.64 L565.288 1485.58 L543.344 1485.58 L543.344 1481.64 Q546.006 1478.89 550.589 1474.26 Q555.196 1469.61 556.376 1468.27 Q558.622 1465.74 559.501 1464.01 Q560.404 1462.25 560.404 1460.56 Q560.404 1457.8 558.46 1456.07 Q556.538 1454.33 553.437 1454.33 Q551.238 1454.33 548.784 1455.09 Q546.353 1455.86 543.576 1457.41 L543.576 1452.69 Q546.4 1451.55 548.853 1450.97 Q551.307 1450.39 553.344 1450.39 Q558.714 1450.39 561.909 1453.08 Q565.103 1455.77 565.103 1460.26 Q565.103 1462.39 564.293 1464.31 Q563.506 1466.2 561.399 1468.8 Q560.821 1469.47 557.719 1472.69 Q554.617 1475.88 548.969 1481.64 Z" fill="#000000" fill-rule="nonzero" fill-opacity="1" /><path clip-path="url(#clip940)" d="M585.103 1454.1 Q581.492 1454.1 579.663 1457.66 Q577.858 1461.2 577.858 1468.33 Q577.858 1475.44 579.663 1479.01 Q581.492 1482.55 585.103 1482.55 Q588.737 1482.55 590.543 1479.01 Q592.372 1475.44 592.372 1468.33 Q592.372 1461.2 590.543 1457.66 Q588.737 1454.1 585.103 1454.1 M585.103 1450.39 Q590.913 1450.39 593.969 1455 Q597.047 1459.58 597.047 1468.33 Q597.047 1477.06 593.969 1481.67 Q590.913 1486.25 585.103 1486.25 Q579.293 1486.25 576.214 1481.67 Q573.159 1477.06 573.159 1468.33 Q573.159 1459.58 576.214 1455 Q579.293 1450.39 585.103 1450.39 Z" fill="#000000" fill-rule="nonzero" fill-opacity="1" /><path clip-path="url(#clip940)" d="M887.738 1451.02 L906.094 1451.02 L906.094 1454.96 L892.02 1454.96 L892.02 1463.43 Q893.038 1463.08 894.057 1462.92 Q895.076 1462.73 896.094 1462.73 Q901.881 1462.73 905.261 1465.9 Q908.64 1469.08 908.64 1474.49 Q908.64 1480.07 905.168 1483.17 Q901.696 1486.25 895.376 1486.25 Q893.201 1486.25 890.932 1485.88 Q888.687 1485.51 886.279 1484.77 L886.279 1480.07 Q888.363 1481.2 890.585 1481.76 Q892.807 1482.32 895.284 1482.32 Q899.288 1482.32 901.626 1480.21 Q903.964 1478.1 903.964 1474.49 Q903.964 1470.88 901.626 1468.77 Q899.288 1466.67 895.284 1466.67 Q893.409 1466.67 891.534 1467.08 Q889.682 1467.5 887.738 1468.38 L887.738 1451.02 Z" fill="#000000" fill-rule="nonzero" fill-opacity="1" /><path clip-path="url(#clip940)" d="M927.853 1454.1 Q924.242 1454.1 922.413 1457.66 Q920.608 1461.2 920.608 1468.33 Q920.608 1475.44 922.413 1479.01 Q924.242 1482.55 927.853 1482.55 Q931.487 1482.55 933.293 1479.01 Q935.122 1475.44 935.122 1468.33 Q935.122 1461.2 933.293 1457.66 Q931.487 1454.1 927.853 1454.1 M927.853 1450.39 Q933.663 1450.39 936.719 1455 Q939.797 1459.58 939.797 1468.33 Q939.797 1477.06 936.719 1481.67 Q933.663 1486.25 927.853 1486.25 Q922.043 1486.25 918.964 1481.67 Q915.909 1477.06 915.909 1468.33 Q915.909 1459.58 918.964 1455 Q922.043 1450.39 927.853 1450.39 Z" fill="#000000" fill-rule="nonzero" fill-opacity="1" /><path clip-path="url(#clip940)" d="M1132 1481.64 L1139.63 1481.64 L1139.63 1455.28 L1131.32 1456.95 L1131.32 1452.69 L1139.59 1451.02 L1144.26 1451.02 L1144.26 1481.64 L1151.9 1481.64 L1151.9 1485.58 L1132 1485.58 L1132 1481.64 Z" fill="#000000" fill-rule="nonzero" fill-opacity="1" /><path clip-path="url(#clip940)" d="M1171.35 1454.1 Q1167.74 1454.1 1165.91 1457.66 Q1164.1 1461.2 1164.1 1468.33 Q1164.1 1475.44 1165.91 1479.01 Q1167.74 1482.55 1171.35 1482.55 Q1174.98 1482.55 1176.79 1479.01 Q1178.62 1475.44 1178.62 1468.33 Q1178.62 1461.2 1176.79 1457.66 Q1174.98 1454.1 1171.35 1454.1 M1171.35 1450.39 Q1177.16 1450.39 1180.21 1455 Q1183.29 1459.58 1183.29 1468.33 Q1183.29 1477.06 1180.21 1481.67 Q1177.16 1486.25 1171.35 1486.25 Q1165.54 1486.25 1162.46 1481.67 Q1159.4 1477.06 1159.4 1468.33 Q1159.4 1459.58 1162.46 1455 Q1165.54 1450.39 1171.35 1450.39 Z" fill="#000000" fill-rule="nonzero" fill-opacity="1" /><path clip-path="url(#clip940)" d="M1201.51 1454.1 Q1197.9 1454.1 1196.07 1457.66 Q1194.26 1461.2 1194.26 1468.33 Q1194.26 1475.44 1196.07 1479.01 Q1197.9 1482.55 1201.51 1482.55 Q1205.14 1482.55 1206.95 1479.01 Q1208.78 1475.44 1208.78 1468.33 Q1208.78 1461.2 1206.95 1457.66 Q1205.14 1454.1 1201.51 1454.1 M1201.51 1450.39 Q1207.32 1450.39 1210.37 1455 Q1213.45 1459.58 1213.45 1468.33 Q1213.45 1477.06 1210.37 1481.67 Q1207.32 1486.25 1201.51 1486.25 Q1195.7 1486.25 1192.62 1481.67 Q1189.56 1477.06 1189.56 1468.33 Q1189.56 1459.58 1192.62 1455 Q1195.7 1450.39 1201.51 1450.39 Z" fill="#000000" fill-rule="nonzero" fill-opacity="1" /><path clip-path="url(#clip940)" d="M1395.43 1481.64 L1411.75 1481.64 L1411.75 1485.58 L1389.81 1485.58 L1389.81 1481.64 Q1392.47 1478.89 1397.05 1474.26 Q1401.66 1469.61 1402.84 1468.27 Q1405.08 1465.74 1405.96 1464.01 Q1406.87 1462.25 1406.87 1460.56 Q1406.87 1457.8 1404.92 1456.07 Q1403 1454.33 1399.9 1454.33 Q1397.7 1454.33 1395.25 1455.09 Q1392.82 1455.86 1390.04 1457.41 L1390.04 1452.69 Q1392.86 1451.55 1395.32 1450.97 Q1397.77 1450.39 1399.81 1450.39 Q1405.18 1450.39 1408.37 1453.08 Q1411.57 1455.77 1411.57 1460.26 Q1411.57 1462.39 1410.76 1464.31 Q1409.97 1466.2 1407.86 1468.8 Q1407.28 1469.47 1404.18 1472.69 Q1401.08 1475.88 1395.43 1481.64 Z" fill="#000000" fill-rule="nonzero" fill-opacity="1" /><path clip-path="url(#clip940)" d="M1431.57 1454.1 Q1427.95 1454.1 1426.13 1457.66 Q1424.32 1461.2 1424.32 1468.33 Q1424.32 1475.44 1426.13 1479.01 Q1427.95 1482.55 1431.57 1482.55 Q1435.2 1482.55 1437.01 1479.01 Q1438.83 1475.44 1438.83 1468.33 Q1438.83 1461.2 1437.01 1457.66 Q1435.2 1454.1 1431.57 1454.1 M1431.57 1450.39 Q1437.38 1450.39 1440.43 1455 Q1443.51 1459.58 1443.51 1468.33 Q1443.51 1477.06 1440.43 1481.67 Q1437.38 1486.25 1431.57 1486.25 Q1425.76 1486.25 1422.68 1481.67 Q1419.62 1477.06 1419.62 1468.33 Q1419.62 1459.58 1422.68 1455 Q1425.76 1450.39 1431.57 1450.39 Z" fill="#000000" fill-rule="nonzero" fill-opacity="1" /><path clip-path="url(#clip940)" d="M1461.73 1454.1 Q1458.12 1454.1 1456.29 1457.66 Q1454.48 1461.2 1454.48 1468.33 Q1454.48 1475.44 1456.29 1479.01 Q1458.12 1482.55 1461.73 1482.55 Q1465.36 1482.55 1467.17 1479.01 Q1469 1475.44 1469 1468.33 Q1469 1461.2 1467.17 1457.66 Q1465.36 1454.1 1461.73 1454.1 M1461.73 1450.39 Q1467.54 1450.39 1470.59 1455 Q1473.67 1459.58 1473.67 1468.33 Q1473.67 1477.06 1470.59 1481.67 Q1467.54 1486.25 1461.73 1486.25 Q1455.92 1486.25 1452.84 1481.67 Q1449.78 1477.06 1449.78 1468.33 Q1449.78 1459.58 1452.84 1455 Q1455.92 1450.39 1461.73 1450.39 Z" fill="#000000" fill-rule="nonzero" fill-opacity="1" /><path clip-path="url(#clip940)" d="M1734.2 1451.02 L1752.56 1451.02 L1752.56 1454.96 L1738.48 1454.96 L1738.48 1463.43 Q1739.5 1463.08 1740.52 1462.92 Q1741.54 1462.73 1742.56 1462.73 Q1748.34 1462.73 1751.72 1465.9 Q1755.1 1469.08 1755.1 1474.49 Q1755.1 1480.07 1751.63 1483.17 Q1748.16 1486.25 1741.84 1486.25 Q1739.66 1486.25 1737.39 1485.88 Q1735.15 1485.51 1732.74 1484.77 L1732.74 1480.07 Q1734.83 1481.2 1737.05 1481.76 Q1739.27 1482.32 1741.75 1482.32 Q1745.75 1482.32 1748.09 1480.21 Q1750.43 1478.1 1750.43 1474.49 Q1750.43 1470.88 1748.09 1468.77 Q1745.75 1466.67 1741.75 1466.67 Q1739.87 1466.67 1738 1467.08 Q1736.14 1467.5 1734.2 1468.38 L1734.2 1451.02 Z" fill="#000000" fill-rule="nonzero" fill-opacity="1" /><path clip-path="url(#clip940)" d="M1774.32 1454.1 Q1770.7 1454.1 1768.88 1457.66 Q1767.07 1461.2 1767.07 1468.33 Q1767.07 1475.44 1768.88 1479.01 Q1770.7 1482.55 1774.32 1482.55 Q1777.95 1482.55 1779.76 1479.01 Q1781.58 1475.44 1781.58 1468.33 Q1781.58 1461.2 1779.76 1457.66 Q1777.95 1454.1 1774.32 1454.1 M1774.32 1450.39 Q1780.13 1450.39 1783.18 1455 Q1786.26 1459.58 1786.26 1468.33 Q1786.26 1477.06 1783.18 1481.67 Q1780.13 1486.25 1774.32 1486.25 Q1768.51 1486.25 1765.43 1481.67 Q1762.37 1477.06 1762.37 1468.33 Q1762.37 1459.58 1765.43 1455 Q1768.51 1450.39 1774.32 1450.39 Z" fill="#000000" fill-rule="nonzero" fill-opacity="1" /><path clip-path="url(#clip940)" d="M1804.48 1454.1 Q1800.87 1454.1 1799.04 1457.66 Q1797.23 1461.2 1797.23 1468.33 Q1797.23 1475.44 1799.04 1479.01 Q1800.87 1482.55 1804.48 1482.55 Q1808.11 1482.55 1809.92 1479.01 Q1811.75 1475.44 1811.75 1468.33 Q1811.75 1461.2 1809.92 1457.66 Q1808.11 1454.1 1804.48 1454.1 M1804.48 1450.39 Q1810.29 1450.39 1813.34 1455 Q1816.42 1459.58 1816.42 1468.33 Q1816.42 1477.06 1813.34 1481.67 Q1810.29 1486.25 1804.48 1486.25 Q1798.67 1486.25 1795.59 1481.67 Q1792.53 1477.06 1792.53 1468.33 Q1792.53 1459.58 1795.59 1455 Q1798.67 1450.39 1804.48 1450.39 Z" fill="#000000" fill-rule="nonzero" fill-opacity="1" /><path clip-path="url(#clip940)" d="M1978.46 1481.64 L1986.1 1481.64 L1986.1 1455.28 L1977.79 1456.95 L1977.79 1452.69 L1986.05 1451.02 L1990.73 1451.02 L1990.73 1481.64 L1998.37 1481.64 L1998.37 1485.58 L1978.46 1485.58 L1978.46 1481.64 Z" fill="#000000" fill-rule="nonzero" fill-opacity="1" /><path clip-path="url(#clip940)" d="M2017.81 1454.1 Q2014.2 1454.1 2012.37 1457.66 Q2010.56 1461.2 2010.56 1468.33 Q2010.56 1475.44 2012.37 1479.01 Q2014.2 1482.55 2017.81 1482.55 Q2021.44 1482.55 2023.25 1479.01 Q2025.08 1475.44 2025.08 1468.33 Q2025.08 1461.2 2023.25 1457.66 Q2021.44 1454.1 2017.81 1454.1 M2017.81 1450.39 Q2023.62 1450.39 2026.68 1455 Q2029.75 1459.58 2029.75 1468.33 Q2029.75 1477.06 2026.68 1481.67 Q2023.62 1486.25 2017.81 1486.25 Q2012 1486.25 2008.92 1481.67 Q2005.87 1477.06 2005.87 1468.33 Q2005.87 1459.58 2008.92 1455 Q2012 1450.39 2017.81 1450.39 Z" fill="#000000" fill-rule="nonzero" fill-opacity="1" /><path clip-path="url(#clip940)" d="M2047.97 1454.1 Q2044.36 1454.1 2042.53 1457.66 Q2040.73 1461.2 2040.73 1468.33 Q2040.73 1475.44 2042.53 1479.01 Q2044.36 1482.55 2047.97 1482.55 Q2051.61 1482.55 2053.41 1479.01 Q2055.24 1475.44 2055.24 1468.33 Q2055.24 1461.2 2053.41 1457.66 Q2051.61 1454.1 2047.97 1454.1 M2047.97 1450.39 Q2053.78 1450.39 2056.84 1455 Q2059.92 1459.58 2059.92 1468.33 Q2059.92 1477.06 2056.84 1481.67 Q2053.78 1486.25 2047.97 1486.25 Q2042.16 1486.25 2039.08 1481.67 Q2036.03 1477.06 2036.03 1468.33 Q2036.03 1459.58 2039.08 1455 Q2042.16 1450.39 2047.97 1450.39 Z" fill="#000000" fill-rule="nonzero" fill-opacity="1" /><path clip-path="url(#clip940)" d="M2078.13 1454.1 Q2074.52 1454.1 2072.69 1457.66 Q2070.89 1461.2 2070.89 1468.33 Q2070.89 1475.44 2072.69 1479.01 Q2074.52 1482.55 2078.13 1482.55 Q2081.77 1482.55 2083.57 1479.01 Q2085.4 1475.44 2085.4 1468.33 Q2085.4 1461.2 2083.57 1457.66 Q2081.77 1454.1 2078.13 1454.1 M2078.13 1450.39 Q2083.94 1450.39 2087 1455 Q2090.08 1459.58 2090.08 1468.33 Q2090.08 1477.06 2087 1481.67 Q2083.94 1486.25 2078.13 1486.25 Q2072.32 1486.25 2069.24 1481.67 Q2066.19 1477.06 2066.19 1468.33 Q2066.19 1459.58 2069.24 1455 Q2072.32 1450.39 2078.13 1450.39 Z" fill="#000000" fill-rule="nonzero" fill-opacity="1" /><path clip-path="url(#clip940)" d="M2241.89 1481.64 L2258.21 1481.64 L2258.21 1485.58 L2236.27 1485.58 L2236.27 1481.64 Q2238.93 1478.89 2243.51 1474.26 Q2248.12 1469.61 2249.3 1468.27 Q2251.55 1465.74 2252.43 1464.01 Q2253.33 1462.25 2253.33 1460.56 Q2253.33 1457.8 2251.38 1456.07 Q2249.46 1454.33 2246.36 1454.33 Q2244.16 1454.33 2241.71 1455.09 Q2239.28 1455.86 2236.5 1457.41 L2236.5 1452.69 Q2239.32 1451.55 2241.78 1450.97 Q2244.23 1450.39 2246.27 1450.39 Q2251.64 1450.39 2254.83 1453.08 Q2258.03 1455.77 2258.03 1460.26 Q2258.03 1462.39 2257.22 1464.31 Q2256.43 1466.2 2254.32 1468.8 Q2253.75 1469.47 2250.64 1472.69 Q2247.54 1475.88 2241.89 1481.64 Z" fill="#000000" fill-rule="nonzero" fill-opacity="1" /><path clip-path="url(#clip940)" d="M2278.03 1454.1 Q2274.42 1454.1 2272.59 1457.66 Q2270.78 1461.2 2270.78 1468.33 Q2270.78 1475.44 2272.59 1479.01 Q2274.42 1482.55 2278.03 1482.55 Q2281.66 1482.55 2283.47 1479.01 Q2285.3 1475.44 2285.3 1468.33 Q2285.3 1461.2 2283.47 1457.66 Q2281.66 1454.1 2278.03 1454.1 M2278.03 1450.39 Q2283.84 1450.39 2286.89 1455 Q2289.97 1459.58 2289.97 1468.33 Q2289.97 1477.06 2286.89 1481.67 Q2283.84 1486.25 2278.03 1486.25 Q2272.22 1486.25 2269.14 1481.67 Q2266.08 1477.06 2266.08 1468.33 Q2266.08 1459.58 2269.14 1455 Q2272.22 1450.39 2278.03 1450.39 Z" fill="#000000" fill-rule="nonzero" fill-opacity="1" /><path clip-path="url(#clip940)" d="M2308.19 1454.1 Q2304.58 1454.1 2302.75 1457.66 Q2300.94 1461.2 2300.94 1468.33 Q2300.94 1475.44 2302.75 1479.01 Q2304.58 1482.55 2308.19 1482.55 Q2311.82 1482.55 2313.63 1479.01 Q2315.46 1475.44 2315.46 1468.33 Q2315.46 1461.2 2313.63 1457.66 Q2311.82 1454.1 2308.19 1454.1 M2308.19 1450.39 Q2314 1450.39 2317.06 1455 Q2320.13 1459.58 2320.13 1468.33 Q2320.13 1477.06 2317.06 1481.67 Q2314 1486.25 2308.19 1486.25 Q2302.38 1486.25 2299.3 1481.67 Q2296.25 1477.06 2296.25 1468.33 Q2296.25 1459.58 2299.3 1455 Q2302.38 1450.39 2308.19 1450.39 Z" fill="#000000" fill-rule="nonzero" fill-opacity="1" /><path clip-path="url(#clip940)" d="M2338.35 1454.1 Q2334.74 1454.1 2332.91 1457.66 Q2331.11 1461.2 2331.11 1468.33 Q2331.11 1475.44 2332.91 1479.01 Q2334.74 1482.55 2338.35 1482.55 Q2341.99 1482.55 2343.79 1479.01 Q2345.62 1475.44 2345.62 1468.33 Q2345.62 1461.2 2343.79 1457.66 Q2341.99 1454.1 2338.35 1454.1 M2338.35 1450.39 Q2344.16 1450.39 2347.22 1455 Q2350.3 1459.58 2350.3 1468.33 Q2350.3 1477.06 2347.22 1481.67 Q2344.16 1486.25 2338.35 1486.25 Q2332.54 1486.25 2329.46 1481.67 Q2326.41 1477.06 2326.41 1468.33 Q2326.41 1459.58 2329.46 1455 Q2332.54 1450.39 2338.35 1450.39 Z" fill="#000000" fill-rule="nonzero" fill-opacity="1" /><path clip-path="url(#clip940)" d="M854.415 1499.75 L860.844 1499.75 L860.844 1547.27 L854.415 1547.27 L854.415 1499.75 Z" fill="#000000" fill-rule="nonzero" fill-opacity="1" /><path clip-path="url(#clip940)" d="M903.017 1525.76 L903.017 1547.27 L897.16 1547.27 L897.16 1525.95 Q897.16 1520.89 895.187 1518.37 Q893.214 1515.86 889.267 1515.86 Q884.524 1515.86 881.787 1518.88 Q879.05 1521.91 879.05 1527.13 L879.05 1547.27 L873.162 1547.27 L873.162 1511.63 L879.05 1511.63 L879.05 1517.16 Q881.15 1513.95 883.983 1512.36 Q886.848 1510.77 890.572 1510.77 Q896.715 1510.77 899.866 1514.59 Q903.017 1518.37 903.017 1525.76 Z" fill="#000000" fill-rule="nonzero" fill-opacity="1" /><path clip-path="url(#clip940)" d="M914.698 1511.63 L920.554 1511.63 L920.554 1547.27 L914.698 1547.27 L914.698 1511.63 M914.698 1497.75 L920.554 1497.75 L920.554 1505.16 L914.698 1505.16 L914.698 1497.75 Z" fill="#000000" fill-rule="nonzero" fill-opacity="1" /><path clip-path="url(#clip940)" d="M962.441 1525.76 L962.441 1547.27 L956.584 1547.27 L956.584 1525.95 Q956.584 1520.89 954.611 1518.37 Q952.637 1515.86 948.691 1515.86 Q943.948 1515.86 941.211 1518.88 Q938.474 1521.91 938.474 1527.13 L938.474 1547.27 L932.585 1547.27 L932.585 1511.63 L938.474 1511.63 L938.474 1517.16 Q940.574 1513.95 943.407 1512.36 Q946.272 1510.77 949.996 1510.77 Q956.139 1510.77 959.29 1514.59 Q962.441 1518.37 962.441 1525.76 Z" fill="#000000" fill-rule="nonzero" fill-opacity="1" /><path clip-path="url(#clip940)" d="M979.914 1501.5 L979.914 1511.63 L991.977 1511.63 L991.977 1516.18 L979.914 1516.18 L979.914 1535.53 Q979.914 1539.89 981.092 1541.13 Q982.302 1542.37 985.962 1542.37 L991.977 1542.37 L991.977 1547.27 L985.962 1547.27 Q979.182 1547.27 976.604 1544.76 Q974.026 1542.21 974.026 1535.53 L974.026 1516.18 L969.729 1516.18 L969.729 1511.63 L974.026 1511.63 L974.026 1501.5 L979.914 1501.5 Z" fill="#000000" fill-rule="nonzero" fill-opacity="1" /><path clip-path="url(#clip940)" d="M999.68 1511.63 L1005.54 1511.63 L1005.54 1547.27 L999.68 1547.27 L999.68 1511.63 M999.68 1497.75 L1005.54 1497.75 L1005.54 1505.16 L999.68 1505.16 L999.68 1497.75 Z" fill="#000000" fill-rule="nonzero" fill-opacity="1" /><path clip-path="url(#clip940)" d="M1033.99 1529.35 Q1026.89 1529.35 1024.16 1530.98 Q1021.42 1532.6 1021.42 1536.52 Q1021.42 1539.64 1023.46 1541.48 Q1025.52 1543.3 1029.06 1543.3 Q1033.93 1543.3 1036.86 1539.86 Q1039.82 1536.39 1039.82 1530.66 L1039.82 1529.35 L1033.99 1529.35 M1045.67 1526.94 L1045.67 1547.27 L1039.82 1547.27 L1039.82 1541.86 Q1037.81 1545.11 1034.82 1546.67 Q1031.83 1548.2 1027.5 1548.2 Q1022.02 1548.2 1018.78 1545.14 Q1015.56 1542.05 1015.56 1536.9 Q1015.56 1530.88 1019.57 1527.83 Q1023.62 1524.77 1031.6 1524.77 L1039.82 1524.77 L1039.82 1524.2 Q1039.82 1520.16 1037.14 1517.96 Q1034.5 1515.73 1029.69 1515.73 Q1026.64 1515.73 1023.74 1516.46 Q1020.85 1517.2 1018.17 1518.66 L1018.17 1513.25 Q1021.39 1512.01 1024.41 1511.4 Q1027.43 1510.77 1030.3 1510.77 Q1038.03 1510.77 1041.85 1514.78 Q1045.67 1518.79 1045.67 1526.94 Z" fill="#000000" fill-rule="nonzero" fill-opacity="1" /><path clip-path="url(#clip940)" d="M1057.74 1497.75 L1063.59 1497.75 L1063.59 1547.27 L1057.74 1547.27 L1057.74 1497.75 Z" fill="#000000" fill-rule="nonzero" fill-opacity="1" /><path clip-path="url(#clip940)" d="M1122.16 1529.48 Q1122.16 1523.02 1119.48 1519.36 Q1116.84 1515.67 1112.19 1515.67 Q1107.55 1515.67 1104.87 1519.36 Q1102.23 1523.02 1102.23 1529.48 Q1102.23 1535.94 1104.87 1539.64 Q1107.55 1543.3 1112.19 1543.3 Q1116.84 1543.3 1119.48 1539.64 Q1122.16 1535.94 1122.16 1529.48 M1102.23 1517.04 Q1104.08 1513.85 1106.88 1512.33 Q1109.71 1510.77 1113.63 1510.77 Q1120.12 1510.77 1124.16 1515.92 Q1128.24 1521.08 1128.24 1529.48 Q1128.24 1537.88 1124.16 1543.04 Q1120.12 1548.2 1113.63 1548.2 Q1109.71 1548.2 1106.88 1546.67 Q1104.08 1545.11 1102.23 1541.93 L1102.23 1547.27 L1096.34 1547.27 L1096.34 1497.75 L1102.23 1497.75 L1102.23 1517.04 Z" fill="#000000" fill-rule="nonzero" fill-opacity="1" /><path clip-path="url(#clip940)" d="M1151.76 1515.73 Q1147.05 1515.73 1144.31 1519.42 Q1141.57 1523.08 1141.57 1529.48 Q1141.57 1535.88 1144.28 1539.57 Q1147.01 1543.23 1151.76 1543.23 Q1156.44 1543.23 1159.17 1539.54 Q1161.91 1535.85 1161.91 1529.48 Q1161.91 1523.15 1159.17 1519.46 Q1156.44 1515.73 1151.76 1515.73 M1151.76 1510.77 Q1159.4 1510.77 1163.76 1515.73 Q1168.12 1520.7 1168.12 1529.48 Q1168.12 1538.23 1163.76 1543.23 Q1159.4 1548.2 1151.76 1548.2 Q1144.09 1548.2 1139.73 1543.23 Q1135.4 1538.23 1135.4 1529.48 Q1135.4 1520.7 1139.73 1515.73 Q1144.09 1510.77 1151.76 1510.77 Z" fill="#000000" fill-rule="nonzero" fill-opacity="1" /><path clip-path="url(#clip940)" d="M1207.46 1525.76 L1207.46 1547.27 L1201.6 1547.27 L1201.6 1525.95 Q1201.6 1520.89 1199.63 1518.37 Q1197.65 1515.86 1193.71 1515.86 Q1188.96 1515.86 1186.23 1518.88 Q1183.49 1521.91 1183.49 1527.13 L1183.49 1547.27 L1177.6 1547.27 L1177.6 1511.63 L1183.49 1511.63 L1183.49 1517.16 Q1185.59 1513.95 1188.42 1512.36 Q1191.29 1510.77 1195.01 1510.77 Q1201.15 1510.77 1204.31 1514.59 Q1207.46 1518.37 1207.46 1525.76 Z" fill="#000000" fill-rule="nonzero" fill-opacity="1" /><path clip-path="url(#clip940)" d="M1242.6 1517.04 L1242.6 1497.75 L1248.45 1497.75 L1248.45 1547.27 L1242.6 1547.27 L1242.6 1541.93 Q1240.75 1545.11 1237.92 1546.67 Q1235.12 1548.2 1231.17 1548.2 Q1224.71 1548.2 1220.63 1543.04 Q1216.59 1537.88 1216.59 1529.48 Q1216.59 1521.08 1220.63 1515.92 Q1224.71 1510.77 1231.17 1510.77 Q1235.12 1510.77 1237.92 1512.33 Q1240.75 1513.85 1242.6 1517.04 M1222.64 1529.48 Q1222.64 1535.94 1225.28 1539.64 Q1227.95 1543.3 1232.6 1543.3 Q1237.25 1543.3 1239.92 1539.64 Q1242.6 1535.94 1242.6 1529.48 Q1242.6 1523.02 1239.92 1519.36 Q1237.25 1515.67 1232.6 1515.67 Q1227.95 1515.67 1225.28 1519.36 Q1222.64 1523.02 1222.64 1529.48 Z" fill="#000000" fill-rule="nonzero" fill-opacity="1" /><path clip-path="url(#clip940)" d="M1304.69 1517.04 L1304.69 1497.75 L1310.55 1497.75 L1310.55 1547.27 L1304.69 1547.27 L1304.69 1541.93 Q1302.85 1545.11 1300.01 1546.67 Q1297.21 1548.2 1293.27 1548.2 Q1286.81 1548.2 1282.73 1543.04 Q1278.69 1537.88 1278.69 1529.48 Q1278.69 1521.08 1282.73 1515.92 Q1286.81 1510.77 1293.27 1510.77 Q1297.21 1510.77 1300.01 1512.33 Q1302.85 1513.85 1304.69 1517.04 M1284.74 1529.48 Q1284.74 1535.94 1287.38 1539.64 Q1290.05 1543.3 1294.7 1543.3 Q1299.35 1543.3 1302.02 1539.64 Q1304.69 1535.94 1304.69 1529.48 Q1304.69 1523.02 1302.02 1519.36 Q1299.35 1515.67 1294.7 1515.67 Q1290.05 1515.67 1287.38 1519.36 Q1284.74 1523.02 1284.74 1529.48 Z" fill="#000000" fill-rule="nonzero" fill-opacity="1" /><path clip-path="url(#clip940)" d="M1322.61 1511.63 L1328.47 1511.63 L1328.47 1547.27 L1322.61 1547.27 L1322.61 1511.63 M1322.61 1497.75 L1328.47 1497.75 L1328.47 1505.16 L1322.61 1505.16 L1322.61 1497.75 Z" fill="#000000" fill-rule="nonzero" fill-opacity="1" /><path clip-path="url(#clip940)" d="M1368.48 1518.47 Q1370.67 1514.52 1373.73 1512.64 Q1376.78 1510.77 1380.92 1510.77 Q1386.49 1510.77 1389.52 1514.68 Q1392.54 1518.56 1392.54 1525.76 L1392.54 1547.27 L1386.65 1547.27 L1386.65 1525.95 Q1386.65 1520.82 1384.84 1518.34 Q1383.02 1515.86 1379.3 1515.86 Q1374.75 1515.86 1372.11 1518.88 Q1369.46 1521.91 1369.46 1527.13 L1369.46 1547.27 L1363.58 1547.27 L1363.58 1525.95 Q1363.58 1520.79 1361.76 1518.34 Q1359.95 1515.86 1356.16 1515.86 Q1351.67 1515.86 1349.03 1518.91 Q1346.39 1521.94 1346.39 1527.13 L1346.39 1547.27 L1340.5 1547.27 L1340.5 1511.63 L1346.39 1511.63 L1346.39 1517.16 Q1348.39 1513.89 1351.19 1512.33 Q1354 1510.77 1357.85 1510.77 Q1361.73 1510.77 1364.43 1512.74 Q1367.17 1514.71 1368.48 1518.47 Z" fill="#000000" fill-rule="nonzero" fill-opacity="1" /><path clip-path="url(#clip940)" d="M1434.71 1527.99 L1434.71 1530.85 L1407.79 1530.85 Q1408.17 1536.9 1411.41 1540.08 Q1414.69 1543.23 1420.52 1543.23 Q1423.89 1543.23 1427.04 1542.4 Q1430.22 1541.58 1433.34 1539.92 L1433.34 1545.46 Q1430.19 1546.8 1426.88 1547.5 Q1423.57 1548.2 1420.17 1548.2 Q1411.64 1548.2 1406.64 1543.23 Q1401.67 1538.27 1401.67 1529.8 Q1401.67 1521.05 1406.38 1515.92 Q1411.13 1510.77 1419.15 1510.77 Q1426.34 1510.77 1430.51 1515.41 Q1434.71 1520.03 1434.71 1527.99 M1428.86 1526.27 Q1428.79 1521.46 1426.15 1518.6 Q1423.54 1515.73 1419.21 1515.73 Q1414.31 1515.73 1411.35 1518.5 Q1408.42 1521.27 1407.98 1526.3 L1428.86 1526.27 Z" fill="#000000" fill-rule="nonzero" fill-opacity="1" /><path clip-path="url(#clip940)" d="M1473.96 1525.76 L1473.96 1547.27 L1468.1 1547.27 L1468.1 1525.95 Q1468.1 1520.89 1466.13 1518.37 Q1464.15 1515.86 1460.21 1515.86 Q1455.46 1515.86 1452.73 1518.88 Q1449.99 1521.91 1449.99 1527.13 L1449.99 1547.27 L1444.1 1547.27 L1444.1 1511.63 L1449.99 1511.63 L1449.99 1517.16 Q1452.09 1513.95 1454.92 1512.36 Q1457.79 1510.77 1461.51 1510.77 Q1467.65 1510.77 1470.81 1514.59 Q1473.96 1518.37 1473.96 1525.76 Z" fill="#000000" fill-rule="nonzero" fill-opacity="1" /><path clip-path="url(#clip940)" d="M1508.36 1512.68 L1508.36 1518.21 Q1505.88 1516.94 1503.21 1516.3 Q1500.53 1515.67 1497.67 1515.67 Q1493.31 1515.67 1491.11 1517.01 Q1488.95 1518.34 1488.95 1521.02 Q1488.95 1523.05 1490.51 1524.23 Q1492.07 1525.38 1496.78 1526.43 L1498.78 1526.87 Q1505.02 1528.21 1507.63 1530.66 Q1510.27 1533.08 1510.27 1537.44 Q1510.27 1542.4 1506.33 1545.3 Q1502.41 1548.2 1495.54 1548.2 Q1492.67 1548.2 1489.55 1547.62 Q1486.47 1547.08 1483.03 1545.97 L1483.03 1539.92 Q1486.27 1541.61 1489.43 1542.47 Q1492.58 1543.3 1495.66 1543.3 Q1499.8 1543.3 1502.03 1541.9 Q1504.26 1540.46 1504.26 1537.88 Q1504.26 1535.5 1502.63 1534.22 Q1501.04 1532.95 1495.6 1531.77 L1493.56 1531.3 Q1488.12 1530.15 1485.7 1527.79 Q1483.28 1525.41 1483.28 1521.27 Q1483.28 1516.24 1486.85 1513.5 Q1490.41 1510.77 1496.97 1510.77 Q1500.22 1510.77 1503.08 1511.24 Q1505.94 1511.72 1508.36 1512.68 Z" fill="#000000" fill-rule="nonzero" fill-opacity="1" /><path clip-path="url(#clip940)" d="M1519.6 1511.63 L1525.46 1511.63 L1525.46 1547.27 L1519.6 1547.27 L1519.6 1511.63 M1519.6 1497.75 L1525.46 1497.75 L1525.46 1505.16 L1519.6 1505.16 L1519.6 1497.75 Z" fill="#000000" fill-rule="nonzero" fill-opacity="1" /><path clip-path="url(#clip940)" d="M1551.52 1515.73 Q1546.81 1515.73 1544.08 1519.42 Q1541.34 1523.08 1541.34 1529.48 Q1541.34 1535.88 1544.04 1539.57 Q1546.78 1543.23 1551.52 1543.23 Q1556.2 1543.23 1558.94 1539.54 Q1561.68 1535.85 1561.68 1529.48 Q1561.68 1523.15 1558.94 1519.46 Q1556.2 1515.73 1551.52 1515.73 M1551.52 1510.77 Q1559.16 1510.77 1563.52 1515.73 Q1567.88 1520.7 1567.88 1529.48 Q1567.88 1538.23 1563.52 1543.23 Q1559.16 1548.2 1551.52 1548.2 Q1543.85 1548.2 1539.49 1543.23 Q1535.16 1538.23 1535.16 1529.48 Q1535.16 1520.7 1539.49 1515.73 Q1543.85 1510.77 1551.52 1510.77 Z" fill="#000000" fill-rule="nonzero" fill-opacity="1" /><path clip-path="url(#clip940)" d="M1607.22 1525.76 L1607.22 1547.27 L1601.37 1547.27 L1601.37 1525.95 Q1601.37 1520.89 1599.39 1518.37 Q1597.42 1515.86 1593.47 1515.86 Q1588.73 1515.86 1585.99 1518.88 Q1583.26 1521.91 1583.26 1527.13 L1583.26 1547.27 L1577.37 1547.27 L1577.37 1511.63 L1583.26 1511.63 L1583.26 1517.16 Q1585.36 1513.95 1588.19 1512.36 Q1591.05 1510.77 1594.78 1510.77 Q1600.92 1510.77 1604.07 1514.59 Q1607.22 1518.37 1607.22 1525.76 Z" fill="#000000" fill-rule="nonzero" fill-opacity="1" /><path clip-path="url(#clip940)" d="M1640.39 1517.67 L1681.19 1517.67 L1681.19 1523.02 L1640.39 1523.02 L1640.39 1517.67 M1640.39 1530.66 L1681.19 1530.66 L1681.19 1536.07 L1640.39 1536.07 L1640.39 1530.66 Z" fill="#000000" fill-rule="nonzero" fill-opacity="1" /><path clip-path="url(#clip940)" d="M1745.76 1519.09 Q1745.99 1519.32 1745.99 1519.64 Q1745.99 1519.96 1745.24 1520.7 L1729.56 1538.29 Q1735.55 1559.35 1738.84 1559.35 Q1739.83 1559.35 1740.86 1558.58 Q1741.93 1557.84 1742.35 1556.71 Q1742.51 1556.16 1742.67 1555.97 Q1742.83 1555.78 1743.28 1555.78 Q1744.05 1555.78 1744.05 1556.52 Q1744.05 1556.9 1743.7 1557.55 Q1743.34 1558.22 1742.7 1558.96 Q1742.06 1559.74 1740.93 1560.25 Q1739.8 1560.8 1738.45 1560.8 Q1736.77 1560.8 1735.42 1560.41 Q1734.07 1560.03 1733.3 1559.54 Q1732.52 1559.06 1731.81 1558.19 Q1731.14 1557.35 1730.88 1556.84 Q1730.66 1556.36 1730.27 1555.52 Q1729.5 1553.72 1728.79 1551.72 Q1728.08 1549.72 1727.63 1548.27 Q1727.18 1546.82 1725.79 1542.38 L1710.69 1559.35 Q1709.98 1560.06 1709.62 1560.06 Q1709.33 1560.06 1709.08 1559.8 Q1708.82 1559.58 1708.82 1559.29 Q1708.82 1558.96 1709.56 1558.22 L1724.73 1541.28 Q1724.95 1541.06 1725.08 1540.87 Q1725.21 1540.67 1725.21 1540.61 L1725.24 1540.54 Q1725.24 1540.38 1724.66 1538.32 Q1724.09 1536.26 1723.02 1533.07 Q1721.99 1529.85 1721.03 1527.5 Q1720.41 1525.92 1720 1524.96 Q1719.58 1523.99 1718.84 1522.54 Q1718.13 1521.09 1717.39 1520.35 Q1716.65 1519.58 1715.97 1519.58 Q1715.74 1519.58 1715.39 1519.67 Q1715.04 1519.77 1714.46 1520.03 Q1713.91 1520.25 1713.36 1520.9 Q1712.81 1521.51 1712.46 1522.41 Q1712.17 1523.12 1711.62 1523.12 Q1711.27 1523.12 1711.04 1522.96 Q1710.85 1522.8 1710.85 1522.64 L1710.82 1522.48 Q1710.82 1521.9 1711.36 1520.93 Q1711.91 1519.96 1713.26 1519.06 Q1714.62 1518.13 1716.36 1518.13 Q1718 1518.13 1719.35 1518.51 Q1720.7 1518.9 1721.44 1519.35 Q1722.22 1519.8 1722.89 1520.64 Q1723.57 1521.44 1723.76 1521.83 Q1723.99 1522.19 1724.34 1522.93 Q1725.44 1525.44 1726.15 1527.6 Q1726.89 1529.72 1729.01 1536.45 L1744.12 1519.64 Q1744.79 1518.84 1745.18 1518.84 Q1745.53 1518.84 1745.76 1519.09 Z" fill="#000000" fill-rule="nonzero" fill-opacity="1" /><polyline clip-path="url(#clip942)" style="stroke:#000000; stroke-linecap:round; stroke-linejoin:round; stroke-width:2; stroke-opacity:0.1; fill:none" points="251.372,1036.98 2352.76,1036.98 "/>
<polyline clip-path="url(#clip942)" style="stroke:#000000; stroke-linecap:round; stroke-linejoin:round; stroke-width:2; stroke-opacity:0.1; fill:none" points="251.372,499.44 2352.76,499.44 "/>
<polyline clip-path="url(#clip940)" style="stroke:#000000; stroke-linecap:round; stroke-linejoin:round; stroke-width:4; stroke-opacity:1; fill:none" points="251.372,1423.18 251.372,47.2441 "/>
<polyline clip-path="url(#clip940)" style="stroke:#000000; stroke-linecap:round; stroke-linejoin:round; stroke-width:4; stroke-opacity:1; fill:none" points="251.372,1036.98 270.27,1036.98 "/>
<polyline clip-path="url(#clip940)" style="stroke:#000000; stroke-linecap:round; stroke-linejoin:round; stroke-width:4; stroke-opacity:1; fill:none" points="251.372,499.44 270.27,499.44 "/>
<path clip-path="url(#clip940)" d="M114.931 1056.77 L122.57 1056.77 L122.57 1030.41 L114.26 1032.07 L114.26 1027.81 L122.524 1026.15 L127.2 1026.15 L127.2 1056.77 L134.839 1056.77 L134.839 1060.71 L114.931 1060.71 L114.931 1056.77 Z" fill="#000000" fill-rule="nonzero" fill-opacity="1" /><path clip-path="url(#clip940)" d="M154.283 1029.23 Q150.672 1029.23 148.843 1032.79 Q147.038 1036.33 147.038 1043.46 Q147.038 1050.57 148.843 1054.13 Q150.672 1057.67 154.283 1057.67 Q157.917 1057.67 159.723 1054.13 Q161.552 1050.57 161.552 1043.46 Q161.552 1036.33 159.723 1032.79 Q157.917 1029.23 154.283 1029.23 M154.283 1025.52 Q160.093 1025.52 163.149 1030.13 Q166.227 1034.71 166.227 1043.46 Q166.227 1052.19 163.149 1056.8 Q160.093 1061.38 154.283 1061.38 Q148.473 1061.38 145.394 1056.8 Q142.339 1052.19 142.339 1043.46 Q142.339 1034.71 145.394 1030.13 Q148.473 1025.52 154.283 1025.52 Z" fill="#000000" fill-rule="nonzero" fill-opacity="1" /><path clip-path="url(#clip940)" d="M166.227 1019.62 L190.339 1019.62 L190.339 1022.82 L166.227 1022.82 L166.227 1019.62 Z" fill="#000000" fill-rule="nonzero" fill-opacity="1" /><path clip-path="url(#clip940)" d="M199.197 1030.1 L205.404 1030.1 L205.404 1008.68 L198.652 1010.03 L198.652 1006.57 L205.366 1005.22 L209.166 1005.22 L209.166 1030.1 L215.372 1030.1 L215.372 1033.3 L199.197 1033.3 L199.197 1030.1 Z" fill="#000000" fill-rule="nonzero" fill-opacity="1" /><path clip-path="url(#clip940)" d="M144.667 519.233 L152.305 519.233 L152.305 492.867 L143.995 494.534 L143.995 490.275 L152.259 488.608 L156.935 488.608 L156.935 519.233 L164.574 519.233 L164.574 523.168 L144.667 523.168 L144.667 519.233 Z" fill="#000000" fill-rule="nonzero" fill-opacity="1" /><path clip-path="url(#clip940)" d="M184.018 491.687 Q180.407 491.687 178.578 495.251 Q176.773 498.793 176.773 505.923 Q176.773 513.029 178.578 516.594 Q180.407 520.136 184.018 520.136 Q187.652 520.136 189.458 516.594 Q191.287 513.029 191.287 505.923 Q191.287 498.793 189.458 495.251 Q187.652 491.687 184.018 491.687 M184.018 487.983 Q189.828 487.983 192.884 492.589 Q195.963 497.173 195.963 505.923 Q195.963 514.649 192.884 519.256 Q189.828 523.839 184.018 523.839 Q178.208 523.839 175.129 519.256 Q172.074 514.649 172.074 505.923 Q172.074 497.173 175.129 492.589 Q178.208 487.983 184.018 487.983 Z" fill="#000000" fill-rule="nonzero" fill-opacity="1" /><path clip-path="url(#clip940)" d="M205.667 470.179 Q202.733 470.179 201.248 473.075 Q199.781 475.953 199.781 481.746 Q199.781 487.52 201.248 490.416 Q202.733 493.294 205.667 493.294 Q208.62 493.294 210.087 490.416 Q211.573 487.52 211.573 481.746 Q211.573 475.953 210.087 473.075 Q208.62 470.179 205.667 470.179 M205.667 467.17 Q210.388 467.17 212.871 470.912 Q215.372 474.636 215.372 481.746 Q215.372 488.836 212.871 492.579 Q210.388 496.303 205.667 496.303 Q200.947 496.303 198.445 492.579 Q195.963 488.836 195.963 481.746 Q195.963 474.636 198.445 470.912 Q200.947 467.17 205.667 467.17 Z" fill="#000000" fill-rule="nonzero" fill-opacity="1" /><path clip-path="url(#clip940)" d="M20.1444 1040 L26.9239 1040 Q23.9002 1043.25 22.4043 1046.94 Q20.9083 1050.6 20.9083 1054.74 Q20.9083 1062.89 25.9054 1067.22 Q30.8707 1071.54 40.2919 1071.54 Q49.6813 1071.54 54.6784 1067.22 Q59.6436 1062.89 59.6436 1054.74 Q59.6436 1050.6 58.1477 1046.94 Q56.6518 1043.25 53.6281 1040 L60.3439 1040 Q62.6355 1043.38 63.7814 1047.16 Q64.9272 1050.92 64.9272 1055.12 Q64.9272 1065.91 58.3387 1072.12 Q51.7183 1078.32 40.2919 1078.32 Q28.8336 1078.32 22.2451 1072.12 Q15.6248 1065.91 15.6248 1055.12 Q15.6248 1050.86 16.7706 1047.1 Q17.8846 1043.31 20.1444 1040 Z" fill="#000000" fill-rule="nonzero" fill-opacity="1" /><path clip-path="url(#clip940)" d="M32.4621 1016.51 Q32.4621 1021.22 36.1542 1023.96 Q39.8145 1026.7 46.212 1026.7 Q52.6095 1026.7 56.3017 1023.99 Q59.9619 1021.25 59.9619 1016.51 Q59.9619 1011.83 56.2698 1009.1 Q52.5777 1006.36 46.212 1006.36 Q39.8781 1006.36 36.186 1009.1 Q32.4621 1011.83 32.4621 1016.51 M27.4968 1016.51 Q27.4968 1008.87 32.4621 1004.51 Q37.4273 1000.15 46.212 1000.15 Q54.9649 1000.15 59.9619 1004.51 Q64.9272 1008.87 64.9272 1016.51 Q64.9272 1024.18 59.9619 1028.54 Q54.9649 1032.87 46.212 1032.87 Q37.4273 1032.87 32.4621 1028.54 Q27.4968 1024.18 27.4968 1016.51 Z" fill="#000000" fill-rule="nonzero" fill-opacity="1" /><path clip-path="url(#clip940)" d="M35.1993 962.69 Q31.2526 960.494 29.3747 957.439 Q27.4968 954.383 27.4968 950.246 Q27.4968 944.676 31.4117 941.652 Q35.2948 938.628 42.4881 938.628 L64.0042 938.628 L64.0042 944.516 L42.679 944.516 Q37.5546 944.516 35.072 946.331 Q32.5894 948.145 32.5894 951.869 Q32.5894 956.42 35.6131 959.062 Q38.6368 961.704 43.8567 961.704 L64.0042 961.704 L64.0042 967.592 L42.679 967.592 Q37.5228 967.592 35.072 969.406 Q32.5894 971.221 32.5894 975.008 Q32.5894 979.496 35.6449 982.138 Q38.6686 984.779 43.8567 984.779 L64.0042 984.779 L64.0042 990.668 L28.3562 990.668 L28.3562 984.779 L33.8944 984.779 Q30.616 982.774 29.0564 979.973 Q27.4968 977.172 27.4968 973.321 Q27.4968 969.438 29.4702 966.733 Q31.4436 963.995 35.1993 962.69 Z" fill="#000000" fill-rule="nonzero" fill-opacity="1" /><path clip-path="url(#clip940)" d="M58.657 921.282 L77.5631 921.282 L77.5631 927.17 L28.3562 927.17 L28.3562 921.282 L33.7671 921.282 Q30.5842 919.436 29.0564 916.635 Q27.4968 913.802 27.4968 909.887 Q27.4968 903.394 32.6531 899.352 Q37.8093 895.278 46.212 895.278 Q54.6147 895.278 59.771 899.352 Q64.9272 903.394 64.9272 909.887 Q64.9272 913.802 63.3994 916.635 Q61.8398 919.436 58.657 921.282 M46.212 901.357 Q39.7508 901.357 36.0905 904.031 Q32.3984 906.672 32.3984 911.319 Q32.3984 915.966 36.0905 918.64 Q39.7508 921.282 46.212 921.282 Q52.6732 921.282 56.3653 918.64 Q60.0256 915.966 60.0256 911.319 Q60.0256 906.672 56.3653 904.031 Q52.6732 901.357 46.212 901.357 Z" fill="#000000" fill-rule="nonzero" fill-opacity="1" /><path clip-path="url(#clip940)" d="M49.9359 886.175 L28.3562 886.175 L28.3562 880.318 L49.7131 880.318 Q54.7739 880.318 57.3202 878.345 Q59.8346 876.372 59.8346 872.425 Q59.8346 867.682 56.8109 864.945 Q53.7872 862.176 48.5673 862.176 L28.3562 862.176 L28.3562 856.32 L64.0042 856.32 L64.0042 862.176 L58.5296 862.176 Q61.7762 864.308 63.3676 867.141 Q64.9272 869.942 64.9272 873.666 Q64.9272 879.809 61.1078 882.992 Q57.2883 886.175 49.9359 886.175 M27.4968 871.438 L27.4968 871.438 Z" fill="#000000" fill-rule="nonzero" fill-opacity="1" /><path clip-path="url(#clip940)" d="M18.2347 838.464 L28.3562 838.464 L28.3562 826.401 L32.9077 826.401 L32.9077 838.464 L52.2594 838.464 Q56.6199 838.464 57.8613 837.286 Q59.1026 836.077 59.1026 832.416 L59.1026 826.401 L64.0042 826.401 L64.0042 832.416 Q64.0042 839.196 61.4897 841.774 Q58.9434 844.352 52.2594 844.352 L32.9077 844.352 L32.9077 848.649 L28.3562 848.649 L28.3562 844.352 L18.2347 844.352 L18.2347 838.464 Z" fill="#000000" fill-rule="nonzero" fill-opacity="1" /><path clip-path="url(#clip940)" d="M46.0847 802.497 Q46.0847 809.595 47.7079 812.333 Q49.3312 815.07 53.2461 815.07 Q56.3653 815.07 58.2114 813.033 Q60.0256 810.964 60.0256 807.431 Q60.0256 802.561 56.5881 799.633 Q53.1188 796.673 47.3897 796.673 L46.0847 796.673 L46.0847 802.497 M43.6657 790.816 L64.0042 790.816 L64.0042 796.673 L58.5933 796.673 Q61.8398 798.678 63.3994 801.67 Q64.9272 804.662 64.9272 808.991 Q64.9272 814.465 61.8716 817.712 Q58.7843 820.926 53.6281 820.926 Q47.6125 820.926 44.5569 816.916 Q41.5014 812.874 41.5014 804.885 L41.5014 796.673 L40.9285 796.673 Q36.8862 796.673 34.6901 799.346 Q32.4621 801.988 32.4621 806.794 Q32.4621 809.85 33.1941 812.746 Q33.9262 815.643 35.3903 818.316 L29.9795 818.316 Q28.7381 815.102 28.1334 812.078 Q27.4968 809.054 27.4968 806.19 Q27.4968 798.455 31.5072 794.636 Q35.5176 790.816 43.6657 790.816 Z" fill="#000000" fill-rule="nonzero" fill-opacity="1" /><path clip-path="url(#clip940)" d="M18.2347 772.961 L28.3562 772.961 L28.3562 760.898 L32.9077 760.898 L32.9077 772.961 L52.2594 772.961 Q56.6199 772.961 57.8613 771.783 Q59.1026 770.573 59.1026 766.913 L59.1026 760.898 L64.0042 760.898 L64.0042 766.913 Q64.0042 773.693 61.4897 776.271 Q58.9434 778.849 52.2594 778.849 L32.9077 778.849 L32.9077 783.146 L28.3562 783.146 L28.3562 778.849 L18.2347 778.849 L18.2347 772.961 Z" fill="#000000" fill-rule="nonzero" fill-opacity="1" /><path clip-path="url(#clip940)" d="M28.3562 753.195 L28.3562 747.339 L64.0042 747.339 L64.0042 753.195 L28.3562 753.195 M14.479 753.195 L14.479 747.339 L21.895 747.339 L21.895 753.195 L14.479 753.195 Z" fill="#000000" fill-rule="nonzero" fill-opacity="1" /><path clip-path="url(#clip940)" d="M32.4621 721.271 Q32.4621 725.982 36.1542 728.719 Q39.8145 731.456 46.212 731.456 Q52.6095 731.456 56.3017 728.751 Q59.9619 726.014 59.9619 721.271 Q59.9619 716.592 56.2698 713.855 Q52.5777 711.118 46.212 711.118 Q39.8781 711.118 36.186 713.855 Q32.4621 716.592 32.4621 721.271 M27.4968 721.271 Q27.4968 713.632 32.4621 709.272 Q37.4273 704.911 46.212 704.911 Q54.9649 704.911 59.9619 709.272 Q64.9272 713.632 64.9272 721.271 Q64.9272 728.942 59.9619 733.302 Q54.9649 737.631 46.212 737.631 Q37.4273 737.631 32.4621 733.302 Q27.4968 728.942 27.4968 721.271 Z" fill="#000000" fill-rule="nonzero" fill-opacity="1" /><path clip-path="url(#clip940)" d="M42.4881 665.571 L64.0042 665.571 L64.0042 671.428 L42.679 671.428 Q37.6183 671.428 35.1038 673.401 Q32.5894 675.374 32.5894 679.321 Q32.5894 684.064 35.6131 686.801 Q38.6368 689.538 43.8567 689.538 L64.0042 689.538 L64.0042 695.426 L28.3562 695.426 L28.3562 689.538 L33.8944 689.538 Q30.6797 687.437 29.0883 684.605 Q27.4968 681.74 27.4968 678.016 Q27.4968 671.873 31.3163 668.722 Q35.1038 665.571 42.4881 665.571 Z" fill="#000000" fill-rule="nonzero" fill-opacity="1" /><path clip-path="url(#clip940)" d="M18.2347 627.377 L28.3562 627.377 L28.3562 615.314 L32.9077 615.314 L32.9077 627.377 L52.2594 627.377 Q56.6199 627.377 57.8613 626.199 Q59.1026 624.99 59.1026 621.329 L59.1026 615.314 L64.0042 615.314 L64.0042 621.329 Q64.0042 628.109 61.4897 630.687 Q58.9434 633.265 52.2594 633.265 L32.9077 633.265 L32.9077 637.562 L28.3562 637.562 L28.3562 633.265 L18.2347 633.265 L18.2347 627.377 Z" fill="#000000" fill-rule="nonzero" fill-opacity="1" /><path clip-path="url(#clip940)" d="M28.3562 607.611 L28.3562 601.755 L64.0042 601.755 L64.0042 607.611 L28.3562 607.611 M14.479 607.611 L14.479 601.755 L21.895 601.755 L21.895 607.611 L14.479 607.611 Z" fill="#000000" fill-rule="nonzero" fill-opacity="1" /><path clip-path="url(#clip940)" d="M35.1993 561.746 Q31.2526 559.55 29.3747 556.495 Q27.4968 553.439 27.4968 549.302 Q27.4968 543.732 31.4117 540.708 Q35.2948 537.684 42.4881 537.684 L64.0042 537.684 L64.0042 543.572 L42.679 543.572 Q37.5546 543.572 35.072 545.387 Q32.5894 547.201 32.5894 550.925 Q32.5894 555.476 35.6131 558.118 Q38.6368 560.76 43.8567 560.76 L64.0042 560.76 L64.0042 566.648 L42.679 566.648 Q37.5228 566.648 35.072 568.462 Q32.5894 570.277 32.5894 574.064 Q32.5894 578.552 35.6449 581.194 Q38.6686 583.835 43.8567 583.835 L64.0042 583.835 L64.0042 589.724 L28.3562 589.724 L28.3562 583.835 L33.8944 583.835 Q30.616 581.83 29.0564 579.029 Q27.4968 576.228 27.4968 572.377 Q27.4968 568.494 29.4702 565.789 Q31.4436 563.051 35.1993 561.746 Z" fill="#000000" fill-rule="nonzero" fill-opacity="1" /><path clip-path="url(#clip940)" d="M44.7161 495.511 L47.5806 495.511 L47.5806 522.438 Q53.6281 522.056 56.8109 518.81 Q59.9619 515.531 59.9619 509.707 Q59.9619 506.333 59.1344 503.182 Q58.3069 499.999 56.6518 496.88 L62.1899 496.88 Q63.5267 500.031 64.227 503.341 Q64.9272 506.651 64.9272 510.057 Q64.9272 518.587 59.9619 523.584 Q54.9967 528.549 46.5303 528.549 Q37.7774 528.549 32.6531 523.839 Q27.4968 519.096 27.4968 511.075 Q27.4968 503.882 32.1438 499.713 Q36.7589 495.511 44.7161 495.511 M42.9973 501.368 Q38.1912 501.431 35.3266 504.073 Q32.4621 506.683 32.4621 511.012 Q32.4621 515.913 35.2312 518.873 Q38.0002 521.802 43.0292 522.247 L42.9973 501.368 Z" fill="#000000" fill-rule="nonzero" fill-opacity="1" /><path clip-path="url(#clip940)" d="M14.479 465.72 L14.479 452.224 L19.0304 452.224 L19.0304 459.863 L68.0464 459.863 L68.0464 452.224 L72.5979 452.224 L72.5979 465.72 L14.479 465.72 Z" fill="#000000" fill-rule="nonzero" fill-opacity="1" /><path clip-path="url(#clip940)" d="M29.4065 417.022 L34.9447 417.022 Q33.6716 419.505 33.035 422.178 Q32.3984 424.852 32.3984 427.717 Q32.3984 432.077 33.7352 434.273 Q35.072 436.438 37.7456 436.438 Q39.7826 436.438 40.9603 434.878 Q42.1061 433.318 43.1565 428.608 L43.6021 426.603 Q44.9389 420.364 47.3897 417.754 Q49.8086 415.112 54.1691 415.112 Q59.1344 415.112 62.0308 419.059 Q64.9272 422.974 64.9272 429.849 Q64.9272 432.714 64.3543 435.833 Q63.8132 438.92 62.6992 442.358 L56.6518 442.358 Q58.3387 439.111 59.198 435.96 Q60.0256 432.809 60.0256 429.722 Q60.0256 425.584 58.6251 423.356 Q57.1929 421.128 54.6147 421.128 Q52.2276 421.128 50.9545 422.751 Q49.6813 424.343 48.5037 429.785 L48.0262 431.822 Q46.8804 437.265 44.5251 439.684 Q42.138 442.103 38.0002 442.103 Q32.9713 442.103 30.2341 438.538 Q27.4968 434.973 27.4968 428.417 Q27.4968 425.17 27.9743 422.306 Q28.4517 419.441 29.4065 417.022 Z" fill="#000000" fill-rule="nonzero" fill-opacity="1" /><path clip-path="url(#clip940)" d="M14.479 392.1 L72.5979 392.1 L72.5979 405.596 L68.0464 405.596 L68.0464 397.989 L19.0304 397.989 L19.0304 405.596 L14.479 405.596 L14.479 392.1 Z" fill="#000000" fill-rule="nonzero" fill-opacity="1" /><circle clip-path="url(#clip942)" cx="310.845" cy="1237.8" r="14.4" fill="#009af9" fill-rule="evenodd" fill-opacity="1" stroke="#000000" stroke-opacity="1" stroke-width="3.2"/>
<circle clip-path="url(#clip942)" cx="462.556" cy="1041.59" r="14.4" fill="#009af9" fill-rule="evenodd" fill-opacity="1" stroke="#000000" stroke-opacity="1" stroke-width="3.2"/>
<circle clip-path="url(#clip942)" cx="570.196" cy="1182.13" r="14.4" fill="#009af9" fill-rule="evenodd" fill-opacity="1" stroke="#000000" stroke-opacity="1" stroke-width="3.2"/>
<circle clip-path="url(#clip942)" cx="653.688" cy="1213.41" r="14.4" fill="#009af9" fill-rule="evenodd" fill-opacity="1" stroke="#000000" stroke-opacity="1" stroke-width="3.2"/>
<circle clip-path="url(#clip942)" cx="721.906" cy="1163.03" r="14.4" fill="#009af9" fill-rule="evenodd" fill-opacity="1" stroke="#000000" stroke-opacity="1" stroke-width="3.2"/>
<circle clip-path="url(#clip942)" cx="779.584" cy="1162.36" r="14.4" fill="#009af9" fill-rule="evenodd" fill-opacity="1" stroke="#000000" stroke-opacity="1" stroke-width="3.2"/>
<circle clip-path="url(#clip942)" cx="829.546" cy="1125.96" r="14.4" fill="#009af9" fill-rule="evenodd" fill-opacity="1" stroke="#000000" stroke-opacity="1" stroke-width="3.2"/>
<circle clip-path="url(#clip942)" cx="873.616" cy="1135.18" r="14.4" fill="#009af9" fill-rule="evenodd" fill-opacity="1" stroke="#000000" stroke-opacity="1" stroke-width="3.2"/>
<circle clip-path="url(#clip942)" cx="913.038" cy="1100.13" r="14.4" fill="#009af9" fill-rule="evenodd" fill-opacity="1" stroke="#000000" stroke-opacity="1" stroke-width="3.2"/>
<circle clip-path="url(#clip942)" cx="948.7" cy="1092.35" r="14.4" fill="#009af9" fill-rule="evenodd" fill-opacity="1" stroke="#000000" stroke-opacity="1" stroke-width="3.2"/>
<circle clip-path="url(#clip942)" cx="981.256" cy="1104.03" r="14.4" fill="#009af9" fill-rule="evenodd" fill-opacity="1" stroke="#000000" stroke-opacity="1" stroke-width="3.2"/>
<circle clip-path="url(#clip942)" cx="1011.21" cy="1080.55" r="14.4" fill="#009af9" fill-rule="evenodd" fill-opacity="1" stroke="#000000" stroke-opacity="1" stroke-width="3.2"/>
<circle clip-path="url(#clip942)" cx="1038.93" cy="1051.48" r="14.4" fill="#009af9" fill-rule="evenodd" fill-opacity="1" stroke="#000000" stroke-opacity="1" stroke-width="3.2"/>
<circle clip-path="url(#clip942)" cx="1064.75" cy="1063.53" r="14.4" fill="#009af9" fill-rule="evenodd" fill-opacity="1" stroke="#000000" stroke-opacity="1" stroke-width="3.2"/>
<circle clip-path="url(#clip942)" cx="1088.9" cy="1051.53" r="14.4" fill="#009af9" fill-rule="evenodd" fill-opacity="1" stroke="#000000" stroke-opacity="1" stroke-width="3.2"/>
<circle clip-path="url(#clip942)" cx="1111.58" cy="1035.83" r="14.4" fill="#009af9" fill-rule="evenodd" fill-opacity="1" stroke="#000000" stroke-opacity="1" stroke-width="3.2"/>
<circle clip-path="url(#clip942)" cx="1132.97" cy="1072.84" r="14.4" fill="#009af9" fill-rule="evenodd" fill-opacity="1" stroke="#000000" stroke-opacity="1" stroke-width="3.2"/>
<circle clip-path="url(#clip942)" cx="1153.2" cy="1012.3" r="14.4" fill="#009af9" fill-rule="evenodd" fill-opacity="1" stroke="#000000" stroke-opacity="1" stroke-width="3.2"/>
<circle clip-path="url(#clip942)" cx="1172.39" cy="1015.38" r="14.4" fill="#009af9" fill-rule="evenodd" fill-opacity="1" stroke="#000000" stroke-opacity="1" stroke-width="3.2"/>
<circle clip-path="url(#clip942)" cx="1240.61" cy="954.733" r="14.4" fill="#009af9" fill-rule="evenodd" fill-opacity="1" stroke="#000000" stroke-opacity="1" stroke-width="3.2"/>
<circle clip-path="url(#clip942)" cx="1298.28" cy="942.178" r="14.4" fill="#009af9" fill-rule="evenodd" fill-opacity="1" stroke="#000000" stroke-opacity="1" stroke-width="3.2"/>
<circle clip-path="url(#clip942)" cx="1348.25" cy="916.952" r="14.4" fill="#009af9" fill-rule="evenodd" fill-opacity="1" stroke="#000000" stroke-opacity="1" stroke-width="3.2"/>
<circle clip-path="url(#clip942)" cx="1392.32" cy="902.508" r="14.4" fill="#009af9" fill-rule="evenodd" fill-opacity="1" stroke="#000000" stroke-opacity="1" stroke-width="3.2"/>
<circle clip-path="url(#clip942)" cx="1431.74" cy="870.638" r="14.4" fill="#009af9" fill-rule="evenodd" fill-opacity="1" stroke="#000000" stroke-opacity="1" stroke-width="3.2"/>
<circle clip-path="url(#clip942)" cx="1467.4" cy="857.913" r="14.4" fill="#009af9" fill-rule="evenodd" fill-opacity="1" stroke="#000000" stroke-opacity="1" stroke-width="3.2"/>
<circle clip-path="url(#clip942)" cx="1499.96" cy="833.232" r="14.4" fill="#009af9" fill-rule="evenodd" fill-opacity="1" stroke="#000000" stroke-opacity="1" stroke-width="3.2"/>
<circle clip-path="url(#clip942)" cx="1529.91" cy="812.164" r="14.4" fill="#009af9" fill-rule="evenodd" fill-opacity="1" stroke="#000000" stroke-opacity="1" stroke-width="3.2"/>
<circle clip-path="url(#clip942)" cx="1557.63" cy="792.986" r="14.4" fill="#009af9" fill-rule="evenodd" fill-opacity="1" stroke="#000000" stroke-opacity="1" stroke-width="3.2"/>
<circle clip-path="url(#clip942)" cx="1583.45" cy="776.922" r="14.4" fill="#009af9" fill-rule="evenodd" fill-opacity="1" stroke="#000000" stroke-opacity="1" stroke-width="3.2"/>
<circle clip-path="url(#clip942)" cx="1641.13" cy="743.525" r="14.4" fill="#009af9" fill-rule="evenodd" fill-opacity="1" stroke="#000000" stroke-opacity="1" stroke-width="3.2"/>
<circle clip-path="url(#clip942)" cx="1691.09" cy="655.808" r="14.4" fill="#009af9" fill-rule="evenodd" fill-opacity="1" stroke="#000000" stroke-opacity="1" stroke-width="3.2"/>
<circle clip-path="url(#clip942)" cx="1735.16" cy="654.442" r="14.4" fill="#009af9" fill-rule="evenodd" fill-opacity="1" stroke="#000000" stroke-opacity="1" stroke-width="3.2"/>
<circle clip-path="url(#clip942)" cx="1774.58" cy="620.78" r="14.4" fill="#009af9" fill-rule="evenodd" fill-opacity="1" stroke="#000000" stroke-opacity="1" stroke-width="3.2"/>
<circle clip-path="url(#clip942)" cx="1842.8" cy="549.119" r="14.4" fill="#009af9" fill-rule="evenodd" fill-opacity="1" stroke="#000000" stroke-opacity="1" stroke-width="3.2"/>
<circle clip-path="url(#clip942)" cx="1900.48" cy="497.36" r="14.4" fill="#009af9" fill-rule="evenodd" fill-opacity="1" stroke="#000000" stroke-opacity="1" stroke-width="3.2"/>
<circle clip-path="url(#clip942)" cx="1950.44" cy="436.071" r="14.4" fill="#009af9" fill-rule="evenodd" fill-opacity="1" stroke="#000000" stroke-opacity="1" stroke-width="3.2"/>
<circle clip-path="url(#clip942)" cx="1994.51" cy="380.675" r="14.4" fill="#009af9" fill-rule="evenodd" fill-opacity="1" stroke="#000000" stroke-opacity="1" stroke-width="3.2"/>
<circle clip-path="url(#clip942)" cx="2033.93" cy="327.29" r="14.4" fill="#009af9" fill-rule="evenodd" fill-opacity="1" stroke="#000000" stroke-opacity="1" stroke-width="3.2"/>
<circle clip-path="url(#clip942)" cx="2185.64" cy="189.821" r="14.4" fill="#009af9" fill-rule="evenodd" fill-opacity="1" stroke="#000000" stroke-opacity="1" stroke-width="3.2"/>
<circle clip-path="url(#clip942)" cx="2293.28" cy="90.8817" r="14.4" fill="#009af9" fill-rule="evenodd" fill-opacity="1" stroke="#000000" stroke-opacity="1" stroke-width="3.2"/>
<polyline clip-path="url(#clip942)" style="stroke:#20b2aa; stroke-linecap:round; stroke-linejoin:round; stroke-width:8; stroke-opacity:1; fill:none" stroke-dasharray="4, 8" points="310.845,1384.24 462.556,1344.82 570.196,1310.71 653.688,1280.59 721.906,1253.61 779.584,1229.15 829.546,1206.75 873.616,1186.08 913.038,1166.87 948.7,1148.92 981.256,1132.07 1011.21,1116.18 1038.93,1101.14 1064.75,1086.86 1088.9,1073.25 1111.58,1060.26 1132.97,1047.83 1153.2,1035.89 1172.39,1024.43 1240.61,982.49 1298.28,945.606 1348.25,912.596 1392.32,882.654 1431.74,855.207 1467.4,829.832 1499.96,806.208 1529.91,784.083 1557.63,763.261 1583.45,743.579 1641.13,698.556 1691.09,658.367 1735.16,621.986 1774.58,588.693 1842.8,529.398 1900.48,477.593 1950.44,431.486 1994.51,389.879 2033.93,351.926 2185.64,199.688 2293.28,86.1857 "/>
<path clip-path="url(#clip940)" d="M321.418 222.709 L2250.71 222.709 L2250.71 93.1086 L321.418 93.1086  Z" fill="#ffffff" fill-rule="evenodd" fill-opacity="1"/>
<polyline clip-path="url(#clip940)" style="stroke:#000000; stroke-linecap:round; stroke-linejoin:round; stroke-width:4; stroke-opacity:1; fill:none" points="321.418,222.709 2250.71,222.709 2250.71,93.1086 321.418,93.1086 321.418,222.709 "/>
<polyline clip-path="url(#clip940)" style="stroke:#20b2aa; stroke-linecap:round; stroke-linejoin:round; stroke-width:10; stroke-opacity:1; fill:none" stroke-dasharray="5, 10" points="344.767,157.909 484.859,157.909 "/>
<path clip-path="url(#clip940)" d="M508.208 131.433 L544.753 131.433 L544.753 136.352 L529.417 136.352 L529.417 174.633 L523.544 174.633 L523.544 136.352 L508.208 136.352 L508.208 131.433 Z" fill="#000000" fill-rule="nonzero" fill-opacity="1" /><path clip-path="url(#clip940)" d="M548.341 142.225 L553.665 142.225 L553.665 174.633 L548.341 174.633 L548.341 142.225 M548.341 129.61 L553.665 129.61 L553.665 136.352 L548.341 136.352 L548.341 129.61 Z" fill="#000000" fill-rule="nonzero" fill-opacity="1" /><path clip-path="url(#clip940)" d="M590.036 148.446 Q592.033 144.859 594.811 143.151 Q597.588 141.444 601.35 141.444 Q606.413 141.444 609.162 145.003 Q611.911 148.533 611.911 155.073 L611.911 174.633 L606.558 174.633 L606.558 155.246 Q606.558 150.588 604.909 148.331 Q603.26 146.074 599.874 146.074 Q595.736 146.074 593.335 148.823 Q590.933 151.571 590.933 156.317 L590.933 174.633 L585.58 174.633 L585.58 155.246 Q585.58 150.559 583.931 148.331 Q582.282 146.074 578.838 146.074 Q574.759 146.074 572.357 148.852 Q569.955 151.6 569.955 156.317 L569.955 174.633 L564.602 174.633 L564.602 142.225 L569.955 142.225 L569.955 147.26 Q571.778 144.28 574.325 142.862 Q576.871 141.444 580.372 141.444 Q583.902 141.444 586.361 143.238 Q588.85 145.032 590.036 148.446 Z" fill="#000000" fill-rule="nonzero" fill-opacity="1" /><path clip-path="url(#clip940)" d="M650.25 157.098 L650.25 159.702 L625.771 159.702 Q626.118 165.2 629.07 168.093 Q632.05 170.958 637.345 170.958 Q640.412 170.958 643.277 170.206 Q646.17 169.453 649.006 167.949 L649.006 172.983 Q646.141 174.199 643.132 174.835 Q640.123 175.472 637.027 175.472 Q629.272 175.472 624.729 170.958 Q620.215 166.444 620.215 158.747 Q620.215 150.79 624.498 146.132 Q628.809 141.444 636.101 141.444 Q642.64 141.444 646.431 145.669 Q650.25 149.864 650.25 157.098 M644.926 155.536 Q644.868 151.166 642.467 148.562 Q640.094 145.958 636.159 145.958 Q631.703 145.958 629.012 148.475 Q626.35 150.993 625.945 155.564 L644.926 155.536 Z" fill="#000000" fill-rule="nonzero" fill-opacity="1" /><path clip-path="url(#clip940)" d="M677.333 129.61 L689.602 129.61 L689.602 133.747 L682.657 133.747 L682.657 178.307 L689.602 178.307 L689.602 182.445 L677.333 182.445 L677.333 129.61 Z" fill="#000000" fill-rule="nonzero" fill-opacity="1" /><path clip-path="url(#clip940)" d="M721.604 143.18 L721.604 148.215 Q719.347 147.058 716.916 146.479 Q714.486 145.9 711.882 145.9 Q707.918 145.9 705.921 147.115 Q703.953 148.331 703.953 150.761 Q703.953 152.613 705.371 153.684 Q706.789 154.725 711.071 155.68 L712.894 156.085 Q718.566 157.301 720.938 159.529 Q723.34 161.728 723.34 165.692 Q723.34 170.206 719.752 172.839 Q716.193 175.472 709.943 175.472 Q707.339 175.472 704.503 174.951 Q701.697 174.459 698.572 173.446 L698.572 167.949 Q701.523 169.482 704.387 170.263 Q707.252 171.016 710.059 171.016 Q713.82 171.016 715.846 169.743 Q717.871 168.441 717.871 166.097 Q717.871 163.927 716.396 162.769 Q714.949 161.612 710.001 160.541 L708.149 160.107 Q703.201 159.066 701.002 156.924 Q698.803 154.754 698.803 150.993 Q698.803 146.421 702.044 143.933 Q705.284 141.444 711.245 141.444 Q714.196 141.444 716.801 141.878 Q719.405 142.312 721.604 143.18 Z" fill="#000000" fill-rule="nonzero" fill-opacity="1" /><path clip-path="url(#clip940)" d="M744.26 129.61 L744.26 182.445 L731.991 182.445 L731.991 178.307 L738.907 178.307 L738.907 133.747 L731.991 133.747 L731.991 129.61 L744.26 129.61 Z" fill="#000000" fill-rule="nonzero" fill-opacity="1" /><path clip-path="url(#clip940)" d="M774.468 147.723 L811.563 147.723 L811.563 152.584 L774.468 152.584 L774.468 147.723 M774.468 159.529 L811.563 159.529 L811.563 164.448 L774.468 164.448 L774.468 159.529 Z" fill="#000000" fill-rule="nonzero" fill-opacity="1" /><path clip-path="url(#clip940)" d="M844.028 169.714 L853.576 169.714 L853.576 136.757 L843.189 138.84 L843.189 133.516 L853.519 131.433 L859.363 131.433 L859.363 169.714 L868.912 169.714 L868.912 174.633 L844.028 174.633 L844.028 169.714 Z" fill="#000000" fill-rule="nonzero" fill-opacity="1" /><path clip-path="url(#clip940)" d="M880.718 167.283 L886.823 167.283 L886.823 174.633 L880.718 174.633 L880.718 167.283 Z" fill="#000000" fill-rule="nonzero" fill-opacity="1" /><path clip-path="url(#clip940)" d="M912.054 135.281 Q907.54 135.281 905.254 139.737 Q902.998 144.164 902.998 153.076 Q902.998 161.959 905.254 166.415 Q907.54 170.842 912.054 170.842 Q916.597 170.842 918.854 166.415 Q921.14 161.959 921.14 153.076 Q921.14 144.164 918.854 139.737 Q916.597 135.281 912.054 135.281 M912.054 130.651 Q919.317 130.651 923.136 136.41 Q926.985 142.139 926.985 153.076 Q926.985 163.985 923.136 169.743 Q919.317 175.472 912.054 175.472 Q904.791 175.472 900.943 169.743 Q897.124 163.985 897.124 153.076 Q897.124 142.139 900.943 136.41 Q904.791 130.651 912.054 130.651 Z" fill="#000000" fill-rule="nonzero" fill-opacity="1" /><path clip-path="url(#clip940)" d="M950.48 150.703 Q946.545 150.703 944.23 153.394 Q941.944 156.085 941.944 160.773 Q941.944 165.431 944.23 168.151 Q946.545 170.842 950.48 170.842 Q954.415 170.842 956.701 168.151 Q959.016 165.431 959.016 160.773 Q959.016 156.085 956.701 153.394 Q954.415 150.703 950.48 150.703 M962.083 132.388 L962.083 137.712 Q959.884 136.67 957.627 136.12 Q955.399 135.57 953.2 135.57 Q947.413 135.57 944.346 139.477 Q941.307 143.383 940.873 151.282 Q942.581 148.765 945.156 147.434 Q947.731 146.074 950.827 146.074 Q957.338 146.074 961.099 150.038 Q964.89 153.973 964.89 160.773 Q964.89 167.428 960.954 171.45 Q957.019 175.472 950.48 175.472 Q942.986 175.472 939.022 169.743 Q935.058 163.985 935.058 153.076 Q935.058 142.833 939.919 136.757 Q944.78 130.651 952.968 130.651 Q955.167 130.651 957.395 131.085 Q959.652 131.519 962.083 132.388 Z" fill="#000000" fill-rule="nonzero" fill-opacity="1" /><path clip-path="url(#clip940)" d="M1001.93 157.098 L1001.93 159.702 L977.447 159.702 Q977.795 165.2 980.746 168.093 Q983.726 170.958 989.021 170.958 Q992.088 170.958 994.953 170.206 Q997.847 169.453 1000.68 167.949 L1000.68 172.983 Q997.818 174.199 994.808 174.835 Q991.799 175.472 988.703 175.472 Q980.948 175.472 976.406 170.958 Q971.892 166.444 971.892 158.747 Q971.892 150.79 976.174 146.132 Q980.486 141.444 987.777 141.444 Q994.316 141.444 998.107 145.669 Q1001.93 149.864 1001.93 157.098 M996.602 155.536 Q996.544 151.166 994.143 148.562 Q991.77 145.958 987.835 145.958 Q983.379 145.958 980.688 148.475 Q978.026 150.993 977.621 155.564 L996.602 155.536 Z" fill="#000000" fill-rule="nonzero" fill-opacity="1" /><path clip-path="url(#clip940)" d="M1007.97 156.027 L1023.57 156.027 L1023.57 160.773 L1007.97 160.773 L1007.97 156.027 Z" fill="#000000" fill-rule="nonzero" fill-opacity="1" /><path clip-path="url(#clip940)" d="M1045.3 135.281 Q1040.79 135.281 1038.5 139.737 Q1036.24 144.164 1036.24 153.076 Q1036.24 161.959 1038.5 166.415 Q1040.79 170.842 1045.3 170.842 Q1049.84 170.842 1052.1 166.415 Q1054.39 161.959 1054.39 153.076 Q1054.39 144.164 1052.1 139.737 Q1049.84 135.281 1045.3 135.281 M1045.3 130.651 Q1052.56 130.651 1056.38 136.41 Q1060.23 142.139 1060.23 153.076 Q1060.23 163.985 1056.38 169.743 Q1052.56 175.472 1045.3 175.472 Q1038.04 175.472 1034.19 169.743 Q1030.37 163.985 1030.37 153.076 Q1030.37 142.139 1034.19 136.41 Q1038.04 130.651 1045.3 130.651 Z" fill="#000000" fill-rule="nonzero" fill-opacity="1" /><path clip-path="url(#clip940)" d="M1083.73 150.703 Q1079.79 150.703 1077.48 153.394 Q1075.19 156.085 1075.19 160.773 Q1075.19 165.431 1077.48 168.151 Q1079.79 170.842 1083.73 170.842 Q1087.66 170.842 1089.95 168.151 Q1092.26 165.431 1092.26 160.773 Q1092.26 156.085 1089.95 153.394 Q1087.66 150.703 1083.73 150.703 M1095.33 132.388 L1095.33 137.712 Q1093.13 136.67 1090.87 136.12 Q1088.64 135.57 1086.45 135.57 Q1080.66 135.57 1077.59 139.477 Q1074.55 143.383 1074.12 151.282 Q1075.83 148.765 1078.4 147.434 Q1080.98 146.074 1084.07 146.074 Q1090.58 146.074 1094.34 150.038 Q1098.14 153.973 1098.14 160.773 Q1098.14 167.428 1094.2 171.45 Q1090.27 175.472 1083.73 175.472 Q1076.23 175.472 1072.27 169.743 Q1068.3 163.985 1068.3 153.076 Q1068.3 142.833 1073.16 136.757 Q1078.03 130.651 1086.21 130.651 Q1088.41 130.651 1090.64 131.085 Q1092.9 131.519 1095.33 132.388 Z" fill="#000000" fill-rule="nonzero" fill-opacity="1" /><path clip-path="url(#clip940)" d="M1125.8 129.61 L1138.07 129.61 L1138.07 133.747 L1131.12 133.747 L1131.12 178.307 L1138.07 178.307 L1138.07 182.445 L1125.8 182.445 L1125.8 129.61 Z" fill="#000000" fill-rule="nonzero" fill-opacity="1" /><path clip-path="url(#clip940)" d="M1170.07 143.18 L1170.07 148.215 Q1167.81 147.058 1165.38 146.479 Q1162.95 145.9 1160.35 145.9 Q1156.38 145.9 1154.39 147.115 Q1152.42 148.331 1152.42 150.761 Q1152.42 152.613 1153.84 153.684 Q1155.25 154.725 1159.54 155.68 L1161.36 156.085 Q1167.03 157.301 1169.4 159.529 Q1171.8 161.728 1171.8 165.692 Q1171.8 170.206 1168.22 172.839 Q1164.66 175.472 1158.41 175.472 Q1155.8 175.472 1152.97 174.951 Q1150.16 174.459 1147.04 173.446 L1147.04 167.949 Q1149.99 169.482 1152.85 170.263 Q1155.72 171.016 1158.52 171.016 Q1162.28 171.016 1164.31 169.743 Q1166.34 168.441 1166.34 166.097 Q1166.34 163.927 1164.86 162.769 Q1163.41 161.612 1158.46 160.541 L1156.61 160.107 Q1151.67 159.066 1149.47 156.924 Q1147.27 154.754 1147.27 150.993 Q1147.27 146.421 1150.51 143.933 Q1153.75 141.444 1159.71 141.444 Q1162.66 141.444 1165.26 141.878 Q1167.87 142.312 1170.07 143.18 Z" fill="#000000" fill-rule="nonzero" fill-opacity="1" /><path clip-path="url(#clip940)" d="M1192.72 129.61 L1192.72 182.445 L1180.46 182.445 L1180.46 178.307 L1187.37 178.307 L1187.37 133.747 L1180.46 133.747 L1180.46 129.61 L1192.72 129.61 Z" fill="#000000" fill-rule="nonzero" fill-opacity="1" /><path clip-path="url(#clip940)" d="M1226.31 149.014 Q1226.51 149.219 1226.51 149.512 Q1226.51 149.805 1225.84 150.478 L1211.58 166.464 Q1217.02 185.612 1220.01 185.612 Q1220.92 185.612 1221.86 184.909 Q1222.82 184.236 1223.2 183.211 Q1223.35 182.713 1223.5 182.538 Q1223.64 182.362 1224.05 182.362 Q1224.75 182.362 1224.75 183.035 Q1224.75 183.387 1224.43 183.972 Q1224.11 184.587 1223.52 185.261 Q1222.94 185.963 1221.91 186.432 Q1220.89 186.929 1219.66 186.929 Q1218.14 186.929 1216.91 186.578 Q1215.68 186.227 1214.98 185.788 Q1214.27 185.348 1213.63 184.558 Q1213.01 183.797 1212.78 183.328 Q1212.57 182.889 1212.22 182.128 Q1211.52 180.488 1210.88 178.673 Q1210.23 176.858 1209.82 175.54 Q1209.41 174.223 1208.15 170.182 L1194.42 185.612 Q1193.78 186.256 1193.46 186.256 Q1193.19 186.256 1192.96 186.022 Q1192.72 185.817 1192.72 185.553 Q1192.72 185.261 1193.4 184.587 L1207.19 169.187 Q1207.39 168.982 1207.51 168.806 Q1207.63 168.631 1207.63 168.572 L1207.66 168.514 Q1207.66 168.367 1207.13 166.493 Q1206.6 164.62 1205.64 161.721 Q1204.7 158.793 1203.82 156.656 Q1203.26 155.221 1202.88 154.343 Q1202.5 153.465 1201.83 152.147 Q1201.19 150.83 1200.51 150.156 Q1199.84 149.454 1199.22 149.454 Q1199.02 149.454 1198.7 149.541 Q1198.37 149.629 1197.85 149.863 Q1197.35 150.068 1196.85 150.654 Q1196.35 151.21 1196.03 152.03 Q1195.77 152.674 1195.27 152.674 Q1194.95 152.674 1194.74 152.528 Q1194.57 152.381 1194.57 152.235 L1194.54 152.089 Q1194.54 151.562 1195.04 150.683 Q1195.53 149.805 1196.76 148.985 Q1197.99 148.136 1199.58 148.136 Q1201.07 148.136 1202.3 148.487 Q1203.53 148.839 1204.2 149.249 Q1204.9 149.659 1205.52 150.42 Q1206.13 151.152 1206.31 151.503 Q1206.51 151.825 1206.84 152.498 Q1207.83 154.782 1208.48 156.744 Q1209.15 158.676 1211.08 164.795 L1224.81 149.512 Q1225.43 148.78 1225.78 148.78 Q1226.1 148.78 1226.31 149.014 Z" fill="#000000" fill-rule="nonzero" fill-opacity="1" /><path clip-path="url(#clip940)" d="M1232.58 156.691 Q1232.58 155.933 1232.64 155.707 Q1232.72 155.482 1233.05 155.133 L1241.1 146.157 Q1245.51 141.197 1245.51 136.872 Q1245.51 134.065 1244.03 132.056 Q1242.58 130.048 1239.89 130.048 Q1238.05 130.048 1236.49 131.175 Q1234.93 132.302 1234.22 134.311 Q1234.34 134.27 1234.77 134.27 Q1235.82 134.27 1236.39 134.926 Q1236.98 135.581 1236.98 136.463 Q1236.98 137.59 1236.25 138.143 Q1235.53 138.676 1234.81 138.676 Q1234.52 138.676 1234.13 138.615 Q1233.77 138.553 1233.17 137.979 Q1232.58 137.385 1232.58 136.34 Q1232.58 133.409 1234.79 131.073 Q1237.02 128.736 1240.43 128.736 Q1244.28 128.736 1246.8 131.032 Q1249.34 133.306 1249.34 136.872 Q1249.34 138.123 1248.95 139.27 Q1248.58 140.398 1248.07 141.279 Q1247.58 142.16 1246.23 143.574 Q1244.87 144.988 1243.79 145.993 Q1242.7 146.997 1240.26 149.128 L1235.82 153.453 L1243.38 153.453 Q1247.07 153.453 1247.35 153.125 Q1247.76 152.53 1248.28 149.395 L1249.34 149.395 L1248.15 156.691 L1232.58 156.691 Z" fill="#000000" fill-rule="nonzero" fill-opacity="1" /><path clip-path="url(#clip940)" d="M1301.67 137.48 L1301.67 153.597 L1317.79 153.597 L1317.79 158.516 L1301.67 158.516 L1301.67 174.633 L1296.81 174.633 L1296.81 158.516 L1280.7 158.516 L1280.7 153.597 L1296.81 153.597 L1296.81 137.48 L1301.67 137.48 Z" fill="#000000" fill-rule="nonzero" fill-opacity="1" /><path clip-path="url(#clip940)" d="M1361.74 154.118 Q1357.58 154.118 1355.17 156.346 Q1352.8 158.574 1352.8 162.48 Q1352.8 166.386 1355.17 168.614 Q1357.58 170.842 1361.74 170.842 Q1365.91 170.842 1368.31 168.614 Q1370.71 166.357 1370.71 162.48 Q1370.71 158.574 1368.31 156.346 Q1365.94 154.118 1361.74 154.118 M1355.9 151.629 Q1352.14 150.703 1350.02 148.128 Q1347.94 145.553 1347.94 141.849 Q1347.94 136.67 1351.62 133.661 Q1355.32 130.651 1361.74 130.651 Q1368.2 130.651 1371.87 133.661 Q1375.54 136.67 1375.54 141.849 Q1375.54 145.553 1373.43 148.128 Q1371.35 150.703 1367.62 151.629 Q1371.84 152.613 1374.18 155.478 Q1376.56 158.342 1376.56 162.48 Q1376.56 168.759 1372.71 172.115 Q1368.89 175.472 1361.74 175.472 Q1354.6 175.472 1350.75 172.115 Q1346.93 168.759 1346.93 162.48 Q1346.93 158.342 1349.3 155.478 Q1351.67 152.613 1355.9 151.629 M1353.76 142.399 Q1353.76 145.756 1355.84 147.636 Q1357.95 149.517 1361.74 149.517 Q1365.5 149.517 1367.62 147.636 Q1369.76 145.756 1369.76 142.399 Q1369.76 139.043 1367.62 137.162 Q1365.5 135.281 1361.74 135.281 Q1357.95 135.281 1355.84 137.162 Q1353.76 139.043 1353.76 142.399 Z" fill="#000000" fill-rule="nonzero" fill-opacity="1" /><path clip-path="url(#clip940)" d="M1386.95 167.283 L1393.05 167.283 L1393.05 174.633 L1386.95 174.633 L1386.95 167.283 Z" fill="#000000" fill-rule="nonzero" fill-opacity="1" /><path clip-path="url(#clip940)" d="M1418.28 135.281 Q1413.77 135.281 1411.48 139.737 Q1409.23 144.164 1409.23 153.076 Q1409.23 161.959 1411.48 166.415 Q1413.77 170.842 1418.28 170.842 Q1422.82 170.842 1425.08 166.415 Q1427.37 161.959 1427.37 153.076 Q1427.37 144.164 1425.08 139.737 Q1422.82 135.281 1418.28 135.281 M1418.28 130.651 Q1425.54 130.651 1429.36 136.41 Q1433.21 142.139 1433.21 153.076 Q1433.21 163.985 1429.36 169.743 Q1425.54 175.472 1418.28 175.472 Q1411.02 175.472 1407.17 169.743 Q1403.35 163.985 1403.35 153.076 Q1403.35 142.139 1407.17 136.41 Q1411.02 130.651 1418.28 130.651 Z" fill="#000000" fill-rule="nonzero" fill-opacity="1" /><path clip-path="url(#clip940)" d="M1443.54 131.433 L1466.49 131.433 L1466.49 136.352 L1448.9 136.352 L1448.9 146.942 Q1450.17 146.508 1451.44 146.305 Q1452.71 146.074 1453.99 146.074 Q1461.22 146.074 1465.45 150.038 Q1469.67 154.002 1469.67 160.773 Q1469.67 167.746 1465.33 171.623 Q1460.99 175.472 1453.09 175.472 Q1450.37 175.472 1447.54 175.009 Q1444.73 174.546 1441.72 173.62 L1441.72 167.746 Q1444.32 169.164 1447.1 169.858 Q1449.88 170.553 1452.97 170.553 Q1457.98 170.553 1460.9 167.92 Q1463.83 165.287 1463.83 160.773 Q1463.83 156.259 1460.9 153.626 Q1457.98 150.993 1452.97 150.993 Q1450.63 150.993 1448.29 151.514 Q1445.97 152.034 1443.54 153.134 L1443.54 131.433 Z" fill="#000000" fill-rule="nonzero" fill-opacity="1" /><path clip-path="url(#clip940)" d="M1508.15 157.098 L1508.15 159.702 L1483.68 159.702 Q1484.02 165.2 1486.97 168.093 Q1489.95 170.958 1495.25 170.958 Q1498.32 170.958 1501.18 170.206 Q1504.07 169.453 1506.91 167.949 L1506.91 172.983 Q1504.05 174.199 1501.04 174.835 Q1498.03 175.472 1494.93 175.472 Q1487.18 175.472 1482.63 170.958 Q1478.12 166.444 1478.12 158.747 Q1478.12 150.79 1482.4 146.132 Q1486.71 141.444 1494 141.444 Q1500.54 141.444 1504.33 145.669 Q1508.15 149.864 1508.15 157.098 M1502.83 155.536 Q1502.77 151.166 1500.37 148.562 Q1498 145.958 1494.06 145.958 Q1489.61 145.958 1486.92 148.475 Q1484.25 150.993 1483.85 155.564 L1502.83 155.536 Z" fill="#000000" fill-rule="nonzero" fill-opacity="1" /><path clip-path="url(#clip940)" d="M1514.2 156.027 L1529.8 156.027 L1529.8 160.773 L1514.2 160.773 L1514.2 156.027 Z" fill="#000000" fill-rule="nonzero" fill-opacity="1" /><path clip-path="url(#clip940)" d="M1551.53 135.281 Q1547.01 135.281 1544.73 139.737 Q1542.47 144.164 1542.47 153.076 Q1542.47 161.959 1544.73 166.415 Q1547.01 170.842 1551.53 170.842 Q1556.07 170.842 1558.33 166.415 Q1560.61 161.959 1560.61 153.076 Q1560.61 144.164 1558.33 139.737 Q1556.07 135.281 1551.53 135.281 M1551.53 130.651 Q1558.79 130.651 1562.61 136.41 Q1566.46 142.139 1566.46 153.076 Q1566.46 163.985 1562.61 169.743 Q1558.79 175.472 1551.53 175.472 Q1544.27 175.472 1540.42 169.743 Q1536.6 163.985 1536.6 153.076 Q1536.6 142.139 1540.42 136.41 Q1544.27 130.651 1551.53 130.651 Z" fill="#000000" fill-rule="nonzero" fill-opacity="1" /><path clip-path="url(#clip940)" d="M1592.79 136.525 L1578.03 159.586 L1592.79 159.586 L1592.79 136.525 M1591.26 131.433 L1598.61 131.433 L1598.61 159.586 L1604.77 159.586 L1604.77 164.448 L1598.61 164.448 L1598.61 174.633 L1592.79 174.633 L1592.79 164.448 L1573.29 164.448 L1573.29 158.805 L1591.26 131.433 Z" fill="#000000" fill-rule="nonzero" fill-opacity="1" /><path clip-path="url(#clip940)" d="M1632.02 129.61 L1644.29 129.61 L1644.29 133.747 L1637.35 133.747 L1637.35 178.307 L1644.29 178.307 L1644.29 182.445 L1632.02 182.445 L1632.02 129.61 Z" fill="#000000" fill-rule="nonzero" fill-opacity="1" /><path clip-path="url(#clip940)" d="M1676.3 143.18 L1676.3 148.215 Q1674.04 147.058 1671.61 146.479 Q1669.18 145.9 1666.57 145.9 Q1662.61 145.9 1660.61 147.115 Q1658.65 148.331 1658.65 150.761 Q1658.65 152.613 1660.06 153.684 Q1661.48 154.725 1665.76 155.68 L1667.59 156.085 Q1673.26 157.301 1675.63 159.529 Q1678.03 161.728 1678.03 165.692 Q1678.03 170.206 1674.44 172.839 Q1670.88 175.472 1664.63 175.472 Q1662.03 175.472 1659.19 174.951 Q1656.39 174.459 1653.26 173.446 L1653.26 167.949 Q1656.21 169.482 1659.08 170.263 Q1661.94 171.016 1664.75 171.016 Q1668.51 171.016 1670.54 169.743 Q1672.56 168.441 1672.56 166.097 Q1672.56 163.927 1671.09 162.769 Q1669.64 161.612 1664.69 160.541 L1662.84 160.107 Q1657.89 159.066 1655.69 156.924 Q1653.49 154.754 1653.49 150.993 Q1653.49 146.421 1656.74 143.933 Q1659.98 141.444 1665.94 141.444 Q1668.89 141.444 1671.49 141.878 Q1674.1 142.312 1676.3 143.18 Z" fill="#000000" fill-rule="nonzero" fill-opacity="1" /><path clip-path="url(#clip940)" d="M1698.95 129.61 L1698.95 182.445 L1686.68 182.445 L1686.68 178.307 L1693.6 178.307 L1693.6 133.747 L1686.68 133.747 L1686.68 129.61 L1698.95 129.61 Z" fill="#000000" fill-rule="nonzero" fill-opacity="1" /><path clip-path="url(#clip940)" d="M1756.46 139.322 Q1756.67 139.527 1756.67 139.819 Q1756.67 140.112 1755.99 140.785 L1741.74 156.771 Q1747.18 175.919 1750.17 175.919 Q1751.08 175.919 1752.01 175.216 Q1752.98 174.543 1753.36 173.518 Q1753.51 173.021 1753.65 172.845 Q1753.8 172.669 1754.21 172.669 Q1754.91 172.669 1754.91 173.343 Q1754.91 173.694 1754.59 174.28 Q1754.27 174.894 1753.68 175.568 Q1753.1 176.27 1752.07 176.739 Q1751.05 177.237 1749.82 177.237 Q1748.29 177.237 1747.06 176.885 Q1745.83 176.534 1745.13 176.095 Q1744.43 175.656 1743.79 174.865 Q1743.17 174.104 1742.94 173.635 Q1742.73 173.196 1742.38 172.435 Q1741.68 170.795 1741.03 168.98 Q1740.39 167.165 1739.98 165.847 Q1739.57 164.53 1738.31 160.49 L1724.58 175.919 Q1723.93 176.563 1723.61 176.563 Q1723.35 176.563 1723.12 176.329 Q1722.88 176.124 1722.88 175.861 Q1722.88 175.568 1723.55 174.894 L1737.34 159.494 Q1737.55 159.289 1737.67 159.114 Q1737.78 158.938 1737.78 158.879 L1737.81 158.821 Q1737.81 158.674 1737.29 156.801 Q1736.76 154.927 1735.79 152.028 Q1734.86 149.1 1733.98 146.963 Q1733.42 145.529 1733.04 144.65 Q1732.66 143.772 1731.99 142.454 Q1731.34 141.137 1730.67 140.463 Q1730 139.761 1729.38 139.761 Q1729.18 139.761 1728.85 139.849 Q1728.53 139.936 1728 140.171 Q1727.51 140.376 1727.01 140.961 Q1726.51 141.517 1726.19 142.337 Q1725.93 142.981 1725.43 142.981 Q1725.11 142.981 1724.9 142.835 Q1724.73 142.689 1724.73 142.542 L1724.7 142.396 Q1724.7 141.869 1725.19 140.99 Q1725.69 140.112 1726.92 139.292 Q1728.15 138.443 1729.73 138.443 Q1731.23 138.443 1732.45 138.795 Q1733.68 139.146 1734.36 139.556 Q1735.06 139.966 1735.68 140.727 Q1736.29 141.459 1736.47 141.81 Q1736.67 142.132 1736.99 142.806 Q1737.99 145.089 1738.63 147.051 Q1739.31 148.983 1741.24 155.102 L1754.97 139.819 Q1755.58 139.087 1755.94 139.087 Q1756.26 139.087 1756.46 139.322 Z" fill="#000000" fill-rule="nonzero" fill-opacity="1" /><path clip-path="url(#clip940)" d="M1806.15 137.48 L1806.15 153.597 L1822.27 153.597 L1822.27 158.516 L1806.15 158.516 L1806.15 174.633 L1801.29 174.633 L1801.29 158.516 L1785.17 158.516 L1785.17 153.597 L1801.29 153.597 L1801.29 137.48 L1806.15 137.48 Z" fill="#000000" fill-rule="nonzero" fill-opacity="1" /><path clip-path="url(#clip940)" d="M1854.73 169.714 L1864.28 169.714 L1864.28 136.757 L1853.89 138.84 L1853.89 133.516 L1864.22 131.433 L1870.07 131.433 L1870.07 169.714 L1879.62 169.714 L1879.62 174.633 L1854.73 174.633 L1854.73 169.714 Z" fill="#000000" fill-rule="nonzero" fill-opacity="1" /><path clip-path="url(#clip940)" d="M1891.42 167.283 L1897.53 167.283 L1897.53 174.633 L1891.42 174.633 L1891.42 167.283 Z" fill="#000000" fill-rule="nonzero" fill-opacity="1" /><path clip-path="url(#clip940)" d="M1926.32 136.525 L1911.56 159.586 L1926.32 159.586 L1926.32 136.525 M1924.79 131.433 L1932.13 131.433 L1932.13 159.586 L1938.3 159.586 L1938.3 164.448 L1932.13 164.448 L1932.13 174.633 L1926.32 174.633 L1926.32 164.448 L1906.82 164.448 L1906.82 158.805 L1924.79 131.433 Z" fill="#000000" fill-rule="nonzero" fill-opacity="1" /><path clip-path="url(#clip940)" d="M1964.02 136.525 L1949.26 159.586 L1964.02 159.586 L1964.02 136.525 M1962.49 131.433 L1969.84 131.433 L1969.84 159.586 L1976 159.586 L1976 164.448 L1969.84 164.448 L1969.84 174.633 L1964.02 174.633 L1964.02 164.448 L1944.52 164.448 L1944.52 158.805 L1962.49 131.433 Z" fill="#000000" fill-rule="nonzero" fill-opacity="1" /><path clip-path="url(#clip940)" d="M2012.63 157.098 L2012.63 159.702 L1988.15 159.702 Q1988.5 165.2 1991.45 168.093 Q1994.43 170.958 1999.73 170.958 Q2002.79 170.958 2005.66 170.206 Q2008.55 169.453 2011.39 167.949 L2011.39 172.983 Q2008.52 174.199 2005.51 174.835 Q2002.5 175.472 1999.41 175.472 Q1991.65 175.472 1987.11 170.958 Q1982.6 166.444 1982.6 158.747 Q1982.6 150.79 1986.88 146.132 Q1991.19 141.444 1998.48 141.444 Q2005.02 141.444 2008.81 145.669 Q2012.63 149.864 2012.63 157.098 M2007.31 155.536 Q2007.25 151.166 2004.85 148.562 Q2002.48 145.958 1998.54 145.958 Q1994.08 145.958 1991.39 148.475 Q1988.73 150.993 1988.33 155.564 L2007.31 155.536 Z" fill="#000000" fill-rule="nonzero" fill-opacity="1" /><path clip-path="url(#clip940)" d="M2018.68 156.027 L2034.28 156.027 L2034.28 160.773 L2018.68 160.773 L2018.68 156.027 Z" fill="#000000" fill-rule="nonzero" fill-opacity="1" /><path clip-path="url(#clip940)" d="M2056.01 135.281 Q2051.49 135.281 2049.21 139.737 Q2046.95 144.164 2046.95 153.076 Q2046.95 161.959 2049.21 166.415 Q2051.49 170.842 2056.01 170.842 Q2060.55 170.842 2062.81 166.415 Q2065.09 161.959 2065.09 153.076 Q2065.09 144.164 2062.81 139.737 Q2060.55 135.281 2056.01 135.281 M2056.01 130.651 Q2063.27 130.651 2067.09 136.41 Q2070.94 142.139 2070.94 153.076 Q2070.94 163.985 2067.09 169.743 Q2063.27 175.472 2056.01 175.472 Q2048.74 175.472 2044.89 169.743 Q2041.08 163.985 2041.08 153.076 Q2041.08 142.139 2044.89 136.41 Q2048.74 130.651 2056.01 130.651 Z" fill="#000000" fill-rule="nonzero" fill-opacity="1" /><path clip-path="url(#clip940)" d="M2086.24 169.714 L2106.64 169.714 L2106.64 174.633 L2079.21 174.633 L2079.21 169.714 Q2082.54 166.27 2088.27 160.483 Q2094.03 154.668 2095.5 152.989 Q2098.31 149.835 2099.41 147.665 Q2100.54 145.466 2100.54 143.354 Q2100.54 139.911 2098.11 137.741 Q2095.7 135.57 2091.83 135.57 Q2089.08 135.57 2086.01 136.525 Q2082.97 137.48 2079.5 139.419 L2079.5 133.516 Q2083.03 132.098 2086.1 131.375 Q2089.17 130.651 2091.71 130.651 Q2098.42 130.651 2102.42 134.008 Q2106.41 137.364 2106.41 142.978 Q2106.41 145.64 2105.4 148.041 Q2104.41 150.414 2101.78 153.655 Q2101.06 154.494 2097.18 158.516 Q2093.3 162.509 2086.24 169.714 Z" fill="#000000" fill-rule="nonzero" fill-opacity="1" /><path clip-path="url(#clip940)" d="M2136.5 129.61 L2148.77 129.61 L2148.77 133.747 L2141.83 133.747 L2141.83 178.307 L2148.77 178.307 L2148.77 182.445 L2136.5 182.445 L2136.5 129.61 Z" fill="#000000" fill-rule="nonzero" fill-opacity="1" /><path clip-path="url(#clip940)" d="M2180.77 143.18 L2180.77 148.215 Q2178.52 147.058 2176.09 146.479 Q2173.66 145.9 2171.05 145.9 Q2167.09 145.9 2165.09 147.115 Q2163.12 148.331 2163.12 150.761 Q2163.12 152.613 2164.54 153.684 Q2165.96 154.725 2170.24 155.68 L2172.06 156.085 Q2177.74 157.301 2180.11 159.529 Q2182.51 161.728 2182.51 165.692 Q2182.51 170.206 2178.92 172.839 Q2175.36 175.472 2169.11 175.472 Q2166.51 175.472 2163.67 174.951 Q2160.87 174.459 2157.74 173.446 L2157.74 167.949 Q2160.69 169.482 2163.56 170.263 Q2166.42 171.016 2169.23 171.016 Q2172.99 171.016 2175.02 169.743 Q2177.04 168.441 2177.04 166.097 Q2177.04 163.927 2175.57 162.769 Q2174.12 161.612 2169.17 160.541 L2167.32 160.107 Q2162.37 159.066 2160.17 156.924 Q2157.97 154.754 2157.97 150.993 Q2157.97 146.421 2161.21 143.933 Q2164.45 141.444 2170.41 141.444 Q2173.37 141.444 2175.97 141.878 Q2178.57 142.312 2180.77 143.18 Z" fill="#000000" fill-rule="nonzero" fill-opacity="1" /><path clip-path="url(#clip940)" d="M2203.43 129.61 L2203.43 182.445 L2191.16 182.445 L2191.16 178.307 L2198.08 178.307 L2198.08 133.747 L2191.16 133.747 L2191.16 129.61 L2203.43 129.61 Z" fill="#000000" fill-rule="nonzero" fill-opacity="1" /></svg>
