<?xml version="1.0" encoding="utf-8"?>
<svg xmlns="http://www.w3.org/2000/svg" xmlns:xlink="http://www.w3.org/1999/xlink" width="600" height="400" viewBox="0 0 2400 1600">
<defs>
  <clipPath id="clip810">
    <rect x="0" y="0" width="2400" height="1600"/>
  </clipPath>
</defs>
<path clip-path="url(#clip810)" d="M0 1600 L2400 1600 L2400 0 L0 0  Z" fill="#ffffff" fill-rule="evenodd" fill-opacity="1"/>
<defs>
  <clipPath id="clip811">
    <rect x="480" y="0" width="1681" height="1600"/>
  </clipPath>
</defs>
<path clip-path="url(#clip810)" d="M175.445 1423.18 L2352.76 1423.18 L2352.76 47.2441 L175.445 47.2441  Z" fill="#ffffff" fill-rule="evenodd" fill-opacity="1"/>
<defs>
  <clipPath id="clip812">
    <rect x="175" y="47" width="2178" height="1377"/>
  </clipPath>
</defs>
<polyline clip-path="url(#clip812)" style="stroke:#000000; stroke-linecap:round; stroke-linejoin:round; stroke-width:2; stroke-opacity:0.1; fill:none" points="237.067,1423.18 237.067,47.2441 "/>
<polyline clip-path="url(#clip812)" style="stroke:#000000; stroke-linecap:round; stroke-linejoin:round; stroke-width:2; stroke-opacity:0.1; fill:none" points="505.788,1423.18 505.788,47.2441 "/>
<polyline clip-path="url(#clip812)" style="stroke:#000000; stroke-linecap:round; stroke-linejoin:round; stroke-width:2; stroke-opacity:0.1; fill:none" points="861.019,1423.18 861.019,47.2441 "/>
<polyline clip-path="url(#clip812)" style="stroke:#000000; stroke-linecap:round; stroke-linejoin:round; stroke-width:2; stroke-opacity:0.1; fill:none" points="1129.74,1423.18 1129.74,47.2441 "/>
<polyline clip-path="url(#clip812)" style="stroke:#000000; stroke-linecap:round; stroke-linejoin:round; stroke-width:2; stroke-opacity:0.1; fill:none" points="1398.46,1423.18 1398.46,47.2441 "/>
<polyline clip-path="url(#clip812)" style="stroke:#000000; stroke-linecap:round; stroke-linejoin:round; stroke-width:2; stroke-opacity:0.1; fill:none" points="1753.69,1423.18 1753.69,47.2441 "/>
<polyline clip-path="url(#clip812)" style="stroke:#000000; stroke-linecap:round; stroke-linejoin:round; stroke-width:2; stroke-opacity:0.1; fill:none" points="2022.41,1423.18 2022.41,47.2441 "/>
<polyline clip-path="url(#clip812)" style="stroke:#000000; stroke-linecap:round; stroke-linejoin:round; stroke-width:2; stroke-opacity:0.1; fill:none" points="2291.13,1423.18 2291.13,47.2441 "/>
<polyline clip-path="url(#clip810)" style="stroke:#000000; stroke-linecap:round; stroke-linejoin:round; stroke-width:4; stroke-opacity:1; fill:none" points="175.445,1423.18 2352.76,1423.18 "/>
<polyline clip-path="url(#clip810)" style="stroke:#000000; stroke-linecap:round; stroke-linejoin:round; stroke-width:4; stroke-opacity:1; fill:none" points="237.067,1423.18 237.067,1404.28 "/>
<polyline clip-path="url(#clip810)" style="stroke:#000000; stroke-linecap:round; stroke-linejoin:round; stroke-width:4; stroke-opacity:1; fill:none" points="505.788,1423.18 505.788,1404.28 "/>
<polyline clip-path="url(#clip810)" style="stroke:#000000; stroke-linecap:round; stroke-linejoin:round; stroke-width:4; stroke-opacity:1; fill:none" points="861.019,1423.18 861.019,1404.28 "/>
<polyline clip-path="url(#clip810)" style="stroke:#000000; stroke-linecap:round; stroke-linejoin:round; stroke-width:4; stroke-opacity:1; fill:none" points="1129.74,1423.18 1129.74,1404.28 "/>
<polyline clip-path="url(#clip810)" style="stroke:#000000; stroke-linecap:round; stroke-linejoin:round; stroke-width:4; stroke-opacity:1; fill:none" points="1398.46,1423.18 1398.46,1404.28 "/>
<polyline clip-path="url(#clip810)" style="stroke:#000000; stroke-linecap:round; stroke-linejoin:round; stroke-width:4; stroke-opacity:1; fill:none" points="1753.69,1423.18 1753.69,1404.28 "/>
<polyline clip-path="url(#clip810)" style="stroke:#000000; stroke-linecap:round; stroke-linejoin:round; stroke-width:4; stroke-opacity:1; fill:none" points="2022.41,1423.18 2022.41,1404.28 "/>
<polyline clip-path="url(#clip810)" style="stroke:#000000; stroke-linecap:round; stroke-linejoin:round; stroke-width:4; stroke-opacity:1; fill:none" points="2291.13,1423.18 2291.13,1404.28 "/>
<path clip-path="url(#clip810)" d="M211.755 1481.64 L219.394 1481.64 L219.394 1455.28 L211.084 1456.95 L211.084 1452.69 L219.347 1451.02 L224.023 1451.02 L224.023 1481.64 L231.662 1481.64 L231.662 1485.58 L211.755 1485.58 L211.755 1481.64 Z" fill="#000000" fill-rule="nonzero" fill-opacity="1" /><path clip-path="url(#clip810)" d="M251.106 1454.1 Q247.495 1454.1 245.667 1457.66 Q243.861 1461.2 243.861 1468.33 Q243.861 1475.44 245.667 1479.01 Q247.495 1482.55 251.106 1482.55 Q254.741 1482.55 256.546 1479.01 Q258.375 1475.44 258.375 1468.33 Q258.375 1461.2 256.546 1457.66 Q254.741 1454.1 251.106 1454.1 M251.106 1450.39 Q256.917 1450.39 259.972 1455 Q263.051 1459.58 263.051 1468.33 Q263.051 1477.06 259.972 1481.67 Q256.917 1486.25 251.106 1486.25 Q245.296 1486.25 242.218 1481.67 Q239.162 1477.06 239.162 1468.33 Q239.162 1459.58 242.218 1455 Q245.296 1450.39 251.106 1450.39 Z" fill="#000000" fill-rule="nonzero" fill-opacity="1" /><path clip-path="url(#clip810)" d="M484.562 1481.64 L500.881 1481.64 L500.881 1485.58 L478.937 1485.58 L478.937 1481.64 Q481.599 1478.89 486.182 1474.26 Q490.789 1469.61 491.969 1468.27 Q494.214 1465.74 495.094 1464.01 Q495.997 1462.25 495.997 1460.56 Q495.997 1457.8 494.052 1456.07 Q492.131 1454.33 489.029 1454.33 Q486.83 1454.33 484.377 1455.09 Q481.946 1455.86 479.168 1457.41 L479.168 1452.69 Q481.992 1451.55 484.446 1450.97 Q486.9 1450.39 488.937 1450.39 Q494.307 1450.39 497.501 1453.08 Q500.696 1455.77 500.696 1460.26 Q500.696 1462.39 499.886 1464.31 Q499.099 1466.2 496.992 1468.8 Q496.414 1469.47 493.312 1472.69 Q490.21 1475.88 484.562 1481.64 Z" fill="#000000" fill-rule="nonzero" fill-opacity="1" /><path clip-path="url(#clip810)" d="M520.696 1454.1 Q517.085 1454.1 515.256 1457.66 Q513.45 1461.2 513.45 1468.33 Q513.45 1475.44 515.256 1479.01 Q517.085 1482.55 520.696 1482.55 Q524.33 1482.55 526.136 1479.01 Q527.964 1475.44 527.964 1468.33 Q527.964 1461.2 526.136 1457.66 Q524.33 1454.1 520.696 1454.1 M520.696 1450.39 Q526.506 1450.39 529.561 1455 Q532.64 1459.58 532.64 1468.33 Q532.64 1477.06 529.561 1481.67 Q526.506 1486.25 520.696 1486.25 Q514.886 1486.25 511.807 1481.67 Q508.751 1477.06 508.751 1468.33 Q508.751 1459.58 511.807 1455 Q514.886 1450.39 520.696 1450.39 Z" fill="#000000" fill-rule="nonzero" fill-opacity="1" /><path clip-path="url(#clip810)" d="M835.718 1451.02 L854.074 1451.02 L854.074 1454.96 L840 1454.96 L840 1463.43 Q841.019 1463.08 842.037 1462.92 Q843.056 1462.73 844.074 1462.73 Q849.861 1462.73 853.241 1465.9 Q856.621 1469.08 856.621 1474.49 Q856.621 1480.07 853.148 1483.17 Q849.676 1486.25 843.357 1486.25 Q841.181 1486.25 838.912 1485.88 Q836.667 1485.51 834.26 1484.77 L834.26 1480.07 Q836.343 1481.2 838.565 1481.76 Q840.787 1482.32 843.264 1482.32 Q847.269 1482.32 849.607 1480.21 Q851.945 1478.1 851.945 1474.49 Q851.945 1470.88 849.607 1468.77 Q847.269 1466.67 843.264 1466.67 Q841.389 1466.67 839.514 1467.08 Q837.662 1467.5 835.718 1468.38 L835.718 1451.02 Z" fill="#000000" fill-rule="nonzero" fill-opacity="1" /><path clip-path="url(#clip810)" d="M875.833 1454.1 Q872.222 1454.1 870.394 1457.66 Q868.588 1461.2 868.588 1468.33 Q868.588 1475.44 870.394 1479.01 Q872.222 1482.55 875.833 1482.55 Q879.468 1482.55 881.273 1479.01 Q883.102 1475.44 883.102 1468.33 Q883.102 1461.2 881.273 1457.66 Q879.468 1454.1 875.833 1454.1 M875.833 1450.39 Q881.644 1450.39 884.699 1455 Q887.778 1459.58 887.778 1468.33 Q887.778 1477.06 884.699 1481.67 Q881.644 1486.25 875.833 1486.25 Q870.023 1486.25 866.945 1481.67 Q863.889 1477.06 863.889 1468.33 Q863.889 1459.58 866.945 1455 Q870.023 1450.39 875.833 1450.39 Z" fill="#000000" fill-rule="nonzero" fill-opacity="1" /><path clip-path="url(#clip810)" d="M1089.35 1481.64 L1096.99 1481.64 L1096.99 1455.28 L1088.68 1456.95 L1088.68 1452.69 L1096.94 1451.02 L1101.62 1451.02 L1101.62 1481.64 L1109.25 1481.64 L1109.25 1485.58 L1089.35 1485.58 L1089.35 1481.64 Z" fill="#000000" fill-rule="nonzero" fill-opacity="1" /><path clip-path="url(#clip810)" d="M1128.7 1454.1 Q1125.09 1454.1 1123.26 1457.66 Q1121.45 1461.2 1121.45 1468.33 Q1121.45 1475.44 1123.26 1479.01 Q1125.09 1482.55 1128.7 1482.55 Q1132.33 1482.55 1134.14 1479.01 Q1135.97 1475.44 1135.97 1468.33 Q1135.97 1461.2 1134.14 1457.66 Q1132.33 1454.1 1128.7 1454.1 M1128.7 1450.39 Q1134.51 1450.39 1137.56 1455 Q1140.64 1459.58 1140.64 1468.33 Q1140.64 1477.06 1137.56 1481.67 Q1134.51 1486.25 1128.7 1486.25 Q1122.89 1486.25 1119.81 1481.67 Q1116.75 1477.06 1116.75 1468.33 Q1116.75 1459.58 1119.81 1455 Q1122.89 1450.39 1128.7 1450.39 Z" fill="#000000" fill-rule="nonzero" fill-opacity="1" /><path clip-path="url(#clip810)" d="M1158.86 1454.1 Q1155.25 1454.1 1153.42 1457.66 Q1151.61 1461.2 1151.61 1468.33 Q1151.61 1475.44 1153.42 1479.01 Q1155.25 1482.55 1158.86 1482.55 Q1162.49 1482.55 1164.3 1479.01 Q1166.13 1475.44 1166.13 1468.33 Q1166.13 1461.2 1164.3 1457.66 Q1162.49 1454.1 1158.86 1454.1 M1158.86 1450.39 Q1164.67 1450.39 1167.73 1455 Q1170.8 1459.58 1170.8 1468.33 Q1170.8 1477.06 1167.73 1481.67 Q1164.67 1486.25 1158.86 1486.25 Q1153.05 1486.25 1149.97 1481.67 Q1146.92 1477.06 1146.92 1468.33 Q1146.92 1459.58 1149.97 1455 Q1153.05 1450.39 1158.86 1450.39 Z" fill="#000000" fill-rule="nonzero" fill-opacity="1" /><path clip-path="url(#clip810)" d="M1362.15 1481.64 L1378.47 1481.64 L1378.47 1485.58 L1356.53 1485.58 L1356.53 1481.64 Q1359.19 1478.89 1363.77 1474.26 Q1368.38 1469.61 1369.56 1468.27 Q1371.81 1465.74 1372.69 1464.01 Q1373.59 1462.25 1373.59 1460.56 Q1373.59 1457.8 1371.64 1456.07 Q1369.72 1454.33 1366.62 1454.33 Q1364.42 1454.33 1361.97 1455.09 Q1359.54 1455.86 1356.76 1457.41 L1356.76 1452.69 Q1359.58 1451.55 1362.04 1450.97 Q1364.49 1450.39 1366.53 1450.39 Q1371.9 1450.39 1375.09 1453.08 Q1378.29 1455.77 1378.29 1460.26 Q1378.29 1462.39 1377.48 1464.31 Q1376.69 1466.2 1374.58 1468.8 Q1374.01 1469.47 1370.9 1472.69 Q1367.8 1475.88 1362.15 1481.64 Z" fill="#000000" fill-rule="nonzero" fill-opacity="1" /><path clip-path="url(#clip810)" d="M1398.29 1454.1 Q1394.68 1454.1 1392.85 1457.66 Q1391.04 1461.2 1391.04 1468.33 Q1391.04 1475.44 1392.85 1479.01 Q1394.68 1482.55 1398.29 1482.55 Q1401.92 1482.55 1403.73 1479.01 Q1405.56 1475.44 1405.56 1468.33 Q1405.56 1461.2 1403.73 1457.66 Q1401.92 1454.1 1398.29 1454.1 M1398.29 1450.39 Q1404.1 1450.39 1407.15 1455 Q1410.23 1459.58 1410.23 1468.33 Q1410.23 1477.06 1407.15 1481.67 Q1404.1 1486.25 1398.29 1486.25 Q1392.48 1486.25 1389.4 1481.67 Q1386.34 1477.06 1386.34 1468.33 Q1386.34 1459.58 1389.4 1455 Q1392.48 1450.39 1398.29 1450.39 Z" fill="#000000" fill-rule="nonzero" fill-opacity="1" /><path clip-path="url(#clip810)" d="M1428.45 1454.1 Q1424.84 1454.1 1423.01 1457.66 Q1421.2 1461.2 1421.2 1468.33 Q1421.2 1475.44 1423.01 1479.01 Q1424.84 1482.55 1428.45 1482.55 Q1432.08 1482.55 1433.89 1479.01 Q1435.72 1475.44 1435.72 1468.33 Q1435.72 1461.2 1433.89 1457.66 Q1432.08 1454.1 1428.45 1454.1 M1428.45 1450.39 Q1434.26 1450.39 1437.32 1455 Q1440.39 1459.58 1440.39 1468.33 Q1440.39 1477.06 1437.32 1481.67 Q1434.26 1486.25 1428.45 1486.25 Q1422.64 1486.25 1419.56 1481.67 Q1416.51 1477.06 1416.51 1468.33 Q1416.51 1459.58 1419.56 1455 Q1422.64 1450.39 1428.45 1450.39 Z" fill="#000000" fill-rule="nonzero" fill-opacity="1" /><path clip-path="url(#clip810)" d="M1713.31 1451.02 L1731.67 1451.02 L1731.67 1454.96 L1717.59 1454.96 L1717.59 1463.43 Q1718.61 1463.08 1719.63 1462.92 Q1720.65 1462.73 1721.67 1462.73 Q1727.45 1462.73 1730.83 1465.9 Q1734.21 1469.08 1734.21 1474.49 Q1734.21 1480.07 1730.74 1483.17 Q1727.27 1486.25 1720.95 1486.25 Q1718.77 1486.25 1716.5 1485.88 Q1714.26 1485.51 1711.85 1484.77 L1711.85 1480.07 Q1713.93 1481.2 1716.16 1481.76 Q1718.38 1482.32 1720.86 1482.32 Q1724.86 1482.32 1727.2 1480.21 Q1729.54 1478.1 1729.54 1474.49 Q1729.54 1470.88 1727.2 1468.77 Q1724.86 1466.67 1720.86 1466.67 Q1718.98 1466.67 1717.11 1467.08 Q1715.25 1467.5 1713.31 1468.38 L1713.31 1451.02 Z" fill="#000000" fill-rule="nonzero" fill-opacity="1" /><path clip-path="url(#clip810)" d="M1753.43 1454.1 Q1749.81 1454.1 1747.99 1457.66 Q1746.18 1461.2 1746.18 1468.33 Q1746.18 1475.44 1747.99 1479.01 Q1749.81 1482.55 1753.43 1482.55 Q1757.06 1482.55 1758.86 1479.01 Q1760.69 1475.44 1760.69 1468.33 Q1760.69 1461.2 1758.86 1457.66 Q1757.06 1454.1 1753.43 1454.1 M1753.43 1450.39 Q1759.24 1450.39 1762.29 1455 Q1765.37 1459.58 1765.37 1468.33 Q1765.37 1477.06 1762.29 1481.67 Q1759.24 1486.25 1753.43 1486.25 Q1747.62 1486.25 1744.54 1481.67 Q1741.48 1477.06 1741.48 1468.33 Q1741.48 1459.58 1744.54 1455 Q1747.62 1450.39 1753.43 1450.39 Z" fill="#000000" fill-rule="nonzero" fill-opacity="1" /><path clip-path="url(#clip810)" d="M1783.59 1454.1 Q1779.98 1454.1 1778.15 1457.66 Q1776.34 1461.2 1776.34 1468.33 Q1776.34 1475.44 1778.15 1479.01 Q1779.98 1482.55 1783.59 1482.55 Q1787.22 1482.55 1789.03 1479.01 Q1790.86 1475.44 1790.86 1468.33 Q1790.86 1461.2 1789.03 1457.66 Q1787.22 1454.1 1783.59 1454.1 M1783.59 1450.39 Q1789.4 1450.39 1792.45 1455 Q1795.53 1459.58 1795.53 1468.33 Q1795.53 1477.06 1792.45 1481.67 Q1789.4 1486.25 1783.59 1486.25 Q1777.78 1486.25 1774.7 1481.67 Q1771.64 1477.06 1771.64 1468.33 Q1771.64 1459.58 1774.7 1455 Q1777.78 1450.39 1783.59 1450.39 Z" fill="#000000" fill-rule="nonzero" fill-opacity="1" /><path clip-path="url(#clip810)" d="M1966.94 1481.64 L1974.58 1481.64 L1974.58 1455.28 L1966.27 1456.95 L1966.27 1452.69 L1974.53 1451.02 L1979.21 1451.02 L1979.21 1481.64 L1986.85 1481.64 L1986.85 1485.58 L1966.94 1485.58 L1966.94 1481.64 Z" fill="#000000" fill-rule="nonzero" fill-opacity="1" /><path clip-path="url(#clip810)" d="M2006.29 1454.1 Q2002.68 1454.1 2000.85 1457.66 Q1999.04 1461.2 1999.04 1468.33 Q1999.04 1475.44 2000.85 1479.01 Q2002.68 1482.55 2006.29 1482.55 Q2009.92 1482.55 2011.73 1479.01 Q2013.56 1475.44 2013.56 1468.33 Q2013.56 1461.2 2011.73 1457.66 Q2009.92 1454.1 2006.29 1454.1 M2006.29 1450.39 Q2012.1 1450.39 2015.16 1455 Q2018.23 1459.58 2018.23 1468.33 Q2018.23 1477.06 2015.16 1481.67 Q2012.1 1486.25 2006.29 1486.25 Q2000.48 1486.25 1997.4 1481.67 Q1994.35 1477.06 1994.35 1468.33 Q1994.35 1459.58 1997.4 1455 Q2000.48 1450.39 2006.29 1450.39 Z" fill="#000000" fill-rule="nonzero" fill-opacity="1" /><path clip-path="url(#clip810)" d="M2036.45 1454.1 Q2032.84 1454.1 2031.01 1457.66 Q2029.21 1461.2 2029.21 1468.33 Q2029.21 1475.44 2031.01 1479.01 Q2032.84 1482.55 2036.45 1482.55 Q2040.09 1482.55 2041.89 1479.01 Q2043.72 1475.44 2043.72 1468.33 Q2043.72 1461.2 2041.89 1457.66 Q2040.09 1454.1 2036.45 1454.1 M2036.45 1450.39 Q2042.26 1450.39 2045.32 1455 Q2048.4 1459.58 2048.4 1468.33 Q2048.4 1477.06 2045.32 1481.67 Q2042.26 1486.25 2036.45 1486.25 Q2030.64 1486.25 2027.56 1481.67 Q2024.51 1477.06 2024.51 1468.33 Q2024.51 1459.58 2027.56 1455 Q2030.64 1450.39 2036.45 1450.39 Z" fill="#000000" fill-rule="nonzero" fill-opacity="1" /><path clip-path="url(#clip810)" d="M2066.61 1454.1 Q2063 1454.1 2061.17 1457.66 Q2059.37 1461.2 2059.37 1468.33 Q2059.37 1475.44 2061.17 1479.01 Q2063 1482.55 2066.61 1482.55 Q2070.25 1482.55 2072.05 1479.01 Q2073.88 1475.44 2073.88 1468.33 Q2073.88 1461.2 2072.05 1457.66 Q2070.25 1454.1 2066.61 1454.1 M2066.61 1450.39 Q2072.42 1450.39 2075.48 1455 Q2078.56 1459.58 2078.56 1468.33 Q2078.56 1477.06 2075.48 1481.67 Q2072.42 1486.25 2066.61 1486.25 Q2060.8 1486.25 2057.72 1481.67 Q2054.67 1477.06 2054.67 1468.33 Q2054.67 1459.58 2057.72 1455 Q2060.8 1450.39 2066.61 1450.39 Z" fill="#000000" fill-rule="nonzero" fill-opacity="1" /><path clip-path="url(#clip810)" d="M2239.75 1481.64 L2256.06 1481.64 L2256.06 1485.58 L2234.12 1485.58 L2234.12 1481.64 Q2236.78 1478.89 2241.37 1474.26 Q2245.97 1469.61 2247.15 1468.27 Q2249.4 1465.74 2250.28 1464.01 Q2251.18 1462.25 2251.18 1460.56 Q2251.18 1457.8 2249.24 1456.07 Q2247.31 1454.33 2244.21 1454.33 Q2242.01 1454.33 2239.56 1455.09 Q2237.13 1455.86 2234.35 1457.41 L2234.35 1452.69 Q2237.18 1451.55 2239.63 1450.97 Q2242.08 1450.39 2244.12 1450.39 Q2249.49 1450.39 2252.69 1453.08 Q2255.88 1455.77 2255.88 1460.26 Q2255.88 1462.39 2255.07 1464.31 Q2254.28 1466.2 2252.18 1468.8 Q2251.6 1469.47 2248.5 1472.69 Q2245.39 1475.88 2239.75 1481.64 Z" fill="#000000" fill-rule="nonzero" fill-opacity="1" /><path clip-path="url(#clip810)" d="M2275.88 1454.1 Q2272.27 1454.1 2270.44 1457.66 Q2268.63 1461.2 2268.63 1468.33 Q2268.63 1475.44 2270.44 1479.01 Q2272.27 1482.55 2275.88 1482.55 Q2279.51 1482.55 2281.32 1479.01 Q2283.15 1475.44 2283.15 1468.33 Q2283.15 1461.2 2281.32 1457.66 Q2279.51 1454.1 2275.88 1454.1 M2275.88 1450.39 Q2281.69 1450.39 2284.75 1455 Q2287.82 1459.58 2287.82 1468.33 Q2287.82 1477.06 2284.75 1481.67 Q2281.69 1486.25 2275.88 1486.25 Q2270.07 1486.25 2266.99 1481.67 Q2263.93 1477.06 2263.93 1468.33 Q2263.93 1459.58 2266.99 1455 Q2270.07 1450.39 2275.88 1450.39 Z" fill="#000000" fill-rule="nonzero" fill-opacity="1" /><path clip-path="url(#clip810)" d="M2306.04 1454.1 Q2302.43 1454.1 2300.6 1457.66 Q2298.8 1461.2 2298.8 1468.33 Q2298.8 1475.44 2300.6 1479.01 Q2302.43 1482.55 2306.04 1482.55 Q2309.68 1482.55 2311.48 1479.01 Q2313.31 1475.44 2313.31 1468.33 Q2313.31 1461.2 2311.48 1457.66 Q2309.68 1454.1 2306.04 1454.1 M2306.04 1450.39 Q2311.85 1450.39 2314.91 1455 Q2317.99 1459.58 2317.99 1468.33 Q2317.99 1477.06 2314.91 1481.67 Q2311.85 1486.25 2306.04 1486.25 Q2300.23 1486.25 2297.15 1481.67 Q2294.1 1477.06 2294.1 1468.33 Q2294.1 1459.58 2297.15 1455 Q2300.23 1450.39 2306.04 1450.39 Z" fill="#000000" fill-rule="nonzero" fill-opacity="1" /><path clip-path="url(#clip810)" d="M2336.2 1454.1 Q2332.59 1454.1 2330.76 1457.66 Q2328.96 1461.2 2328.96 1468.33 Q2328.96 1475.44 2330.76 1479.01 Q2332.59 1482.55 2336.2 1482.55 Q2339.84 1482.55 2341.64 1479.01 Q2343.47 1475.44 2343.47 1468.33 Q2343.47 1461.2 2341.64 1457.66 Q2339.84 1454.1 2336.2 1454.1 M2336.2 1450.39 Q2342.01 1450.39 2345.07 1455 Q2348.15 1459.58 2348.15 1468.33 Q2348.15 1477.06 2345.07 1481.67 Q2342.01 1486.25 2336.2 1486.25 Q2330.39 1486.25 2327.31 1481.67 Q2324.26 1477.06 2324.26 1468.33 Q2324.26 1459.58 2327.31 1455 Q2330.39 1450.39 2336.2 1450.39 Z" fill="#000000" fill-rule="nonzero" fill-opacity="1" /><path clip-path="url(#clip810)" d="M816.451 1499.75 L822.88 1499.75 L822.88 1547.27 L816.451 1547.27 L816.451 1499.75 Z" fill="#000000" fill-rule="nonzero" fill-opacity="1" /><path clip-path="url(#clip810)" d="M865.053 1525.76 L865.053 1547.27 L859.197 1547.27 L859.197 1525.95 Q859.197 1520.89 857.223 1518.37 Q855.25 1515.86 851.303 1515.86 Q846.561 1515.86 843.824 1518.88 Q841.086 1521.91 841.086 1527.13 L841.086 1547.27 L835.198 1547.27 L835.198 1511.63 L841.086 1511.63 L841.086 1517.16 Q843.187 1513.95 846.02 1512.36 Q848.884 1510.77 852.608 1510.77 Q858.751 1510.77 861.902 1514.59 Q865.053 1518.37 865.053 1525.76 Z" fill="#000000" fill-rule="nonzero" fill-opacity="1" /><path clip-path="url(#clip810)" d="M876.734 1511.63 L882.591 1511.63 L882.591 1547.27 L876.734 1547.27 L876.734 1511.63 M876.734 1497.75 L882.591 1497.75 L882.591 1505.16 L876.734 1505.16 L876.734 1497.75 Z" fill="#000000" fill-rule="nonzero" fill-opacity="1" /><path clip-path="url(#clip810)" d="M924.477 1525.76 L924.477 1547.27 L918.621 1547.27 L918.621 1525.95 Q918.621 1520.89 916.647 1518.37 Q914.674 1515.86 910.727 1515.86 Q905.985 1515.86 903.247 1518.88 Q900.51 1521.91 900.51 1527.13 L900.51 1547.27 L894.622 1547.27 L894.622 1511.63 L900.51 1511.63 L900.51 1517.16 Q902.611 1513.95 905.444 1512.36 Q908.308 1510.77 912.032 1510.77 Q918.175 1510.77 921.326 1514.59 Q924.477 1518.37 924.477 1525.76 Z" fill="#000000" fill-rule="nonzero" fill-opacity="1" /><path clip-path="url(#clip810)" d="M941.951 1501.5 L941.951 1511.63 L954.014 1511.63 L954.014 1516.18 L941.951 1516.18 L941.951 1535.53 Q941.951 1539.89 943.129 1541.13 Q944.338 1542.37 947.998 1542.37 L954.014 1542.37 L954.014 1547.27 L947.998 1547.27 Q941.219 1547.27 938.641 1544.76 Q936.063 1542.21 936.063 1535.53 L936.063 1516.18 L931.766 1516.18 L931.766 1511.63 L936.063 1511.63 L936.063 1501.5 L941.951 1501.5 Z" fill="#000000" fill-rule="nonzero" fill-opacity="1" /><path clip-path="url(#clip810)" d="M961.716 1511.63 L967.573 1511.63 L967.573 1547.27 L961.716 1547.27 L961.716 1511.63 M961.716 1497.75 L967.573 1497.75 L967.573 1505.16 L961.716 1505.16 L961.716 1497.75 Z" fill="#000000" fill-rule="nonzero" fill-opacity="1" /><path clip-path="url(#clip810)" d="M996.028 1529.35 Q988.93 1529.35 986.193 1530.98 Q983.455 1532.6 983.455 1536.52 Q983.455 1539.64 985.492 1541.48 Q987.561 1543.3 991.094 1543.3 Q995.964 1543.3 998.892 1539.86 Q1001.85 1536.39 1001.85 1530.66 L1001.85 1529.35 L996.028 1529.35 M1007.71 1526.94 L1007.71 1547.27 L1001.85 1547.27 L1001.85 1541.86 Q999.847 1545.11 996.855 1546.67 Q993.863 1548.2 989.535 1548.2 Q984.06 1548.2 980.814 1545.14 Q977.599 1542.05 977.599 1536.9 Q977.599 1530.88 981.609 1527.83 Q985.652 1524.77 993.64 1524.77 L1001.85 1524.77 L1001.85 1524.2 Q1001.85 1520.16 999.179 1517.96 Q996.537 1515.73 991.731 1515.73 Q988.675 1515.73 985.779 1516.46 Q982.882 1517.2 980.209 1518.66 L980.209 1513.25 Q983.424 1512.01 986.447 1511.4 Q989.471 1510.77 992.336 1510.77 Q1000.07 1510.77 1003.89 1514.78 Q1007.71 1518.79 1007.71 1526.94 Z" fill="#000000" fill-rule="nonzero" fill-opacity="1" /><path clip-path="url(#clip810)" d="M1019.77 1497.75 L1025.63 1497.75 L1025.63 1547.27 L1019.77 1547.27 L1019.77 1497.75 Z" fill="#000000" fill-rule="nonzero" fill-opacity="1" /><path clip-path="url(#clip810)" d="M1084.19 1529.48 Q1084.19 1523.02 1081.52 1519.36 Q1078.88 1515.67 1074.23 1515.67 Q1069.58 1515.67 1066.91 1519.36 Q1064.27 1523.02 1064.27 1529.48 Q1064.27 1535.94 1066.91 1539.64 Q1069.58 1543.3 1074.23 1543.3 Q1078.88 1543.3 1081.52 1539.64 Q1084.19 1535.94 1084.19 1529.48 M1064.27 1517.04 Q1066.11 1513.85 1068.91 1512.33 Q1071.75 1510.77 1075.66 1510.77 Q1082.16 1510.77 1086.2 1515.92 Q1090.27 1521.08 1090.27 1529.48 Q1090.27 1537.88 1086.2 1543.04 Q1082.16 1548.2 1075.66 1548.2 Q1071.75 1548.2 1068.91 1546.67 Q1066.11 1545.11 1064.27 1541.93 L1064.27 1547.27 L1058.38 1547.27 L1058.38 1497.75 L1064.27 1497.75 L1064.27 1517.04 Z" fill="#000000" fill-rule="nonzero" fill-opacity="1" /><path clip-path="url(#clip810)" d="M1113.79 1515.73 Q1109.08 1515.73 1106.35 1519.42 Q1103.61 1523.08 1103.61 1529.48 Q1103.61 1535.88 1106.31 1539.57 Q1109.05 1543.23 1113.79 1543.23 Q1118.47 1543.23 1121.21 1539.54 Q1123.95 1535.85 1123.95 1529.48 Q1123.95 1523.15 1121.21 1519.46 Q1118.47 1515.73 1113.79 1515.73 M1113.79 1510.77 Q1121.43 1510.77 1125.79 1515.73 Q1130.15 1520.7 1130.15 1529.48 Q1130.15 1538.23 1125.79 1543.23 Q1121.43 1548.2 1113.79 1548.2 Q1106.12 1548.2 1101.76 1543.23 Q1097.43 1538.23 1097.43 1529.48 Q1097.43 1520.7 1101.76 1515.73 Q1106.12 1510.77 1113.79 1510.77 Z" fill="#000000" fill-rule="nonzero" fill-opacity="1" /><path clip-path="url(#clip810)" d="M1169.49 1525.76 L1169.49 1547.27 L1163.64 1547.27 L1163.64 1525.95 Q1163.64 1520.89 1161.66 1518.37 Q1159.69 1515.86 1155.74 1515.86 Q1151 1515.86 1148.26 1518.88 Q1145.53 1521.91 1145.53 1527.13 L1145.53 1547.27 L1139.64 1547.27 L1139.64 1511.63 L1145.53 1511.63 L1145.53 1517.16 Q1147.63 1513.95 1150.46 1512.36 Q1153.32 1510.77 1157.05 1510.77 Q1163.19 1510.77 1166.34 1514.59 Q1169.49 1518.37 1169.49 1525.76 Z" fill="#000000" fill-rule="nonzero" fill-opacity="1" /><path clip-path="url(#clip810)" d="M1204.63 1517.04 L1204.63 1497.75 L1210.49 1497.75 L1210.49 1547.27 L1204.63 1547.27 L1204.63 1541.93 Q1202.79 1545.11 1199.95 1546.67 Q1197.15 1548.2 1193.21 1548.2 Q1186.74 1548.2 1182.67 1543.04 Q1178.63 1537.88 1178.63 1529.48 Q1178.63 1521.08 1182.67 1515.92 Q1186.74 1510.77 1193.21 1510.77 Q1197.15 1510.77 1199.95 1512.33 Q1202.79 1513.85 1204.63 1517.04 M1184.68 1529.48 Q1184.68 1535.94 1187.32 1539.64 Q1189.99 1543.3 1194.64 1543.3 Q1199.28 1543.3 1201.96 1539.64 Q1204.63 1535.94 1204.63 1529.48 Q1204.63 1523.02 1201.96 1519.36 Q1199.28 1515.67 1194.64 1515.67 Q1189.99 1515.67 1187.32 1519.36 Q1184.68 1523.02 1184.68 1529.48 Z" fill="#000000" fill-rule="nonzero" fill-opacity="1" /><path clip-path="url(#clip810)" d="M1266.73 1517.04 L1266.73 1497.75 L1272.59 1497.75 L1272.59 1547.27 L1266.73 1547.27 L1266.73 1541.93 Q1264.88 1545.11 1262.05 1546.67 Q1259.25 1548.2 1255.3 1548.2 Q1248.84 1548.2 1244.77 1543.04 Q1240.73 1537.88 1240.73 1529.48 Q1240.73 1521.08 1244.77 1515.92 Q1248.84 1510.77 1255.3 1510.77 Q1259.25 1510.77 1262.05 1512.33 Q1264.88 1513.85 1266.73 1517.04 M1246.77 1529.48 Q1246.77 1535.94 1249.41 1539.64 Q1252.09 1543.3 1256.74 1543.3 Q1261.38 1543.3 1264.06 1539.64 Q1266.73 1535.94 1266.73 1529.48 Q1266.73 1523.02 1264.06 1519.36 Q1261.38 1515.67 1256.74 1515.67 Q1252.09 1515.67 1249.41 1519.36 Q1246.77 1523.02 1246.77 1529.48 Z" fill="#000000" fill-rule="nonzero" fill-opacity="1" /><path clip-path="url(#clip810)" d="M1284.65 1511.63 L1290.51 1511.63 L1290.51 1547.27 L1284.65 1547.27 L1284.65 1511.63 M1284.65 1497.75 L1290.51 1497.75 L1290.51 1505.16 L1284.65 1505.16 L1284.65 1497.75 Z" fill="#000000" fill-rule="nonzero" fill-opacity="1" /><path clip-path="url(#clip810)" d="M1330.51 1518.47 Q1332.71 1514.52 1335.77 1512.64 Q1338.82 1510.77 1342.96 1510.77 Q1348.53 1510.77 1351.55 1514.68 Q1354.58 1518.56 1354.58 1525.76 L1354.58 1547.27 L1348.69 1547.27 L1348.69 1525.95 Q1348.69 1520.82 1346.87 1518.34 Q1345.06 1515.86 1341.34 1515.86 Q1336.78 1515.86 1334.14 1518.88 Q1331.5 1521.91 1331.5 1527.13 L1331.5 1547.27 L1325.61 1547.27 L1325.61 1525.95 Q1325.61 1520.79 1323.8 1518.34 Q1321.98 1515.86 1318.2 1515.86 Q1313.71 1515.86 1311.07 1518.91 Q1308.42 1521.94 1308.42 1527.13 L1308.42 1547.27 L1302.54 1547.27 L1302.54 1511.63 L1308.42 1511.63 L1308.42 1517.16 Q1310.43 1513.89 1313.23 1512.33 Q1316.03 1510.77 1319.88 1510.77 Q1323.77 1510.77 1326.47 1512.74 Q1329.21 1514.71 1330.51 1518.47 Z" fill="#000000" fill-rule="nonzero" fill-opacity="1" /><path clip-path="url(#clip810)" d="M1396.75 1527.99 L1396.75 1530.85 L1369.82 1530.85 Q1370.2 1536.9 1373.45 1540.08 Q1376.73 1543.23 1382.55 1543.23 Q1385.93 1543.23 1389.08 1542.4 Q1392.26 1541.58 1395.38 1539.92 L1395.38 1545.46 Q1392.23 1546.8 1388.92 1547.5 Q1385.61 1548.2 1382.2 1548.2 Q1373.67 1548.2 1368.68 1543.23 Q1363.71 1538.27 1363.71 1529.8 Q1363.71 1521.05 1368.42 1515.92 Q1373.16 1510.77 1381.18 1510.77 Q1388.38 1510.77 1392.55 1515.41 Q1396.75 1520.03 1396.75 1527.99 M1390.89 1526.27 Q1390.83 1521.46 1388.19 1518.6 Q1385.58 1515.73 1381.25 1515.73 Q1376.35 1515.73 1373.39 1518.5 Q1370.46 1521.27 1370.01 1526.3 L1390.89 1526.27 Z" fill="#000000" fill-rule="nonzero" fill-opacity="1" /><path clip-path="url(#clip810)" d="M1435.99 1525.76 L1435.99 1547.27 L1430.14 1547.27 L1430.14 1525.95 Q1430.14 1520.89 1428.16 1518.37 Q1426.19 1515.86 1422.24 1515.86 Q1417.5 1515.86 1414.76 1518.88 Q1412.03 1521.91 1412.03 1527.13 L1412.03 1547.27 L1406.14 1547.27 L1406.14 1511.63 L1412.03 1511.63 L1412.03 1517.16 Q1414.13 1513.95 1416.96 1512.36 Q1419.82 1510.77 1423.55 1510.77 Q1429.69 1510.77 1432.84 1514.59 Q1435.99 1518.37 1435.99 1525.76 Z" fill="#000000" fill-rule="nonzero" fill-opacity="1" /><path clip-path="url(#clip810)" d="M1470.4 1512.68 L1470.4 1518.21 Q1467.92 1516.94 1465.24 1516.3 Q1462.57 1515.67 1459.71 1515.67 Q1455.35 1515.67 1453.15 1517.01 Q1450.98 1518.34 1450.98 1521.02 Q1450.98 1523.05 1452.54 1524.23 Q1454.1 1525.38 1458.81 1526.43 L1460.82 1526.87 Q1467.06 1528.21 1469.67 1530.66 Q1472.31 1533.08 1472.31 1537.44 Q1472.31 1542.4 1468.36 1545.3 Q1464.45 1548.2 1457.57 1548.2 Q1454.71 1548.2 1451.59 1547.62 Q1448.5 1547.08 1445.06 1545.97 L1445.06 1539.92 Q1448.31 1541.61 1451.46 1542.47 Q1454.61 1543.3 1457.7 1543.3 Q1461.84 1543.3 1464.07 1541.9 Q1466.29 1540.46 1466.29 1537.88 Q1466.29 1535.5 1464.67 1534.22 Q1463.08 1532.95 1457.64 1531.77 L1455.6 1531.3 Q1450.16 1530.15 1447.74 1527.79 Q1445.32 1525.41 1445.32 1521.27 Q1445.32 1516.24 1448.88 1513.5 Q1452.45 1510.77 1459.01 1510.77 Q1462.25 1510.77 1465.12 1511.24 Q1467.98 1511.72 1470.4 1512.68 Z" fill="#000000" fill-rule="nonzero" fill-opacity="1" /><path clip-path="url(#clip810)" d="M1481.64 1511.63 L1487.49 1511.63 L1487.49 1547.27 L1481.64 1547.27 L1481.64 1511.63 M1481.64 1497.75 L1487.49 1497.75 L1487.49 1505.16 L1481.64 1505.16 L1481.64 1497.75 Z" fill="#000000" fill-rule="nonzero" fill-opacity="1" /><path clip-path="url(#clip810)" d="M1513.56 1515.73 Q1508.85 1515.73 1506.11 1519.42 Q1503.37 1523.08 1503.37 1529.48 Q1503.37 1535.88 1506.08 1539.57 Q1508.82 1543.23 1513.56 1543.23 Q1518.24 1543.23 1520.98 1539.54 Q1523.71 1535.85 1523.71 1529.48 Q1523.71 1523.15 1520.98 1519.46 Q1518.24 1515.73 1513.56 1515.73 M1513.56 1510.77 Q1521.2 1510.77 1525.56 1515.73 Q1529.92 1520.7 1529.92 1529.48 Q1529.92 1538.23 1525.56 1543.23 Q1521.2 1548.2 1513.56 1548.2 Q1505.89 1548.2 1501.53 1543.23 Q1497.2 1538.23 1497.2 1529.48 Q1497.2 1520.7 1501.53 1515.73 Q1505.89 1510.77 1513.56 1510.77 Z" fill="#000000" fill-rule="nonzero" fill-opacity="1" /><path clip-path="url(#clip810)" d="M1569.26 1525.76 L1569.26 1547.27 L1563.4 1547.27 L1563.4 1525.95 Q1563.4 1520.89 1561.43 1518.37 Q1559.46 1515.86 1555.51 1515.86 Q1550.77 1515.86 1548.03 1518.88 Q1545.29 1521.91 1545.29 1527.13 L1545.29 1547.27 L1539.4 1547.27 L1539.4 1511.63 L1545.29 1511.63 L1545.29 1517.16 Q1547.39 1513.95 1550.23 1512.36 Q1553.09 1510.77 1556.81 1510.77 Q1562.96 1510.77 1566.11 1514.59 Q1569.26 1518.37 1569.26 1525.76 Z" fill="#000000" fill-rule="nonzero" fill-opacity="1" /><path clip-path="url(#clip810)" d="M1602.42 1517.67 L1643.23 1517.67 L1643.23 1523.02 L1602.42 1523.02 L1602.42 1517.67 M1602.42 1530.66 L1643.23 1530.66 L1643.23 1536.07 L1602.42 1536.07 L1602.42 1530.66 Z" fill="#000000" fill-rule="nonzero" fill-opacity="1" /><path clip-path="url(#clip810)" d="M1707.8 1519.09 Q1708.02 1519.32 1708.02 1519.64 Q1708.02 1519.96 1707.28 1520.7 L1691.6 1538.29 Q1697.59 1559.35 1700.87 1559.35 Q1701.87 1559.35 1702.9 1558.58 Q1703.96 1557.84 1704.38 1556.71 Q1704.54 1556.16 1704.7 1555.97 Q1704.87 1555.78 1705.32 1555.78 Q1706.09 1555.78 1706.09 1556.52 Q1706.09 1556.9 1705.74 1557.55 Q1705.38 1558.22 1704.74 1558.96 Q1704.09 1559.74 1702.97 1560.25 Q1701.84 1560.8 1700.49 1560.8 Q1698.81 1560.8 1697.46 1560.41 Q1696.11 1560.03 1695.33 1559.54 Q1694.56 1559.06 1693.85 1558.19 Q1693.17 1557.35 1692.92 1556.84 Q1692.69 1556.36 1692.31 1555.52 Q1691.53 1553.72 1690.82 1551.72 Q1690.12 1549.72 1689.66 1548.27 Q1689.21 1546.82 1687.83 1542.38 L1672.72 1559.35 Q1672.02 1560.06 1671.66 1560.06 Q1671.37 1560.06 1671.11 1559.8 Q1670.86 1559.58 1670.86 1559.29 Q1670.86 1558.96 1671.6 1558.22 L1686.77 1541.28 Q1686.99 1541.06 1687.12 1540.87 Q1687.25 1540.67 1687.25 1540.61 L1687.28 1540.54 Q1687.28 1540.38 1686.7 1538.32 Q1686.12 1536.26 1685.06 1533.07 Q1684.03 1529.85 1683.06 1527.5 Q1682.45 1525.92 1682.03 1524.96 Q1681.61 1523.99 1680.87 1522.54 Q1680.16 1521.09 1679.42 1520.35 Q1678.68 1519.58 1678.01 1519.58 Q1677.78 1519.58 1677.43 1519.67 Q1677.07 1519.77 1676.49 1520.03 Q1675.94 1520.25 1675.4 1520.9 Q1674.85 1521.51 1674.5 1522.41 Q1674.21 1523.12 1673.66 1523.12 Q1673.3 1523.12 1673.08 1522.96 Q1672.89 1522.8 1672.89 1522.64 L1672.85 1522.48 Q1672.85 1521.9 1673.4 1520.93 Q1673.95 1519.96 1675.3 1519.06 Q1676.65 1518.13 1678.39 1518.13 Q1680.03 1518.13 1681.39 1518.51 Q1682.74 1518.9 1683.48 1519.35 Q1684.25 1519.8 1684.93 1520.64 Q1685.61 1521.44 1685.8 1521.83 Q1686.03 1522.19 1686.38 1522.93 Q1687.47 1525.44 1688.18 1527.6 Q1688.92 1529.72 1691.05 1536.45 L1706.15 1519.64 Q1706.83 1518.84 1707.22 1518.84 Q1707.57 1518.84 1707.8 1519.09 Z" fill="#000000" fill-rule="nonzero" fill-opacity="1" /><polyline clip-path="url(#clip812)" style="stroke:#000000; stroke-linecap:round; stroke-linejoin:round; stroke-width:2; stroke-opacity:0.1; fill:none" points="175.445,1389.25 2352.76,1389.25 "/>
<polyline clip-path="url(#clip812)" style="stroke:#000000; stroke-linecap:round; stroke-linejoin:round; stroke-width:2; stroke-opacity:0.1; fill:none" points="175.445,1167.34 2352.76,1167.34 "/>
<polyline clip-path="url(#clip812)" style="stroke:#000000; stroke-linecap:round; stroke-linejoin:round; stroke-width:2; stroke-opacity:0.1; fill:none" points="175.445,945.432 2352.76,945.432 "/>
<polyline clip-path="url(#clip812)" style="stroke:#000000; stroke-linecap:round; stroke-linejoin:round; stroke-width:2; stroke-opacity:0.1; fill:none" points="175.445,723.522 2352.76,723.522 "/>
<polyline clip-path="url(#clip812)" style="stroke:#000000; stroke-linecap:round; stroke-linejoin:round; stroke-width:2; stroke-opacity:0.1; fill:none" points="175.445,501.612 2352.76,501.612 "/>
<polyline clip-path="url(#clip812)" style="stroke:#000000; stroke-linecap:round; stroke-linejoin:round; stroke-width:2; stroke-opacity:0.1; fill:none" points="175.445,279.702 2352.76,279.702 "/>
<polyline clip-path="url(#clip812)" style="stroke:#000000; stroke-linecap:round; stroke-linejoin:round; stroke-width:2; stroke-opacity:0.1; fill:none" points="175.445,57.7925 2352.76,57.7925 "/>
<polyline clip-path="url(#clip810)" style="stroke:#000000; stroke-linecap:round; stroke-linejoin:round; stroke-width:4; stroke-opacity:1; fill:none" points="175.445,1423.18 175.445,47.2441 "/>
<polyline clip-path="url(#clip810)" style="stroke:#000000; stroke-linecap:round; stroke-linejoin:round; stroke-width:4; stroke-opacity:1; fill:none" points="175.445,1389.25 194.343,1389.25 "/>
<polyline clip-path="url(#clip810)" style="stroke:#000000; stroke-linecap:round; stroke-linejoin:round; stroke-width:4; stroke-opacity:1; fill:none" points="175.445,1167.34 194.343,1167.34 "/>
<polyline clip-path="url(#clip810)" style="stroke:#000000; stroke-linecap:round; stroke-linejoin:round; stroke-width:4; stroke-opacity:1; fill:none" points="175.445,945.432 194.343,945.432 "/>
<polyline clip-path="url(#clip810)" style="stroke:#000000; stroke-linecap:round; stroke-linejoin:round; stroke-width:4; stroke-opacity:1; fill:none" points="175.445,723.522 194.343,723.522 "/>
<polyline clip-path="url(#clip810)" style="stroke:#000000; stroke-linecap:round; stroke-linejoin:round; stroke-width:4; stroke-opacity:1; fill:none" points="175.445,501.612 194.343,501.612 "/>
<polyline clip-path="url(#clip810)" style="stroke:#000000; stroke-linecap:round; stroke-linejoin:round; stroke-width:4; stroke-opacity:1; fill:none" points="175.445,279.702 194.343,279.702 "/>
<polyline clip-path="url(#clip810)" style="stroke:#000000; stroke-linecap:round; stroke-linejoin:round; stroke-width:4; stroke-opacity:1; fill:none" points="175.445,57.7925 194.343,57.7925 "/>
<path clip-path="url(#clip810)" d="M127.501 1375.05 Q123.89 1375.05 122.061 1378.62 Q120.255 1382.16 120.255 1389.29 Q120.255 1396.39 122.061 1399.96 Q123.89 1403.5 127.501 1403.5 Q131.135 1403.5 132.941 1399.96 Q134.769 1396.39 134.769 1389.29 Q134.769 1382.16 132.941 1378.62 Q131.135 1375.05 127.501 1375.05 M127.501 1371.35 Q133.311 1371.35 136.367 1375.95 Q139.445 1380.54 139.445 1389.29 Q139.445 1398.01 136.367 1402.62 Q133.311 1407.2 127.501 1407.2 Q121.691 1407.2 118.612 1402.62 Q115.556 1398.01 115.556 1389.29 Q115.556 1380.54 118.612 1375.95 Q121.691 1371.35 127.501 1371.35 Z" fill="#000000" fill-rule="nonzero" fill-opacity="1" /><path clip-path="url(#clip810)" d="M119.538 1180.69 L127.177 1180.69 L127.177 1154.32 L118.867 1155.99 L118.867 1151.73 L127.13 1150.06 L131.806 1150.06 L131.806 1180.69 L139.445 1180.69 L139.445 1184.62 L119.538 1184.62 L119.538 1180.69 Z" fill="#000000" fill-rule="nonzero" fill-opacity="1" /><path clip-path="url(#clip810)" d="M123.126 958.777 L139.445 958.777 L139.445 962.712 L117.501 962.712 L117.501 958.777 Q120.163 956.022 124.746 951.393 Q129.353 946.74 130.533 945.397 Q132.779 942.874 133.658 941.138 Q134.561 939.379 134.561 937.689 Q134.561 934.935 132.617 933.198 Q130.695 931.462 127.593 931.462 Q125.394 931.462 122.941 932.226 Q120.51 932.99 117.732 934.541 L117.732 929.819 Q120.556 928.685 123.01 928.106 Q125.464 927.527 127.501 927.527 Q132.871 927.527 136.066 930.212 Q139.26 932.897 139.26 937.388 Q139.26 939.518 138.45 941.439 Q137.663 943.337 135.556 945.93 Q134.978 946.601 131.876 949.819 Q128.774 953.013 123.126 958.777 Z" fill="#000000" fill-rule="nonzero" fill-opacity="1" /><path clip-path="url(#clip810)" d="M132.316 722.168 Q135.672 722.886 137.547 725.154 Q139.445 727.423 139.445 730.756 Q139.445 735.872 135.927 738.673 Q132.408 741.474 125.927 741.474 Q123.751 741.474 121.436 741.034 Q119.144 740.617 116.691 739.761 L116.691 735.247 Q118.635 736.381 120.95 736.96 Q123.265 737.538 125.788 737.538 Q130.186 737.538 132.478 735.802 Q134.792 734.066 134.792 730.756 Q134.792 727.7 132.64 725.987 Q130.51 724.251 126.691 724.251 L122.663 724.251 L122.663 720.409 L126.876 720.409 Q130.325 720.409 132.154 719.043 Q133.982 717.654 133.982 715.062 Q133.982 712.4 132.084 710.988 Q130.209 709.552 126.691 709.552 Q124.769 709.552 122.57 709.969 Q120.371 710.386 117.732 711.265 L117.732 707.099 Q120.394 706.358 122.709 705.988 Q125.047 705.617 127.107 705.617 Q132.431 705.617 135.533 708.048 Q138.635 710.455 138.635 714.576 Q138.635 717.446 136.992 719.437 Q135.348 721.404 132.316 722.168 Z" fill="#000000" fill-rule="nonzero" fill-opacity="1" /><path clip-path="url(#clip810)" d="M129.862 488.406 L118.056 506.855 L129.862 506.855 L129.862 488.406 M128.635 484.332 L134.515 484.332 L134.515 506.855 L139.445 506.855 L139.445 510.744 L134.515 510.744 L134.515 518.892 L129.862 518.892 L129.862 510.744 L114.26 510.744 L114.26 506.23 L128.635 484.332 Z" fill="#000000" fill-rule="nonzero" fill-opacity="1" /><path clip-path="url(#clip810)" d="M118.543 262.422 L136.899 262.422 L136.899 266.358 L122.825 266.358 L122.825 274.83 Q123.843 274.483 124.862 274.32 Q125.88 274.135 126.899 274.135 Q132.686 274.135 136.066 277.307 Q139.445 280.478 139.445 285.894 Q139.445 291.473 135.973 294.575 Q132.501 297.654 126.181 297.654 Q124.005 297.654 121.737 297.283 Q119.492 296.913 117.084 296.172 L117.084 291.473 Q119.168 292.607 121.39 293.163 Q123.612 293.719 126.089 293.719 Q130.093 293.719 132.431 291.612 Q134.769 289.506 134.769 285.894 Q134.769 282.283 132.431 280.177 Q130.093 278.07 126.089 278.07 Q124.214 278.07 122.339 278.487 Q120.487 278.904 118.543 279.783 L118.543 262.422 Z" fill="#000000" fill-rule="nonzero" fill-opacity="1" /><path clip-path="url(#clip810)" d="M127.917 55.9291 Q124.769 55.9291 122.918 58.0818 Q121.089 60.2346 121.089 63.9846 Q121.089 67.7114 122.918 69.8873 Q124.769 72.0401 127.917 72.0401 Q131.066 72.0401 132.894 69.8873 Q134.746 67.7114 134.746 63.9846 Q134.746 60.2346 132.894 58.0818 Q131.066 55.9291 127.917 55.9291 M137.2 41.2764 L137.2 45.5356 Q135.441 44.7023 133.635 44.2625 Q131.853 43.8226 130.093 43.8226 Q125.464 43.8226 123.01 46.9476 Q120.58 50.0726 120.232 56.392 Q121.598 54.3781 123.658 53.3133 Q125.718 52.2254 128.195 52.2254 Q133.404 52.2254 136.413 55.3967 Q139.445 58.5448 139.445 63.9846 Q139.445 69.3086 136.297 72.5262 Q133.149 75.7438 127.917 75.7438 Q121.922 75.7438 118.751 71.1605 Q115.58 66.554 115.58 57.8272 Q115.58 49.6328 119.468 44.7717 Q123.357 39.8875 129.908 39.8875 Q131.667 39.8875 133.45 40.2347 Q135.255 40.5819 137.2 41.2764 Z" fill="#000000" fill-rule="nonzero" fill-opacity="1" /><path clip-path="url(#clip810)" d="M20.1444 1040 L26.9239 1040 Q23.9002 1043.25 22.4043 1046.94 Q20.9083 1050.6 20.9083 1054.74 Q20.9083 1062.89 25.9054 1067.22 Q30.8707 1071.54 40.2919 1071.54 Q49.6813 1071.54 54.6784 1067.22 Q59.6436 1062.89 59.6436 1054.74 Q59.6436 1050.6 58.1477 1046.94 Q56.6518 1043.25 53.6281 1040 L60.3439 1040 Q62.6355 1043.38 63.7814 1047.16 Q64.9272 1050.92 64.9272 1055.12 Q64.9272 1065.91 58.3387 1072.12 Q51.7183 1078.32 40.2919 1078.32 Q28.8336 1078.32 22.2451 1072.12 Q15.6248 1065.91 15.6248 1055.12 Q15.6248 1050.86 16.7706 1047.1 Q17.8846 1043.31 20.1444 1040 Z" fill="#000000" fill-rule="nonzero" fill-opacity="1" /><path clip-path="url(#clip810)" d="M32.4621 1016.51 Q32.4621 1021.22 36.1542 1023.96 Q39.8145 1026.7 46.212 1026.7 Q52.6095 1026.7 56.3017 1023.99 Q59.9619 1021.25 59.9619 1016.51 Q59.9619 1011.83 56.2698 1009.1 Q52.5777 1006.36 46.212 1006.36 Q39.8781 1006.36 36.186 1009.1 Q32.4621 1011.83 32.4621 1016.51 M27.4968 1016.51 Q27.4968 1008.87 32.4621 1004.51 Q37.4273 1000.15 46.212 1000.15 Q54.9649 1000.15 59.9619 1004.51 Q64.9272 1008.87 64.9272 1016.51 Q64.9272 1024.18 59.9619 1028.54 Q54.9649 1032.87 46.212 1032.87 Q37.4273 1032.87 32.4621 1028.54 Q27.4968 1024.18 27.4968 1016.51 Z" fill="#000000" fill-rule="nonzero" fill-opacity="1" /><path clip-path="url(#clip810)" d="M35.1993 962.69 Q31.2526 960.494 29.3747 957.439 Q27.4968 954.383 27.4968 950.246 Q27.4968 944.676 31.4117 941.652 Q35.2948 938.628 42.4881 938.628 L64.0042 938.628 L64.0042 944.516 L42.679 944.516 Q37.5546 944.516 35.072 946.331 Q32.5894 948.145 32.5894 951.869 Q32.5894 956.42 35.6131 959.062 Q38.6368 961.704 43.8567 961.704 L64.0042 961.704 L64.0042 967.592 L42.679 967.592 Q37.5228 967.592 35.072 969.406 Q32.5894 971.221 32.5894 975.008 Q32.5894 979.496 35.6449 982.138 Q38.6686 984.779 43.8567 984.779 L64.0042 984.779 L64.0042 990.668 L28.3562 990.668 L28.3562 984.779 L33.8944 984.779 Q30.616 982.774 29.0564 979.973 Q27.4968 977.172 27.4968 973.321 Q27.4968 969.438 29.4702 966.733 Q31.4436 963.995 35.1993 962.69 Z" fill="#000000" fill-rule="nonzero" fill-opacity="1" /><path clip-path="url(#clip810)" d="M58.657 921.282 L77.5631 921.282 L77.5631 927.17 L28.3562 927.17 L28.3562 921.282 L33.7671 921.282 Q30.5842 919.436 29.0564 916.635 Q27.4968 913.802 27.4968 909.887 Q27.4968 903.394 32.6531 899.352 Q37.8093 895.278 46.212 895.278 Q54.6147 895.278 59.771 899.352 Q64.9272 903.394 64.9272 909.887 Q64.9272 913.802 63.3994 916.635 Q61.8398 919.436 58.657 921.282 M46.212 901.357 Q39.7508 901.357 36.0905 904.031 Q32.3984 906.672 32.3984 911.319 Q32.3984 915.966 36.0905 918.64 Q39.7508 921.282 46.212 921.282 Q52.6732 921.282 56.3653 918.64 Q60.0256 915.966 60.0256 911.319 Q60.0256 906.672 56.3653 904.031 Q52.6732 901.357 46.212 901.357 Z" fill="#000000" fill-rule="nonzero" fill-opacity="1" /><path clip-path="url(#clip810)" d="M49.9359 886.175 L28.3562 886.175 L28.3562 880.318 L49.7131 880.318 Q54.7739 880.318 57.3202 878.345 Q59.8346 876.372 59.8346 872.425 Q59.8346 867.682 56.8109 864.945 Q53.7872 862.176 48.5673 862.176 L28.3562 862.176 L28.3562 856.32 L64.0042 856.32 L64.0042 862.176 L58.5296 862.176 Q61.7762 864.308 63.3676 867.141 Q64.9272 869.942 64.9272 873.666 Q64.9272 879.809 61.1078 882.992 Q57.2883 886.175 49.9359 886.175 M27.4968 871.438 L27.4968 871.438 Z" fill="#000000" fill-rule="nonzero" fill-opacity="1" /><path clip-path="url(#clip810)" d="M18.2347 838.464 L28.3562 838.464 L28.3562 826.401 L32.9077 826.401 L32.9077 838.464 L52.2594 838.464 Q56.6199 838.464 57.8613 837.286 Q59.1026 836.077 59.1026 832.416 L59.1026 826.401 L64.0042 826.401 L64.0042 832.416 Q64.0042 839.196 61.4897 841.774 Q58.9434 844.352 52.2594 844.352 L32.9077 844.352 L32.9077 848.649 L28.3562 848.649 L28.3562 844.352 L18.2347 844.352 L18.2347 838.464 Z" fill="#000000" fill-rule="nonzero" fill-opacity="1" /><path clip-path="url(#clip810)" d="M46.0847 802.497 Q46.0847 809.595 47.7079 812.333 Q49.3312 815.07 53.2461 815.07 Q56.3653 815.07 58.2114 813.033 Q60.0256 810.964 60.0256 807.431 Q60.0256 802.561 56.5881 799.633 Q53.1188 796.673 47.3897 796.673 L46.0847 796.673 L46.0847 802.497 M43.6657 790.816 L64.0042 790.816 L64.0042 796.673 L58.5933 796.673 Q61.8398 798.678 63.3994 801.67 Q64.9272 804.662 64.9272 808.991 Q64.9272 814.465 61.8716 817.712 Q58.7843 820.926 53.6281 820.926 Q47.6125 820.926 44.5569 816.916 Q41.5014 812.874 41.5014 804.885 L41.5014 796.673 L40.9285 796.673 Q36.8862 796.673 34.6901 799.346 Q32.4621 801.988 32.4621 806.794 Q32.4621 809.85 33.1941 812.746 Q33.9262 815.643 35.3903 818.316 L29.9795 818.316 Q28.7381 815.102 28.1334 812.078 Q27.4968 809.054 27.4968 806.19 Q27.4968 798.455 31.5072 794.636 Q35.5176 790.816 43.6657 790.816 Z" fill="#000000" fill-rule="nonzero" fill-opacity="1" /><path clip-path="url(#clip810)" d="M18.2347 772.961 L28.3562 772.961 L28.3562 760.898 L32.9077 760.898 L32.9077 772.961 L52.2594 772.961 Q56.6199 772.961 57.8613 771.783 Q59.1026 770.573 59.1026 766.913 L59.1026 760.898 L64.0042 760.898 L64.0042 766.913 Q64.0042 773.693 61.4897 776.271 Q58.9434 778.849 52.2594 778.849 L32.9077 778.849 L32.9077 783.146 L28.3562 783.146 L28.3562 778.849 L18.2347 778.849 L18.2347 772.961 Z" fill="#000000" fill-rule="nonzero" fill-opacity="1" /><path clip-path="url(#clip810)" d="M28.3562 753.195 L28.3562 747.339 L64.0042 747.339 L64.0042 753.195 L28.3562 753.195 M14.479 753.195 L14.479 747.339 L21.895 747.339 L21.895 753.195 L14.479 753.195 Z" fill="#000000" fill-rule="nonzero" fill-opacity="1" /><path clip-path="url(#clip810)" d="M32.4621 721.271 Q32.4621 725.982 36.1542 728.719 Q39.8145 731.456 46.212 731.456 Q52.6095 731.456 56.3017 728.751 Q59.9619 726.014 59.9619 721.271 Q59.9619 716.592 56.2698 713.855 Q52.5777 711.118 46.212 711.118 Q39.8781 711.118 36.186 713.855 Q32.4621 716.592 32.4621 721.271 M27.4968 721.271 Q27.4968 713.632 32.4621 709.272 Q37.4273 704.911 46.212 704.911 Q54.9649 704.911 59.9619 709.272 Q64.9272 713.632 64.9272 721.271 Q64.9272 728.942 59.9619 733.302 Q54.9649 737.631 46.212 737.631 Q37.4273 737.631 32.4621 733.302 Q27.4968 728.942 27.4968 721.271 Z" fill="#000000" fill-rule="nonzero" fill-opacity="1" /><path clip-path="url(#clip810)" d="M42.4881 665.571 L64.0042 665.571 L64.0042 671.428 L42.679 671.428 Q37.6183 671.428 35.1038 673.401 Q32.5894 675.374 32.5894 679.321 Q32.5894 684.064 35.6131 686.801 Q38.6368 689.538 43.8567 689.538 L64.0042 689.538 L64.0042 695.426 L28.3562 695.426 L28.3562 689.538 L33.8944 689.538 Q30.6797 687.437 29.0883 684.605 Q27.4968 681.74 27.4968 678.016 Q27.4968 671.873 31.3163 668.722 Q35.1038 665.571 42.4881 665.571 Z" fill="#000000" fill-rule="nonzero" fill-opacity="1" /><path clip-path="url(#clip810)" d="M18.2347 627.377 L28.3562 627.377 L28.3562 615.314 L32.9077 615.314 L32.9077 627.377 L52.2594 627.377 Q56.6199 627.377 57.8613 626.199 Q59.1026 624.99 59.1026 621.329 L59.1026 615.314 L64.0042 615.314 L64.0042 621.329 Q64.0042 628.109 61.4897 630.687 Q58.9434 633.265 52.2594 633.265 L32.9077 633.265 L32.9077 637.562 L28.3562 637.562 L28.3562 633.265 L18.2347 633.265 L18.2347 627.377 Z" fill="#000000" fill-rule="nonzero" fill-opacity="1" /><path clip-path="url(#clip810)" d="M28.3562 607.611 L28.3562 601.755 L64.0042 601.755 L64.0042 607.611 L28.3562 607.611 M14.479 607.611 L14.479 601.755 L21.895 601.755 L21.895 607.611 L14.479 607.611 Z" fill="#000000" fill-rule="nonzero" fill-opacity="1" /><path clip-path="url(#clip810)" d="M35.1993 561.746 Q31.2526 559.55 29.3747 556.495 Q27.4968 553.439 27.4968 549.302 Q27.4968 543.732 31.4117 540.708 Q35.2948 537.684 42.4881 537.684 L64.0042 537.684 L64.0042 543.572 L42.679 543.572 Q37.5546 543.572 35.072 545.387 Q32.5894 547.201 32.5894 550.925 Q32.5894 555.476 35.6131 558.118 Q38.6368 560.76 43.8567 560.76 L64.0042 560.76 L64.0042 566.648 L42.679 566.648 Q37.5228 566.648 35.072 568.462 Q32.5894 570.277 32.5894 574.064 Q32.5894 578.552 35.6449 581.194 Q38.6686 583.835 43.8567 583.835 L64.0042 583.835 L64.0042 589.724 L28.3562 589.724 L28.3562 583.835 L33.8944 583.835 Q30.616 581.83 29.0564 579.029 Q27.4968 576.228 27.4968 572.377 Q27.4968 568.494 29.4702 565.789 Q31.4436 563.051 35.1993 561.746 Z" fill="#000000" fill-rule="nonzero" fill-opacity="1" /><path clip-path="url(#clip810)" d="M44.7161 495.511 L47.5806 495.511 L47.5806 522.438 Q53.6281 522.056 56.8109 518.81 Q59.9619 515.531 59.9619 509.707 Q59.9619 506.333 59.1344 503.182 Q58.3069 499.999 56.6518 496.88 L62.1899 496.88 Q63.5267 500.031 64.227 503.341 Q64.9272 506.651 64.9272 510.057 Q64.9272 518.587 59.9619 523.584 Q54.9967 528.549 46.5303 528.549 Q37.7774 528.549 32.6531 523.839 Q27.4968 519.096 27.4968 511.075 Q27.4968 503.882 32.1438 499.713 Q36.7589 495.511 44.7161 495.511 M42.9973 501.368 Q38.1912 501.431 35.3266 504.073 Q32.4621 506.683 32.4621 511.012 Q32.4621 515.913 35.2312 518.873 Q38.0002 521.802 43.0292 522.247 L42.9973 501.368 Z" fill="#000000" fill-rule="nonzero" fill-opacity="1" /><path clip-path="url(#clip810)" d="M14.479 465.72 L14.479 452.224 L19.0304 452.224 L19.0304 459.863 L68.0464 459.863 L68.0464 452.224 L72.5979 452.224 L72.5979 465.72 L14.479 465.72 Z" fill="#000000" fill-rule="nonzero" fill-opacity="1" /><path clip-path="url(#clip810)" d="M29.4065 417.022 L34.9447 417.022 Q33.6716 419.505 33.035 422.178 Q32.3984 424.852 32.3984 427.717 Q32.3984 432.077 33.7352 434.273 Q35.072 436.438 37.7456 436.438 Q39.7826 436.438 40.9603 434.878 Q42.1061 433.318 43.1565 428.608 L43.6021 426.603 Q44.9389 420.364 47.3897 417.754 Q49.8086 415.112 54.1691 415.112 Q59.1344 415.112 62.0308 419.059 Q64.9272 422.974 64.9272 429.849 Q64.9272 432.714 64.3543 435.833 Q63.8132 438.92 62.6992 442.358 L56.6518 442.358 Q58.3387 439.111 59.198 435.96 Q60.0256 432.809 60.0256 429.722 Q60.0256 425.584 58.6251 423.356 Q57.1929 421.128 54.6147 421.128 Q52.2276 421.128 50.9545 422.751 Q49.6813 424.343 48.5037 429.785 L48.0262 431.822 Q46.8804 437.265 44.5251 439.684 Q42.138 442.103 38.0002 442.103 Q32.9713 442.103 30.2341 438.538 Q27.4968 434.973 27.4968 428.417 Q27.4968 425.17 27.9743 422.306 Q28.4517 419.441 29.4065 417.022 Z" fill="#000000" fill-rule="nonzero" fill-opacity="1" /><path clip-path="url(#clip810)" d="M14.479 392.1 L72.5979 392.1 L72.5979 405.596 L68.0464 405.596 L68.0464 397.989 L19.0304 397.989 L19.0304 405.596 L14.479 405.596 L14.479 392.1 Z" fill="#000000" fill-rule="nonzero" fill-opacity="1" /><circle clip-path="url(#clip812)" cx="237.067" cy="1379.86" r="14.4" fill="#009af9" fill-rule="evenodd" fill-opacity="1" stroke="#000000" stroke-opacity="1" stroke-width="3.2"/>
<circle clip-path="url(#clip812)" cx="394.259" cy="1367.49" r="14.4" fill="#009af9" fill-rule="evenodd" fill-opacity="1" stroke="#000000" stroke-opacity="1" stroke-width="3.2"/>
<circle clip-path="url(#clip812)" cx="505.788" cy="1377.34" r="14.4" fill="#009af9" fill-rule="evenodd" fill-opacity="1" stroke="#000000" stroke-opacity="1" stroke-width="3.2"/>
<circle clip-path="url(#clip812)" cx="592.297" cy="1378.83" r="14.4" fill="#009af9" fill-rule="evenodd" fill-opacity="1" stroke="#000000" stroke-opacity="1" stroke-width="3.2"/>
<circle clip-path="url(#clip812)" cx="662.98" cy="1376.32" r="14.4" fill="#009af9" fill-rule="evenodd" fill-opacity="1" stroke="#000000" stroke-opacity="1" stroke-width="3.2"/>
<circle clip-path="url(#clip812)" cx="722.742" cy="1376.28" r="14.4" fill="#009af9" fill-rule="evenodd" fill-opacity="1" stroke="#000000" stroke-opacity="1" stroke-width="3.2"/>
<circle clip-path="url(#clip812)" cx="774.51" cy="1374.09" r="14.4" fill="#009af9" fill-rule="evenodd" fill-opacity="1" stroke="#000000" stroke-opacity="1" stroke-width="3.2"/>
<circle clip-path="url(#clip812)" cx="820.172" cy="1374.68" r="14.4" fill="#009af9" fill-rule="evenodd" fill-opacity="1" stroke="#000000" stroke-opacity="1" stroke-width="3.2"/>
<circle clip-path="url(#clip812)" cx="861.019" cy="1372.32" r="14.4" fill="#009af9" fill-rule="evenodd" fill-opacity="1" stroke="#000000" stroke-opacity="1" stroke-width="3.2"/>
<circle clip-path="url(#clip812)" cx="897.969" cy="1371.75" r="14.4" fill="#009af9" fill-rule="evenodd" fill-opacity="1" stroke="#000000" stroke-opacity="1" stroke-width="3.2"/>
<circle clip-path="url(#clip812)" cx="931.702" cy="1372.6" r="14.4" fill="#009af9" fill-rule="evenodd" fill-opacity="1" stroke="#000000" stroke-opacity="1" stroke-width="3.2"/>
<circle clip-path="url(#clip812)" cx="962.733" cy="1370.84" r="14.4" fill="#009af9" fill-rule="evenodd" fill-opacity="1" stroke="#000000" stroke-opacity="1" stroke-width="3.2"/>
<circle clip-path="url(#clip812)" cx="991.463" cy="1368.4" r="14.4" fill="#009af9" fill-rule="evenodd" fill-opacity="1" stroke="#000000" stroke-opacity="1" stroke-width="3.2"/>
<circle clip-path="url(#clip812)" cx="1018.21" cy="1369.45" r="14.4" fill="#009af9" fill-rule="evenodd" fill-opacity="1" stroke="#000000" stroke-opacity="1" stroke-width="3.2"/>
<circle clip-path="url(#clip812)" cx="1043.23" cy="1368.4" r="14.4" fill="#009af9" fill-rule="evenodd" fill-opacity="1" stroke="#000000" stroke-opacity="1" stroke-width="3.2"/>
<circle clip-path="url(#clip812)" cx="1066.73" cy="1366.95" r="14.4" fill="#009af9" fill-rule="evenodd" fill-opacity="1" stroke="#000000" stroke-opacity="1" stroke-width="3.2"/>
<circle clip-path="url(#clip812)" cx="1088.89" cy="1370.22" r="14.4" fill="#009af9" fill-rule="evenodd" fill-opacity="1" stroke="#000000" stroke-opacity="1" stroke-width="3.2"/>
<circle clip-path="url(#clip812)" cx="1109.85" cy="1364.59" r="14.4" fill="#009af9" fill-rule="evenodd" fill-opacity="1" stroke="#000000" stroke-opacity="1" stroke-width="3.2"/>
<circle clip-path="url(#clip812)" cx="1129.74" cy="1364.91" r="14.4" fill="#009af9" fill-rule="evenodd" fill-opacity="1" stroke="#000000" stroke-opacity="1" stroke-width="3.2"/>
<circle clip-path="url(#clip812)" cx="1200.42" cy="1357.69" r="14.4" fill="#009af9" fill-rule="evenodd" fill-opacity="1" stroke="#000000" stroke-opacity="1" stroke-width="3.2"/>
<circle clip-path="url(#clip812)" cx="1260.18" cy="1355.94" r="14.4" fill="#009af9" fill-rule="evenodd" fill-opacity="1" stroke="#000000" stroke-opacity="1" stroke-width="3.2"/>
<circle clip-path="url(#clip812)" cx="1311.95" cy="1352.14" r="14.4" fill="#009af9" fill-rule="evenodd" fill-opacity="1" stroke="#000000" stroke-opacity="1" stroke-width="3.2"/>
<circle clip-path="url(#clip812)" cx="1357.61" cy="1349.78" r="14.4" fill="#009af9" fill-rule="evenodd" fill-opacity="1" stroke="#000000" stroke-opacity="1" stroke-width="3.2"/>
<circle clip-path="url(#clip812)" cx="1398.46" cy="1344" r="14.4" fill="#009af9" fill-rule="evenodd" fill-opacity="1" stroke="#000000" stroke-opacity="1" stroke-width="3.2"/>
<circle clip-path="url(#clip812)" cx="1435.41" cy="1341.47" r="14.4" fill="#009af9" fill-rule="evenodd" fill-opacity="1" stroke="#000000" stroke-opacity="1" stroke-width="3.2"/>
<circle clip-path="url(#clip812)" cx="1469.14" cy="1336.14" r="14.4" fill="#009af9" fill-rule="evenodd" fill-opacity="1" stroke="#000000" stroke-opacity="1" stroke-width="3.2"/>
<circle clip-path="url(#clip812)" cx="1500.18" cy="1331.12" r="14.4" fill="#009af9" fill-rule="evenodd" fill-opacity="1" stroke="#000000" stroke-opacity="1" stroke-width="3.2"/>
<circle clip-path="url(#clip812)" cx="1528.91" cy="1326.14" r="14.4" fill="#009af9" fill-rule="evenodd" fill-opacity="1" stroke="#000000" stroke-opacity="1" stroke-width="3.2"/>
<circle clip-path="url(#clip812)" cx="1555.65" cy="1321.65" r="14.4" fill="#009af9" fill-rule="evenodd" fill-opacity="1" stroke="#000000" stroke-opacity="1" stroke-width="3.2"/>
<circle clip-path="url(#clip812)" cx="1615.41" cy="1311.25" r="14.4" fill="#009af9" fill-rule="evenodd" fill-opacity="1" stroke="#000000" stroke-opacity="1" stroke-width="3.2"/>
<circle clip-path="url(#clip812)" cx="1667.18" cy="1275.68" r="14.4" fill="#009af9" fill-rule="evenodd" fill-opacity="1" stroke="#000000" stroke-opacity="1" stroke-width="3.2"/>
<circle clip-path="url(#clip812)" cx="1712.84" cy="1275.01" r="14.4" fill="#009af9" fill-rule="evenodd" fill-opacity="1" stroke="#000000" stroke-opacity="1" stroke-width="3.2"/>
<circle clip-path="url(#clip812)" cx="1753.69" cy="1257.29" r="14.4" fill="#009af9" fill-rule="evenodd" fill-opacity="1" stroke="#000000" stroke-opacity="1" stroke-width="3.2"/>
<circle clip-path="url(#clip812)" cx="1824.37" cy="1209.88" r="14.4" fill="#009af9" fill-rule="evenodd" fill-opacity="1" stroke="#000000" stroke-opacity="1" stroke-width="3.2"/>
<circle clip-path="url(#clip812)" cx="1884.14" cy="1165.36" r="14.4" fill="#009af9" fill-rule="evenodd" fill-opacity="1" stroke="#000000" stroke-opacity="1" stroke-width="3.2"/>
<circle clip-path="url(#clip812)" cx="1935.9" cy="1098.14" r="14.4" fill="#009af9" fill-rule="evenodd" fill-opacity="1" stroke="#000000" stroke-opacity="1" stroke-width="3.2"/>
<circle clip-path="url(#clip812)" cx="1981.57" cy="1020.17" r="14.4" fill="#009af9" fill-rule="evenodd" fill-opacity="1" stroke="#000000" stroke-opacity="1" stroke-width="3.2"/>
<circle clip-path="url(#clip812)" cx="2022.41" cy="925.344" r="14.4" fill="#009af9" fill-rule="evenodd" fill-opacity="1" stroke="#000000" stroke-opacity="1" stroke-width="3.2"/>
<circle clip-path="url(#clip812)" cx="2179.6" cy="553.321" r="14.4" fill="#009af9" fill-rule="evenodd" fill-opacity="1" stroke="#000000" stroke-opacity="1" stroke-width="3.2"/>
<circle clip-path="url(#clip812)" cx="2291.13" cy="112.136" r="14.4" fill="#009af9" fill-rule="evenodd" fill-opacity="1" stroke="#000000" stroke-opacity="1" stroke-width="3.2"/>
<polyline clip-path="url(#clip812)" style="stroke:#20b2aa; stroke-linecap:round; stroke-linejoin:round; stroke-width:8; stroke-opacity:1; fill:none" stroke-dasharray="4, 8" points="237.067,1384.24 394.259,1383.32 505.788,1382.38 592.297,1381.44 662.98,1380.48 722.742,1379.51 774.51,1378.53 820.172,1377.54 861.019,1376.53 897.969,1375.51 931.702,1374.49 962.733,1373.45 991.463,1372.39 1018.21,1371.33 1043.23,1370.25 1066.73,1369.17 1088.89,1368.07 1109.85,1366.96 1129.74,1365.84 1200.42,1361.23 1260.18,1356.43 1311.95,1351.45 1357.61,1346.27 1398.46,1340.91 1435.41,1335.36 1469.14,1329.62 1500.18,1323.69 1528.91,1317.57 1555.65,1311.27 1615.41,1294.68 1667.18,1276.92 1712.84,1257.97 1753.69,1237.85 1824.37,1194.07 1884.14,1145.57 1935.9,1092.36 1981.57,1034.44 2022.41,971.805 2179.6,587.917 2291.13,86.1857 "/>
<path clip-path="url(#clip810)" d="M248.022 222.709 L2184.9 222.709 L2184.9 93.1086 L248.022 93.1086  Z" fill="#ffffff" fill-rule="evenodd" fill-opacity="1"/>
<polyline clip-path="url(#clip810)" style="stroke:#000000; stroke-linecap:round; stroke-linejoin:round; stroke-width:4; stroke-opacity:1; fill:none" points="248.022,222.709 2184.9,222.709 2184.9,93.1086 248.022,93.1086 248.022,222.709 "/>
<polyline clip-path="url(#clip810)" style="stroke:#20b2aa; stroke-linecap:round; stroke-linejoin:round; stroke-width:10; stroke-opacity:1; fill:none" stroke-dasharray="5, 10" points="272.215,157.909 417.369,157.909 "/>
<path clip-path="url(#clip810)" d="M441.561 131.433 L478.106 131.433 L478.106 136.352 L462.77 136.352 L462.77 174.633 L456.897 174.633 L456.897 136.352 L441.561 136.352 L441.561 131.433 Z" fill="#000000" fill-rule="nonzero" fill-opacity="1" /><path clip-path="url(#clip810)" d="M481.694 142.225 L487.018 142.225 L487.018 174.633 L481.694 174.633 L481.694 142.225 M481.694 129.61 L487.018 129.61 L487.018 136.352 L481.694 136.352 L481.694 129.61 Z" fill="#000000" fill-rule="nonzero" fill-opacity="1" /><path clip-path="url(#clip810)" d="M523.389 148.446 Q525.386 144.859 528.164 143.151 Q530.941 141.444 534.703 141.444 Q539.766 141.444 542.515 145.003 Q545.264 148.533 545.264 155.073 L545.264 174.633 L539.911 174.633 L539.911 155.246 Q539.911 150.588 538.262 148.331 Q536.613 146.074 533.227 146.074 Q529.089 146.074 526.688 148.823 Q524.286 151.571 524.286 156.317 L524.286 174.633 L518.933 174.633 L518.933 155.246 Q518.933 150.559 517.284 148.331 Q515.635 146.074 512.191 146.074 Q508.112 146.074 505.71 148.852 Q503.308 151.6 503.308 156.317 L503.308 174.633 L497.955 174.633 L497.955 142.225 L503.308 142.225 L503.308 147.26 Q505.131 144.28 507.678 142.862 Q510.224 141.444 513.725 141.444 Q517.255 141.444 519.714 143.238 Q522.203 145.032 523.389 148.446 Z" fill="#000000" fill-rule="nonzero" fill-opacity="1" /><path clip-path="url(#clip810)" d="M583.603 157.098 L583.603 159.702 L559.124 159.702 Q559.471 165.2 562.423 168.093 Q565.403 170.958 570.698 170.958 Q573.765 170.958 576.63 170.206 Q579.523 169.453 582.359 167.949 L582.359 172.983 Q579.494 174.199 576.485 174.835 Q573.476 175.472 570.38 175.472 Q562.625 175.472 558.082 170.958 Q553.568 166.444 553.568 158.747 Q553.568 150.79 557.851 146.132 Q562.162 141.444 569.454 141.444 Q575.993 141.444 579.784 145.669 Q583.603 149.864 583.603 157.098 M578.279 155.536 Q578.221 151.166 575.819 148.562 Q573.447 145.958 569.512 145.958 Q565.056 145.958 562.365 148.475 Q559.703 150.993 559.298 155.564 L578.279 155.536 Z" fill="#000000" fill-rule="nonzero" fill-opacity="1" /><path clip-path="url(#clip810)" d="M610.686 129.61 L622.955 129.61 L622.955 133.747 L616.01 133.747 L616.01 178.307 L622.955 178.307 L622.955 182.445 L610.686 182.445 L610.686 129.61 Z" fill="#000000" fill-rule="nonzero" fill-opacity="1" /><path clip-path="url(#clip810)" d="M654.957 143.18 L654.957 148.215 Q652.7 147.058 650.269 146.479 Q647.839 145.9 645.235 145.9 Q641.271 145.9 639.274 147.115 Q637.306 148.331 637.306 150.761 Q637.306 152.613 638.724 153.684 Q640.142 154.725 644.424 155.68 L646.247 156.085 Q651.919 157.301 654.291 159.529 Q656.693 161.728 656.693 165.692 Q656.693 170.206 653.105 172.839 Q649.546 175.472 643.296 175.472 Q640.692 175.472 637.856 174.951 Q635.05 174.459 631.925 173.446 L631.925 167.949 Q634.876 169.482 637.74 170.263 Q640.605 171.016 643.412 171.016 Q647.173 171.016 649.199 169.743 Q651.224 168.441 651.224 166.097 Q651.224 163.927 649.749 162.769 Q648.302 161.612 643.354 160.541 L641.502 160.107 Q636.554 159.066 634.355 156.924 Q632.156 154.754 632.156 150.993 Q632.156 146.421 635.397 143.933 Q638.637 141.444 644.598 141.444 Q647.549 141.444 650.154 141.878 Q652.758 142.312 654.957 143.18 Z" fill="#000000" fill-rule="nonzero" fill-opacity="1" /><path clip-path="url(#clip810)" d="M677.613 129.61 L677.613 182.445 L665.344 182.445 L665.344 178.307 L672.26 178.307 L672.26 133.747 L665.344 133.747 L665.344 129.61 L677.613 129.61 Z" fill="#000000" fill-rule="nonzero" fill-opacity="1" /><path clip-path="url(#clip810)" d="M707.821 147.723 L744.916 147.723 L744.916 152.584 L707.821 152.584 L707.821 147.723 M707.821 159.529 L744.916 159.529 L744.916 164.448 L707.821 164.448 L707.821 159.529 Z" fill="#000000" fill-rule="nonzero" fill-opacity="1" /><path clip-path="url(#clip810)" d="M777.381 169.714 L786.929 169.714 L786.929 136.757 L776.542 138.84 L776.542 133.516 L786.872 131.433 L792.716 131.433 L792.716 169.714 L802.265 169.714 L802.265 174.633 L777.381 174.633 L777.381 169.714 Z" fill="#000000" fill-rule="nonzero" fill-opacity="1" /><path clip-path="url(#clip810)" d="M814.071 167.283 L820.176 167.283 L820.176 174.633 L814.071 174.633 L814.071 167.283 Z" fill="#000000" fill-rule="nonzero" fill-opacity="1" /><path clip-path="url(#clip810)" d="M845.407 135.281 Q840.893 135.281 838.607 139.737 Q836.351 144.164 836.351 153.076 Q836.351 161.959 838.607 166.415 Q840.893 170.842 845.407 170.842 Q849.95 170.842 852.207 166.415 Q854.493 161.959 854.493 153.076 Q854.493 144.164 852.207 139.737 Q849.95 135.281 845.407 135.281 M845.407 130.651 Q852.67 130.651 856.489 136.41 Q860.338 142.139 860.338 153.076 Q860.338 163.985 856.489 169.743 Q852.67 175.472 845.407 175.472 Q838.144 175.472 834.296 169.743 Q830.477 163.985 830.477 153.076 Q830.477 142.139 834.296 136.41 Q838.144 130.651 845.407 130.651 Z" fill="#000000" fill-rule="nonzero" fill-opacity="1" /><path clip-path="url(#clip810)" d="M883.833 150.703 Q879.898 150.703 877.583 153.394 Q875.297 156.085 875.297 160.773 Q875.297 165.431 877.583 168.151 Q879.898 170.842 883.833 170.842 Q887.768 170.842 890.054 168.151 Q892.369 165.431 892.369 160.773 Q892.369 156.085 890.054 153.394 Q887.768 150.703 883.833 150.703 M895.436 132.388 L895.436 137.712 Q893.237 136.67 890.98 136.12 Q888.752 135.57 886.553 135.57 Q880.766 135.57 877.699 139.477 Q874.66 143.383 874.226 151.282 Q875.934 148.765 878.509 147.434 Q881.084 146.074 884.18 146.074 Q890.69 146.074 894.452 150.038 Q898.243 153.973 898.243 160.773 Q898.243 167.428 894.307 171.45 Q890.372 175.472 883.833 175.472 Q876.339 175.472 872.375 169.743 Q868.411 163.985 868.411 153.076 Q868.411 142.833 873.272 136.757 Q878.133 130.651 886.321 130.651 Q888.52 130.651 890.748 131.085 Q893.005 131.519 895.436 132.388 Z" fill="#000000" fill-rule="nonzero" fill-opacity="1" /><path clip-path="url(#clip810)" d="M935.279 157.098 L935.279 159.702 L910.8 159.702 Q911.148 165.2 914.099 168.093 Q917.079 170.958 922.374 170.958 Q925.441 170.958 928.306 170.206 Q931.2 169.453 934.035 167.949 L934.035 172.983 Q931.171 174.199 928.161 174.835 Q925.152 175.472 922.056 175.472 Q914.301 175.472 909.759 170.958 Q905.245 166.444 905.245 158.747 Q905.245 150.79 909.527 146.132 Q913.839 141.444 921.13 141.444 Q927.669 141.444 931.46 145.669 Q935.279 149.864 935.279 157.098 M929.955 155.536 Q929.897 151.166 927.496 148.562 Q925.123 145.958 921.188 145.958 Q916.732 145.958 914.041 148.475 Q911.379 150.993 910.974 155.564 L929.955 155.536 Z" fill="#000000" fill-rule="nonzero" fill-opacity="1" /><path clip-path="url(#clip810)" d="M941.327 156.027 L956.923 156.027 L956.923 160.773 L941.327 160.773 L941.327 156.027 Z" fill="#000000" fill-rule="nonzero" fill-opacity="1" /><path clip-path="url(#clip810)" d="M978.653 135.281 Q974.139 135.281 971.853 139.737 Q969.596 144.164 969.596 153.076 Q969.596 161.959 971.853 166.415 Q974.139 170.842 978.653 170.842 Q983.196 170.842 985.453 166.415 Q987.739 161.959 987.739 153.076 Q987.739 144.164 985.453 139.737 Q983.196 135.281 978.653 135.281 M978.653 130.651 Q985.916 130.651 989.735 136.41 Q993.583 142.139 993.583 153.076 Q993.583 163.985 989.735 169.743 Q985.916 175.472 978.653 175.472 Q971.39 175.472 967.542 169.743 Q963.723 163.985 963.723 153.076 Q963.723 142.139 967.542 136.41 Q971.39 130.651 978.653 130.651 Z" fill="#000000" fill-rule="nonzero" fill-opacity="1" /><path clip-path="url(#clip810)" d="M1017.08 150.703 Q1013.14 150.703 1010.83 153.394 Q1008.54 156.085 1008.54 160.773 Q1008.54 165.431 1010.83 168.151 Q1013.14 170.842 1017.08 170.842 Q1021.01 170.842 1023.3 168.151 Q1025.61 165.431 1025.61 160.773 Q1025.61 156.085 1023.3 153.394 Q1021.01 150.703 1017.08 150.703 M1028.68 132.388 L1028.68 137.712 Q1026.48 136.67 1024.23 136.12 Q1022 135.57 1019.8 135.57 Q1014.01 135.57 1010.94 139.477 Q1007.91 143.383 1007.47 151.282 Q1009.18 148.765 1011.75 147.434 Q1014.33 146.074 1017.43 146.074 Q1023.94 146.074 1027.7 150.038 Q1031.49 153.973 1031.49 160.773 Q1031.49 167.428 1027.55 171.45 Q1023.62 175.472 1017.08 175.472 Q1009.58 175.472 1005.62 169.743 Q1001.66 163.985 1001.66 153.076 Q1001.66 142.833 1006.52 136.757 Q1011.38 130.651 1019.57 130.651 Q1021.77 130.651 1023.99 131.085 Q1026.25 131.519 1028.68 132.388 Z" fill="#000000" fill-rule="nonzero" fill-opacity="1" /><path clip-path="url(#clip810)" d="M1059.15 129.61 L1071.42 129.61 L1071.42 133.747 L1064.47 133.747 L1064.47 178.307 L1071.42 178.307 L1071.42 182.445 L1059.15 182.445 L1059.15 129.61 Z" fill="#000000" fill-rule="nonzero" fill-opacity="1" /><path clip-path="url(#clip810)" d="M1103.42 143.18 L1103.42 148.215 Q1101.16 147.058 1098.73 146.479 Q1096.3 145.9 1093.7 145.9 Q1089.73 145.9 1087.74 147.115 Q1085.77 148.331 1085.77 150.761 Q1085.77 152.613 1087.19 153.684 Q1088.61 154.725 1092.89 155.68 L1094.71 156.085 Q1100.38 157.301 1102.76 159.529 Q1105.16 161.728 1105.16 165.692 Q1105.16 170.206 1101.57 172.839 Q1098.01 175.472 1091.76 175.472 Q1089.16 175.472 1086.32 174.951 Q1083.51 174.459 1080.39 173.446 L1080.39 167.949 Q1083.34 169.482 1086.2 170.263 Q1089.07 171.016 1091.88 171.016 Q1095.64 171.016 1097.66 169.743 Q1099.69 168.441 1099.69 166.097 Q1099.69 163.927 1098.21 162.769 Q1096.77 161.612 1091.82 160.541 L1089.97 160.107 Q1085.02 159.066 1082.82 156.924 Q1080.62 154.754 1080.62 150.993 Q1080.62 146.421 1083.86 143.933 Q1087.1 141.444 1093.06 141.444 Q1096.01 141.444 1098.62 141.878 Q1101.22 142.312 1103.42 143.18 Z" fill="#000000" fill-rule="nonzero" fill-opacity="1" /><path clip-path="url(#clip810)" d="M1126.08 129.61 L1126.08 182.445 L1113.81 182.445 L1113.81 178.307 L1120.72 178.307 L1120.72 133.747 L1113.81 133.747 L1113.81 129.61 L1126.08 129.61 Z" fill="#000000" fill-rule="nonzero" fill-opacity="1" /><path clip-path="url(#clip810)" d="M1159.66 149.014 Q1159.86 149.219 1159.86 149.512 Q1159.86 149.805 1159.19 150.478 L1144.93 166.464 Q1150.38 185.612 1153.36 185.612 Q1154.27 185.612 1155.21 184.909 Q1156.17 184.236 1156.56 183.211 Q1156.7 182.713 1156.85 182.538 Q1156.99 182.362 1157.4 182.362 Q1158.11 182.362 1158.11 183.035 Q1158.11 183.387 1157.79 183.972 Q1157.46 184.587 1156.88 185.261 Q1156.29 185.963 1155.27 186.432 Q1154.24 186.929 1153.01 186.929 Q1151.49 186.929 1150.26 186.578 Q1149.03 186.227 1148.33 185.788 Q1147.63 185.348 1146.98 184.558 Q1146.37 183.797 1146.13 183.328 Q1145.93 182.889 1145.58 182.128 Q1144.87 180.488 1144.23 178.673 Q1143.59 176.858 1143.18 175.54 Q1142.77 174.223 1141.51 170.182 L1127.78 185.612 Q1127.13 186.256 1126.81 186.256 Q1126.55 186.256 1126.31 186.022 Q1126.08 185.817 1126.08 185.553 Q1126.08 185.261 1126.75 184.587 L1140.54 169.187 Q1140.75 168.982 1140.86 168.806 Q1140.98 168.631 1140.98 168.572 L1141.01 168.514 Q1141.01 168.367 1140.48 166.493 Q1139.95 164.62 1138.99 161.721 Q1138.05 158.793 1137.17 156.656 Q1136.62 155.221 1136.24 154.343 Q1135.86 153.465 1135.18 152.147 Q1134.54 150.83 1133.86 150.156 Q1133.19 149.454 1132.58 149.454 Q1132.37 149.454 1132.05 149.541 Q1131.73 149.629 1131.2 149.863 Q1130.7 150.068 1130.21 150.654 Q1129.71 151.21 1129.39 152.03 Q1129.12 152.674 1128.62 152.674 Q1128.3 152.674 1128.1 152.528 Q1127.92 152.381 1127.92 152.235 L1127.89 152.089 Q1127.89 151.562 1128.39 150.683 Q1128.89 149.805 1130.12 148.985 Q1131.35 148.136 1132.93 148.136 Q1134.42 148.136 1135.65 148.487 Q1136.88 148.839 1137.55 149.249 Q1138.26 149.659 1138.87 150.42 Q1139.49 151.152 1139.66 151.503 Q1139.87 151.825 1140.19 152.498 Q1141.18 154.782 1141.83 156.744 Q1142.5 158.676 1144.43 164.795 L1158.17 149.512 Q1158.78 148.78 1159.13 148.78 Q1159.45 148.78 1159.66 149.014 Z" fill="#000000" fill-rule="nonzero" fill-opacity="1" /><path clip-path="url(#clip810)" d="M1165.93 156.691 Q1165.93 155.933 1165.99 155.707 Q1166.07 155.482 1166.4 155.133 L1174.46 146.157 Q1178.86 141.197 1178.86 136.872 Q1178.86 134.065 1177.39 132.056 Q1175.93 130.048 1173.25 130.048 Q1171.4 130.048 1169.84 131.175 Q1168.29 132.302 1167.57 134.311 Q1167.69 134.27 1168.12 134.27 Q1169.17 134.27 1169.74 134.926 Q1170.34 135.581 1170.34 136.463 Q1170.34 137.59 1169.6 138.143 Q1168.88 138.676 1168.16 138.676 Q1167.88 138.676 1167.49 138.615 Q1167.12 138.553 1166.52 137.979 Q1165.93 137.385 1165.93 136.34 Q1165.93 133.409 1168.14 131.073 Q1170.38 128.736 1173.78 128.736 Q1177.63 128.736 1180.15 131.032 Q1182.69 133.306 1182.69 136.872 Q1182.69 138.123 1182.31 139.27 Q1181.94 140.398 1181.42 141.279 Q1180.93 142.16 1179.58 143.574 Q1178.23 144.988 1177.14 145.993 Q1176.05 146.997 1173.62 149.128 L1169.17 153.453 L1176.73 153.453 Q1180.42 153.453 1180.71 153.125 Q1181.12 152.53 1181.63 149.395 L1182.69 149.395 L1181.51 156.691 L1165.93 156.691 Z" fill="#000000" fill-rule="nonzero" fill-opacity="1" /><path clip-path="url(#clip810)" d="M1235.03 137.48 L1235.03 153.597 L1251.14 153.597 L1251.14 158.516 L1235.03 158.516 L1235.03 174.633 L1230.17 174.633 L1230.17 158.516 L1214.05 158.516 L1214.05 153.597 L1230.17 153.597 L1230.17 137.48 L1235.03 137.48 Z" fill="#000000" fill-rule="nonzero" fill-opacity="1" /><path clip-path="url(#clip810)" d="M1295.1 154.118 Q1290.93 154.118 1288.53 156.346 Q1286.15 158.574 1286.15 162.48 Q1286.15 166.386 1288.53 168.614 Q1290.93 170.842 1295.1 170.842 Q1299.26 170.842 1301.66 168.614 Q1304.07 166.357 1304.07 162.48 Q1304.07 158.574 1301.66 156.346 Q1299.29 154.118 1295.1 154.118 M1289.25 151.629 Q1285.49 150.703 1283.38 148.128 Q1281.29 145.553 1281.29 141.849 Q1281.29 136.67 1284.97 133.661 Q1288.67 130.651 1295.1 130.651 Q1301.55 130.651 1305.22 133.661 Q1308.9 136.67 1308.9 141.849 Q1308.9 145.553 1306.79 148.128 Q1304.7 150.703 1300.97 151.629 Q1305.19 152.613 1307.54 155.478 Q1309.91 158.342 1309.91 162.48 Q1309.91 168.759 1306.06 172.115 Q1302.24 175.472 1295.1 175.472 Q1287.95 175.472 1284.1 172.115 Q1280.28 168.759 1280.28 162.48 Q1280.28 158.342 1282.65 155.478 Q1285.03 152.613 1289.25 151.629 M1287.11 142.399 Q1287.11 145.756 1289.19 147.636 Q1291.31 149.517 1295.1 149.517 Q1298.86 149.517 1300.97 147.636 Q1303.11 145.756 1303.11 142.399 Q1303.11 139.043 1300.97 137.162 Q1298.86 135.281 1295.1 135.281 Q1291.31 135.281 1289.19 137.162 Q1287.11 139.043 1287.11 142.399 Z" fill="#000000" fill-rule="nonzero" fill-opacity="1" /><path clip-path="url(#clip810)" d="M1320.3 167.283 L1326.4 167.283 L1326.4 174.633 L1320.3 174.633 L1320.3 167.283 Z" fill="#000000" fill-rule="nonzero" fill-opacity="1" /><path clip-path="url(#clip810)" d="M1351.63 135.281 Q1347.12 135.281 1344.84 139.737 Q1342.58 144.164 1342.58 153.076 Q1342.58 161.959 1344.84 166.415 Q1347.12 170.842 1351.63 170.842 Q1356.18 170.842 1358.43 166.415 Q1360.72 161.959 1360.72 153.076 Q1360.72 144.164 1358.43 139.737 Q1356.18 135.281 1351.63 135.281 M1351.63 130.651 Q1358.9 130.651 1362.72 136.41 Q1366.57 142.139 1366.57 153.076 Q1366.57 163.985 1362.72 169.743 Q1358.9 175.472 1351.63 175.472 Q1344.37 175.472 1340.52 169.743 Q1336.7 163.985 1336.7 153.076 Q1336.7 142.139 1340.52 136.41 Q1344.37 130.651 1351.63 130.651 Z" fill="#000000" fill-rule="nonzero" fill-opacity="1" /><path clip-path="url(#clip810)" d="M1376.9 131.433 L1399.84 131.433 L1399.84 136.352 L1382.25 136.352 L1382.25 146.942 Q1383.52 146.508 1384.79 146.305 Q1386.07 146.074 1387.34 146.074 Q1394.57 146.074 1398.8 150.038 Q1403.02 154.002 1403.02 160.773 Q1403.02 167.746 1398.68 171.623 Q1394.34 175.472 1386.44 175.472 Q1383.72 175.472 1380.89 175.009 Q1378.08 174.546 1375.07 173.62 L1375.07 167.746 Q1377.68 169.164 1380.45 169.858 Q1383.23 170.553 1386.33 170.553 Q1391.33 170.553 1394.26 167.92 Q1397.18 165.287 1397.18 160.773 Q1397.18 156.259 1394.26 153.626 Q1391.33 150.993 1386.33 150.993 Q1383.98 150.993 1381.64 151.514 Q1379.33 152.034 1376.9 153.134 L1376.9 131.433 Z" fill="#000000" fill-rule="nonzero" fill-opacity="1" /><path clip-path="url(#clip810)" d="M1441.51 157.098 L1441.51 159.702 L1417.03 159.702 Q1417.38 165.2 1420.33 168.093 Q1423.31 170.958 1428.6 170.958 Q1431.67 170.958 1434.53 170.206 Q1437.43 169.453 1440.26 167.949 L1440.26 172.983 Q1437.4 174.199 1434.39 174.835 Q1431.38 175.472 1428.28 175.472 Q1420.53 175.472 1415.99 170.958 Q1411.47 166.444 1411.47 158.747 Q1411.47 150.79 1415.75 146.132 Q1420.07 141.444 1427.36 141.444 Q1433.9 141.444 1437.69 145.669 Q1441.51 149.864 1441.51 157.098 M1436.18 155.536 Q1436.13 151.166 1433.72 148.562 Q1431.35 145.958 1427.42 145.958 Q1422.96 145.958 1420.27 148.475 Q1417.61 150.993 1417.2 155.564 L1436.18 155.536 Z" fill="#000000" fill-rule="nonzero" fill-opacity="1" /><path clip-path="url(#clip810)" d="M1447.55 156.027 L1463.15 156.027 L1463.15 160.773 L1447.55 160.773 L1447.55 156.027 Z" fill="#000000" fill-rule="nonzero" fill-opacity="1" /><path clip-path="url(#clip810)" d="M1484.88 135.281 Q1480.37 135.281 1478.08 139.737 Q1475.82 144.164 1475.82 153.076 Q1475.82 161.959 1478.08 166.415 Q1480.37 170.842 1484.88 170.842 Q1489.42 170.842 1491.68 166.415 Q1493.97 161.959 1493.97 153.076 Q1493.97 144.164 1491.68 139.737 Q1489.42 135.281 1484.88 135.281 M1484.88 130.651 Q1492.14 130.651 1495.96 136.41 Q1499.81 142.139 1499.81 153.076 Q1499.81 163.985 1495.96 169.743 Q1492.14 175.472 1484.88 175.472 Q1477.62 175.472 1473.77 169.743 Q1469.95 163.985 1469.95 153.076 Q1469.95 142.139 1473.77 136.41 Q1477.62 130.651 1484.88 130.651 Z" fill="#000000" fill-rule="nonzero" fill-opacity="1" /><path clip-path="url(#clip810)" d="M1526.14 136.525 L1511.39 159.586 L1526.14 159.586 L1526.14 136.525 M1524.61 131.433 L1531.96 131.433 L1531.96 159.586 L1538.12 159.586 L1538.12 164.448 L1531.96 164.448 L1531.96 174.633 L1526.14 174.633 L1526.14 164.448 L1506.64 164.448 L1506.64 158.805 L1524.61 131.433 Z" fill="#000000" fill-rule="nonzero" fill-opacity="1" /><path clip-path="url(#clip810)" d="M1565.38 129.61 L1577.65 129.61 L1577.65 133.747 L1570.7 133.747 L1570.7 178.307 L1577.65 178.307 L1577.65 182.445 L1565.38 182.445 L1565.38 129.61 Z" fill="#000000" fill-rule="nonzero" fill-opacity="1" /><path clip-path="url(#clip810)" d="M1609.65 143.18 L1609.65 148.215 Q1607.39 147.058 1604.96 146.479 Q1602.53 145.9 1599.93 145.9 Q1595.96 145.9 1593.97 147.115 Q1592 148.331 1592 150.761 Q1592 152.613 1593.42 153.684 Q1594.83 154.725 1599.12 155.68 L1600.94 156.085 Q1606.61 157.301 1608.98 159.529 Q1611.38 161.728 1611.38 165.692 Q1611.38 170.206 1607.8 172.839 Q1604.24 175.472 1597.99 175.472 Q1595.38 175.472 1592.55 174.951 Q1589.74 174.459 1586.62 173.446 L1586.62 167.949 Q1589.57 169.482 1592.43 170.263 Q1595.3 171.016 1598.1 171.016 Q1601.87 171.016 1603.89 169.743 Q1605.92 168.441 1605.92 166.097 Q1605.92 163.927 1604.44 162.769 Q1602.99 161.612 1598.05 160.541 L1596.19 160.107 Q1591.25 159.066 1589.05 156.924 Q1586.85 154.754 1586.85 150.993 Q1586.85 146.421 1590.09 143.933 Q1593.33 141.444 1599.29 141.444 Q1602.24 141.444 1604.85 141.878 Q1607.45 142.312 1609.65 143.18 Z" fill="#000000" fill-rule="nonzero" fill-opacity="1" /><path clip-path="url(#clip810)" d="M1632.3 129.61 L1632.3 182.445 L1620.04 182.445 L1620.04 178.307 L1626.95 178.307 L1626.95 133.747 L1620.04 133.747 L1620.04 129.61 L1632.3 129.61 Z" fill="#000000" fill-rule="nonzero" fill-opacity="1" /><path clip-path="url(#clip810)" d="M1689.82 139.322 Q1690.02 139.527 1690.02 139.819 Q1690.02 140.112 1689.35 140.785 L1675.09 156.771 Q1680.53 175.919 1683.52 175.919 Q1684.43 175.919 1685.37 175.216 Q1686.33 174.543 1686.71 173.518 Q1686.86 173.021 1687.01 172.845 Q1687.15 172.669 1687.56 172.669 Q1688.26 172.669 1688.26 173.343 Q1688.26 173.694 1687.94 174.28 Q1687.62 174.894 1687.03 175.568 Q1686.45 176.27 1685.42 176.739 Q1684.4 177.237 1683.17 177.237 Q1681.65 177.237 1680.42 176.885 Q1679.19 176.534 1678.49 176.095 Q1677.78 175.656 1677.14 174.865 Q1676.52 174.104 1676.29 173.635 Q1676.08 173.196 1675.73 172.435 Q1675.03 170.795 1674.39 168.98 Q1673.74 167.165 1673.33 165.847 Q1672.92 164.53 1671.66 160.49 L1657.93 175.919 Q1657.29 176.563 1656.97 176.563 Q1656.7 176.563 1656.47 176.329 Q1656.23 176.124 1656.23 175.861 Q1656.23 175.568 1656.91 174.894 L1670.7 159.494 Q1670.9 159.289 1671.02 159.114 Q1671.14 158.938 1671.14 158.879 L1671.17 158.821 Q1671.17 158.674 1670.64 156.801 Q1670.11 154.927 1669.15 152.028 Q1668.21 149.1 1667.33 146.963 Q1666.77 145.529 1666.39 144.65 Q1666.01 143.772 1665.34 142.454 Q1664.7 141.137 1664.02 140.463 Q1663.35 139.761 1662.73 139.761 Q1662.53 139.761 1662.21 139.849 Q1661.88 139.936 1661.36 140.171 Q1660.86 140.376 1660.36 140.961 Q1659.86 141.517 1659.54 142.337 Q1659.28 142.981 1658.78 142.981 Q1658.46 142.981 1658.25 142.835 Q1658.08 142.689 1658.08 142.542 L1658.05 142.396 Q1658.05 141.869 1658.55 140.99 Q1659.04 140.112 1660.27 139.292 Q1661.5 138.443 1663.09 138.443 Q1664.58 138.443 1665.81 138.795 Q1667.04 139.146 1667.71 139.556 Q1668.41 139.966 1669.03 140.727 Q1669.64 141.459 1669.82 141.81 Q1670.02 142.132 1670.35 142.806 Q1671.34 145.089 1671.99 147.051 Q1672.66 148.983 1674.59 155.102 L1688.32 139.819 Q1688.94 139.087 1689.29 139.087 Q1689.61 139.087 1689.82 139.322 Z" fill="#000000" fill-rule="nonzero" fill-opacity="1" /><path clip-path="url(#clip810)" d="M1739.5 137.48 L1739.5 153.597 L1755.62 153.597 L1755.62 158.516 L1739.5 158.516 L1739.5 174.633 L1734.64 174.633 L1734.64 158.516 L1718.53 158.516 L1718.53 153.597 L1734.64 153.597 L1734.64 137.48 L1739.5 137.48 Z" fill="#000000" fill-rule="nonzero" fill-opacity="1" /><path clip-path="url(#clip810)" d="M1788.09 169.714 L1797.64 169.714 L1797.64 136.757 L1787.25 138.84 L1787.25 133.516 L1797.58 131.433 L1803.42 131.433 L1803.42 169.714 L1812.97 169.714 L1812.97 174.633 L1788.09 174.633 L1788.09 169.714 Z" fill="#000000" fill-rule="nonzero" fill-opacity="1" /><path clip-path="url(#clip810)" d="M1824.78 167.283 L1830.88 167.283 L1830.88 174.633 L1824.78 174.633 L1824.78 167.283 Z" fill="#000000" fill-rule="nonzero" fill-opacity="1" /><path clip-path="url(#clip810)" d="M1859.67 136.525 L1844.91 159.586 L1859.67 159.586 L1859.67 136.525 M1858.14 131.433 L1865.49 131.433 L1865.49 159.586 L1871.65 159.586 L1871.65 164.448 L1865.49 164.448 L1865.49 174.633 L1859.67 174.633 L1859.67 164.448 L1840.17 164.448 L1840.17 158.805 L1858.14 131.433 Z" fill="#000000" fill-rule="nonzero" fill-opacity="1" /><path clip-path="url(#clip810)" d="M1897.37 136.525 L1882.62 159.586 L1897.37 159.586 L1897.37 136.525 M1895.84 131.433 L1903.19 131.433 L1903.19 159.586 L1909.35 159.586 L1909.35 164.448 L1903.19 164.448 L1903.19 174.633 L1897.37 174.633 L1897.37 164.448 L1877.87 164.448 L1877.87 158.805 L1895.84 131.433 Z" fill="#000000" fill-rule="nonzero" fill-opacity="1" /><path clip-path="url(#clip810)" d="M1945.98 157.098 L1945.98 159.702 L1921.51 159.702 Q1921.85 165.2 1924.8 168.093 Q1927.78 170.958 1933.08 170.958 Q1936.15 170.958 1939.01 170.206 Q1941.91 169.453 1944.74 167.949 L1944.74 172.983 Q1941.88 174.199 1938.87 174.835 Q1935.86 175.472 1932.76 175.472 Q1925.01 175.472 1920.46 170.958 Q1915.95 166.444 1915.95 158.747 Q1915.95 150.79 1920.23 146.132 Q1924.54 141.444 1931.84 141.444 Q1938.38 141.444 1942.17 145.669 Q1945.98 149.864 1945.98 157.098 M1940.66 155.536 Q1940.6 151.166 1938.2 148.562 Q1935.83 145.958 1931.89 145.958 Q1927.44 145.958 1924.75 148.475 Q1922.08 150.993 1921.68 155.564 L1940.66 155.536 Z" fill="#000000" fill-rule="nonzero" fill-opacity="1" /><path clip-path="url(#clip810)" d="M1952.03 156.027 L1967.63 156.027 L1967.63 160.773 L1952.03 160.773 L1952.03 156.027 Z" fill="#000000" fill-rule="nonzero" fill-opacity="1" /><path clip-path="url(#clip810)" d="M1989.36 135.281 Q1984.84 135.281 1982.56 139.737 Q1980.3 144.164 1980.3 153.076 Q1980.3 161.959 1982.56 166.415 Q1984.84 170.842 1989.36 170.842 Q1993.9 170.842 1996.16 166.415 Q1998.44 161.959 1998.44 153.076 Q1998.44 144.164 1996.16 139.737 Q1993.9 135.281 1989.36 135.281 M1989.36 130.651 Q1996.62 130.651 2000.44 136.41 Q2004.29 142.139 2004.29 153.076 Q2004.29 163.985 2000.44 169.743 Q1996.62 175.472 1989.36 175.472 Q1982.1 175.472 1978.25 169.743 Q1974.43 163.985 1974.43 153.076 Q1974.43 142.139 1978.25 136.41 Q1982.1 130.651 1989.36 130.651 Z" fill="#000000" fill-rule="nonzero" fill-opacity="1" /><path clip-path="url(#clip810)" d="M2019.6 169.714 L2039.99 169.714 L2039.99 174.633 L2012.56 174.633 L2012.56 169.714 Q2015.89 166.27 2021.62 160.483 Q2027.38 154.668 2028.85 152.989 Q2031.66 149.835 2032.76 147.665 Q2033.89 145.466 2033.89 143.354 Q2033.89 139.911 2031.46 137.741 Q2029.06 135.57 2025.18 135.57 Q2022.43 135.57 2019.36 136.525 Q2016.33 137.48 2012.85 139.419 L2012.85 133.516 Q2016.38 132.098 2019.45 131.375 Q2022.52 130.651 2025.06 130.651 Q2031.78 130.651 2035.77 134.008 Q2039.76 137.364 2039.76 142.978 Q2039.76 145.64 2038.75 148.041 Q2037.77 150.414 2035.13 153.655 Q2034.41 154.494 2030.53 158.516 Q2026.66 162.509 2019.6 169.714 Z" fill="#000000" fill-rule="nonzero" fill-opacity="1" /><path clip-path="url(#clip810)" d="M2069.86 129.61 L2082.12 129.61 L2082.12 133.747 L2075.18 133.747 L2075.18 178.307 L2082.12 178.307 L2082.12 182.445 L2069.86 182.445 L2069.86 129.61 Z" fill="#000000" fill-rule="nonzero" fill-opacity="1" /><path clip-path="url(#clip810)" d="M2114.13 143.18 L2114.13 148.215 Q2111.87 147.058 2109.44 146.479 Q2107.01 145.9 2104.4 145.9 Q2100.44 145.9 2098.44 147.115 Q2096.48 148.331 2096.48 150.761 Q2096.48 152.613 2097.89 153.684 Q2099.31 154.725 2103.59 155.68 L2105.42 156.085 Q2111.09 157.301 2113.46 159.529 Q2115.86 161.728 2115.86 165.692 Q2115.86 170.206 2112.27 172.839 Q2108.72 175.472 2102.47 175.472 Q2099.86 175.472 2097.03 174.951 Q2094.22 174.459 2091.09 173.446 L2091.09 167.949 Q2094.05 169.482 2096.91 170.263 Q2099.77 171.016 2102.58 171.016 Q2106.34 171.016 2108.37 169.743 Q2110.39 168.441 2110.39 166.097 Q2110.39 163.927 2108.92 162.769 Q2107.47 161.612 2102.52 160.541 L2100.67 160.107 Q2095.72 159.066 2093.52 156.924 Q2091.33 154.754 2091.33 150.993 Q2091.33 146.421 2094.57 143.933 Q2097.81 141.444 2103.77 141.444 Q2106.72 141.444 2109.32 141.878 Q2111.93 142.312 2114.13 143.18 Z" fill="#000000" fill-rule="nonzero" fill-opacity="1" /><path clip-path="url(#clip810)" d="M2136.78 129.61 L2136.78 182.445 L2124.51 182.445 L2124.51 178.307 L2131.43 178.307 L2131.43 133.747 L2124.51 133.747 L2124.51 129.61 L2136.78 129.61 Z" fill="#000000" fill-rule="nonzero" fill-opacity="1" /></svg>
